<svg width="61" height="55" viewBox="0 0 61 55" fill="none" xmlns="http://www.w3.org/2000/svg">
<path fill-rule="evenodd" clip-rule="evenodd" d="M23 15.9074L25.3774 10.1678L28.871 11.3298C29.8397 9.9733 31.0129 8.81496 32.3311 7.87467L31.1666 4.37861L36.9074 2L38.5564 5.2966C40.1532 5.02901 41.8009 5.01786 43.4461 5.29289L45.0926 2L50.8334 4.37861L49.6714 7.87219C51.0279 8.83974 52.1863 10.0142 53.1253 11.3311L56.6226 10.1678L59 15.9074L55.7046 17.5576C55.9722 19.1532 55.9834 20.8022 55.7084 22.4461L59 24.0938L56.6226 29.8347L53.129 28.6714C52.1615 30.0279 50.9871 31.1863 49.6702 32.1266L50.8334 35.6239L45.0926 38L43.4436 34.7046C41.848 34.9722 40.1991 34.9834 38.5551 34.7084L36.9074 38L31.1666 35.6239L32.3298 32.1303C30.9733 31.1615 29.815 29.9883 28.8747 28.6702L25.3774 29.8347L23 24.0938L26.2966 22.4449C26.029 20.848 26.0179 19.1991 26.2929 17.5551L23 15.9074Z" fill="#C9CEBC"/>
<path fill-rule="evenodd" clip-rule="evenodd" d="M23 15.9074L25.3774 10.1678L28.871 11.3298C29.8397 9.9733 31.0129 8.81496 32.3311 7.87467L31.1666 4.37861L36.9074 2L38.5564 5.2966C40.1532 5.02901 41.8009 5.01786 43.4461 5.29289L45.0926 2L50.8334 4.37861L49.6714 7.87219C51.0279 8.83974 52.1863 10.0142 53.1253 11.3311L56.6226 10.1678L59 15.9074L55.7046 17.5576C55.9722 19.1532 55.9834 20.8022 55.7084 22.4461L59 24.0938L56.6226 29.8347L53.129 28.6714C52.1615 30.0279 50.9871 31.1863 49.6702 32.1266L50.8334 35.6239L45.0926 38L43.4436 34.7046C41.848 34.9722 40.1991 34.9834 38.5551 34.7084L36.9074 38L31.1666 35.6239L32.3298 32.1303C30.9733 31.1615 29.815 29.9883 28.8747 28.6702L25.3774 29.8347L23 24.0938L26.2966 22.4449C26.029 20.848 26.0179 19.1991 26.2929 17.5551L23 15.9074Z" stroke="#2A2B2E" stroke-width="2" stroke-linecap="round"/>
<path fill-rule="evenodd" clip-rule="evenodd" d="M35.4584 22.2969C36.7267 25.3578 40.235 26.8098 43.2961 25.5411C46.356 24.2723 47.8099 20.764 46.5416 17.7031C45.2733 14.6422 41.765 13.1902 38.7039 14.4589C35.644 15.7277 34.1901 19.2373 35.4584 22.2969Z" fill="white"/>
<path fill-rule="evenodd" clip-rule="evenodd" d="M35.4584 22.2969C36.7267 25.3578 40.235 26.8098 43.2961 25.5411C46.356 24.2723 47.8099 20.764 46.5416 17.7031C45.2733 14.6422 41.765 13.1902 38.7039 14.4589C35.644 15.7277 34.1901 19.2373 35.4584 22.2969Z" stroke="#2A2B2E" stroke-width="2" stroke-linecap="round"/>
<path d="M18 18.6456C17.1204 16.4584 14.6884 15.4216 12.5671 16.3278C10.4459 17.2353 9.43849 19.7431 10.3181 21.9304C10.6827 22.8366 11.3142 23.545 12.0785 24" stroke="#2A2B2E" stroke-width="2" stroke-linecap="round"/>
<path fill-rule="evenodd" clip-rule="evenodd" d="M3 38.6575L4.65099 34.6712L7.73292 35.9476C8.35283 35.0787 9.10477 34.3368 9.9485 33.7344L8.67096 30.6511L12.6582 29L13.9345 32.0833C14.9581 31.9123 16.013 31.906 17.0667 32.0821L18.343 29L22.329 30.6511L21.0515 33.7319C21.9216 34.3531 22.6623 35.1038 23.2646 35.9488L26.349 34.6712L28 38.6575L24.9156 39.9351C25.0866 40.9574 25.0941 42.0124 24.9181 43.0662L28 44.3425L26.349 48.3288L23.2671 47.0524C22.6472 47.9213 21.8952 48.6632 21.0515 49.2656L22.329 52.3489L18.343 54L17.0655 50.9167C16.0432 51.0877 14.987 51.0952 13.9345 50.9192L12.6582 54L8.67096 52.3502L9.94724 49.2681C9.07836 48.6469 8.33774 47.8962 7.73544 47.0524L4.65099 48.3288L3 44.3425L6.08445 43.0662C5.91344 42.0426 5.90589 40.9876 6.08193 39.9351L3 38.6575Z" fill="#AA4465"/>
<path fill-rule="evenodd" clip-rule="evenodd" d="M3 38.6575L4.65099 34.6712L7.73292 35.9476C8.35283 35.0787 9.10477 34.3368 9.9485 33.7344L8.67096 30.6511L12.6582 29L13.9345 32.0833C14.9581 31.9123 16.013 31.906 17.0667 32.0821L18.343 29L22.329 30.6511L21.0515 33.7319C21.9216 34.3531 22.6623 35.1038 23.2646 35.9488L26.349 34.6712L28 38.6575L24.9156 39.9351C25.0866 40.9574 25.0941 42.0124 24.9181 43.0662L28 44.3425L26.349 48.3288L23.2671 47.0524C22.6472 47.9213 21.8952 48.6632 21.0515 49.2656L22.329 52.3489L18.343 54L17.0655 50.9167C16.0432 51.0877 14.987 51.0952 13.9345 50.9192L12.6582 54L8.67096 52.3502L9.94724 49.2681C9.07836 48.6469 8.33774 47.8962 7.73544 47.0524L4.65099 48.3288L3 44.3425L6.08445 43.0662C5.91344 42.0426 5.90589 40.9876 6.08193 39.9351L3 38.6575Z" stroke="#2A2B2E" stroke-width="2" stroke-linejoin="round"/>
<path d="M7.00285 25.5479L4.13132 27L2.32545 23.1409L5.19698 21.6888C4.97553 20.6843 4.90946 19.6378 5.01591 18.5812L2 17.4978L3.34829 13.4429L6.36542 14.5275C6.90742 13.6272 7.58279 12.8465 8.35359 12.1993L6.95759 9.21375L10.6697 7.33823L12.0669 10.3225C13.0334 10.0924 14.0404 10.0224 15.0559 10.1343L16.0995 7L20 8.40123L18.9576 11.5356" stroke="#2A2B2E" stroke-width="2" stroke-linecap="round"/>
<path fill-rule="evenodd" clip-rule="evenodd" d="M11.3057 39.4706C10.4599 41.5101 11.4293 43.8496 13.47 44.6942C15.5095 45.5401 17.849 44.5707 18.6948 42.5311C19.5394 40.4904 18.5712 38.1509 16.5293 37.3051C14.4898 36.4604 12.1503 37.4298 11.3057 39.4706Z" fill="white"/>
<path fill-rule="evenodd" clip-rule="evenodd" d="M11.3057 39.4706C10.4599 41.5101 11.4293 43.8496 13.47 44.6942C15.5095 45.5401 17.849 44.5707 18.6948 42.5311C19.5394 40.4904 18.5712 38.1509 16.5293 37.3051C14.4898 36.4604 12.1503 37.4298 11.3057 39.4706Z" stroke="#2A2B2E" stroke-width="2" stroke-linecap="round"/>
</svg>
