<svg width="52" height="58" viewBox="0 0 52 58" fill="none" xmlns="http://www.w3.org/2000/svg">
<path fill-rule="evenodd" clip-rule="evenodd" d="M35.5 26H44.5417L51 32.4706L35.5 48L20 32.4706L26.4583 26H35.5Z" fill="#AA4465"/>
<path d="M35.6151 26.4546H44.5894L50.9997 32.8182L35.6151 48.091L20.2305 32.8182L26.6407 26.4546H35.6151" stroke="#2A2B2E" stroke-width="2" stroke-linejoin="round"/>
<path d="M20.2305 54.4545H40.7433C41.451 54.4545 42.0253 53.8856 42.0253 53.1818V46.8181" stroke="#2A2B2E" stroke-width="2" stroke-linecap="round"/>
<path d="M42.0256 22.6364V2.27273C42.0256 1.57018 41.4513 1 40.7436 1H8.69231L1 8.63636V53.1818C1 53.8856 1.57436 54.4545 2.28205 54.4545H7.41026" stroke="#2A2B2E" stroke-width="2" stroke-linecap="round"/>
<path d="M3.56445 9.90905H9.97471V3.54541" stroke="#2A2B2E" stroke-width="2" stroke-linecap="round"/>
<path fill-rule="evenodd" clip-rule="evenodd" d="M35.6153 48.091L29.2051 32.8182L33.0512 26.4546" fill="#AA4465"/>
<path d="M35.6153 48.091L29.2051 32.8182L33.0512 26.4546" stroke="#2A2B2E" stroke-width="2" stroke-linejoin="round"/>
<path fill-rule="evenodd" clip-rule="evenodd" d="M35.6152 48.091L42.0255 32.8182L38.1793 26.4546" fill="#AA4465"/>
<path d="M35.6152 48.091L42.0255 32.8182L38.1793 26.4546" stroke="#2A2B2E" stroke-width="2" stroke-linejoin="round"/>
<path d="M20.2305 32.8182H50.9997" stroke="#2A2B2E" stroke-width="2" stroke-linejoin="round"/>
<path d="M9.97461 17.5455H30.4874" stroke="#2A2B2E" stroke-width="2" stroke-linecap="round"/>
<path d="M9.97461 22.6364H20.231" stroke="#2A2B2E" stroke-width="2" stroke-linecap="round"/>
<path d="M9.97461 28.9999H16.3849" stroke="#2A2B2E" stroke-width="2" stroke-linecap="round"/>
<path fill-rule="evenodd" clip-rule="evenodd" d="M16.385 48.0908V56.9999L13.8209 55.7272L11.2568 56.9999V48.0908" fill="#AA4465"/>
<path d="M16.385 48.0908V56.9999L13.8209 55.7272L11.2568 56.9999V48.0908" stroke="#2A2B2E" stroke-width="2" stroke-linejoin="round"/>
<path fill-rule="evenodd" clip-rule="evenodd" d="M18.9488 44.2728C18.9488 47.0842 16.6526 49.3637 13.8206 49.3637C10.9885 49.3637 8.69238 47.0842 8.69238 44.2728C8.69238 41.4613 10.9885 39.1819 13.8206 39.1819C16.6526 39.1819 18.9488 41.4613 18.9488 44.2728Z" fill="#AA4465"/>
<path fill-rule="evenodd" clip-rule="evenodd" d="M18.9488 44.2728C18.9488 47.0842 16.6526 49.3637 13.8206 49.3637C10.9885 49.3637 8.69238 47.0842 8.69238 44.2728C8.69238 41.4613 10.9885 39.1819 13.8206 39.1819C16.6526 39.1819 18.9488 41.4613 18.9488 44.2728Z" stroke="#2A2B2E" stroke-width="2" stroke-linejoin="round"/>
</svg>
