<svg width="270" height="266" viewBox="0 0 270 266" fill="none" xmlns="http://www.w3.org/2000/svg">
<path fill-rule="evenodd" clip-rule="evenodd" d="M263.463 189L104.181 166.764C100.182 166.252 97.185 162.836 97.185 158.788L95 47.2623C95 47.2623 98.6306 44.6349 100.689 43.6276C101.736 43.1153 102.942 42.8906 104.196 43.0511L263.004 63.3814C267.003 63.8934 270 67.3096 270 71.357V180.897C270 182.857 269.108 184.584 267.728 185.724C266.457 186.773 263.463 189 263.463 189Z" fill="#AA4465"/>
<path fill-rule="evenodd" clip-rule="evenodd" d="M258.982 190.949L100.003 170.639C95.9998 170.128 93 166.715 93 162.672V53.2423C93 49.4818 96.2947 46.5756 100.018 47.0511L258.997 67.3609C263 67.8724 266 71.2851 266 75.3281V184.758C266 188.518 262.705 191.425 258.982 190.949Z" fill="#C9CEBD"/>
<path fill-rule="evenodd" clip-rule="evenodd" d="M266.503 105C266.229 105 266.006 104.782 266.006 104.513V74.8901C266.006 71.1306 263.139 67.9372 259.337 67.4615L231.434 63.9713C231.162 63.9372 230.969 63.6932 231.004 63.4261C231.039 63.1589 231.287 62.9688 231.56 63.0042L259.463 66.4947C263.76 67.0322 267 70.6416 267 74.8901V104.513C267 104.782 266.777 105 266.503 105Z" fill="#2A2B2E"/>
<path fill-rule="evenodd" clip-rule="evenodd" d="M92.4907 77C92.2198 77 92 76.7834 92 76.5158V52.6407C92 50.7336 92.8319 48.9173 94.2827 47.6568C95.7329 46.3966 97.6646 45.8124 99.5816 46.0532L224.571 61.7818C224.84 61.8153 225.03 62.0577 224.996 62.3231C224.962 62.5887 224.714 62.7753 224.447 62.7421L99.4576 47.0141C97.818 46.8085 96.1699 47.3069 94.9311 48.3834C93.6919 49.4599 92.9814 51.0116 92.9814 52.6407V76.5158C92.9814 76.7834 92.7616 77 92.4907 77Z" fill="#2A2B2E"/>
<path fill-rule="evenodd" clip-rule="evenodd" d="M255.3 185.966L103.106 166.565C100.187 166.193 98 163.71 98 160.769V55.1705C98 52.658 100.206 50.716 102.7 51.0342L254.894 70.4348C257.813 70.8067 260 73.2898 260 76.2309V181.829C260 184.342 257.793 186.284 255.3 185.966Z" fill="white"/>
<mask id="mask0_0:4806" style="mask-type:alpha" maskUnits="userSpaceOnUse" x="0" y="173" width="266" height="82">
<path fill-rule="evenodd" clip-rule="evenodd" d="M0 173H266V255H0V173Z" fill="white"/>
</mask>
<g mask="url(#mask0_0:4806)">
<path fill-rule="evenodd" clip-rule="evenodd" d="M165.928 254.814L1.99069 233.71C0.707743 233.546 -0.0161047 232.474 0.000271982 231.402C0.0120632 230.662 0.0716741 225.453 0.0716741 225.453L86.7539 175.989C91.0966 173.513 96.7161 172.556 101.677 173.19L263.544 194.033C264.519 194.159 265.354 194.789 265.74 195.692L266 196.3C266 196.3 265.861 200.644 265.917 201.659C265.961 202.452 265.604 203.271 264.771 203.746L180.265 251.976C175.922 254.452 170.889 255.448 165.928 254.814Z" fill="#C9CEBD"/>
</g>
<path fill-rule="evenodd" clip-rule="evenodd" d="M165.792 248.815L2.9841 227.868C0.822724 227.592 0.254387 224.738 2.14612 223.661L85.9192 176.007C90.2479 173.545 95.264 172.555 100.209 173.185L263.016 194.132C265.177 194.408 265.746 197.262 263.854 198.339L180.081 245.993C175.752 248.455 170.736 249.445 165.792 248.815Z" fill="white"/>
<path fill-rule="evenodd" clip-rule="evenodd" d="M166.356 248.846C171.165 249.46 176.132 248.478 180.341 246.083L264.12 198.41C264.941 197.943 265.105 197.13 264.984 196.524C264.863 195.919 264.401 195.229 263.463 195.109L100.643 174.154C95.8345 173.541 90.8683 174.522 86.6588 176.917L2.87968 224.59C2.05895 225.057 1.89539 225.87 2.01585 226.476C2.13665 227.082 2.59958 227.771 3.53686 227.891L166.356 248.846ZM169.171 250C168.19 250 167.208 249.938 166.231 249.814H166.231L3.41182 228.859C2.21532 228.706 1.29012 227.845 1.05539 226.666C0.820333 225.487 1.34594 224.339 2.3939 223.743L86.173 176.07C90.5663 173.57 95.7499 172.546 100.768 173.186L263.588 194.141C264.785 194.294 265.71 195.155 265.945 196.334C266.179 197.514 265.654 198.661 264.606 199.257L180.827 246.93C177.288 248.944 173.236 250 169.171 250Z" fill="#2A2B2E"/>
<path fill-rule="evenodd" clip-rule="evenodd" d="M197.89 222.832L56.7909 204.397C54.8402 204.146 54.3266 201.549 56.035 200.569L89.211 181.737C93.1187 179.496 97.647 178.595 102.11 179.168L243.209 197.602C245.16 197.853 245.673 200.451 243.965 201.431L210.789 220.263C206.881 222.504 202.353 223.405 197.89 222.832Z" fill="#C9CEBD"/>
<path fill-rule="evenodd" clip-rule="evenodd" d="M146 123.067V98.2713C146.013 97.2952 146.533 96.3957 147.372 95.9009L178.956 77.2757C179.681 76.8479 180.595 76.9235 181.241 77.4639L191.137 84.7394L209.856 98.2112L210 135L146 123.067Z" fill="white"/>
<path fill-rule="evenodd" clip-rule="evenodd" d="M145.489 99C145.219 99 145 98.7825 145 98.5137C145 97.3686 145.617 96.297 146.61 95.7177L178.114 77.3377C179.012 76.8134 180.153 76.9065 180.953 77.5692L190.8 84.7301C191.017 84.8886 191.065 85.193 190.906 85.4096C190.746 85.6265 190.44 85.6735 190.222 85.5153L180.352 78.3356C179.843 77.9154 179.153 77.8593 178.609 78.1764L147.105 96.5567C146.41 96.9623 145.978 97.7122 145.978 98.5137C145.978 98.7825 145.759 99 145.489 99Z" fill="#2A2B2E"/>
<path fill-rule="evenodd" clip-rule="evenodd" d="M210 148L150.736 140.65L150 87.0615C150.007 84.609 152.176 82.7194 154.622 83.0344L205.509 89.5899C207.551 89.8528 209.078 91.5823 209.078 93.6294L210 148Z" fill="#C9CEBD"/>
<path fill-rule="evenodd" clip-rule="evenodd" d="M151.718 140.664L209.993 147.886L209.081 94.1201C209.081 92.3186 207.732 90.7926 205.942 90.5622L155.053 84.0114C154.027 83.8789 152.994 84.1917 152.216 84.8687C151.439 85.5453 150.991 86.523 150.988 87.55L151.718 140.664ZM211 149L150.742 141.533L150 87.5553C150.004 86.238 150.575 84.9927 151.566 84.1302C152.556 83.2677 153.875 82.8698 155.179 83.0377L206.069 89.5885C208.349 89.8823 210.069 91.8268 210.069 94.112L211 149Z" fill="#2A2B2E"/>
<path fill-rule="evenodd" clip-rule="evenodd" d="M214 155L149.213 146.687C146.861 146.329 145.122 144.323 145.116 141.961L145 98.6103C145 98.0898 145.615 97.8091 146.013 98.148L175.138 122.961C177.681 125.127 181.334 125.436 184.209 123.728L213.984 106.039L214 155Z" fill="white"/>
<path fill-rule="evenodd" clip-rule="evenodd" d="M146.11 97.9794C146.09 97.9794 146.072 97.985 146.057 97.9915C146.025 98.0062 145.987 98.0368 145.987 98.1001L146.103 141.414C146.108 143.547 147.656 145.33 149.782 145.653L214.012 153.887L213.997 106.385L184.963 123.617C181.901 125.433 178.024 125.106 175.316 122.802L146.186 98.0094C146.16 97.9869 146.133 97.9794 146.11 97.9794ZM215 155L149.644 146.622C147.022 146.224 145.123 144.035 145.116 141.416L145 98.1014C145 97.6659 145.247 97.2836 145.645 97.1022C146.043 96.9208 146.497 96.9841 146.829 97.2666L175.959 122.059C178.345 124.089 181.76 124.377 184.456 122.777L214.984 104.659L215 155Z" fill="#2A2B2E"/>
<path fill-rule="evenodd" clip-rule="evenodd" d="M152.489 139C152.322 139 152.16 138.913 152.068 138.758C151.931 138.523 152.007 138.219 152.239 138.08L167.263 129.069C167.495 128.93 167.794 129.007 167.932 129.242C168.069 129.477 167.993 129.78 167.761 129.919L152.737 138.931C152.659 138.978 152.574 139 152.489 139Z" fill="#2A2B2E"/>
<path fill-rule="evenodd" clip-rule="evenodd" d="M199.537 140C199.431 140 199.325 139.964 199.238 139.891L193.163 134.801C192.968 134.639 192.945 134.351 193.11 134.16C193.276 133.969 193.568 133.946 193.762 134.108L199.837 139.198C200.032 139.361 200.055 139.648 199.89 139.84C199.798 139.946 199.668 140 199.537 140Z" fill="#2A2B2E"/>
<path fill-rule="evenodd" clip-rule="evenodd" d="M198 95L159 90L198 95Z" fill="#AA4465"/>
<path fill-rule="evenodd" clip-rule="evenodd" d="M198.512 96C198.492 96 198.47 95.9987 198.449 95.9958L159.425 90.9612C159.158 90.9268 158.969 90.6849 159.004 90.4202C159.039 90.1561 159.28 89.9692 159.552 90.0042L198.575 95.0391C198.842 95.0736 199.031 95.3158 198.996 95.5799C198.964 95.8231 198.754 96 198.512 96Z" fill="#2A2B2E"/>
<path fill-rule="evenodd" clip-rule="evenodd" d="M198 102L159 97L198 102Z" fill="#AA4465"/>
<path fill-rule="evenodd" clip-rule="evenodd" d="M198.512 103C198.492 103 198.47 102.999 198.449 102.996L159.425 97.9612C159.158 97.9268 158.969 97.6845 159.004 97.4201C159.039 97.156 159.28 96.9682 159.552 97.0045L198.575 102.039C198.842 102.074 199.031 102.316 198.996 102.58C198.964 102.823 198.754 103 198.512 103Z" fill="#2A2B2E"/>
<path fill-rule="evenodd" clip-rule="evenodd" d="M198 109L159 104L198 109Z" fill="#AA4465"/>
<path fill-rule="evenodd" clip-rule="evenodd" d="M198.512 110C198.492 110 198.47 109.999 198.449 109.996L159.425 104.961C159.158 104.927 158.969 104.685 159.004 104.42C159.039 104.156 159.28 103.969 159.552 104.004L198.575 109.039C198.842 109.074 199.031 109.316 198.996 109.58C198.964 109.823 198.754 110 198.512 110Z" fill="#2A2B2E"/>
<path fill-rule="evenodd" clip-rule="evenodd" d="M190 115L169 112L190 115Z" fill="#AA4465"/>
<path fill-rule="evenodd" clip-rule="evenodd" d="M190.501 116C190.48 116 190.458 115.999 190.436 115.995L169.435 113.064C169.161 113.026 168.968 112.758 169.004 112.465C169.04 112.173 169.288 111.966 169.564 112.005L190.565 114.936C190.839 114.974 191.032 115.242 190.996 115.535C190.963 115.804 190.748 116 190.501 116Z" fill="#2A2B2E"/>
<path fill-rule="evenodd" clip-rule="evenodd" d="M157.125 165.134C165.125 167.189 175.469 169.317 181.951 168.471C191.608 167.21 198.252 163.928 200.796 151.859C203.339 139.79 206.059 128.616 204.988 124.544C203.918 120.473 201.164 113.571 201.957 109.785C202.751 105.999 203.131 103.109 202.918 100.834C202.704 98.5587 202.713 96.9184 203.84 96.8108C204.966 96.7032 207.665 98.2852 207.294 103.438C206.933 108.454 209.8 108.899 211.232 107.453C213.817 104.842 213.079 102.772 211.703 100.527C210.149 97.9916 205.73 97.044 206.908 94.8402C208.952 91.017 219.055 101.39 219.957 102.985C222.074 106.725 220.62 110.578 218.687 114.205C216.754 117.834 215.175 121.827 214.896 125.788C214.618 129.75 218.85 167.792 210.963 181.314C201.862 196.916 161.077 194.811 151.705 194.992C143.371 195.154 150.828 163.518 157.125 165.134Z" fill="white"/>
<path fill-rule="evenodd" clip-rule="evenodd" d="M152.864 194.995C153.579 194.995 154.38 194.999 155.244 195.004C169.255 195.075 202.064 195.244 210.042 181.57C216.325 170.8 214.792 143.644 214.137 132.047C213.967 129.039 213.855 127.051 213.911 126.251C214.16 122.715 215.419 118.861 217.76 114.468C219.614 110.991 221.051 107.282 219.037 103.723C218.333 102.479 211.111 94.9842 207.861 94.9842C207.853 94.9842 207.844 94.9845 207.836 94.9845C207.362 94.9901 207.044 95.1751 206.835 95.5661C206.394 96.3895 207.065 96.9699 208.7 98.0974C209.743 98.8168 210.925 99.632 211.617 100.762C212.898 102.85 214.017 105.326 211.076 108.295C210.246 109.134 209.089 109.389 208.129 108.946C207.338 108.581 206.05 107.439 206.305 103.896C206.537 100.681 205.508 99.1501 204.874 98.5239C204.238 97.896 203.637 97.7693 203.382 97.7933C202.677 97.8609 202.733 99.5097 202.898 101.281C203.102 103.451 202.812 106.172 201.93 110.381C201.351 113.14 202.803 117.822 203.969 121.584C204.344 122.793 204.699 123.935 204.956 124.915C205.907 128.532 204.021 137.304 201.836 147.462C201.483 149.1 201.124 150.772 200.767 152.462C198.161 164.825 191.18 168.199 181.5 169.463C176.232 170.15 167.815 169.024 156.481 166.114C155.479 165.856 154.466 166.797 153.794 167.632C149.763 172.632 146.286 188.066 148.836 193.35C149.374 194.465 150.121 195.009 151.117 195.009C151.135 195.009 151.152 195.009 151.17 195.008C151.653 194.999 152.223 194.995 152.864 194.995ZM158.884 196C157.567 196 156.346 195.994 155.239 195.988C153.607 195.98 152.196 195.973 151.189 195.992C149.775 196.022 148.671 195.255 147.959 193.781C145.232 188.129 148.76 172.317 153.038 167.011C154.277 165.474 155.516 164.852 156.722 165.161C167.935 168.039 176.23 169.159 181.375 168.486C190.909 167.242 197.319 164.093 199.814 152.258C200.17 150.566 200.53 148.892 200.883 147.253C203.041 137.22 204.905 128.555 204.014 125.168C203.762 124.208 203.411 123.076 203.039 121.878C201.839 118.007 200.345 113.188 200.976 110.178C201.825 106.126 202.119 103.411 201.928 101.374C201.754 99.5205 201.517 96.983 203.29 96.8137C203.842 96.7599 204.723 96.9981 205.555 97.8202C206.31 98.5662 207.538 100.356 207.278 103.968C207.122 106.122 207.581 107.61 208.535 108.051C209.12 108.321 209.847 108.144 210.387 107.599C212.607 105.358 212.241 103.649 210.789 101.28C210.204 100.327 209.113 99.5743 208.15 98.91C206.638 97.8668 205.074 96.7881 205.977 95.0987C206.356 94.3904 206.994 94.0105 207.824 94.0003C207.835 94.0003 207.845 94 207.856 94C211.583 94 219.093 101.839 219.883 103.235C222.134 107.211 220.605 111.207 218.619 114.934C216.344 119.202 215.122 122.926 214.883 126.32C214.832 127.058 214.948 129.127 215.11 131.991C215.826 144.667 217.316 171.042 210.882 182.07C203.264 195.125 174.447 196 158.884 196Z" fill="#2A2B2E"/>
<path fill-rule="evenodd" clip-rule="evenodd" d="M67.8633 259.417C74.3392 261.206 96.2592 265.59 123.429 266C118.976 223.068 134.302 226.732 139.468 204.781C139.831 203.241 140.763 201.927 142.337 201.939L162.049 204.233C164.191 204.057 165.73 202.502 166.754 200.603C168.576 197.222 170.472 192.597 171.53 185.546C172.931 176.205 171.171 167.884 166.654 166.938C148.814 163.203 151.828 160.918 135.329 153.92C123.776 149.019 90.7451 146.374 80.1891 149.088C65.188 152.944 66.8982 166.013 67.9607 173.306C68.506 177.051 70.8798 192.54 70.6239 197.014C69.2807 220.507 60.7413 238.812 54 254.801C58.7694 256.769 63.456 258.2 67.8633 259.417Z" fill="#AA4465"/>
<path fill-rule="evenodd" clip-rule="evenodd" d="M141 102.278C141 102.278 136.599 87.0965 122.376 86.1124C107.49 85.0827 101.393 91.1733 97.3797 102.559C94.5615 110.555 96.1125 123.223 101.558 127.15C109.413 132.816 117.447 128.284 117.447 128.284L138.782 106.776L141 102.278Z" fill="#2A2B2E"/>
<path fill-rule="evenodd" clip-rule="evenodd" d="M140.142 102.046C140.142 102.046 140.917 107.586 139.244 111.311C137.997 114.09 139.617 118.262 140.839 120.062C141.182 120.566 140.952 121.26 140.38 121.464L138.382 122.121C137.641 122.385 137.087 123.015 136.922 123.789C136.346 126.477 134.847 132.671 133.424 134.044C131.09 136.294 123.242 132.278 121.545 131.477C121.37 131.394 118.774 150.799 118.774 150.799C118.213 154.28 116.999 156.538 114.664 158.043C109.457 161.399 94.5412 160.711 94.3988 153.841C94.3792 152.891 93.6044 152.14 94.2683 151.466C96.7958 148.899 99.273 145.748 100.664 141C102.466 134.851 102.678 127.684 102.678 127.684C102.678 127.684 106.444 128.328 110.886 125.072C114.73 122.254 117.402 118.047 116.785 116.463C115.373 112.839 114.606 109.432 117.699 107.325C120.656 105.309 122.924 107.614 123.916 109.235C125.281 111.469 132.717 111.316 136.63 106.282C140.544 101.247 140.142 102.046 140.142 102.046Z" fill="white"/>
<path fill-rule="evenodd" clip-rule="evenodd" d="M103.638 127.739C103.549 129.514 103.146 135.47 101.626 140.651C100.127 145.763 97.3544 149.038 95.1059 151.32C94.9204 151.508 94.9475 151.667 95.1331 152.213C95.2438 152.539 95.3698 152.91 95.3789 153.336C95.4123 154.969 96.3819 156.309 98.2605 157.318C102.976 159.851 111.492 159.323 114.897 157.131C117.07 155.73 118.234 153.666 118.788 150.227C118.793 150.192 119.438 145.382 120.097 140.621C121.467 130.744 121.506 130.723 121.808 130.557L122.026 130.438L122.254 130.544C122.366 130.596 122.503 130.663 122.664 130.74C128.629 133.611 132.304 134.438 133.589 133.2C134.721 132.109 136.107 127.132 136.949 123.202C137.152 122.255 137.816 121.497 138.726 121.172L140.736 120.512C140.855 120.47 140.953 120.368 140.996 120.237C141.038 120.108 141.018 119.971 140.943 119.86C139.806 118.188 137.911 113.733 139.305 110.63C140.478 108.02 140.394 104.413 140.265 102.668C139.782 103.247 138.951 104.277 137.524 106.11C134.74 109.689 130.469 110.773 127.656 110.613C125.891 110.513 124.559 109.932 124 109.018C123.625 108.405 122.591 106.946 121.088 106.62C120.243 106.437 119.363 106.652 118.473 107.258C115.808 109.072 116.253 111.986 117.741 115.803C118.493 117.732 115.6 122.11 111.671 124.988C108.057 127.635 104.878 127.799 103.638 127.739ZM106.506 160C103.296 160 100.053 159.401 97.7979 158.189C95.614 157.017 94.4382 155.345 94.3969 153.356C94.3914 153.084 94.3004 152.816 94.2038 152.533C94.0225 151.999 93.774 151.268 94.4084 150.624C96.5757 148.425 99.2477 145.271 100.685 140.371C102.449 134.354 102.677 127.256 102.679 127.185L102.696 126.618L103.252 126.712C103.288 126.719 106.89 127.268 111.093 124.189C115.026 121.307 117.283 117.334 116.827 116.163C115.39 112.479 114.529 108.751 117.922 106.439C119.043 105.677 120.176 105.413 121.294 105.654C123.168 106.06 124.395 107.779 124.836 108.5C125.213 109.116 126.314 109.547 127.711 109.627C130.485 109.782 134.364 108.569 136.751 105.501C140.417 100.79 140.456 100.812 140.923 101.11C141.07 101.205 141.174 101.388 141.15 101.598C141.249 102.377 141.811 107.451 140.2 111.037C139.096 113.493 140.474 117.421 141.753 119.302C142.002 119.669 142.066 120.121 141.929 120.544C141.791 120.969 141.472 121.299 141.053 121.447L139.043 122.108C138.467 122.313 138.039 122.801 137.909 123.41C137.466 125.478 135.893 132.348 134.268 133.914C132.119 135.985 126.499 133.672 122.389 131.703C121.973 134.109 120.642 143.782 119.76 150.372C119.163 154.08 117.826 156.417 115.426 157.963C113.326 159.315 109.935 160 106.506 160Z" fill="#2A2B2E"/>
<path fill-rule="evenodd" clip-rule="evenodd" d="M121.14 118C118.648 118 116.792 116.042 116.011 112.554C115.956 112.309 116.11 112.066 116.354 112.011C116.599 111.956 116.84 112.11 116.895 112.355C117.316 114.235 118.474 117.349 121.506 117.075C121.754 117.054 121.976 117.236 121.998 117.486C122.02 117.736 121.837 117.957 121.588 117.98C121.436 117.993 121.287 118 121.14 118Z" fill="#2A2B2E"/>
<path fill-rule="evenodd" clip-rule="evenodd" d="M118.441 112H118.436C118.192 111.997 117.997 111.758 118 111.466C118.025 108.841 119.671 108.052 120.537 108.001C120.779 107.984 120.988 108.211 120.999 108.503C121.012 108.793 120.825 109.04 120.583 109.056C120.41 109.068 118.903 109.244 118.882 111.478C118.879 111.768 118.682 112 118.441 112Z" fill="#C9CEBD"/>
<path fill-rule="evenodd" clip-rule="evenodd" d="M102.769 98.0814L108 88.9917C108 88.9917 100.355 80.319 90.0656 80.0088C79.5864 79.6927 66.4481 87.9003 65.2989 106.102C64.7019 115.558 56.1707 119.087 47.7184 124.977C45.9051 126.24 44.0206 127.397 42.1251 128.533C28.4464 136.733 29.0032 147.808 29.0032 147.808C29.9134 145.723 31.6573 144.057 33.6397 142.746C28.8931 158.496 38.4404 177.334 53.5565 183.097C67.8613 188.551 87.5035 181.6 93.1614 170.906C98.6529 160.526 98.2852 144.279 94.7624 131.446C91.2396 118.614 90.2792 101.931 102.769 98.0814Z" fill="#2A2B2E"/>
<path fill-rule="evenodd" clip-rule="evenodd" d="M11 98C11 85.8497 20.8493 76 33.0002 76C45.1504 76 55 85.8497 55 98C55 110.151 45.1504 120 33.0002 120C20.8493 120 11 110.151 11 98Z" fill="white"/>
<path fill-rule="evenodd" clip-rule="evenodd" d="M18 114.15C21.9158 117.774 27.1912 120 33 120C38.8088 120 44.0846 117.774 48 114.15C43.4701 112.774 38.381 112 33 112C27.619 112 22.5296 112.774 18 114.15Z" fill="#AA4465"/>
<path fill-rule="evenodd" clip-rule="evenodd" d="M40.1269 84.9838C39.1162 84.341 37.9379 84 36.7349 84H29.653C28.0721 84 26.5494 84.5894 25.3902 85.6507L25.0019 86.0063C23.1615 87.6913 22.5197 90.2972 23.3715 92.6273L25.6999 99L40.6309 98.9077L42.7382 91.9439C43.5349 89.3094 42.4706 86.4723 40.1269 84.9838Z" fill="#2A2B2E"/>
<path fill-rule="evenodd" clip-rule="evenodd" d="M36.7291 88.0412C36.6969 88.0274 36.6328 88 36.6328 88L26 94.6983V98.7381C26 101.05 27.114 103.106 28.847 104.439V110.594C28.847 113.028 30.8805 115 33.3897 115C35.8985 115 37.9324 113.028 37.9324 110.594V104.597C39.7897 103.273 41 101.145 41 98.7381V94.4536C41 91.6002 39.2472 89.1433 36.7291 88.0412Z" fill="white"/>
<path fill-rule="evenodd" clip-rule="evenodd" d="M33.0002 107C32.7253 107 32.5023 106.779 32.5023 106.506C32.5023 106.233 32.7253 106.012 33.0002 106.012C36.8623 106.012 40.0042 102.896 40.0042 99.0663V94.6845C40.0042 90.9917 36.9749 87.9876 33.2511 87.9876H25.9958V99.0663C25.9958 101.783 27.6074 104.266 30.1013 105.392C30.3516 105.505 30.4621 105.798 30.3483 106.046C30.2341 106.294 29.9387 106.404 29.6887 106.291C26.8403 105.005 25 102.17 25 99.0663V87.4938C25 87.2209 25.2231 87 25.4979 87H33.2511C37.5239 87 41 90.4472 41 94.6845V99.0663C41 103.441 37.411 107 33.0002 107Z" fill="#2A2B2E"/>
<path fill-rule="evenodd" clip-rule="evenodd" d="M33.4993 120C33.4465 120 33.3947 120 33.3419 119.999C27.3303 119.959 21.695 117.579 17.4735 113.299C8.75809 104.464 8.85551 90.1856 17.69 81.4698C26.1055 73.1668 39.6109 72.8112 48.4352 80.6596C48.6382 80.84 48.6566 81.1513 48.4758 81.354C48.2951 81.5574 47.9848 81.5758 47.7811 81.395C39.3432 73.8898 26.4283 74.2306 18.3811 82.1702C9.93271 90.5048 9.83988 104.159 18.1734 112.608C22.211 116.701 27.6 118.976 33.3484 119.015C39.0969 119.066 44.5167 116.852 48.6087 112.815C53.0376 108.446 55.3579 102.375 54.9751 96.1602C54.9584 95.8889 55.1647 95.6553 55.436 95.6386C55.7069 95.6196 55.9405 95.8286 55.9572 96.0995C56.3577 102.599 53.9311 108.947 49.3001 113.516C45.0579 117.701 39.4515 120 33.4993 120Z" fill="#2A2B2E"/>
<path fill-rule="evenodd" clip-rule="evenodd" d="M33 116C30.2427 116 28 113.717 28 110.911V104.503C28 104.225 28.2209 104 28.4938 104C28.7663 104 28.9876 104.225 28.9876 104.503V110.911C28.9876 113.163 30.7872 114.995 33 114.995C35.2128 114.995 37.0124 113.163 37.0124 110.911V104.828C37.0124 104.551 37.2337 104.325 37.5062 104.325C37.7791 104.325 38 104.551 38 104.828V110.911C38 113.717 35.7573 116 33 116Z" fill="#2A2B2E"/>
<path fill-rule="evenodd" clip-rule="evenodd" d="M38.853 5.83785C27.7815 12.3016 22.2702 25.8013 26.3355 38.5309C28.1835 44.3174 31.7388 49.0786 36.262 52.4467C36.3847 52.538 36.5106 52.6246 36.6382 52.7081L39.0176 54.2629C45.5932 58.0491 53.6756 59.1588 61.4697 56.6628C76.1719 51.9549 84.5089 34.5599 79.5775 21.4819C75.7277 11.2737 71.3978 7.46372 63.3788 3.96887C51.1322 -1.36889 38.853 5.83785 38.853 5.83785Z" fill="white"/>
<path fill-rule="evenodd" clip-rule="evenodd" d="M52.3596 46.0011C45.1163 45.9629 38.23 46.9082 32 48.6349C33.2375 50.0024 34.5971 51.2395 36.0571 52.3319C36.1814 52.425 36.3094 52.5135 36.4397 52.5987L38.8565 54.1854C45.5368 58.0503 53.3661 59.1826 61.2839 56.6352C65.8671 55.161 69.8372 52.4636 73 49.0521C66.609 47.1334 59.8721 46.0407 52.3596 46.0011Z" fill="#AA4465"/>
<path fill-rule="evenodd" clip-rule="evenodd" d="M32.4235 48.3965C33.4817 49.4978 34.6319 50.514 35.8498 51.4246C35.9662 51.5117 36.0856 51.5941 36.207 51.6735L38.625 53.259C45.5024 57.232 53.1212 58.0638 60.6348 55.6491C64.6792 54.3494 68.448 51.9872 71.58 48.7959C65.1696 46.9502 58.7089 46.0343 51.8573 45.9981C45.1376 45.9645 38.5889 46.7694 32.4235 48.3965ZM52.2015 58C47.3506 58 42.583 56.6953 38.1068 54.1085L35.6656 52.5087C35.5271 52.4179 35.3908 52.3235 35.2579 52.2248C33.7698 51.1126 32.3809 49.8484 31.1292 48.4666C31.0131 48.3383 30.9715 48.1592 31.0197 47.9923C31.0674 47.8258 31.198 47.6966 31.3643 47.6504C37.8492 45.8552 44.7372 44.9645 51.8622 45.0011C59.0885 45.0393 65.8865 46.0433 72.6458 48.0704C72.8105 48.1196 72.9378 48.2509 72.9825 48.4171C73.0278 48.5836 72.9838 48.7617 72.8667 48.888C69.5125 52.502 65.3875 55.1686 60.9371 56.5989C58.0257 57.5344 55.0984 58 52.2015 58Z" fill="#2A2B2E"/>
<path fill-rule="evenodd" clip-rule="evenodd" d="M70.6896 28.3884C67.9272 18.502 62.2308 5.54045 51.5482 7.13388C41.2992 8.66266 36.4772 19.8329 34.261 28.4875C32.9133 33.7544 36.9567 38.8667 42.4275 38.8953L62.4881 38.9999C68.0825 39.0288 72.1857 33.744 70.6896 28.3884Z" fill="#2A2B2E"/>
<path fill-rule="evenodd" clip-rule="evenodd" d="M61.8023 16.2115C61.7974 16.1877 61.7881 16.1403 61.7881 16.1403L43.4187 16C43.4187 16 43.4108 16.029 43.4072 16.0438C43.1654 16.9578 43.0338 17.9222 43.0282 18.9195L43.0002 24.2884C42.9814 27.8837 44.6674 31.0535 47.2341 32.9055L47.1605 46.9231C47.1457 49.7122 49.3984 51.9851 52.191 51.9999C54.9839 52.0144 57.2597 49.7652 57.2742 46.9762L57.3467 33.1647C60.0984 31.3763 61.9481 28.1189 61.9679 24.3879L61.9999 18.3306C62.0035 17.6037 61.9352 16.8949 61.8023 16.2115Z" fill="white"/>
<path fill-rule="evenodd" clip-rule="evenodd" d="M52.4655 53H52.4362C50.9766 52.9923 49.6071 52.3981 48.5802 51.3275C47.5536 50.2573 46.9926 48.8381 47.0001 47.3321L47.0702 33.4998C47.0715 33.2221 47.2958 32.9983 47.5598 33C47.8286 33.0013 48.0455 33.2274 48.0442 33.5048L47.9741 47.3374C47.9676 48.5751 48.4289 49.7411 49.2727 50.6208C50.1165 51.5007 51.2418 51.9884 52.4414 51.9951H52.4655C54.9306 51.9951 56.9426 49.9327 56.9556 47.386L57.026 33.4998C57.027 33.2224 57.2439 32.9983 57.5156 33C57.7844 33.0013 58.0013 33.2274 58 33.5051L57.9295 47.391C57.9136 50.4901 55.465 53 52.4655 53Z" fill="#2A2B2E"/>
<path fill-rule="evenodd" clip-rule="evenodd" d="M53.0078 29H52.9879C51.9047 28.9945 50.8614 28.5468 50.1252 27.7706C49.9491 27.5854 49.9603 27.2951 50.1492 27.1227C50.3382 26.9504 50.6341 26.9608 50.8103 27.1463C51.3793 27.7461 52.1544 28.0789 52.9922 28.0832H53.0075C53.8419 28.0832 54.6173 27.7562 55.1929 27.1609C55.3707 26.977 55.6669 26.9696 55.8543 27.1438C56.0413 27.318 56.0494 27.6083 55.872 27.7917C55.1178 28.5713 54.101 29 53.0078 29Z" fill="#2A2B2E"/>
<path fill-rule="evenodd" clip-rule="evenodd" d="M52.9762 35H52.9274C52.6538 34.9987 52.4334 34.7786 52.4347 34.5082C52.436 34.2392 52.6575 34.0216 52.9297 34.0216C52.9459 34.0216 52.9607 34.0216 52.9762 34.0216C57.9158 34.0216 61.9498 29.7038 61.9781 24.3741L62.0098 18.3764C62.0233 15.8709 61.128 13.5121 59.4896 11.7354C57.8616 9.96943 55.6925 8.99075 53.3828 8.97836C53.368 8.97836 53.3528 8.97836 53.3376 8.97836C48.2238 8.97836 44.0473 13.4478 44.0179 18.9644L43.9902 24.2808C43.9697 28.0788 46.026 31.5572 49.229 33.1424C49.4732 33.2634 49.5722 33.5573 49.4495 33.7989C49.3274 34.0406 49.0304 34.1384 48.7855 34.0174C45.2488 32.2665 42.9777 28.4427 43.0002 24.2759L43.0279 18.9592C43.0602 12.9055 47.6803 8 53.3376 8C53.3544 8 53.3709 8 53.3881 8C55.978 8.0137 58.4045 9.10619 60.2212 11.0766C62.028 13.0353 63.0147 15.6299 62.9998 18.3817L62.9682 24.3793C62.9371 30.2462 58.459 35 52.9762 35Z" fill="#2A2B2E"/>
<path fill-rule="evenodd" clip-rule="evenodd" d="M52.5208 58C40.588 58 29.4429 50.4422 25.4658 38.5151C20.4952 23.6085 28.5781 7.43712 43.4839 2.46604C58.3906 -2.50537 74.561 5.57883 79.5316 20.4852C81.1865 25.4477 81.4482 30.7527 80.2882 35.8264C80.2279 36.0911 79.9648 36.2571 79.6992 36.1967C79.4342 36.1357 79.2689 35.872 79.3293 35.607C80.4489 30.7094 80.1964 25.5881 78.5986 20.7964C73.7992 6.40466 58.1876 -1.39944 43.7954 3.39945C29.4042 8.19867 21.6001 23.8118 26.3991 38.2039C31.1985 52.596 46.8114 60.3998 61.2022 55.6009C67.423 53.5261 72.7064 49.2917 76.0779 43.6774C76.2179 43.4442 76.5199 43.3698 76.7531 43.5089C76.986 43.6489 77.0614 43.9513 76.9214 44.1842C73.4289 49.9991 67.9569 54.3854 61.5135 56.534C58.534 57.5277 55.502 58 52.5208 58Z" fill="#2A2B2E"/>
<path fill-rule="evenodd" clip-rule="evenodd" d="M203 57.5C203 43.9691 213.969 33 227.5 33C241.031 33 252 43.9691 252 57.5C252 71.0312 241.031 82 227.5 82C213.969 82 203 71.0312 203 57.5Z" fill="white"/>
<path fill-rule="evenodd" clip-rule="evenodd" d="M228 83C214.215 83 203 71.7851 203 57.9998C203 55.0518 203.508 52.1659 204.51 49.4228C204.603 49.1686 204.884 49.0379 205.139 49.1304C205.394 49.2231 205.525 49.5048 205.432 49.7587C204.469 52.394 203.981 55.1669 203.981 57.9998C203.981 71.2443 214.756 82.0197 228 82.0197C241.244 82.0197 252.019 71.2443 252.019 57.9998C252.019 44.7557 241.244 33.9803 228 33.9803C220.791 33.9803 214.027 37.1766 209.442 42.7498C209.27 42.9589 208.961 42.989 208.752 42.8171C208.542 42.6452 208.512 42.3364 208.684 42.1273C213.456 36.327 220.497 33 228 33C241.785 33 253 44.2149 253 57.9998C253 71.7851 241.785 83 228 83Z" fill="#2A2B2E"/>
<path fill-rule="evenodd" clip-rule="evenodd" d="M211 75.419C215.438 79.4961 221.417 82 228 82C234.584 82 240.562 79.4961 245 75.419C239.866 73.8708 234.099 73 228 73C221.902 73 216.133 73.8708 211 75.419Z" fill="#C9CEBD"/>
<path fill-rule="evenodd" clip-rule="evenodd" d="M228 77C225.791 77 224 75.2381 224 73.0651V53H232V73.0651C232 75.2381 230.209 77 228 77Z" fill="white"/>
<path fill-rule="evenodd" clip-rule="evenodd" d="M243.424 61.0585C242.938 54.8594 245.637 50.9897 239.587 43.9853C233.323 36.7326 227.947 41.596 227.947 41.596C227.947 41.596 223.467 37.8272 217.587 45.707C212.397 52.6619 219.044 58.8937 216.81 63.2232C214.576 67.5534 207 69.9149 207 69.9149C207 69.9149 209.428 74.8352 212.439 77H244.395C244.395 77 251 69.7182 251 67.6516C251 67.6516 243.91 67.2579 243.424 61.0585Z" fill="#2A2B2E"/>
<path fill-rule="evenodd" clip-rule="evenodd" d="M211 75.419C215.438 79.4961 221.417 82 228 82C234.584 82 240.562 79.4961 245 75.419C239.866 73.8708 234.099 73 228 73C221.902 73 216.133 73.8708 211 75.419Z" fill="#C9CEBD"/>
<path fill-rule="evenodd" clip-rule="evenodd" d="M211.943 75.1289C216.39 78.9418 222.059 81.0316 228 81.0316C233.942 81.0316 239.61 78.9418 244.057 75.1289C239.008 73.6947 233.611 72.9684 228 72.9684C222.388 72.9684 216.991 73.6947 211.943 75.1289ZM228 82C221.514 82 215.341 79.6074 210.618 75.2632L210 74.6941L210.813 74.4488C216.195 72.8238 221.977 72 228 72C234.022 72 239.804 72.8238 245.187 74.4488L246 74.6941L245.382 75.2632C240.659 79.6074 234.486 82 228 82Z" fill="#2A2B2E"/>
<path fill-rule="evenodd" clip-rule="evenodd" d="M228.268 47H227.994L220 54.9104V59.249C220 62.145 221.591 64.6716 223.957 66.0398V73.133C223.957 75.2687 225.716 77 227.885 77C230.055 77 231.813 75.2687 231.813 73.133V66.173C234.307 64.8395 236 62.2387 236 59.249V54.6109C236 50.4075 232.538 47 228.268 47Z" fill="white"/>
<path fill-rule="evenodd" clip-rule="evenodd" d="M228.5 78C226.019 78 224 75.9996 224 73.5408V66.5014C224 66.2246 224.227 66 224.506 66C224.786 66 225.013 66.2246 225.013 66.5014V73.5408C225.013 75.4466 226.577 76.9971 228.5 76.9971C230.423 76.9971 231.987 75.4466 231.987 73.5408V66.6228C231.987 66.3457 232.214 66.1214 232.494 66.1214C232.773 66.1214 233 66.3457 233 66.6228V73.5408C233 75.9996 230.982 78 228.5 78Z" fill="#2A2B2E"/>
<path fill-rule="evenodd" clip-rule="evenodd" d="M228.5 68C228.225 68 228.002 67.7819 228.002 67.5125C228.002 67.2431 228.225 67.025 228.5 67.025C232.638 67.025 236.004 63.7287 236.004 59.6771V55.062C236.004 51.258 232.966 48.1489 229.089 47.9832C229.049 47.9812 229.01 47.9799 228.97 47.9789L220.996 55.6967V59.6771C220.996 62.5503 222.723 65.1768 225.394 66.3682C225.645 66.48 225.755 66.769 225.642 67.0143C225.527 67.2594 225.231 67.3676 224.981 67.2555C221.955 65.9061 220 62.9315 220 59.6771V55.4933C220 55.3629 220.053 55.2381 220.148 55.1468L228.418 47.1421C228.598 46.9679 228.882 46.9981 229.132 47.0092C233.544 47.1973 237 50.7348 237 55.062V59.6771C237 64.2662 233.187 68 228.5 68Z" fill="#2A2B2E"/>
<path fill-rule="evenodd" clip-rule="evenodd" d="M104 18.5C104 8.28286 112.283 0 122.5 0C132.717 0 141 8.28286 141 18.5C141 28.7175 132.717 37 122.5 37C112.283 37 104 28.7175 104 18.5Z" fill="white"/>
<path fill-rule="evenodd" clip-rule="evenodd" d="M109 31.8814C112.263 35.0526 116.659 37 121.5 37C126.341 37 130.737 35.0526 134 31.8814C130.225 30.6773 125.984 30 121.5 30C117.016 30 112.775 30.6773 109 31.8814Z" fill="#C9CEBD"/>
<path fill-rule="evenodd" clip-rule="evenodd" d="M127.558 7.85267C126.698 7.2957 125.697 7 124.675 7H118.655C117.311 7 116.017 7.51072 115.032 8.43057L114.702 8.73876C113.137 10.199 112.592 12.4576 113.316 14.4772L115.295 20L127.986 19.92L129.777 13.8848C130.455 11.6012 129.55 9.14281 127.558 7.85267Z" fill="#2A2B2E"/>
<path fill-rule="evenodd" clip-rule="evenodd" d="M125.404 10.0055C125.399 10.0039 125.392 10 125.392 10L116 15.7587V19.1013C116 21.0769 116.966 22.8344 118.467 23.9734V29.2341C118.467 31.3139 120.23 33 122.404 33C124.579 33 126.342 31.3139 126.342 29.2341V24.116C127.953 22.9845 129 21.1603 129 19.1013V15.4397C129 13.0402 127.53 10.9688 125.404 10.0055Z" fill="white"/>
<path fill-rule="evenodd" clip-rule="evenodd" d="M122.5 34C120.019 34 118 32.174 118 29.9298V25H119.031V29.9298C119.031 31.6598 120.587 33.0673 122.5 33.0673C124.413 33.0673 125.969 31.6598 125.969 29.9298V25.1542H127V29.9298C127 32.174 124.981 34 122.5 34Z" fill="#2A2B2E"/>
<path fill-rule="evenodd" clip-rule="evenodd" d="M122.5 26C122.239 26 122.028 25.7802 122.028 25.5087C122.028 25.2372 122.239 25.0175 122.5 25.0175C125.563 25.0175 128.055 22.4262 128.055 19.2409V15.5495C128.055 12.4798 125.654 9.98253 122.702 9.98253H116.945V19.2409C116.945 21.5007 118.223 23.5653 120.201 24.5016C120.438 24.614 120.543 24.9055 120.435 25.1524C120.327 25.3993 120.047 25.5087 119.81 25.3957C117.495 24.3006 116 21.8845 116 19.2409V9.49126C116 9.21976 116.212 9 116.472 9H122.702C126.175 9 129 11.9381 129 15.5495V19.2409C129 22.9679 126.084 26 122.5 26Z" fill="#2A2B2E"/>
<mask id="mask1_0:4806" style="mask-type:alpha" maskUnits="userSpaceOnUse" x="103" y="0" width="38" height="38">
<path fill-rule="evenodd" clip-rule="evenodd" d="M103 0H141V38H103V0Z" fill="white"/>
</mask>
<g mask="url(#mask1_0:4806)">
<path fill-rule="evenodd" clip-rule="evenodd" d="M122.002 38C116.997 38 111.998 36.0415 108.27 32.1512C101.362 24.9424 101.229 13.5351 107.967 6.18161C108.149 5.9822 108.459 5.96917 108.657 6.15098C108.857 6.33344 108.87 6.64264 108.688 6.84172C102.297 13.8166 102.423 24.6371 108.976 31.4751C115.855 38.653 127.293 38.898 134.473 32.0219C141.653 25.1457 141.899 13.7117 135.02 6.53349C131.414 2.77058 126.351 0.752769 121.145 0.997461C120.861 1.00495 120.646 0.801642 120.634 0.531862C120.622 0.262408 120.83 0.0336812 121.099 0.0209742C126.594 -0.236751 131.924 1.89054 135.726 5.85741C142.977 13.4246 142.719 25.4784 135.15 32.7279C131.472 36.25 126.733 38 122.002 38Z" fill="#2A2B2E"/>
</g>
</svg>
