<svg width="65" height="57" viewBox="0 0 65 57" fill="none" xmlns="http://www.w3.org/2000/svg">
<path fill-rule="evenodd" clip-rule="evenodd" d="M26 57H39V19H26V57Z" fill="#AA4465"/>
<path fill-rule="evenodd" clip-rule="evenodd" d="M57.1657 41.0001C59.125 40.1898 60.6019 38.3144 62.3753 35.086C57.6126 32.28 52.3978 33.9493 49.0088 39.9401" fill="#C9CEBC"/>
<path d="M57.1657 41.0001C59.125 40.1898 60.6019 38.3144 62.3753 35.086C57.6126 32.28 52.3978 33.9493 49.0088 39.9401" stroke="#2A2B2E" stroke-width="2" stroke-linecap="round"/>
<path fill-rule="evenodd" clip-rule="evenodd" d="M44.4377 48.9917C47.6333 50.9848 51.8257 51.3176 56.8469 46.0321C53.3228 42.6463 48.6581 42.2814 44.4326 45.2909" fill="#C9CEBC"/>
<path d="M44.4377 48.9917C47.6333 50.9848 51.8257 51.3177 56.8469 46.0321C53.3228 42.6463 48.6581 42.2814 44.4326 45.2909" stroke="#2A2B2E" stroke-width="2" stroke-linecap="round"/>
<path fill-rule="evenodd" clip-rule="evenodd" d="M59.0479 30.3766C61.1243 28.9262 62.6852 26.2316 62.9997 21.4876C57.2629 21.1036 52.9929 24.9656 52.5371 31.8462" fill="#C9CEBC"/>
<path d="M59.0479 30.3766C61.1243 28.9262 62.6852 26.2316 62.9997 21.4876C57.2629 21.1036 52.9929 24.9656 52.5371 31.8462" stroke="#2A2B2E" stroke-width="2" stroke-linecap="round"/>
<path fill-rule="evenodd" clip-rule="evenodd" d="M57.7184 19.022C59.1226 16.9022 59.586 13.8159 58.1321 9.28174C52.6615 11.056 50.1114 16.2314 52.2172 22.7945" fill="#C9CEBC"/>
<path d="M57.7184 19.022C59.1226 16.9022 59.586 13.8159 58.1321 9.28174C52.6615 11.056 50.1114 16.2314 52.2172 22.7945" stroke="#2A2B2E" stroke-width="2" stroke-linecap="round"/>
<path fill-rule="evenodd" clip-rule="evenodd" d="M7.83365 41.0001C5.87431 40.1898 4.39749 38.3144 2.62402 35.086C7.38678 32.28 12.6028 33.9493 15.9918 39.9401" fill="#C9CEBC"/>
<path d="M7.83365 41.0001C5.87431 40.1898 4.39749 38.3144 2.62402 35.086C7.38678 32.28 12.6028 33.9493 15.9918 39.9401" stroke="#2A2B2E" stroke-width="2" stroke-linecap="round"/>
<path fill-rule="evenodd" clip-rule="evenodd" d="M20.5666 48.9881C17.371 50.985 13.1761 51.3204 8.15234 46.0323C11.6776 42.6465 16.3411 42.2816 20.5666 45.2899" fill="#C9CEBC"/>
<path d="M20.5666 48.9881C17.371 50.985 13.1761 51.3204 8.15234 46.0323C11.6776 42.6465 16.3411 42.2816 20.5666 45.2899" stroke="#2A2B2E" stroke-width="2" stroke-linecap="round"/>
<path fill-rule="evenodd" clip-rule="evenodd" d="M5.95178 30.3766C3.87404 28.9262 2.31446 26.2316 2 21.4876C7.7367 21.1036 12.0068 24.9656 12.4613 31.8462" fill="#C9CEBC"/>
<path d="M5.95178 30.3766C3.87404 28.9262 2.31446 26.2316 2 21.4876C7.7367 21.1036 12.0068 24.9656 12.4613 31.8462" stroke="#2A2B2E" stroke-width="2" stroke-linecap="round"/>
<path fill-rule="evenodd" clip-rule="evenodd" d="M7.28163 19.022C5.87864 16.9022 5.41395 13.8159 6.86786 9.28174C12.3385 11.056 14.8885 16.2314 12.7828 22.7945" fill="#C9CEBC"/>
<path d="M7.28163 19.022C5.87864 16.9022 5.41395 13.8159 6.86786 9.28174C12.3385 11.056 14.8885 16.2314 12.7828 22.7945" stroke="#2A2B2E" stroke-width="2" stroke-linecap="round"/>
<path fill-rule="evenodd" clip-rule="evenodd" d="M39.1304 39.6661C41.9962 39.6661 44.4355 36.9267 44.4355 34.3332V25C44.4355 20.5965 37.1062 18.3333 32.5 18.3333" fill="#AA4465"/>
<path d="M39.1304 39.6661C41.9962 39.6661 44.4355 36.9267 44.4355 34.3332V25C44.4355 20.5965 37.1062 18.3333 32.5 18.3333" stroke="#2A2B2E" stroke-width="2" stroke-linejoin="round"/>
<path fill-rule="evenodd" clip-rule="evenodd" d="M25.8696 39.6661C23.0038 39.6661 20.5645 36.9267 20.5645 34.3332V25C20.5645 20.5965 27.8926 18.3333 32.5 18.3333" fill="#AA4465"/>
<path d="M25.8696 39.6661C23.0038 39.6661 20.5645 36.9267 20.5645 34.3332V25C20.5645 20.5965 27.8926 18.3333 32.5 18.3333" stroke="#2A2B2E" stroke-width="2" stroke-linejoin="round"/>
<path d="M39.1297 57V26.334" stroke="#2A2B2E" stroke-width="2" stroke-linejoin="round"/>
<path d="M25.87 26.3337V56.9998" stroke="#2A2B2E" stroke-width="2" stroke-linejoin="round"/>
<path d="M32.4998 38.3335V56.9999" stroke="#2A2B2E" stroke-width="2" stroke-linejoin="round"/>
<path fill-rule="evenodd" clip-rule="evenodd" d="M32.5001 14.3335C35.5913 14.3335 37.8052 12.1561 37.8052 8.99934V6.33289C37.8052 3.17873 35.5913 1 32.5001 1C29.4103 1 27.1963 3.17873 27.1963 6.33289V8.99934C27.1963 12.1561 29.4103 14.3335 32.5001 14.3335Z" fill="#AA4465"/>
<path fill-rule="evenodd" clip-rule="evenodd" d="M32.5001 14.3335C35.5913 14.3335 37.8052 12.1561 37.8052 8.99934V6.33289C37.8052 3.17873 35.5913 1 32.5001 1C29.4103 1 27.1963 3.17873 27.1963 6.33289V8.99934C27.1963 12.1561 29.4103 14.3335 32.5001 14.3335Z" stroke="#2A2B2E" stroke-width="2" stroke-linejoin="round"/>
</svg>
