<svg width="48" height="41" viewBox="0 0 48 41" fill="none" xmlns="http://www.w3.org/2000/svg">
<path d="M8.02957 18.5093L6.57657 13.9193C7.35957 11.4833 7.51857 9.88131 6.57657 8.37031C5.59057 6.78731 4.05257 6.15031 3.10857 6.28931C2.25157 8.42731 1.09057 14.2073 1.02757 15.3073C0.962571 16.4503 0.950571 24.9403 1.72157 25.7113L11.9296 35.9193C12.7786 36.7683 12.8176 37.4693 12.8176 38.0003V40.0003" stroke="#2A2B2E" stroke-width="2" stroke-linecap="round"/>
<path d="M13.5132 29.1797L7.27016 22.9367C4.49516 20.1627 7.96416 16.6947 10.7392 19.4687C11.4322 20.1627 12.9712 21.7017 14.9002 23.6307C15.4782 24.2087 17.9492 23.9047 18.8662 24.8217L22.3342 28.2897C23.2712 29.2267 23.8172 31.0007 23.8172 32.0007V37.0007" stroke="#2A2B2E" stroke-width="2" stroke-linecap="round"/>
<path d="M41.3563 7.93948C40.4363 3.51848 36.5643 1.03848 32.7113 1.00048C27.9713 0.953475 23.8633 4.39847 23.8163 9.00047C23.7703 4.39847 19.6623 0.953475 14.9213 1.00048C11.0693 1.03848 7.19734 3.51848 6.27734 7.93948" stroke="#2A2B2E" stroke-width="2" stroke-linecap="round"/>
<path d="M39.6044 18.5093L41.0574 13.9193C40.2744 11.4833 40.1154 9.88131 41.0574 8.37031C42.0434 6.78731 43.5814 6.15031 44.5254 6.28931C45.3824 8.42731 46.5434 14.2073 46.6064 15.3073C46.6714 16.4503 46.6834 24.9403 45.9124 25.7113L35.7044 35.9193C34.8554 36.7683 34.8164 37.4693 34.8164 38.0003V40.0003" stroke="#2A2B2E" stroke-width="2" stroke-linecap="round"/>
<path d="M34.1204 29.1797L40.3634 22.9367C43.1384 20.1627 39.6694 16.6947 36.8944 19.4687C36.2014 20.1627 34.6624 21.7017 32.7334 23.6307C32.1554 24.2087 29.6844 23.9047 28.7674 24.8217C28.3604 25.2277 26.2374 27.3517 25.2994 28.2897C24.3624 29.2267 23.8164 31.0007 23.8164 32.0007V37.0007" stroke="#2A2B2E" stroke-width="2" stroke-linecap="round"/>
<path fill-rule="evenodd" clip-rule="evenodd" d="M36.1874 18.7618L32.0954 22.8678C31.9444 22.9488 31.3884 23.0218 31.0204 23.0708C29.9854 23.2078 28.8114 23.3638 28.0614 24.1138L24.5924 27.5828C24.3014 27.8738 24.0424 28.2288 23.8164 28.6138C23.5904 28.2288 23.3324 27.8738 23.0414 27.5828L19.5724 24.1148C18.8224 23.3638 17.6484 23.2078 16.6134 23.0708C16.2454 23.0218 15.6894 22.9488 15.6074 22.9238L11.4454 18.7618C10.5784 17.8938 9.6334 17.5108 8.7474 17.4638L7.6254 13.9188C8.3614 11.5328 8.5604 9.66276 7.4254 7.84176C7.4044 7.80776 7.3794 7.78176 7.3584 7.74876C8.3754 3.84876 11.9454 2.02976 14.9314 2.00076C14.9604 1.99976 14.9894 1.99976 15.0184 1.99976C19.2874 1.99976 22.7774 5.12876 22.8164 9.01076H24.8164C24.8564 5.12876 28.3464 1.99976 32.6154 1.99976C32.6444 1.99976 32.6734 1.99976 32.7024 2.00076C35.6884 2.02976 39.2584 3.84876 40.2754 7.74876C40.2534 7.78176 40.2294 7.80776 40.2084 7.84176C39.0734 9.66276 39.2724 11.5328 40.0084 13.9188L38.8884 17.4558C38.1984 17.4928 37.1944 17.7548 36.1874 18.7618Z" fill="#AA4565"/>
</svg>
