<svg width="398" height="398" viewBox="0 0 398 398" fill="none" xmlns="http://www.w3.org/2000/svg">
<mask id="mask0_0:3672" style="mask-type:alpha" maskUnits="userSpaceOnUse" x="1" y="0" width="397" height="397">
<path fill-rule="evenodd" clip-rule="evenodd" d="M1 0H398V397H1V0Z" fill="white"/>
</mask>
<g mask="url(#mask0_0:3672)">
<path fill-rule="evenodd" clip-rule="evenodd" d="M86.7887 17.9653C167.416 -26.6389 275.432 19.7006 331.718 71.0729C347.798 85.7485 386.786 122.359 395.992 181.036C407.428 253.925 369.994 342.272 284.14 380.062C190.691 421.194 86.2042 382.211 37.3018 318.934C-8.43404 259.754 0.720404 190.072 3.99063 165.178C7.82719 135.973 19.2388 55.3345 86.7887 17.9653Z" fill="#C9CEBD"/>
</g>
<path fill-rule="evenodd" clip-rule="evenodd" d="M222.129 35.9373C225.435 39.453 237.738 47.4211 249.041 45.7801C260.33 44.1416 272.258 32.6797 270.893 20.504C269.247 5.81978 249.137 -2.13864 237.406 0.50075C230.838 1.97829 230.009 6.07921 220.699 7.99753C211.412 9.911 207.654 6.77555 202.561 9.95077C196.437 13.7695 194.53 22.8238 197.136 25.8885C199.468 28.6297 204.15 25.8788 211.645 28.62C213.051 29.1345 214.133 29.6873 215.036 30.2687C219.017 32.8329 221.533 35.3031 222.129 35.9373Z" fill="#2A2B2E"/>
<path fill-rule="evenodd" clip-rule="evenodd" d="M201.283 5.63913C202.183 7.13135 206.303 9.9063 208.834 8.70717C211.365 7.50708 211.348 2.7869 210.448 1.29468C209.547 -0.197545 206.765 -0.434745 204.235 0.76535C201.704 1.96496 200.382 4.14739 201.283 5.63913Z" fill="#2A2B2E"/>
<path fill-rule="evenodd" clip-rule="evenodd" d="M208.762 21.1491C210.975 22.0359 211.425 26.7438 212.015 26.6254C212.471 26.5339 211.909 23.7663 213.099 23.1407C213.658 22.8469 214.386 23.1398 214.775 23.4394C215.697 24.1521 215.911 25.8437 215.07 27.5218C217.603 29.4453 220.172 31.3727 222.777 33.3029C225.872 35.595 228.946 37.8383 232 40.0341L220.058 44L213.05 34.876C212.335 35.7887 211.454 36.6337 210.393 37.1768C210.393 37.1768 207.769 36.9904 205.313 33.499L204.741 33.7357C204.336 33.903 203.889 33.6106 203.877 33.1682L203.831 31.6871C203.815 31.1272 203.698 30.5775 203.489 30.0588C202.913 28.6319 202.4 26.9221 202 24.8644C205.786 20.9766 207.712 20.7283 208.762 21.1491Z" fill="white"/>
<path fill-rule="evenodd" clip-rule="evenodd" d="M212.978 34.6264H212.981C213.204 34.6273 213.414 34.7281 213.551 34.8999L220.373 43.4672L230.689 40.1634C227.934 38.2456 225.17 36.2966 222.456 34.3571C219.831 32.4821 217.188 30.5699 214.6 28.6742C214.319 28.4684 214.23 28.0961 214.389 27.791C215.106 26.4103 214.904 25.1157 214.293 24.6614C214.024 24.4604 213.586 24.3197 213.362 24.4336C212.981 24.6261 212.917 25.6947 212.883 26.2691C212.837 27.0467 212.794 27.7811 212.065 27.9224C211.217 28.0848 210.935 27.2558 210.543 26.1057C210.113 24.845 209.463 22.9399 208.345 22.5072C207.187 22.0605 205.123 23.2035 202.512 25.7305C202.874 27.4299 203.344 28.9773 203.912 30.335C204.159 30.9258 204.295 31.5462 204.315 32.1789L204.356 33.5135L204.824 33.3266C205.137 33.2019 205.495 33.304 205.689 33.5714C207.593 36.1818 209.537 36.7443 210.142 36.8601C210.941 36.4252 211.703 35.7647 212.409 34.8943C212.547 34.7253 212.756 34.6264 212.978 34.6264ZM220.114 45C219.894 45 219.681 44.9026 219.541 44.727L212.95 36.4496C212.217 37.2174 211.43 37.812 210.6 38.222C210.483 38.2799 210.351 38.3054 210.221 38.2969C210.104 38.2889 207.422 38.0681 204.853 34.8415L204.791 34.866C204.377 35.0313 203.907 34.9879 203.532 34.7512C203.157 34.5139 202.925 34.1123 202.911 33.6769L202.866 32.2222C202.851 31.7586 202.751 31.3029 202.57 30.8684C201.926 29.3294 201.402 27.5688 201.014 25.6359C200.967 25.4071 201.04 25.1713 201.208 25.0051C204.52 21.7258 207.031 20.4806 208.878 21.1948C210.307 21.7465 211.087 23.3711 211.606 24.7706C211.758 24.1191 212.059 23.5019 212.693 23.1804C213.515 22.7638 214.531 23.0604 215.174 23.5396C216.325 24.3969 216.61 26.1594 215.931 27.8823C218.367 29.6642 220.848 31.4577 223.312 33.2184C226.404 35.4276 229.561 37.6496 232.696 39.8231C232.918 39.9775 233.032 40.2411 232.992 40.5043C232.951 40.7674 232.761 40.9859 232.502 41.0692L220.341 44.9642C220.266 44.9882 220.19 45 220.114 45Z" fill="#2A2B2E"/>
<path fill-rule="evenodd" clip-rule="evenodd" d="M213.935 30C213.935 30 214.368 32.5178 213 35L213.935 30Z" fill="white"/>
<path fill-rule="evenodd" clip-rule="evenodd" d="M212.774 36C212.614 36 212.454 35.9508 212.315 35.8488C211.971 35.5946 211.897 35.1085 212.151 34.7632C213.905 32.374 213.382 29.9745 213.376 29.9507C213.28 29.5324 213.54 29.1156 213.957 29.0198C214.375 28.9241 214.79 29.1845 214.885 29.6028C214.914 29.7286 215.568 32.7266 213.398 35.6837C213.246 35.8908 213.011 36 212.774 36Z" fill="#2A2B2E"/>
<path fill-rule="evenodd" clip-rule="evenodd" d="M335 59L368.702 68.3755L371 73H335.74L335 59Z" fill="white"/>
<path fill-rule="evenodd" clip-rule="evenodd" d="M336.093 71.5929H369.16L367.545 68.4031L335.45 59.6375L336.093 71.5929ZM370.301 73H335.431C335.059 73 334.753 72.7078 334.732 72.3345L334.001 58.7416C333.989 58.516 334.085 58.2984 334.259 58.1563C334.434 58.0147 334.666 57.9654 334.882 58.0245L368.211 67.1273C368.401 67.1789 368.561 67.3098 368.651 67.4866L370.924 71.9771C371.034 72.1956 371.024 72.4555 370.897 72.6642C370.77 72.8729 370.544 73 370.301 73Z" fill="#2A2B2E"/>
<path fill-rule="evenodd" clip-rule="evenodd" d="M361.022 63.406C361.223 61.7776 361.825 59.3592 363.557 57.0462C364.373 55.9574 365.908 55.6828 367.076 56.3912L387.211 68.6014C388.702 69.6687 387.939 72 386.097 72H362.247L364.641 67.7981L362.381 66.3084C361.413 65.6698 360.882 64.5491 361.022 63.406Z" fill="#AA4465"/>
<path fill-rule="evenodd" clip-rule="evenodd" d="M362.301 71.5814H386.256C386.94 71.5814 387.332 71.1389 387.469 70.7251C387.606 70.3166 387.559 69.7449 387.024 69.3562L365.771 56.714C364.857 56.1707 363.649 56.3887 363.022 57.2105C361.285 59.4864 360.681 61.8691 360.481 63.4673C360.366 64.3865 360.794 65.2807 361.597 65.8004L363.986 67.3447C364.304 67.5504 364.405 67.9594 364.217 68.2828L362.301 71.5814ZM386.256 73H361.049C360.79 73 360.549 72.8662 360.418 72.6487C360.287 72.4307 360.285 72.1621 360.413 71.9422L362.61 68.1594L360.786 66.9806C359.52 66.1621 358.847 64.7501 359.029 63.2961C359.251 61.5281 359.919 58.891 361.847 56.3665C362.922 54.9588 364.981 54.5805 366.536 55.5049L387.815 68.1622C387.831 68.1717 387.846 68.1816 387.861 68.1925C388.842 68.8805 389.234 70.0461 388.861 71.1625C388.488 72.2784 387.466 73 386.256 73Z" fill="#2A2B2E"/>
<path fill-rule="evenodd" clip-rule="evenodd" d="M384.294 71C384.175 71 384.055 70.97 383.945 70.9072L365.356 60.3134C365.017 60.1208 364.9 59.6915 365.093 59.354C365.287 59.0171 365.719 58.9004 366.055 59.0925L384.644 69.6863C384.983 69.8789 385.1 70.3082 384.907 70.6457C384.776 70.873 384.539 71 384.294 71Z" fill="#2A2B2E"/>
<path fill-rule="evenodd" clip-rule="evenodd" d="M325 35.3242L354.875 19L361 21.7805L334.607 45L325 35.3242Z" fill="white"/>
<path fill-rule="evenodd" clip-rule="evenodd" d="M326.846 35.9407L335.232 44.3551L360.033 22.6188L355.273 20.4663L326.846 35.9407ZM335.2 46C335.019 46 334.838 45.9308 334.702 45.7937L325.202 36.2614C325.048 36.1068 324.976 35.8904 325.007 35.6754C325.039 35.4608 325.17 35.2735 325.362 35.1688L354.907 19.0857C355.101 18.9801 355.333 18.9717 355.534 19.0626L361.592 21.8016C361.807 21.899 361.958 22.0978 361.992 22.329C362.027 22.5606 361.942 22.7946 361.764 22.9496L335.663 45.826C335.53 45.9423 335.365 46 335.2 46Z" fill="#2A2B2E"/>
<path fill-rule="evenodd" clip-rule="evenodd" d="M354.043 19.0815C353.412 17.5602 352.741 15.1524 353.101 12.287C353.271 10.9383 354.467 9.95107 355.83 10.0019L379.323 10.8806C381.144 11.0884 381.632 13.4984 380.035 14.3945L359.349 26L359.35 21.1611L356.654 20.9579C355.499 20.871 354.485 20.1492 354.043 19.0815Z" fill="#AA4465"/>
<path fill-rule="evenodd" clip-rule="evenodd" d="M354.499 18.8491C354.861 19.7078 355.681 20.2849 356.638 20.3556L359.482 20.5661C359.861 20.5941 360.154 20.9037 360.154 21.2755L360.153 25.0724L380.898 13.6443C381.49 13.318 381.607 12.7447 381.519 12.317C381.432 11.895 381.104 11.4179 380.445 11.333L355.685 10.424C354.612 10.388 353.685 11.1519 353.555 12.1695C353.194 14.9863 353.869 17.3568 354.499 18.8491ZM359.426 27C359.299 27 359.172 26.9678 359.059 26.9028C358.836 26.7752 358.699 26.5415 358.699 26.2887L358.7 21.9346L356.528 21.7739C355.021 21.6625 353.729 20.7501 353.155 19.3925C352.459 17.7413 351.712 15.1171 352.112 11.9927C352.336 10.249 353.944 8.93646 355.74 9.00238L380.53 9.91283C380.549 9.91331 380.567 9.91473 380.586 9.9171C381.78 10.0503 382.705 10.8821 382.943 12.0353C383.181 13.1886 382.658 14.3067 381.61 14.8838L359.782 26.909C359.671 26.9697 359.549 27 359.426 27Z" fill="#2A2B2E"/>
<path fill-rule="evenodd" clip-rule="evenodd" d="M379.285 14H379.28L354.709 13.8826C354.314 13.8806 353.997 13.6814 354 13.4378C354.003 13.1939 354.347 13.0015 354.72 13L379.291 13.1174C379.686 13.1192 380.003 13.3183 380 13.5619C379.997 13.8046 379.677 14 379.285 14Z" fill="#2A2B2E"/>
<path fill-rule="evenodd" clip-rule="evenodd" d="M295 65.3225C295 65.3225 308.694 45.3722 315.741 37.4369C322.788 29.5015 327.795 21 327.795 21C327.795 21 342.317 27.3271 350 34.8138L316.445 70L295 65.3225Z" fill="#2A2B2E"/>
<path fill-rule="evenodd" clip-rule="evenodd" d="M231 73H350.007H353L341.999 55.7172C341.999 55.7172 324.542 51.5242 315.474 55.0361C306.406 58.548 300.635 60.3734 293.87 59.5205C287.106 58.6671 271.722 50.1427 261.955 51.0705C252.188 51.9982 236.199 58.3856 236.199 58.3856L231 73Z" fill="#2A2B2E"/>
<path fill-rule="evenodd" clip-rule="evenodd" d="M248.46 56.8759C248.46 56.8759 251.534 55.8216 252.88 52.2548C254.225 48.688 254.881 41.3619 251.766 42.0446C248.651 42.7273 242 58 242 58L248.46 56.8759Z" fill="#2A2B2E"/>
<path fill-rule="evenodd" clip-rule="evenodd" d="M210 65L193.723 37.2988C193.105 36.1056 191.988 35.2326 190.662 34.9039L179.058 32.0258C178.521 31.893 178 32.2893 178 32.8302V33.1721C178.299 34.3052 179.162 35.2148 180.295 35.5914L182.02 36.014C182.02 36.014 183.302 42.8051 190.4 43.217L198.397 65H210Z" fill="white"/>
<path fill-rule="evenodd" clip-rule="evenodd" d="M199.339 64.5671H209.061L193.611 37.4637C193.075 36.4014 192.141 35.6487 191.031 35.3649L179.58 32.4375C179.529 32.425 179.493 32.4432 179.471 32.4604C179.448 32.4781 179.422 32.5096 179.422 32.5616V32.8134C179.674 33.687 180.324 34.3805 181.179 34.6824L182.851 35.1051C183.121 35.1729 183.327 35.3941 183.377 35.6697C183.426 35.9281 184.641 42.0314 190.989 42.4116C191.273 42.4283 191.52 42.6146 191.616 42.8845L199.339 64.5671ZM210.289 66H198.838C198.539 66 198.27 65.8104 198.169 65.5252L190.433 43.8039C184.43 43.1897 182.534 37.9834 182.092 36.3904L180.803 36.0652C180.784 36.0599 180.766 36.0547 180.747 36.048C179.398 35.5861 178.379 34.4794 178.022 33.0885C178.007 33.0297 178 32.9696 178 32.9094V32.5616C178 32.0764 178.218 31.6274 178.597 31.3298C178.978 31.0318 179.463 30.9295 179.929 31.0485L191.381 33.9759C192.889 34.3614 194.157 35.384 194.861 36.7826L210.905 64.9263C211.032 65.1484 211.032 65.4211 210.904 65.6422C210.777 65.8634 210.543 66 210.289 66Z" fill="#2A2B2E"/>
<path fill-rule="evenodd" clip-rule="evenodd" d="M191.217 39C191.183 39 191.148 38.9984 191.114 38.9948C190.191 38.9028 189.461 38.6678 188.942 38.2965C188.506 37.9837 187.931 37.7228 187.234 37.5212C186.138 37.2037 185.386 36.55 185.06 35.6297C184.903 35.1867 185.059 34.7254 185.479 34.3951C185.901 34.0633 186.504 33.929 187.095 34.0362L191.397 34.8158C191.819 34.8919 192.079 35.2146 191.978 35.5353C191.879 35.856 191.455 36.0552 191.035 35.9787L186.732 35.1986C186.682 35.1895 186.64 35.1994 186.605 35.2269C186.555 35.2664 186.569 35.305 186.574 35.3174C186.769 35.8679 187.167 36.2233 187.79 36.4038C188.68 36.6615 189.429 37.0053 190.016 37.4256C190.287 37.6188 190.737 37.7519 191.318 37.81C191.747 37.8527 192.05 38.153 191.993 38.4801C191.942 38.7809 191.604 39 191.217 39Z" fill="#2A2B2E"/>
<path fill-rule="evenodd" clip-rule="evenodd" d="M238.353 73L251 41.2335C251 41.2335 246.383 43.3414 239.305 40.7748C232.227 38.2077 225.322 35.0972 221.274 38.4918L212 47.6196L214.633 48.6338L217.721 60.1963L224.944 73H238.353Z" fill="#AA4465"/>
<path fill-rule="evenodd" clip-rule="evenodd" d="M178 41.2818L167.868 30.5245L162 30C162 30 172.172 42.01 172.451 42.8278C172.729 43.6461 178 41.2818 178 41.2818Z" fill="#AA4465"/>
<path fill-rule="evenodd" clip-rule="evenodd" d="M162.442 31.5219C166.086 35.5838 171.04 41.1703 172.052 42.6413C172.679 42.6092 174.387 42.0548 176.019 41.4142L166.453 31.8594L162.442 31.5219ZM172.185 42.8518C172.204 42.8862 172.218 42.9146 172.226 42.938C172.215 42.9068 172.201 42.8779 172.185 42.8518ZM171.928 44C171.705 44 171.517 43.9729 171.372 43.9133C171.114 43.8083 170.924 43.6189 170.839 43.381C170.446 42.6578 164.085 35.4778 160.173 31.1317C159.981 30.9185 159.946 30.6181 160.082 30.3705C160.219 30.1233 160.502 29.978 160.798 30.0027L166.862 30.5126C167.041 30.5278 167.208 30.6039 167.331 30.7268L177.802 41.1854C177.964 41.3477 178.032 41.5729 177.986 41.7912C177.94 42.009 177.784 42.1929 177.568 42.2836C175.622 43.1054 173.207 44 171.928 44Z" fill="#2A2B2E"/>
<path fill-rule="evenodd" clip-rule="evenodd" d="M212.744 47.9303C212.744 47.9303 221.614 49.7657 223 57.3738L210.306 71.2189C208.272 73.4376 204.725 73.6072 202.47 71.5939L176.448 48.362L170.325 43.7829C168.346 42.3034 166.968 40.2097 166.428 37.8618L166 36C166 36 171.901 42.374 175.782 41.7231L173.918 37.4688C173.918 37.4688 175.694 37.0431 176.911 39.2047C177.385 40.0476 178.657 42.5576 179.43 44.0909C179.839 44.9027 180.474 45.5899 181.266 46.0778L202.608 59.2208L212.744 47.9303Z" fill="white"/>
<path fill-rule="evenodd" clip-rule="evenodd" d="M167.991 37.9897C168.565 39.9891 169.782 41.7722 171.458 43.0556L177.533 47.707C177.55 47.7197 177.566 47.733 177.581 47.7471L203.4 71.346C204.339 72.2036 205.569 72.6411 206.841 72.5784C208.122 72.5156 209.294 71.9605 210.141 71.0156L222.502 57.2119C221.229 51.212 215.015 49.0876 213.356 48.6231L203.593 59.7573C203.358 60.0249 202.959 60.082 202.655 59.8909L181.479 46.5398C180.58 45.9734 179.86 45.1762 179.396 44.2337C178.669 42.7559 177.379 40.1486 176.912 39.299C176.531 38.6066 176.104 38.2437 175.728 38.0568L177.093 41.2474C177.178 41.4461 177.167 41.6717 177.061 41.8605C176.956 42.0498 176.768 42.1815 176.552 42.2183C173.697 42.7096 170.126 39.9593 167.991 37.9897ZM206.598 74C205.04 74.0005 203.565 73.4317 202.416 72.3816L176.62 48.8039L170.569 44.1718C168.479 42.5708 167.013 40.2907 166.442 37.7514L166.017 35.8601C165.947 35.5453 166.102 35.2234 166.395 35.0771C166.687 34.9308 167.045 34.9973 167.262 35.2376C168.652 36.7739 172.52 40.4148 175.346 40.824L173.913 37.4739C173.831 37.2832 173.838 37.0675 173.933 36.8829C174.027 36.6984 174.199 36.5634 174.403 36.5134C174.498 36.4898 176.727 35.9781 178.183 38.6274C178.639 39.4576 179.802 41.8001 180.697 43.6187C181.045 44.3252 181.585 44.9237 182.26 45.349L202.908 58.3668L212.555 47.3653C212.728 47.168 212.995 47.0802 213.255 47.1345C213.633 47.2147 222.548 49.1924 223.989 57.2973C224.027 57.5088 223.965 57.7249 223.821 57.8864L211.226 71.9502C210.12 73.1849 208.588 73.9103 206.914 73.9924C206.808 73.9976 206.703 74 206.598 74Z" fill="#2A2B2E"/>
<path fill-rule="evenodd" clip-rule="evenodd" d="M254.14 272L172.561 272.508C172.033 272.508 171.859 272.995 171.859 273.462V342.308C171.859 348.899 125.509 366.025 125.057 365.154L125 372.44C124.997 373.796 126.199 375 127.732 375H128.752H128.772H197.17C200.344 375 203.48 374.296 206.353 373.102L243.96 357.395C250.73 354.568 255 348.495 255 341.871V272.955C255 272.487 254.669 272 254.14 272Z" fill="#AA4465"/>
<path fill-rule="evenodd" clip-rule="evenodd" d="M162.669 267.516V337.129C162.669 343.992 158.266 350.244 151.347 353.206L125.983 364.064C124.326 364.773 124.891 367 126.728 367H196.417C199.551 367 202.646 366.38 205.48 365.183L233.583 353.316C240.553 350.373 245 344.095 245 337.198V267.516C245 267.231 244.742 267 244.423 267H163.246C162.927 267 162.669 267.231 162.669 267.516Z" fill="white"/>
<path fill-rule="evenodd" clip-rule="evenodd" d="M11 307.214L361.892 308C364.964 308 368.025 305.696 368.415 302.649L396.926 83.4641C397.607 78.1521 393.487 72.8694 388.194 73.0025L41.3714 74.8317L11 307.214Z" fill="#AA4465"/>
<path fill-rule="evenodd" clip-rule="evenodd" d="M375.208 74C381.247 74 386.699 80.123 385.927 86.1286L358.236 302.363C357.843 305.416 354.576 308 351.506 308L6.72947 307.44C3.04649 307.44 0.586371 304.384 1.05777 300.721L29.7333 80.477C30.126 77.4236 32.1445 74 35.2146 74H375.208Z" fill="#2A2B2E"/>
<path fill-rule="evenodd" clip-rule="evenodd" d="M350.826 308L96.5605 307.587C96.1634 307.587 95.8424 307.265 95.8429 306.868C95.8434 306.472 96.1653 306.151 96.5614 306.151H96.5629L350.828 306.564C353.635 306.564 356.5 304.18 356.837 301.563L384.495 85.7326C384.834 83.1 383.887 80.2927 381.897 78.0316C379.886 75.7465 377.191 74.4362 374.502 74.4362H34.8928C32.3823 74.4362 30.4993 77.4049 30.13 80.275L1.48742 300.109C1.27666 301.743 1.70298 303.26 2.68831 304.38C3.61041 305.428 4.94254 306.005 6.43994 306.005L27.3546 306.039C27.7517 306.04 28.0726 306.361 28.0722 306.758C28.0717 307.154 27.7498 307.475 27.3536 307.475H27.3522L6.43898 307.441C4.52341 307.441 2.80806 306.691 1.60909 305.329C0.365575 303.915 -0.198223 301.946 0.0623601 299.924L28.7049 80.0902C29.1476 76.6538 31.4669 73 34.8928 73H374.502C377.604 73 380.693 74.4879 382.976 77.0827C385.239 79.6545 386.313 82.8736 385.921 85.9155L358.263 301.746C357.833 305.078 354.359 308 350.826 308Z" fill="#2A2B2E"/>
<path fill-rule="evenodd" clip-rule="evenodd" d="M365.065 83C370.624 83 375.644 88.6256 374.933 94.1435L349.441 292.82C349.079 295.626 346.071 298 343.244 298L17.2746 297.486C13.8842 297.486 11.6197 294.677 12.053 291.311L38.4514 88.9514C38.8133 86.1457 40.6713 83 43.4983 83H365.065Z" fill="white"/>
<path fill-rule="evenodd" clip-rule="evenodd" d="M170 102.784C179.081 101.619 188.587 101 198.377 101C219.3 101 238.927 103.826 255.87 108.77C256.008 108.81 256.045 108.989 255.937 109.083L198.546 159L170 102.784Z" fill="#AA4465"/>
<path fill-rule="evenodd" clip-rule="evenodd" d="M198.117 159C198.072 159 198.026 158.995 197.98 158.987C197.766 158.944 197.582 158.805 197.482 158.609L169.079 102.807C168.972 102.598 168.974 102.35 169.082 102.143C169.191 101.935 169.393 101.794 169.623 101.765C178.083 100.682 186.828 100.089 195.619 100C196.028 100.004 196.336 100.315 196.339 100.712C196.343 101.109 196.027 101.434 195.632 101.438C187.247 101.523 178.903 102.07 170.814 103.065L198.339 157.14L254.008 108.837C248.575 107.291 242.866 105.964 237.023 104.89C236.636 104.819 236.379 104.445 236.45 104.054C236.52 103.663 236.891 103.404 237.28 103.475C243.512 104.621 249.594 106.052 255.355 107.729C255.67 107.821 255.909 108.079 255.979 108.401C256.049 108.725 255.939 109.06 255.69 109.277L198.583 158.825C198.452 158.939 198.287 159 198.117 159Z" fill="#2A2B2E"/>
<path fill-rule="evenodd" clip-rule="evenodd" d="M170 165.629L170.202 104L198 159.731V222L170 165.629Z" fill="#C9CEBD"/>
<path fill-rule="evenodd" clip-rule="evenodd" d="M169.416 164.47L196.584 218.304V158.889L169.613 105.666L169.416 164.47ZM197.292 222C197.031 222 196.785 221.853 196.662 221.609L168.078 164.969C168.026 164.867 168 164.754 168 164.64L168.207 102.715C168.207 102.385 168.432 102.097 168.749 102.02C169.068 101.942 169.395 102.096 169.544 102.39L197.922 158.387C197.974 158.489 198 158.601 198 158.716V221.282C198 221.614 197.776 221.902 197.458 221.98C197.403 221.994 197.347 222 197.292 222Z" fill="#2A2B2E"/>
<path fill-rule="evenodd" clip-rule="evenodd" d="M197.183 158.562L256 109V167.293L197 216L197.183 158.562Z" fill="#2A2B2E"/>
<path fill-rule="evenodd" clip-rule="evenodd" d="M286.313 217L199.262 178.318C198.967 178.187 198.908 177.792 199.152 177.58L256.067 128C290.694 138.14 314 157.13 314 178.883C314 193.432 303.575 206.745 286.313 217Z" fill="#C9CEBD"/>
<path fill-rule="evenodd" clip-rule="evenodd" d="M286.703 217C286.605 217 286.507 216.98 286.415 216.939L199.686 178.445C199.323 178.284 199.071 177.953 199.013 177.559C198.954 177.165 199.098 176.774 199.398 176.514L256.102 127.175C256.285 127.016 256.536 126.96 256.768 127.029C262.6 128.734 268.18 130.714 273.352 132.915C273.715 133.069 273.884 133.489 273.731 133.854C273.578 134.218 273.162 134.389 272.796 134.234C267.786 132.103 262.385 130.179 256.741 128.514L200.659 177.311L286.655 215.479C304.018 205.087 313.575 191.912 313.575 178.352C313.575 171.263 311.037 164.334 306.031 157.758C305.792 157.444 305.852 156.994 306.164 156.754C306.475 156.513 306.923 156.573 307.163 156.887C312.363 163.719 315 170.94 315 178.352C315 192.521 305.079 206.211 287.065 216.901C286.953 216.967 286.829 217 286.703 217Z" fill="#2A2B2E"/>
<path fill-rule="evenodd" clip-rule="evenodd" d="M286 215.611V261L199 218.263V177L286 215.611Z" fill="#AA4465"/>
<path fill-rule="evenodd" clip-rule="evenodd" d="M200.435 217.812L286.565 260.131V216.054L200.435 177.821V217.812ZM287.282 262C287.174 262 287.066 261.976 286.965 261.926L199.401 218.902C199.156 218.781 199 218.531 199 218.258V176.717C199 176.474 199.123 176.248 199.327 176.115C199.53 175.984 199.787 175.963 200.009 176.061L287.574 214.932C287.833 215.047 288 215.304 288 215.588V261.283C288 261.53 287.872 261.761 287.662 261.891C287.546 261.964 287.414 262 287.282 262Z" fill="#2A2B2E"/>
<path fill-rule="evenodd" clip-rule="evenodd" d="M287 262C303.237 252.104 313.274 239.348 313.962 225.376L314 178C314 192.537 303.881 205.839 287.125 216.086L287 262Z" fill="#AA4465"/>
<path fill-rule="evenodd" clip-rule="evenodd" d="M288.492 216.015L288.373 260.021C304.025 250.108 312.967 237.639 313.593 224.812L313.623 186.999C310.435 197.676 301.787 207.735 288.492 216.015ZM287.685 262C287.568 262 287.45 261.969 287.344 261.905C287.131 261.777 286.999 261.54 287 261.282L287.123 215.604C287.124 215.352 287.251 215.119 287.459 214.99C304.316 204.592 313.609 191.372 313.63 177.762V177.715C313.631 177.32 313.937 177 314.315 177H314.316C314.694 177 315 177.321 315 177.716V177.717V177.765L314.963 224.849C314.297 238.488 304.734 251.634 288.032 261.901C287.925 261.967 287.805 262 287.685 262Z" fill="#2A2B2E"/>
<path fill-rule="evenodd" clip-rule="evenodd" d="M183 185L128.157 237.246L128 276L182.962 224.178L183 185Z" fill="#C9CEBD"/>
<path fill-rule="evenodd" clip-rule="evenodd" d="M129.594 237.022L129.446 273.605L182.523 223.4L182.558 186.402L129.594 237.022ZM128.72 276C128.624 276 128.526 275.981 128.434 275.941C128.169 275.827 127.999 275.566 128 275.279L128.156 236.711C128.157 236.516 128.236 236.33 128.377 236.195L182.782 184.2C182.99 184 183.299 183.945 183.563 184.058C183.829 184.171 184 184.43 184 184.719L183.963 223.709C183.963 223.906 183.881 224.094 183.738 224.23L129.216 275.803C129.079 275.932 128.901 276 128.72 276Z" fill="#2A2B2E"/>
<path fill-rule="evenodd" clip-rule="evenodd" d="M129.193 237C92.7869 227.207 68 207.825 68 185.516C68 158.254 105.014 135.365 155.013 129L183 184.947L129.193 237Z" fill="white"/>
<path fill-rule="evenodd" clip-rule="evenodd" d="M128.939 238C128.877 238 128.814 237.992 128.752 237.976C115.124 234.36 103.21 229.503 93.3446 223.542C93.0052 223.337 92.8986 222.898 93.1055 222.563C93.3139 222.227 93.7575 222.122 94.0959 222.327C103.749 228.16 115.401 232.926 128.733 236.496L182.399 185.291L154.6 130.482C149.168 131.178 143.796 132.078 138.627 133.161C138.24 133.243 137.856 132.998 137.773 132.613C137.691 132.228 137.939 131.85 138.329 131.769C143.697 130.644 149.281 129.714 154.925 129.006C155.221 128.968 155.522 129.122 155.659 129.393L183.924 185.121C184.065 185.399 184.007 185.736 183.78 185.952L129.439 237.8C129.303 237.93 129.123 238 128.939 238Z" fill="#2A2B2E"/>
<path fill-rule="evenodd" clip-rule="evenodd" d="M81.6983 159C81.5088 159 81.3203 158.921 81.1826 158.765C80.9224 158.472 80.9428 158.017 81.2277 157.75C90.0895 149.438 102.833 142.276 118.081 137.037C118.446 136.912 118.842 137.115 118.964 137.491C119.086 137.868 118.888 138.275 118.522 138.4C103.458 143.576 90.8873 150.635 82.1689 158.812C82.0348 158.938 81.8663 159 81.6983 159Z" fill="#2A2B2E"/>
<path fill-rule="evenodd" clip-rule="evenodd" d="M128.908 237.747C92.2085 227.893 67.1789 208.426 67 186L67.0298 225.357C68.0238 247.325 92.8673 266.319 129 276L128.908 237.747Z" fill="#C9CEBD"/>
<path fill-rule="evenodd" clip-rule="evenodd" d="M128.293 277C128.232 277 128.171 276.992 128.11 276.975C113.952 273.081 101.231 267.551 91.324 260.982C90.9955 260.764 90.9012 260.315 91.1133 259.978C91.3249 259.641 91.7637 259.545 92.0907 259.762C101.668 266.112 113.924 271.485 127.584 275.325L127.497 238.352C114.006 234.588 102.259 229.54 92.5733 223.343C92.242 223.131 92.1407 222.682 92.3471 222.342C92.5535 222.001 92.9899 221.898 93.3208 222.11C103.013 228.311 114.81 233.353 128.385 237.095C128.694 237.179 128.909 237.466 128.91 237.794L129 276.272C129 276.498 128.899 276.712 128.724 276.849C128.599 276.948 128.447 277 128.293 277Z" fill="#2A2B2E"/>
<path fill-rule="evenodd" clip-rule="evenodd" d="M286 233.539C264.666 246.062 232.953 254 197.544 254C177.833 254 159.267 251.54 143 247.199L197.329 195L286 233.539Z" fill="#C9CEBD"/>
<path fill-rule="evenodd" clip-rule="evenodd" d="M198.095 255C179.08 255 160.213 252.617 143.532 248.11C143.282 248.043 143.088 247.845 143.023 247.594C142.958 247.342 143.033 247.074 143.219 246.893L197.382 194.203C197.592 193.999 197.902 193.943 198.168 194.06L212.788 200.494C213.151 200.653 213.316 201.079 213.157 201.445C212.999 201.81 212.576 201.978 212.213 201.818L198.034 195.579L145.132 247.042C161.388 251.304 179.67 253.555 198.095 253.555C231.309 253.555 262.765 246.335 284.698 233.715L247.321 217.267C246.958 217.108 246.792 216.682 246.951 216.316C247.11 215.95 247.532 215.783 247.896 215.943L286.57 232.962C286.817 233.07 286.982 233.309 286.999 233.58C287.015 233.851 286.88 234.108 286.647 234.246C264.455 247.436 232.179 255 198.095 255Z" fill="#2A2B2E"/>
<path fill-rule="evenodd" clip-rule="evenodd" d="M143.007 247.767L143.026 276.161C159.287 280.527 177.838 283 197.53 283C232.902 283 264.59 275.021 285.942 262.427C285.942 262.427 286.021 233.985 285.995 234C264.641 246.612 232.93 254.604 197.53 254.604C177.833 254.604 159.278 252.13 143.014 247.762C142.987 247.755 143.007 247.767 143.007 247.767Z" fill="#C9CEBD"/>
<path fill-rule="evenodd" clip-rule="evenodd" d="M144.46 274.955C160.883 279.282 179.409 281.568 198.081 281.568C231.694 281.568 263.526 274.251 285.507 261.481C285.53 253.257 285.564 239.159 285.563 234.957C263.395 247.613 231.606 254.855 198.081 254.855C179.42 254.855 160.898 252.585 144.443 248.286L144.46 274.955ZM198.081 283C179.084 283 160.23 280.648 143.557 276.197C143.242 276.114 143.024 275.83 143.024 275.506L143.006 247.443C142.99 247.32 143.005 247.192 143.057 247.072C143.199 246.745 143.574 246.573 143.919 246.666C160.474 251.086 179.204 253.423 198.081 253.423C231.904 253.423 263.917 246.015 285.912 233.099C286.135 232.968 286.411 232.967 286.635 233.096C286.999 233.305 286.999 233.305 287 234.931C287 235.703 286.999 236.804 286.997 238.126C286.994 240.768 286.986 244.29 286.978 247.811C286.962 254.854 286.942 261.894 286.942 261.894C286.941 262.147 286.807 262.381 286.589 262.509C264.382 275.531 232.122 283 198.081 283Z" fill="#2A2B2E"/>
<path fill-rule="evenodd" clip-rule="evenodd" d="M138.411 162.33C131.689 166.254 128.342 174.451 130.811 182.18C131.933 185.693 134.091 188.583 136.837 190.628C136.912 190.684 136.989 190.737 137.066 190.787L138.511 191.731C142.503 194.03 147.41 194.704 152.142 193.188C161.069 190.33 166.131 179.768 163.136 171.829C160.799 165.63 158.17 163.317 153.302 161.195C145.866 157.955 138.411 162.33 138.411 162.33Z" fill="white"/>
<path fill-rule="evenodd" clip-rule="evenodd" d="M147.414 186.001C142.998 185.978 138.799 186.53 135 187.537C135.754 188.335 136.584 189.056 137.474 189.693C137.55 189.748 137.628 189.799 137.707 189.849L139.181 190.775C143.254 193.029 148.028 193.69 152.856 192.204C155.651 191.344 158.072 189.77 160 187.78C156.103 186.661 151.995 186.024 147.414 186.001Z" fill="#AA4465"/>
<path fill-rule="evenodd" clip-rule="evenodd" d="M136.08 187.802C136.548 188.268 137.043 188.704 137.56 189.107C137.622 189.156 137.687 189.203 137.753 189.248L139.202 190.241C143.205 192.655 147.661 193.163 152.054 191.688C154.196 190.969 156.206 189.716 157.928 188.036C154.35 187.027 150.733 186.525 146.912 186.504C143.175 186.483 139.531 186.92 136.08 187.802ZM147.169 194C144.163 194 141.188 193.167 138.469 191.526L136.986 190.512C136.896 190.45 136.808 190.386 136.721 190.318C135.807 189.605 134.954 188.794 134.187 187.909C134.02 187.716 133.959 187.444 134.027 187.192C134.096 186.94 134.283 186.744 134.521 186.675C138.366 185.563 142.449 185 146.66 185C146.746 185 146.832 185 146.92 185.001C151.29 185.025 155.403 185.659 159.492 186.94C159.729 187.014 159.912 187.213 159.975 187.465C160.04 187.718 159.976 187.987 159.807 188.177C157.748 190.494 155.215 192.204 152.481 193.122C150.731 193.709 148.944 194 147.169 194Z" fill="#2A2B2E"/>
<path fill-rule="evenodd" clip-rule="evenodd" d="M136 167.5C136 161.149 141.149 156 147.5 156C153.851 156 159 161.149 159 167.5C159 173.851 153.851 179 147.5 179C141.149 179 136 173.851 136 167.5Z" fill="#2A2B2E"/>
<path fill-rule="evenodd" clip-rule="evenodd" d="M151.886 168.129C151.883 168.115 151.877 168.086 151.877 168.086L141.242 168C141.242 168 141.238 168.018 141.236 168.027C141.096 168.585 141.02 169.175 141.016 169.784L141 173.065C140.989 175.263 141.965 177.199 143.451 178.331L143.409 186.897C143.4 188.602 144.704 189.991 146.321 190C147.938 190.009 149.256 188.635 149.264 186.93L149.306 178.49C150.899 177.397 151.97 175.406 151.982 173.126L152 169.424C152.002 168.98 151.963 168.547 151.886 168.129Z" fill="white"/>
<path fill-rule="evenodd" clip-rule="evenodd" d="M146.978 190H146.957C145.896 189.995 144.901 189.622 144.153 188.948C143.404 188.273 142.995 187.377 143 186.425L143.046 178.675C143.048 178.302 143.384 178.001 143.797 178.001H143.801C144.216 178.003 144.55 178.308 144.548 178.682L144.502 186.433C144.499 187.019 144.752 187.571 145.215 187.989C145.68 188.408 146.301 188.641 146.965 188.644H146.978C148.336 188.644 149.445 187.665 149.452 186.456L149.498 178.675C149.499 178.3 149.836 177.982 150.253 178.001C150.668 178.003 151.002 178.308 151 178.682L150.954 186.463C150.942 188.417 149.16 190 146.978 190Z" fill="#2A2B2E"/>
<path fill-rule="evenodd" clip-rule="evenodd" d="M147.004 176H146.992C146.3 175.996 145.634 175.677 145.163 175.123C144.934 174.853 144.948 174.43 145.195 174.179C145.441 173.928 145.827 173.942 146.058 174.213C146.303 174.502 146.637 174.662 146.997 174.663C147.367 174.662 147.696 174.508 147.946 174.219C148.179 173.951 148.565 173.94 148.81 174.194C149.054 174.448 149.064 174.871 148.832 175.139C148.358 175.686 147.692 176 147.004 176Z" fill="#2A2B2E"/>
<path fill-rule="evenodd" clip-rule="evenodd" d="M146.486 181H146.454C146.058 180.998 145.739 180.661 145.74 180.249C145.742 179.838 146.063 179.506 146.457 179.506C146.466 179.505 146.476 179.506 146.486 179.506C149.263 179.506 151.531 176.961 151.547 173.82L151.567 170.016C151.574 168.539 151.069 167.149 150.144 166.104C149.233 165.073 148.02 164.501 146.731 164.494C146.722 164.494 146.714 164.494 146.705 164.494C143.822 164.494 141.467 167.135 141.451 170.394L141.433 173.767C141.422 176.009 142.582 178.061 144.388 178.993C144.744 179.176 144.888 179.624 144.713 179.994C144.538 180.364 144.108 180.515 143.753 180.332C141.459 179.148 139.986 176.568 140 173.758L140.017 170.386C140.038 166.306 143.035 163 146.705 163C146.716 163 146.727 163 146.738 163C148.429 163.009 150.014 163.752 151.198 165.091C152.369 166.415 153.009 168.167 153 170.024L152.98 173.829C152.96 177.79 150.05 181 146.486 181Z" fill="#2A2B2E"/>
<path fill-rule="evenodd" clip-rule="evenodd" d="M138.519 180C138.338 180 138.156 179.989 137.972 179.965C137.038 179.847 136.219 179.439 135.666 178.817C135.119 178.203 134.898 177.452 135.043 176.704C135.153 176.138 135.465 175.619 135.945 175.202C136.244 174.943 136.74 174.932 137.057 175.175C137.372 175.419 137.388 175.826 137.089 176.085C136.827 176.313 136.656 176.597 136.597 176.906C136.517 177.314 136.638 177.723 136.937 178.059C137.242 178.402 137.696 178.627 138.214 178.693C139.271 178.828 140.271 178.244 140.437 177.39C140.505 177.038 140.904 176.799 141.337 176.855C141.766 176.91 142.058 177.24 141.99 177.591C141.718 178.995 140.218 180 138.519 180Z" fill="#2A2B2E"/>
<path fill-rule="evenodd" clip-rule="evenodd" d="M154.068 181C153.995 181 153.923 180.997 153.85 180.991C153.264 180.939 152.712 180.684 152.253 180.252C151.967 179.983 151.916 179.487 152.139 179.142C152.362 178.798 152.774 178.737 153.06 179.005C153.313 179.243 153.62 179.385 153.946 179.413C154.838 179.493 155.618 178.695 155.683 177.637C155.715 177.131 155.579 176.64 155.302 176.253C155.019 175.857 154.622 175.618 154.185 175.579C153.824 175.547 153.552 175.168 153.579 174.733C153.605 174.298 153.923 173.972 154.281 174.002C155.068 174.071 155.783 174.504 156.296 175.22C156.802 175.927 157.049 176.827 156.992 177.754C156.878 179.594 155.588 181 154.068 181Z" fill="#2A2B2E"/>
<path fill-rule="evenodd" clip-rule="evenodd" d="M146.517 194C139.192 194 132.35 189.36 129.908 182.038C128.438 177.632 128.761 172.912 130.818 168.748C132.902 164.53 136.508 161.387 140.97 159.899C150.122 156.849 160.046 161.812 163.098 170.962C164.114 174.011 164.275 177.27 163.563 180.386C163.475 180.769 163.099 181.008 162.721 180.919C162.343 180.83 162.107 180.448 162.195 180.066C162.848 177.206 162.701 174.215 161.768 171.416C158.961 163.003 149.828 158.442 141.41 161.248C137.305 162.617 133.989 165.506 132.074 169.383C130.186 173.206 129.889 177.539 131.238 181.584C134.044 189.997 143.174 194.559 151.595 191.752C155.234 190.539 158.323 188.063 160.294 184.782C160.496 184.446 160.929 184.341 161.259 184.544C161.591 184.748 161.696 185.184 161.495 185.52C159.349 189.09 155.99 191.782 152.035 193.101C150.206 193.71 148.345 194 146.517 194Z" fill="#2A2B2E"/>
<path fill-rule="evenodd" clip-rule="evenodd" d="M200 106C200 96.6115 207.611 89 217 89C226.389 89 234 96.6115 234 106C234 115.389 226.389 123 217 123C207.611 123 200 115.389 200 106Z" fill="white"/>
<path fill-rule="evenodd" clip-rule="evenodd" d="M216.523 122C215.119 122 213.706 121.83 212.308 121.485C202.942 119.179 197.201 109.682 199.511 100.315C200.005 98.3132 200.834 96.4372 201.975 94.7402C202.192 94.4164 202.631 94.3313 202.954 94.548C203.277 94.7651 203.363 95.2031 203.146 95.5264C202.097 97.0862 201.335 98.8109 200.881 100.653C198.757 109.264 204.035 117.996 212.646 120.117C216.815 121.143 221.138 120.485 224.816 118.262C228.493 116.038 231.085 112.516 232.114 108.344C233.143 104.172 232.486 99.8504 230.264 96.174C228.042 92.4976 224.521 89.9072 220.35 88.8804C215.665 87.7262 210.753 88.7216 206.878 91.6108C206.566 91.8439 206.124 91.78 205.89 91.4679C205.657 91.1559 205.721 90.7141 206.033 90.481C210.248 87.3385 215.589 86.2553 220.687 87.5114C225.225 88.629 229.055 91.4463 231.472 95.4451C233.889 99.4434 234.603 104.144 233.484 108.682C232.365 113.219 229.546 117.05 225.547 119.468C222.779 121.141 219.675 122 216.523 122Z" fill="#2A2B2E"/>
<path fill-rule="evenodd" clip-rule="evenodd" d="M206 118.881C209.002 122.053 213.046 124 217.5 124C221.953 124 225.998 122.053 229 118.881C225.526 117.678 221.625 117 217.5 117C213.374 117 209.473 117.678 206 118.881Z" fill="#99B9FF"/>
<path fill-rule="evenodd" clip-rule="evenodd" d="M217.5 118C216.119 118 215 116.825 215 115.377V102H220V115.377C220 116.825 218.881 118 217.5 118Z" fill="white"/>
<path fill-rule="evenodd" clip-rule="evenodd" d="M226.662 107.229C226.32 103.04 228.222 100.426 223.959 95.6928C219.546 90.7925 215.758 94.0781 215.758 94.0781C215.758 94.0781 212.602 91.5321 208.459 96.8563C204.803 101.555 209.486 105.766 207.912 108.692C206.338 111.617 201 113.213 201 113.213C201 113.213 202.711 116.537 204.833 118H227.347C227.347 118 232 113.08 232 111.684C232 111.684 227.004 111.418 226.662 107.229Z" fill="#2A2B2E"/>
<path fill-rule="evenodd" clip-rule="evenodd" d="M206 118.881C209.002 122.053 213.046 124 217.5 124C221.953 124 225.998 122.053 229 118.881C225.526 117.678 221.625 117 217.5 117C213.374 117 209.473 117.678 206 118.881Z" fill="#C9CEBD"/>
<path fill-rule="evenodd" clip-rule="evenodd" d="M205.824 118.821C208.703 121.222 212.271 122.53 216 122.53C219.729 122.53 223.297 121.222 226.176 118.821C222.961 117.924 219.544 117.47 216 117.47C212.456 117.47 209.039 117.924 205.824 118.821ZM216 124C211.479 124 207.177 122.233 203.886 119.024L203 118.16L204.164 117.788C207.871 116.602 211.854 116 216 116C220.146 116 224.128 116.602 227.836 117.788L229 118.16L228.114 119.024C224.823 122.233 220.52 124 216 124Z" fill="#2A2B2E"/>
<path fill-rule="evenodd" clip-rule="evenodd" d="M216.684 97H216.496L211 102.538V105.575C211 107.602 212.093 109.37 213.72 110.328V115.293C213.72 116.789 214.929 118 216.421 118C217.912 118 219.122 116.789 219.122 115.293V110.421C220.836 109.488 222 107.667 222 105.575V102.328C222 99.3855 219.62 97 216.684 97Z" fill="white"/>
<path fill-rule="evenodd" clip-rule="evenodd" d="M216.5 119C214.57 119 213 117.456 213 115.558V110.723C213 110.323 213.33 110 213.736 110C214.142 110 214.472 110.323 214.472 110.723V115.558C214.472 116.658 215.382 117.554 216.5 117.554C217.618 117.554 218.528 116.658 218.528 115.558V110.806C218.528 110.407 218.858 110.083 219.264 110.083C219.67 110.083 220 110.407 220 110.806V115.558C220 117.456 218.43 119 216.5 119Z" fill="#2A2B2E"/>
<path fill-rule="evenodd" clip-rule="evenodd" d="M217 112C216.617 112 216.306 111.689 216.306 111.304C216.306 110.92 216.617 110.609 217 110.609C219.543 110.609 221.613 108.531 221.613 105.978V102.841C221.613 100.478 219.792 98.5407 217.454 98.3969L212.387 103.424V105.978C212.387 107.789 213.449 109.444 215.091 110.195C215.44 110.354 215.593 110.767 215.435 111.116C215.276 111.467 214.864 111.621 214.516 111.461C212.38 110.485 211 108.332 211 105.978V103.134C211 102.948 211.074 102.77 211.206 102.639L216.69 97.198C216.88 97.0088 217.169 96.9912 217.435 97.0028C220.556 97.1391 223 99.7039 223 102.841V105.978C223 109.298 220.308 112 217 112Z" fill="#2A2B2E"/>
<path fill-rule="evenodd" clip-rule="evenodd" d="M216.4 204.536C208.887 208.807 205.148 217.726 207.906 226.137C209.16 229.959 211.572 233.106 214.642 235.331C214.725 235.391 214.81 235.448 214.898 235.504L216.512 236.531C220.974 239.032 226.459 239.766 231.747 238.117C241.724 235.006 247.381 223.513 244.035 214.872C241.423 208.127 238.485 205.61 233.043 203.301C224.733 199.774 216.4 204.536 216.4 204.536Z" fill="white"/>
<path fill-rule="evenodd" clip-rule="evenodd" d="M224.407 231.001C219.637 230.975 215.102 231.605 211 232.756C211.815 233.668 212.71 234.493 213.671 235.221C213.754 235.283 213.838 235.342 213.923 235.399L215.515 236.457C219.914 239.033 225.07 239.789 230.284 238.09C233.302 237.107 235.917 235.309 238 233.035C233.791 231.756 229.355 231.027 224.407 231.001Z" fill="#AA4465"/>
<path fill-rule="evenodd" clip-rule="evenodd" d="M213.025 233.727C213.565 234.238 214.136 234.714 214.734 235.151C214.803 235.202 214.875 235.25 214.947 235.297L216.517 236.304C220.873 238.766 225.718 239.283 230.494 237.781C232.866 237.035 235.089 235.725 236.983 233.967C233.059 232.919 229.095 232.398 224.905 232.376C220.772 232.354 216.807 232.809 213.025 233.727ZM225.129 240C221.918 240 218.763 239.155 215.801 237.48L214.199 236.453C214.103 236.392 214.009 236.327 213.917 236.26C212.931 235.54 212.012 234.721 211.183 233.825C211.019 233.649 210.96 233.4 211.027 233.169C211.094 232.938 211.277 232.759 211.51 232.696C215.751 231.547 220.269 230.979 224.912 231.001C229.637 231.025 234.083 231.667 238.504 232.965C238.735 233.032 238.913 233.214 238.976 233.445C239.039 233.676 238.977 233.923 238.812 234.096C236.591 236.437 233.86 238.165 230.911 239.092C228.984 239.698 227.046 240 225.129 240Z" fill="#2A2B2E"/>
<path fill-rule="evenodd" clip-rule="evenodd" d="M236.79 218.704C234.923 211.908 231.074 202.997 223.856 204.092C216.932 205.143 213.674 212.822 212.176 218.773C211.266 222.394 213.997 225.908 217.694 225.928L231.249 226C235.029 226.02 237.801 222.386 236.79 218.704Z" fill="#2A2B2E"/>
<path fill-rule="evenodd" clip-rule="evenodd" d="M231.865 211.141C231.861 211.125 231.855 211.093 231.855 211.093L219.286 211C219.286 211 219.281 211.02 219.279 211.029C219.113 211.639 219.023 212.282 219.019 212.946L219 216.526C218.988 218.922 220.141 221.036 221.897 222.271L221.847 231.616C221.837 233.475 223.378 234.99 225.289 235C227.2 235.01 228.757 233.51 228.767 231.651L228.817 222.443C230.699 221.251 231.965 219.08 231.978 216.592L232 212.554C232.002 212.069 231.956 211.597 231.865 211.141Z" fill="white"/>
<path fill-rule="evenodd" clip-rule="evenodd" d="M225.475 236H225.451C224.257 235.994 223.138 235.562 222.297 234.782C221.455 234 220.994 232.963 221 231.862L221.052 222.718C221.054 222.319 221.39 222.001 221.833 222C222.261 222.002 222.607 222.327 222.605 222.725L222.553 231.869C222.549 232.582 222.848 233.254 223.394 233.761C223.944 234.27 224.677 234.553 225.459 234.557H225.475C227.078 234.557 228.387 233.367 228.395 231.897L228.447 222.718C228.45 222.319 228.82 222.001 229.228 222C229.656 222.002 230.002 222.327 230 222.725L229.948 231.905C229.935 234.168 227.93 236 225.475 236Z" fill="#2A2B2E"/>
<path fill-rule="evenodd" clip-rule="evenodd" d="M224.506 220C224.5 220 224.495 220 224.49 220C223.62 219.996 222.781 219.662 222.19 219.084C221.923 218.823 221.94 218.415 222.227 218.172C222.513 217.93 222.962 217.945 223.23 218.206C223.56 218.529 224.01 218.708 224.496 218.71H224.505C224.99 218.71 225.441 218.534 225.775 218.213C226.045 217.954 226.495 217.944 226.779 218.188C227.063 218.433 227.075 218.842 226.805 219.1C226.2 219.681 225.383 220 224.506 220Z" fill="#2A2B2E"/>
<path fill-rule="evenodd" clip-rule="evenodd" d="M224.985 224H224.95C224.562 223.998 224.248 223.675 224.25 223.279C224.252 222.884 224.566 222.565 224.954 222.565H224.985C228.05 222.565 230.554 219.823 230.571 216.438L230.592 212.39C230.601 210.797 230.044 209.299 229.024 208.172C228.017 207.059 226.677 206.442 225.252 206.435H225.224C222.043 206.435 219.445 209.279 219.426 212.791L219.408 216.379C219.395 218.796 220.675 221.006 222.668 222.012C223.016 222.187 223.158 222.618 222.986 222.973C222.814 223.328 222.392 223.473 222.043 223.297C219.572 222.051 217.985 219.332 218 216.372L218.019 212.783C218.041 208.483 221.27 205 225.224 205H225.259C227.079 205.01 228.784 205.791 230.058 207.2C231.321 208.594 232.01 210.441 232 212.397L231.979 216.446C231.957 220.619 228.823 224 224.985 224Z" fill="#2A2B2E"/>
<path fill-rule="evenodd" clip-rule="evenodd" d="M225.519 239C217.356 239 209.732 233.962 207.011 226.012C205.374 221.229 205.734 216.104 208.026 211.584C210.348 207.004 214.366 203.592 219.338 201.976C229.534 198.665 240.594 204.053 243.995 213.988C245.128 217.298 245.307 220.836 244.513 224.22C244.425 224.595 244.044 224.83 243.663 224.743C243.281 224.656 243.044 224.281 243.133 223.905C243.867 220.774 243.702 217.499 242.653 214.434C239.5 205.224 229.24 200.23 219.782 203.302C215.171 204.801 211.445 207.964 209.293 212.208C207.171 216.393 206.837 221.137 208.353 225.566C211.506 234.776 221.766 239.77 231.224 236.698C235.311 235.369 238.783 232.66 240.997 229.067C241.201 228.737 241.637 228.633 241.971 228.833C242.305 229.033 242.411 229.463 242.209 229.793C239.818 233.669 236.075 236.592 231.667 238.024C229.63 238.686 227.557 239 225.519 239Z" fill="#2A2B2E"/>
<path fill-rule="evenodd" clip-rule="evenodd" d="M273 145.5C273 136.387 280.611 129 290 129C299.389 129 307 136.387 307 145.5C307 154.613 299.389 162 290 162C280.611 162 273 154.613 273 145.5Z" fill="white"/>
<path fill-rule="evenodd" clip-rule="evenodd" d="M279 156.881C282.002 160.052 286.047 162 290.5 162C294.954 162 298.998 160.052 302 156.881C298.527 155.677 294.625 155 290.5 155C286.375 155 282.473 155.677 279 156.881Z" fill="#AA4465"/>
<path fill-rule="evenodd" clip-rule="evenodd" d="M280.197 157.827C283.114 160.217 286.725 161.519 290.5 161.519C294.275 161.519 297.886 160.217 300.803 157.827C297.547 156.933 294.088 156.481 290.5 156.481C286.912 156.481 283.453 156.933 280.197 157.827ZM290.5 163C285.921 163 281.563 161.237 278.229 158.034C278.041 157.854 277.961 157.584 278.018 157.326C278.076 157.068 278.263 156.862 278.509 156.785C282.265 155.6 286.3 155 290.5 155C294.7 155 298.734 155.6 302.492 156.785C302.737 156.862 302.924 157.068 302.982 157.326C303.039 157.584 302.959 157.854 302.772 158.034C299.437 161.237 295.079 163 290.5 163Z" fill="#2A2B2E"/>
<path fill-rule="evenodd" clip-rule="evenodd" d="M294.845 134.722C294.087 134.25 293.204 134 292.301 134H286.989C285.804 134 284.662 134.432 283.793 135.21L283.501 135.471C282.121 136.707 281.64 138.618 282.279 140.327L284.025 145L295.223 144.933L296.804 139.826C297.401 137.894 296.603 135.813 294.845 134.722Z" fill="#2A2B2E"/>
<path fill-rule="evenodd" clip-rule="evenodd" d="M291.868 138.032C291.844 138.021 291.798 138 291.798 138L284 143.21V146.352C284 148.15 284.817 149.749 286.088 150.785V155.573C286.088 157.466 287.579 159 289.419 159C291.259 159 292.751 157.466 292.751 155.573V150.909C294.112 149.879 295 148.225 295 146.352V143.019C295 140.8 293.715 138.889 291.868 138.032Z" fill="white"/>
<path fill-rule="evenodd" clip-rule="evenodd" d="M289.5 152C289.103 152 288.781 151.699 288.781 151.328C288.781 150.956 289.103 150.655 289.5 150.655C292.291 150.655 294.562 148.56 294.562 145.984V142.837C294.562 140.36 292.378 138.345 289.693 138.345H284.438V145.984C284.438 147.81 285.601 149.479 287.402 150.237C287.764 150.389 287.925 150.787 287.763 151.126C287.6 151.465 287.173 151.615 286.812 151.463C284.496 150.489 283 148.338 283 145.984V137.672C283 137.301 283.322 137 283.719 137H289.693C293.171 137 296 139.618 296 142.837V145.984C296 149.301 293.084 152 289.5 152Z" fill="#2A2B2E"/>
<path fill-rule="evenodd" clip-rule="evenodd" d="M289.501 163C284.98 163 280.463 161.264 277.045 157.798C273.761 154.469 271.969 150.059 272 145.38C272.032 140.701 273.883 136.315 277.213 133.03C283.757 126.574 294.256 126.299 301.115 132.4C301.407 132.66 301.435 133.109 301.179 133.404C300.922 133.699 300.478 133.729 300.186 133.469C293.875 127.856 284.215 128.11 278.195 134.049C275.136 137.067 273.436 141.094 273.407 145.39C273.378 149.685 275.024 153.734 278.04 156.792C284.275 163.113 294.487 163.182 300.805 156.948C304.115 153.682 305.849 149.147 305.563 144.503C305.539 144.11 305.834 143.772 306.221 143.748C306.611 143.725 306.942 144.022 306.967 144.414C307.278 149.473 305.39 154.412 301.787 157.967C298.384 161.324 293.941 163 289.501 163Z" fill="#2A2B2E"/>
<path fill-rule="evenodd" clip-rule="evenodd" d="M289.499 160C287.019 160 285 158.074 285 155.706V150.739C285 150.331 285.343 150 285.766 150C286.189 150 286.533 150.331 286.533 150.739V155.706C286.533 157.259 287.864 158.523 289.499 158.523C291.136 158.523 292.467 157.259 292.467 155.706V150.991C292.467 150.583 292.81 150.252 293.234 150.252C293.657 150.252 294 150.583 294 150.991V155.706C294 158.074 291.981 160 289.499 160Z" fill="#2A2B2E"/>
<path fill-rule="evenodd" clip-rule="evenodd" d="M334 116.457C332.047 116.457 330.457 118.046 330.457 120C330.457 121.953 332.047 123.543 334 123.543C335.954 123.543 337.543 121.953 337.543 120C337.543 118.046 335.954 116.457 334 116.457ZM334 125C331.243 125 329 122.757 329 120C329 117.243 331.243 115 334 115C336.757 115 339 117.243 339 120C339 122.757 336.757 125 334 125Z" fill="#2A2B2E"/>
<path fill-rule="evenodd" clip-rule="evenodd" d="M344.5 366.432C343.36 366.432 342.432 367.36 342.432 368.5C342.432 369.64 343.36 370.568 344.5 370.568C345.64 370.568 346.568 369.64 346.568 368.5C346.568 367.36 345.64 366.432 344.5 366.432ZM344.5 372C342.57 372 341 370.43 341 368.5C341 366.57 342.57 365 344.5 365C346.43 365 348 366.57 348 368.5C348 370.43 346.43 372 344.5 372Z" fill="#2A2B2E"/>
<path fill-rule="evenodd" clip-rule="evenodd" d="M363 348.5C363 346.015 365.015 344 367.5 344C369.985 344 372 346.015 372 348.5C372 350.985 369.985 353 367.5 353C365.015 353 363 350.985 363 348.5Z" fill="#2A2B2E"/>
<path fill-rule="evenodd" clip-rule="evenodd" d="M343.24 144C343.045 144 342.85 143.926 342.702 143.777L341.222 142.298C340.926 142.001 340.926 141.519 341.222 141.222C341.52 140.926 342.001 140.926 342.298 141.222L343.778 142.702C344.074 142.999 344.074 143.48 343.778 143.777C343.629 143.926 343.434 144 343.24 144Z" fill="#2A2B2E"/>
<path fill-rule="evenodd" clip-rule="evenodd" d="M350.24 151C350.045 151 349.85 150.926 349.702 150.777L348.222 149.298C347.926 149.001 347.926 148.519 348.222 148.222C348.52 147.926 349.001 147.926 349.298 148.222L350.778 149.702C351.074 149.999 351.074 150.48 350.778 150.777C350.629 150.926 350.434 151 350.24 151Z" fill="#2A2B2E"/>
<path fill-rule="evenodd" clip-rule="evenodd" d="M341.76 151C341.566 151 341.371 150.926 341.222 150.777C340.926 150.48 340.926 149.999 341.222 149.702L342.702 148.222C342.999 147.926 343.48 147.926 343.778 148.222C344.074 148.519 344.074 149.001 343.778 149.298L342.298 150.777C342.15 150.926 341.955 151 341.76 151Z" fill="#2A2B2E"/>
<path fill-rule="evenodd" clip-rule="evenodd" d="M348.76 144C348.566 144 348.371 143.926 348.222 143.777C347.926 143.48 347.926 142.999 348.222 142.702L349.702 141.222C349.999 140.926 350.48 140.926 350.778 141.222C351.074 141.519 351.074 142.001 350.778 142.298L349.298 143.777C349.15 143.926 348.955 144 348.76 144Z" fill="#2A2B2E"/>
<path fill-rule="evenodd" clip-rule="evenodd" d="M153 5L129.918 20L105 6.78543L153 5Z" fill="white"/>
<path fill-rule="evenodd" clip-rule="evenodd" d="M107.281 6.35934L129.37 19.3651L149.832 4.60196L107.281 6.35934ZM129.409 21C129.287 21 129.165 20.968 129.054 20.903L104.366 6.36734C104.086 6.20231 103.945 5.86323 104.02 5.53766C104.096 5.21209 104.37 4.97804 104.692 4.96454L152.25 3.00062C152.585 2.98711 152.86 3.19616 152.963 3.51223C153.064 3.8283 152.953 4.17687 152.689 4.36691L129.82 20.8665C129.697 20.9555 129.553 21 129.409 21Z" fill="#2A2B2E"/>
<path fill-rule="evenodd" clip-rule="evenodd" d="M143.576 20L144 9.70263L118 8L140.098 12.4544L135.457 15.7273L143.576 20Z" fill="#AA4465"/>
<path fill-rule="evenodd" clip-rule="evenodd" d="M137.227 16.0867L143.248 19.2012L143.593 10.9827L129.109 10.0507L140.599 12.327C140.871 12.3812 141.084 12.5917 141.14 12.8628C141.196 13.1335 141.086 13.412 140.858 13.5696L137.227 16.0867ZM143.892 21C143.783 21 143.675 20.9743 143.575 20.9228L135.575 16.7848C135.36 16.6736 135.22 16.4585 135.204 16.2172C135.188 15.976 135.301 15.7439 135.499 15.6065L138.735 13.3633L118.556 9.36547C118.2 9.29469 117.959 8.96012 118.006 8.59982C118.053 8.23997 118.361 7.97802 118.734 8.00146L144.355 9.6504C144.728 9.6743 145.015 9.99278 144.999 10.3669L144.581 20.3396C144.572 20.5749 144.442 20.7886 144.238 20.9072C144.132 20.9692 144.012 21 143.892 21Z" fill="#2A2B2E"/>
<path fill-rule="evenodd" clip-rule="evenodd" d="M142.378 16C142.146 16 141.923 15.8674 141.816 15.6403L140.061 11.9017C139.913 11.5873 140.045 11.2113 140.355 11.0615C140.664 10.9117 141.036 11.0448 141.183 11.3597L142.939 15.0983C143.087 15.4127 142.955 15.7887 142.645 15.9385C142.559 15.9805 142.468 16 142.378 16Z" fill="#2A2B2E"/>
<path fill-rule="evenodd" clip-rule="evenodd" d="M108.291 127.163C101.85 121.525 101.199 111.733 106.837 105.291C112.475 98.8499 122.267 98.1988 128.709 103.837C135.15 109.475 135.801 119.268 130.163 125.709C124.525 132.15 114.733 132.801 108.291 127.163Z" fill="#AA4465"/>
<path fill-rule="evenodd" clip-rule="evenodd" d="M69.265 373L68.0048 385.888C67.9619 386.251 68.2145 386.583 68.5482 386.604L75.1916 386.999C75.4783 387.016 75.7248 386.794 75.7649 386.483L77 374.77L69.265 373Z" fill="white"/>
<path fill-rule="evenodd" clip-rule="evenodd" d="M68.4819 386.191L75.2291 386.586L76.4593 375.088L69.7343 373.572L68.4819 386.191ZM75.3824 388C75.3553 388 75.3287 387.999 75.3016 387.998L68.2734 387.585C67.9149 387.564 67.585 387.403 67.3449 387.132C67.0856 386.839 66.9633 386.448 67.0096 386.06L68.3414 372.636C68.3611 372.434 68.4726 372.25 68.6466 372.131C68.8207 372.013 69.0411 371.972 69.2487 372.019L77.4311 373.864C77.792 373.945 78.0336 374.268 77.9962 374.618L76.6895 386.83C76.6003 387.516 76.0461 388 75.3824 388Z" fill="#2A2B2E"/>
<path fill-rule="evenodd" clip-rule="evenodd" d="M65.8731 382.689C65.4126 384.302 64.4425 388.848 64.0365 391.583C63.7812 393.299 64.8903 394.923 66.5864 395.372C71.3818 396.641 82.8466 396.586 92.3917 396.998C93.0452 397.026 94.2501 396.714 94.7855 395.165C96.6016 389.91 86.5698 388.282 76.6537 382.939C76.4592 382.834 76.2214 382.844 76.0405 382.97C75.9268 383.05 75.7814 383.147 75.6102 383.254C73.8855 384.328 71.0181 384.329 69.2666 383.299L67.288 382.135C66.7454 381.815 66.0442 382.089 65.8731 382.689Z" fill="#AA4465"/>
<path fill-rule="evenodd" clip-rule="evenodd" d="M66.4751 382.391C66.4406 382.391 66.4119 382.399 66.3927 382.406C66.3539 382.421 66.2844 382.46 66.2576 382.554H66.2571C65.7994 384.141 64.8486 388.584 64.4662 391.129C64.2683 392.445 65.1237 393.699 66.4555 394.048C69.8896 394.946 77.1968 395.156 84.2634 395.36C86.7482 395.432 89.3173 395.506 91.7326 395.609C91.9252 395.617 92.9249 395.594 93.3792 394.295C94.3664 391.473 90.8316 389.835 84.4992 387.184C81.8687 386.083 78.8908 384.836 75.923 383.262C75.8171 383.333 75.6911 383.415 75.5478 383.503C73.6448 384.674 70.5006 384.697 68.5387 383.556L66.5892 382.422C66.5485 382.399 66.5092 382.391 66.4751 382.391ZM91.7815 397C91.7436 397 91.7062 396.999 91.6688 396.998C89.2646 396.895 86.7003 396.821 84.2208 396.749C76.7415 396.534 69.6778 396.331 66.0803 395.39C64.0464 394.858 62.741 392.94 63.0434 390.929C63.4431 388.268 64.3991 383.821 64.8726 382.181C65.014 381.691 65.3744 381.302 65.8608 381.115C66.3472 380.928 66.8825 380.971 67.3305 381.231L69.28 382.365C70.7953 383.247 73.3127 383.231 74.7762 382.331C74.9315 382.235 75.0642 382.147 75.1682 382.075C75.5741 381.796 76.0979 381.769 76.5364 382.002C79.4712 383.564 82.4462 384.809 85.0704 385.908C91.2888 388.512 96.2004 390.568 94.7411 394.74C94.1551 396.415 92.8075 397 91.7815 397Z" fill="#2A2B2E"/>
<path fill-rule="evenodd" clip-rule="evenodd" d="M64.0437 391.726C64.034 391.778 64.0282 391.813 64.0258 391.83C63.7724 393.687 65.4287 394.827 67.0128 395.619C71.7112 397.967 90.6888 396.621 91.4214 396.568C91.4359 396.567 91.447 396.567 91.4615 396.567C91.698 396.571 94.1066 396.571 94.801 394.976C94.8876 394.778 94.9408 394.5 94.9732 394.239C95.0259 393.812 94.9988 393.379 94.9103 392.959C94.8388 392.617 94.522 392.403 94.2053 392.49C90.683 393.449 82.4585 393.767 74.2393 392.803C68.7754 392.162 66.4021 390.894 65.1356 390.088C64.7903 389.868 64.3484 390.082 64.27 390.504C64.2043 390.858 64.1245 391.288 64.0437 391.726Z" fill="white"/>
<path fill-rule="evenodd" clip-rule="evenodd" d="M64.4609 392.475L64.448 392.546C64.3021 393.561 65.086 394.421 66.991 395.324C70.5611 397.017 84.0651 396.601 90.7074 396.145C90.727 396.144 90.7871 396.143 90.8071 396.143C91.55 396.155 93.0396 395.946 93.4392 395.073C93.455 395.04 93.5074 394.908 93.5489 394.592C93.5823 394.337 93.5751 394.067 93.5265 393.789C90.1171 394.619 82.1153 394.994 73.7349 394.062C68.5732 393.488 66.0769 392.366 64.6459 391.529L64.4609 392.475ZM79.0068 398C73.9228 398 68.6499 397.707 66.3826 396.632C65.3669 396.15 62.6685 394.871 63.0337 392.329C63.038 392.303 63.0452 392.259 63.0576 392.198L63.2784 391.066C63.3628 390.635 63.6408 390.283 64.0241 390.111C64.4056 389.94 64.8457 389.968 65.2033 390.184C66.4884 390.96 68.7877 392.058 73.8913 392.626C82.2302 393.553 90.1276 393.177 93.3233 392.351C93.6619 392.263 94.0105 392.316 94.308 392.5C94.6041 392.684 94.8178 392.987 94.8945 393.332C95.0042 393.829 95.028 394.316 94.9675 394.782C94.9174 395.158 94.8425 395.452 94.7372 395.681C93.8836 397.541 91.293 397.595 90.7847 397.587C89.7557 397.659 84.4909 398 79.0068 398Z" fill="#2A2B2E"/>
<path fill-rule="evenodd" clip-rule="evenodd" d="M77.6705 387C77.4685 387 77.2688 386.919 77.137 386.765C76.9127 386.502 76.9699 386.128 77.2639 385.928L79.9236 384.122C80.2181 383.922 80.6389 383.973 80.8632 384.236C81.0871 384.498 81.0303 384.873 80.7359 385.073L78.0762 386.878C77.9551 386.96 77.8117 387 77.6705 387Z" fill="#2A2B2E"/>
<path fill-rule="evenodd" clip-rule="evenodd" d="M80.7314 389C80.5092 389 80.2899 388.91 80.1461 388.739C79.9039 388.452 79.9697 388.044 80.2923 387.827L82.8303 386.13C83.153 385.915 83.6115 385.973 83.8537 386.26C84.0959 386.548 84.0306 386.956 83.7075 387.173L81.1695 388.87C81.0384 388.957 80.8839 389 80.7314 389Z" fill="#2A2B2E"/>
<path fill-rule="evenodd" clip-rule="evenodd" d="M48.0785 245C48.0785 245 42.6468 255.845 40.8203 267.271C39.119 277.909 32.8639 321.706 17.6213 356.838C15.8932 360.82 17.8883 364.965 22.1388 365.888C23.839 366.257 24.5511 365.654 26.0233 364.939C26.782 364.571 28.0401 363.483 28.0401 363.483C28.0401 363.483 55.0242 340.981 66.0268 281.94C73.1036 243.964 71.9267 246.977 71.9267 246.977L48.0785 245Z" fill="#AA4465"/>
<path fill-rule="evenodd" clip-rule="evenodd" d="M55.8333 249C55.8333 249 52.6791 269.724 58.6443 285.056C64.38 299.799 68.0429 357.597 65.905 374.295C65.7707 375.345 66.494 376.305 67.5347 376.452C70.1434 376.822 74.848 377.323 78.0658 376.717C78.6581 376.606 79.1333 376.168 79.281 375.579C81.4055 367.107 99.0248 290.525 86.6015 251.281L55.8333 249Z" fill="#AA4465"/>
<path fill-rule="evenodd" clip-rule="evenodd" d="M63.254 304C62.8622 304 62.5342 303.716 62.5103 303.348C62.5053 303.278 62.0162 296.271 58.4291 288.47C57.2987 286.013 56.4834 283.09 56.0067 279.786C55.952 279.406 56.2383 279.057 56.6465 279.007C57.0551 278.954 57.4294 279.222 57.4846 279.601C57.9434 282.782 58.7229 285.582 59.8001 287.925C63.4946 295.959 63.9797 302.971 63.9986 303.266C64.0235 303.648 63.7098 303.976 63.2992 303.999C63.2843 304 63.2684 304 63.254 304Z" fill="#2A2B2E"/>
<path fill-rule="evenodd" clip-rule="evenodd" d="M62.0421 261.397C61.8403 261.397 61.7006 261.493 61.6309 261.555C61.5508 261.626 61.4182 261.783 61.432 262.03L62.0554 273.361C62.1184 274.505 62.7003 275.547 63.6504 276.219L67.2959 278.794C68.5598 279.686 70.2287 279.854 71.652 279.232L77.2821 276.77C78.7207 276.141 79.6174 274.74 79.5673 273.202L79.2138 262.382C79.2081 262.214 79.1337 262.061 79.0045 261.951C78.8733 261.84 78.7064 261.788 78.5323 261.806C71.7207 262.512 65.3351 261.857 62.1356 261.404C62.1031 261.399 62.0717 261.397 62.0421 261.397ZM69.8667 281C68.661 281 67.4623 280.636 66.4574 279.925L62.8119 277.35C61.5098 276.431 60.7133 275.004 60.6264 273.436L60.0031 262.105C59.9697 261.505 60.2115 260.929 60.6656 260.523C61.1201 260.118 61.7316 259.935 62.3407 260.021C65.4739 260.465 71.7236 261.106 78.3815 260.417C78.9491 260.359 79.5167 260.534 79.9441 260.898C80.371 261.26 80.6257 261.785 80.6438 262.337L80.9972 273.157C81.0664 275.265 79.8377 277.184 77.8674 278.045L72.2373 280.507C71.4808 280.837 70.6723 281 69.8667 281Z" fill="#2A2B2E"/>
<path fill-rule="evenodd" clip-rule="evenodd" d="M42.678 279C42.271 279 41.8663 278.873 41.5204 278.623L39.2907 277.012C38.9802 276.788 38.9067 276.349 39.1272 276.032C39.3468 275.715 39.7767 275.64 40.0872 275.865L42.3169 277.476C42.5071 277.613 42.7542 277.632 42.9619 277.524L48.9325 274.428C49.1217 274.33 49.2485 274.144 49.2715 273.928L50.6179 261.247C50.6541 260.906 50.4226 260.599 50.0919 260.547L42.8208 259.398C42.4446 259.338 42.1869 258.979 42.2453 258.595C42.3041 258.212 42.6532 257.949 43.0317 258.008L50.3027 259.157C51.3634 259.325 52.1038 260.309 51.9881 261.398L50.6413 274.08C50.5687 274.768 50.1631 275.368 49.5572 275.682L43.5866 278.777C43.299 278.926 42.988 279 42.678 279Z" fill="#2A2B2E"/>
<path fill-rule="evenodd" clip-rule="evenodd" d="M22.4949 373.222C23.3189 369.183 23.6764 368.353 25.6537 365.239C27.1233 362.925 23.5523 359.436 21.7333 359.169C18.7005 358.557 19.1854 359.499 15.7162 363.858L13 367.133C13 367.133 21.7751 376.751 22.4949 373.222Z" fill="white"/>
<path fill-rule="evenodd" clip-rule="evenodd" d="M21.1275 374C18.6524 374 13.6991 368.781 12.1762 367.109C11.9489 366.859 11.9406 366.484 12.1568 366.225L14.6581 363.228C15.6402 361.992 16.2502 360.992 16.6541 360.33C16.8505 360.008 17.2747 359.904 17.6026 360.097C17.9299 360.29 18.0369 360.707 17.84 361.029C17.3052 361.906 16.7021 362.864 15.7384 364.077L13.6046 366.634C16.8948 370.167 20.4147 372.989 21.1478 372.64C21.1468 372.64 21.1902 372.596 21.222 372.439C21.9463 368.879 22.1986 367.845 23.7146 365.358C23.911 365.035 24.3366 364.931 24.6635 365.124C24.9913 365.317 25.0978 365.734 24.9018 366.056C23.4992 368.357 23.2798 369.258 22.578 372.705C22.3982 373.589 21.8283 373.867 21.5042 373.953C21.3866 373.985 21.2603 374 21.1275 374Z" fill="#2A2B2E"/>
<path fill-rule="evenodd" clip-rule="evenodd" d="M23.0338 371.464L19.5929 366.129C17.988 363.64 14.5742 363.269 12.4985 365.358L8.56069 368.754C8.56069 368.754 7.80761 371.089 8.04699 372.596C8.35857 374.558 8.9724 377.355 10.16 380.126C11.988 384.39 17.0473 392.958 18.8482 395.969C19.225 396.6 20.17 397.224 20.8271 396.921C21.6077 396.562 22.4167 395.916 23.1986 395.162C24.4081 393.996 24.0025 388.544 23.5689 384.748C23.2913 382.315 23.4976 376.105 23.5996 373.545C23.629 372.806 23.431 372.08 23.0338 371.464Z" fill="#AA4465"/>
<path fill-rule="evenodd" clip-rule="evenodd" d="M7.92802 368.812C7.70585 369.535 7.3208 371.102 7.48369 372.081C7.7873 373.903 8.40367 376.641 9.61858 379.344C11.5173 383.571 16.9442 392.319 18.562 394.899C18.8328 395.33 19.468 395.664 19.6998 395.564C20.3441 395.281 21.1027 394.74 21.9537 393.957C22.1528 393.775 23.092 392.45 22.1137 384.276C21.8198 381.822 22.0347 375.645 22.1407 373.103C22.1653 372.521 22.0043 371.956 21.6752 371.469L18.1153 366.202C17.443 365.208 16.3635 364.566 15.1539 364.44C13.9457 364.314 12.7515 364.722 11.8821 365.556L11.8407 365.593L7.92802 368.812ZM19.6005 397C18.6714 397 17.7456 396.303 17.3312 395.641C15.2416 392.31 10.1786 384.107 8.29524 379.916C7.0196 377.076 6.37384 374.213 6.05673 372.309C5.78397 370.669 6.58154 368.28 6.61528 368.18L6.67985 367.989L10.8908 364.524C12.0682 363.405 13.6754 362.861 15.3062 363.03C16.9461 363.2 18.4088 364.071 19.3201 365.419L22.88 370.686C23.3788 371.423 23.6221 372.279 23.5855 373.162C23.4804 375.669 23.2679 381.757 23.5498 384.11C24.5469 392.445 23.6809 394.312 22.9431 394.991C21.9605 395.895 21.0925 396.506 20.2902 396.858C20.0656 396.957 19.8328 397 19.6005 397Z" fill="#2A2B2E"/>
<path fill-rule="evenodd" clip-rule="evenodd" d="M23.3156 377C23.2553 377 23.1942 376.993 23.1339 376.979L19.5032 376.136C19.1389 376.052 18.9243 375.733 19.0247 375.425C19.1243 375.117 19.5032 374.936 19.8661 375.021L23.4964 375.863C23.8611 375.948 24.0757 376.266 23.9753 376.575C23.8922 376.831 23.616 377 23.3156 377Z" fill="#2A2B2E"/>
<path fill-rule="evenodd" clip-rule="evenodd" d="M23.3156 381C23.2553 381 23.1942 380.993 23.1339 380.979L19.5032 380.136C19.1389 380.052 18.9243 379.733 19.0247 379.425C19.1247 379.117 19.5023 378.936 19.8661 379.021L23.4964 379.863C23.8611 379.948 24.0757 380.266 23.9753 380.575C23.8922 380.831 23.616 381 23.3156 381Z" fill="#2A2B2E"/>
<path fill-rule="evenodd" clip-rule="evenodd" d="M19.0627 397C19.4633 397 19.8441 396.938 20.1908 396.823C21.3644 396.432 24.3021 395.585 23.9747 391.512C23.6349 387.29 20.3149 385.14 17.8916 382.37C16.0424 380.256 16.2283 371.416 15.6462 369.683C14.6037 366.581 9.91771 366.113 7.56062 368.571C6.07198 370.123 5.89641 373.495 6.04132 375.974C6.31284 380.617 9.13432 389.859 12.7011 394.322C14.4405 396.499 17.124 397 19.0627 397Z" fill="white"/>
<path fill-rule="evenodd" clip-rule="evenodd" d="M10.9937 367.414C9.7739 367.414 8.57875 367.891 7.77523 368.738C6.7677 369.801 6.29793 372.271 6.48555 375.518C6.73153 379.772 9.32536 388.783 12.8303 393.218C14.4576 395.277 17.0567 395.585 18.4617 395.585C18.767 395.585 19.0578 395.539 19.3264 395.448L19.4306 395.414C20.6074 395.021 22.7976 394.29 22.5309 390.936C22.2965 387.988 20.4671 386.141 18.5306 384.185C17.9398 383.588 17.3292 382.971 16.7673 382.322C15.4256 380.771 15.0986 376.487 14.8357 373.045C14.719 371.517 14.608 370.072 14.4421 369.572C14.0963 368.531 13.192 367.781 11.9602 367.516C11.6409 367.447 11.3163 367.414 10.9937 367.414ZM18.4617 397C16.7914 397 13.6902 396.621 11.6858 394.084C8.01301 389.437 5.29715 380.031 5.04056 375.598C4.91758 373.466 4.97159 369.614 6.71464 367.776C8.07233 366.343 10.2543 365.699 12.2713 366.134C14.0172 366.51 15.3098 367.604 15.8186 369.135C16.0381 369.797 16.1442 371.184 16.2783 372.939C16.4996 375.834 16.8334 380.207 17.8723 381.408C18.4019 382.02 18.9961 382.62 19.57 383.2C21.5995 385.25 23.6985 387.37 23.973 390.826C24.327 395.275 21.1095 396.349 19.898 396.753L19.7976 396.787C19.3771 396.928 18.9276 397 18.4617 397Z" fill="#2A2B2E"/>
<path fill-rule="evenodd" clip-rule="evenodd" d="M19.5622 398C19.104 398 18.6472 397.97 18.2053 397.909C17.8241 397.858 17.5556 397.491 17.6048 397.091C17.654 396.691 18.0031 396.408 18.3838 396.46C18.7673 396.512 19.1638 396.539 19.5622 396.539C20.2443 396.539 20.8499 396.28 21.2246 395.829C21.5339 395.455 21.66 394.977 21.59 394.444C21.0549 390.382 18.9774 388.289 16.5721 385.865C14.3755 383.652 13.8723 376.869 13.6024 373.225C13.5417 372.403 13.4786 371.554 13.4304 371.37C13.2301 370.599 12.0856 369.634 10.765 369.481C10.0072 369.393 8.96573 369.562 8.3105 370.865C8.1315 371.222 7.70998 371.359 7.37054 371.17C7.0311 370.981 6.90126 370.539 7.08072 370.182C7.86533 368.622 9.26297 367.837 10.9171 368.028C12.701 368.235 14.3945 369.533 14.7729 370.985C14.8517 371.289 14.8985 371.889 14.9894 373.112C15.2269 376.316 15.7212 382.983 17.5348 384.811C20.0194 387.314 22.3667 389.679 22.9682 394.244C23.0934 395.194 22.8467 396.097 22.2735 396.789C21.635 397.558 20.6468 398 19.5622 398Z" fill="#2A2B2E"/>
<path fill-rule="evenodd" clip-rule="evenodd" d="M127.129 145C127.129 145 128.432 141.831 129.352 140.659C131.655 137.725 134.183 133.656 134.664 129.573C134.836 128.119 135.984 118.096 132.735 118.001C130.262 117.929 130.612 122.074 130.438 124.416C130.226 127.27 129.164 129.69 125.985 129.625C123.882 129.582 122.007 129.36 121.008 129.606C120.448 129.744 120.088 130.253 120.012 130.835C119.758 132.791 123.698 133.597 123.698 133.597C124.916 134.062 124.235 135.91 124.005 136.73L122.382 142.519L127.129 145Z" fill="white"/>
<path fill-rule="evenodd" clip-rule="evenodd" d="M122.812 141.264L126.301 143.088C126.741 142.083 127.59 140.243 128.273 139.372C130.316 136.77 132.848 132.842 133.312 128.905C133.914 123.784 133.673 119.875 132.682 118.704C132.502 118.491 132.317 118.393 132.085 118.386C132.074 118.386 132.063 118.386 132.052 118.386C130.843 118.386 130.679 120.354 130.6 122.732C130.586 123.188 130.571 123.621 130.542 124.007C130.185 128.816 127.598 129.773 125.506 129.73C124.868 129.717 124.25 129.688 123.673 129.659C122.455 129.6 121.403 129.549 120.824 129.692C120.537 129.763 120.4 130.057 120.367 130.31C120.244 131.252 122.414 132.026 123.424 132.234L123.527 132.264C125.206 132.906 124.577 135.029 124.309 135.936L124.242 136.162L122.812 141.264ZM126.979 145L121.197 141.977L123.007 135.535C123.261 134.677 123.466 133.778 123.085 133.578C122.389 133.427 118.709 132.509 119.018 130.128C119.135 129.239 119.718 128.54 120.504 128.346C121.272 128.156 122.361 128.208 123.737 128.275C124.303 128.302 124.908 128.332 125.534 128.345C126.972 128.377 128.885 127.945 129.186 123.902C129.213 123.535 129.226 123.12 129.241 122.685C129.316 120.416 129.43 117 132.035 117C132.064 117 132.094 117 132.124 117.001C132.736 117.019 133.285 117.295 133.712 117.8C135.45 119.854 135.054 125.742 134.662 129.069C134.16 133.331 131.489 137.495 129.336 140.237C128.648 141.114 127.606 143.474 127.263 144.309L126.979 145Z" fill="#2A2B2E"/>
<path fill-rule="evenodd" clip-rule="evenodd" d="M26.65 254.619C26.65 254.619 21.8825 253.352 20.6503 254.443C20.3314 254.725 21.3649 261.069 21.0232 261.389C19.3989 262.91 16.8599 264.874 16.3213 266.296C15.4866 268.501 16.4833 274.883 16.9949 277.745C17.2584 279.222 19.27 279.472 19.8235 278.082C19.9757 277.701 20.0521 277.198 20.0088 276.538C19.8556 274.222 20.0707 272.553 20.2234 271.724C20.2909 271.358 20.4883 271.035 20.7815 270.813C22.1497 269.776 26.3618 266.416 26.9815 263.914C27.0606 263.594 26.8716 262.824 26.6928 262.218C26.5187 261.627 26.4387 261.013 26.4591 260.395L26.65 254.619Z" fill="white"/>
<path fill-rule="evenodd" clip-rule="evenodd" d="M20.7886 254.566C20.7895 255.103 20.9243 256.397 21.0262 257.378C21.3702 260.675 21.3662 261.136 20.9929 261.491C20.6277 261.839 20.2147 262.21 19.7891 262.593C18.5259 263.727 16.9542 265.139 16.6134 266.055C16.0909 267.456 16.3474 271.524 17.3 276.938C17.3767 277.374 17.7076 277.561 17.9921 277.592C18.121 277.606 18.5588 277.614 18.7481 277.131C18.8672 276.826 18.9113 276.42 18.8789 275.923C18.7242 273.548 18.9492 271.826 19.0966 271.011C19.194 270.477 19.4789 270.005 19.8982 269.681C22.3945 267.76 25.2154 265.071 25.6505 263.286C25.6487 263.286 25.6721 263.001 25.3791 261.992C25.1884 261.335 25.1023 260.656 25.1244 259.974L25.2907 254.861C23.5068 254.44 21.51 254.251 20.7886 254.566ZM18.0868 279C18.0097 279 17.9317 278.996 17.8528 278.987C16.8974 278.885 16.14 278.163 15.9696 277.19C15.3759 273.816 14.5062 267.816 15.3515 265.548C15.8141 264.308 17.3848 262.897 18.9037 261.532C19.2616 261.21 19.6106 260.896 19.9289 260.599C19.9474 260.076 19.7896 258.562 19.6818 257.529C19.3473 254.319 19.3518 253.952 19.7319 253.611C21.088 252.392 24.9914 253.321 26.1554 253.636C26.4616 253.718 26.6716 254.01 26.6608 254.338L26.476 260.021C26.4593 260.549 26.526 261.077 26.6743 261.588C27.0526 262.89 27.0265 263.363 26.9615 263.629C26.3227 266.252 22.3733 269.524 20.7043 270.808C20.5587 270.92 20.46 271.085 20.4257 271.271C20.2905 272.02 20.084 273.608 20.2287 275.829C20.2747 276.54 20.198 277.156 20.001 277.659C19.6742 278.492 18.9384 279 18.0868 279Z" fill="#2A2B2E"/>
<path fill-rule="evenodd" clip-rule="evenodd" d="M129.085 140.232L121.37 138.048C120.805 137.888 120.202 138.14 119.926 138.66C114.534 148.83 94.6762 174.426 82.4832 177.683C80.4496 178.227 74.475 177.479 61.4317 178.943C56.3616 179.512 51.447 181.06 46.9633 183.498L46.2901 183.863C46.2901 183.863 9.40306 206.999 18.4194 257.039C18.5197 257.595 19.0082 258 19.572 258H26.9804C27.5966 258 28.1071 257.523 28.147 256.906C28.4804 251.721 30.4939 229.341 40.8774 216.922C42.0228 215.552 44.232 215.961 44.7646 217.666C45.5914 220.311 45.803 225.942 43.624 237.792C43.5583 238.151 40.8131 252.135 40.8131 252.135C40.8131 252.135 69.6852 257.096 79.7471 255.286C87.7026 253.854 90.1032 251.893 90.7597 251.134C90.9089 250.961 90.9756 250.733 90.9492 250.506L89.7817 240.317C89.3657 236.623 88.8897 226.509 89.573 217.654C90.1416 210.293 93.9219 203.536 99.8955 199.211C109.978 191.913 128.366 174.224 129.998 141.501C130.028 140.918 129.646 140.391 129.085 140.232Z" fill="#2A2B2E"/>
<path fill-rule="evenodd" clip-rule="evenodd" d="M62.0591 181.186C62.1123 180.763 65.7323 176.845 63.5648 169.483C63.5648 169.483 56.9349 162.849 58.1483 159.343C59.3618 155.836 58.5174 151.023 64.1836 150.188C69.8503 149.354 73.5496 151.385 75.3296 154.451C77.1092 157.516 77.9275 160.723 78.3231 162.597C78.6153 163.984 78.8791 167.14 78.9965 168.686C79.0366 169.219 78.7313 169.716 78.2333 169.931L76.5875 170.643C76.0518 170.875 75.7431 171.434 75.8378 172.002L76.3392 175.001C77.6575 181.286 75.8257 181.221 74.1051 181.868C69.7127 183.518 61.7775 183.426 62.0591 181.186Z" fill="white"/>
<path fill-rule="evenodd" clip-rule="evenodd" d="M62.3944 181.648C62.4072 181.692 62.4469 181.755 62.5577 181.841C63.8896 182.872 69.6384 182.877 73.2386 181.515C73.4015 181.453 73.5653 181.397 73.7272 181.343C75.016 180.907 76.0335 180.562 74.9862 175.531L74.49 172.541C74.3446 171.664 74.8171 170.801 75.6386 170.443L77.2527 169.739C77.4643 169.647 77.595 169.433 77.5779 169.205C77.4785 167.877 77.2157 164.642 76.9312 163.282C76.3005 160.273 75.3399 157.636 74.0757 155.443C72.2349 152.248 68.6119 150.876 63.8735 151.58C60.1587 152.131 59.7037 154.572 59.1767 157.398C59.0058 158.318 58.8282 159.269 58.5247 160.152C57.6654 162.653 61.9465 167.711 63.6685 169.448L63.7939 169.574L63.8437 169.745C65.7366 176.223 63.3157 180.151 62.5198 181.443C62.4692 181.525 62.4261 181.593 62.3944 181.648ZM66.6021 184C64.5003 184 62.6254 183.678 61.6828 182.948C61.1572 182.541 60.9077 181.995 60.9806 181.411C61.0071 181.198 61.1075 181.035 61.3073 180.711C62.0156 179.562 64.1571 176.086 62.5269 170.302C61.4205 169.165 55.9458 163.292 57.1801 159.699C57.45 158.913 57.61 158.054 57.78 157.143C58.3264 154.212 58.9461 150.89 63.6628 150.19C68.9452 149.407 73.1894 151.068 75.3091 154.747C76.6471 157.068 77.6608 159.844 78.3217 162.997C78.6129 164.387 78.8681 167.417 78.9945 169.101C79.0566 169.92 78.5864 170.694 77.8255 171.025L76.2115 171.729C75.9828 171.829 75.8512 172.069 75.8919 172.314L76.3829 175.276C77.5841 181.044 76.2304 181.981 74.187 182.672C74.0407 182.722 73.8929 182.771 73.7462 182.827C71.8002 183.563 69.048 184 66.6021 184Z" fill="#2A2B2E"/>
<path fill-rule="evenodd" clip-rule="evenodd" d="M74.0443 160.42C74.689 160.048 75.0405 159.343 74.9499 158.623C74.8409 157.76 74.0062 155.858 75.2382 155.223C78.547 153.517 76.5917 149.651 74.2941 148.438C71.9955 147.225 63.4896 145.857 59.6937 148.585C59.6937 148.585 58.2607 150.128 58.819 151.382C58.819 151.382 55.5565 151.925 55.1365 154.375C54.717 156.825 54.6992 165.612 63.8285 171C63.8285 171 65.9729 170.949 68.229 170.027C69.5416 169.49 70.3734 168.222 70.3632 166.846C70.3478 164.735 70.7495 161.444 71.2042 160.421C71.2042 160.421 70.6096 159.007 71.4053 158.512C71.9227 158.191 72.6879 158.717 73.0626 159.188L74.0443 160.42Z" fill="#2A2B2E"/>
<path fill-rule="evenodd" clip-rule="evenodd" d="M77.3537 169C77.3481 169 77.3433 169 77.3382 169C77.2106 168.997 74.2053 168.893 73.0402 165.841C72.9165 165.518 73.088 165.158 73.423 165.039C73.7583 164.919 74.1299 165.085 74.2536 165.408C75.1178 167.673 77.3459 167.75 77.3683 167.75C77.7252 167.759 78.0084 168.045 77.9998 168.39C77.9912 168.73 77.7037 169 77.3537 169Z" fill="#2A2B2E"/>
<path fill-rule="evenodd" clip-rule="evenodd" d="M73.2103 164C72.5581 164 70.2327 163.72 69.03 159.877C68.9173 159.516 69.1317 159.137 69.5092 159.029C69.8866 158.921 70.2835 159.126 70.3967 159.486C71.4111 162.728 73.1504 162.641 73.2265 162.637C73.6182 162.608 73.9595 162.883 73.9966 163.251C74.0337 163.62 73.7651 163.948 73.38 163.992C73.3648 163.994 73.3054 164 73.2103 164Z" fill="#2A2B2E"/>
</svg>
