<svg width="53" height="58" viewBox="0 0 53 58" fill="none" xmlns="http://www.w3.org/2000/svg">
<path fill-rule="evenodd" clip-rule="evenodd" d="M26.5369 44C34.5448 44 41.0205 37.509 41 29.5006C40.9794 21.491 34.4709 15 26.4619 15C18.4552 15 11.9795 21.491 12 29.5006C12.0206 37.509 18.5291 44 26.5369 44Z" fill="#C9CEBC"/>
<path fill-rule="evenodd" clip-rule="evenodd" d="M26.5369 44C34.5448 44 41.0205 37.509 41 29.5006C40.9794 21.491 34.4709 15 26.4619 15C18.4552 15 11.9795 21.491 12 29.5006C12.0206 37.509 18.5291 44 26.5369 44Z" stroke="#2A2B2E" stroke-width="2" stroke-linecap="round"/>
<path fill-rule="evenodd" clip-rule="evenodd" d="M26.4994 15C22.3573 15 19 21.492 19 29.5006C19 37.508 22.3573 44 26.4994 44C30.6415 44 34 37.508 34 29.5006C34 21.492 30.6427 15 26.4994 15Z" stroke="#2A2B2E" stroke-width="2" stroke-linecap="round"/>
<path d="M40 24.5H13" stroke="#2A2B2E" stroke-width="2" stroke-linecap="round"/>
<path d="M26.5 15V44" stroke="#2A2B2E" stroke-width="2" stroke-linecap="round"/>
<path d="M48.5 39V20" stroke="#2A2B2E" stroke-width="2" stroke-linecap="round"/>
<path fill-rule="evenodd" clip-rule="evenodd" d="M30 4.5C30 6.43317 28.4332 8 26.5 8C24.5668 8 23 6.43317 23 4.5C23 2.56683 24.5668 1 26.5 1C28.4332 1 30 2.56683 30 4.5Z" fill="#AA4465"/>
<path fill-rule="evenodd" clip-rule="evenodd" d="M30 4.5C30 6.43317 28.4332 8 26.5 8C24.5668 8 23 6.43317 23 4.5C23 2.56683 24.5668 1 26.5 1C28.4332 1 30 2.56683 30 4.5Z" stroke="#2A2B2E" stroke-width="2" stroke-linejoin="round"/>
<path fill-rule="evenodd" clip-rule="evenodd" d="M30 53.5C30 55.4332 28.4332 57 26.5 57C24.5668 57 23 55.4332 23 53.5C23 51.5668 24.5668 50 26.5 50C28.4332 50 30 51.5668 30 53.5Z" fill="#AA4465"/>
<path fill-rule="evenodd" clip-rule="evenodd" d="M30 53.5C30 55.4332 28.4332 57 26.5 57C24.5668 57 23 55.4332 23 53.5C23 51.5668 24.5668 50 26.5 50C28.4332 50 30 51.5668 30 53.5Z" stroke="#2A2B2E" stroke-width="2" stroke-linejoin="round"/>
<path fill-rule="evenodd" clip-rule="evenodd" d="M8 42.5C8 44.4332 6.43317 46 4.5 46C2.56683 46 1 44.4332 1 42.5C1 40.5668 2.56683 39 4.5 39C6.43317 39 8 40.5668 8 42.5Z" fill="#AA4465"/>
<path fill-rule="evenodd" clip-rule="evenodd" d="M8 42.5C8 44.4332 6.43317 46 4.5 46C2.56683 46 1 44.4332 1 42.5C1 40.5668 2.56683 39 4.5 39C6.43317 39 8 40.5668 8 42.5Z" stroke="#2A2B2E" stroke-width="2" stroke-linejoin="round"/>
<path fill-rule="evenodd" clip-rule="evenodd" d="M8 15.5C8 17.4332 6.43317 19 4.5 19C2.56683 19 1 17.4332 1 15.5C1 13.5668 2.56683 12 4.5 12C6.43317 12 8 13.5668 8 15.5Z" fill="#AA4465"/>
<path fill-rule="evenodd" clip-rule="evenodd" d="M8 15.5C8 17.4332 6.43317 19 4.5 19C2.56683 19 1 17.4332 1 15.5C1 13.5668 2.56683 12 4.5 12C6.43317 12 8 13.5668 8 15.5Z" stroke="#2A2B2E" stroke-width="2" stroke-linejoin="round"/>
<path fill-rule="evenodd" clip-rule="evenodd" d="M52 15.5C52 17.4332 50.4332 19 48.5 19C46.5668 19 45 17.4332 45 15.5C45 13.5668 46.5668 12 48.5 12C50.4332 12 52 13.5668 52 15.5Z" fill="#AA4465"/>
<path fill-rule="evenodd" clip-rule="evenodd" d="M52 15.5C52 17.4332 50.4332 19 48.5 19C46.5668 19 45 17.4332 45 15.5C45 13.5668 46.5668 12 48.5 12C50.4332 12 52 13.5668 52 15.5Z" stroke="#2A2B2E" stroke-width="2" stroke-linejoin="round"/>
<path fill-rule="evenodd" clip-rule="evenodd" d="M52 42.5C52 44.4332 50.4332 46 48.5 46C46.5668 46 45 44.4332 45 42.5C45 40.5668 46.5668 39 48.5 39C50.4332 39 52 40.5668 52 42.5Z" fill="#AA4465"/>
<path fill-rule="evenodd" clip-rule="evenodd" d="M52 42.5C52 44.4332 50.4332 46 48.5 46C46.5668 46 45 44.4332 45 42.5C45 40.5668 46.5668 39 48.5 39C50.4332 39 52 40.5668 52 42.5Z" stroke="#2A2B2E" stroke-width="2" stroke-linejoin="round"/>
<path d="M40 33.5H13" stroke="#2A2B2E" stroke-width="2" stroke-linecap="round"/>
<path d="M30 52L45 44" stroke="#2A2B2E" stroke-width="2" stroke-linecap="round"/>
<path d="M8 44L23 52" stroke="#2A2B2E" stroke-width="2" stroke-linecap="round"/>
<path d="M4.5 20V39" stroke="#2A2B2E" stroke-width="2" stroke-linecap="round"/>
<path d="M23 6L8 14" stroke="#2A2B2E" stroke-width="2" stroke-linecap="round"/>
<path d="M45 14L30 6" stroke="#2A2B2E" stroke-width="2" stroke-linecap="round"/>
<path d="M39 21L45 17" stroke="#2A2B2E" stroke-width="2" stroke-linecap="round"/>
<path d="M8 41L14 37" stroke="#2A2B2E" stroke-width="2" stroke-linecap="round"/>
<path d="M14 21L8 17" stroke="#2A2B2E" stroke-width="2" stroke-linecap="round"/>
<path d="M45 41L39 37" stroke="#2A2B2E" stroke-width="2" stroke-linecap="round"/>
<path d="M26.5 8V14" stroke="#2A2B2E" stroke-width="2" stroke-linecap="round"/>
<path d="M26.5 44V50" stroke="#2A2B2E" stroke-width="2" stroke-linecap="round"/>
</svg>
