<svg width="270" height="268" viewBox="0 0 270 268" fill="none" xmlns="http://www.w3.org/2000/svg">
<path fill-rule="evenodd" clip-rule="evenodd" d="M182.211 165.242L132.376 165.556C132.053 165.556 131.947 165.858 131.947 166.148V208.763C131.947 212.843 103.632 223.444 103.356 222.905L103.321 227.415C103.319 228.255 104.054 229 104.99 229H105.613H105.625H147.41C149.348 229 151.263 228.563 153.019 227.825L175.992 218.102C180.128 216.352 182.737 212.593 182.737 208.492V165.833C182.737 165.544 182.534 165.242 182.211 165.242Z" fill="#2A2B2E"/>
<path fill-rule="evenodd" clip-rule="evenodd" d="M126.9 163.074V205.699C126.9 209.901 124.209 213.729 119.982 215.543L104.485 222.191C103.472 222.626 103.817 223.989 104.939 223.989H147.52C149.435 223.989 151.326 223.609 153.057 222.876L170.228 215.61C174.487 213.808 177.205 209.964 177.205 205.741V163.074C177.205 162.899 177.047 162.758 176.852 162.758H127.252C127.058 162.758 126.9 162.899 126.9 163.074Z" fill="#C9CEBD"/>
<mask id="mask0_0:3912" style="mask-type:alpha" maskUnits="userSpaceOnUse" x="34" y="43" width="236" height="145">
<path fill-rule="evenodd" clip-rule="evenodd" d="M34.0664 43.3999H270V187.699H34.0664V43.3999Z" fill="white"/>
</mask>
<g mask="url(#mask0_0:3912)">
<path fill-rule="evenodd" clip-rule="evenodd" d="M34.0664 187.227L238.982 187.676L242.54 187.684L249.156 187.699C251.036 187.699 252.58 186.223 252.819 184.345L269.953 49.7662C270.37 46.4922 267.995 43.3999 264.717 43.3999L52.41 43.5935L34.0664 187.227Z" fill="#2A2B2E"/>
</g>
<path fill-rule="evenodd" clip-rule="evenodd" d="M256.753 43.3687C260.448 43.3687 263.453 47.1093 262.98 50.8028L245.724 184.351C245.483 186.229 243.897 187.635 242.017 187.635L240.4 187.697L31.225 187.635C28.9714 187.635 27.2301 185.639 27.5186 183.387L45.1232 47.1217C45.3636 45.2437 46.8 43.3687 48.6796 43.3687H256.753Z" fill="white"/>
<path fill-rule="evenodd" clip-rule="evenodd" d="M31.2261 188.125C30.0128 188.125 28.8576 187.6 28.0558 186.684C27.251 185.764 26.8792 184.54 27.0347 183.325L39.511 89.7141C39.5464 89.4457 39.793 89.2587 40.0591 89.293C40.3265 89.329 40.5139 89.5758 40.4778 89.8442L28.0021 183.452C27.8827 184.386 28.1693 185.328 28.7884 186.036C29.4048 186.74 30.2932 187.145 31.2251 187.145L242.085 186.761C243.709 186.761 245.259 185.36 245.472 183.702L262.496 50.7403C262.704 49.1163 262.207 47.4806 261.133 46.2526C260.063 45.0298 258.521 44.3285 256.903 44.3285H235.093C234.824 44.3285 234.605 44.1088 234.605 43.8381C234.605 43.567 234.824 43.3477 235.093 43.3477H256.903C258.801 43.3477 260.61 44.1703 261.865 45.6046C263.125 47.0445 263.708 48.962 263.464 50.8655L246.439 183.827C246.163 185.986 244.21 187.742 242.086 187.742L31.2261 188.125Z" fill="#2A2B2E"/>
<path fill-rule="evenodd" clip-rule="evenodd" d="M198.506 44.3283H198.506L59.4954 44.2577C59.2261 44.2577 59.0078 44.038 59.0078 43.767C59.0078 43.4962 59.2264 43.2769 59.4958 43.2769H59.4961L198.506 43.3475C198.776 43.3475 198.994 43.5672 198.994 43.8382C198.994 44.1089 198.775 44.3283 198.506 44.3283Z" fill="#2A2B2E"/>
<path fill-rule="evenodd" clip-rule="evenodd" d="M238.544 179.686C238.523 179.686 238.502 179.685 238.48 179.682C238.213 179.647 238.025 179.4 238.06 179.132L254.65 52.2763C254.685 52.0072 254.93 51.8185 255.197 51.8539C255.464 51.8892 255.652 52.1354 255.617 52.4038L239.027 179.26C238.995 179.507 238.785 179.686 238.544 179.686Z" fill="#C9CEBD"/>
<path fill-rule="evenodd" clip-rule="evenodd" d="M136.021 100.78H70.6797L79.1614 35H144.503L136.021 100.78Z" fill="white"/>
<mask id="mask1_0:3912" style="mask-type:alpha" maskUnits="userSpaceOnUse" x="70" y="36" width="74" height="65">
<path fill-rule="evenodd" clip-rule="evenodd" d="M78.502 36L70 101H135.498L144 36" fill="white"/>
</mask>
<g mask="url(#mask1_0:3912)">
<path fill-rule="evenodd" clip-rule="evenodd" d="M114.947 42.9861C115.525 43.1576 116.075 43.3957 116.587 43.7055C122.243 47.1278 117.365 55.0563 119.612 60.1911C121.538 64.5939 119.754 68.0718 115.966 71.5603C113.773 73.5785 111.744 75.2562 110.785 78.0853C110.232 79.7155 109.933 81.3965 109.291 83.0054C106.12 90.9477 96.4955 93.4143 89.4657 91.6898C86.3204 90.9186 83.5051 89.2913 81.3432 87.0499C78.8462 84.4608 75.8297 80.0205 79.4745 76.3233C80.6543 75.1267 82.1832 74.3448 83.7102 73.7045C86.3683 72.5896 90.8303 71.4472 92.0449 68.4065C92.9592 66.1166 91.503 63.7165 93.073 61.4909C94.3003 59.7514 96.6213 59.2206 97.9188 57.5239C99.0395 56.0578 99.0793 54.1753 99.2716 52.4439C100.338 42.8417 109.141 41.2635 114.947 42.9861Z" fill="#2A2B2E"/>
</g>
<mask id="mask2_0:3912" style="mask-type:alpha" maskUnits="userSpaceOnUse" x="70" y="36" width="74" height="65">
<path fill-rule="evenodd" clip-rule="evenodd" d="M78.502 36L70 101H135.498L144 36H78.502Z" fill="white"/>
</mask>
<g mask="url(#mask2_0:3912)">
<path fill-rule="evenodd" clip-rule="evenodd" d="M75.9082 100.716C78.387 93.7725 80.9891 85.0192 83.5993 79.3138C84.9763 76.3038 87.8323 74.2212 91.1348 73.7567C101.419 72.31 111.425 71.7898 121.027 72.6065C123.567 72.8227 125.754 74.4577 126.679 76.8113C129.221 83.2821 130.821 92.3148 132.237 101.846L75.9082 100.716Z" fill="#C9CEBD"/>
</g>
<mask id="mask3_0:3912" style="mask-type:alpha" maskUnits="userSpaceOnUse" x="70" y="36" width="74" height="65">
<path fill-rule="evenodd" clip-rule="evenodd" d="M78.502 36L70 101H135.498L144 36" fill="white"/>
</mask>
<g mask="url(#mask3_0:3912)">
<path fill-rule="evenodd" clip-rule="evenodd" d="M76.5938 100.245L131.669 101.351C130.339 92.4655 128.751 83.4202 126.223 76.9872C125.357 74.7842 123.35 73.291 120.985 73.0897C111.916 72.3185 102.175 72.6936 91.2037 74.2369C88.0281 74.6834 85.3517 76.6564 84.0448 79.5142C82.2788 83.3743 80.5007 88.6849 78.7814 93.8207C78.0601 95.9743 77.317 98.1941 76.5938 100.245ZM132.237 102.331C132.234 102.331 132.23 102.331 132.227 102.331L75.8982 101.2C75.7414 101.197 75.595 101.12 75.506 100.992C75.4166 100.864 75.3945 100.701 75.447 100.554C76.237 98.3415 77.0584 95.8881 77.8527 93.5154C79.5802 88.3557 81.3665 83.0205 83.1537 79.114C84.5998 75.9527 87.5576 73.7707 91.0661 73.2771C102.111 71.7234 111.926 71.3461 121.069 72.124C123.809 72.357 126.133 74.0857 127.135 76.6357C129.751 83.2951 131.366 92.6541 132.721 101.776C132.742 101.917 132.699 102.06 132.604 102.167C132.511 102.272 132.377 102.331 132.237 102.331Z" fill="#2A2B2E"/>
</g>
<mask id="mask4_0:3912" style="mask-type:alpha" maskUnits="userSpaceOnUse" x="70" y="36" width="74" height="65">
<path fill-rule="evenodd" clip-rule="evenodd" d="M78.502 36L70 101H135.498L144 36H78.502Z" fill="white"/>
</mask>
<g mask="url(#mask4_0:3912)">
<path fill-rule="evenodd" clip-rule="evenodd" d="M105.321 62.7642L102.83 72.2421L98.0234 72.9493C98.0234 72.9493 99.0845 78.6382 105.269 79.0585C111.455 79.4788 114.972 75.1487 115.621 72.8636L111.266 72.243L111.715 63.0436L105.321 62.7642Z" fill="white"/>
</g>
<mask id="mask5_0:3912" style="mask-type:alpha" maskUnits="userSpaceOnUse" x="70" y="36" width="74" height="65">
<path fill-rule="evenodd" clip-rule="evenodd" d="M78.502 36L70 101H135.498L144 36H78.502Z" fill="white"/>
</mask>
<g mask="url(#mask5_0:3912)">
<path fill-rule="evenodd" clip-rule="evenodd" d="M98.6301 73.35C99.0344 74.6807 100.557 78.2526 105.303 78.5753C110.833 78.954 114.034 75.3912 114.958 73.2589L111.196 72.7229C110.946 72.6874 110.765 72.4696 110.777 72.2199L111.202 63.5067L105.694 63.2657L103.302 72.3643C103.253 72.5523 103.095 72.6932 102.901 72.7216L98.6301 73.35ZM106.101 79.5717C105.818 79.5717 105.53 79.5623 105.236 79.5423C98.7468 79.101 97.5534 73.098 97.5423 73.0373C97.5182 72.908 97.5482 72.7746 97.6252 72.6677C97.7021 72.5607 97.8201 72.4893 97.9512 72.47L102.438 71.8099L104.847 62.6422C104.905 62.4209 105.109 62.2694 105.342 62.2803L111.736 62.5598C111.866 62.5656 111.989 62.6225 112.076 62.7175C112.164 62.8128 112.21 62.9388 112.203 63.0673L111.776 71.8264L115.69 72.384C115.83 72.4037 115.954 72.4826 116.03 72.5995C116.108 72.7165 116.129 72.8606 116.092 72.995C115.484 75.134 112.156 79.5717 106.101 79.5717Z" fill="#2A2B2E"/>
</g>
<mask id="mask6_0:3912" style="mask-type:alpha" maskUnits="userSpaceOnUse" x="70" y="36" width="74" height="65">
<path fill-rule="evenodd" clip-rule="evenodd" d="M78.502 36L70 101H135.498L144 36" fill="white"/>
</mask>
<g mask="url(#mask6_0:3912)">
<path fill-rule="evenodd" clip-rule="evenodd" d="M115.932 55.5944C115.69 55.532 115.411 55.6193 115.135 55.8154C115.138 55.7611 115.141 55.7065 115.142 55.6542L115.891 49.9287C108.763 54.6232 107.947 51.6216 103.655 52.9656C103.655 52.9656 103.263 55.6267 103.226 55.8125C103.003 55.6186 102.748 55.5324 102.49 55.5944C101.836 55.752 101.417 56.7978 101.555 57.9299C101.688 59.0244 102.647 60.2427 103.302 60.1797C103.919 63.0667 105.597 65.554 107.909 65.554C110.22 65.554 112.549 63.0667 113.921 60.1797C114.56 60.2427 115.837 59.0244 116.257 57.9299C116.691 56.7978 116.545 55.752 115.932 55.5944Z" fill="white"/>
</g>
<mask id="mask7_0:3912" style="mask-type:alpha" maskUnits="userSpaceOnUse" x="70" y="36" width="74" height="65">
<path fill-rule="evenodd" clip-rule="evenodd" d="M78.502 36L70 101H135.498L144 36" fill="white"/>
</mask>
<g mask="url(#mask7_0:3912)">
<path fill-rule="evenodd" clip-rule="evenodd" d="M103.302 59.6949C103.53 59.6949 103.732 59.8532 103.78 60.079C104.311 62.5628 105.794 65.0691 107.909 65.0691C110.083 65.0691 112.273 62.5094 113.479 59.973C113.567 59.7873 113.764 59.6765 113.97 59.6971C114.263 59.723 115.398 58.8058 115.8 57.7574C116.076 57.0363 116.059 56.4438 115.92 56.1766C115.869 56.0787 115.824 56.0671 115.809 56.0632C115.743 56.0468 115.607 56.0762 115.421 56.2086C115.268 56.3175 115.067 56.3294 114.902 56.2413C114.737 56.1524 114.638 55.9783 114.647 55.7925L114.653 55.6423C114.653 55.6255 114.655 55.6087 114.657 55.5916L115.271 50.8996C111.191 53.4063 109.248 53.2632 107.364 53.1252C106.356 53.0513 105.399 52.9812 104.094 53.3417C103.981 54.1029 103.738 55.7463 103.706 55.9066C103.672 56.0765 103.549 56.2151 103.383 56.271C103.218 56.3265 103.036 56.2907 102.904 56.177C102.794 56.0813 102.694 56.0442 102.606 56.0652C102.295 56.1401 101.92 56.8813 102.04 57.8715C102.156 58.8232 102.972 59.6978 103.243 59.6978C103.247 59.6978 103.251 59.6975 103.254 59.6971C103.27 59.6955 103.286 59.6949 103.302 59.6949ZM107.909 66.0383C105.641 66.0383 103.697 63.9184 102.898 60.6072C102.024 60.3223 101.2 59.0636 101.069 57.9878C100.897 56.5756 101.459 55.3441 102.375 55.1234C102.53 55.0856 102.687 55.0798 102.842 55.1044C102.935 54.4925 103.074 53.5572 103.171 52.8955C103.198 52.7117 103.329 52.5595 103.508 52.5033C105.145 51.9906 106.311 52.0762 107.437 52.1586C109.373 52.3008 111.202 52.4345 115.62 49.525C115.779 49.42 115.986 49.4164 116.149 49.5172C116.312 49.6174 116.401 49.8025 116.376 49.9908L115.709 55.0911C115.827 55.0847 115.943 55.0963 116.055 55.125C116.371 55.2061 116.624 55.4161 116.789 55.7318C117.09 56.3088 117.062 57.1943 116.714 58.1018C116.309 59.1582 115.161 60.3995 114.246 60.6289C112.974 63.1785 110.604 66.0383 107.909 66.0383Z" fill="#2A2B2E"/>
</g>
<path fill-rule="evenodd" clip-rule="evenodd" d="M75.3095 55.6954C75.2886 55.6954 75.2674 55.6941 75.2462 55.6915C74.9775 55.6568 74.7886 55.4129 74.8235 55.1463L75.6917 48.4894C75.7263 48.2228 75.9737 48.0356 76.24 48.0694C76.5083 48.1041 76.6973 48.348 76.6627 48.6146L75.7942 55.2715C75.7625 55.5167 75.5517 55.6954 75.3095 55.6954Z" fill="#2A2B2E"/>
<path fill-rule="evenodd" clip-rule="evenodd" d="M135.362 101.233H68.8125L72.9068 69.8377C72.9417 69.5714 73.1888 69.3835 73.4551 69.4179C73.7234 69.4523 73.9124 69.6962 73.8778 69.9629L69.9271 100.26H134.502L142.885 35.9731H139.441C139.17 35.9731 138.951 35.7554 138.951 35.4865C138.951 35.218 139.17 35 139.441 35H144L135.362 101.233Z" fill="#2A2B2E"/>
<path fill-rule="evenodd" clip-rule="evenodd" d="M77.3915 39.7246C77.3706 39.7246 77.3494 39.7233 77.3282 39.7207C77.0596 39.686 76.8706 39.4421 76.9055 39.1755L77.4499 35H113.034C113.305 35 113.524 35.2176 113.524 35.4865C113.524 35.7554 113.305 35.9731 113.034 35.9731H78.3103L77.8762 39.3007C77.8446 39.5459 77.6337 39.7246 77.3915 39.7246Z" fill="#2A2B2E"/>
<path fill-rule="evenodd" clip-rule="evenodd" d="M132.562 180H67L75.5104 114.741H141.072L132.562 180Z" fill="#C9CEBD"/>
<mask id="mask8_0:3912" style="mask-type:alpha" maskUnits="userSpaceOnUse" x="68" y="115" width="74" height="65">
<path fill-rule="evenodd" clip-rule="evenodd" d="M76.502 115L68 180H133.498L142 115" fill="white"/>
</mask>
<g mask="url(#mask8_0:3912)">
<path fill-rule="evenodd" clip-rule="evenodd" d="M136.91 160.892C132.952 154.603 130.973 151.459 128.221 149.709C121.694 145.557 114.007 146.531 107.483 147.358C101.051 148.173 93.7576 149.097 86.3665 154.325C85.4036 155.006 69.756 166.425 70.3857 183.204C70.6022 188.971 72.6985 194.232 76.2074 198.439C79.1828 194.816 82.5674 192.637 84.5438 191.569C84.5395 191.553 84.5343 191.538 84.5301 191.522C82.7931 184.91 85.1793 177.309 90.6867 171.843C89.8562 178.653 89.026 185.462 88.1958 192.272C89.2415 193.599 90.988 195.322 93.664 195.961C99.7538 197.417 104.51 191.799 112.233 191.258C115.123 191.055 119.186 191.511 123.956 194.658C123.844 188.396 123.731 182.133 123.618 175.871C123.716 176.744 124.347 181.566 128.677 183.961C129.539 184.438 132.966 186.334 136.762 184.728C141.072 182.904 142.579 177.952 142.756 177.341C144.145 172.53 141.753 168.585 136.91 160.892Z" fill="#AA4465"/>
</g>
<mask id="mask9_0:3912" style="mask-type:alpha" maskUnits="userSpaceOnUse" x="68" y="115" width="74" height="65">
<path fill-rule="evenodd" clip-rule="evenodd" d="M76.502 115L68 180H133.498L142 115" fill="white"/>
</mask>
<g mask="url(#mask9_0:3912)">
<path fill-rule="evenodd" clip-rule="evenodd" d="M138.069 178.413C132.515 174.884 118.885 170.29 118.885 170.29C117.168 169.069 115.903 167.343 115.249 165.312L114.823 163.991C114.823 163.991 112.731 163.748 113.787 168.159C113.324 168.062 113.568 167.989 113.222 168.103C111.447 168.689 111.993 170.249 111.993 170.249C111.993 170.249 110.968 171.832 111.693 172.666C111.693 172.666 110.806 175.982 114.049 176.137C114.049 176.137 128.084 185.037 131.887 185.704C135.69 186.372 141.659 180.694 138.069 178.413Z" fill="white"/>
</g>
<mask id="mask10_0:3912" style="mask-type:alpha" maskUnits="userSpaceOnUse" x="68" y="115" width="74" height="65">
<path fill-rule="evenodd" clip-rule="evenodd" d="M76.502 115L68 180H133.498L142 115" fill="white"/>
</mask>
<g mask="url(#mask10_0:3912)">
<path fill-rule="evenodd" clip-rule="evenodd" d="M113.402 168.555C112.153 168.969 112.396 169.909 112.457 170.094C112.502 170.232 112.484 170.388 112.405 170.51C112.136 170.929 111.699 171.93 112.064 172.351C112.169 172.472 112.207 172.637 112.166 172.791C112.163 172.803 111.827 174.124 112.44 174.95C112.76 175.38 113.309 175.616 114.074 175.653C114.159 175.657 114.242 175.683 114.314 175.729C114.453 175.818 128.308 184.584 131.972 185.227C134.347 185.644 137.659 183.303 138.495 181.185C138.898 180.163 138.666 179.368 137.806 178.821C132.364 175.364 118.864 170.795 118.728 170.75C118.682 170.734 118.639 170.712 118.6 170.684C116.789 169.397 115.469 167.59 114.783 165.459L114.49 164.549C114.431 164.583 114.369 164.632 114.31 164.701C114.063 164.991 113.728 165.812 114.263 168.047C114.302 168.209 114.254 168.378 114.138 168.497C114.021 168.616 113.851 168.667 113.687 168.633C113.562 168.607 113.472 168.581 113.402 168.555ZM132.524 186.243C132.279 186.243 132.037 186.223 131.802 186.182C128.082 185.529 115.301 177.502 113.893 176.613C112.884 176.538 112.13 176.171 111.648 175.519C110.942 174.563 111.076 173.292 111.17 172.775C110.623 171.872 111.199 170.652 111.47 170.173C111.409 169.871 111.364 169.327 111.636 168.781C111.898 168.253 112.38 167.871 113.068 167.644C113.103 167.632 113.137 167.621 113.169 167.611C112.848 165.911 112.99 164.712 113.593 164.041C114.13 163.442 114.805 163.501 114.88 163.51C115.071 163.532 115.231 163.662 115.289 163.844L115.715 165.165C116.329 167.072 117.503 168.693 119.113 169.855C120.287 170.255 132.995 174.614 138.333 178.005C139.587 178.802 139.978 180.089 139.406 181.537C138.513 183.799 135.261 186.243 132.524 186.243Z" fill="#2A2B2E"/>
</g>
<mask id="mask11_0:3912" style="mask-type:alpha" maskUnits="userSpaceOnUse" x="68" y="115" width="74" height="65">
<path fill-rule="evenodd" clip-rule="evenodd" d="M76.502 115L68 180H133.498L142 115" fill="white"/>
</mask>
<g mask="url(#mask11_0:3912)">
<path fill-rule="evenodd" clip-rule="evenodd" d="M106.003 133.199C106.003 133.199 105.084 129.873 104.655 129.272C104.225 128.671 103.923 128.045 105.699 127.033C107.475 126.021 112.127 123.313 114.641 123.48C117.154 123.646 118.609 125.419 117.612 126.578C116.616 127.736 116.167 128.223 116.75 128.336C117.332 128.448 117.533 129.168 115.651 130.098C113.769 131.027 107.047 135.149 106.003 133.199Z" fill="#2A2B2E"/>
</g>
<mask id="mask12_0:3912" style="mask-type:alpha" maskUnits="userSpaceOnUse" x="68" y="115" width="74" height="65">
<path fill-rule="evenodd" clip-rule="evenodd" d="M76.502 115L68 180H133.498L142 115H76.502Z" fill="white"/>
</mask>
<g mask="url(#mask12_0:3912)">
<path fill-rule="evenodd" clip-rule="evenodd" d="M113.873 146.399L113.997 140.615C117.34 139.253 116.508 137.057 116.369 135.333C116.219 133.477 115.447 129.425 115.447 129.425C112.664 130.758 107.83 130.043 107.83 130.043C107.83 130.043 108.324 131.205 107.816 131.737C107.307 132.268 107.141 133.495 107.141 133.495C107.141 133.495 106.418 132.621 105.36 133.199C104.765 133.524 105.085 135.074 105.359 135.948C105.633 136.823 106.532 137.042 106.532 137.042C106.532 137.042 106.724 137.871 106.898 138.638L103.455 147.663L99.9258 148.839L110.53 150.916L116.805 147.022L113.873 146.399Z" fill="white"/>
</g>
<mask id="mask13_0:3912" style="mask-type:alpha" maskUnits="userSpaceOnUse" x="68" y="115" width="74" height="65">
<path fill-rule="evenodd" clip-rule="evenodd" d="M76.502 115L68 180H133.498L142 115H76.502Z" fill="white"/>
</mask>
<g mask="url(#mask13_0:3912)">
<path fill-rule="evenodd" clip-rule="evenodd" d="M101.826 148.717L110.435 150.403L115.523 147.245L113.77 146.873C113.541 146.824 113.379 146.621 113.384 146.388L113.508 140.605C113.512 140.412 113.632 140.241 113.812 140.167C116.357 139.13 116.167 137.664 115.966 136.112C115.933 135.859 115.901 135.611 115.881 135.371C115.769 133.982 115.294 131.294 115.076 130.105C112.855 130.908 109.868 130.745 108.496 130.61C108.573 131.078 108.56 131.663 108.17 132.07C107.845 132.411 107.663 133.282 107.625 133.56C107.599 133.751 107.461 133.909 107.274 133.962C107.087 134.014 106.886 133.952 106.762 133.802C106.685 133.713 106.249 133.267 105.597 133.624C105.457 133.756 105.453 134.613 105.826 135.805C106.012 136.398 106.627 136.566 106.653 136.573C106.829 136.619 106.969 136.759 107.009 136.934C107.009 136.934 107.201 137.764 107.375 138.532C107.395 138.624 107.389 138.721 107.355 138.809L103.912 147.835C103.86 147.971 103.75 148.076 103.611 148.123L101.826 148.717ZM110.53 151.4C110.499 151.4 110.467 151.397 110.435 151.391L99.8308 149.314C99.6133 149.272 99.4519 149.089 99.4376 148.87C99.4232 148.651 99.5598 148.449 99.7698 148.379L103.079 147.277L106.388 138.602C106.284 138.143 106.178 137.681 106.114 137.406C105.743 137.243 105.134 136.866 104.892 136.092C104.574 135.075 104.18 133.291 105.124 132.775C105.779 132.417 106.371 132.479 106.819 132.675C106.941 132.247 107.143 131.736 107.461 131.403C107.647 131.209 107.533 130.598 107.378 130.231C107.311 130.069 107.336 129.884 107.444 129.746C107.553 129.608 107.727 129.539 107.902 129.564C107.948 129.571 112.621 130.24 115.234 128.989C115.371 128.923 115.531 128.925 115.668 128.993C115.803 129.061 115.9 129.187 115.928 129.335C115.96 129.502 116.706 133.435 116.856 135.294C116.874 135.518 116.905 135.751 116.936 135.988C117.135 137.523 117.406 139.606 114.48 140.936L114.371 146.009L116.907 146.548C117.102 146.59 117.252 146.744 117.286 146.938C117.321 147.133 117.233 147.328 117.064 147.433L110.789 151.326C110.711 151.375 110.621 151.4 110.53 151.4Z" fill="#2A2B2E"/>
</g>
<mask id="mask14_0:3912" style="mask-type:alpha" maskUnits="userSpaceOnUse" x="68" y="115" width="74" height="65">
<path fill-rule="evenodd" clip-rule="evenodd" d="M76.502 115L68 180H133.498L142 115" fill="white"/>
</mask>
<g mask="url(#mask14_0:3912)">
<path fill-rule="evenodd" clip-rule="evenodd" d="M111.348 141.594C110.518 141.594 109.783 141.425 109.147 141.088C107.739 140.341 107.375 139.038 107.36 138.983C107.291 138.724 107.446 138.459 107.707 138.39C107.966 138.322 108.234 138.474 108.305 138.731C108.316 138.772 108.591 139.702 109.626 140.242C110.656 140.78 112.074 140.751 113.841 140.157C114.096 140.071 114.374 140.206 114.461 140.46C114.548 140.713 114.411 140.988 114.155 141.074C113.127 141.42 112.189 141.594 111.348 141.594Z" fill="#2A2B2E"/>
</g>
<path fill-rule="evenodd" clip-rule="evenodd" d="M133.661 181.107H67L69.9922 158.245C70.0265 157.979 70.2733 157.792 70.5414 157.825C70.8102 157.86 70.9995 158.104 70.9645 158.37L68.1165 180.136H132.799L141.197 115.971H129.153C128.882 115.971 128.662 115.754 128.662 115.486C128.662 115.217 128.882 115 129.153 115H142.313L133.661 181.107Z" fill="#2A2B2E"/>
<path fill-rule="evenodd" clip-rule="evenodd" d="M114.809 115.971H95.8185C95.5478 115.971 95.3281 115.754 95.3281 115.486C95.3281 115.217 95.5478 115 95.8185 115H114.809C115.08 115 115.3 115.217 115.3 115.486C115.3 115.754 115.08 115.971 114.809 115.971Z" fill="#2A2B2E"/>
<path fill-rule="evenodd" clip-rule="evenodd" d="M216.476 196H150.804L159.328 130.863H225L216.476 196Z" fill="#AA4465"/>
<mask id="mask15_0:3912" style="mask-type:alpha" maskUnits="userSpaceOnUse" x="151" y="130" width="74" height="65">
<path fill-rule="evenodd" clip-rule="evenodd" d="M159.502 130L151 195H216.498L225 130" fill="white"/>
</mask>
<g mask="url(#mask15_0:3912)">
<path fill-rule="evenodd" clip-rule="evenodd" d="M177.335 143.262C180.577 140.04 184.997 139.249 188.181 140.034C192.211 141.027 193.946 144.505 195.169 146.959C197.331 151.295 195.914 152.932 197.704 155.435C200.874 159.868 206.839 156.857 210.925 160.042C217.156 164.9 216.355 182.052 206.584 188.869C200.068 193.415 192.05 191.142 189.868 190.524C183.247 188.648 175.331 183.09 174.899 175.246C174.542 168.759 179.428 163.205 176.339 157.853C175.552 156.49 174.823 156.135 174.309 154.417C173.474 151.626 173.699 146.876 177.335 143.262Z" fill="#2A2B2E"/>
</g>
<mask id="mask16_0:3912" style="mask-type:alpha" maskUnits="userSpaceOnUse" x="151" y="130" width="74" height="65">
<path fill-rule="evenodd" clip-rule="evenodd" d="M159.502 130L151 195H216.498L225 130" fill="white"/>
</mask>
<g mask="url(#mask16_0:3912)">
<path fill-rule="evenodd" clip-rule="evenodd" d="M186.305 144.171C184.886 142.98 186.227 139.302 187.412 137.303C187.855 136.554 189.841 133.203 192.006 133.265C194.23 133.329 196.001 136.976 194.909 139.941C193.543 143.647 187.969 145.566 186.305 144.171Z" fill="#2A2B2E"/>
</g>
<mask id="mask17_0:3912" style="mask-type:alpha" maskUnits="userSpaceOnUse" x="151" y="130" width="74" height="65">
<path fill-rule="evenodd" clip-rule="evenodd" d="M159.502 130L151 195H216.498L225 130" fill="white"/>
</mask>
<g mask="url(#mask17_0:3912)">
<path fill-rule="evenodd" clip-rule="evenodd" d="M194.893 169.2L194.887 169.218C191.956 168.173 187.615 166.919 183.49 166.844C175.603 166.203 168.909 167.81 168.909 167.81C166.854 168.474 164.947 169.647 163.382 171.207L160.646 173.936C158.009 177.762 154.799 180.391 152.662 179.909C150.917 179.517 150.268 176.966 148.969 171.864C148.299 169.233 148.526 170.458 148.303 168.825C146.026 169.312 143.47 170.072 141.51 171.079C140.616 173.763 140.157 178.501 141.591 184.423C142.186 186.88 142.887 189.771 145.087 191.311C148.4 193.628 155.08 193.109 161.894 189.392C161.113 191.718 160.328 194.035 159.54 196.333C155.582 206.797 156.58 210.189 158.169 211.379C160.783 213.337 164.635 209.078 172.55 209.861C176.99 210.301 177.98 211.86 184.841 212.621C189.233 213.109 191.455 213.327 192.728 212.092C194.801 210.08 195.288 191.165 195.376 186.512C202.784 193.753 197.507 201.07 195.608 203.245C195.257 203.647 195.181 204.193 195.424 204.597L198.568 209.823C198.873 210.332 199.574 210.447 200.137 210.078C202.045 208.829 205.985 206.185 209.631 200.288C211.639 197.042 212.843 193.371 212.966 192.539C215.485 175.537 194.893 169.2 194.893 169.2Z" fill="white"/>
</g>
<mask id="mask18_0:3912" style="mask-type:alpha" maskUnits="userSpaceOnUse" x="151" y="130" width="74" height="65">
<path fill-rule="evenodd" clip-rule="evenodd" d="M159.502 130L151 195H216.498L225 130" fill="white"/>
</mask>
<g mask="url(#mask18_0:3912)">
<path fill-rule="evenodd" clip-rule="evenodd" d="M195.841 187.705C195.75 191.768 195.539 197.969 195.059 203.171C195.111 203.087 195.171 203.006 195.238 202.928C196.921 201.001 201.746 194.39 195.841 187.705ZM170.612 209.28C171.246 209.28 171.908 209.311 172.599 209.379C174.661 209.584 176.028 210.033 177.475 210.508C179.216 211.08 181.19 211.728 184.896 212.139C189.304 212.629 191.299 212.801 192.386 211.746C193.637 210.531 194.619 200.623 194.887 186.503C194.891 186.309 195.011 186.137 195.192 186.063C195.373 185.99 195.581 186.031 195.72 186.167C203.453 193.725 197.872 201.392 195.978 203.562C195.766 203.804 195.712 204.128 195.844 204.348L198.988 209.575C199.074 209.718 199.205 209.773 199.3 209.795C199.482 209.837 199.688 209.792 199.868 209.674C201.57 208.559 205.559 205.947 209.215 200.035C211.17 196.873 212.36 193.295 212.483 192.469C214.813 176.736 196.544 170.26 194.87 169.702C194.82 169.701 194.77 169.691 194.721 169.674C191.834 168.645 187.54 167.402 183.481 167.328C175.928 166.717 169.428 168.187 169.042 168.277C167.07 168.918 165.234 170.049 163.73 171.548L161.025 174.246C158.693 177.618 155.251 180.989 152.554 180.382C150.516 179.923 149.841 177.269 148.495 171.982C148.277 171.125 148.155 170.68 148.08 170.411C147.962 169.979 147.957 169.954 147.901 169.515C147.897 169.483 147.893 169.45 147.888 169.413C145.567 169.943 143.471 170.646 141.915 171.419C141.454 172.904 140.406 177.453 142.067 184.31C142.655 186.735 143.32 189.481 145.37 190.915C148.65 193.211 155.349 192.41 161.659 188.967C161.835 188.871 162.053 188.891 162.208 189.019C162.362 189.147 162.422 189.356 162.358 189.545C161.486 192.141 160.716 194.413 160.003 196.489C156.983 204.475 156.453 209.486 158.464 210.993C159.513 211.779 160.876 211.346 162.938 210.689C164.857 210.079 167.369 209.28 170.612 209.28ZM189.581 213.494C188.315 213.494 186.747 213.32 184.787 213.103C180.979 212.68 178.954 212.015 177.167 211.428C175.712 210.95 174.456 210.537 172.501 210.344C168.478 209.945 165.572 210.87 163.237 211.612C161.053 212.307 159.329 212.855 157.875 211.766C155.413 209.922 155.809 204.819 159.083 196.163C159.683 194.411 160.33 192.508 161.046 190.382C154.662 193.56 148.242 194.111 144.805 191.706C142.455 190.062 141.713 187 141.117 184.538C139.317 177.11 140.608 172.242 141.046 170.927C141.086 170.807 141.172 170.707 141.286 170.649C143.659 169.429 146.637 168.686 148.201 168.351C148.334 168.323 148.473 168.351 148.585 168.428C148.697 168.506 148.771 168.626 148.788 168.76C148.828 169.047 148.853 169.246 148.872 169.394C148.92 169.778 148.92 169.778 149.024 170.156C149.099 170.428 149.223 170.879 149.444 171.745C150.652 176.494 151.318 179.11 152.771 179.437C154.582 179.846 157.582 177.523 160.242 173.663C160.259 173.638 160.278 173.615 160.299 173.594L163.036 170.865C164.653 169.253 166.632 168.037 168.758 167.349L168.768 167.381C169.954 167.025 176.396 165.781 183.53 166.361C187.633 166.435 191.974 167.673 194.928 168.718C194.965 168.72 195.003 168.726 195.039 168.737C195.253 168.803 200.327 170.39 205.174 174.111C211.646 179.078 214.508 185.474 213.451 192.61C213.316 193.519 212.106 197.214 210.049 200.541C206.28 206.637 202.164 209.332 200.407 210.483C200.005 210.746 199.522 210.839 199.083 210.74C198.685 210.65 198.353 210.412 198.147 210.071L195.004 204.844C194.968 204.785 194.937 204.723 194.911 204.66C194.494 208.541 193.904 211.629 193.071 212.438C192.259 213.226 191.154 213.494 189.581 213.494Z" fill="#2A2B2E"/>
</g>
<mask id="mask19_0:3912" style="mask-type:alpha" maskUnits="userSpaceOnUse" x="151" y="130" width="74" height="65">
<path fill-rule="evenodd" clip-rule="evenodd" d="M159.502 130L151 195H216.498L225 130" fill="white"/>
</mask>
<g mask="url(#mask19_0:3912)">
<path fill-rule="evenodd" clip-rule="evenodd" d="M195.841 187.705C195.764 191.004 195.557 197.632 195.057 203.174C195.11 203.089 195.17 203.006 195.239 202.928C196.921 201.001 201.747 194.39 195.841 187.705ZM189.591 213.493C188.384 213.493 186.86 213.333 184.787 213.103C180.979 212.68 178.954 212.015 177.167 211.428C175.712 210.95 174.456 210.537 172.501 210.344C168.481 209.946 165.572 210.87 163.237 211.612C161.053 212.307 159.329 212.855 157.875 211.766C155.414 209.922 155.809 204.819 159.082 196.163C159.684 194.41 160.33 192.507 161.046 190.382C154.662 193.56 148.243 194.111 144.805 191.706C142.455 190.062 141.713 186.999 141.117 184.538C139.317 177.11 140.608 172.242 141.046 170.927C141.086 170.807 141.172 170.707 141.286 170.649C143.659 169.429 146.637 168.686 148.201 168.351C148.334 168.322 148.473 168.351 148.585 168.428C148.697 168.506 148.77 168.626 148.788 168.76C148.828 169.047 148.853 169.246 148.872 169.394C148.92 169.778 148.92 169.778 149.024 170.156C149.099 170.428 149.223 170.879 149.444 171.745C150.652 176.494 151.318 179.11 152.771 179.437C154.579 179.845 157.581 177.524 160.242 173.663C160.259 173.638 160.278 173.615 160.299 173.594L163.036 170.865C164.653 169.253 166.632 168.037 168.758 167.349C168.77 167.345 168.782 167.342 168.794 167.339C168.863 167.323 175.655 165.722 183.53 166.361C187.634 166.435 191.974 167.673 194.928 168.718C194.965 168.72 195.003 168.726 195.039 168.738C195.253 168.803 200.327 170.39 205.174 174.111C211.646 179.078 214.508 185.475 213.451 192.61C213.316 193.519 212.106 197.214 210.049 200.541C206.28 206.637 202.164 209.332 200.407 210.483C200.006 210.746 199.524 210.84 199.083 210.74C198.685 210.65 198.353 210.413 198.147 210.071L195.004 204.845C194.969 204.786 194.938 204.726 194.912 204.664C194.821 205.533 194.722 206.362 194.614 207.132C194.577 207.397 194.33 207.581 194.062 207.545C193.794 207.508 193.608 207.264 193.645 206.998C194.559 200.49 194.827 189.666 194.887 186.503C194.891 186.309 195.011 186.137 195.192 186.063C195.373 185.99 195.581 186.031 195.72 186.167C203.452 193.724 197.873 201.392 195.978 203.562C195.766 203.804 195.712 204.128 195.845 204.348L198.988 209.575C199.074 209.718 199.205 209.773 199.3 209.795C199.48 209.835 199.688 209.792 199.868 209.674C201.571 208.559 205.559 205.947 209.215 200.035C211.17 196.873 212.36 193.295 212.483 192.469C213.498 185.612 210.845 179.698 204.597 174.893C200.284 171.577 195.65 169.96 194.865 169.7C194.817 169.699 194.768 169.691 194.721 169.674C191.834 168.645 187.54 167.402 183.481 167.328C175.927 166.716 169.429 168.187 169.042 168.277C167.07 168.918 165.234 170.049 163.73 171.548L161.025 174.246C158.693 177.618 155.255 180.989 152.554 180.382C150.516 179.923 149.841 177.269 148.495 171.982C148.277 171.126 148.155 170.68 148.081 170.411C147.962 169.979 147.957 169.954 147.901 169.515C147.897 169.483 147.893 169.45 147.888 169.413C145.567 169.943 143.471 170.646 141.915 171.418C141.454 172.904 140.406 177.453 142.067 184.31C142.655 186.735 143.32 189.481 145.37 190.915C148.651 193.211 155.349 192.41 161.659 188.967C161.835 188.871 162.053 188.891 162.207 189.019C162.362 189.147 162.422 189.356 162.358 189.545C161.487 192.14 160.716 194.411 160.003 196.489C156.983 204.475 156.453 209.486 158.464 210.993C159.513 211.779 160.876 211.345 162.938 210.69C165.232 209.96 168.372 208.961 172.599 209.379C174.661 209.584 176.028 210.033 177.475 210.508C179.216 211.08 181.19 211.728 184.896 212.139C187.662 212.447 189.422 212.627 190.685 212.461C190.952 212.427 191.199 212.613 191.234 212.879C191.269 213.144 191.081 213.387 190.813 213.423C190.441 213.471 190.038 213.493 189.591 213.493Z" fill="#2A2B2E"/>
</g>
<mask id="mask20_0:3912" style="mask-type:alpha" maskUnits="userSpaceOnUse" x="151" y="130" width="74" height="65">
<path fill-rule="evenodd" clip-rule="evenodd" d="M159.502 130L151 195H216.498L225 130H159.502Z" fill="white"/>
</mask>
<g mask="url(#mask20_0:3912)">
<path fill-rule="evenodd" clip-rule="evenodd" d="M181.513 157.81L179.247 166.431L174.876 167.074C174.876 167.074 175.841 172.248 181.466 172.63C187.092 173.012 190.291 169.074 190.881 166.996L186.92 166.432L187.329 158.065L181.513 157.81Z" fill="white"/>
</g>
<mask id="mask21_0:3912" style="mask-type:alpha" maskUnits="userSpaceOnUse" x="151" y="130" width="74" height="65">
<path fill-rule="evenodd" clip-rule="evenodd" d="M159.502 130L151 195H216.498L225 130H159.502Z" fill="white"/>
</mask>
<g mask="url(#mask21_0:3912)">
<path fill-rule="evenodd" clip-rule="evenodd" d="M175.485 167.474C175.872 168.711 177.268 171.859 181.5 172.146C186.463 172.484 189.351 169.323 190.215 167.391L186.851 166.911C186.601 166.876 186.42 166.658 186.432 166.408L186.816 158.527L181.886 158.312L179.72 166.553C179.671 166.741 179.513 166.881 179.319 166.91L175.485 167.474ZM182.223 173.141C181.965 173.141 181.702 173.132 181.433 173.114C175.498 172.71 174.405 167.217 174.395 167.162C174.371 167.033 174.401 166.899 174.478 166.792C174.555 166.685 174.673 166.614 174.804 166.594L178.856 165.998L181.04 157.688C181.098 157.467 181.307 157.313 181.535 157.326L187.35 157.58C187.48 157.586 187.602 157.643 187.69 157.738C187.778 157.833 187.824 157.959 187.817 158.088L187.431 166.015L190.951 166.516C191.09 166.536 191.214 166.615 191.291 166.731C191.368 166.848 191.39 166.993 191.352 167.127C190.796 169.083 187.755 173.141 182.223 173.141Z" fill="#2A2B2E"/>
</g>
<mask id="mask22_0:3912" style="mask-type:alpha" maskUnits="userSpaceOnUse" x="151" y="130" width="74" height="65">
<path fill-rule="evenodd" clip-rule="evenodd" d="M159.502 130L151 195H216.498L225 130" fill="white"/>
</mask>
<g mask="url(#mask22_0:3912)">
<path fill-rule="evenodd" clip-rule="evenodd" d="M191.164 151.289C190.943 151.232 190.69 151.312 190.439 151.49C190.442 151.441 190.444 151.391 190.445 151.343L191.061 147.512C185.264 149.454 185.91 148.672 179.998 148.898C179.998 148.898 179.641 151.318 179.608 151.487C179.404 151.311 179.172 151.233 178.938 151.289C178.343 151.432 177.962 152.383 178.087 153.413C178.209 154.408 179.08 155.517 179.676 155.459C180.237 158.085 181.764 160.348 183.866 160.348C185.968 160.348 188.087 158.085 189.335 155.459C189.916 155.517 191.077 154.408 191.459 153.413C191.854 152.383 191.722 151.432 191.164 151.289Z" fill="white"/>
</g>
<mask id="mask23_0:3912" style="mask-type:alpha" maskUnits="userSpaceOnUse" x="151" y="130" width="74" height="65">
<path fill-rule="evenodd" clip-rule="evenodd" d="M159.502 130L151 195H216.498L225 130" fill="white"/>
</mask>
<g mask="url(#mask23_0:3912)">
<path fill-rule="evenodd" clip-rule="evenodd" d="M179.679 154.975C179.907 154.975 180.106 155.133 180.155 155.359C180.634 157.601 181.967 159.863 183.866 159.863C185.824 159.863 187.802 157.548 188.892 155.253C188.981 155.067 189.177 154.958 189.383 154.977C189.679 154.976 190.659 154.136 191.002 153.241C191.247 152.601 191.232 152.065 191.114 151.839C191.1 151.812 191.072 151.766 191.041 151.758C191.003 151.748 190.893 151.764 190.724 151.884C190.571 151.992 190.37 152.005 190.205 151.916C190.04 151.826 189.941 151.651 189.951 151.466C189.953 151.42 189.955 151.374 189.957 151.331C189.957 151.309 189.959 151.288 189.962 151.267L190.451 148.224C186.853 149.392 185.935 149.379 183.71 149.348C182.876 149.336 181.855 149.322 180.422 149.368C180.314 150.1 180.115 151.443 180.087 151.582C180.053 151.751 179.93 151.89 179.765 151.946C179.599 152.001 179.416 151.966 179.285 151.852C179.197 151.776 179.121 151.744 179.053 151.76C178.793 151.823 178.468 152.491 178.573 153.355C178.676 154.203 179.39 154.975 179.631 154.977C179.647 154.975 179.663 154.975 179.679 154.975ZM183.866 160.832C181.787 160.832 180.006 158.9 179.271 155.881C178.469 155.599 177.721 154.453 177.601 153.471C177.443 152.165 177.968 151.024 178.823 150.818C178.955 150.786 179.089 150.778 179.221 150.794C179.305 150.238 179.427 149.414 179.513 148.828C179.547 148.597 179.743 148.423 179.979 148.414C181.653 148.35 182.802 148.366 183.724 148.379C186.039 148.411 186.817 148.422 190.904 147.053C191.067 146.999 191.246 147.033 191.376 147.142C191.507 147.252 191.571 147.421 191.544 147.589L191.03 150.786C191.127 150.788 191.213 150.801 191.287 150.82C191.586 150.897 191.827 151.096 191.983 151.394C192.262 151.929 192.237 152.748 191.916 153.585C191.547 154.547 190.505 155.675 189.661 155.904C188.497 158.231 186.332 160.832 183.866 160.832Z" fill="#2A2B2E"/>
</g>
<mask id="mask24_0:3912" style="mask-type:alpha" maskUnits="userSpaceOnUse" x="151" y="130" width="74" height="65">
<path fill-rule="evenodd" clip-rule="evenodd" d="M159.502 130L151 195H216.498L225 130H159.502Z" fill="white"/>
</mask>
<g mask="url(#mask24_0:3912)">
<path fill-rule="evenodd" clip-rule="evenodd" d="M181.695 149.939L183.497 146.137L183.113 149.697L181.695 149.939Z" fill="white"/>
</g>
<path fill-rule="evenodd" clip-rule="evenodd" d="M189.145 130.438H164.066C163.794 130.438 163.573 130.219 163.573 129.949C163.573 129.679 163.794 129.46 164.066 129.46H189.145C189.417 129.46 189.638 129.679 189.638 129.949C189.638 130.219 189.417 130.438 189.145 130.438Z" fill="#2A2B2E"/>
<path fill-rule="evenodd" clip-rule="evenodd" d="M155.533 157.923C155.512 157.923 155.491 157.921 155.469 157.919C155.199 157.884 155.009 157.639 155.044 157.371L157.262 140.386C157.297 140.118 157.544 139.93 157.813 139.964C158.084 139.999 158.274 140.244 158.238 140.512L156.021 157.497C155.989 157.743 155.777 157.923 155.533 157.923Z" fill="#2A2B2E"/>
<path fill-rule="evenodd" clip-rule="evenodd" d="M216.943 196H150L154.353 162.667C154.387 162.4 154.636 162.209 154.904 162.246C155.174 162.28 155.364 162.525 155.329 162.793L151.121 195.022H216.077L222.69 144.381C222.725 144.113 222.972 143.923 223.242 143.959C223.512 143.994 223.702 144.239 223.667 144.507L216.943 196Z" fill="#2A2B2E"/>
<path fill-rule="evenodd" clip-rule="evenodd" d="M221.062 105.451H152.206L161.144 37H230L221.062 105.451Z" fill="#C9CEBD"/>
<mask id="mask25_0:3912" style="mask-type:alpha" maskUnits="userSpaceOnUse" x="152" y="37" width="78" height="69">
<path fill-rule="evenodd" clip-rule="evenodd" d="M160.962 37L152 106H221.038L230 37" fill="white"/>
</mask>
<g mask="url(#mask25_0:3912)">
<path fill-rule="evenodd" clip-rule="evenodd" d="M222.818 55.9834C224.268 54.05 223.755 48.8002 223.755 48.8002C223.755 48.8002 223.284 45.8663 220.815 45.8232C219.206 45.9615 218.892 48.0855 218.895 48.2681C218.909 49.1001 218.95 51.3151 219.013 51.8974C219.091 52.6191 219.142 54.6777 218.041 53.0954C216.94 51.5128 215.074 51.4031 215.724 51.9329C216.375 52.4624 217.529 54.747 217.959 55.3622C218.115 55.5853 218.602 55.8234 219.16 56.0366C219.143 57.6189 218.91 60.0739 217.734 62.8564C216.333 66.1714 213.671 71.5131 211.89 73.1086C213.3 75.4302 214.763 80.3577 220.144 80.4159C223.442 73.7639 225.809 62.118 222.818 55.9834Z" fill="white"/>
</g>
<mask id="mask26_0:3912" style="mask-type:alpha" maskUnits="userSpaceOnUse" x="152" y="37" width="78" height="69">
<path fill-rule="evenodd" clip-rule="evenodd" d="M160.962 37L152 106H221.038L230 37" fill="white"/>
</mask>
<g mask="url(#mask26_0:3912)">
<path fill-rule="evenodd" clip-rule="evenodd" d="M212.509 73.193C212.689 73.5133 212.87 73.8648 213.059 74.2313C214.321 76.6838 215.885 79.7215 219.839 79.914C222.817 73.7137 225.313 62.2275 222.373 56.1989C222.292 56.0327 222.311 55.8356 222.422 55.6878C223.517 54.2294 223.4 50.2558 223.263 48.8479C223.25 48.7763 222.829 46.3722 220.833 46.3163C219.606 46.4454 219.389 48.2563 219.388 48.2747C219.412 49.6914 219.454 51.3844 219.504 51.8443C219.647 53.1661 219.456 53.9347 218.935 54.1285C218.318 54.3578 217.822 53.6447 217.635 53.3763C217.402 53.0416 217.136 52.7893 216.878 52.6027C217.159 53.0334 217.462 53.553 217.794 54.1295C218.023 54.5266 218.239 54.9017 218.364 55.0801C218.368 55.086 218.512 55.2614 219.336 55.5761C219.529 55.6497 219.656 55.8353 219.653 56.0416C219.628 58.45 219.136 60.8071 218.189 63.0477C217.051 65.7402 214.471 71.1446 212.509 73.193ZM220.143 80.9086H220.138C215.359 80.8571 213.446 77.1407 212.18 74.6814C211.93 74.1959 211.694 73.7373 211.467 73.3642C211.344 73.1615 211.383 72.9 211.559 72.7417C213.284 71.1975 215.925 65.8693 217.279 62.6647C218.132 60.6471 218.595 58.5298 218.659 56.3664C217.911 56.0491 217.674 55.8162 217.554 55.6441C217.404 55.4303 217.188 55.0551 216.938 54.6206C216.479 53.823 215.785 52.6178 215.412 52.3143C215.083 52.0466 215.068 51.7812 215.114 51.6055C215.173 51.3782 215.363 51.2152 215.622 51.1693C216.233 51.0618 217.59 51.5838 218.446 52.8143C218.48 52.8629 218.511 52.9059 218.54 52.9434C218.563 52.6822 218.562 52.3163 218.522 51.9504C218.457 51.347 218.415 49.1797 218.401 48.276C218.395 47.917 218.808 45.501 220.773 45.3322C220.79 45.3309 220.806 45.3306 220.824 45.3306C223.104 45.3703 224.057 47.5665 224.242 48.7221C224.267 48.9645 224.723 53.8188 223.383 56.0261C226.16 62.1549 224.124 73.4982 220.586 80.6343C220.503 80.8025 220.331 80.9086 220.143 80.9086Z" fill="#2A2B2E"/>
</g>
<mask id="mask27_0:3912" style="mask-type:alpha" maskUnits="userSpaceOnUse" x="152" y="37" width="78" height="69">
<path fill-rule="evenodd" clip-rule="evenodd" d="M160.962 37L152 106H221.038L230 37" fill="white"/>
</mask>
<g mask="url(#mask27_0:3912)">
<path fill-rule="evenodd" clip-rule="evenodd" d="M214.279 67.333C212.886 71.1532 210.984 72.8725 209.667 73.7291C203.839 77.5201 196.674 72.7381 183.519 72.338C182.119 72.2956 179.059 72.2664 175.125 72.8876C173.238 73.1855 171.133 73.6687 168.665 74.4659C165.038 75.6379 161.729 77.8729 159.256 80.8909C155.834 85.0665 151.673 92.0309 150.899 101.784C150.656 104.845 150.912 108.99 153.093 110.652C156.929 106.527 165.397 114.247 165.825 114.748C168.638 118.044 174.739 113.632 187.68 113.435C193.823 113.341 197.749 114.255 199.173 112.136C200.199 110.609 199.055 108.802 198.392 106.146C197.573 102.865 197.369 97.8 200.508 90.2896C201.185 90.4279 209.606 91.9905 216.59 85.7458C221.761 81.1225 222.69 75.3084 222.864 74.0198C219.64 74.3867 214.666 68.0284 214.279 67.333Z" fill="#AA4465"/>
</g>
<mask id="mask28_0:3912" style="mask-type:alpha" maskUnits="userSpaceOnUse" x="152" y="37" width="78" height="69">
<path fill-rule="evenodd" clip-rule="evenodd" d="M160.962 37L152 106H221.038L230 37" fill="white"/>
</mask>
<g mask="url(#mask28_0:3912)">
<path fill-rule="evenodd" clip-rule="evenodd" d="M162.908 111.726H162.906C162.633 111.725 162.413 111.503 162.414 111.231C162.438 105.996 163.533 99.7703 165.761 92.1969C165.838 91.9354 166.112 91.7876 166.374 91.8628C166.636 91.9394 166.785 92.2133 166.709 92.4745C164.506 99.9578 163.425 106.094 163.402 111.235C163.4 111.507 163.179 111.726 162.908 111.726Z" fill="#2A2B2E"/>
</g>
<mask id="mask29_0:3912" style="mask-type:alpha" maskUnits="userSpaceOnUse" x="152" y="37" width="78" height="69">
<path fill-rule="evenodd" clip-rule="evenodd" d="M160.962 37L152 106H221.038L230 37" fill="white"/>
</mask>
<g mask="url(#mask29_0:3912)">
<path fill-rule="evenodd" clip-rule="evenodd" d="M186.896 64.6796C187.843 65.1898 188.596 65.2633 189.151 65.2318C191.154 65.1175 192.637 63.5158 192.934 63.1949C194.467 61.5394 195.455 58.8202 194.545 57.2232C193.89 56.0735 192.821 56.5071 192.062 55.2214C191.2 53.7617 192.433 52.571 191.629 51.2935C190.703 49.8226 188.227 49.9346 187.781 49.955C186.254 50.0243 185.975 50.7771 184.544 50.7384C183.084 50.6986 182.986 49.9625 181.641 49.955C180.574 49.9487 178.957 50.4037 178.098 51.6387C177.021 53.1892 177.652 55.2313 178.551 56.3094C179.632 57.6036 180.601 56.9092 182.212 57.9632C185.006 59.7899 183.859 63.0435 186.896 64.6796Z" fill="#2A2B2E"/>
</g>
<mask id="mask30_0:3912" style="mask-type:alpha" maskUnits="userSpaceOnUse" x="152" y="37" width="78" height="69">
<path fill-rule="evenodd" clip-rule="evenodd" d="M160.962 37L152 106H221.038L230 37H160.962Z" fill="white"/>
</mask>
<g mask="url(#mask30_0:3912)">
<path fill-rule="evenodd" clip-rule="evenodd" d="M180.358 71.572L181.841 66.4714C181.663 66.451 180.186 66.1879 180.024 66.1019C178.716 65.4055 179.56 61.896 179.56 61.896L178.904 60.9674L181.897 55.7788C184.094 57.8308 185.235 55.8159 187.542 56.8257C189.849 57.8354 188.174 60.5486 188.174 60.5486C188.174 60.5486 190.281 59.6713 189.605 61.5975C189.094 63.0523 188.022 63.1433 187.331 63.0845L187.495 71.8309C187.495 71.8309 191.524 73.019 192.305 73.2331C191.259 73.1832 183.569 76.3474 175.761 72.8895L180.358 71.572Z" fill="white"/>
</g>
<mask id="mask31_0:3912" style="mask-type:alpha" maskUnits="userSpaceOnUse" x="152" y="37" width="78" height="69">
<path fill-rule="evenodd" clip-rule="evenodd" d="M160.962 37L152 106H221.038L230 37H160.962Z" fill="white"/>
</mask>
<g mask="url(#mask31_0:3912)">
<path fill-rule="evenodd" clip-rule="evenodd" d="M177.289 72.9642C182.543 74.7984 187.613 73.7959 190.277 73.1616C188.954 72.7753 187.456 72.3332 187.354 72.3036C187.148 72.2425 187.005 72.055 187.001 71.8402L186.837 63.0938C186.834 62.9542 186.891 62.8202 186.993 62.7249C187.095 62.6297 187.23 62.5827 187.373 62.5939C187.987 62.6464 188.743 62.562 189.138 61.435C189.293 60.9935 189.232 60.8572 189.232 60.8559C189.138 60.7987 188.686 60.869 188.364 61.0034C188.166 61.0858 187.937 61.0316 187.798 60.8687C187.659 60.7061 187.641 60.4722 187.753 60.2902C187.96 59.9532 188.443 58.9073 188.199 58.1358C188.08 57.758 187.8 57.4768 187.343 57.2768C186.482 56.9 185.815 57.0091 185.109 57.1247C184.227 57.2689 183.239 57.4302 182.031 56.5341L179.488 60.941L179.963 61.6124C180.045 61.728 180.073 61.8735 180.04 62.0111C179.739 63.2659 179.598 65.2782 180.238 65.6572C180.479 65.7354 181.724 65.9621 181.896 65.9818C182.041 65.9985 182.171 66.0777 182.251 66.1986C182.332 66.3191 182.355 66.4692 182.314 66.6088L180.831 71.7094C180.784 71.872 180.657 71.9988 180.494 72.0458L177.289 72.9642ZM183.725 74.9998C181.221 74.9998 178.398 74.5971 175.56 73.3403C175.371 73.2562 175.253 73.0628 175.268 72.8558C175.282 72.6492 175.425 72.4735 175.624 72.4163L179.959 71.1737L181.212 66.865C180.69 66.7727 179.974 66.6338 179.792 66.5369C178.359 65.7745 178.821 62.9703 179.03 62.0013L178.499 61.252C178.389 61.095 178.379 60.8884 178.475 60.7219L181.469 55.5332C181.544 55.4028 181.675 55.3138 181.824 55.2918C181.974 55.2688 182.124 55.3168 182.234 55.4192C183.307 56.4211 183.996 56.3081 184.949 56.1521C185.728 56.0246 186.611 55.8804 187.74 56.3745C188.465 56.6918 188.937 57.1865 189.143 57.8444C189.362 58.5437 189.221 59.2894 189.027 59.8583C189.339 59.8511 189.672 59.9181 189.916 60.1473C190.275 60.4857 190.327 61.0283 190.07 61.7605C189.787 62.5669 189.171 63.487 187.834 63.5813L187.981 71.4608C188.975 71.7534 191.803 72.5848 192.435 72.7579C192.678 72.8246 192.832 73.0624 192.792 73.3104C192.753 73.5588 192.528 73.7348 192.281 73.7253C192.153 73.7191 191.626 73.8475 191.124 73.9707C189.596 74.3445 186.92 74.9995 183.725 74.9998Z" fill="#2A2B2E"/>
</g>
<mask id="mask32_0:3912" style="mask-type:alpha" maskUnits="userSpaceOnUse" x="152" y="37" width="78" height="69">
<path fill-rule="evenodd" clip-rule="evenodd" d="M160.962 37L152 106H221.038L230 37" fill="white"/>
</mask>
<g mask="url(#mask32_0:3912)">
<path fill-rule="evenodd" clip-rule="evenodd" d="M182.404 67.0039C182.201 67.0039 181.991 66.9901 181.772 66.9596C181.502 66.9221 181.314 66.6732 181.352 66.4038C181.389 66.1341 181.641 65.9466 181.909 65.9837C183.915 66.2629 185.05 64.7457 185.098 64.6809C185.257 64.4615 185.566 64.4116 185.786 64.5706C186.007 64.7296 186.058 65.0354 185.899 65.2561C185.844 65.3336 184.617 67.0039 182.404 67.0039Z" fill="#2A2B2E"/>
</g>
<path fill-rule="evenodd" clip-rule="evenodd" d="M221.403 105.978H152.172L157.302 66.3385C157.336 66.0707 157.581 65.8827 157.848 65.9165C158.116 65.9514 158.305 66.1965 158.27 66.4643L153.283 105H220.545L222.812 87.4873C222.846 87.2198 223.09 87.0308 223.358 87.0653C223.626 87.1002 223.814 87.3453 223.78 87.6131L221.403 105.978Z" fill="#2A2B2E"/>
<path fill-rule="evenodd" clip-rule="evenodd" d="M227.548 55.1901C227.527 55.1901 227.506 55.1888 227.485 55.1862C227.217 55.1513 227.029 54.9062 227.063 54.6384L229.278 37.5264H162.015L161.604 40.7062C161.57 40.9738 161.324 41.1625 161.057 41.1282C160.79 41.0934 160.601 40.8483 160.636 40.5805L161.157 36.5488H230.389L228.031 54.7642C228 55.0105 227.789 55.1901 227.548 55.1901Z" fill="#2A2B2E"/>
<path fill-rule="evenodd" clip-rule="evenodd" d="M244.12 112.681C245.339 112.681 246.187 113.74 246.014 115.047L243.859 131.328C243.686 132.635 242.558 133.694 241.339 133.694H199.463C198.243 133.694 197.395 132.635 197.568 131.328L199.723 115.047C199.896 113.74 201.025 112.681 202.244 112.681H244.12Z" fill="white"/>
<path fill-rule="evenodd" clip-rule="evenodd" d="M241.339 134.183H199.463C198.762 134.183 198.129 133.9 197.679 133.386C197.196 132.834 196.979 132.06 197.085 131.264L199.24 114.983C199.443 113.444 200.791 112.192 202.244 112.192H210.505C210.774 112.192 210.993 112.411 210.993 112.681C210.993 112.951 210.774 113.17 210.505 113.17H202.244C201.263 113.17 200.349 114.041 200.207 115.111L198.053 131.392C197.984 131.91 198.116 132.402 198.414 132.742C198.675 133.041 199.047 133.205 199.463 133.205H241.339C242.32 133.205 243.234 132.335 243.376 131.264L245.531 114.983C245.599 114.466 245.467 113.974 245.169 113.633C244.908 113.335 244.535 113.17 244.12 113.17H216.072C215.803 113.17 215.584 112.951 215.584 112.681C215.584 112.411 215.803 112.192 216.072 112.192H244.12C244.821 112.192 245.454 112.475 245.903 112.989C246.387 113.541 246.604 114.315 246.498 115.111L244.343 131.392C244.14 132.931 242.792 134.183 241.339 134.183Z" fill="#2A2B2E"/>
<path fill-rule="evenodd" clip-rule="evenodd" d="M239.19 120.919H205.909C205.639 120.919 205.421 120.701 205.421 120.431C205.421 120.161 205.639 119.942 205.909 119.942H239.19C239.459 119.942 239.678 120.161 239.678 120.431C239.678 120.701 239.459 120.919 239.19 120.919Z" fill="#2A2B2E"/>
<path fill-rule="evenodd" clip-rule="evenodd" d="M238.559 125.687H231.599C231.33 125.687 231.111 125.468 231.111 125.198C231.111 124.928 231.33 124.709 231.599 124.709H238.559C238.828 124.709 239.047 124.928 239.047 125.198C239.047 125.468 238.828 125.687 238.559 125.687Z" fill="#2A2B2E"/>
<path fill-rule="evenodd" clip-rule="evenodd" d="M227.153 125.687H205.278C205.009 125.687 204.79 125.468 204.79 125.198C204.79 124.928 205.009 124.709 205.278 124.709H227.153C227.422 124.709 227.641 124.928 227.641 125.198C227.641 125.468 227.422 125.687 227.153 125.687Z" fill="#2A2B2E"/>
<path fill-rule="evenodd" clip-rule="evenodd" d="M58.1321 53.2388H22.2116C20.9617 53.2388 19.9116 54.5944 19.8699 56.0464L19.3558 74.106C19.3141 75.5584 20.2979 76.7012 21.5481 76.7012H25.8437L27.5902 81.8558L31.475 76.7012H57.4682C58.7185 76.7012 59.7592 75.6474 59.8008 74.1953L60.3199 55.9849C60.3615 54.5325 59.3823 53.2388 58.1321 53.2388Z" fill="white"/>
<path fill-rule="evenodd" clip-rule="evenodd" d="M22.2114 53.7276C21.2758 53.7276 20.3923 54.8395 20.3575 56.0605L19.8433 74.1201C19.8254 74.7415 20.0356 75.3248 20.4199 75.7207C20.7275 76.0378 21.128 76.2125 21.5475 76.2125H25.8434C26.0526 76.2125 26.2384 76.3461 26.3058 76.5442L27.7555 80.8241L31.0852 76.4067C31.1773 76.2845 31.3215 76.2125 31.4748 76.2125H57.4679C58.4865 76.2125 59.2792 75.3391 59.3124 74.1817L59.8315 55.9709C59.8503 55.3032 59.6095 54.6446 59.1865 54.2092C58.9733 53.9893 58.6173 53.7276 58.1318 53.7276H22.2114ZM27.5896 82.3446C27.5639 82.3446 27.5378 82.3427 27.5121 82.3384C27.3335 82.3094 27.1854 82.1843 27.1272 82.0129L25.4935 77.1901H21.5475C20.8622 77.1901 20.2126 76.9101 19.72 76.4021C19.1531 75.8178 18.842 74.9758 18.8677 74.092L19.3818 56.0325C19.4323 54.2532 20.7281 52.75 22.2114 52.75H58.1318C58.7765 52.75 59.3996 53.0263 59.8865 53.5275C60.4982 54.1581 60.8344 55.0588 60.8074 55.9986L60.288 74.2094C60.2405 75.8807 59.002 77.1901 57.4679 77.1901H31.7178L27.9794 82.1504C27.886 82.2739 27.7412 82.3446 27.5896 82.3446Z" fill="#2A2B2E"/>
<path fill-rule="evenodd" clip-rule="evenodd" d="M29.348 61.2429H50.7625C51.3698 61.2429 51.8894 60.6162 51.9096 60.0101C51.9301 59.404 51.4651 58.7773 50.8579 58.7773H29.4433C28.8364 58.7773 28.3164 59.404 28.2966 60.0101C28.276 60.6162 28.7411 61.2429 29.348 61.2429Z" fill="white"/>
<path fill-rule="evenodd" clip-rule="evenodd" d="M29.1982 65.7626H50.6127C51.2197 65.7626 51.7322 65.3416 51.7527 64.7355C51.7729 64.129 51.301 63.708 50.6938 63.708H29.2792C28.672 63.708 28.1595 64.129 28.1393 64.7355C28.1191 65.3416 28.591 65.7626 29.1982 65.7626Z" fill="#C9CEBD"/>
<path fill-rule="evenodd" clip-rule="evenodd" d="M29.0335 70.6935H50.4481C51.0553 70.6935 51.575 70.0669 51.5952 69.4608C51.6157 68.8547 51.1506 68.228 50.5434 68.228H29.1289C28.522 68.228 28.0019 68.8547 27.9821 69.4608C27.9616 70.0669 28.4266 70.6935 29.0335 70.6935Z" fill="#C9CEBD"/>
<path fill-rule="evenodd" clip-rule="evenodd" d="M211.929 245.221C211.765 245.221 211.604 245.138 211.512 244.987C211.371 244.757 211.444 244.456 211.674 244.315C219.477 239.537 226.634 233.886 232.945 227.519C239.884 220.518 245.869 212.58 250.733 203.924C250.865 203.689 251.164 203.606 251.398 203.738C251.633 203.87 251.716 204.169 251.584 204.404C246.676 213.136 240.639 221.145 233.638 228.207C227.271 234.63 220.053 240.33 212.183 245.149C212.104 245.198 212.016 245.221 211.929 245.221Z" fill="#2A2B2E"/>
<path fill-rule="evenodd" clip-rule="evenodd" d="M70.3313 22.9559C70.1689 22.9559 70.0104 22.8748 69.9176 22.7268C69.7741 22.498 69.8431 22.1963 70.0716 22.0529C82.184 14.4433 96.5317 9.18017 112.716 6.40932C125.909 4.1504 140.323 3.53549 155.558 4.58153C155.827 4.59977 156.03 4.83309 156.011 5.10259C155.993 5.37208 155.758 5.57542 155.491 5.55685C131.915 3.93891 98.0495 5.63017 70.5903 22.8813C70.5099 22.9318 70.4198 22.9559 70.3313 22.9559Z" fill="#2A2B2E"/>
<path fill-rule="evenodd" clip-rule="evenodd" d="M87.7804 21.9823C87.594 21.9823 87.4156 21.8744 87.3346 21.6929C87.2246 21.4462 87.3349 21.1572 87.5809 21.047C102.391 14.4153 119.903 10.9689 139.631 10.8037H139.636C139.903 10.8037 140.122 11.0198 140.124 11.2883C140.126 11.5584 139.909 11.779 139.64 11.7813C120.047 11.9452 102.666 15.3629 87.9793 21.9396C87.9145 21.9686 87.8468 21.9823 87.7804 21.9823Z" fill="#2A2B2E"/>
<path fill-rule="evenodd" clip-rule="evenodd" d="M175.713 255.457C175.552 255.457 175.395 255.377 175.301 255.231C175.156 255.004 175.223 254.702 175.45 254.556L177.531 253.227C177.758 253.082 178.06 253.148 178.205 253.376C178.35 253.604 178.283 253.906 178.056 254.051L175.975 255.381C175.894 255.432 175.803 255.457 175.713 255.457Z" fill="#2A2B2E"/>
<path fill-rule="evenodd" clip-rule="evenodd" d="M182.994 250.804C182.833 250.804 182.676 250.724 182.582 250.578C182.438 250.35 182.504 250.048 182.731 249.903L184.812 248.573C185.039 248.428 185.341 248.495 185.486 248.722C185.631 248.95 185.564 249.252 185.337 249.398L183.257 250.727C183.175 250.779 183.084 250.804 182.994 250.804Z" fill="#2A2B2E"/>
<path fill-rule="evenodd" clip-rule="evenodd" d="M183.408 257.136C183.248 257.136 183.091 257.057 182.998 256.912L181.658 254.837C181.512 254.61 181.577 254.307 181.803 254.161C182.03 254.014 182.332 254.079 182.478 254.306L183.818 256.382C183.964 256.609 183.899 256.911 183.673 257.058C183.591 257.11 183.499 257.136 183.408 257.136Z" fill="#2A2B2E"/>
<path fill-rule="evenodd" clip-rule="evenodd" d="M178.719 249.871C178.559 249.871 178.402 249.792 178.309 249.647L176.969 247.572C176.823 247.345 176.887 247.043 177.114 246.896C177.34 246.75 177.642 246.814 177.789 247.041L179.129 249.117C179.275 249.343 179.21 249.646 178.983 249.793C178.902 249.846 178.81 249.871 178.719 249.871Z" fill="#2A2B2E"/>
<path fill-rule="evenodd" clip-rule="evenodd" d="M164.372 255.904C163.359 255.904 162.536 256.728 162.536 257.742C162.536 258.755 163.359 259.58 164.372 259.58C165.384 259.58 166.207 258.755 166.207 257.742C166.207 256.728 165.384 255.904 164.372 255.904ZM164.372 260.558C162.821 260.558 161.56 259.295 161.56 257.742C161.56 256.189 162.821 254.926 164.372 254.926C165.922 254.926 167.183 256.189 167.183 257.742C167.183 259.295 165.922 260.558 164.372 260.558Z" fill="#2A2B2E"/>
<path fill-rule="evenodd" clip-rule="evenodd" d="M256.109 192.982C255.097 192.982 254.273 193.806 254.273 194.82C254.273 195.833 255.097 196.658 256.109 196.658C257.121 196.658 257.944 195.833 257.944 194.82C257.944 193.806 257.121 192.982 256.109 192.982ZM256.109 197.636C254.558 197.636 253.297 196.373 253.297 194.82C253.297 193.267 254.558 192.004 256.109 192.004C257.659 192.004 258.92 193.267 258.92 194.82C258.92 196.373 257.659 197.636 256.109 197.636Z" fill="#2A2B2E"/>
<mask id="mask33_0:3912" style="mask-type:alpha" maskUnits="userSpaceOnUse" x="0" y="0" width="270" height="268">
<path fill-rule="evenodd" clip-rule="evenodd" d="M0 268H270V0H0V268Z" fill="white"/>
</mask>
<g mask="url(#mask33_0:3912)">
<path fill-rule="evenodd" clip-rule="evenodd" d="M25.5488 260.803H32.1978V252.987H25.5488V260.803Z" fill="#AA4465"/>
<path fill-rule="evenodd" clip-rule="evenodd" d="M43.2422 259.355L49.7135 260.884L51.5065 253.278L45.0356 251.748L43.2422 259.355Z" fill="#AA4465"/>
<path fill-rule="evenodd" clip-rule="evenodd" d="M20.0565 156.012C20.0565 156.012 18.0711 171.731 19.5947 177.834C21.1183 183.937 24.6817 240.335 24.6817 255.592H33.6431L37.6903 183.512L50.1955 209.665C51.1034 211.787 51.3341 214.138 50.8558 216.396L43.4717 255.592L51.8551 256.171L65.87 213.134C66.4971 211 66.5436 208.737 66.0044 206.579L54.6385 161.051L20.0565 156.012Z" fill="#2A2B2E"/>
<path fill-rule="evenodd" clip-rule="evenodd" d="M37.2574 182.409C37.1142 182.409 36.9723 182.347 36.876 182.226L32.2505 176.436C32.0823 176.225 32.1161 175.918 32.3267 175.749C32.5375 175.581 32.8444 175.615 33.0126 175.825L37.6382 181.615C37.8064 181.826 37.7725 182.134 37.5623 182.302C37.4719 182.374 37.3645 182.409 37.2574 182.409Z" fill="white"/>
<path fill-rule="evenodd" clip-rule="evenodd" d="M25.1161 259.066H32.9209L34.0785 264.965C34.3017 266.104 33.4803 267.171 32.3817 267.171H25.6553C24.5567 267.171 23.7357 266.104 23.9586 264.965L25.1161 259.066Z" fill="white"/>
<path fill-rule="evenodd" clip-rule="evenodd" d="M25.5177 259.555L24.4377 265.06C24.355 265.481 24.4598 265.908 24.7247 266.231C24.9645 266.522 25.2945 266.683 25.6554 266.683H32.3818C32.7424 266.683 33.0727 266.522 33.3122 266.231C33.5774 265.908 33.6822 265.481 33.5995 265.06L32.5194 259.555H25.5177ZM32.3818 267.66H25.6554C25.0071 267.66 24.3931 267.365 23.971 266.852C23.5197 266.303 23.3407 265.581 23.4796 264.871L24.6371 258.972C24.6821 258.742 24.8828 258.577 25.1162 258.577H32.921C33.1543 258.577 33.3551 258.742 33.4 258.972L34.5572 264.871C34.6965 265.581 34.5172 266.303 34.0662 266.852C33.6441 267.365 33.03 267.66 32.3818 267.66Z" fill="#2A2B2E"/>
<path fill-rule="evenodd" clip-rule="evenodd" d="M33.2102 265.778H25.1161C24.8466 265.778 24.6279 265.56 24.6279 265.29C24.6279 265.019 24.8466 264.801 25.1161 264.801H33.2102C33.4797 264.801 33.6983 265.019 33.6983 265.29C33.6983 265.56 33.4797 265.778 33.2102 265.778Z" fill="#2A2B2E"/>
<path fill-rule="evenodd" clip-rule="evenodd" d="M43.0381 257.329L40.9008 264.433C40.5288 265.669 41.2815 266.975 42.3866 267.013L57.0696 267.511C57.9778 267.541 58.3406 266.132 57.5736 265.554C55.1844 263.756 52.0057 261.259 51.1323 260.074C49.1088 257.329 47.0854 259.731 47.0854 259.731C47.0854 259.731 45.6399 257.329 43.0381 257.329Z" fill="white"/>
<path fill-rule="evenodd" clip-rule="evenodd" d="M43.396 257.836L41.3687 264.574C41.2164 265.08 41.3016 265.646 41.5916 266.05C41.8028 266.346 42.0911 266.514 42.4032 266.525L57.0864 267.023C57.3142 267.036 57.4232 266.801 57.4584 266.703C57.542 266.465 57.5218 266.127 57.2807 265.945C53.6633 263.223 51.4625 261.345 50.7398 260.365C50.2093 259.645 49.649 259.269 49.0743 259.248C48.194 259.219 47.4647 260.04 47.4573 260.048C47.3557 260.167 47.2041 260.23 47.0456 260.218C46.8894 260.205 46.7485 260.118 46.6675 259.984C46.6557 259.964 45.4621 258.041 43.396 257.836ZM57.0975 268C57.0832 268 57.0685 268 57.0535 268L42.3703 267.502C41.7575 267.481 41.1845 267.16 40.7985 266.62C40.3286 265.964 40.1923 265.094 40.4334 264.292L42.5711 257.189C42.6332 256.982 42.823 256.841 43.0384 256.841C45.1471 256.841 46.5474 258.231 47.1575 258.994C47.5777 258.657 48.275 258.245 49.1003 258.271C49.9906 258.3 50.8065 258.809 51.5253 259.784C52.1729 260.663 54.4255 262.573 57.8674 265.164C58.4197 265.58 58.6253 266.329 58.379 267.028C58.1691 267.623 57.6692 268 57.0975 268Z" fill="#2A2B2E"/>
<path fill-rule="evenodd" clip-rule="evenodd" d="M55.4685 265.29L42.1709 264.711L55.4685 265.29Z" fill="white"/>
<path fill-rule="evenodd" clip-rule="evenodd" d="M55.4698 265.779C55.4629 265.779 55.4555 265.779 55.4483 265.778L42.1504 265.199C41.8812 265.188 41.6726 264.959 41.684 264.69C41.6958 264.42 41.9115 264.211 42.193 264.223L55.4906 264.801C55.76 264.813 55.9686 265.041 55.9573 265.311C55.9459 265.574 55.7298 265.779 55.4698 265.779Z" fill="#2A2B2E"/>
<path fill-rule="evenodd" clip-rule="evenodd" d="M35.2337 107.235L28.0068 112.157L47.9069 111.202L42.1717 107.525L41.3995 103.964C42.4174 103.812 43.8177 103.71 44.2632 103.155C45.0503 102.173 44.6943 98.7762 44.6943 98.7762L45.5567 98.0974C45.6485 98.0511 45.7165 97.9684 45.7438 97.8693C45.7715 97.7702 45.7559 97.664 45.7012 97.577C44.969 96.4084 44.2781 96.0311 43.954 94.8397C43.6344 93.6659 43.776 93.8442 42.5137 91.3141L34.9448 91.3037L34.9021 96.9836C34.9021 96.9836 33.7407 96.2325 33.0049 97.2482C32.4703 97.9869 33.6542 100.453 34.6148 100.454L35.2337 107.235Z" fill="white"/>
<path fill-rule="evenodd" clip-rule="evenodd" d="M34.0216 97.2023C33.8114 97.2023 33.5842 97.2808 33.4004 97.535C33.3125 97.6559 33.3415 98.2346 33.7102 98.9587C34.0444 99.6153 34.4502 99.965 34.6148 99.9653C34.8674 99.9653 35.0776 100.158 35.1007 100.409L35.72 107.191C35.7359 107.368 35.6549 107.539 35.5081 107.639L29.7137 111.585L46.3547 110.787L41.9085 107.936C41.7991 107.866 41.7223 107.755 41.6947 107.628L40.9224 104.067C40.8938 103.935 40.9211 103.797 40.9979 103.686C41.0747 103.574 41.1942 103.5 41.3279 103.48C41.4796 103.458 41.6397 103.436 41.804 103.414C42.529 103.317 43.6247 103.17 43.8825 102.849C44.3377 102.281 44.3472 100.155 44.2089 98.827C44.1916 98.6599 44.2609 98.4956 44.3927 98.3917L45.2242 97.7373C44.9918 97.3802 44.765 97.1026 44.5447 96.8337C44.1174 96.3123 43.7142 95.8196 43.4828 94.9681C43.4389 94.8068 43.4038 94.6706 43.3722 94.5491C43.1926 93.8559 43.149 93.6878 42.2114 91.8023L35.429 91.7932L35.3903 96.9872C35.389 97.1658 35.2907 97.329 35.1342 97.4138C34.9767 97.4988 34.787 97.4907 34.6376 97.3942C34.5634 97.3479 34.308 97.2023 34.0216 97.2023ZM28.0066 112.645C27.7976 112.645 27.6105 112.512 27.5438 112.311C27.4745 112.104 27.5513 111.875 27.7322 111.752L34.7213 106.993L34.1602 100.847C33.4775 100.558 32.9923 99.7014 32.8403 99.4025C32.4417 98.6191 32.1713 97.5663 32.6099 96.9611C33.1339 96.2377 33.8433 96.1484 34.4196 96.27L34.4567 91.3002C34.4586 91.0313 34.6767 90.8149 34.9448 90.8149H34.9455L42.5144 90.8254C42.6989 90.8257 42.8678 90.93 42.9501 91.0955C44.0302 93.2599 44.1041 93.4828 44.3172 94.3034C44.3475 94.4216 44.382 94.5543 44.4249 94.7113C44.6016 95.3614 44.8942 95.7189 45.2993 96.2139C45.547 96.516 45.8272 96.8585 46.1145 97.317C46.2421 97.5203 46.2782 97.7696 46.2138 98.0006C46.1545 98.2125 46.0156 98.3936 45.8281 98.5054L45.2053 98.9955C45.2873 99.9542 45.4197 102.492 44.6439 103.461C44.1496 104.076 43.0565 104.232 41.9882 104.376L42.6058 107.223L48.1702 110.791C48.3488 110.906 48.4331 111.123 48.3784 111.329C48.3238 111.534 48.1425 111.681 47.93 111.691L28.03 112.644C28.0222 112.645 28.0144 112.645 28.0066 112.645Z" fill="#2A2B2E"/>
<path fill-rule="evenodd" clip-rule="evenodd" d="M34.2438 102.994C35.7684 103.503 37.2732 102.308 37.5436 102.093C38.6032 101.251 39.4691 99.7515 39.0431 99.0893C38.8095 98.7256 38.392 98.9244 37.8436 98.4887C37.0369 97.8477 36.8072 96.4589 37.2435 96.0858C37.6005 95.7801 38.1586 96.366 38.7431 96.0858C39.4564 95.7436 39.0913 94.6481 39.6432 93.6828C40.5443 92.1056 42.6452 93.0572 44.2606 91.3786C45.3152 90.2824 45.7731 88.4566 45.1711 87.4245C44.995 87.1228 44.7259 86.8566 44.3419 86.6447C41.801 85.2432 41.4206 87.1616 38.9461 87.1824C33.8543 87.2261 31.3577 88.2467 30.4361 90.3596C29.8106 91.7938 30.5747 94.0784 30.9444 95.1848C31.0681 95.5543 31.3268 96.251 31.5442 97.2873C31.7824 98.4213 31.7088 98.7126 31.8442 99.3898C31.9392 99.8636 32.4459 102.394 34.2438 102.994Z" fill="#2A2B2E"/>
<path fill-rule="evenodd" clip-rule="evenodd" d="M83.8144 131.066H64.7233C64.1841 131.066 63.7471 130.629 63.7471 130.089V97.502C63.7471 96.9621 64.1841 96.5244 64.7233 96.5244H83.8144C84.3536 96.5244 84.7906 96.9621 84.7906 97.502V130.089C84.7906 130.629 84.3536 131.066 83.8144 131.066Z" fill="white"/>
<path fill-rule="evenodd" clip-rule="evenodd" d="M64.7232 97.0137C64.4541 97.0137 64.235 97.233 64.235 97.5025V130.089C64.235 130.359 64.4541 130.578 64.7232 130.578H83.8142C84.0833 130.578 84.3023 130.359 84.3023 130.089V97.5025C84.3023 97.233 84.0833 97.0137 83.8142 97.0137H64.7232ZM83.8142 131.556H64.7232C63.9158 131.556 63.2588 130.898 63.2588 130.089V97.5025C63.2588 96.6941 63.9158 96.0361 64.7232 96.0361H83.8142C84.6216 96.0361 85.2786 96.6941 85.2786 97.5025V130.089C85.2786 130.898 84.6216 131.556 83.8142 131.556Z" fill="#2A2B2E"/>
<path fill-rule="evenodd" clip-rule="evenodd" d="M79.3867 119.716L81.3884 111.047L86.9696 106.087C86.9696 106.087 90.1444 106.14 84.9459 111.587C84.9459 111.587 87.4298 116.457 85.8245 118.389C85.3578 118.951 82.6819 122.432 82.6819 122.432L79.3867 119.716Z" fill="white"/>
<path fill-rule="evenodd" clip-rule="evenodd" d="M79.9305 119.531L82.6028 121.734C83.3233 120.798 85.0724 118.53 85.4492 118.076C86.595 116.696 85.1606 113.085 84.5111 111.81C84.4167 111.625 84.4496 111.4 84.5931 111.25C87.68 108.015 87.4789 106.993 87.4073 106.821C87.3555 106.698 87.2277 106.636 87.1222 106.605L81.829 111.309L79.9305 119.531ZM82.6819 122.921C82.5693 122.921 82.4593 122.882 82.3718 122.81L79.0766 120.093C78.9337 119.975 78.8693 119.786 78.9109 119.605L80.9129 110.937C80.9357 110.838 80.9887 110.748 81.0642 110.681L86.6455 105.722C86.7373 105.64 86.8577 105.601 86.9777 105.599C87.3432 105.605 88.0347 105.79 88.3077 106.444C88.748 107.499 87.8401 109.212 85.5335 111.677C86.105 112.884 87.7682 116.813 86.2 118.701C85.7437 119.25 83.0955 122.696 83.0688 122.73C82.9881 122.835 82.8683 122.903 82.7369 122.918C82.7183 122.92 82.7004 122.921 82.6819 122.921Z" fill="#2A2B2E"/>
<path fill-rule="evenodd" clip-rule="evenodd" d="M12.8298 141.428C13.0179 138.027 15.6447 135.709 18.4212 134.196C18.0235 138.24 18.2168 138.626 17.166 148.775C17.0245 150.144 16.9011 151.295 16.7967 152.277C14.5522 149.294 12.6049 145.491 12.8298 141.428ZM79.367 119.118C79.367 119.118 76.1128 126.939 71.3399 127.808C62.5734 129.404 62.5766 113.687 53.4942 109.801C53.2973 109.708 53.0929 109.628 52.8814 109.562C51.9992 109.251 51.0369 109.045 49.9761 108.972L49.9754 109.02C43.5491 108.04 32.4135 107.316 21.6467 111.288C12.396 113.893 0.488281 123.921 0.488281 142.115C0.488281 155.221 19.7674 166.323 19.7674 166.323L21.2217 162.749C27.421 165.758 37.4976 165.267 42.0267 164.118C42.4472 164.011 44.1852 163.552 47.0297 162.834C50.2859 162.011 52.9602 161.362 54.7464 160.933C55.7119 160.494 57.0165 159.718 57.9261 158.328C59.9639 155.213 58.6013 151.179 57.9261 148.486C56.9306 144.517 57.2567 142.773 57.6127 139.627C60.4305 142.657 63.9024 144.962 67.8689 144.753C78.8538 144.174 81.4662 132.073 85.2245 121.073L79.367 119.118Z" fill="#AA4465"/>
<path fill-rule="evenodd" clip-rule="evenodd" d="M17.8473 135.092C14.9764 136.856 13.4535 138.994 13.3175 141.455C13.1502 144.47 14.2023 147.659 16.4467 150.952C16.518 150.28 16.5957 149.541 16.6803 148.725C17.3426 142.329 17.5095 139.829 17.6433 137.82C17.7035 136.916 17.7575 136.108 17.8473 135.092ZM16.7965 152.766C16.6462 152.766 16.5004 152.696 16.4067 152.571C13.5127 148.725 12.1453 144.966 12.3425 141.401C12.5111 138.357 14.4776 135.789 18.188 133.767C18.3462 133.68 18.5401 133.688 18.6908 133.788C18.8418 133.888 18.9248 134.063 18.9072 134.244C18.7611 135.728 18.6944 136.728 18.6172 137.885C18.4828 139.902 18.3156 142.412 17.6514 148.826C17.5375 149.926 17.4353 150.886 17.3455 151.731L17.282 152.329C17.2609 152.528 17.12 152.695 16.927 152.748C16.8837 152.76 16.8398 152.766 16.7965 152.766ZM39.9293 108.749C34.4951 108.749 28.0742 109.438 21.8155 111.747C21.8034 111.751 21.7914 111.755 21.779 111.758C11.7597 114.58 0.976258 125.283 0.976258 142.115C0.976258 153.647 16.57 163.789 19.5307 165.61L20.7696 162.565C20.8206 162.44 20.9206 162.341 21.0468 162.293C21.1724 162.244 21.313 162.25 21.4344 162.309C27.1989 165.107 37.0275 164.882 41.9072 163.643C42.0155 163.616 42.2124 163.565 42.4942 163.492C43.3022 163.282 44.8027 162.892 46.9102 162.36C49.4719 161.713 52.0541 161.076 54.5861 160.469C55.8738 159.876 56.8602 159.066 57.5175 158.06C59.2413 155.425 58.3291 151.953 57.663 149.418C57.5891 149.136 57.5175 148.864 57.4524 148.605C56.513 144.858 56.7251 143.037 57.046 140.28L57.1277 139.572C57.1488 139.383 57.2787 139.223 57.4596 139.163C57.6409 139.103 57.84 139.154 57.9699 139.294C61.2006 142.767 64.531 144.438 67.8434 144.265C77.2822 143.767 80.3245 134.45 83.5459 124.585C83.8892 123.532 84.2432 122.449 84.6041 121.381L79.634 119.722C78.867 121.401 75.8051 127.492 71.4272 128.289C66.3517 129.213 64.0373 124.787 61.5859 120.102C59.4954 116.106 57.334 111.975 53.3027 110.251C53.1107 110.16 52.9262 110.088 52.7365 110.029C51.9115 109.738 51.0469 109.554 50.1507 109.476C50.0723 109.506 49.9873 109.516 49.9024 109.503C47.4295 109.126 43.9488 108.749 39.9293 108.749ZM19.7676 166.812C19.6833 166.812 19.5993 166.79 19.5242 166.747C18.7272 166.288 0 155.352 0 142.115C0 133.841 2.49629 126.383 7.21943 120.548C11.0154 115.858 16.2179 112.314 21.4962 110.823C32.4518 106.786 43.8681 107.616 49.8357 108.504C49.8916 108.487 49.9519 108.48 50.0094 108.485C51.068 108.557 52.0892 108.764 53.0437 109.101C53.2601 109.168 53.4879 109.257 53.7039 109.36C58.0372 111.213 60.3819 115.694 62.4506 119.648C64.6214 123.797 66.5228 127.429 70.1571 127.43C70.506 127.43 70.8698 127.397 71.2525 127.327C75.7124 126.515 78.8846 119.006 78.9161 118.93C79.0147 118.694 79.278 118.573 79.5211 118.654L85.3786 120.609C85.502 120.651 85.6041 120.739 85.6621 120.856C85.7193 120.973 85.7284 121.108 85.6861 121.231C85.2725 122.442 84.8664 123.686 84.4736 124.889C81.292 134.633 78.0017 144.708 67.8948 145.241C64.5241 145.419 61.1931 143.894 57.979 140.708C57.6828 143.268 57.5383 144.931 58.3994 148.367C58.4635 148.623 58.5341 148.891 58.6073 149.169C59.3197 151.882 60.296 155.596 58.3343 158.596C57.5667 159.77 56.4274 160.706 54.948 161.378C54.9197 161.391 54.8901 161.401 54.8598 161.409C52.3167 162.019 49.7221 162.657 47.149 163.307C45.0445 163.839 43.5463 164.228 42.7396 164.438C42.4552 164.512 42.2563 164.563 42.1467 164.591C37.4343 165.787 27.7504 166.2 21.4806 163.409L20.2196 166.508C20.1666 166.638 20.0598 166.74 19.9264 166.785C19.8747 166.803 19.821 166.812 19.7676 166.812Z" fill="#2A2B2E"/>
<path fill-rule="evenodd" clip-rule="evenodd" d="M23.7419 164.223C23.7185 164.223 23.6947 164.221 23.6709 164.217C23.5837 164.205 14.9276 162.85 16.0519 154.788C16.089 154.52 16.338 154.333 16.6028 154.371C16.87 154.408 17.0562 154.655 17.0187 154.923C16.0298 162.018 23.4936 163.203 23.8119 163.25C24.0784 163.29 24.2632 163.538 24.2238 163.805C24.1884 164.048 23.9801 164.223 23.7419 164.223Z" fill="#2A2B2E"/>
<path fill-rule="evenodd" clip-rule="evenodd" d="M248.999 48.1392C248.852 47.9244 248.852 47.6478 248.999 47.4334C249.202 47.1371 249.313 46.8178 249.313 46.4851C249.313 44.9372 246.919 43.6826 243.966 43.6826C241.012 43.6826 238.618 44.9372 238.618 46.4851C238.618 46.8178 238.729 47.1371 238.932 47.4334C239.08 47.6478 239.08 47.9244 238.932 48.1392C238.729 48.4354 238.618 48.7547 238.618 49.0875C238.618 49.8216 239.157 50.4897 240.039 50.9895C240.019 51.0726 240.008 51.1577 240.008 51.2437C240.008 52.3891 241.78 53.3175 243.966 53.3175C246.151 53.3175 247.923 52.3891 247.923 51.2437C247.923 51.1577 247.912 51.0726 247.893 50.9895C248.774 50.4897 249.313 49.8216 249.313 49.0875C249.313 48.7547 249.202 48.4354 248.999 48.1392Z" fill="#C9CEBD"/>
<path fill-rule="evenodd" clip-rule="evenodd" d="M243.966 44.1715C241.102 44.1715 239.106 45.3908 239.106 46.4851C239.106 46.7096 239.183 46.9355 239.335 47.1564C239.598 47.5386 239.598 48.0333 239.335 48.4162C239.183 48.6368 239.106 48.8626 239.106 49.0875C239.106 49.6108 239.523 50.1355 240.28 50.5643C240.468 50.6709 240.563 50.8892 240.515 51.1004C240.502 51.1519 240.497 51.1988 240.497 51.2438C240.497 51.9932 241.921 52.8284 243.966 52.8284C246.01 52.8284 247.435 51.9932 247.435 51.2438C247.435 51.1988 247.429 51.1525 247.417 51.102C247.367 50.8905 247.463 50.6712 247.652 50.564C248.409 50.1355 248.825 49.6108 248.825 49.0875C248.825 48.8626 248.748 48.6368 248.597 48.4162C248.334 48.0336 248.334 47.539 248.597 47.1564C248.748 46.9355 248.825 46.7096 248.825 46.4851C248.825 45.3908 246.83 44.1715 243.966 44.1715ZM243.966 53.8061C241.474 53.8061 239.522 52.6815 239.52 51.2454C238.621 50.6559 238.13 49.8986 238.13 49.0875C238.13 48.6609 238.265 48.2487 238.53 47.8622C238.563 47.8147 238.563 47.7579 238.53 47.7104C238.265 47.3232 238.13 46.9113 238.13 46.4851C238.13 44.6394 240.693 43.1938 243.966 43.1938C247.238 43.1938 249.802 44.6394 249.802 46.4851C249.802 46.9113 249.667 47.3232 249.401 47.71C249.369 47.7579 249.369 47.8147 249.401 47.8622H249.401C249.667 48.2487 249.802 48.6609 249.802 49.0875C249.802 49.8986 249.311 50.6559 248.411 51.2454C248.41 52.6815 246.457 53.8061 243.966 53.8061Z" fill="#2A2B2E"/>
<path fill-rule="evenodd" clip-rule="evenodd" d="M258.481 25.0008C258.481 17.0647 251.884 10.2944 243.959 10.2944C236.049 10.2944 229.524 16.8812 229.471 24.8024C229.444 28.8356 231.387 32.5877 234.037 35.2132C235.947 37.1071 237.341 39.4609 238.017 42.0665L238.05 42.1923C238.706 44.7214 240.986 46.4869 243.596 46.4869H244.666C247.275 46.4869 249.555 44.7214 250.212 42.1923L250.231 42.1161C250.903 39.529 252.24 37.1528 254.151 35.2859C256.822 32.6763 258.481 29.0328 258.481 25.0008Z" fill="white"/>
<path fill-rule="evenodd" clip-rule="evenodd" d="M243.959 10.7833C236.291 10.7833 230.011 17.0735 229.959 24.8053C229.935 28.3912 231.547 32.0579 234.38 34.8659C236.381 36.8491 237.802 39.2967 238.489 41.9437L238.522 42.0692C239.123 44.3825 241.209 45.9981 243.596 45.9981H244.666C247.053 45.9981 249.139 44.3825 249.74 42.0695L249.759 41.9936C250.465 39.2761 251.866 36.8357 253.81 34.9359C256.507 32.301 257.992 28.7728 257.992 25.0009C257.992 17.2941 251.566 10.7833 243.959 10.7833ZM244.666 46.9757H243.596C240.765 46.9757 238.29 45.0593 237.577 42.3155L237.545 42.1897C236.902 39.7125 235.57 37.4203 233.693 35.5606C230.674 32.5688 228.958 28.6463 228.983 24.7992C229.038 16.5316 235.756 9.80566 243.959 9.80566C252.095 9.80566 258.969 16.7642 258.969 25.0009C258.969 29.0384 257.379 32.8152 254.492 35.6359C252.675 37.4109 251.365 39.6946 250.704 42.2393L250.685 42.3149C249.972 45.0593 247.497 46.9757 244.666 46.9757Z" fill="#2A2B2E"/>
<path fill-rule="evenodd" clip-rule="evenodd" d="M246.224 22.7433C246.092 22.8854 245.969 23.0509 245.86 23.2441C245.149 24.4987 244.999 25.5861 245.447 26.2271C245.705 26.5967 246.153 26.7883 246.584 26.7159C246.775 26.684 247.114 26.5693 247.23 26.1613C247.563 24.9957 247.023 23.6114 246.224 22.7433ZM241.97 22.8557C241.586 23.3386 241.271 23.9757 241.035 24.7519C240.761 25.652 240.837 26.4024 241.243 26.8101C241.489 27.0568 241.831 27.1451 242.16 27.0457C242.579 26.9193 242.886 26.5191 243.001 25.9482C243.17 25.1078 242.727 23.4475 241.97 22.8557ZM244.773 44.9179H244.771C244.501 44.9169 244.284 44.6973 244.285 44.4272C244.317 36.6428 248.847 27.8731 249.754 26.1939C250.269 25.2414 250.467 24.4707 250.36 23.8385C250.203 22.9127 249.736 22.3183 248.971 22.0726C248.604 21.955 247.793 21.8517 247.031 22.1772C247.99 23.2673 248.601 24.9162 248.169 26.4301C247.979 27.0952 247.447 27.5625 246.746 27.6802C245.946 27.8141 245.12 27.4644 244.647 26.7876C244.252 26.2219 243.774 24.9468 245.01 22.7619C245.146 22.5227 245.298 22.3122 245.463 22.1274C244.898 21.8126 244.041 21.6096 243.198 21.924C243.02 21.9899 242.85 22.0772 242.688 22.1847C243.721 23.1053 244.182 25.0276 243.958 26.1414C243.772 27.0636 243.205 27.7515 242.442 27.9819C241.773 28.183 241.049 27.9992 240.552 27.5003C239.884 26.829 239.719 25.7233 240.101 24.4671C240.353 23.6391 240.672 22.9975 241.017 22.5015C239.671 22.2483 238.75 22.8994 238.49 23.5413C238.155 24.369 238.278 25.3564 238.811 26.1189C240.145 28.0272 243.264 33.5966 243.416 44.0703C243.42 44.3401 243.205 44.5624 242.935 44.5663C242.66 44.5758 242.444 44.3545 242.44 44.0847C242.292 33.8821 239.294 28.5137 238.012 26.6794C237.28 25.6327 237.121 24.3224 237.586 23.1744C238.094 21.9182 239.764 21.0585 241.746 21.679C242.132 21.3414 242.518 21.1341 242.857 21.0077C244.095 20.5463 245.345 20.8927 246.103 21.3714C246.156 21.4043 246.208 21.4392 246.259 21.4757C247.284 20.8741 248.494 20.8927 249.269 21.1416C250.377 21.4978 251.106 22.3975 251.322 23.6749C251.47 24.5427 251.244 25.491 250.613 26.6592C249.725 28.3023 245.292 36.8804 245.261 44.4314C245.26 44.7006 245.041 44.9179 244.773 44.9179Z" fill="#2A2B2E"/>
<path fill-rule="evenodd" clip-rule="evenodd" d="M250.615 34.5075C250.453 34.5075 250.294 34.4266 250.201 34.2787C250.057 34.0503 250.126 33.7485 250.354 33.6048C252.873 32.0191 254.685 29.4438 255.327 26.539C255.385 26.2754 255.646 26.1089 255.909 26.1675C256.172 26.2259 256.339 26.4869 256.28 26.7505C255.582 29.9088 253.612 32.7087 250.874 34.4325C250.794 34.4833 250.703 34.5075 250.615 34.5075Z" fill="#2A2B2E"/>
<path fill-rule="evenodd" clip-rule="evenodd" d="M234.996 32.8431C234.861 32.8431 234.728 32.7877 234.631 32.6792C232.652 30.4503 231.562 27.5791 231.562 24.5941C231.562 19.9375 234.15 15.7582 238.316 13.6867C238.556 13.5671 238.85 13.6652 238.97 13.907C239.09 14.1488 238.991 14.442 238.75 14.562C234.919 16.4676 232.539 20.3116 232.539 24.5941C232.539 27.3392 233.541 29.9797 235.36 32.0294C235.54 32.2315 235.522 32.5404 235.32 32.7196C235.227 32.8024 235.111 32.8431 234.996 32.8431Z" fill="#2A2B2E"/>
<path fill-rule="evenodd" clip-rule="evenodd" d="M244.879 48.4729C244.646 48.4729 244.439 48.3047 244.399 48.0665C244.353 47.8006 244.532 47.5477 244.798 47.5021C245.275 47.4206 245.74 47.3157 246.181 47.1912C246.44 47.1182 246.71 47.2691 246.783 47.5288C246.856 47.7885 246.706 48.0587 246.446 48.132C245.973 48.2659 245.473 48.378 244.962 48.466C244.934 48.4706 244.907 48.4729 244.879 48.4729Z" fill="white"/>
<path fill-rule="evenodd" clip-rule="evenodd" d="M242.626 51.2259C242.358 51.2259 242.14 51.0099 242.138 50.7414C242.135 50.4716 242.352 50.2506 242.621 50.2483C243.701 50.2389 245.282 50.0893 246.69 49.4304C246.933 49.316 247.224 49.4216 247.338 49.6663C247.453 49.9107 247.347 50.2017 247.103 50.3161C245.537 51.0493 243.806 51.2155 242.63 51.2259H242.626Z" fill="white"/>
<path fill-rule="evenodd" clip-rule="evenodd" d="M244.038 7.32486C244.035 7.32486 244.032 7.32486 244.028 7.32486C243.759 7.319 243.544 7.09578 243.55 6.82596L243.681 0.47871C243.687 0.208892 243.905 -0.00976539 244.18 0.000336508C244.449 0.00587626 244.663 0.229096 244.658 0.49924L244.526 6.84616C244.52 7.11272 244.303 7.32486 244.038 7.32486Z" fill="#2A2B2E"/>
<path fill-rule="evenodd" clip-rule="evenodd" d="M225.668 20.2546L221.62 20.252C221.35 20.2517 221.132 20.0327 221.132 19.7629C221.132 19.4931 221.351 19.2744 221.62 19.2744L225.668 19.277C225.937 19.277 226.156 19.496 226.156 19.7661C226.155 20.036 225.937 20.2546 225.668 20.2546Z" fill="#2A2B2E"/>
<path fill-rule="evenodd" clip-rule="evenodd" d="M229.402 11.781C229.323 11.781 229.244 11.7618 229.169 11.7217L224.605 9.24476C224.368 9.11604 224.28 8.8195 224.409 8.58194C224.538 8.34438 224.834 8.25705 225.07 8.38512L229.635 10.8624C229.872 10.9911 229.96 11.2876 229.831 11.5249C229.743 11.6881 229.575 11.781 229.402 11.781Z" fill="#2A2B2E"/>
<path fill-rule="evenodd" clip-rule="evenodd" d="M262.265 20.2546C261.995 20.2546 261.777 20.036 261.776 19.7661C261.776 19.496 261.995 19.277 262.264 19.277L266.311 19.2744C266.581 19.2744 266.8 19.4931 266.8 19.7629C266.8 20.0327 266.582 20.2517 266.312 20.252L262.265 20.2546Z" fill="#2A2B2E"/>
<path fill-rule="evenodd" clip-rule="evenodd" d="M258.531 11.781C258.357 11.781 258.189 11.6881 258.101 11.5249C257.972 11.2876 258.061 10.9911 258.298 10.8624L262.862 8.38512C263.098 8.25705 263.395 8.34438 263.523 8.58194C263.652 8.8195 263.564 9.11604 263.327 9.24476L258.763 11.7217C258.689 11.7618 258.609 11.781 258.531 11.781Z" fill="#2A2B2E"/>
<path fill-rule="evenodd" clip-rule="evenodd" d="M182.369 24.2714C179.222 24.2714 176.67 21.7166 176.67 18.5649C176.67 15.4134 179.222 12.8586 182.369 12.8586C185.517 12.8586 188.068 15.4134 188.068 18.5649C188.068 21.7166 185.517 24.2714 182.369 24.2714ZM193.331 16.1482C193.312 16.0149 193.203 15.9123 193.07 15.9015L191.13 15.7432C191.017 15.734 190.921 15.6581 190.884 15.5506C190.757 15.1895 190.609 14.8395 190.441 14.5029C190.39 14.4012 190.402 14.2807 190.474 14.193L191.704 12.6839C191.789 12.5796 191.79 12.4304 191.707 12.3242L190.658 10.98C190.575 10.8741 190.429 10.8398 190.308 10.8972L188.548 11.7324C188.446 11.7809 188.326 11.7633 188.239 11.6897C187.952 11.4433 187.649 11.2152 187.333 11.0067C187.239 10.9444 187.189 10.8336 187.207 10.7219L187.52 8.79534C187.541 8.66272 187.468 8.5327 187.343 8.48219L185.763 7.84414C185.639 7.79395 185.495 7.83697 185.419 7.94776L184.314 9.55005C184.249 9.64325 184.137 9.68822 184.025 9.66737C183.656 9.59893 183.279 9.55364 182.898 9.53213C182.784 9.52561 182.685 9.4549 182.645 9.34867L181.956 7.52479C181.908 7.399 181.779 7.32307 181.646 7.34165L179.959 7.58116C179.826 7.59974 179.724 7.70858 179.713 7.84283L179.555 9.78696C179.545 9.90004 179.47 9.99584 179.363 10.0336C179.002 10.1604 178.653 10.3083 178.317 10.4768C178.216 10.528 178.095 10.5159 178.008 10.4442L176.502 9.21245C176.398 9.12708 176.249 9.12545 176.143 9.20854L174.801 10.2611C174.695 10.3442 174.661 10.4895 174.719 10.6111L175.552 12.3747C175.6 12.4773 175.583 12.5976 175.509 12.6836C175.263 12.972 175.036 13.2754 174.827 13.5921C174.765 13.6866 174.655 13.7371 174.543 13.7189L172.621 13.4057C172.488 13.3842 172.358 13.4575 172.308 13.5827L171.671 15.1661C171.621 15.2909 171.664 15.4339 171.774 15.5105L173.373 16.6184C173.466 16.6826 173.511 16.7954 173.49 16.9068C173.422 17.2774 173.377 17.6547 173.355 18.0369C173.349 18.1504 173.278 18.2497 173.172 18.2901L171.352 18.9816C171.226 19.0295 171.15 19.1579 171.169 19.2912L171.407 20.9818C171.426 21.1151 171.535 21.2174 171.669 21.2285L173.609 21.3865C173.722 21.396 173.817 21.4719 173.855 21.5791C173.981 21.9405 174.129 22.2902 174.297 22.6271C174.348 22.7285 174.336 22.849 174.265 22.937L173.035 24.4461C172.95 24.5504 172.948 24.6996 173.031 24.8055L174.081 26.1497C174.164 26.256 174.309 26.2902 174.431 26.2325L176.19 25.3976C176.293 25.3488 176.413 25.3667 176.499 25.4403C176.787 25.6867 177.089 25.9148 177.405 26.1234C177.5 26.1856 177.55 26.2961 177.532 26.4082L177.219 28.3344C177.197 28.4673 177.27 28.5973 177.395 28.6478L178.975 29.2856C179.1 29.3361 179.243 29.2931 179.319 29.1823L180.425 27.58C180.49 27.4868 180.602 27.4418 180.713 27.4623C181.083 27.5311 181.459 27.5764 181.84 27.5979C181.954 27.6044 182.053 27.6751 182.093 27.7814L182.783 29.6049C182.831 29.731 182.959 29.807 183.093 29.7881L184.779 29.5489C184.912 29.53 185.014 29.4215 185.025 29.2872L185.183 27.3431C185.193 27.2297 185.269 27.1342 185.376 27.0964C185.736 26.9696 186.085 26.8217 186.421 26.6532C186.522 26.6021 186.643 26.6138 186.731 26.6858L188.236 27.9176C188.341 28.0026 188.49 28.0043 188.596 27.9212L189.937 26.8689C190.043 26.7858 190.077 26.6408 190.02 26.519L189.186 24.7554C189.138 24.6527 189.155 24.5325 189.229 24.4464C189.475 24.158 189.702 23.8547 189.911 23.5382C189.973 23.4431 190.084 23.3929 190.195 23.4112L192.117 23.724C192.25 23.7458 192.38 23.6725 192.43 23.5474L193.067 21.9637C193.117 21.8392 193.074 21.6961 192.964 21.6195L191.365 20.5116C191.272 20.4471 191.227 20.3343 191.248 20.2229C191.317 19.8527 191.362 19.4753 191.383 19.0931C191.39 18.9797 191.46 18.8803 191.567 18.8399L193.387 18.1481C193.512 18.1005 193.588 17.9718 193.569 17.8388L193.331 16.1482Z" fill="white"/>
<path fill-rule="evenodd" clip-rule="evenodd" d="M130.074 258.437C126.81 259.332 123.439 257.407 122.545 254.136C121.652 250.865 123.573 247.487 126.837 246.592C130.101 245.696 133.472 247.622 134.365 250.893C135.259 254.164 133.338 257.541 130.074 258.437ZM140.646 250.406L140.018 248.105L137.42 248.224C137.18 247.717 136.901 247.237 136.586 246.787L137.961 244.58L136.269 242.903L134.078 244.307C133.622 243.993 133.141 243.718 132.639 243.485L132.729 240.881L130.426 240.275L129.231 242.585C128.685 242.543 128.13 242.547 127.573 242.598L126.352 240.298L124.056 240.928L124.173 243.53C123.668 243.772 123.189 244.051 122.74 244.367L120.538 242.989L118.864 244.685L120.265 246.88C119.952 247.337 119.678 247.819 119.445 248.322L116.846 248.232L116.242 250.539L118.547 251.737C118.505 252.284 118.509 252.84 118.559 253.399L116.264 254.623L116.893 256.923L119.491 256.805C119.731 257.312 120.01 257.792 120.325 258.241L118.95 260.449L120.642 262.126L122.833 260.722C123.289 261.035 123.77 261.31 124.272 261.544L124.182 264.148L126.485 264.753L127.68 262.443C128.226 262.486 128.78 262.481 129.338 262.431L130.559 264.73L132.855 264.101L132.737 261.498C133.243 261.257 133.722 260.978 134.171 260.662L136.373 262.04L138.047 260.344L136.646 258.149C136.959 257.692 137.233 257.209 137.466 256.707L140.065 256.797L140.669 254.489L138.364 253.292C138.406 252.744 138.402 252.189 138.351 251.63L140.646 250.406Z" fill="#AA4465"/>
</g>
</svg>
