<svg width="246" height="244" viewBox="0 0 246 244" fill="none" xmlns="http://www.w3.org/2000/svg">
<path fill-rule="evenodd" clip-rule="evenodd" d="M155.471 134L105.268 134.315C104.943 134.315 104.836 134.618 104.836 134.909V177.686C104.836 181.782 76.3127 192.424 76.0342 191.882L76 196.409C75.9975 197.252 76.7375 198 77.6808 198H78.3082H78.3209H120.413C122.366 198 124.295 197.563 126.063 196.821L149.206 187.061C153.372 185.304 156 181.53 156 177.415V134.593C156 134.303 155.796 134 155.471 134Z" fill="#C9CEBD"/>
<path fill-rule="evenodd" clip-rule="evenodd" d="M99.9153 132.315V174.778C99.9153 178.965 97.2367 182.779 93.0275 184.585L77.5976 191.209C76.5902 191.641 76.9337 193 78.0512 193H120.445C122.351 193 124.234 192.621 125.958 191.891L143.054 184.653C147.295 182.857 150 179.028 150 174.821V132.315C150 132.141 149.843 132 149.649 132H100.266C100.072 132 99.9153 132.141 99.9153 132.315Z" fill="#231F20"/>
<path fill-rule="evenodd" clip-rule="evenodd" d="M7 156.529L211.973 156.977L215.532 156.986L222.149 157C224.03 157 225.575 155.527 225.814 153.653L242.953 19.3532C243.369 16.0861 240.994 13 237.715 13L25.3478 13.1935L7 156.529Z" fill="#2A2B2E"/>
<path fill-rule="evenodd" clip-rule="evenodd" d="M229.711 13C233.414 13 236.425 16.7321 235.951 20.417L218.66 153.662C218.42 155.535 216.83 156.938 214.947 156.938L213.326 157L3.7452 156.938C1.48718 156.938 -0.257649 154.947 0.031372 152.7L17.6698 16.7441C17.911 14.8705 19.3505 13 21.2332 13H229.711Z" fill="#C9CEBD"/>
<path fill-rule="evenodd" clip-rule="evenodd" d="M9.44018 84C9.42132 84 9.40182 83.9987 9.38296 83.9962C9.14148 83.965 8.97232 83.7456 9.00376 83.5061L17.7272 16.7201C17.9951 14.6503 19.7766 13.0894 21.8726 13.0894L160.56 13H160.56C160.803 13 161 13.1957 161 13.4376C161.001 13.6789 160.803 13.8746 160.56 13.8746L21.8726 13.9639C20.218 13.9639 18.8113 15.1973 18.5988 16.8327L9.87535 83.6193C9.84642 83.8393 9.65776 84 9.44018 84Z" fill="#2A2B2E"/>
<path fill-rule="evenodd" clip-rule="evenodd" d="M28.5533 157H4.2474C3.02796 157 1.86731 156.478 1.06074 155.567C0.252885 154.653 -0.121641 153.437 0.0349438 152.228L6.02481 106.387C6.05676 106.144 6.28237 105.97 6.52588 106.004C6.77066 106.036 6.94259 106.259 6.91127 106.502L0.921407 152.342C0.797418 153.297 1.09333 154.258 1.73245 154.98C2.36838 155.699 3.28552 156.112 4.2474 156.112H28.5533C28.8 156.112 29 156.311 29 156.556C29 156.801 28.8 157 28.5533 157Z" fill="#2A2B2E"/>
<path fill-rule="evenodd" clip-rule="evenodd" d="M132.561 157H75.4387C75.1971 157 75 156.776 75 156.5C75 156.224 75.1971 156 75.4387 156H132.561C132.804 156 133 156.224 133 156.5C133 156.776 132.804 157 132.561 157Z" fill="#2A2B2E"/>
<path fill-rule="evenodd" clip-rule="evenodd" d="M215.478 157H212.155C211.911 157 211.713 156.803 211.713 156.559C211.713 156.316 211.911 156.119 212.155 156.119H215.478C217.134 156.119 218.717 154.701 218.934 153.023L236.069 20.3354C236.28 18.7009 235.775 17.0544 234.684 15.8183C233.598 14.5879 232.033 13.8819 230.391 13.8819H206.442C206.198 13.8819 206 13.6839 206 13.4406C206 13.1973 206.198 13 206.442 13H230.391C232.287 13 234.095 13.815 235.349 15.2359C236.607 16.6623 237.189 18.5616 236.946 20.4476L219.812 153.135C219.541 155.231 217.557 157 215.478 157Z" fill="#2A2B2E"/>
<path fill-rule="evenodd" clip-rule="evenodd" d="M29.3726 23.6384C29.4937 22.7014 30.2948 22 31.2435 22H196.906C198.772 22 200.213 23.6321 199.974 25.4755L186.833 123.361C186.711 124.298 185.91 125 184.962 125H17.7053C16.6739 125 15.8785 124.097 16.0154 123.081L29.3726 23.6384Z" fill="white"/>
<path fill-rule="evenodd" clip-rule="evenodd" d="M196.91 21C198.773 21 200.213 22.6749 199.974 24.5665L198.553 33L28 32.9717L29.5964 22.6813C29.7179 21.7197 30.5174 21 31.4649 21H196.91Z" fill="#AA4465"/>
<path fill-rule="evenodd" clip-rule="evenodd" d="M21.4418 85C21.4229 85 21.4027 84.9987 21.3831 84.9962C21.1415 84.9632 20.9717 84.7407 21.0039 84.4979L29.1525 23.1021C29.3007 21.9388 30.2933 21.0602 31.4612 21.0602L166.558 21C166.802 21 167 21.1978 167 21.4425C167 21.6878 166.802 21.8862 166.558 21.8862L31.4612 21.9471C30.7356 21.9471 30.1198 22.4929 30.027 23.2175L21.8791 84.6152C21.8494 84.8377 21.6601 85 21.4418 85Z" fill="#2A2B2E"/>
<path fill-rule="evenodd" clip-rule="evenodd" d="M136.562 125H73.4379C73.1964 125 73 124.776 73 124.5C73 124.224 73.1964 124 73.4379 124H136.562C136.804 124 137 124.224 137 124.5C137 124.776 136.804 125 136.562 125Z" fill="#2A2B2E"/>
<path fill-rule="evenodd" clip-rule="evenodd" d="M187.444 113C187.424 113 187.404 112.999 187.383 112.996C187.14 112.963 186.971 112.743 187.004 112.504L189.118 97.3765C189.151 97.1373 189.374 96.9731 189.617 97.0037C189.86 97.0368 190.029 97.2572 189.996 97.4957L187.882 112.623C187.852 112.841 187.662 113 187.444 113Z" fill="#2A2B2E"/>
<path fill-rule="evenodd" clip-rule="evenodd" d="M195.608 55C195.589 55 195.569 54.9994 195.549 54.9962C195.308 54.963 195.139 54.7387 195.172 54.4952L199.099 24.9206C199.195 24.1551 198.963 23.382 198.458 22.8006C197.956 22.2232 197.234 21.8917 196.476 21.8917H181.44C181.197 21.8917 181 21.6916 181 21.4455C181 21.1995 181.197 21 181.44 21H196.476C197.487 21 198.451 21.4417 199.119 22.2123C199.79 22.9855 200.101 24.0149 199.971 25.0373L196.043 54.6137C196.014 54.8375 195.825 55 195.608 55Z" fill="#2A2B2E"/>
<path fill-rule="evenodd" clip-rule="evenodd" d="M71.5505 65H56.4438C54.9667 65 53.8277 63.7019 54.0215 62.2409L56.028 47.1187C56.1887 45.9059 57.2244 45 58.4495 45H73.5569C75.0333 45 76.1723 46.2974 75.9785 47.7585L73.9727 62.8813C73.8113 64.0941 72.7756 65 71.5505 65Z" fill="#C9CEBD"/>
<path fill-rule="evenodd" clip-rule="evenodd" d="M104.984 87.2533C105.134 86.0581 104.22 85 103.036 85H41.9644C40.9762 85 40.1414 85.7481 40.0162 86.7467C39.8659 87.9419 40.7805 89 41.9644 89H103.036C104.025 89 104.859 88.2519 104.984 87.2533Z" fill="#2A2B2E"/>
<path fill-rule="evenodd" clip-rule="evenodd" d="M112.984 27.2533C113.134 26.0581 112.219 25 111.036 25H49.9638C48.9755 25 48.1414 25.7481 48.0162 26.7467C47.8659 27.9419 48.7805 29 49.9638 29H111.036C112.025 29 112.859 28.2519 112.984 27.2533Z" fill="#2A2B2E"/>
<path fill-rule="evenodd" clip-rule="evenodd" d="M175.983 27.2533C176.141 26.0581 175.179 25 173.933 25H168.067C167.027 25 166.149 25.7481 166.017 26.7467C165.859 27.9419 166.822 29 168.067 29H173.933C174.974 29 175.852 28.2519 175.983 27.2533Z" fill="#2A2B2E"/>
<path fill-rule="evenodd" clip-rule="evenodd" d="M101.984 109.253C102.134 108.058 101.219 107 100.036 107H38.9644C37.9755 107 37.1414 107.748 37.0162 108.746C36.8659 109.942 37.7805 111 38.9644 111H100.036C101.025 111 101.859 110.252 101.984 109.253Z" fill="#2A2B2E"/>
<path fill-rule="evenodd" clip-rule="evenodd" d="M117.045 96H40.9549C39.9713 96 39.1412 96.7482 39.016 97.747C38.867 98.9423 39.7773 100 40.9549 100H117.045C118.025 100 118.854 99.2569 118.983 98.2633C119.138 97.0647 118.227 96 117.045 96Z" fill="#2A2B2E"/>
<path fill-rule="evenodd" clip-rule="evenodd" d="M120.024 74H42.9751C41.9808 74 41.142 74.7482 41.0162 75.747C40.8656 76.9423 41.7853 78 42.9751 78H120.024C121.014 78 121.852 77.2575 121.983 76.2633C122.139 75.0647 121.218 74 120.024 74Z" fill="#2A2B2E"/>
<path fill-rule="evenodd" clip-rule="evenodd" d="M136.509 107H135.344C134.666 107 134.023 106.708 133.577 106.201C133.132 105.692 132.93 105.019 133.022 104.351L137.777 70.0129C137.937 68.8651 138.935 68 140.1 68H166.656C167.334 68 167.978 68.2909 168.423 68.7992C168.868 69.3069 169.07 69.9812 168.978 70.6493L168.872 71.4174C168.838 71.6602 168.613 71.8275 168.369 71.7958C168.126 71.7622 167.955 71.5391 167.988 71.2964L168.095 70.5282C168.153 70.1143 168.027 69.6967 167.751 69.3817C167.475 69.0667 167.076 68.886 166.656 68.886H140.1C139.378 68.886 138.759 69.4222 138.66 70.134L133.905 104.471C133.847 104.886 133.974 105.303 134.249 105.618C134.525 105.933 134.924 106.113 135.344 106.113H136.509C136.755 106.113 136.954 106.312 136.954 106.557C136.954 106.802 136.755 107 136.509 107Z" fill="#2A2B2E"/>
<path fill-rule="evenodd" clip-rule="evenodd" d="M166.458 111H139.773C138.698 111 137.87 110.054 138.017 108.993L142.785 74.5248C142.906 73.6515 143.655 73 144.541 73H171.227C172.302 73 173.13 73.946 172.983 75.0069L168.215 109.475C168.094 110.349 167.344 111 166.458 111Z" fill="#C9CEBD"/>
<path fill-rule="evenodd" clip-rule="evenodd" d="M197.036 217H134.863C131.339 217 128.611 213.914 129.046 210.419L140.147 120.134C140.512 117.202 143.006 115 145.964 115H208.137C211.661 115 214.389 118.086 213.954 121.581L202.854 211.865C202.489 214.798 199.995 217 197.036 217Z" fill="white"/>
<path fill-rule="evenodd" clip-rule="evenodd" d="M146.429 115.884C143.695 115.884 141.379 117.927 141.041 120.637L129.926 211.024C129.734 212.567 130.214 214.119 131.244 215.284C132.274 216.449 133.757 217.117 135.313 217.117H197.571C200.305 217.117 202.621 215.073 202.958 212.363L214.074 121.977C214.266 120.434 213.785 118.881 212.755 117.716C211.726 116.552 210.242 115.884 208.687 115.884H146.429ZM197.571 218H135.313C133.504 218 131.779 217.224 130.581 215.869C129.384 214.514 128.825 212.709 129.048 210.915L140.164 120.529C140.557 117.377 143.25 115 146.429 115H208.687C210.496 115 212.221 115.777 213.419 117.131C214.616 118.486 215.175 120.292 214.952 122.085L203.836 212.471C203.443 215.624 200.75 218 197.571 218Z" fill="#2A2B2E"/>
<path fill-rule="evenodd" clip-rule="evenodd" d="M190.984 176.253C191.134 175.058 190.214 174 189.024 174H147.976C146.982 174 146.143 174.748 146.016 175.747C145.866 176.942 146.786 178 147.976 178H189.024C190.019 178 190.858 177.252 190.984 176.253Z" fill="#2A2B2E"/>
<path fill-rule="evenodd" clip-rule="evenodd" d="M171.984 186.253C172.133 185.058 171.222 184 170.044 184H146.956C145.972 184 145.141 184.748 145.016 185.747C144.867 186.942 145.778 188 146.956 188H170.044C171.029 188 171.859 187.252 171.984 186.253Z" fill="#2A2B2E"/>
<path fill-rule="evenodd" clip-rule="evenodd" d="M176.984 196.253C177.134 195.058 176.218 194 175.033 194H145.967C144.978 194 144.141 194.748 144.016 195.747C143.866 196.942 144.782 198 145.967 198H175.033C176.023 198 176.859 197.252 176.984 196.253Z" fill="#2A2B2E"/>
<path fill-rule="evenodd" clip-rule="evenodd" d="M189.213 162H154.718C151.873 162 149.676 159.522 150.039 156.724L153.109 133.081C153.412 130.747 155.415 129 157.788 129H192.283C195.127 129 197.324 131.478 196.961 134.276L193.891 157.919C193.588 160.253 191.585 162 189.213 162Z" fill="white"/>
<path fill-rule="evenodd" clip-rule="evenodd" d="M150.026 157.348L150.567 152.656C150.628 152.122 150.868 151.625 151.247 151.247L163.82 138.689C164.742 137.769 166.231 137.77 167.15 138.694L173.241 144.806C174.126 145.694 175.547 145.734 176.48 144.897L176.925 144.498C177.889 143.633 179.367 143.708 180.239 144.668L192.383 158.03C192.821 158.512 193.042 159.155 192.993 159.806C192.9 161.052 189.384 162.012 188.141 162L153.815 161.661C151.527 161.64 149.763 159.631 150.026 157.348Z" fill="#AA4465"/>
<path fill-rule="evenodd" clip-rule="evenodd" d="M191 138.5C191 140.433 189.433 142 187.5 142C185.567 142 184 140.433 184 138.5C184 136.567 185.567 135 187.5 135C189.433 135 191 136.567 191 138.5Z" fill="#C9CEBD"/>
<path fill-rule="evenodd" clip-rule="evenodd" d="M158.023 129.875C156.019 129.875 154.314 131.366 154.058 133.344L150.913 157.64C150.767 158.773 151.117 159.916 151.876 160.774C152.635 161.632 153.73 162.124 154.878 162.124H189.976C191.982 162.124 193.686 160.634 193.942 158.656L197.087 134.359C197.233 133.226 196.883 132.084 196.124 131.226C195.365 130.368 194.271 129.875 193.122 129.875H158.023ZM189.976 163H154.878C153.476 163 152.141 162.399 151.215 161.352C150.29 160.306 149.861 158.912 150.04 157.529L153.185 133.232C153.498 130.819 155.577 129 158.023 129H193.122C194.524 129 195.859 129.6 196.785 130.647C197.71 131.694 198.139 133.088 197.96 134.471L194.815 158.768C194.503 161.181 192.423 163 189.976 163Z" fill="#2A2B2E"/>
<path fill-rule="evenodd" clip-rule="evenodd" d="M203.122 0H170.346C168.89 0 167.664 1.18717 167.489 2.66666L166.021 15.0693C165.814 16.8238 167.152 18.3442 168.878 18.3442H169.817C170.482 18.3442 170.999 18.9391 170.921 19.6165L170.14 26.648C170.107 26.9499 170.469 27.1207 170.671 26.8994L177.752 19.1796C178.241 18.6461 178.923 18.3442 179.637 18.3442H201.654C203.11 18.3442 204.336 17.2939 204.511 15.8138L205.979 3.3434C206.186 1.58823 204.849 0 203.122 0Z" fill="white"/>
<path fill-rule="evenodd" clip-rule="evenodd" d="M170.797 0.866174C169.585 0.866174 168.517 1.83265 168.366 3.06721L166.894 15.0717C166.81 15.7614 167.018 16.4257 167.482 16.9433C167.946 17.4597 168.617 17.7563 169.324 17.7563H170.265C170.708 17.7563 171.132 17.9439 171.427 18.2714C171.722 18.5989 171.861 19.0366 171.809 19.4713L171.071 25.8936L177.906 18.7017C178.478 18.1011 179.283 17.7563 180.117 17.7563H202.203C203.465 17.7563 204.487 16.8864 204.633 15.6883L206.106 3.61762C206.191 2.91862 205.968 2.21342 205.491 1.6822C205.025 1.16336 204.363 0.866174 203.675 0.866174H170.797ZM170.898 27C170.792 27 170.685 26.9777 170.584 26.9319C170.291 26.7975 170.119 26.4948 170.156 26.1778L170.939 19.3716C170.962 19.1778 170.903 18.9921 170.772 18.8472C170.642 18.7023 170.462 18.6224 170.265 18.6224H169.324C168.366 18.6224 167.456 18.2194 166.826 17.5173C166.203 16.8226 165.911 15.8933 166.024 14.967L167.496 2.96258C167.7 1.30143 169.15 0 170.797 0H203.675C204.614 0 205.515 0.403678 206.147 1.10826C206.789 1.8246 207.092 2.77683 206.976 3.72102L205.504 15.7924C205.303 17.4325 203.915 18.6224 202.203 18.6224H180.117C179.524 18.6224 178.951 18.8676 178.545 19.2948L171.442 26.7672C171.298 26.9195 171.099 27 170.898 27Z" fill="#2A2B2E"/>
<path fill-rule="evenodd" clip-rule="evenodd" d="M180 10C180 11.6571 178.656 13 177 13C175.344 13 174 11.6571 174 10C174 8.3429 175.344 7 177 7C178.656 7 180 8.3429 180 10Z" fill="#C9CEBD"/>
<path fill-rule="evenodd" clip-rule="evenodd" d="M189 10C189 11.6571 187.657 13 186 13C184.343 13 183 11.6571 183 10C183 8.3429 184.343 7 186 7C187.657 7 189 8.3429 189 10Z" fill="#C9CEBD"/>
<path fill-rule="evenodd" clip-rule="evenodd" d="M199 10C199 11.6571 197.656 13 195.999 13C194.344 13 193 11.6571 193 10C193 8.3429 194.344 7 195.999 7C197.656 7 199 8.3429 199 10Z" fill="#C9CEBD"/>
<path fill-rule="evenodd" clip-rule="evenodd" d="M243.249 39H223.309C222.423 39 221.677 39.7241 221.571 40.6259L220.013 52.5833C219.886 53.6527 220.701 54.5796 221.751 54.5796H222.118C222.632 54.5796 223.03 55.0395 222.97 55.562L222.601 58.7922C222.581 58.9668 222.786 59.0692 222.907 58.9457L226.933 54.8354C227.094 54.6717 227.312 54.5796 227.538 54.5796H241.691C242.577 54.5796 243.323 53.9393 243.429 53.0374L244.987 41.0385C245.113 39.9684 244.3 39 243.249 39Z" fill="white"/>
<mask id="mask0_0:4188" style="mask-type:alpha" maskUnits="userSpaceOnUse" x="220" y="39" width="26" height="21">
<path fill-rule="evenodd" clip-rule="evenodd" d="M220 39H246V60H220V39Z" fill="white"/>
</mask>
<g mask="url(#mask0_0:4188)">
<path fill-rule="evenodd" clip-rule="evenodd" d="M223.763 39.8994C223.109 39.8994 222.533 40.4432 222.451 41.1375L220.885 53.1605C220.84 53.5411 220.953 53.9133 221.202 54.2026C221.452 54.4919 221.815 54.6584 222.197 54.6584H222.567C222.938 54.6584 223.292 54.821 223.539 55.1058C223.785 55.39 223.901 55.7699 223.858 56.1479L223.573 58.6448L227.097 55.0467C227.342 54.7966 227.667 54.6584 228.014 54.6584H242.237C242.918 54.6584 243.469 54.173 243.548 53.5038L245.115 41.439C245.16 41.0514 245.039 40.6554 244.781 40.3565C244.526 40.0614 244.179 39.8994 243.802 39.8994H223.763ZM223.231 60C223.14 60 223.047 59.9788 222.961 59.9357C222.724 59.8181 222.585 59.5583 222.616 59.2903L222.988 56.0431C223.002 55.9178 222.965 55.7976 222.884 55.7031C222.802 55.6092 222.689 55.5571 222.567 55.5571H222.197C221.565 55.5571 220.963 55.2807 220.547 54.7985C220.134 54.3215 219.941 53.6832 220.016 53.0474L221.582 41.0244C221.715 39.8917 222.674 39 223.763 39H243.802C244.424 39 245.019 39.2771 245.437 39.7605C245.861 40.2517 246.061 40.9042 245.984 41.5522L244.418 53.6169C244.286 54.7388 243.368 55.5571 242.237 55.5571H228.014C227.9 55.5571 227.795 55.6021 227.715 55.6838L223.669 59.8149C223.55 59.9357 223.391 60 223.231 60Z" fill="#2A2B2E"/>
</g>
<path fill-rule="evenodd" clip-rule="evenodd" d="M236.362 43.7784C235.947 43.2749 235.378 42.998 234.76 43C234.298 43.0014 233.876 43.1663 233.504 43.4908C233.317 43.6544 233.147 43.8542 232.997 44.0875C232.846 43.8555 232.676 43.6557 232.488 43.4928C232.115 43.1703 231.692 43.0074 231.23 43.0087C230.612 43.0101 230.044 43.2897 229.631 43.7952C229.223 44.2953 228.999 44.9772 229 45.7154C229.001 46.475 229.255 47.171 229.797 47.9031C230.282 48.5582 230.98 49.2233 231.788 49.9923C232.063 50.2551 232.375 50.5528 232.7 50.8706C232.786 50.9544 232.895 51.0007 233.01 51C233.123 51 233.234 50.9537 233.318 50.8693C233.641 50.5501 233.953 50.2504 234.229 49.9863C235.033 49.2125 235.728 48.5448 236.21 47.887C236.75 47.1522 237.001 46.4556 237 45.6953C236.999 44.9571 236.772 44.2759 236.362 43.7784Z" fill="#AA4465"/>
<path fill-rule="evenodd" clip-rule="evenodd" d="M220.923 90.9614C213.16 100.351 199.29 101.712 189.943 94.0017C180.597 86.2911 179.313 72.4288 187.078 63.0386C194.84 53.6491 208.711 52.2877 218.056 59.9983C227.403 67.7089 228.686 81.5712 220.923 90.9614Z" fill="white"/>
<path fill-rule="evenodd" clip-rule="evenodd" d="M204.644 55.8705C198.393 55.8705 192.176 58.5027 187.879 63.5865C184.177 67.9666 182.44 73.4851 182.989 79.125C183.534 84.7206 186.27 89.7677 190.692 93.3371C199.857 100.734 213.508 99.4222 221.121 90.4141C224.823 86.0333 226.56 80.5149 226.011 74.8756C225.466 69.2799 222.73 64.2322 218.308 60.6629C214.315 57.4403 209.469 55.8705 204.644 55.8705ZM204.356 99C199.33 99 194.285 97.366 190.126 94.009C185.521 90.2914 182.671 85.0345 182.104 79.2072C181.532 73.3363 183.34 67.5911 187.194 63.0317C195.119 53.653 209.331 52.2893 218.874 59.991C223.48 63.7079 226.329 68.9648 226.896 74.7928C227.468 80.6637 225.66 86.4088 221.806 90.9689C217.335 96.2595 210.861 99 204.356 99Z" fill="#2A2B2E"/>
<path fill-rule="evenodd" clip-rule="evenodd" d="M202.434 90C202.411 90 202.389 89.9987 202.367 89.9949C202.13 89.9576 201.969 89.7319 202.005 89.4898L203.886 77.1271C203.903 77.0158 203.961 76.9153 204.048 76.8457L211.301 71.0933C211.49 70.9429 211.763 70.9783 211.909 71.1711C212.056 71.3633 212.021 71.6415 211.833 71.7913L204.716 77.4369L202.861 89.6257C202.828 89.8438 202.644 90 202.434 90Z" fill="#2A2B2E"/>
<path fill-rule="evenodd" clip-rule="evenodd" d="M216.654 64.452C216.125 65.092 215.178 65.1849 214.542 64.6594C213.904 64.1333 213.817 63.1881 214.347 62.548C214.876 61.908 215.821 61.8151 216.459 62.3406C217.096 62.8667 217.183 63.8119 216.654 64.452Z" fill="#C9CEBD"/>
<path fill-rule="evenodd" clip-rule="evenodd" d="M207.978 60.7445C207.839 61.5621 207.063 62.1146 206.247 61.9797C205.43 61.8448 204.882 61.0719 205.022 60.255C205.162 59.4381 205.937 58.8849 206.753 59.0204C207.569 59.1554 208.118 59.9275 207.978 60.7445Z" fill="#C9CEBD"/>
<path fill-rule="evenodd" clip-rule="evenodd" d="M198.906 60.9721C199.194 61.7476 198.797 62.6118 198.02 62.904C197.243 63.1948 196.381 62.803 196.093 62.0282C195.806 61.2528 196.203 60.3879 196.98 60.0964C197.757 59.8049 198.619 60.1967 198.906 60.9721Z" fill="#C9CEBD"/>
<path fill-rule="evenodd" clip-rule="evenodd" d="M191.459 65.3406C192.095 65.8661 192.183 66.8113 191.654 67.452C191.125 68.0921 190.178 68.185 189.542 67.6589C188.904 67.1334 188.817 66.1882 189.347 65.5481C189.876 64.908 190.822 64.8151 191.459 65.3406Z" fill="#C9CEBD"/>
<path fill-rule="evenodd" clip-rule="evenodd" d="M186.753 73.0203C187.569 73.1559 188.118 73.9274 187.978 74.7451C187.839 75.5621 187.063 76.1146 186.247 75.9797C185.431 75.8448 184.882 75.0726 185.022 74.2556C185.161 73.4379 185.937 72.8854 186.753 73.0203Z" fill="#C9CEBD"/>
<path fill-rule="evenodd" clip-rule="evenodd" d="M186.98 82.0964C187.757 81.8049 188.619 82.1967 188.907 82.9723C189.194 83.7478 188.797 84.6121 188.02 84.9036C187.244 85.1951 186.38 84.8033 186.093 84.0277C185.807 83.2529 186.203 82.3879 186.98 82.0964Z" fill="#C9CEBD"/>
<path fill-rule="evenodd" clip-rule="evenodd" d="M192.346 89.548C192.875 88.908 193.821 88.8151 194.458 89.3406C195.096 89.8667 195.183 90.8119 194.654 91.452C194.124 92.092 193.179 92.1849 192.541 91.6594C191.904 91.1333 191.817 90.1881 192.346 89.548Z" fill="#C9CEBD"/>
<path fill-rule="evenodd" clip-rule="evenodd" d="M200.022 94.2555C200.161 93.4379 200.937 92.8854 201.753 93.0203C202.57 93.1552 203.118 93.9281 202.978 94.745C202.839 95.5619 202.064 96.1151 201.247 95.9796C200.431 95.8446 199.882 95.0725 200.022 94.2555Z" fill="#C9CEBD"/>
<path fill-rule="evenodd" clip-rule="evenodd" d="M209.093 94.0279C208.806 93.2524 209.203 92.3882 209.981 92.096C210.757 91.8052 211.619 92.197 211.907 92.9718C212.194 93.7472 211.797 94.6121 211.02 94.9036C210.243 95.1951 209.381 94.8033 209.093 94.0279Z" fill="#C9CEBD"/>
<path fill-rule="evenodd" clip-rule="evenodd" d="M216.541 89.6594C215.904 89.1339 215.817 88.1887 216.346 87.548C216.875 86.9079 217.821 86.815 218.458 87.3411C219.096 87.8666 219.183 88.8118 218.654 89.4519C218.124 90.092 217.179 90.1849 216.541 89.6594Z" fill="#C9CEBD"/>
<path fill-rule="evenodd" clip-rule="evenodd" d="M221.247 80.9796C220.431 80.8446 219.882 80.0725 220.022 79.2555C220.161 78.4379 220.937 77.8854 221.753 78.0203C222.569 78.1552 223.118 78.9274 222.978 79.745C222.839 80.5619 222.063 81.1151 221.247 80.9796Z" fill="#C9CEBD"/>
<path fill-rule="evenodd" clip-rule="evenodd" d="M221.02 72.9036C220.243 73.1951 219.381 72.8033 219.093 72.0277C218.806 71.2522 219.203 70.3879 219.98 70.0964C220.756 69.8049 221.62 70.1967 221.907 70.9723C222.193 71.7471 221.797 72.6121 221.02 72.9036Z" fill="#C9CEBD"/>
<path fill-rule="evenodd" clip-rule="evenodd" d="M164.682 168.313C164.563 168.313 164.444 168.265 164.358 168.172C164.195 167.994 164.208 167.72 164.386 167.559C164.954 167.046 165.58 166.549 166.248 166.08C166.444 165.942 166.718 165.987 166.858 166.182C166.998 166.377 166.951 166.648 166.755 166.787C166.116 167.235 165.518 167.711 164.976 168.199C164.893 168.276 164.787 168.313 164.682 168.313ZM161.769 171.9C161.697 171.9 161.625 171.883 161.558 171.847C161.347 171.731 161.269 171.467 161.386 171.258C161.762 170.58 162.217 169.915 162.737 169.281C162.889 169.095 163.164 169.067 163.352 169.218C163.54 169.369 163.569 169.643 163.416 169.828C162.928 170.421 162.504 171.043 162.153 171.676C162.073 171.819 161.923 171.9 161.769 171.9ZM160.439 176.294C160.428 176.294 160.418 176.294 160.408 176.293C160.167 176.276 159.985 176.069 160.001 175.831C160.056 175.035 160.204 174.239 160.442 173.465C160.512 173.235 160.756 173.107 160.987 173.176C161.219 173.245 161.349 173.488 161.279 173.717C161.061 174.428 160.925 175.159 160.875 175.89C160.859 176.119 160.666 176.294 160.439 176.294ZM161.156 180.822C160.981 180.822 160.815 180.717 160.748 180.545C160.452 179.787 160.238 179.009 160.112 178.232C160.074 177.995 160.236 177.772 160.475 177.735C160.713 177.696 160.939 177.858 160.977 178.095C161.093 178.812 161.29 179.531 161.565 180.232C161.652 180.455 161.54 180.707 161.315 180.793C161.263 180.813 161.209 180.822 161.156 180.822ZM163.606 184.729C163.485 184.729 163.365 184.679 163.279 184.583C162.736 183.978 162.25 183.338 161.834 182.68C161.705 182.477 161.768 182.209 161.973 182.082C162.177 181.956 162.448 182.017 162.576 182.219C162.966 182.836 163.422 183.438 163.934 184.007C164.094 184.187 164.078 184.46 163.897 184.619C163.813 184.692 163.71 184.729 163.606 184.729ZM167.168 187.694C167.088 187.694 167.007 187.673 166.934 187.627C166.252 187.2 165.602 186.731 165.002 186.234C164.816 186.081 164.792 185.806 164.947 185.623C165.102 185.439 165.378 185.414 165.563 185.568C166.133 186.041 166.752 186.487 167.402 186.895C167.606 187.022 167.668 187.29 167.538 187.493C167.455 187.623 167.313 187.694 167.168 187.694ZM171.371 189.685C171.323 189.685 171.274 189.677 171.227 189.661C170.469 189.4 169.728 189.1 169.024 188.767C168.805 188.665 168.712 188.405 168.816 188.19C168.92 187.973 169.181 187.882 169.4 187.984C170.075 188.303 170.787 188.591 171.514 188.842C171.742 188.921 171.864 189.167 171.784 189.394C171.721 189.573 171.552 189.685 171.371 189.685ZM175.906 190.753C175.886 190.753 175.866 190.751 175.845 190.749C175.055 190.64 174.269 190.496 173.51 190.318C173.275 190.262 173.13 190.029 173.185 189.796C173.241 189.563 173.476 189.418 173.713 189.474C174.444 189.645 175.203 189.785 175.965 189.89C176.205 189.922 176.372 190.141 176.339 190.379C176.309 190.596 176.121 190.753 175.906 190.753ZM179.558 190.999C179.109 190.999 178.655 190.988 178.207 190.966C177.966 190.955 177.779 190.751 177.791 190.512C177.803 190.273 178 190.086 178.25 190.1C178.689 190.121 179.144 190.121 179.575 190.132C179.896 190.132 180.22 190.126 180.547 190.115C180.789 190.1 180.992 190.294 181 190.533C181.008 190.772 180.819 190.973 180.577 190.981C180.235 190.994 179.884 191.004 179.558 190.999Z" fill="#C9CEBD"/>
<path fill-rule="evenodd" clip-rule="evenodd" d="M112.585 80.1194C112.393 80.1194 112.218 79.9949 112.161 79.8031C112.093 79.5698 112.227 79.3258 112.461 79.2572C113.048 79.0862 113.645 79 114.237 79C114.472 79.0057 114.728 79.0145 114.968 79.044C115.21 79.0729 115.383 79.2931 115.353 79.5339C115.323 79.7748 115.101 79.9458 114.861 79.9175C114.657 79.8924 114.448 79.8798 114.24 79.8798H114.237C113.729 79.8798 113.215 79.9546 112.708 80.1018C112.667 80.1137 112.626 80.1194 112.585 80.1194ZM119.049 82.0173C118.95 82.0173 118.85 81.984 118.767 81.9155C118.219 81.462 117.636 81.047 117.036 80.6829C116.994 80.6577 116.953 80.6332 116.911 80.6093C116.699 80.4885 116.626 80.2194 116.747 80.0087C116.869 79.798 117.138 79.7251 117.35 79.8458C117.399 79.8735 117.447 79.9024 117.495 79.9314C118.133 80.3181 118.751 80.7583 119.332 81.2394C119.519 81.3947 119.545 81.6721 119.389 81.8589C119.302 81.9632 119.176 82.0173 119.049 82.0173ZM108.836 82.8204C108.745 82.8204 108.654 82.7934 108.576 82.7374C108.379 82.5946 108.335 82.3198 108.478 82.123C108.971 81.4451 109.56 80.8539 110.227 80.3672C110.424 80.2238 110.701 80.2665 110.844 80.4621C110.989 80.6583 110.946 80.9332 110.75 81.0765C110.155 81.5098 109.632 82.0356 109.193 82.6387C109.107 82.7575 108.971 82.8204 108.836 82.8204ZM122.19 85.4906C122.049 85.4906 121.912 85.4239 121.826 85.2994C121.384 84.6567 120.907 84.0511 120.412 83.4989C120.249 83.3185 120.264 83.0399 120.446 82.8783C120.628 82.7154 120.907 82.7317 121.07 82.9122C121.591 83.4927 122.091 84.1285 122.554 84.802C122.692 85.0026 122.641 85.2761 122.439 85.4132C122.363 85.4654 122.277 85.4906 122.19 85.4906ZM107.445 87.2131C107.209 87.2131 107.013 87.0263 107.004 86.7892C107.001 86.7037 107 86.6182 107 86.5339C107 85.7937 107.118 85.0516 107.351 84.3284C107.426 84.0976 107.674 83.9693 107.907 84.0442C108.139 84.1184 108.267 84.3655 108.192 84.597C107.988 85.2334 107.883 85.8849 107.883 86.5339C107.883 86.6081 107.885 86.6829 107.887 86.7578C107.895 87.0005 107.705 87.2043 107.462 87.2131C107.456 87.2131 107.451 87.2131 107.445 87.2131ZM124.425 89.6122C124.254 89.6122 124.09 89.5116 124.018 89.3443C123.706 88.6142 123.371 87.9143 123.02 87.2634C122.905 87.0489 122.986 86.7823 123.201 86.6678C123.415 86.5528 123.683 86.6332 123.799 86.8477C124.161 87.5212 124.509 88.2457 124.831 89.0003C124.927 89.2236 124.822 89.4814 124.597 89.577C124.542 89.6009 124.483 89.6122 124.425 89.6122ZM109.177 91.4768C109.051 91.4768 108.927 91.4234 108.839 91.3202C108.283 90.6631 107.847 89.9562 107.54 89.2185C107.446 88.994 107.553 88.7368 107.779 88.6438C108.004 88.5507 108.262 88.6576 108.356 88.8821C108.627 89.5361 109.018 90.1656 109.515 90.7536C109.672 90.9398 109.648 91.2165 109.461 91.3731C109.379 91.4429 109.278 91.4768 109.177 91.4768ZM125.954 94.0495C125.76 94.0495 125.582 93.9212 125.528 93.7263C125.315 92.9559 125.085 92.2095 124.845 91.5076C124.766 91.2775 124.89 91.0278 125.121 90.9492C125.352 90.8706 125.602 90.9938 125.681 91.224C125.927 91.9422 126.161 92.7056 126.38 93.493C126.444 93.7269 126.306 93.969 126.071 94.0332C126.032 94.0445 125.992 94.0495 125.954 94.0495ZM112.897 94.2948C112.829 94.2948 112.76 94.2797 112.696 94.247C111.941 93.8628 111.247 93.437 110.632 92.9817C110.436 92.8371 110.395 92.5616 110.541 92.3667C110.687 92.1717 110.964 92.1321 111.159 92.2761C111.734 92.7019 112.388 93.1012 113.098 93.4634C113.315 93.5741 113.402 93.8389 113.291 94.0552C113.212 94.2074 113.057 94.2948 112.897 94.2948ZM117.302 95.9242C117.265 95.9242 117.227 95.9192 117.189 95.9091C116.387 95.6984 115.618 95.4595 114.904 95.1991C114.676 95.1155 114.557 94.8633 114.641 94.635C114.725 94.4067 114.978 94.2891 115.207 94.3734C115.896 94.6237 116.639 94.8551 117.414 95.0589C117.65 95.1211 117.791 95.3614 117.729 95.5966C117.676 95.7934 117.498 95.9242 117.302 95.9242ZM121.924 96.8034C121.905 96.8034 121.886 96.8021 121.866 96.7996C121.054 96.6952 120.263 96.5707 119.516 96.4304C119.276 96.3852 119.119 96.155 119.164 95.9167C119.209 95.6777 119.441 95.5186 119.679 95.5657C120.411 95.7035 121.184 95.8255 121.979 95.928C122.222 95.9588 122.392 96.1795 122.36 96.4204C122.332 96.6417 122.142 96.8034 121.924 96.8034ZM129.479 97.2455C129.306 97.2455 129.134 97.2448 128.964 97.2436C128.721 97.2423 128.524 97.0442 128.526 96.8008C128.527 96.5594 128.725 96.3644 128.967 96.3644H128.97C129.734 96.3694 130.524 96.3625 131.312 96.3443C131.55 96.3468 131.758 96.5317 131.764 96.7744C131.769 97.0172 131.576 97.2184 131.332 97.2241C130.711 97.2385 130.088 97.2455 129.479 97.2455ZM126.995 98.6271C126.786 98.6271 126.601 98.4799 126.562 98.2686C126.49 97.8913 126.42 97.5297 126.348 97.1775C125.625 97.1455 124.913 97.1008 124.228 97.0455C123.985 97.026 123.805 96.8134 123.824 96.5713C123.844 96.3292 124.055 96.1525 124.3 96.1688C124.902 96.2173 125.525 96.2575 126.159 96.2883C126.137 96.1864 126.115 96.0852 126.092 95.9839C126.038 95.7469 126.188 95.5117 126.426 95.4582C126.664 95.4054 126.9 95.5544 126.954 95.7915C127.119 96.5223 127.274 97.28 127.43 98.1064C127.474 98.3454 127.316 98.5749 127.077 98.6195C127.049 98.6252 127.021 98.6271 126.995 98.6271ZM127.761 103.262C127.547 103.262 127.359 103.106 127.326 102.889L127.271 102.534C127.175 101.914 127.073 101.256 126.962 100.572C126.923 100.331 127.086 100.106 127.327 100.067C127.57 100.026 127.795 100.19 127.833 100.431C127.945 101.119 128.048 101.778 128.143 102.401L128.198 102.755C128.236 102.995 128.07 103.22 127.83 103.256C127.806 103.26 127.784 103.262 127.761 103.262ZM128.702 107.861C128.512 107.861 128.336 107.737 128.279 107.546C128.133 107.056 128.006 106.575 127.9 106.119C127.836 105.843 127.775 105.543 127.714 105.22C127.669 104.981 127.827 104.751 128.067 104.706C128.306 104.662 128.538 104.819 128.582 105.058C128.64 105.368 128.7 105.657 128.761 105.921C128.863 106.36 128.986 106.823 129.126 107.296C129.196 107.529 129.062 107.774 128.828 107.843C128.786 107.855 128.744 107.861 128.702 107.861ZM130.393 112.242C130.228 112.242 130.069 112.149 129.994 111.991C129.654 111.28 129.337 110.544 129.05 109.803C128.963 109.576 129.076 109.322 129.304 109.234C129.531 109.148 129.787 109.259 129.875 109.486C130.153 110.207 130.462 110.922 130.791 111.613C130.896 111.832 130.803 112.094 130.582 112.199C130.521 112.228 130.457 112.242 130.393 112.242ZM132.76 116.296C132.621 116.296 132.485 116.23 132.398 116.109C131.947 115.472 131.513 114.796 131.108 114.1C130.986 113.89 131.058 113.62 131.269 113.499C131.48 113.378 131.75 113.449 131.872 113.659C132.264 114.332 132.684 114.986 133.121 115.602C133.261 115.801 133.213 116.075 133.014 116.215C132.936 116.269 132.848 116.296 132.76 116.296ZM135.843 119.831C135.736 119.831 135.628 119.792 135.543 119.714C134.968 119.184 134.407 118.605 133.875 117.993C133.715 117.809 133.735 117.531 133.92 117.373C134.103 117.212 134.383 117.234 134.542 117.417C135.054 118.005 135.592 118.56 136.144 119.069C136.322 119.234 136.332 119.512 136.168 119.69C136.08 119.784 135.962 119.831 135.843 119.831ZM174.116 119.946C173.885 119.946 173.691 119.766 173.676 119.533C173.661 119.291 173.846 119.082 174.089 119.067C174.903 119.016 175.71 119.011 176.493 119.052C176.736 119.064 176.923 119.271 176.911 119.514C176.898 119.757 176.686 119.939 176.446 119.93C175.698 119.892 174.925 119.897 174.144 119.945C174.135 119.945 174.126 119.946 174.116 119.946ZM169.468 120.653C169.267 120.653 169.084 120.514 169.037 120.309C168.984 120.072 169.134 119.837 169.372 119.784C170.218 119.594 170.982 119.447 171.71 119.333C171.95 119.293 172.177 119.458 172.216 119.699C172.253 119.939 172.089 120.164 171.848 120.202C171.14 120.313 170.393 120.457 169.565 120.642C169.533 120.649 169.5 120.653 169.468 120.653ZM181.103 120.719C181.062 120.719 181.021 120.713 180.98 120.702C180.226 120.485 179.471 120.312 178.734 120.185C178.493 120.144 178.331 119.917 178.373 119.677C178.415 119.438 178.646 119.28 178.883 119.319C179.652 119.45 180.44 119.631 181.225 119.856C181.459 119.923 181.594 120.167 181.527 120.401C181.472 120.593 181.295 120.719 181.103 120.719ZM164.907 121.817C164.713 121.817 164.535 121.688 164.481 121.492C164.418 121.258 164.557 121.017 164.793 120.953L164.976 120.904C165.692 120.711 166.388 120.523 167.07 120.346C167.306 120.284 167.548 120.425 167.61 120.66C167.67 120.895 167.53 121.135 167.294 121.197C166.614 121.373 165.92 121.56 165.208 121.753L165.023 121.802C164.984 121.812 164.946 121.817 164.907 121.817ZM139.656 122.562C139.586 122.562 139.514 122.545 139.447 122.509C138.748 122.134 138.061 121.705 137.405 121.234C137.207 121.092 137.163 120.817 137.305 120.621C137.448 120.423 137.725 120.379 137.921 120.521C138.546 120.97 139.2 121.377 139.865 121.735C140.08 121.85 140.161 122.117 140.045 122.331C139.965 122.478 139.813 122.562 139.656 122.562ZM185.267 122.819C185.165 122.819 185.06 122.783 184.977 122.71C184.431 122.236 183.804 121.823 183.113 121.485C182.894 121.378 182.803 121.114 182.911 120.897C183.019 120.678 183.283 120.589 183.503 120.695C184.263 121.068 184.954 121.522 185.558 122.048C185.742 122.207 185.761 122.485 185.6 122.668C185.512 122.768 185.39 122.819 185.267 122.819ZM160.349 122.99C160.148 122.99 159.968 122.854 159.919 122.652C159.863 122.416 160.01 122.178 160.247 122.122C160.947 121.958 161.691 121.773 162.522 121.557C162.759 121.497 162.999 121.637 163.061 121.872C163.122 122.107 162.981 122.348 162.745 122.409C161.907 122.625 161.157 122.812 160.451 122.979C160.417 122.987 160.382 122.99 160.349 122.99ZM155.736 123.928C155.524 123.928 155.337 123.777 155.301 123.562C155.26 123.322 155.422 123.095 155.663 123.055C156.414 122.929 157.188 122.785 157.961 122.627C158.2 122.578 158.434 122.731 158.483 122.969C158.532 123.207 158.378 123.44 158.139 123.488C157.354 123.648 156.571 123.795 155.809 123.922C155.785 123.927 155.76 123.928 155.736 123.928ZM144.049 124.204C144.016 124.204 143.983 124.201 143.95 124.193C143.165 124.013 142.388 123.781 141.642 123.502C141.413 123.417 141.298 123.163 141.384 122.936C141.469 122.709 141.725 122.592 141.952 122.679C142.662 122.944 143.401 123.165 144.147 123.335C144.385 123.39 144.534 123.626 144.479 123.863C144.432 124.066 144.25 124.204 144.049 124.204ZM151.067 124.537C150.842 124.537 150.65 124.367 150.628 124.139C150.605 123.897 150.784 123.683 151.027 123.66C151.803 123.587 152.585 123.5 153.35 123.4C153.591 123.37 153.814 123.538 153.846 123.779C153.877 124.02 153.707 124.24 153.465 124.272C152.689 124.374 151.896 124.462 151.109 124.535C151.095 124.537 151.081 124.537 151.067 124.537ZM148.425 124.684C147.715 124.683 147.008 124.649 146.324 124.58C146.082 124.555 145.905 124.34 145.929 124.098C145.953 123.857 146.17 123.68 146.413 123.705C147.158 123.779 147.929 123.813 148.712 123.802H148.718C148.959 123.802 149.156 123.995 149.16 124.235C149.163 124.478 148.968 124.677 148.724 124.681C148.624 124.683 148.524 124.684 148.425 124.684ZM187.558 126C187.389 126 187.226 125.901 187.154 125.735C186.944 125.254 186.7 124.801 186.431 124.388C186.298 124.183 186.357 123.911 186.561 123.779C186.766 123.647 187.039 123.705 187.172 123.908C187.468 124.363 187.735 124.859 187.963 125.385C188.06 125.608 187.958 125.866 187.735 125.963C187.677 125.987 187.617 126 187.558 126Z" fill="#C9CEBD"/>
<path fill-rule="evenodd" clip-rule="evenodd" d="M131.071 40.9009C131.065 40.9009 131.06 40.9009 131.054 40.9009C130.281 40.8697 129.515 40.8641 128.739 40.8841H128.728C128.491 40.8841 128.294 40.6964 128.288 40.4594C128.282 40.2188 128.474 40.018 128.716 40.0124C129.511 39.9912 130.298 39.9974 131.089 40.0292C131.332 40.0392 131.52 40.2418 131.51 40.4825C131.501 40.7176 131.306 40.9009 131.071 40.9009ZM124.061 41.3049C123.848 41.3049 123.661 41.1515 123.627 40.9364C123.59 40.6983 123.754 40.475 123.994 40.4382C124.78 40.3173 125.572 40.22 126.348 40.1502C126.584 40.129 126.804 40.3048 126.826 40.5449C126.848 40.7849 126.669 40.9969 126.427 41.0187C125.67 41.0873 124.896 41.1821 124.129 41.2999C124.106 41.3037 124.083 41.3049 124.061 41.3049ZM135.728 41.4072C135.702 41.4072 135.676 41.4047 135.65 41.4003C134.896 41.2663 134.125 41.1559 133.361 41.073C133.119 41.0468 132.945 40.8311 132.971 40.5916C132.997 40.3522 133.216 40.1789 133.456 40.2057C134.241 40.2911 135.031 40.404 135.805 40.5418C136.044 40.5841 136.203 40.8105 136.16 41.048C136.122 41.2588 135.937 41.4072 135.728 41.4072ZM119.483 42.2932C119.29 42.2932 119.114 42.1672 119.06 41.9746C118.994 41.7426 119.131 41.5019 119.365 41.4371C120.126 41.2257 120.899 41.0349 121.663 40.8697C121.901 40.818 122.135 40.9676 122.187 41.2027C122.238 41.4384 122.088 41.6703 121.851 41.722C121.103 41.8842 120.346 42.0706 119.601 42.277C119.561 42.2882 119.522 42.2932 119.483 42.2932ZM140.272 42.5363C140.226 42.5363 140.181 42.5295 140.137 42.5151C139.406 42.2795 138.656 42.0668 137.912 41.8817C137.677 41.8231 137.534 41.5861 137.593 41.3523C137.653 41.1191 137.89 40.9788 138.126 41.0356C138.89 41.2257 139.658 41.444 140.408 41.6853C140.639 41.7595 140.765 42.0057 140.69 42.2346C140.63 42.4191 140.458 42.5363 140.272 42.5363ZM115.044 43.7834C114.869 43.7834 114.704 43.6792 114.636 43.5084C114.545 43.2845 114.656 43.0314 114.882 42.9422C115.619 42.6517 116.366 42.3786 117.102 42.1311C117.333 42.055 117.582 42.176 117.66 42.4042C117.738 42.6317 117.615 42.8793 117.385 42.9572C116.663 43.1998 115.929 43.4672 115.206 43.7522C115.153 43.7734 115.098 43.7834 115.044 43.7834ZM144.623 44.2622C144.559 44.2622 144.494 44.2485 144.433 44.2192C143.737 43.8887 143.024 43.5782 142.313 43.2964C142.087 43.2066 141.978 42.9528 142.068 42.7296C142.159 42.5058 142.415 42.3973 142.639 42.4865C143.368 42.7758 144.1 43.0944 144.812 43.4329C145.032 43.5371 145.124 43.7971 145.019 44.014C144.944 44.1705 144.787 44.2622 144.623 44.2622ZM110.775 45.7037C110.615 45.7037 110.461 45.6165 110.383 45.4656C110.273 45.2511 110.359 44.9886 110.575 44.8788C111.279 44.5235 111.995 44.1805 112.704 43.8613C112.927 43.7609 113.186 43.8582 113.286 44.0776C113.387 44.2971 113.289 44.5552 113.068 44.655C112.371 44.9693 111.667 45.3059 110.974 45.6564C110.91 45.6882 110.842 45.7037 110.775 45.7037ZM148.709 46.538C148.627 46.538 148.544 46.5149 148.47 46.4675C147.827 46.0529 147.161 45.6526 146.488 45.2785C146.276 45.1607 146.2 44.8944 146.32 44.6843C146.439 44.4742 146.707 44.3994 146.918 44.5178C147.608 44.9019 148.291 45.3116 148.948 45.7362C149.153 45.8677 149.21 46.1377 149.077 46.3397C148.994 46.4682 148.853 46.538 148.709 46.538ZM106.774 48.1111C106.639 48.1111 106.504 48.0487 106.418 47.9315C106.276 47.7364 106.319 47.4639 106.516 47.3224C107.157 46.861 107.823 46.422 108.495 46.018C108.703 45.8933 108.973 45.9581 109.099 46.1645C109.225 46.3703 109.159 46.639 108.952 46.7637C108.299 47.1559 107.654 47.5811 107.032 48.0282C106.955 48.0843 106.864 48.1111 106.774 48.1111ZM152.462 49.3232C152.361 49.3232 152.259 49.2883 152.176 49.2178C151.599 48.7259 150.991 48.2427 150.369 47.7819C150.175 47.6379 150.135 47.3641 150.281 47.1715C150.426 46.9788 150.701 46.9389 150.896 47.0836C151.534 47.5562 152.157 48.0519 152.749 48.5563C152.933 48.7134 152.954 48.9884 152.796 49.1711C152.709 49.2714 152.587 49.3232 152.462 49.3232ZM103.222 51.132C103.11 51.132 102.997 51.0896 102.911 51.0048C102.74 50.8352 102.739 50.559 102.911 50.3881C103.471 49.8289 104.057 49.2901 104.651 48.7845C104.836 48.628 105.113 48.6486 105.271 48.8312C105.429 49.0139 105.408 49.2895 105.224 49.446C104.647 49.9367 104.079 50.4611 103.533 51.0035C103.447 51.089 103.335 51.132 103.222 51.132ZM155.775 52.6134C155.649 52.6134 155.524 52.5604 155.437 52.4569C154.968 51.902 154.443 51.3359 153.875 50.7747C153.703 50.6045 153.702 50.3289 153.874 50.1581C154.045 49.9872 154.324 49.9866 154.495 50.1568C155.082 50.7367 155.625 51.3215 156.111 51.8976C156.267 52.0822 156.242 52.3572 156.056 52.5118C155.974 52.5798 155.874 52.6134 155.775 52.6134ZM100.173 54.6517C100.082 54.6517 99.9897 54.6236 99.9105 54.5656C99.7157 54.4216 99.6755 54.1485 99.82 53.9552C100.298 53.3192 100.795 52.7007 101.3 52.1184C101.457 51.9363 101.734 51.9145 101.919 52.0722C102.103 52.2287 102.124 52.5037 101.966 52.687C101.475 53.2538 100.991 53.8554 100.526 54.4758C100.44 54.5912 100.307 54.6517 100.173 54.6517ZM158.389 56.4679C158.235 56.4679 158.086 56.3875 158.005 56.2441C157.611 55.5451 157.208 54.8861 156.805 54.2844C156.672 54.0843 156.727 53.813 156.929 53.6802C157.132 53.5474 157.405 53.6017 157.538 53.8024C157.953 54.4222 158.367 55.1006 158.772 55.8189C158.891 56.029 158.815 56.2946 158.603 56.4124C158.535 56.4498 158.462 56.4679 158.389 56.4679ZM97.6263 58.5461C97.5528 58.5461 97.4786 58.528 97.4101 58.4893C97.1983 58.3709 97.1241 58.1046 97.2442 57.8951C97.637 57.2068 98.0494 56.5309 98.4705 55.8862C98.6025 55.6836 98.8747 55.6274 99.0783 55.7578C99.282 55.8881 99.3404 56.158 99.2084 56.3601C98.7967 56.9904 98.3938 57.6513 98.0091 58.3247C97.928 58.4663 97.7791 58.5461 97.6263 58.5461ZM160.425 60.656C160.252 60.656 160.088 60.5544 160.019 60.3867C159.721 59.6752 159.403 58.9688 159.071 58.2854C158.966 58.0685 159.058 57.8085 159.277 57.7037C159.496 57.5996 159.759 57.6906 159.864 57.9076C160.202 58.6053 160.527 59.3267 160.831 60.0531C160.923 60.2757 160.817 60.5307 160.593 60.623C160.538 60.6454 160.481 60.656 160.425 60.656ZM95.5439 62.7092C95.4855 62.7092 95.4264 62.6974 95.3692 62.673C95.1467 62.5776 95.0442 62.3208 95.141 62.0994C95.4565 61.3768 95.7916 60.6597 96.1366 59.9689C96.2448 59.7532 96.5081 59.6653 96.7256 59.7713C96.9431 59.8785 97.0323 60.1397 96.9249 60.3561C96.5861 61.0338 96.2573 61.7372 95.9475 62.4467C95.8758 62.6107 95.7136 62.7092 95.5439 62.7092ZM161.56 63.7049C161.375 63.7049 161.203 63.5883 161.143 63.4044C161.046 63.1126 160.947 62.8227 160.846 62.5365C160.765 62.3089 160.887 62.0608 161.115 61.981C161.345 61.9018 161.596 62.0215 161.676 62.2478C161.779 62.5402 161.88 62.8352 161.978 63.1332C162.054 63.362 161.928 63.6083 161.698 63.6837C161.651 63.6981 161.605 63.7049 161.56 63.7049ZM93.8782 67.0594C93.8323 67.0594 93.7865 67.0519 93.7399 67.037C93.5093 66.9615 93.3848 66.7146 93.4609 66.4864C93.7104 65.7394 93.9757 64.9956 94.251 64.2748C94.3371 64.0497 94.5916 63.9369 94.8173 64.0217C95.0455 64.1071 95.1592 64.359 95.0731 64.5841C94.8022 65.293 94.5407 66.025 94.2956 66.7601C94.2346 66.9434 94.063 67.0594 93.8782 67.0594ZM92.5815 71.5324C92.5463 71.5324 92.5111 71.5287 92.4759 71.5193C92.2402 71.462 92.0956 71.2257 92.1547 70.9918C92.3464 70.2237 92.5507 69.4624 92.7644 68.7266C92.831 68.4947 93.0749 68.3607 93.3081 68.428C93.5413 68.4947 93.6765 68.736 93.6086 68.9673C93.3986 69.6925 93.1969 70.4438 93.0077 71.2013C92.958 71.4002 92.7789 71.5324 92.5815 71.5324ZM91.6123 76.0884C91.5865 76.0884 91.5607 76.0865 91.5349 76.0815C91.2955 76.0397 91.1364 75.8134 91.1786 75.5765C91.3162 74.8033 91.4677 74.0289 91.6273 73.2764C91.6776 73.0401 91.9115 72.8898 92.1484 72.9397C92.386 72.9889 92.5375 73.2202 92.4878 73.4559C92.3294 74.1998 92.1805 74.9642 92.0441 75.7286C92.007 75.9393 91.8209 76.0884 91.6123 76.0884ZM90.9372 80.6979C90.9208 80.6979 90.9045 80.6967 90.8869 80.6948C90.6462 80.6674 90.472 80.451 90.5003 80.2116C90.5896 79.4391 90.6914 78.6572 90.8039 77.889C90.8379 77.6509 91.0598 77.4844 91.3018 77.5199C91.5419 77.5542 91.7084 77.7756 91.6732 78.0137C91.5632 78.7738 91.4614 79.5463 91.374 80.3114C91.3483 80.5333 91.1578 80.6979 90.9372 80.6979ZM90.5424 85.3406C90.5343 85.3406 90.5261 85.3399 90.5179 85.3399C90.2759 85.3268 90.0899 85.1211 90.1031 84.881C90.1458 84.1079 90.2005 83.3216 90.2665 82.5435C90.2866 82.3028 90.5035 82.1264 90.7417 82.1457C90.9837 82.1663 91.1635 82.377 91.1427 82.6165C91.0774 83.3865 91.0227 84.164 90.9812 84.9278C90.968 85.1604 90.7744 85.3406 90.5424 85.3406ZM90.4551 90C90.22 90 90.0245 89.8161 90.0157 89.5804C90.0151 89.5642 90 89.1682 90 88.4475C90 88.1083 90.0031 87.6986 90.0138 87.2248C90.0182 86.9841 90.2206 86.8008 90.4626 86.7977C90.7052 86.8027 90.8976 87.0022 90.8926 87.2429C90.8825 87.7099 90.8794 88.1139 90.8794 88.4475C90.8794 89.1489 90.8938 89.543 90.8944 89.5467C90.9039 89.7874 90.7147 89.99 90.472 90C90.4658 90 90.4607 90 90.4551 90Z" fill="#C9CEBD"/>
<path fill-rule="evenodd" clip-rule="evenodd" d="M16.9981 191C15.4886 191 14.1851 189.857 14.018 188.319C13.8381 186.67 15.0301 185.182 16.674 185.003C16.9078 184.977 17.1156 185.145 17.141 185.379C17.1665 185.612 16.9987 185.822 16.7661 185.847C15.5862 185.976 14.7315 187.044 14.8605 188.227C14.9895 189.41 16.0568 190.266 17.2337 190.138C17.8055 190.075 18.3185 189.793 18.6783 189.343C19.0381 188.894 19.2023 188.331 19.1399 187.758C19.1144 187.525 19.2822 187.315 19.5148 187.29C19.745 187.265 19.957 187.432 19.9818 187.666C20.069 188.464 19.8407 189.249 19.3385 189.875C18.837 190.501 18.1223 190.895 17.3258 190.982C17.2155 190.994 17.1065 191 16.9981 191Z" fill="#2A2B2E"/>
<path fill-rule="evenodd" clip-rule="evenodd" d="M221 220.827C220.72 220.827 220.44 220.882 220.173 220.992C219.637 221.212 219.218 221.628 218.995 222.164C218.772 222.699 218.771 223.29 218.991 223.827C219.212 224.363 219.629 224.782 220.164 225.005C220.699 225.228 221.29 225.23 221.826 225.009C222.363 224.788 222.781 224.371 223.005 223.836C223.228 223.3 223.229 222.71 223.008 222.174C222.787 221.637 222.372 221.219 221.836 220.996C221.567 220.883 221.283 220.827 221 220.827ZM221 226C220.609 226 220.218 225.923 219.846 225.768C219.107 225.459 218.532 224.882 218.228 224.141C217.922 223.401 217.925 222.585 218.232 221.846C218.541 221.107 219.118 220.532 219.859 220.227C220.599 219.922 221.415 219.925 222.154 220.232C222.893 220.541 223.468 221.119 223.773 221.859C224.078 222.6 224.076 223.415 223.767 224.154C223.459 224.893 222.882 225.468 222.141 225.773C221.773 225.924 221.386 226 221 226Z" fill="#2A2B2E"/>
<path fill-rule="evenodd" clip-rule="evenodd" d="M203.001 228.785C202.525 228.785 202.073 229.066 201.878 229.532C201.62 230.151 201.914 230.863 202.532 231.121C202.831 231.246 203.161 231.247 203.462 231.123C203.761 230.999 203.996 230.767 204.121 230.467C204.246 230.168 204.247 229.837 204.123 229.538C203.999 229.238 203.766 229.004 203.467 228.879C203.315 228.815 203.157 228.785 203.001 228.785ZM203 232C202.739 232 202.478 231.948 202.23 231.845C201.212 231.421 200.73 230.248 201.154 229.23C201.578 228.213 202.751 227.73 203.769 228.154C204.262 228.36 204.646 228.745 204.849 229.239C205.052 229.733 205.05 230.276 204.845 230.769C204.639 231.262 204.254 231.646 203.761 231.849C203.515 231.95 203.257 232 203 232Z" fill="#2A2B2E"/>
<path fill-rule="evenodd" clip-rule="evenodd" d="M126.611 144C126.514 144 126.416 143.963 126.342 143.889L125.12 142.687C124.965 142.535 124.959 142.282 125.109 142.123C125.257 141.964 125.504 141.959 125.659 142.111L126.88 143.313C127.036 143.465 127.04 143.718 126.892 143.877C126.815 143.959 126.713 144 126.611 144Z" fill="#2A2B2E"/>
<path fill-rule="evenodd" clip-rule="evenodd" d="M121.61 140C121.514 140 121.416 139.963 121.341 139.889L120.12 138.687C119.965 138.534 119.959 138.281 120.109 138.122C120.257 137.964 120.504 137.959 120.659 138.111L121.88 139.313C122.036 139.465 122.04 139.718 121.892 139.877C121.815 139.959 121.713 140 121.61 140Z" fill="#2A2B2E"/>
<path fill-rule="evenodd" clip-rule="evenodd" d="M125.401 140C125.301 140 125.202 139.965 125.125 139.893C124.964 139.746 124.958 139.501 125.11 139.345L126.309 138.121C126.462 137.966 126.715 137.959 126.875 138.107C127.036 138.254 127.042 138.499 126.89 138.655L125.691 139.879C125.612 139.96 125.506 140 125.401 140Z" fill="#2A2B2E"/>
<path fill-rule="evenodd" clip-rule="evenodd" d="M120.4 144C120.301 144 120.202 143.965 120.125 143.893C119.964 143.746 119.958 143.501 120.11 143.345L121.309 142.121C121.461 141.966 121.715 141.959 121.875 142.107C122.036 142.254 122.042 142.499 121.89 142.655L120.691 143.879C120.612 143.96 120.507 144 120.4 144Z" fill="#2A2B2E"/>
<path fill-rule="evenodd" clip-rule="evenodd" d="M235.5 210C235.436 210 235.37 209.986 235.307 209.957L233.306 209.044C233.051 208.927 232.932 208.609 233.039 208.333C233.146 208.056 233.438 207.926 233.693 208.043L235.694 208.958C235.948 209.074 236.068 209.391 235.961 209.667C235.88 209.875 235.695 210 235.5 210Z" fill="#2A2B2E"/>
<path fill-rule="evenodd" clip-rule="evenodd" d="M229.5 207C229.436 207 229.37 206.987 229.307 206.958L227.306 206.043C227.051 205.928 226.932 205.609 227.039 205.333C227.146 205.057 227.438 204.926 227.693 205.043L229.693 205.957C229.948 206.073 230.067 206.392 229.961 206.668C229.88 206.875 229.695 207 229.5 207Z" fill="#2A2B2E"/>
<path fill-rule="evenodd" clip-rule="evenodd" d="M232.546 206C232.476 206 232.406 205.988 232.337 205.962C232.059 205.857 231.927 205.565 232.041 205.311L232.95 203.308C233.064 203.054 233.383 202.932 233.663 203.038C233.941 203.143 234.073 203.435 233.959 203.689L233.05 205.692C232.964 205.884 232.76 206 232.546 206Z" fill="#2A2B2E"/>
<path fill-rule="evenodd" clip-rule="evenodd" d="M229.546 212C229.477 212 229.406 211.988 229.338 211.962C229.059 211.857 228.926 211.566 229.042 211.312L229.95 209.308C230.064 209.054 230.383 208.933 230.662 209.038C230.941 209.144 231.074 209.434 230.958 209.689L230.05 211.692C229.964 211.884 229.76 212 229.546 212Z" fill="#2A2B2E"/>
<path fill-rule="evenodd" clip-rule="evenodd" d="M101.613 225C101.518 225 101.422 224.964 101.348 224.891L100.122 223.693C99.9657 223.541 99.959 223.287 100.105 223.126C100.253 222.965 100.497 222.957 100.653 223.11L101.878 224.307C102.034 224.459 102.041 224.713 101.895 224.874C101.818 224.958 101.716 225 101.613 225Z" fill="#2A2B2E"/>
<path fill-rule="evenodd" clip-rule="evenodd" d="M96.6129 220C96.5171 220 96.4218 219.964 96.3471 219.89L95.1214 218.693C94.9658 218.541 94.9591 218.287 95.1053 218.126C95.2521 217.965 95.4969 217.958 95.6531 218.109L96.8782 219.307C97.0344 219.459 97.041 219.713 96.8943 219.874C96.8184 219.958 96.7159 220 96.6129 220Z" fill="#2A2B2E"/>
<path fill-rule="evenodd" clip-rule="evenodd" d="M99.4025 220C99.304 220 99.2055 219.966 99.1278 219.896C98.9654 219.751 98.9568 219.507 99.1076 219.351L100.302 218.123C100.454 217.967 100.709 217.958 100.872 218.104C101.035 218.249 101.044 218.493 100.892 218.649L99.6973 219.877C99.6179 219.959 99.5102 220 99.4025 220Z" fill="#2A2B2E"/>
<path fill-rule="evenodd" clip-rule="evenodd" d="M95.403 225C95.3045 225 95.2055 224.966 95.1277 224.896C94.9653 224.751 94.9567 224.506 95.1081 224.351L96.3025 223.122C96.4545 222.967 96.7091 222.958 96.8721 223.104C97.0344 223.249 97.0437 223.493 96.8916 223.649L95.6973 224.877C95.6178 224.959 95.5107 225 95.403 225Z" fill="#2A2B2E"/>
<path fill-rule="evenodd" clip-rule="evenodd" d="M92.4615 169.039C85.8129 163.219 85.1409 153.111 90.9608 146.462C96.7808 139.813 106.889 139.141 113.537 144.961C120.187 150.781 120.859 160.889 115.039 167.539C109.219 174.187 99.1107 174.859 92.4615 169.039Z" fill="white"/>
<path fill-rule="evenodd" clip-rule="evenodd" d="M92.2061 168.26C95.3459 171.008 99.3656 172.368 103.531 172.094C107.699 171.818 111.51 169.936 114.261 166.794C119.939 160.309 119.281 150.416 112.795 144.741C109.654 141.994 105.634 140.631 101.469 140.907C97.3012 141.182 93.4909 143.065 90.739 146.206C85.0617 152.691 85.7185 162.585 92.2061 168.26ZM102.476 173C98.4788 173 94.6622 171.57 91.6264 168.914C84.7791 162.923 84.0841 152.479 90.0778 145.635C92.9838 142.316 97.0085 140.329 101.411 140.037C105.808 139.745 110.057 141.185 113.374 144.087C120.221 150.078 120.916 160.521 114.922 167.366C112.016 170.685 107.991 172.672 103.589 172.963C103.217 172.988 102.846 173 102.476 173Z" fill="#2A2B2E"/>
<path fill-rule="evenodd" clip-rule="evenodd" d="M98 162.273V151.727C98 151.189 98.565 150.838 99.0476 151.076L109.595 156.284C110.132 156.548 110.136 157.311 109.602 157.582L99.0535 162.921C98.5709 163.165 98 162.814 98 162.273Z" fill="#AA4465"/>
<path fill-rule="evenodd" clip-rule="evenodd" d="M43.3248 54.839C40.6527 55.5709 37.8927 53.9974 37.1608 51.3252C36.429 48.6524 38.0024 45.8924 40.6752 45.1604C43.3473 44.4291 46.1073 46.002 46.8392 48.6748C47.571 51.3476 45.9976 54.107 43.3248 54.839ZM51.9814 48.2768L51.467 46.3975L49.3407 46.4936C49.1431 46.0795 48.9154 45.6873 48.6569 45.3206L49.7826 43.517L48.3972 42.1466L46.6038 43.2933C46.2298 43.0375 45.836 42.8126 45.4255 42.6215L45.4992 40.4942L43.6135 40L42.6353 41.887C42.1883 41.8524 41.7341 41.8556 41.2774 41.8973L40.2775 40.0179L38.3975 40.5326L38.4943 42.6594C38.08 42.8561 37.6874 43.0843 37.3205 43.3426L35.5169 42.2165L34.1462 43.6022L35.2937 45.3963C35.0377 45.77 34.8126 46.1635 34.6221 46.5744L32.4939 46.5007L32 48.3864L33.8877 49.3645C33.8524 49.8119 33.8556 50.2657 33.8973 50.7227L32.018 51.7226L32.533 53.6025L34.6593 53.5058C34.8569 53.9198 35.0846 54.3121 35.3431 54.6787L34.2174 56.4824L35.6028 57.8534L37.3962 56.7061C37.7695 56.9625 38.164 57.1868 38.5745 57.3778L38.5008 59.5058L40.3865 60L41.3647 58.1124C41.8124 58.1476 42.2665 58.1438 42.7226 58.1027L43.7225 59.9814L45.6025 59.4667L45.5057 57.3406C45.92 57.1432 46.3119 56.915 46.6788 56.6567L48.4831 57.7829L49.8538 56.3971L48.7063 54.6037C48.9623 54.23 49.1874 53.8358 49.3779 53.425L51.5061 53.4987L52 51.6136L50.1123 50.6349C50.1476 50.1875 50.1437 49.7337 50.1027 49.2773L51.9814 48.2768Z" fill="#AA4465"/>
<path fill-rule="evenodd" clip-rule="evenodd" d="M38.3888 224C38.3888 224 37.2844 231.654 39.3597 234.204L40 235L30 234.502C30 234.502 32.8523 228.64 32.5032 225.524L38.3888 224Z" fill="white"/>
<path fill-rule="evenodd" clip-rule="evenodd" d="M30.1107 234.641L38.6026 235.062L38.5789 235.033C36.7276 232.765 37.1959 227 37.4185 225.036L32.4334 226.324C32.5307 229.013 30.8103 233.1 30.1107 234.641ZM39.5641 236C39.5566 236 39.5497 235.999 39.5429 235.999L29.4149 235.497C29.2671 235.489 29.1343 235.407 29.0595 235.277C28.9853 235.148 28.9803 234.989 29.0458 234.855C29.0738 234.797 31.8728 229.014 31.5386 226.035C31.5137 225.814 31.6534 225.608 31.8647 225.553L37.8257 224.014C37.966 223.977 38.1169 224.015 38.2247 224.114C38.3332 224.214 38.3856 224.363 38.3638 224.51C38.3532 224.585 37.2975 232.073 39.2511 234.467L39.9008 235.273C40.0105 235.409 40.0311 235.598 39.9532 235.755C39.8796 235.905 39.7281 236 39.5641 236Z" fill="#2A2B2E"/>
<path fill-rule="evenodd" clip-rule="evenodd" d="M38.9521 232.159C39.653 233.113 40.2106 234.176 40.579 235.314C41.2196 237.297 41.0128 239.642 40.7205 241.537C40.5073 242.924 39.3594 243.943 38.011 243.953L31.1852 244C29.9021 244.01 28.7862 243.101 28.4776 241.806C28.1733 240.53 27.908 238.834 28.0306 237.077C28.1941 234.741 28.5775 234 30.239 232.062C30.4239 231.846 30.7438 231.836 30.9312 232.05L31.3354 232.753C31.5095 233.057 31.937 233.048 32.0998 232.736L32.7612 231.462C32.9146 231.167 33.2157 230.989 33.5375 231.001L35.4977 231.074C35.8572 231.087 36.1697 231.336 36.2766 231.693L36.6028 232.78C36.7065 233.127 37.1378 233.216 37.361 232.936L38.0462 232.077C38.3121 231.822 38.732 231.86 38.9521 232.159Z" fill="white"/>
<path fill-rule="evenodd" clip-rule="evenodd" d="M30.0554 232.694C30.0459 232.694 30.0395 232.697 30.0332 232.704C28.3654 234.506 28.0693 235.128 27.9177 237.136C27.8194 238.44 27.971 239.922 28.3559 241.42C28.6178 242.438 29.5538 243.146 30.6356 243.146H30.6527L37.5401 243.102C38.6891 243.094 39.6562 242.296 39.8375 241.204C40.0918 239.679 40.355 237.437 39.7126 235.594C39.3638 234.596 38.835 233.646 38.1393 232.771V232.77C38.0988 232.718 38.0436 232.706 38.0138 232.704C37.9897 232.701 37.9409 232.703 37.8939 232.736L37.2281 233.51C37.0195 233.751 36.6948 233.862 36.3726 233.802C36.0537 233.741 35.7949 233.518 35.6979 233.218L35.3701 232.202C35.3181 232.041 35.1659 231.93 34.9909 231.924L33.0143 231.856C32.8583 231.853 32.7118 231.93 32.6369 232.063L31.9698 233.253C31.8151 233.527 31.5304 233.694 31.207 233.701C31.2006 233.701 31.1943 233.701 31.188 233.701C30.8728 233.701 30.5893 233.546 30.427 233.285L30.0617 232.694C30.0592 232.694 30.0573 232.694 30.0554 232.694ZM30.635 244C29.1448 244 27.8556 243.027 27.4954 241.626C27.0819 240.018 26.9259 238.487 27.0325 237.074C27.2075 234.758 27.6615 233.983 29.3712 232.135C29.5455 231.946 29.7948 231.837 30.0541 231.836H30.0598C30.3135 231.836 30.557 231.939 30.7282 232.12L30.7821 232.189L31.1886 232.846L31.857 231.656C32.0941 231.235 32.5482 230.98 33.046 231.001L35.0226 231.069C35.573 231.089 36.053 231.441 36.2166 231.948L36.5445 232.964L37.2775 232.12C37.497 231.925 37.795 231.828 38.0905 231.852C38.3886 231.877 38.6625 232.023 38.8439 232.251C39.5985 233.201 40.1736 234.234 40.5535 235.322C41.2586 237.344 40.9822 239.725 40.7139 241.34C40.4628 242.845 39.1311 243.946 37.5464 243.957L30.6591 244H30.635Z" fill="#2A2B2E"/>
<path fill-rule="evenodd" clip-rule="evenodd" d="M34.1895 241C32.8412 241 31.4243 240.846 30.7475 240.283C29.6032 239.329 29.0448 237.65 29.0219 237.579C28.9447 237.345 29.0781 237.095 29.3181 237.021C29.5594 236.947 29.8164 237.076 29.8929 237.309C29.8981 237.324 30.3983 238.821 31.3425 239.608C32.033 240.182 34.6538 240.209 36.8868 239.938C37.6048 239.85 38.6556 238.538 39.1499 237.732C39.2794 237.521 39.5605 237.452 39.7763 237.577C39.9934 237.703 40.0647 237.975 39.9359 238.187C39.7822 238.438 38.392 240.651 37.0006 240.82C36.4677 240.885 35.3548 241 34.1895 241Z" fill="#2A2B2E"/>
<path fill-rule="evenodd" clip-rule="evenodd" d="M72.7141 223C72.7141 223 73.552 229.383 76.1345 231.603L77 232.592L66 233L66.4887 231.882C67.2694 229.779 67.7637 226.829 66.9891 224.311L72.7141 223Z" fill="white"/>
<path fill-rule="evenodd" clip-rule="evenodd" d="M66.975 225.082C67.513 227.266 67.2835 230.03 66.338 232.585L66.1085 233.109L75.6407 232.756L75.3813 232.458C73.0824 230.452 72.1208 225.519 71.8676 223.961L66.975 225.082ZM65.4343 234C65.2918 234 65.1569 233.929 65.0754 233.811C64.9914 233.689 64.9765 233.532 65.0362 233.395L65.5313 232.262C66.4699 229.724 66.6553 226.959 66.0202 224.889C65.9847 224.774 65.9991 224.65 66.0594 224.546C66.1197 224.442 66.2205 224.367 66.3387 224.34L72.1307 223.011C72.2495 222.983 72.3764 223.008 72.4772 223.078C72.578 223.148 72.6439 223.256 72.6601 223.378C72.6681 223.441 73.5178 229.71 75.9741 231.825C75.9896 231.838 76.0046 231.852 76.0176 231.867L76.8928 232.87C77.0029 232.996 77.0309 233.173 76.9643 233.326C76.8971 233.479 76.7485 233.58 76.5811 233.587L65.4511 234H65.4343Z" fill="#2A2B2E"/>
<path fill-rule="evenodd" clip-rule="evenodd" d="M76.4128 229.265L77.4647 230.506C79.5478 232.963 82.2054 234.884 85.2089 236.103L87.5163 237.04C87.7362 237.13 87.8966 237.32 87.9455 237.549L87.9699 237.666C88.2462 238.962 86.6517 241.849 81.859 242.705C78.8944 243.233 71.9959 243.414 63.7874 240.021C63.2693 239.806 62.951 239.285 63.0062 238.734C63.2067 236.721 63.872 231.928 65.7973 229.605C66.0109 229.346 66.4006 229.318 66.6393 229.555L68.9373 231.829C69.9685 232.849 71.6444 232.848 72.6738 231.827L75.3045 229.218C75.6165 228.909 76.1296 228.931 76.4128 229.265Z" fill="white"/>
<path fill-rule="evenodd" clip-rule="evenodd" d="M65.7008 230.269C65.699 230.269 65.6964 230.269 65.6939 230.269C65.6713 230.271 65.6278 230.279 65.5913 230.322C63.7294 232.582 63.0779 237.356 62.8846 239.303C62.8481 239.671 63.0558 240.014 63.402 240.158C72.832 244.076 79.9746 243.08 81.3109 242.84C84.5816 242.254 86.0143 240.777 86.5777 239.948C87.0693 239.225 87.1687 238.609 87.0982 238.273L87.073 238.154C87.0542 238.065 86.9912 237.99 86.9056 237.955L84.5867 237.01C81.5155 235.757 78.766 233.761 76.6359 231.236L75.5784 229.984C75.501 229.893 75.4034 229.875 75.3518 229.873C75.2958 229.87 75.2007 229.88 75.1157 229.964L72.4726 232.598C71.8885 233.179 71.1117 233.499 70.2833 233.5H70.2821C69.455 233.5 68.6776 233.18 68.0947 232.599L65.7858 230.305C65.7619 230.281 65.7336 230.269 65.7008 230.269ZM77.5002 244C74.1546 244 69.0477 243.45 63.0615 240.963C62.3571 240.67 61.9341 239.969 62.0084 239.218C62.2098 237.191 62.8953 232.214 64.9096 229.771C65.0934 229.549 65.3635 229.413 65.6511 229.399C65.9331 229.384 66.2101 229.491 66.409 229.689L68.7179 231.984C69.1352 232.399 69.691 232.628 70.2821 232.628H70.2827C70.875 232.628 71.4315 232.398 71.8488 231.983L74.4919 229.349C74.728 229.114 75.061 228.984 75.3896 229.002C75.7244 229.016 76.0392 229.17 76.2544 229.425L77.3107 230.677C79.3508 233.093 81.9819 235.004 84.9215 236.203L87.2405 237.149C87.5961 237.294 87.8561 237.604 87.9348 237.977L87.96 238.095C88.1016 238.764 87.8636 239.618 87.3078 240.435C86.6677 241.378 85.0569 243.055 81.4677 243.698C80.9433 243.792 79.5528 243.999 77.5002 244Z" fill="#2A2B2E"/>
<path fill-rule="evenodd" clip-rule="evenodd" d="M75.3378 240H75.3158C71.7494 239.933 68.2991 239.146 65.0618 237.66L63.2553 236.831C63.0349 236.73 62.9389 236.472 63.0406 236.253C63.1423 236.035 63.4041 235.939 63.6233 236.041L65.4303 236.869C68.5566 238.304 71.8888 239.064 75.3321 239.128C75.4659 239.128 75.5337 239.052 75.5601 239.019C75.5852 238.985 75.6398 238.893 75.6021 238.771L75.3064 237.84C75.1789 237.437 75.2989 237.014 75.6203 236.737C75.9418 236.459 76.3813 236.399 76.7656 236.581L77.6691 237.007C80.2334 238.218 83.2259 238.335 85.8781 237.328L86.4037 237.129C86.6297 237.043 86.8846 237.155 86.9707 237.38C87.0579 237.605 86.9437 237.857 86.7176 237.943L86.1921 238.142C83.3164 239.233 80.0721 239.107 77.2918 237.794L76.3889 237.368C76.2972 237.325 76.23 237.366 76.1967 237.394C76.1641 237.422 76.1138 237.483 76.1446 237.578L76.4397 238.51C76.5515 238.861 76.4843 239.247 76.2627 239.541C76.0448 239.83 75.7001 240 75.3378 240Z" fill="#2A2B2E"/>
<path fill-rule="evenodd" clip-rule="evenodd" d="M32.1351 147.858C29.8448 152.552 30.9331 160.129 36.1972 161.171C46.6951 163.249 66.2596 161.163 71.0841 157.779C78.2672 152.74 75.4595 144.186 75.4595 144.186C75.4595 144.186 70.5245 134.035 48.6703 136.341C40.6061 137.192 34.9137 142.165 32.1351 147.858Z" fill="#2A2B2E"/>
<path fill-rule="evenodd" clip-rule="evenodd" d="M70.9335 139.592C70.9335 139.592 74.3183 177.147 73.9756 186.041C73.6323 194.936 73.9004 225.435 73.9004 225.435C73.9004 225.435 69.2031 226.201 65.5572 225.949C65.5572 225.949 51.3504 173.244 51.0159 158.575C50.6821 143.905 55.6987 134 55.6987 134L70.9335 139.592Z" fill="#AA4465"/>
<path fill-rule="evenodd" clip-rule="evenodd" d="M66 136.804C66 136.804 41.4135 203.255 39.5165 227.571C39.5165 227.571 37.199 228.703 31.0105 227.289C31.0105 227.289 30.1941 151.981 42.9643 134L66 136.804Z" fill="#AA4465"/>
<path fill-rule="evenodd" clip-rule="evenodd" d="M57.6799 74.8909C58.9067 74.0477 61.1676 73.47 63.4447 70.8473C64.5541 69.5706 66.1562 67.7256 65.9877 65.2615C65.791 62.384 63.1474 60.057 60.1619 59.273C57.035 58.4518 53.2469 59.6052 51.6781 61.1116C49.8509 62.8666 50.5172 64.3359 48.587 66.0852C46.0942 68.3442 39.5267 62.3393 30.3641 70.3917C25.9625 74.2597 28.0014 80.9058 24.097 83.8891C19.6131 87.3159 15.089 83.0239 9.59126 86.0726C4.54293 88.8714 1.69633 96.1833 3.58882 100.649C4.89993 103.742 7.48066 103.101 10.2154 106.597C14.4768 112.045 10.5529 117.739 13.4881 122.563C17.4227 129.027 29.8374 128.625 37.2163 126.938C38.5833 126.625 52.8415 123.148 57.4976 111.434C63.1474 97.2228 51.3412 79.2503 57.6799 74.8909Z" fill="#2A2B2E"/>
<path fill-rule="evenodd" clip-rule="evenodd" d="M19.01 110.209C18.948 108.103 19.1644 105.871 19.9527 103.914C22.1651 98.4222 28.6602 93.196 34.6934 89.4379C50.4501 79.6252 67.3755 84.8777 73.5447 91.2276C75.8609 93.6118 78.2366 98.1118 79.7171 101.019C81.5816 104.68 85.9192 106.466 85.9192 106.466C89.571 108.284 90.2764 115.103 86.3994 118.103C83.9009 120.037 80.5244 120.463 77.6305 119.182C73.1689 117.206 73.4226 115.287 71.7106 113.206C71.4202 116.669 71.3961 116.851 71.4157 118.591C71.4467 121.261 71.4942 123.673 71.6891 125.75C72.2028 131.241 75.6249 141.636 76.3816 145.647C76.3943 145.714 76.2766 145.725 76.0937 145.705C74.5608 145.537 73.0094 145.752 71.5435 146.228L69.7955 146.795C66.9699 147.488 61.9073 140.304 61.9073 140.304L59.5929 147.777C59.5929 147.777 53.2497 148.836 50.7766 147.918C46.4978 146.329 45.8999 140.266 42.5765 140.17C36.542 139.996 32.4714 150.215 32.4872 149.997C32.5113 149.657 38.0592 124.789 38.8488 120.485C39.7706 115.459 40.1527 107.615 38.2022 108.289C38.2022 108.289 34.9388 110.403 34.8636 110.452C33.2009 111.531 32.7409 113.753 33.726 115.463L37.4759 120.661L26.7463 128.818L22.1069 121.278C20.226 117.875 19.1239 114.088 19.01 110.209Z" fill="white"/>
<path fill-rule="evenodd" clip-rule="evenodd" d="M41.9079 139.268C41.9618 139.268 42.0156 139.268 42.0701 139.27C43.9693 139.325 45.0421 141.009 46.1777 142.793C47.281 144.525 48.4216 146.315 50.426 147.059C52.4829 147.823 57.5354 147.123 58.7578 146.938L60.9947 139.714C61.0441 139.554 61.1823 139.436 61.3496 139.41C61.5181 139.382 61.6848 139.454 61.7817 139.592C63.6708 142.272 67.3494 146.352 69.1985 145.923L70.9329 145.36C72.4525 144.867 73.948 144.676 75.3827 144.79C75.0703 143.32 74.493 141.206 73.8346 138.799C72.6179 134.348 71.1027 128.808 70.7751 125.304C70.5723 123.14 70.528 120.557 70.4994 118.096C70.4811 116.42 70.5013 116.173 70.7548 113.154L70.796 112.661C70.8106 112.483 70.9342 112.331 71.1065 112.278C71.2802 112.224 71.4671 112.281 71.5812 112.42C72.0963 113.046 72.4379 113.65 72.7687 114.236C73.5513 115.621 74.2908 116.928 77.3484 118.283C80.098 119.5 83.2892 119.107 85.677 117.257C87.4019 115.922 88.3201 113.552 88.0723 111.074C87.8556 108.911 86.7872 107.101 85.2835 106.345C84.9444 106.203 80.7431 104.381 78.8616 100.686C77.1595 97.3437 74.9264 93.2195 72.756 90.985C69.4317 87.5626 63.4566 84.9424 57.1634 84.1477C51.6389 83.4504 43.2082 83.7714 34.3967 89.26C29.9945 92.0021 22.2451 97.5057 19.8085 103.552C19.133 105.229 18.8257 107.292 18.896 109.682C19.0044 113.396 20.0588 117.162 21.9428 120.573L26.3222 127.691L36.3384 120.076L32.8315 115.214C32.8227 115.202 32.8144 115.19 32.8068 115.176C31.6852 113.228 32.2485 110.765 34.0881 109.571C34.1635 109.521 37.4328 107.405 37.4328 107.405C37.4632 107.385 37.4955 107.37 37.5297 107.358C37.9055 107.228 38.2737 107.294 38.5677 107.543C40.195 108.923 39.3997 116.577 38.7597 120.068C38.2547 122.819 35.8593 133.732 34.1103 141.7C33.7263 143.449 33.3651 145.096 33.0736 146.431C35.7598 141.781 38.837 139.268 41.9079 139.268ZM31.9748 150C31.9342 150 31.8892 149.994 31.8411 149.982C31.6345 149.929 31.4944 149.734 31.5096 149.523C31.5192 149.382 31.869 147.777 33.2441 141.513C34.9918 133.551 37.3852 122.647 37.8878 119.91C38.8497 114.667 38.8998 108.981 37.9917 108.211C37.9562 108.181 37.9264 108.162 37.8637 108.175C37.4391 108.45 34.6439 110.26 34.5748 110.305C33.1306 111.243 32.6908 113.179 33.566 114.722L37.3086 119.91C37.448 120.103 37.4074 120.37 37.2179 120.515L26.4705 128.685C26.3698 128.761 26.243 128.791 26.1195 128.769C25.9959 128.745 25.8882 128.672 25.8223 128.565L21.176 121.012C19.2141 117.463 18.1229 113.56 18.0101 109.708C17.9366 107.197 18.2642 105.016 18.9847 103.227C21.3877 97.2626 28.4356 91.9349 33.9253 88.5156C42.9586 82.8888 51.6097 82.5609 57.2756 83.2764C63.7595 84.0949 69.9361 86.815 73.3948 90.3757C75.6469 92.6944 77.9225 96.8926 79.6531 100.291C81.4262 103.773 85.5972 105.522 85.6396 105.54C85.6491 105.544 85.6586 105.548 85.6681 105.553C87.4748 106.453 88.7035 108.484 88.9538 110.987C89.2358 113.804 88.2143 116.408 86.2226 117.95C83.5744 120 80.0352 120.436 76.9859 119.085C73.6609 117.612 72.8137 116.114 71.995 114.665C71.8574 114.421 71.7225 114.183 71.5774 113.946C71.3847 116.261 71.3689 116.594 71.3866 118.087C71.4145 120.529 71.4582 123.092 71.6572 125.223C71.9778 128.651 73.4816 134.151 74.69 138.569C75.4296 141.275 76.0683 143.612 76.3522 145.116C76.3807 145.268 76.3364 145.419 76.2312 145.531C76.0582 145.716 75.8041 145.715 75.5791 145.691C74.1825 145.538 72.7117 145.708 71.2085 146.195L69.4577 146.764C69.4469 146.767 69.4367 146.77 69.426 146.772C66.8494 147.403 63.0219 142.726 61.5815 140.814L59.5239 147.458C59.4751 147.617 59.3395 147.735 59.1735 147.762C58.9099 147.806 52.6737 148.833 50.1148 147.882C47.8316 147.034 46.5554 145.03 45.4287 143.262C44.3787 141.614 43.4718 140.189 42.0441 140.149C41.9972 140.147 41.9485 140.146 41.9022 140.146C37.5272 140.146 34.1312 145.975 32.4862 149.476C32.355 149.754 32.2397 150 31.9748 150Z" fill="#2A2B2E"/>
<path fill-rule="evenodd" clip-rule="evenodd" d="M47.5038 128.465C48.2373 128.859 48.1368 129.896 47.3397 130.153C47.0977 130.232 46.8393 130.269 46.5791 130.236C45.3835 130.079 44.0157 129.918 43.5096 129.923L42.5221 129.931C42.37 129.957 41.4183 130.121 40.6866 130.463C40.3402 130.625 39.8135 130.829 39.171 130.945C38.0861 131.14 36.9691 130.809 36.1745 130.078L31.0005 125.112C30.9477 125.052 35.0776 121.937 35.126 122.001L38.7329 127.012L40.0593 126.187C40.7067 125.748 41.6854 125.344 42.2914 125.667L47.5038 128.465Z" fill="white"/>
<path fill-rule="evenodd" clip-rule="evenodd" d="M32.0776 124.6L36.9653 129.337C37.6614 129.983 38.6449 130.27 39.5866 130.1C40.1935 129.99 40.6897 129.792 40.9998 129.646C41.7846 129.276 42.7763 129.1 42.9674 129.069C42.9908 129.065 43.0143 129.063 43.0377 129.063L44.0325 129.054C44.4597 129.053 45.5337 129.158 47.1868 129.375C47.3589 129.398 47.5488 129.377 47.7507 129.31C47.957 129.243 48.0924 129.078 48.112 128.869C48.1323 128.659 48.031 128.472 47.8405 128.369L42.5928 125.525C42.258 125.345 41.5105 125.555 40.8195 126.028L39.4695 126.877C39.2683 127.003 38.9987 126.952 38.8626 126.761L35.4761 122.013C34.7078 122.558 32.8212 123.995 32.0776 124.6ZM39.048 131C38.0538 131 37.0798 130.627 36.3438 129.943L31.1283 124.889C31.1194 124.881 31.1118 124.873 31.1036 124.864C30.9992 124.744 30.9713 124.575 31.0308 124.429C31.146 124.146 35.2312 121.04 35.5369 121.003C35.6976 120.984 35.8609 121.051 35.9552 121.179L39.3474 125.936L40.3208 125.325C41.1036 124.789 42.2371 124.356 43.0269 124.783L48.2753 127.627C48.7715 127.896 49.0461 128.402 48.9936 128.948C48.9411 129.493 48.5728 129.941 48.0342 130.118C47.7013 130.226 47.3754 130.259 47.0665 130.219C45.5021 130.013 44.4281 129.908 44.0408 129.905L43.0832 129.914C42.8826 129.949 42.0314 130.108 41.389 130.411C41.0302 130.58 40.4556 130.809 39.7505 130.937C39.5176 130.979 39.2822 131 39.048 131Z" fill="#2A2B2E"/>
<path fill-rule="evenodd" clip-rule="evenodd" d="M51.4384 139C51.3738 139 51.3085 138.985 51.2458 138.955C51.0287 138.847 50.9384 138.58 51.0444 138.358C58.5057 122.816 64.0267 117.349 64.2588 117.124C64.4338 116.953 64.7105 116.96 64.8786 117.138C65.0455 117.315 65.0398 117.598 64.8648 117.768C64.8096 117.822 59.2121 123.377 51.8329 138.749C51.757 138.908 51.6008 139 51.4384 139Z" fill="#2A2B2E"/>
<path fill-rule="evenodd" clip-rule="evenodd" d="M98.7723 116.997C99.2804 117.008 99.8863 117.003 100.802 116.704L107.891 114.248C108.507 114.046 108.831 113.386 108.608 112.789C108.608 112.789 108.282 111.82 107.179 112.103C106.74 112.215 104.262 113.148 103.963 113.169C103.481 113.203 103.215 112.881 103.332 112.423C103.393 112.189 103.44 111.974 103.477 111.788C103.565 111.341 103.893 110.976 104.333 110.828C105.226 110.525 107.905 109.79 108.277 109.589C108.828 109.288 109.652 108.937 109.885 108.335L109.944 108.178C110.179 107.551 109.64 106.908 108.966 107.011L102.431 108.053C101.593 108.18 100.825 108.587 100.258 109.205L97.3271 112.397C96.6661 113.117 95.64 113.4 94.6924 113.124L86.4585 110.233C84.0268 109.513 83.0093 114.023 83.0093 114.023C82.888 115.389 83.9705 116.592 85.311 116.691L98.7723 116.997Z" fill="white"/>
<path fill-rule="evenodd" clip-rule="evenodd" d="M99.2928 116.143C99.819 116.154 100.359 116.141 101.184 115.868L108.3 113.379C108.494 113.315 108.644 113.184 108.729 113.008C108.816 112.831 108.826 112.632 108.757 112.447C108.703 112.297 108.486 111.85 107.842 112.016C107.678 112.059 107.119 112.258 106.58 112.45C105.219 112.934 104.733 113.097 104.53 113.111C104.158 113.138 103.837 113.019 103.628 112.774C103.416 112.528 103.35 112.19 103.443 111.825C103.502 111.596 103.548 111.385 103.583 111.204C103.7 110.605 104.139 110.108 104.728 109.907C105.087 109.784 105.713 109.596 106.377 109.399C107.195 109.153 108.432 108.783 108.621 108.68C108.701 108.637 108.785 108.592 108.873 108.546C109.33 108.305 109.899 108.006 110.042 107.631L110.1 107.476C110.184 107.25 110.073 107.082 110.021 107.021C109.971 106.96 109.829 106.823 109.593 106.859L103.03 107.916C102.286 108.031 101.602 108.397 101.101 108.948L98.1554 112.187C97.383 113.037 96.1678 113.375 95.059 113.05L86.7623 110.109C86.4221 110.007 86.0901 110.044 85.7685 110.23C84.7119 110.837 84.0509 112.852 83.8755 113.616C83.8357 114.157 84.0142 114.687 84.3805 115.111C84.743 115.53 85.258 115.794 85.7903 115.834L99.2928 116.143ZM99.5024 117C99.4247 117 99.3488 116.999 99.2742 116.998H99.2729L85.7468 116.687C84.9613 116.628 84.23 116.256 83.7175 115.664C83.1933 115.058 82.9426 114.295 83.0111 113.516C83.0123 113.497 83.0154 113.479 83.0198 113.461C83.0471 113.337 83.715 110.42 85.3289 109.492C85.8631 109.185 86.4377 109.119 87.0366 109.299L95.332 112.239C96.0944 112.462 96.9576 112.222 97.5061 111.618L100.451 108.379C101.087 107.681 101.953 107.217 102.892 107.073L109.455 106.016C109.93 105.944 110.391 106.116 110.693 106.478C110.998 106.842 111.082 107.324 110.917 107.768L110.858 107.927C110.597 108.607 109.869 108.991 109.284 109.298C109.201 109.342 109.121 109.385 109.046 109.425C108.796 109.563 107.966 109.816 106.63 110.215C105.975 110.411 105.357 110.596 105.014 110.713C104.718 110.815 104.496 111.064 104.438 111.364C104.399 111.561 104.35 111.786 104.287 112.032C104.262 112.131 104.272 112.2 104.293 112.225C104.312 112.245 104.367 112.267 104.467 112.259C104.637 112.232 105.628 111.88 106.283 111.647C106.987 111.397 107.428 111.24 107.62 111.191C108.724 110.904 109.396 111.618 109.58 112.168C109.724 112.557 109.702 112.992 109.514 113.378C109.325 113.763 108.996 114.049 108.585 114.185L101.469 116.675C100.628 116.953 100.028 117 99.5024 117Z" fill="#2A2B2E"/>
<path fill-rule="evenodd" clip-rule="evenodd" d="M90.1228 116.117C88.8371 114.163 90.1657 111.687 90.9032 110.581C91.1081 110.274 90.9747 109.864 90.6253 109.728L88.844 109.041C88.6002 108.947 88.323 109.019 88.1582 109.218C87.196 110.379 84.3095 114.336 87.3697 116.817C87.4705 116.899 87.5998 116.943 87.7313 116.946L89.6012 117C90.0765 117.014 90.3782 116.505 90.1228 116.117Z" fill="white"/>
<path fill-rule="evenodd" clip-rule="evenodd" d="M89.1288 109.929C89.0932 109.929 89.0582 109.944 89.0342 109.974C88.1382 111.057 85.4277 114.765 88.1739 116.997C88.1896 117.009 88.2164 117.018 88.2431 117.019L90.1262 117.072C90.1804 117.068 90.2167 117.041 90.2339 117.013C90.2503 116.985 90.2627 116.942 90.2318 116.894C88.7717 114.667 90.2963 111.896 91.0202 110.809C91.049 110.765 91.0414 110.724 91.0346 110.703C91.027 110.679 91.0078 110.647 90.9653 110.63L89.1713 109.937C89.1576 109.931 89.1432 109.929 89.1288 109.929ZM90.1297 118C90.1194 118 90.1091 118 90.0981 117.999L88.215 117.946C87.9723 117.939 87.7393 117.854 87.5576 117.707C84.1451 114.934 87.2525 110.644 88.2856 109.394C88.5852 109.031 89.0849 108.904 89.5278 109.075L91.3204 109.769C91.6214 109.885 91.8496 110.122 91.9477 110.421C92.0478 110.72 92.0025 111.045 91.827 111.31C91.2025 112.249 89.8774 114.622 91.0414 116.397C91.256 116.723 91.2656 117.135 91.0675 117.471C90.8741 117.8 90.517 118 90.1297 118Z" fill="#2A2B2E"/>
<path fill-rule="evenodd" clip-rule="evenodd" d="M90.5223 113C90.4663 113 90.4096 112.991 90.3549 112.971L87.3102 111.883C87.0628 111.794 86.9378 111.531 87.0307 111.296C87.123 111.06 87.3991 110.94 87.6458 111.03L90.6898 112.118C90.9372 112.206 91.0622 112.469 90.9693 112.704C90.8982 112.887 90.7157 113 90.5223 113Z" fill="#2A2B2E"/>
<path fill-rule="evenodd" clip-rule="evenodd" d="M92.4586 107C92.3361 107 92.2142 106.957 92.1231 106.872C91.9507 106.708 91.9605 106.452 92.1453 106.299L97.2282 102.109C97.4137 101.957 97.7033 101.965 97.877 102.129C98.0494 102.292 98.0395 102.548 97.8541 102.7L92.7719 106.891C92.6834 106.964 92.5707 107 92.4586 107Z" fill="#2A2B2E"/>
<path fill-rule="evenodd" clip-rule="evenodd" d="M88.5299 107C88.4056 107 88.2813 106.953 88.1893 106.86L82.129 100.756C81.9503 100.577 81.9584 100.293 82.1464 100.123C82.3352 99.9525 82.6321 99.9602 82.8108 100.14L88.8711 106.244C89.0498 106.424 89.0417 106.707 88.853 106.878C88.7623 106.96 88.6461 107 88.5299 107Z" fill="#2A2B2E"/>
<path fill-rule="evenodd" clip-rule="evenodd" d="M90.5727 105C90.3399 105 90.1492 104.813 90.1455 104.579L90.0001 95.434C89.9964 95.198 90.1846 95.0037 90.4212 95C90.6546 95.0031 90.8508 95.1846 90.8551 95.4205L90.9999 104.566C91.0036 104.802 90.8154 104.996 90.5795 105H90.5727Z" fill="#2A2B2E"/>
<path fill-rule="evenodd" clip-rule="evenodd" d="M60.8776 75.9142L59.5226 85.4672L65 86.9073C65 86.9073 58.4143 91.9474 47 86.384L52.2087 84.7266L55.2313 74L60.8776 75.9142Z" fill="white"/>
<path fill-rule="evenodd" clip-rule="evenodd" d="M48.5649 86.987C56.3723 90.6576 61.62 88.6352 63.5141 87.5955L59.239 86.4057C59.0313 86.348 58.8982 86.1451 58.9271 85.9299L60.1697 76.6531L55.5637 75.0005L52.8073 85.3536C52.7697 85.4944 52.6643 85.6067 52.5275 85.6532L48.5649 86.987ZM57.2365 90C54.5491 90 51.1943 89.3393 47.2348 87.2971C47.0801 87.2177 46.9883 87.0527 47.0012 86.8784C47.0142 86.7041 47.13 86.5552 47.2946 86.4994L52.0344 84.9038L54.8524 74.3212C54.8832 74.2046 54.9621 74.1054 55.0687 74.0495C55.1754 73.9931 55.2999 73.985 55.4133 74.0247L60.7885 75.9534C60.9802 76.0222 61.0979 76.217 61.0708 76.4199L59.8313 85.6706L64.6839 87.0211C64.8398 87.0639 64.9588 87.1917 64.9909 87.3511C65.0241 87.5105 64.965 87.6743 64.8392 87.7767C64.6697 87.9144 62.0089 90 57.2365 90Z" fill="#2A2B2E"/>
<path fill-rule="evenodd" clip-rule="evenodd" d="M55.0263 76.0793C55.0263 76.0793 52.6954 76.0303 52.1165 74.2867C51.5389 72.5431 53.2971 72.6129 53.2971 72.6129C53.2971 72.6129 51.9106 69.9993 54.8081 69.5576C57.7062 69.1159 59.8035 68 59.8035 68C59.8035 68 62.0019 71.623 62.7522 74.685C63.2053 76.532 63.1307 78.1746 61.7307 78.6953C57.8961 80.1213 55.0263 76.0793 55.0263 76.0793Z" fill="white"/>
<path fill-rule="evenodd" clip-rule="evenodd" d="M52.7106 73.5353C52.5446 73.5353 52.1416 73.583 51.9701 73.8116C51.8079 74.0265 51.8803 74.3925 51.9701 74.6619C52.4523 76.1186 54.4879 76.1787 54.5084 76.1787C54.6469 76.1818 54.7761 76.2499 54.8553 76.362C54.9663 76.5174 57.6163 80.161 61.1297 78.8542C62.1235 78.4845 62.3805 77.2898 61.8939 75.3029C61.2913 72.8435 59.7199 69.9754 59.1603 69.0005C58.413 69.348 56.6257 70.0899 54.3444 70.4374C53.6363 70.5452 53.1766 70.7985 52.977 71.188C52.617 71.8928 53.131 72.8918 53.136 72.9024C53.2078 73.0392 53.2009 73.2046 53.1173 73.3347C53.0343 73.4653 52.8796 73.5471 52.7318 73.5353C52.7249 73.5353 52.7187 73.5353 52.7106 73.5353ZM59.6244 80C56.8503 80 54.7973 77.6843 54.2733 77.0309C53.6207 76.9696 51.7087 76.6457 51.1404 74.9326C50.9158 74.2538 50.9607 73.7007 51.2745 73.2882C51.5103 72.9779 51.8447 72.8225 52.1385 72.745C51.9807 72.2403 51.8534 71.476 52.1965 70.8009C52.5297 70.1444 53.2078 69.7344 54.2121 69.5815C57.0381 69.1504 59.1067 68.0622 59.1266 68.0511C59.3325 67.9427 59.5864 68.012 59.7068 68.2096C59.7991 68.3614 61.975 71.9696 62.7411 75.0979C63.499 78.1897 62.4498 79.2884 61.436 79.6656C60.8066 79.9003 60.1996 80 59.6244 80Z" fill="#2A2B2E"/>
<path fill-rule="evenodd" clip-rule="evenodd" d="M197.989 185.935C197.263 185.018 196.225 184.474 195.069 184.405C194.204 184.353 193.396 184.588 192.667 185.104C192.299 185.365 191.961 185.69 191.657 186.075C191.399 185.656 191.099 185.293 190.763 184.99C190.097 184.39 189.321 184.059 188.457 184.007C187.3 183.938 186.208 184.354 185.383 185.177C184.569 185.991 184.08 187.141 184.009 188.415C183.934 189.726 184.339 190.955 185.282 192.281C186.124 193.468 187.363 194.696 188.798 196.118C189.288 196.603 189.843 197.153 190.418 197.739C190.57 197.894 190.771 197.986 190.985 197.998C191.198 198.011 191.408 197.944 191.576 197.809C192.214 197.296 192.828 196.816 193.369 196.392C194.953 195.152 196.322 194.081 197.292 193.003C198.378 191.799 198.917 190.627 198.991 189.315C199.063 188.042 198.707 186.841 197.989 185.935Z" fill="#AA4465"/>
</svg>
