<svg width="272" height="269" viewBox="0 0 272 269" fill="none" xmlns="http://www.w3.org/2000/svg">
<path fill-rule="evenodd" clip-rule="evenodd" d="M162.883 137.726C162.36 136.969 162.36 135.993 162.883 135.236C163.606 134.19 164 133.064 164 131.889C164 126.427 155.493 122 145 122C134.507 122 126 126.427 126 131.889C126 133.064 126.394 134.19 127.117 135.236C127.64 135.993 127.64 136.969 127.117 137.726C126.394 138.772 126 139.898 126 141.073C126 143.664 127.916 146.022 131.048 147.785C130.979 148.079 130.939 148.378 130.939 148.682C130.939 152.724 137.235 156 145 156C152.765 156 159.06 152.724 159.06 148.682C159.06 148.378 159.02 148.079 158.951 147.785C162.084 146.022 164 143.664 164 141.073C164 139.898 163.606 138.772 162.883 137.726Z" fill="white"/>
<path fill-rule="evenodd" clip-rule="evenodd" d="M145.5 121.971C135.286 121.971 126.976 126.193 126.976 131.383C126.976 132.433 127.323 133.467 128.008 134.457C128.646 135.382 128.646 136.576 128.008 137.5C127.323 138.491 126.976 139.525 126.976 140.575C126.976 142.89 128.682 145.126 131.78 146.87L132.098 147.049L132.015 147.403C131.95 147.678 131.919 147.936 131.919 148.19C131.919 151.961 138.011 155.029 145.5 155.029C152.989 155.029 159.081 151.961 159.081 148.19C159.081 147.936 159.05 147.678 158.985 147.403L158.902 147.049L159.22 146.87C162.318 145.126 164.024 142.891 164.024 140.575C164.024 139.525 163.677 138.491 162.992 137.5C162.354 136.576 162.354 135.382 162.992 134.457C163.677 133.467 164.024 132.432 164.024 131.383C164.024 126.193 155.714 121.971 145.5 121.971ZM145.5 156C137.337 156 130.943 152.57 130.943 148.19C130.943 147.979 130.96 147.761 130.995 147.539C127.77 145.639 126 143.175 126 140.575C126 139.325 126.405 138.105 127.204 136.95C127.611 136.36 127.611 135.597 127.204 135.007C126.405 133.852 126 132.633 126 131.383C126 125.658 134.748 121 145.5 121C156.252 121 165 125.658 165 131.383C165 132.632 164.595 133.852 163.797 135.007C163.389 135.597 163.389 136.36 163.797 136.95C164.595 138.106 165 139.325 165 140.575C165 143.175 163.23 145.639 160.005 147.539C160.04 147.76 160.057 147.979 160.057 148.19C160.057 152.57 153.663 156 145.5 156Z" fill="#2A2B2E"/>
<path fill-rule="evenodd" clip-rule="evenodd" d="M197 55.418C197 27.1313 173.579 3 145.44 3C117.355 3 94.1878 26.4776 94.001 54.71C93.9058 69.0864 100.804 82.4595 110.21 91.8171C116.995 98.5679 121.941 106.957 124.343 116.245L124.459 116.693C126.79 125.708 134.886 132 144.151 132H147.949C157.215 132 165.31 125.707 167.641 116.693L167.712 116.422C170.097 107.2 174.843 98.7305 181.628 92.0764C191.111 82.7757 197 69.7888 197 55.418Z" fill="white"/>
<path fill-rule="evenodd" clip-rule="evenodd" d="M144.941 3.97226C117.026 3.97226 94.1638 26.7777 93.9767 54.8097C93.8899 67.8257 99.7466 81.1214 110.045 91.2884C116.993 98.1471 121.926 106.607 124.31 115.755L124.426 116.2C126.702 124.931 134.607 131.028 143.651 131.028H147.451C156.494 131.028 164.4 124.931 166.675 116.2L166.746 115.93C169.194 106.539 174.052 98.1059 180.796 91.5431C190.617 81.9867 196.025 69.1895 196.025 55.5091C196.025 27.573 172.631 3.97226 144.941 3.97226ZM147.451 132H143.651C134.163 132 125.87 125.603 123.483 116.445L123.367 115.999C121.026 107.021 116.183 98.7152 109.36 91.9793C98.8758 81.6296 92.9135 68.0795 93.0019 54.8032C93.0935 41.1024 98.5642 28.1369 108.406 18.2957C118.269 8.43269 131.246 3 144.941 3H144.941C173.16 3 197 27.046 197 55.5091C197 69.4536 191.487 82.4978 181.477 92.2389C174.86 98.6782 170.092 106.955 167.689 116.175L167.618 116.445C165.231 125.603 156.938 132 147.451 132Z" fill="#2A2B2E"/>
<path fill-rule="evenodd" clip-rule="evenodd" d="M154.154 45.9492C153.252 46.6922 152.435 47.6414 151.762 48.836C148.002 55.5176 149.277 59.1581 150.372 60.7338C151.553 62.4342 153.603 63.3155 155.595 62.9798C157.231 62.7039 158.419 61.6648 158.855 60.1291C160.288 55.0855 157.739 49.2161 154.154 45.9492ZM138.884 46.4631C137.104 48.3851 135.673 51.069 134.658 54.4298C133.557 58.0729 133.936 61.1837 135.699 62.9646C136.892 64.1689 138.559 64.5977 140.161 64.1121C142.088 63.5278 143.479 61.7658 143.977 59.2776C144.719 55.5689 142.645 48.227 138.884 46.4631ZM149.009 125H149.007C148.74 124.999 148.525 124.78 148.525 124.511C148.636 97.2285 164.473 66.398 167.646 60.4949C169.624 56.8151 170.344 53.9084 169.912 51.3482C169.474 48.7526 168.124 45.3905 164.177 44.1145C161.798 43.3454 158.017 43.3185 154.943 45.3633C158.682 48.8834 161.3 55.0647 159.785 60.3969C159.25 62.2803 157.743 63.605 155.755 63.9404C153.396 64.338 150.974 63.2983 149.58 61.2922C148.355 59.5285 146.899 55.5026 150.921 48.3559C151.622 47.1097 152.468 46.1073 153.399 45.3123C153.11 45.0873 152.817 44.8799 152.52 44.691C150.298 43.2795 146.638 42.2525 143.028 43.6061C141.79 44.07 140.646 44.7871 139.607 45.7421C143.607 47.9563 145.724 55.4806 144.925 59.4701C144.354 62.3218 142.719 64.3536 140.44 65.0447C138.519 65.6261 136.441 65.0931 135.015 63.6521C132.992 61.609 132.524 58.144 133.732 54.1464C134.85 50.4484 136.345 47.8784 137.911 46.0946C131.476 43.945 126.937 47.0341 125.729 50.0364C124.394 53.355 124.878 57.3068 126.993 60.3504C131.627 67.0181 142.462 86.4957 142.993 123.259C142.997 123.528 142.784 123.749 142.516 123.753C142.258 123.761 142.03 123.542 142.026 123.274C141.498 86.7797 130.783 67.5027 126.201 60.9085C123.865 57.5477 123.354 53.3465 124.833 49.6706C126.212 46.242 131.392 42.6797 138.645 45.3198C140.045 43.9492 141.464 43.1533 142.691 42.6933C146.631 41.2166 150.618 42.3313 153.036 43.8674C153.427 44.1158 153.812 44.3949 154.188 44.701C157.581 42.3213 161.823 42.331 164.472 43.187C168.881 44.6127 170.383 48.3231 170.865 51.1852C171.335 53.9714 170.582 57.077 168.496 60.9585C165.342 66.8259 149.602 97.4651 149.492 124.515C149.492 124.783 149.275 125 149.009 125Z" fill="#2A2B2E"/>
<path fill-rule="evenodd" clip-rule="evenodd" d="M168.503 88C168.336 88 168.173 87.9198 168.077 87.773C167.929 87.5463 168 87.2468 168.235 87.1042C177.74 81.3321 184.583 71.9561 187.007 61.3805C187.067 61.1189 187.334 60.953 187.606 61.0119C187.877 61.0698 188.048 61.3288 187.988 61.5901C185.505 72.4172 178.501 82.0164 168.77 87.9256C168.687 87.9761 168.594 88 168.503 88Z" fill="#2A2B2E"/>
<path fill-rule="evenodd" clip-rule="evenodd" d="M113.949 82C113.815 82 113.681 81.9445 113.584 81.8356C106.759 74.1161 103 64.1709 103 53.8317C103 37.7028 111.926 23.2264 126.296 16.0512C126.537 15.931 126.83 16.0296 126.949 16.2721C127.069 16.5146 126.97 16.809 126.729 16.9292C112.694 23.9377 103.975 38.0776 103.975 53.8317C103.975 63.9308 107.646 73.6446 114.313 81.1841C114.492 81.3867 114.474 81.6964 114.272 81.8762C114.18 81.9592 114.064 82 113.949 82Z" fill="#2A2B2E"/>
<path fill-rule="evenodd" clip-rule="evenodd" d="M147.562 138C147.293 138 147.055 137.842 147.008 137.617C146.956 137.367 147.162 137.129 147.468 137.086C149.477 136.805 151.434 136.445 153.285 136.017C153.584 135.948 153.895 136.091 153.979 136.335C154.063 136.58 153.889 136.834 153.59 136.903C151.702 137.339 149.706 137.706 147.657 137.994C147.626 137.998 147.593 138 147.562 138Z" fill="white"/>
<path fill-rule="evenodd" clip-rule="evenodd" d="M140.483 147C140.218 147 140.002 146.787 140 146.521C139.998 146.255 140.212 146.037 140.479 146.035C144.4 146 150.157 145.454 155.312 143.046C155.554 142.932 155.841 143.037 155.954 143.279C156.068 143.52 155.963 143.807 155.722 143.92C150.409 146.402 144.505 146.965 140.487 147H140.483Z" fill="white"/>
<path fill-rule="evenodd" clip-rule="evenodd" d="M259.279 23.5278C257.33 28.6522 251.597 31.2269 246.473 29.2787C241.348 27.3301 238.773 21.5969 240.722 16.4725C242.67 11.3478 248.403 8.77312 253.528 10.7213C258.652 12.6699 261.227 18.4034 259.279 23.5278ZM258.892 2.03947L255.287 0.669221L252.961 4.17982C252.07 4.01211 251.176 3.91894 250.289 3.9032L248.72 0L244.913 0.615568L244.654 4.82012C243.809 5.11827 242.991 5.48581 242.206 5.91921L238.891 3.31976L235.903 5.75601L237.777 9.52138C237.2 10.1951 236.676 10.9247 236.209 11.7025L232.039 11.1088L230.669 14.7129L234.18 17.0396C234.012 17.9308 233.919 18.824 233.903 19.7117L230 21.2805L230.616 25.0869L234.82 25.3462C235.118 26.1912 235.486 27.0098 235.919 27.794L233.32 31.109L235.756 34.0978L239.522 32.2225C240.195 32.8005 240.925 33.3245 241.703 33.791L241.109 37.9605L244.713 39.3311L247.04 35.8202C247.931 35.9882 248.824 36.0811 249.712 36.0971L251.28 40L255.087 39.3844L255.347 35.1799C256.191 34.882 257.01 34.5142 257.794 34.0808L261.109 36.6802L264.098 34.244L262.223 30.4786C262.801 29.8049 263.324 29.0753 263.791 28.2975L267.961 28.8912L269.331 25.2871L265.82 22.9607C265.988 22.0692 266.081 21.176 266.097 20.2883L270 18.7199L269.385 14.9134L265.18 14.6538C264.882 13.8091 264.515 12.9902 264.081 12.2063L266.681 8.89135L264.244 5.90219L260.479 7.77748C259.805 7.19951 259.075 6.6755 258.297 6.20901L258.892 2.03947Z" fill="#AA4465"/>
<path fill-rule="evenodd" clip-rule="evenodd" d="M247.996 11.311C246.647 11.311 245.301 11.5969 244.033 12.1661C241.674 13.2258 239.868 15.1406 238.949 17.5585C238.029 19.9763 238.107 22.6073 239.166 24.9668C240.226 27.3263 242.141 29.1321 244.559 30.0515C246.977 30.9709 249.608 30.8934 251.967 29.8334C254.327 28.7741 256.132 26.8589 257.051 24.4411C257.971 22.0236 257.893 19.3926 256.834 17.0331C255.774 14.6732 253.859 12.8677 251.441 11.9484C250.322 11.5231 249.158 11.311 247.996 11.311ZM248.004 31.6774C246.724 31.6774 245.44 31.4439 244.207 30.9748C241.543 29.9619 239.433 27.972 238.265 25.3716C237.097 22.7713 237.012 19.8719 238.025 17.2073C239.038 14.5431 241.028 12.4323 243.628 11.2645C246.229 10.0968 249.128 10.0115 251.793 11.0247C254.457 12.0376 256.568 14.0276 257.735 16.6282C258.903 19.2286 258.988 22.128 257.975 24.7925C256.962 27.4568 254.972 29.5673 252.372 30.735C250.975 31.3625 249.491 31.6774 248.004 31.6774ZM244.964 36.7262C244.995 36.7262 245.025 36.7289 245.056 36.7348C245.944 36.9018 246.838 36.9944 247.713 37.0098C247.912 37.0135 248.089 37.1353 248.163 37.3198L249.624 40.9551L252.747 40.4498L252.988 36.5335C253 36.3352 253.13 36.1639 253.317 36.098C254.154 35.8029 254.974 35.4346 255.752 35.0044C255.925 34.9086 256.14 34.9254 256.296 35.0482L259.384 37.4697L261.836 35.4709L260.09 31.9637C260.001 31.7861 260.027 31.5727 260.157 31.4218C260.726 30.7581 261.251 30.0284 261.716 29.253C261.819 29.0827 262.012 28.9895 262.21 29.0181L266.093 29.5712L267.218 26.6141L263.948 24.4473C263.782 24.3373 263.698 24.1393 263.735 23.944C263.902 23.0562 263.994 22.1622 264.01 21.287C264.013 21.0884 264.135 20.9112 264.32 20.837L267.955 19.3761L267.45 16.253L263.534 16.0119C263.335 15.9994 263.164 15.8699 263.098 15.6828C262.803 14.8448 262.435 14.0256 262.004 13.2479C261.908 13.0743 261.926 12.8602 262.048 12.704L264.47 9.61585L262.471 7.16409L258.964 8.91027C258.786 8.99855 258.573 8.97253 258.422 8.84307C257.757 8.27287 257.028 7.74846 256.253 7.28334C256.083 7.18122 255.99 6.98687 256.018 6.79022L256.571 2.9062L253.614 1.78194L251.447 5.05227C251.338 5.21797 251.141 5.30295 250.944 5.26507C250.057 5.09806 249.163 5.00517 248.287 4.98969C248.088 4.98606 247.911 4.86418 247.837 4.68005L246.376 1.04473L243.253 1.54971L243.012 5.46634C243 5.66431 242.87 5.83593 242.683 5.90181C241.846 6.19729 241.026 6.56523 240.248 6.99544C240.074 7.09129 239.86 7.07416 239.704 6.95162L236.616 4.53017L234.164 6.52867L235.911 10.0358C235.999 10.2134 235.973 10.4268 235.843 10.5777C235.272 11.2444 234.747 11.9744 234.284 12.7465C234.182 12.9172 233.988 13.01 233.79 12.9817L229.906 12.4286L228.783 15.3857L232.053 17.5525C232.219 17.6622 232.302 17.8605 232.265 18.0559C232.098 18.943 232.006 19.837 231.99 20.7129C231.986 20.9115 231.864 21.0887 231.68 21.1625L228.045 22.6237L228.55 25.7465L232.467 25.9883C232.665 26.0005 232.836 26.1299 232.902 26.317C233.198 27.155 233.565 27.9743 233.996 28.7517C234.092 28.9256 234.074 29.1397 233.952 29.2958L231.531 32.3837L233.529 34.8358L237.036 33.0893C237.214 33.0013 237.428 33.0273 237.578 33.1565C238.242 33.7263 238.972 34.2511 239.747 34.7162C239.918 34.8183 240.01 35.0127 239.982 35.2093L239.429 39.0933L242.386 40.2176L244.553 36.9473C244.645 36.8076 244.801 36.7262 244.964 36.7262ZM249.312 42C249.114 42 248.93 41.8794 248.854 41.6904L247.367 37.9888C246.649 37.9615 245.922 37.8861 245.197 37.7639L242.991 41.0928C242.863 41.2859 242.62 41.3639 242.404 41.2816L238.708 39.8767C238.492 39.7946 238.362 39.5739 238.395 39.345L238.958 35.3915C238.335 35.0011 237.741 34.5746 237.187 34.1183L233.616 35.8965C233.408 35.9992 233.158 35.9452 233.013 35.7663L230.515 32.7019C230.369 32.523 230.366 32.2664 230.509 32.0846L232.974 28.9411C232.636 28.2994 232.337 27.6337 232.082 26.9544L228.095 26.7087C227.864 26.6945 227.674 26.5222 227.638 26.2943L227.006 22.3915C226.969 22.1636 227.096 21.9402 227.31 21.8542L231.011 20.3663C231.039 19.6482 231.114 18.9212 231.237 18.1969L227.908 15.9912C227.715 15.8637 227.636 15.6196 227.718 15.4035L229.123 11.7082C229.205 11.4921 229.426 11.3617 229.655 11.3946L233.609 11.9576C233.998 11.336 234.425 10.7424 234.882 10.1864L233.104 6.61563C233.001 6.40909 233.055 6.15842 233.234 6.01249L236.298 3.51461C236.478 3.36836 236.734 3.36638 236.915 3.50868L240.059 5.97428C240.701 5.63565 241.367 5.33655 242.046 5.08225L242.292 1.09447C242.306 0.863889 242.478 0.673822 242.706 0.636929L246.608 0.00611783C246.833 -0.0297873 247.06 0.0950572 247.146 0.3095L248.634 4.0107C249.351 4.03837 250.078 4.1138 250.803 4.23601L253.009 0.907041C253.137 0.714009 253.381 0.63627 253.596 0.717962L257.292 2.12288C257.508 2.2049 257.638 2.4256 257.606 2.65454L257.042 6.60838C257.665 6.99807 258.258 7.42498 258.813 7.88121L262.384 6.10308C262.592 5.99997 262.841 6.05433 262.988 6.23319L265.485 9.29798C265.631 9.47684 265.634 9.73312 265.491 9.91495L263.026 13.0588C263.364 13.7001 263.663 14.3662 263.918 15.0454L267.905 15.2912C268.136 15.3053 268.326 15.4773 268.362 15.7056L268.994 19.6084C269.031 19.8363 268.905 20.0596 268.69 20.1456L264.989 21.6332C264.961 22.351 264.886 23.0783 264.763 23.8027L268.093 26.0087C268.285 26.1362 268.364 26.3803 268.282 26.596L266.877 30.2916C266.795 30.5077 266.573 30.6385 266.345 30.6052L262.391 30.0423C262.001 30.6655 261.574 31.2591 261.119 31.8135L262.896 35.3842C262.999 35.5908 262.945 35.8414 262.766 35.9874L259.702 38.4852C259.523 38.6312 259.267 38.6335 259.085 38.4908L255.941 36.0256C255.299 36.3642 254.633 36.6633 253.955 36.9176L253.709 40.9051C253.695 41.136 253.522 41.3257 253.294 41.3626L249.392 41.9937C249.365 41.998 249.339 42 249.312 42Z" fill="#2A2B2E"/>
<path fill-rule="evenodd" clip-rule="evenodd" d="M221.545 56.9903C216.576 58.947 210.962 56.5078 209.004 51.5424C207.046 46.577 209.486 40.966 214.455 39.0097C219.424 37.053 225.038 39.4922 226.996 44.4576C228.954 49.4227 226.514 55.0337 221.545 56.9903ZM233.804 37.3782C233.691 37.1798 233.456 37.0859 233.237 37.1521L230.077 38.1084C229.893 38.1644 229.695 38.1039 229.569 37.9582C229.145 37.4677 228.695 37.0083 228.219 36.5825C228.077 36.4541 228.02 36.2569 228.078 36.0739L229.083 32.932C229.152 32.7145 229.062 32.4784 228.865 32.3633L226.373 30.8981C226.176 30.7823 225.925 30.8184 225.769 30.985L223.51 33.3945C223.379 33.5348 223.178 33.5817 222.996 33.519C222.389 33.3096 221.77 33.1385 221.142 33.0066C220.954 32.967 220.806 32.8239 220.765 32.6364L220.062 29.4069C220.013 29.184 219.817 29.0248 219.589 29.0229L216.698 29C216.47 28.9981 216.271 29.1548 216.22 29.3767L215.469 32.5884C215.426 32.7756 215.276 32.9162 215.087 32.9529C214.461 33.0741 213.839 33.2372 213.224 33.4402C213.041 33.5007 212.84 33.4508 212.71 33.3083L210.488 30.864C210.335 30.6952 210.085 30.6553 209.887 30.7679L207.373 32.1931C207.174 32.3057 207.081 32.5405 207.146 32.7586L208.104 35.9202C208.16 36.1042 208.1 36.302 207.954 36.4277C207.464 36.8517 207.005 37.302 206.579 37.7765C206.451 37.9196 206.253 37.9759 206.07 37.9173L202.928 36.9125C202.711 36.843 202.474 36.9334 202.359 37.1299L200.895 39.6218C200.779 39.8183 200.815 40.0686 200.981 40.2246L203.393 42.4855C203.533 42.6167 203.58 42.8171 203.517 42.9986C203.308 43.6055 203.137 44.225 203.005 44.8532C202.965 45.0414 202.822 45.1894 202.634 45.2302L199.406 45.9317C199.183 45.9803 199.024 46.1765 199.022 46.4046L199 49.2956C198.998 49.5234 199.155 49.7222 199.377 49.7739L202.589 50.5253C202.776 50.5691 202.917 50.7187 202.953 50.9071C203.075 51.5334 203.238 52.1558 203.442 52.7715C203.502 52.9545 203.452 53.1549 203.31 53.2845L200.866 55.5052C200.697 55.6587 200.657 55.9083 200.77 56.1064L202.196 58.6218C202.309 58.8199 202.544 58.9138 202.763 58.8479L205.923 57.8916C206.107 57.8356 206.305 57.8961 206.431 58.0418C206.855 58.532 207.306 58.9917 207.78 59.4175C207.923 59.5456 207.98 59.7431 207.922 59.9258L206.917 63.0684C206.848 63.2852 206.938 63.5213 207.135 63.6367L209.627 65.1019C209.824 65.2177 210.075 65.1813 210.231 65.015L212.49 62.6055C212.621 62.4653 212.822 62.4183 213.004 62.481C213.611 62.6904 214.23 62.8615 214.858 62.9937C215.047 63.0333 215.195 63.1761 215.235 63.3636L215.938 66.5931C215.987 66.8157 216.183 66.9752 216.411 66.9771L219.301 67C219.53 67.0016 219.729 66.8453 219.78 66.623L220.531 63.4116C220.574 63.2244 220.724 63.0838 220.913 63.0471C221.538 62.9255 222.161 62.7628 222.776 62.5598C222.959 62.4993 223.16 62.5492 223.289 62.6917L225.511 65.136C225.665 65.3048 225.915 65.3447 226.113 65.2322L228.627 63.8069C228.826 63.6943 228.92 63.4595 228.854 63.2414L227.896 60.0798C227.84 59.8959 227.9 59.698 228.046 59.5723C228.536 59.1483 228.995 58.6983 229.421 58.2236C229.549 58.0804 229.747 58.0238 229.93 58.0827L233.072 59.0875C233.289 59.157 233.526 59.0666 233.641 58.8698L235.105 56.3779C235.221 56.1814 235.185 55.9314 235.018 55.7754L232.607 53.5148C232.467 53.3833 232.42 53.1832 232.483 53.0015C232.692 52.3945 232.863 51.775 232.995 51.1468C233.034 50.9586 233.178 50.8106 233.365 50.7698L236.594 50.0679C236.817 50.0197 236.976 49.8235 236.978 49.5954L237 46.7044C237.002 46.4763 236.845 46.2779 236.623 46.2261L233.411 45.4747C233.224 45.4309 233.083 45.281 233.046 45.0925C232.925 44.4663 232.762 43.8439 232.559 43.2282C232.498 43.0455 232.548 42.8448 232.69 42.7155L235.134 40.4945C235.302 40.3413 235.342 40.0914 235.23 39.8933L233.804 37.3782Z" fill="#AA4465"/>
<path fill-rule="evenodd" clip-rule="evenodd" d="M218.489 39.311C217.369 39.311 216.232 39.5167 215.129 39.951C212.844 40.8509 211.047 42.5858 210.068 44.8369C209.088 47.0879 209.045 49.585 209.945 51.8689C210.846 54.1524 212.582 55.9489 214.834 56.9273C217.087 57.9057 219.585 57.9491 221.871 57.0493C226.588 55.1917 228.913 49.8454 227.055 45.1315C225.63 41.5199 222.157 39.311 218.489 39.311ZM218.498 58.6603C217.122 58.6603 215.748 58.3777 214.449 57.8133C211.96 56.7319 210.041 54.7464 209.046 52.2227C208.051 49.6993 208.099 46.9395 209.181 44.4518C210.263 41.9645 212.249 40.0466 214.775 39.0525C219.987 37.0004 225.899 39.5679 227.954 44.7773C230.008 49.9868 227.438 55.8954 222.225 57.9482C221.018 58.4234 219.757 58.6603 218.498 58.6603ZM213.338 62.4841C213.445 62.4841 213.553 62.5018 213.657 62.5375C214.243 62.74 214.848 62.9071 215.455 63.0346C215.83 63.1135 216.124 63.4042 216.205 63.7751L216.908 67.0074L219.806 67.0342L220.562 63.816C220.649 63.4457 220.948 63.1595 221.324 63.0868C221.925 62.9702 222.533 62.8112 223.129 62.6145C223.494 62.4941 223.895 62.5987 224.152 62.8804L226.376 65.3266L228.898 63.9013L227.942 60.7311C227.832 60.3663 227.948 59.9687 228.238 59.7179C228.713 59.3074 229.161 58.8677 229.571 58.4108C229.827 58.1256 230.225 58.0161 230.588 58.1317L233.732 59.1374L235.204 56.6411L232.789 54.372C232.512 54.1122 232.414 53.7107 232.539 53.3488C232.741 52.7626 232.908 52.1576 233.035 51.5508C233.114 51.1754 233.405 50.8811 233.776 50.8006L237.008 50.0985L237.033 47.1997L233.814 46.4428C233.445 46.3565 233.159 46.058 233.086 45.6826C232.969 45.0806 232.809 44.4728 232.612 43.8756C232.492 43.5105 232.597 43.11 232.878 42.854L235.324 40.6307L233.897 38.1069C233.896 38.105 233.895 38.1037 233.891 38.1047L230.728 39.0618C230.364 39.1726 229.965 39.056 229.714 38.7653C229.304 38.292 228.864 37.8432 228.406 37.4315C228.121 37.1762 228.012 36.7779 228.127 36.4164L229.132 33.2716L226.635 31.799L224.367 34.2117C224.107 34.4895 223.705 34.5874 223.343 34.4625C222.755 34.26 222.15 34.0929 221.545 33.9657C221.17 33.8868 220.875 33.5961 220.795 33.2252L220.092 29.9929L217.194 29.9658L216.438 33.1843C216.351 33.5543 216.053 33.8405 215.677 33.9136C215.074 34.0304 214.467 34.1895 213.871 34.3858C213.507 34.5059 213.105 34.4019 212.848 34.1202L210.624 31.6738L208.102 33.099L209.058 36.2696C209.169 36.6337 209.052 37.0316 208.761 37.283C208.286 37.6932 207.838 38.133 207.429 38.5898C207.173 38.8748 206.774 38.9842 206.412 38.8683L203.268 37.8626L201.796 40.3589L204.211 42.6287C204.487 42.8885 204.586 43.2899 204.461 43.6515C204.259 44.2371 204.092 44.842 203.964 45.4499C203.885 45.8249 203.595 46.1192 203.223 46.1997L199.992 46.9019L199.967 49.8003L203.185 50.5576C203.555 50.6438 203.841 50.942 203.914 51.3177C204.031 51.9188 204.19 52.5269 204.388 53.1248C204.508 53.4892 204.404 53.8904 204.122 54.1463L201.676 56.3697L203.103 58.8934L206.272 57.9385C206.636 57.8281 207.035 57.9446 207.286 58.235C207.696 58.7093 208.136 59.1581 208.594 59.5685C208.879 59.8238 208.988 60.2224 208.873 60.584L207.867 63.7291L210.365 65.201L212.632 62.7883C212.817 62.591 213.075 62.4841 213.338 62.4841ZM219.807 68H219.799L216.906 67.9771C216.448 67.9736 216.061 67.6591 215.964 67.2125L215.261 63.9805C214.61 63.844 213.966 63.666 213.342 63.4506L211.076 65.8607C210.763 66.1945 210.269 66.265 209.875 66.0336L207.38 64.5674C206.986 64.3359 206.808 63.8704 206.947 63.4351L207.952 60.2897C207.461 59.8496 206.992 59.3715 206.555 58.8667L203.389 59.82C202.951 59.9526 202.487 59.7672 202.262 59.3696L200.834 56.8523C200.609 56.4543 200.688 55.9624 201.025 55.6549L203.472 53.4322C203.26 52.7906 203.09 52.1428 202.966 51.5022L199.75 50.7459C199.305 50.6419 198.996 50.2498 199 49.7929L199.022 46.8996C199.026 46.4421 199.341 46.0551 199.787 45.9582L203.018 45.2561C203.155 44.6044 203.333 43.9602 203.548 43.3369L201.136 41.0698C200.803 40.7569 200.732 40.2636 200.963 39.8702L202.428 37.3761C202.66 36.9814 203.127 36.803 203.562 36.9428L206.706 37.9485C207.146 37.4582 207.623 36.9898 208.129 36.5522L207.174 33.3849C207.042 32.9474 207.227 32.4844 207.625 32.2591L210.141 30.8325C210.54 30.6065 211.032 30.686 211.34 31.0244L213.563 33.4706C214.202 33.2594 214.85 33.0903 215.492 32.9651L216.247 29.7505C216.35 29.3081 216.739 29 217.193 29H217.201L220.094 29.0232C220.551 29.0264 220.938 29.3409 221.036 29.7872L221.739 33.0198C222.389 33.156 223.033 33.334 223.658 33.5494L225.923 31.1397C226.236 30.8058 226.731 30.7346 227.125 30.9665L229.62 32.4329C230.014 32.6644 230.192 33.1303 230.053 33.5655L229.048 36.7103C229.541 37.152 230.009 37.6298 230.445 38.1336L233.611 37.1803C234.049 37.0471 234.512 37.2328 234.738 37.6308L236.166 40.1481C236.391 40.5457 236.312 41.0379 235.974 41.3451L233.528 43.5681C233.74 44.2088 233.91 44.8565 234.034 45.4982L237.25 46.2544C237.695 46.3581 238.003 46.7502 238 47.2074L237.978 50.1007C237.974 50.5579 237.66 50.9449 237.213 51.0421L233.981 51.7443C233.845 52.3949 233.667 53.0391 233.452 53.6634L235.864 55.9305C236.197 56.2431 236.269 56.7364 236.037 57.1301L234.572 59.6242C234.34 60.0189 233.873 60.1967 233.437 60.0576L230.293 59.0518C229.854 59.5425 229.376 60.0112 228.871 60.4481L229.826 63.6154C229.958 64.0526 229.773 64.5156 229.375 64.7413L226.859 66.1678C226.46 66.3932 225.968 66.3146 225.66 65.9762L223.436 63.5298C222.796 63.7413 222.149 63.9106 221.508 64.0349L220.753 67.2499C220.649 67.6925 220.261 68 219.807 68Z" fill="#2A2B2E"/>
<path fill-rule="evenodd" clip-rule="evenodd" d="M270.023 61H237.581C236.452 61 235.503 62.2261 235.465 63.5398L235.001 79.9328C234.964 81.2465 235.852 82.3373 236.981 82.3373H240.861L242.438 87L245.947 82.3373H269.424C270.552 82.3373 271.492 81.3272 271.53 80.0135L271.999 63.5122C272.036 62.1985 271.152 61 270.023 61Z" fill="white"/>
<path fill-rule="evenodd" clip-rule="evenodd" d="M237.073 61.9489C236.253 61.9489 235.479 62.8955 235.447 63.9351L234.983 79.7298C234.967 80.278 235.161 80.7941 235.516 81.1468C235.705 81.3347 236.024 81.5586 236.473 81.5586H240.355C240.565 81.5586 240.752 81.6883 240.82 81.8806L242.1 85.5245L245.051 81.7471C245.144 81.6285 245.289 81.5586 245.443 81.5586H268.931C269.808 81.5586 270.518 80.7777 270.548 79.7804L271.017 63.8817C271.034 63.3026 270.817 62.7307 270.435 62.3515C270.25 62.1677 269.944 61.9489 269.531 61.9489H237.073ZM241.933 87C241.907 87 241.881 86.9981 241.855 86.994C241.675 86.9662 241.526 86.8444 241.468 86.678L240.003 82.5075H236.473C235.855 82.5075 235.265 82.2592 234.811 81.8082C234.272 81.2727 233.977 80.5051 234.001 79.703L234.466 63.9079C234.513 62.3316 235.706 61 237.073 61H269.531C270.121 61 270.692 61.2451 271.14 61.6905C271.702 62.2493 272.023 63.0786 271.999 63.9086L271.53 79.8076C271.485 81.3214 270.344 82.5075 268.931 82.5075H245.688L242.325 86.8115C242.231 86.9314 242.086 87 241.933 87Z" fill="#2A2B2E"/>
<path fill-rule="evenodd" clip-rule="evenodd" d="M243.981 69H263.931C264.496 69 264.981 68.4918 264.999 67.9999C265.018 67.5082 264.585 67 264.02 67H244.069C243.504 67 243.02 67.5082 243.001 67.9999C242.982 68.4918 243.415 69 243.981 69Z" fill="white"/>
<path fill-rule="evenodd" clip-rule="evenodd" d="M243.987 73H263.937C264.503 73 264.981 72.5902 264.999 72.0002C265.018 71.4098 264.579 71 264.013 71H244.062C243.497 71 243.019 71.4098 243.001 72.0002C242.981 72.5902 243.421 73 243.987 73Z" fill="#C9CEBD"/>
<path fill-rule="evenodd" clip-rule="evenodd" d="M242.98 78H262.931C263.496 78 263.981 77.4918 263.999 76.9999C264.019 76.5082 263.585 76 263.02 76H243.069C242.504 76 242.02 76.5082 242.001 76.9999C241.982 77.4918 242.415 78 242.98 78Z" fill="#C9CEBD"/>
<path fill-rule="evenodd" clip-rule="evenodd" d="M102.313 5C102.288 5 102.264 4.996 102.239 4.988C102.072 4.93256 101.968 4.7011 102.009 4.47078L102.384 2.32845C102.425 2.09813 102.594 1.95696 102.761 2.01183C102.928 2.06727 103.032 2.29901 102.991 2.52905L102.616 4.67166C102.581 4.86798 102.453 5 102.313 5Z" fill="#2A2B2E"/>
<path fill-rule="evenodd" clip-rule="evenodd" d="M101.313 11C101.288 11 101.264 10.996 101.239 10.988C101.072 10.9326 100.968 10.7011 101.009 10.4708L101.384 8.32846C101.425 8.09786 101.593 7.95698 101.761 8.01184C101.928 8.06728 102.032 8.29903 101.991 8.52906L101.616 10.6717C101.581 10.868 101.453 11 101.313 11Z" fill="#2A2B2E"/>
<path fill-rule="evenodd" clip-rule="evenodd" d="M99.5717 7C99.5383 7 99.5049 6.99709 99.4709 6.99126L97.3283 6.6157C97.0982 6.57512 96.9568 6.40659 97.0119 6.23909C97.0674 6.07139 97.2991 5.96839 97.5291 6.00876L99.6717 6.38432C99.9018 6.42469 100.043 6.59322 99.9881 6.76093C99.9406 6.90387 99.7652 7 99.5717 7Z" fill="#2A2B2E"/>
<path fill-rule="evenodd" clip-rule="evenodd" d="M105.572 8C105.538 8 105.505 7.99709 105.471 7.99126L103.328 7.61567C103.098 7.57509 102.957 7.40655 103.012 7.23904C103.067 7.07132 103.299 6.96853 103.529 7.00869L105.672 7.38428C105.902 7.42465 106.043 7.5932 105.988 7.76091C105.941 7.90387 105.765 8 105.572 8Z" fill="#2A2B2E"/>
<path fill-rule="evenodd" clip-rule="evenodd" d="M84.0014 8.83267C83.9004 8.83267 83.7986 8.84599 83.698 8.8729C83.3967 8.95337 83.1452 9.14649 82.9896 9.41647C82.8334 9.68645 82.7921 10.0008 82.8728 10.3022C82.9535 10.6032 83.1466 10.8552 83.4167 11.0114C83.9737 11.3332 84.689 11.1418 85.0107 10.5843C85.1666 10.3146 85.2082 9.99999 85.1275 9.69893C85.0468 9.3976 84.8534 9.14593 84.5838 8.98972C84.4038 8.88567 84.2039 8.83267 84.0014 8.83267ZM83.9969 12C83.658 12 83.3144 11.9137 83.0004 11.732C82.538 11.4648 82.2071 11.0336 82.069 10.5175C81.9306 10.0014 82.0019 9.46253 82.269 8.99998C82.5361 8.53772 82.9671 8.2067 83.483 8.06879C83.9986 7.93089 84.5375 8.00164 84.9999 8.26913C85.4622 8.53633 85.7929 8.96752 85.931 9.48362C86.0694 9.99943 85.9981 10.5383 85.731 11.0008C85.3613 11.6415 84.6881 11.9997 83.9969 12Z" fill="#2A2B2E"/>
<path fill-rule="evenodd" clip-rule="evenodd" d="M83.0887 92.9997L19.5917 92.1891C17.5684 92.1633 15.9611 90.398 16.0007 88.2466L17.1762 24.8493C17.2159 22.6979 18.8883 20.9745 20.911 21.0003L84.4086 21.8112C86.4313 21.837 88.0393 23.602 87.9993 25.7538L86.8238 89.151C86.7838 91.3024 85.1114 93.0255 83.0887 92.9997Z" fill="white"/>
<path fill-rule="evenodd" clip-rule="evenodd" d="M36.1745 83L30 82.9311L30.8255 44L37 44.0692L36.1745 83Z" fill="#C9CEBD"/>
<path fill-rule="evenodd" clip-rule="evenodd" d="M36.603 83L32 82.9289L32.397 57L37 57.0715L36.603 83Z" fill="#AA4465"/>
<path fill-rule="evenodd" clip-rule="evenodd" d="M47.2835 83L41 82.9296L41.7165 49L48 49.0704L47.2835 83Z" fill="#C9CEBD"/>
<path fill-rule="evenodd" clip-rule="evenodd" d="M46.6936 83L42 82.9278L42.3067 63L47 63.0722L46.6936 83Z" fill="#AA4465"/>
<path fill-rule="evenodd" clip-rule="evenodd" d="M56.3434 83L50 82.9293L50.657 52L57 52.071L56.3434 83Z" fill="#C9CEBD"/>
<path fill-rule="evenodd" clip-rule="evenodd" d="M56.7708 83L52 82.9314L52.2294 69L57 69.0683L56.7708 83Z" fill="#AA4465"/>
<path fill-rule="evenodd" clip-rule="evenodd" d="M67.1742 83L61 82.9311L61.8258 44L68 44.0689L67.1742 83Z" fill="#C9CEBD"/>
<path fill-rule="evenodd" clip-rule="evenodd" d="M67.2975 83L61 82.9301L61.7025 50L68 50.0699L67.2975 83Z" fill="#AA4465"/>
<path fill-rule="evenodd" clip-rule="evenodd" d="M77.225 84L71 83.9298L71.775 47L78 47.0702L77.225 84Z" fill="#C9CEBD"/>
<path fill-rule="evenodd" clip-rule="evenodd" d="M75.621 83L71 82.9309L71.3787 59L76 59.0691L75.621 83Z" fill="#AA4465"/>
<path fill-rule="evenodd" clip-rule="evenodd" d="M80.5098 84H80.5032L26.9003 83.321C26.398 83.3148 25.9257 83.1098 25.5702 82.7441C25.1957 82.3588 24.9878 81.8234 25.0006 81.2744L26.0849 34.4752C26.0908 34.2067 26.3029 33.9943 26.5862 34.0001C26.8568 34.0063 27.0709 34.2291 27.065 34.4976L25.9806 81.2968C25.9741 81.5877 26.0816 81.8691 26.2758 82.0686C26.448 82.246 26.6745 82.3452 26.9127 82.3481L80.516 83.0272C80.7869 83.0307 81.0032 83.2512 81 83.5197C80.9964 83.7863 80.7774 84 80.5098 84Z" fill="#AA4465"/>
<path fill-rule="evenodd" clip-rule="evenodd" d="M47.9445 33L32 32.8093L32.0555 30L48 30.1907L47.9445 33Z" fill="#C9CEBD"/>
<path fill-rule="evenodd" clip-rule="evenodd" d="M47.9445 38L32 37.8093L32.0552 35L48 35.1907L47.9445 38Z" fill="#C9CEBD"/>
<path fill-rule="evenodd" clip-rule="evenodd" d="M84.3277 93C84.3104 93 84.2935 93 84.2762 92.9997L46.4831 92.5347C46.2128 92.5313 45.9965 92.3174 46 92.0566C46.0033 91.7983 46.2216 91.591 46.4893 91.591H46.4955L84.2886 92.0559C84.3016 92.0563 84.3147 92.0563 84.3274 92.0563C86.0858 92.0563 87.5378 90.5881 87.5727 88.7654L88.0212 65.4633C88.026 65.2025 88.2362 64.9921 88.5198 65.0002C88.7901 65.0049 89.0051 65.2201 88.9999 65.4806L88.5515 88.7827C88.5071 91.1191 86.6168 93 84.3277 93Z" fill="#2A2B2E"/>
<path fill-rule="evenodd" clip-rule="evenodd" d="M77.5076 22H77.501L71.4861 21.9276C71.2142 21.9242 70.9964 21.714 71 21.4579C71.0033 21.2038 71.2231 21 71.4924 21H71.4986L77.5139 21.0724C77.7858 21.0758 78.0036 21.286 78 21.5421C77.9963 21.7962 77.7766 22 77.5076 22Z" fill="#2A2B2E"/>
<path fill-rule="evenodd" clip-rule="evenodd" d="M16.491 76C16.4881 76 16.4848 76 16.4819 76C16.2109 75.9948 15.9949 75.7707 16.0001 75.4995L16.9473 24.3907C16.9924 21.9402 18.9117 19.9798 21.2348 20.0002L57.5152 20.4636C57.7866 20.4672 58.0032 20.69 58 20.9612C57.9964 21.2327 57.7594 21.4545 57.5028 21.4463L21.2223 20.9828C21.2096 20.9828 21.1962 20.9825 21.1834 20.9825C19.42 20.9825 17.9638 22.5108 17.9288 24.409L16.9816 75.5178C16.9767 75.7861 16.7578 76 16.491 76Z" fill="#2A2B2E"/>
<path fill-rule="evenodd" clip-rule="evenodd" d="M192.837 110.999L177.23 110.594C176.017 110.562 175.018 109.51 175 108.245V108.236C174.982 106.97 175.95 105.969 177.163 106.001L192.77 106.406C193.983 106.438 194.982 107.489 195 108.755V108.764C195.018 110.03 194.05 111.031 192.837 110.999Z" fill="white"/>
<path fill-rule="evenodd" clip-rule="evenodd" d="M208.981 110.999L202.081 110.799C200.949 110.766 200.018 109.667 200 108.345V108.336C199.983 107.013 200.887 105.968 202.019 106.001L208.918 106.202C210.051 106.234 210.983 107.333 211 108.655V108.665C211.017 109.987 210.113 111.032 208.981 110.999Z" fill="white"/>
<path fill-rule="evenodd" clip-rule="evenodd" d="M209.911 121.999L178.154 121.216C176.982 121.187 176.018 120.221 176 119.06V119.052C175.982 117.89 176.918 116.972 178.089 117.001L209.846 117.784C211.018 117.813 211.982 118.779 212 119.94V119.948C212.018 121.11 211.082 122.028 209.911 121.999Z" fill="white"/>
<path fill-rule="evenodd" clip-rule="evenodd" d="M204.859 131.999L179.208 131.361C178.007 131.331 177.018 130.332 177 129.131V129.122C176.982 127.921 177.94 126.971 179.141 127.001L204.792 127.64C205.993 127.669 206.982 128.668 207 129.869V129.878C207.018 131.079 206.06 132.029 204.859 131.999Z" fill="white"/>
<path fill-rule="evenodd" clip-rule="evenodd" d="M206.869 142.999L179.197 142.314C178.002 142.284 177.019 141.297 177 140.108V140.1C176.982 138.911 177.936 137.971 179.131 138.001L206.803 138.686C207.998 138.716 208.982 139.703 209 140.892V140.901C209.018 142.089 208.064 143.029 206.869 142.999Z" fill="white"/>
<path fill-rule="evenodd" clip-rule="evenodd" d="M74.0221 160.963C74.0221 160.963 72.4388 166.481 96.0723 167.825C119.706 169.168 115.751 162.345 115.751 162.345L90.9395 155L74.0221 160.963Z" fill="white"/>
<path fill-rule="evenodd" clip-rule="evenodd" d="M99 245.423L98.6607 256.574L94.2044 257L92 245L99 245.423Z" fill="white"/>
<path fill-rule="evenodd" clip-rule="evenodd" d="M92.2017 245.026L94.1812 255.967L97.5806 255.637L97.888 245.376L92.2017 245.026ZM93.7222 257C93.4566 257 93.2245 256.827 93.181 256.586L91.0072 244.572C90.9801 244.423 91.0306 244.272 91.1433 244.161C91.2564 244.05 91.4207 243.991 91.5865 244.001L98.4885 244.425C98.782 244.443 99.0078 244.666 98.9998 244.93L98.6653 256.094C98.658 256.341 98.4487 256.544 98.1753 256.571L93.7815 256.997C93.7618 256.999 93.742 257 93.7222 257Z" fill="#2A2B2E"/>
<path fill-rule="evenodd" clip-rule="evenodd" d="M120.377 249L121 257.588L115.842 258L114 249H120.377Z" fill="white"/>
<path fill-rule="evenodd" clip-rule="evenodd" d="M115.086 248.956L116.731 257.011L120.989 256.67L120.43 248.956H115.086ZM116.336 258C116.105 258 115.903 257.841 115.856 257.615L114.009 248.571C113.981 248.431 114.018 248.286 114.111 248.175C114.204 248.064 114.343 248 114.489 248H120.886C121.143 248 121.356 248.194 121.374 248.444L121.999 257.074C122.018 257.336 121.818 257.563 121.551 257.585L116.376 257.998C116.363 257.999 116.349 258 116.336 258Z" fill="#2A2B2E"/>
<path fill-rule="evenodd" clip-rule="evenodd" d="M114.611 262.193C114.246 261.962 114.024 261.572 114.013 261.154C113.979 259.898 113.974 257.223 114.505 256.218C115.209 254.884 118.113 256.743 118.113 256.743C118.113 256.743 119.813 254.494 120.808 254.021C121.323 253.776 124.338 255.692 127.377 258.304C130.707 261.166 132.21 262.079 132.928 264.547C133.265 265.704 132.374 266.869 131.119 266.955C128.06 267.164 121.888 266.815 114.611 262.193Z" fill="white"/>
<path fill-rule="evenodd" clip-rule="evenodd" d="M113.383 261.297C120.548 265.868 126.61 266.207 129.587 266.003C130.046 265.972 130.463 265.745 130.731 265.38C130.99 265.029 131.071 264.593 130.953 264.186C130.388 262.235 129.325 261.338 126.996 259.373C126.555 259.002 126.074 258.596 125.547 258.14C122.475 255.489 120.021 254.038 119.465 253.943C118.805 254.31 117.625 255.687 117.015 256.497L116.734 256.87L116.336 256.614C115.656 256.178 114.339 255.545 113.704 255.707C113.58 255.738 113.503 255.797 113.446 255.905C113.108 256.548 112.944 258.317 113.007 260.637C113.015 260.905 113.155 261.152 113.383 261.297ZM128.276 267C124.881 267 119.272 266.198 112.833 262.091C112.336 261.774 112.03 261.239 112.014 260.662C111.965 258.862 112.02 256.501 112.559 255.476C112.744 255.125 113.052 254.886 113.452 254.785C114.428 254.54 115.802 255.199 116.486 255.582C117.034 254.892 118.233 253.464 119.087 253.056C120.394 252.43 125.974 257.228 126.211 257.432C126.735 257.885 127.214 258.288 127.652 258.657C129.982 260.624 131.266 261.707 131.91 263.931C132.108 264.614 131.975 265.343 131.543 265.93C131.103 266.528 130.416 266.902 129.658 266.954C129.25 266.982 128.788 267 128.276 267Z" fill="#2A2B2E"/>
<path fill-rule="evenodd" clip-rule="evenodd" d="M127.431 264C124.268 264 119.192 263.319 114.184 259.773C113.973 259.624 113.938 259.351 114.107 259.163C114.275 258.976 114.583 258.945 114.795 259.095C122.372 264.458 130.32 262.907 130.4 262.891C130.662 262.837 130.926 262.982 130.987 263.216C131.048 263.449 130.885 263.682 130.622 263.737C130.495 263.763 129.296 264 127.431 264Z" fill="#2A2B2E"/>
<path fill-rule="evenodd" clip-rule="evenodd" d="M98.9999 259.835L98.9438 254.101C98.9438 254.101 97.7541 252.362 96.1225 253.776C96.1225 253.776 94.614 251.732 91.8145 254.28C91.8145 254.28 87.8747 261.375 86.1312 265.596C85.6644 266.725 86.4985 267.964 87.7571 267.992C89.565 268.033 91.9034 267.939 92.9219 267.273C94.5136 266.234 97.2388 262.955 98.4266 261.478C98.8044 261.008 99.0056 260.43 98.9999 259.835Z" fill="white"/>
<path fill-rule="evenodd" clip-rule="evenodd" d="M91.6974 254.037C91.2908 254.775 87.6848 261.343 86.0554 265.292C85.89 265.693 85.9357 266.129 86.1817 266.489C86.4239 266.844 86.8138 267.053 87.2523 267.063C89.6975 267.119 91.4363 266.89 92.1538 266.421C93.7068 265.404 96.4562 262.08 97.5662 260.697C97.8764 260.311 98.045 259.827 98.0402 259.337L97.9855 253.729C97.8374 253.557 97.4894 253.212 97.0416 253.159C96.6951 253.118 96.3305 253.262 95.954 253.589L95.5544 253.936L95.2429 253.514C95.2291 253.496 94.8402 252.998 94.1137 252.935C93.4055 252.877 92.5722 253.255 91.6974 254.037ZM87.9637 268C87.7267 268 87.482 267.997 87.2299 267.991C86.484 267.975 85.7927 267.604 85.3807 267.001C84.9655 266.393 84.8846 265.625 85.1642 264.948C86.9037 260.732 90.8494 253.602 90.889 253.531L90.9258 253.464L90.9828 253.412C92.1084 252.386 93.2008 251.915 94.2228 252.013C94.8913 252.076 95.3788 252.374 95.6766 252.621C96.1609 252.304 96.6609 252.175 97.1685 252.238C98.2062 252.367 98.8377 253.276 98.8642 253.315L98.9423 253.429L98.9998 259.328C99.0069 260.027 98.7667 260.716 98.3239 261.267C96.9101 263.028 94.2986 266.138 92.6912 267.19C91.8688 267.728 90.28 268 87.9637 268Z" fill="#2A2B2E"/>
<path fill-rule="evenodd" clip-rule="evenodd" d="M96.501 257C96.2255 257 96.002 256.794 96.002 256.54L96 253.461C96 253.207 96.2232 253 96.4987 253H96.499C96.7745 253 96.998 253.206 96.998 253.46L97 256.539C97 256.794 96.7768 257 96.5013 257H96.501Z" fill="#2A2B2E"/>
<path fill-rule="evenodd" clip-rule="evenodd" d="M121.558 249.404C121.558 249.404 123.024 227.045 120.618 206.934C118.211 186.822 109.259 158.102 109.259 158.102C109.259 158.102 99.6276 157.661 92.6168 158.612C85.6058 159.563 82.8315 158.585 82.8315 158.585C82.8315 158.585 77.5975 164.636 78.0248 176.012C78.4518 187.389 90.6642 235.375 90.2015 246.638C90.2015 246.638 94.3087 248.722 99.6282 247.687L97.4238 183.014C97.4238 183.014 101.986 196.327 104.127 205.448C105.873 212.884 108.902 217.693 108.902 217.693C108.902 217.693 108.773 234.978 112.702 249.324C112.702 249.324 117.343 250.79 121.558 249.404Z" fill="#2A2B2E"/>
<path fill-rule="evenodd" clip-rule="evenodd" d="M114.552 225C114.409 225 114.269 224.937 114.182 224.82L111.079 220.649C110.938 220.461 110.991 220.202 111.195 220.073C111.399 219.943 111.678 219.991 111.818 220.18L114.921 224.351C115.061 224.54 115.009 224.798 114.806 224.927C114.728 224.977 114.639 225 114.552 225Z" fill="white"/>
<path fill-rule="evenodd" clip-rule="evenodd" d="M91.4499 214C90.1776 214 88.5596 213.772 87.2084 212.852C86.9797 212.697 86.932 212.4 87.1013 212.191C87.2709 211.981 87.5932 211.938 87.8219 212.093C90.0471 213.608 93.326 212.873 93.3586 212.865C93.6336 212.802 93.9141 212.954 93.9841 213.207C94.0538 213.459 93.888 213.716 93.6123 213.781C93.5382 213.798 92.6469 214 91.4499 214Z" fill="white"/>
<path fill-rule="evenodd" clip-rule="evenodd" d="M107 140.209C107 140.209 112.566 152.098 121.642 154.527C130.719 156.955 137.04 149.617 137 142.041L133.914 141.069C133.914 141.069 130.749 148.834 123.686 146.813C116.624 144.793 113.348 129 113.348 129L107 140.209Z" fill="white"/>
<path fill-rule="evenodd" clip-rule="evenodd" d="M107.061 140.719C107.854 142.306 113.188 152.417 121.278 154.585C125.774 155.79 128.988 154.399 130.893 153.02C133.978 150.787 135.913 146.926 135.996 142.881L133.687 142.153C132.873 143.791 129.473 149.617 123.042 147.774C116.9 146.014 113.604 134.693 112.649 130.834L107.061 140.719ZM124.63 156C123.521 156 122.313 155.852 121.006 155.502C111.81 153.037 106.275 141.391 106.043 140.897C105.98 140.762 105.986 140.608 106.06 140.478L112.407 129.251C112.507 129.074 112.714 128.976 112.922 129.005C113.132 129.035 113.298 129.187 113.339 129.384C113.371 129.539 116.639 144.944 123.331 146.862C129.874 148.737 132.825 141.693 132.947 141.393C133.043 141.156 133.318 141.033 133.572 141.112L136.656 142.086C136.861 142.15 136.999 142.331 137 142.535C137.024 146.997 134.916 151.305 131.5 153.778C129.971 154.885 127.674 156 124.63 156Z" fill="#2A2B2E"/>
<path fill-rule="evenodd" clip-rule="evenodd" d="M74 128.007C74 128.007 79.5201 120.825 95.1151 122.167C113.737 123.769 115.157 127.437 115.157 127.437L110.295 137.256L116 162.038C116 162.038 112.102 165.256 102.972 163.449C93.8412 161.642 78.1504 159.425 74.002 160.673L79.7859 137.026L74 128.007Z" fill="#AA4465"/>
<path fill-rule="evenodd" clip-rule="evenodd" d="M77.3011 160.325C83.7338 160.325 94.9649 161.963 102.57 163.468C110.132 164.964 113.989 162.945 114.947 162.329L109.316 137.865C109.29 137.754 109.304 137.638 109.354 137.536L114.091 127.97C113.51 127.307 110.171 124.496 94.5725 123.155C81.1027 121.996 75.2776 127.307 74.1128 128.549L79.7 137.258C79.7727 137.372 79.7962 137.511 79.7641 137.642L74.1676 160.522C74.9916 160.387 76.0566 160.325 77.3011 160.325ZM107.761 165C106.212 165 104.423 164.842 102.377 164.437C93.1319 162.607 77.6052 160.456 73.6408 161.649C73.4704 161.7 73.2858 161.656 73.1567 161.534C73.0279 161.413 72.974 161.231 73.016 161.059L78.7512 137.613L73.0781 128.77C72.9658 128.595 72.9753 128.368 73.1022 128.203C73.3343 127.901 78.9708 120.822 94.6577 122.171C113.06 123.754 114.967 127.351 115.123 127.756C115.173 127.885 115.166 128.029 115.105 128.152L110.321 137.815L115.987 162.43C116.029 162.612 115.965 162.802 115.82 162.921C115.691 163.028 113.222 165 107.761 165Z" fill="#2A2B2E"/>
<path fill-rule="evenodd" clip-rule="evenodd" d="M133.553 152H110L125.448 124H149L133.553 152Z" fill="#2A2B2E"/>
<path fill-rule="evenodd" clip-rule="evenodd" d="M110.541 151.679H133.402L148.458 124.321H125.598L110.541 151.679ZM133.59 152H110L125.41 124H149L133.59 152Z" fill="#2A2B2E"/>
<path fill-rule="evenodd" clip-rule="evenodd" d="M134.168 151C134.168 151 133.79 148.69 134.168 147.148C134.545 145.607 136.884 141.023 137.553 140.063C138.222 139.104 138.789 149.347 134.168 151Z" fill="white"/>
<path fill-rule="evenodd" clip-rule="evenodd" d="M138.072 140.432C137.14 141.994 135.332 145.534 135.015 146.786C134.771 147.755 134.864 149.093 134.948 149.847C136.027 149.285 136.859 148.144 137.425 146.445C138.199 144.125 138.209 141.585 138.072 140.432ZM134.603 151C134.526 151 134.449 150.976 134.381 150.93C134.277 150.859 134.204 150.741 134.181 150.605C134.165 150.506 133.776 148.156 134.19 146.519C134.598 144.907 137.015 140.297 137.775 139.242C137.962 138.982 138.208 138.965 138.376 139.036C138.948 139.277 139.027 140.867 138.993 142.159C138.899 145.741 137.729 149.939 134.729 150.979C134.687 150.993 134.645 151 134.603 151Z" fill="#2A2B2E"/>
<path fill-rule="evenodd" clip-rule="evenodd" d="M85.4669 144.77L103.586 136.211L113 137.844C113 137.844 112.341 138.804 111.003 138.58C109.666 138.356 107.886 138.731 106.765 139.939C105.645 141.147 103.756 140.379 103.756 140.379C103.756 140.379 93.5072 153.285 84.3046 154.949C76.8236 156.303 76 130 76 130L84.9999 137.822L85.4669 144.77Z" fill="white"/>
<path fill-rule="evenodd" clip-rule="evenodd" d="M75.023 130.582C75.2482 134.854 76.3424 150.05 80.6117 153.429C81.2715 153.951 81.9576 154.139 82.7089 154.003C91.629 152.388 101.777 139.71 101.879 139.582C102.013 139.412 102.247 139.352 102.449 139.434C102.463 139.44 104.041 140.057 104.915 139.113C106.187 137.74 108.184 137.365 109.598 137.603C109.841 137.644 110.053 137.635 110.236 137.598L102.162 136.196L84.1715 144.704C84.0254 144.773 83.8549 144.766 83.7152 144.686C83.5759 144.606 83.4858 144.464 83.4751 144.305L83.021 137.541L75.023 130.582ZM82.2435 155C81.4495 155 80.6979 154.722 80.0011 154.171C74.7005 149.976 74.0264 130.326 74.0005 129.492C73.9943 129.301 74.1045 129.126 74.2802 129.045C74.4558 128.964 74.6639 128.994 74.8088 129.12L83.8154 136.957C83.9113 137.04 83.9693 137.157 83.9781 137.283L84.3981 143.538L101.882 135.27C101.973 135.226 102.078 135.213 102.177 135.23L111.598 136.866C111.76 136.894 111.897 137 111.961 137.149C112.026 137.297 112.009 137.468 111.917 137.601C111.883 137.651 111.064 138.817 109.434 138.543C108.281 138.349 106.659 138.649 105.634 139.755C104.608 140.864 103.111 140.621 102.432 140.433C100.87 142.346 91.5437 153.373 82.8855 154.941C82.6687 154.98 82.4548 155 82.2435 155Z" fill="#2A2B2E"/>
<path fill-rule="evenodd" clip-rule="evenodd" d="M93.0481 116.343C91.8549 117.097 90.581 117.016 89.9653 116.976C88.6791 116.892 83.2886 116.015 80.5752 111.157C77.9183 106.401 78.9519 99.8398 81.2399 98.9594C82.8827 98.3276 84.7487 100.787 87.2332 99.7907C88.3339 99.3495 88.2216 98.7658 89.3906 98.2982C91.3602 97.5107 93.4731 98.4496 95.0851 99.1919C98.0292 100.547 97.7423 101.39 100.311 102.677C103.969 104.511 106.438 103.749 106.924 105.178C107.312 106.317 106.146 107.982 104.874 108.816C102.242 110.542 99.9633 108.091 97.8656 109.757C96.563 110.791 96.3394 112.554 94.1316 115.342C93.9555 115.565 93.6163 115.984 93.0481 116.343Z" fill="#2A2B2E"/>
<path fill-rule="evenodd" clip-rule="evenodd" d="M96.8345 120.043C96.806 119.634 96.7808 119.181 96.7648 118.711C97.5385 119.243 98.417 119.492 99.0063 119.318C99.7331 119.105 100.004 118.43 100.449 117.651C100.635 117.325 100.823 116.939 101.268 116.662C101.503 116.516 101.749 116.438 101.977 116.4C102.257 116.353 102.455 116.101 102.443 115.818L102.41 115.645C102.15 114.279 102.162 112.875 102.443 111.513L103 108.824C101.657 107.925 101.099 107.907 100.848 108.096C100.756 108.165 100.635 108.198 100.549 108.612C100.138 110.61 98.3846 110.016 96.9589 109.323C95.5328 108.63 95.4543 111.525 95.4543 111.525C95.4543 111.525 94.7827 110.12 93.5155 110.939C92.6075 111.526 93.789 113.065 94.5316 113.89L92.6772 119.522C92.1893 121.004 90.8951 122.08 89.3435 122.293L87 122.615C87 122.615 95.6223 125.165 102.562 123.344L98.7243 122.326C97.6684 122.046 96.9102 121.128 96.8345 120.043Z" fill="white"/>
<path fill-rule="evenodd" clip-rule="evenodd" d="M89.0255 122.256C91.6354 122.784 95.9639 123.402 100.02 122.804L98.1157 122.299C96.8622 121.966 95.9595 120.876 95.8697 119.586V119.585C95.837 119.117 95.8133 118.662 95.7989 118.232C95.7929 118.054 95.888 117.888 96.0446 117.803C96.2012 117.717 96.393 117.727 96.5399 117.829C97.203 118.285 97.944 118.504 98.3864 118.375C98.8067 118.251 99.014 117.904 99.3734 117.249C99.432 117.142 99.4928 117.032 99.5568 116.92L99.6063 116.833C99.7956 116.496 100.031 116.078 100.539 115.761C100.801 115.598 101.098 115.488 101.423 115.433C101.46 115.427 101.489 115.394 101.496 115.354L101.471 115.227C101.198 113.789 101.21 112.332 101.506 110.899L102 108.514C100.934 107.843 100.649 107.944 100.646 107.945C100.636 107.953 100.618 107.966 100.599 107.978C100.592 107.98 100.563 108.024 100.532 108.177C100.374 108.946 100.02 109.47 99.4799 109.734C98.5269 110.202 97.2575 109.705 96.2585 109.219C96.0629 109.124 95.9917 109.167 95.9646 109.183C95.6438 109.377 95.4473 110.373 95.4287 111.019C95.4224 111.236 95.2674 111.421 95.0538 111.465C94.8411 111.511 94.6237 111.404 94.5298 111.208C94.4681 111.083 94.2378 110.736 93.9287 110.651C93.734 110.597 93.5182 110.651 93.2677 110.812C93.1864 110.865 93.165 110.915 93.1565 110.978C93.1155 111.283 93.4164 111.991 94.3821 113.064C94.4945 113.189 94.5317 113.365 94.4791 113.525L92.6184 119.177C92.0907 120.779 90.6893 121.975 89.0255 122.256ZM96.3956 124C91.2016 124 86.5999 122.663 86.3381 122.586C86.1248 122.523 85.9846 122.32 86.0013 122.099C86.018 121.878 86.1875 121.699 86.4078 121.668L88.7593 121.345C90.1279 121.157 91.2898 120.191 91.7205 118.883L93.4968 113.487C92.5607 112.402 92.131 111.517 92.2195 110.854C92.2659 110.506 92.4505 110.218 92.7532 110.023C93.3597 109.631 93.8685 109.656 94.1892 109.746C94.3449 109.79 94.4845 109.855 94.6089 109.933C94.7337 109.341 94.9816 108.676 95.4747 108.379C95.7207 108.23 96.1281 108.108 96.6728 108.373C97.1006 108.581 98.4028 109.214 99.0622 108.89C99.3303 108.759 99.5077 108.464 99.6056 107.988C99.7001 107.53 99.8586 107.342 100.067 107.2C100.618 106.788 101.452 107.008 102.791 107.905C102.95 108.012 103.029 108.203 102.99 108.391L102.432 111.089C102.16 112.402 102.15 113.735 102.4 115.052L102.433 115.226C102.437 115.249 102.44 115.271 102.441 115.294C102.463 115.816 102.094 116.275 101.58 116.361C101.378 116.395 101.197 116.462 101.04 116.56C100.737 116.748 100.588 117.013 100.431 117.292L100.378 117.385C100.317 117.493 100.259 117.599 100.203 117.701C99.8249 118.388 99.4683 119.038 98.6542 119.277C98.1334 119.43 97.4598 119.339 96.7821 119.04C96.791 119.198 96.8013 119.359 96.8127 119.52C96.8744 120.409 97.496 121.16 98.359 121.389L102.21 122.411C102.417 122.465 102.561 122.653 102.561 122.866C102.561 123.08 102.416 123.266 102.209 123.321C100.317 123.817 98.3155 124 96.3956 124Z" fill="#2A2B2E"/>
<path fill-rule="evenodd" clip-rule="evenodd" d="M95.6398 119C95.5758 119 95.5115 118.98 95.4529 118.936C94.1624 117.986 94.0069 115.569 94.0009 115.466C93.9868 115.227 94.1362 115.018 94.3347 115.001C94.5331 114.981 94.7051 115.165 94.7188 115.405C94.7214 115.445 94.8601 117.481 95.8272 118.193C95.9971 118.318 96.0508 118.586 95.9474 118.791C95.8797 118.926 95.7612 119 95.6398 119Z" fill="#2A2B2E"/>
<path fill-rule="evenodd" clip-rule="evenodd" d="M13 247.808L13.672 255.398L18 256V247L13 247.808Z" fill="white"/>
<path fill-rule="evenodd" clip-rule="evenodd" d="M13.7834 254.434L17.9738 254.92V247.091L13.0753 247.752L13.7834 254.434ZM18.4869 256C18.4667 256 18.4472 255.999 18.427 255.997L13.2559 255.396C13.0178 255.368 12.8307 255.181 12.8057 254.944L12.0029 247.368C11.9738 247.095 12.1691 246.849 12.4438 246.811L18.4174 246.005C18.5652 245.984 18.7127 246.029 18.8242 246.126C18.936 246.222 19 246.362 19 246.509V255.492C19 255.637 18.9371 255.775 18.8279 255.872C18.7335 255.955 18.6117 256 18.4869 256Z" fill="#2A2B2E"/>
<path fill-rule="evenodd" clip-rule="evenodd" d="M19.1379 267.699C17.1103 267.972 13.7853 268.213 9.88194 267.695C8.60292 267.526 7.75518 266.339 8.06351 265.139C8.92316 261.796 10.4036 255.457 12.9456 252.518L13.5767 254.112L14.4489 252.611C14.5683 252.406 14.7827 252.267 15.0266 252.237L16.9365 252.006C17.3352 251.958 17.7066 252.21 17.7894 252.587L18.0932 253.969L18.7591 252.154L20.9811 265.369C21.1366 266.498 20.3162 267.541 19.1379 267.699Z" fill="#AA4465"/>
<path fill-rule="evenodd" clip-rule="evenodd" d="M13.3025 253.941C11.2936 256.804 9.99953 261.903 9.20179 265.046L9.01688 265.773C8.9007 266.224 8.98719 266.685 9.25956 267.07C9.52966 267.452 9.95887 267.707 10.4365 267.77C14.2599 268.277 17.5206 268.052 19.5834 267.774C20.496 267.651 21.1398 266.834 21.0188 265.954L19.0961 254.498L19.0603 254.596C18.9883 254.792 18.7892 254.921 18.5717 254.905C18.3551 254.892 18.1744 254.741 18.1296 254.538L17.8249 253.149C17.7943 253.008 17.6558 252.911 17.5045 252.93L15.5892 253.163C15.4982 253.174 15.4169 253.227 15.372 253.304L14.4978 254.811C14.4061 254.969 14.2274 255.06 14.0395 255.048C13.8517 255.035 13.6888 254.919 13.6219 254.75L13.3025 253.941ZM15.0383 269C13.6042 269 12.0081 268.916 10.3038 268.689C9.55484 268.59 8.88231 268.19 8.45827 267.591C8.03616 266.994 7.89707 266.251 8.07682 265.551L8.26109 264.827C9.14435 261.347 10.6227 255.522 13.0685 252.689C13.1785 252.562 13.3512 252.5 13.5209 252.527C13.691 252.554 13.8333 252.666 13.8943 252.82L14.158 253.487L14.5259 252.853C14.7198 252.519 15.0716 252.29 15.4675 252.242L17.3828 252.009C17.9527 251.94 18.4975 252.259 18.7079 252.756L18.814 252.465C18.8876 252.265 19.0961 252.138 19.3139 252.157C19.5346 252.176 19.7137 252.336 19.7489 252.545L21.9766 265.819C22.1689 267.216 21.155 268.499 19.7183 268.693C18.5146 268.855 16.9149 269 15.0383 269Z" fill="#2A2B2E"/>
<path fill-rule="evenodd" clip-rule="evenodd" d="M13.5551 267C12.234 267 10.8041 266.865 9.37889 266.49C9.11642 266.422 8.95258 266.121 9.01227 265.819C9.07229 265.516 9.33412 265.327 9.59496 265.396C14.3529 266.646 19.3298 265.038 19.3794 265.022C19.637 264.937 19.9073 265.109 19.9812 265.407C20.0549 265.705 19.9053 266.016 19.6467 266.101C19.4949 266.151 16.8673 267 13.5551 267Z" fill="#2A2B2E"/>
<path fill-rule="evenodd" clip-rule="evenodd" d="M12.4365 261C12.2018 261 12.0078 260.816 12.0002 260.582C11.9924 260.343 12.1811 260.143 12.4222 260.135L16.5489 260C16.7837 259.989 16.9919 260.18 16.9998 260.419C17.0076 260.657 16.8189 260.857 16.5778 260.865L12.4511 261C12.4461 261 12.4414 261 12.4365 261Z" fill="#2A2B2E"/>
<path fill-rule="evenodd" clip-rule="evenodd" d="M36 244L36.7446 255H42.7217L43 244H36Z" fill="white"/>
<path fill-rule="evenodd" clip-rule="evenodd" d="M36.7002 253.99H41.7466L41.9994 244.01H36.023L36.7002 253.99ZM42.2275 255H36.2397C35.9799 255 35.765 254.795 35.7468 254.53L35.0012 243.54C34.9917 243.4 35.0394 243.263 35.1326 243.161C35.226 243.058 35.3567 243 35.4937 243H42.5064C42.6394 243 42.7671 243.055 42.8599 243.153C42.9528 243.25 43.0031 243.382 42.9998 243.518L42.7213 254.508C42.7144 254.782 42.4955 255 42.2275 255Z" fill="#2A2B2E"/>
<path fill-rule="evenodd" clip-rule="evenodd" d="M35.0002 261.173C34.9853 262.124 35.6712 262.958 36.6489 263.174C40.0498 263.923 47.7114 265.592 49.8969 265.9C52.733 266.3 56.2192 265.477 57.7182 263.906C59.2165 262.335 54.3618 258.585 52.0578 257.22C48.6354 255.193 45.3472 251.186 43.9686 251.006C42.5899 250.826 40.016 254.613 40.016 254.613L35.8088 252.94C35.8088 252.94 35.0757 256.353 35.0002 261.173Z" fill="#AA4465"/>
<path fill-rule="evenodd" clip-rule="evenodd" d="M36.6711 253.065C36.4667 254.221 36.0336 257.071 35.977 260.693C35.9656 261.426 36.5005 262.078 37.2497 262.244C40.4982 262.962 48.2894 264.667 50.4724 264.976C53.2114 265.364 56.527 264.531 57.8674 263.121C57.9511 263.033 58.0572 262.881 58.0132 262.582C57.7951 261.094 54.5576 258.446 52.305 257.107C50.5547 256.067 48.8908 254.566 47.4228 253.242C46.1999 252.14 44.936 251 44.3995 250.93C43.7562 250.844 42.0827 252.628 40.9205 254.345C40.7919 254.535 40.5395 254.609 40.3204 254.522L36.6711 253.065ZM51.8772 266C51.3537 266 50.8341 265.966 50.3288 265.894C48.1107 265.58 40.2882 263.869 37.0283 263.148C35.8347 262.884 34.9821 261.846 35.0003 260.679C35.0755 255.848 35.8123 252.355 35.8197 252.32C35.8487 252.184 35.9409 252.067 36.0698 252.003C36.1994 251.937 36.3524 251.931 36.4872 251.985L40.3247 253.517C41.1614 252.332 43.1207 249.823 44.533 250.01C45.3411 250.116 46.3614 251.006 48.0951 252.569C49.5299 253.863 51.1558 255.329 52.823 256.32C54.3174 257.209 58.6559 260.242 58.9805 262.453C59.0538 262.953 58.9196 263.399 58.5924 263.743C57.2885 265.115 54.5394 266 51.8772 266Z" fill="#2A2B2E"/>
<path fill-rule="evenodd" clip-rule="evenodd" d="M51.4051 263C45.1331 263 36.779 260.011 36.3061 259.84C36.0547 259.748 35.9339 259.494 36.0366 259.271C36.1397 259.048 36.4272 258.942 36.6786 259.032C36.8299 259.087 51.8252 264.454 56.1778 260.974C56.3796 260.812 56.6908 260.826 56.8729 261.005C57.0554 261.184 57.0393 261.46 56.8378 261.621C55.5814 262.626 53.6231 263 51.4051 263Z" fill="#2A2B2E"/>
<path fill-rule="evenodd" clip-rule="evenodd" d="M44.4898 257C44.3563 257 44.2227 256.956 44.1261 256.869C43.9449 256.706 43.9609 256.456 44.1617 256.309L47.1823 254.102C47.3834 253.955 47.6932 253.969 47.8737 254.131C48.0553 254.293 48.0389 254.544 47.8385 254.691L44.8179 256.898C44.7242 256.966 44.6067 257 44.4898 257Z" fill="#2A2B2E"/>
<path fill-rule="evenodd" clip-rule="evenodd" d="M10.9679 174.645C10.9679 174.645 9.13721 208.206 8.17901 219.792C7.22113 231.377 10.4196 250 10.4196 250L19.5394 249.515C19.5394 249.515 20.1643 226.871 20.8419 220.583C20.8419 220.583 24.6942 212.059 25.8356 204.457C26.9776 196.854 30.867 184.845 30.867 184.845C30.867 184.845 34.0251 244.782 34.3298 249.491C34.3298 249.491 41.4809 249.814 44.045 248.18C44.045 248.18 48.5882 226.325 47.9359 214.434C47.2837 202.543 47.9999 173 47.9999 173L10.9679 174.645Z" fill="#2A2B2E"/>
<path fill-rule="evenodd" clip-rule="evenodd" d="M19.6115 221H17.3885C17.1738 221 17 220.776 17 220.5C17 220.224 17.1738 220 17.3885 220H19.6115C19.826 220 20 220.224 20 220.5C20 220.776 19.826 221 19.6115 221Z" fill="white"/>
<path fill-rule="evenodd" clip-rule="evenodd" d="M38.5347 237C38.5311 237 38.5279 237 38.5247 237C38.2296 236.995 37.9944 236.78 38.0001 236.52C38.1113 231.17 44.7287 221.628 45.0103 221.224C45.1653 221.003 45.4946 220.934 45.7455 221.07C45.9971 221.207 46.0752 221.498 45.9208 221.719C45.8531 221.816 39.1748 231.444 39.0689 236.537C39.0636 236.794 38.8251 237 38.5347 237Z" fill="white"/>
<path fill-rule="evenodd" clip-rule="evenodd" d="M51.2125 122.322C51.6465 121.817 55.3054 125.713 62.3246 118.333C69.344 110.953 68.4956 95.1417 68.4956 95.1417C68.4956 95.1417 66.8989 88.3678 67.3114 84.934C67.7242 81.5002 67.8258 81 67.8258 81C67.8258 81 69.1867 81.218 69.4982 82.7575C69.8097 84.2975 69.8652 87.7037 69.8652 87.7037C69.8652 87.7037 72.6309 86.9216 73.8238 89.8385C75.1959 93.1934 72.3757 95.6209 72.3757 95.6209C72.3757 95.6209 86.0422 134.504 51 138L51.2125 122.322Z" fill="white"/>
<path fill-rule="evenodd" clip-rule="evenodd" d="M52.1698 123.383L51.9719 137.962C61.0728 136.946 67.5792 133.381 71.3155 127.36C78.9366 115.078 72.526 96.4693 72.4605 96.2828C72.3923 96.089 72.4492 95.8726 72.6038 95.7402C72.7069 95.6506 75.1395 93.4949 73.9213 90.5223C72.9007 88.0331 70.6223 88.6439 70.5256 88.6712C70.382 88.7112 70.2277 88.6823 70.1082 88.5908C69.989 88.4997 69.9176 88.3574 69.915 88.2053C69.9147 88.1715 69.8566 84.8265 69.5567 83.3494C69.4227 82.6881 69.0474 82.3389 68.7379 82.1589C68.6637 82.6861 68.5332 83.6753 68.315 85.4865C67.9169 88.7944 69.4764 95.4549 69.4921 95.5218C69.4992 95.551 69.5031 95.5805 69.5047 95.6103C69.5403 96.2648 70.2856 111.728 63.1825 119.179C57.3734 125.271 53.6233 123.911 52.2119 123.398C52.1981 123.393 52.1843 123.389 52.1698 123.383ZM51.4821 139C51.3619 139 51.2453 138.954 51.1559 138.87C51.055 138.775 50.9982 138.641 51.0001 138.501L51.2131 122.818C51.2148 122.701 51.2575 122.589 51.333 122.501C51.6383 122.147 52.0734 122.305 52.5349 122.472C53.9048 122.969 57.1141 124.133 62.4912 118.493C69.1261 111.533 68.5847 96.6202 68.5442 95.7067C68.3922 95.0549 66.9522 88.7394 67.3584 85.3665C67.7694 81.9507 67.8758 81.4127 67.8803 81.3914C67.9326 81.135 68.1733 80.9661 68.4266 81.0058C68.496 81.0166 70.1252 81.2976 70.5009 83.1501C70.7438 84.3458 70.8347 86.5669 70.8653 87.6164C72.0755 87.5062 73.9027 87.9275 74.8105 90.143C76.0496 93.1647 74.1678 95.5198 73.4685 96.2539C74.277 98.7546 79.4575 116.073 72.132 127.883C68.156 134.293 61.2241 138.032 51.529 138.998C51.5136 138.999 51.4979 139 51.4821 139Z" fill="#2A2B2E"/>
<path fill-rule="evenodd" clip-rule="evenodd" d="M1 136.325C1 136.325 4.05778 116.512 14.8606 111.638C25.6638 106.763 40.279 107.441 44.3091 109.875C48.3392 112.309 58 120.526 58 120.526L49.5614 136.325C49.5614 136.325 51.6829 171.344 50.0057 180.589C50.0057 180.589 39.6796 181.798 35.2996 180.067C30.92 178.335 16.5193 175.909 9.6356 179.084L10.8867 134.748L1 136.325Z" fill="#AA4465"/>
<path fill-rule="evenodd" clip-rule="evenodd" d="M18.4849 177.559C25.0539 177.559 32.1392 178.997 34.9812 180.12C38.7469 181.608 47.242 180.841 49.0969 180.65C50.6324 171.05 48.6057 137.204 48.5846 136.858C48.5794 136.768 48.5989 136.678 48.6417 136.598L56.8975 121.147C55.2332 119.742 47.1199 112.942 43.5649 110.795C39.8034 108.524 25.3091 107.733 14.5539 112.585C5.21139 116.799 1.73725 132.771 1.08593 136.239L10.3018 134.768C10.4447 134.746 10.5911 134.788 10.6996 134.884C10.8083 134.98 10.8694 135.12 10.8652 135.265L9.63492 178.848C12.0632 177.916 15.2101 177.559 18.4849 177.559ZM42.2347 182C39.4651 182 36.5277 181.782 34.624 181.029C30.1096 179.245 15.8725 177.019 9.33004 180.036C9.17743 180.106 8.99853 180.093 8.85827 179.999C8.71768 179.906 8.63521 179.747 8.64008 179.578L9.87453 135.826L0.563515 137.312C0.409289 137.335 0.25344 137.285 0.143371 137.175C0.0329783 137.065 -0.0179974 136.908 0.00570465 136.754C0.132332 135.934 3.23113 116.621 14.1545 111.693C24.8627 106.863 39.6826 107.31 44.0672 109.957C48.0868 112.385 57.4319 120.319 57.828 120.655C58.0031 120.805 58.0508 121.056 57.942 121.259L49.5654 136.938C49.7297 139.687 51.6275 172.186 49.9944 181.184C49.956 181.396 49.7843 181.558 49.5716 181.583C49.3274 181.611 45.9303 182 42.2347 182Z" fill="#2A2B2E"/>
<path fill-rule="evenodd" clip-rule="evenodd" d="M17.4983 170C17.2608 170 17.0503 169.839 17.0077 169.612C16.9598 169.356 17.1411 169.112 17.4121 169.066C34.1105 166.285 38.9911 155.402 39.0387 155.293C39.1422 155.053 39.4332 154.937 39.6883 155.034C39.9434 155.132 40.0669 155.406 39.9634 155.646C39.9142 155.76 34.8536 167.116 17.5861 169.993C17.5565 169.997 17.5272 170 17.4983 170Z" fill="#2A2B2E"/>
<path fill-rule="evenodd" clip-rule="evenodd" d="M48.5604 151H28L34.4399 127H55L48.5604 151Z" fill="#2A2B2E"/>
<path fill-rule="evenodd" clip-rule="evenodd" d="M2.12544 136.713L12.9341 132C12.9341 132 11.4118 149.865 33.2807 141.615C33.2807 141.615 32.4742 139.32 32.5883 136.638C32.702 133.956 34.347 136.551 34.5771 138.73C34.8072 140.91 39.9415 140.025 43.027 139.166C46.1121 138.307 50.1623 138.87 43.027 142.709C35.8913 146.548 34.3282 144.836 34.3282 144.836C34.3282 144.836 25.2156 157.274 13.8784 154.632C-0.0668249 151.382 2.12544 136.713 2.12544 136.713Z" fill="white"/>
<path fill-rule="evenodd" clip-rule="evenodd" d="M2.06584 136.531C1.97282 137.428 1.75676 140.522 2.73908 143.85C4.27854 149.065 7.89217 152.369 13.4803 153.673C24.3628 156.211 33.3324 144.176 33.4221 144.054C33.5095 143.935 33.6477 143.86 33.7978 143.853C33.9479 143.843 34.094 143.904 34.1936 144.014C34.1979 144.014 35.7967 145.278 42.2881 141.783C46.0491 139.757 46.0079 139.007 46.0069 139C45.8549 138.771 44.4302 138.631 42.6628 139.123C41.1929 139.532 36.2503 140.772 34.3605 139.523C33.905 139.222 33.6355 138.789 33.5811 138.271C33.4626 137.15 32.9662 136.049 32.6337 135.624C32.6106 135.739 32.5882 135.906 32.578 136.147C32.4688 138.711 33.2367 140.932 33.2446 140.953C33.3304 141.199 33.2027 141.467 32.955 141.561C25.4048 144.411 19.7315 144.509 16.0932 141.851C12.2895 139.073 11.8983 134.163 11.9 132.239L2.06584 136.531ZM16.6081 155C15.5169 155 14.3964 154.88 13.2501 154.612C-0.976797 151.294 1.09506 136.284 1.11749 136.132C1.1419 135.969 1.25042 135.828 1.40513 135.761L12.2186 131.042C12.3786 130.972 12.564 130.99 12.7068 131.089C12.8493 131.188 12.9282 131.352 12.914 131.523C12.9084 131.587 12.4271 137.971 16.6909 141.081C19.972 143.474 25.1782 143.385 32.1693 140.819C31.9357 140.004 31.501 138.176 31.5894 136.107C31.6059 135.715 31.6563 134.525 32.5064 134.5C32.514 134.5 32.5212 134.5 32.5288 134.5C33.6117 134.5 34.4291 136.882 34.5654 138.172C34.5901 138.407 34.7016 138.581 34.9154 138.723C36.0587 139.478 39.4938 139.001 42.3913 138.194C43.7358 137.82 46.4136 137.43 46.9239 138.638C47.3405 139.625 46.0584 140.856 42.766 142.629C37.2897 145.577 34.8883 145.352 33.9551 144.972C32.4978 146.832 25.5843 155 16.6081 155Z" fill="#2A2B2E"/>
<path fill-rule="evenodd" clip-rule="evenodd" d="M31.5969 102.603C30.6478 103.444 28.7928 104.471 27.3406 103.763C26.2594 103.236 25.6555 101.871 25.693 100.307C25.1927 100.347 24.5361 100.313 24.0679 99.9123C23.3471 99.2957 23.4818 98.1608 23.5099 97.415C23.6403 93.9732 21.5742 93.4452 22.0799 91.1091C22.477 89.2732 23.9667 88.1798 24.2452 87.9751C25.6522 86.9426 26.6046 87.2758 28.9694 86.6763C32.9489 85.6676 33.0755 84.0075 35.6974 84C35.8492 83.9994 39.4168 84.0376 40.6276 86.423C41.6129 88.3637 40.4624 90.7218 39.273 91.9605C37.733 93.5652 36.627 92.7724 35.081 94.1179C32.3681 96.4802 34.4168 100.105 31.5969 102.603Z" fill="#2A2B2E"/>
<path fill-rule="evenodd" clip-rule="evenodd" d="M37.8039 97.6463L37.6552 97.5146C36.9086 96.8544 36.1309 96.0879 35.9326 95.0973C35.09 90.8859 31.3294 89.3571 31.1559 93.2242C31.1121 94.2001 27.6385 94.1492 28.0507 95.174C29.1253 97.8442 29.1491 97.1257 27.6321 98.1096C27.4602 98.1171 27.2898 98.1556 27.1287 98.2326C26.351 98.6046 26.0757 99.6877 26.514 100.652C26.7797 101.238 27.2482 101.64 27.7485 101.787V106.006C27.7485 107.588 26.8163 109.012 25.3889 109.61L24 110.193C24 110.193 30.4761 114.529 37.0488 109.768L36.1713 109.365C34.6266 108.654 33.6124 107.101 33.5593 105.365L33.552 104.54C33.9941 104.581 34.4219 104.55 34.8176 104.432C36.6559 103.883 37.2665 101.71 36.9537 99.0089L37.7022 98.5964C38.0515 98.4037 38.104 97.9117 37.8039 97.6463Z" fill="white"/>
<path fill-rule="evenodd" clip-rule="evenodd" d="M25.5854 109.781C27.4036 110.688 31.8756 112.309 36.5762 109.372L36.4918 109.333C34.7871 108.55 33.6479 106.808 33.5889 104.895L33.5816 104.058C33.5803 103.919 33.6364 103.787 33.7353 103.693C33.8348 103.6 33.9677 103.553 34.1022 103.565C34.503 103.602 34.8706 103.571 35.1958 103.474C37.2633 102.858 37.1444 99.8393 36.9971 98.5698C36.9741 98.3699 37.0726 98.1759 37.2458 98.0805L37.9966 97.6674C38.0307 97.6488 38.0406 97.6187 38.0428 97.5972C38.0453 97.5753 38.0418 97.5443 38.0125 97.5184C38.0125 97.5181 38.0125 97.5181 38.0125 97.5181L37.8633 97.3862C37.0733 96.6885 36.2109 95.8475 35.9797 94.6923C35.4789 92.1941 33.9537 90.9079 33.0929 90.982C32.2958 91.046 32.1568 92.2326 32.1342 92.7398C32.0975 93.5612 31.1137 93.8438 30.162 94.1171C29.7922 94.2233 29.1941 94.3951 29.0066 94.5417C29.1523 94.901 29.277 95.1956 29.3809 95.4402C29.898 96.6608 30.0724 97.072 29.0152 97.6507C28.845 97.7438 28.6333 97.8598 28.3773 98.0253C28.3065 98.0714 28.2255 98.0972 28.142 98.1008C28.0247 98.106 27.9163 98.1321 27.8187 98.1785C27.279 98.4366 27.1062 99.2318 27.4333 99.9514C27.6303 100.384 27.9803 100.71 28.3696 100.824C28.5749 100.884 28.7165 101.076 28.7165 101.295V105.522C28.7165 107.312 27.6708 108.908 26.0525 109.586L25.5854 109.781ZM30.9055 112C27.0873 112 24.2607 110.155 24.217 110.126C24.0682 110.026 23.9853 109.85 24.0022 109.669C24.0191 109.488 24.1329 109.331 24.2974 109.262L25.6906 108.679C26.9477 108.152 27.76 106.913 27.76 105.522V101.631C27.2509 101.383 26.8266 100.937 26.5664 100.366C26.0164 99.1561 26.3968 97.7768 27.4144 97.2905C27.5872 97.2078 27.7728 97.1549 27.9676 97.1324C28.2067 96.9825 28.4028 96.8747 28.5644 96.7865C28.6569 96.7359 28.7583 96.6804 28.8214 96.6399C28.7809 96.4854 28.6457 96.166 28.5035 95.8305C28.3923 95.5676 28.2568 95.2485 28.0993 94.8572C28.0007 94.6136 28.0052 94.3663 28.1117 94.1426C28.3616 93.6164 29.0764 93.411 29.9041 93.1736C30.3058 93.0583 31.0458 92.8456 31.18 92.6696C31.2941 90.3259 32.615 90.0375 33.0179 90.0051C34.4389 89.8947 36.3314 91.5755 36.9164 94.4954C37.0873 95.3488 37.8171 96.052 38.4882 96.6441L38.6371 96.7761C38.8979 97.0063 39.0311 97.3532 38.9938 97.704C38.9559 98.0547 38.7525 98.3637 38.4493 98.5306L37.9816 98.788C38.2539 101.812 37.3449 103.854 35.4626 104.415C35.1747 104.501 34.8668 104.549 34.5425 104.558L34.5454 104.875C34.5923 106.405 35.5101 107.808 36.8833 108.439L37.7629 108.843C37.9197 108.915 38.0265 109.068 38.0434 109.243C38.06 109.418 37.9835 109.589 37.8432 109.691C35.4298 111.436 33.0164 112 30.9055 112Z" fill="#2A2B2E"/>
<path fill-rule="evenodd" clip-rule="evenodd" d="M34.5904 104C34.5699 104 34.5488 103.999 34.5278 103.995C32.1649 103.616 31.099 101.723 31.0547 101.642C30.9418 101.437 31.0093 101.175 31.2059 101.057C31.4019 100.939 31.6518 101.01 31.7649 101.214C31.8018 101.28 32.6903 102.833 34.6521 103.147C34.876 103.183 35.0294 103.402 34.9952 103.636C34.9641 103.848 34.7897 104 34.5904 104Z" fill="#2A2B2E"/>
<path fill-rule="evenodd" clip-rule="evenodd" d="M254 245L255.359 255.985L258.836 256L259 245.196L254 245Z" fill="white"/>
<path fill-rule="evenodd" clip-rule="evenodd" d="M255.558 256.034L258.822 256.046L259.002 246.133L254.068 245.971L255.558 256.034ZM259.308 257H259.306L255.126 256.985C254.881 256.984 254.673 256.81 254.638 256.576L253.005 245.543C252.984 245.404 253.029 245.263 253.127 245.158C253.224 245.053 253.369 244.996 253.512 245L259.522 245.197C259.792 245.206 260.005 245.421 260 245.681L259.803 256.532C259.798 256.792 259.578 257 259.308 257Z" fill="#2A2B2E"/>
<path fill-rule="evenodd" clip-rule="evenodd" d="M255.986 267.846C257.597 268.023 259.996 268.093 263.203 267.804C264.35 267.7 265.158 266.61 264.974 265.443C264.475 262.304 263.086 256.766 260.896 254.225L259.814 255.808L259.172 254.173C259.069 253.996 256.347 253.879 256.29 254.211L256.125 255.808L254.58 254.031L254.665 259.867C254.674 260.511 254.615 261.155 254.488 261.786L254.082 263.804C253.838 265.018 254.14 266.304 254.967 267.209C255.29 267.562 255.648 267.809 255.986 267.846Z" fill="white"/>
<path fill-rule="evenodd" clip-rule="evenodd" d="M255.531 266.927C256.9 267.067 259.25 267.173 262.67 266.887C263.083 266.852 263.452 266.659 263.707 266.345C263.965 266.028 264.073 265.619 264.006 265.221C263.574 262.682 262.355 257.946 260.427 255.446L259.714 256.417C259.612 256.557 259.438 256.631 259.26 256.612C259.082 256.593 258.93 256.482 258.863 256.323L258.304 254.995C257.841 254.921 256.713 254.898 256.239 254.966L256.102 256.198C256.082 256.382 255.951 256.536 255.767 256.593C255.583 256.65 255.382 256.597 255.254 256.459L254.576 255.733L254.642 259.932C254.651 260.568 254.589 261.205 254.454 261.826L254.048 263.709C253.827 264.729 254.113 265.764 254.812 266.476C255.073 266.742 255.335 266.906 255.531 266.927ZM258.605 268C257.244 268 256.189 267.932 255.427 267.854V267.853C254.99 267.809 254.532 267.553 254.101 267.114C253.185 266.181 252.809 264.837 253.093 263.521L253.5 261.637C253.619 261.083 253.676 260.514 253.667 259.946L253.582 254.496C253.579 254.302 253.703 254.126 253.892 254.055C254.081 253.985 254.297 254.034 254.433 254.179L255.249 255.054L255.299 254.609C255.3 254.598 255.301 254.587 255.303 254.577C255.378 254.172 255.844 254.09 255.997 254.063C256.023 254.058 258.722 253.795 259.09 254.382C259.103 254.403 259.114 254.425 259.124 254.448L259.432 255.179L260.001 254.403C260.087 254.287 260.224 254.214 260.373 254.206C260.521 254.199 260.667 254.255 260.765 254.362C263.6 257.427 264.836 264.298 264.968 265.071C265.079 265.724 264.9 266.397 264.477 266.917C264.053 267.438 263.442 267.757 262.755 267.815C261.145 267.95 259.764 268 258.605 268Z" fill="#2A2B2E"/>
<path fill-rule="evenodd" clip-rule="evenodd" d="M258.417 266C256.595 266 255.468 265.835 255.393 265.824C255.127 265.783 254.956 265.591 255.01 265.394C255.064 265.196 255.321 265.068 255.588 265.108C255.617 265.112 258.455 265.524 262.423 265.005C262.692 264.971 262.945 265.103 262.993 265.302C263.039 265.5 262.861 265.69 262.594 265.725C260.986 265.935 259.564 266 258.417 266Z" fill="#2A2B2E"/>
<path fill-rule="evenodd" clip-rule="evenodd" d="M260.586 261H257.414C257.185 261 257 260.776 257 260.5C257 260.224 257.185 260 257.414 260H260.586C260.815 260 261 260.224 261 260.5C261 260.776 260.815 261 260.586 261Z" fill="#2A2B2E"/>
<path fill-rule="evenodd" clip-rule="evenodd" d="M224 246.081L222.548 258.873L217 260L217.338 245L224 246.081Z" fill="white"/>
<path fill-rule="evenodd" clip-rule="evenodd" d="M217.306 246.034L216.993 259.937L221.606 259L222.973 246.954L217.306 246.034ZM216.49 261C216.377 261 216.266 260.962 216.177 260.89C216.062 260.798 215.997 260.659 216 260.515L216.339 245.465C216.342 245.327 216.407 245.197 216.516 245.109C216.625 245.021 216.769 244.984 216.909 245.006L223.591 246.091C223.847 246.132 224.025 246.361 223.997 246.611L222.541 259.446C222.518 259.651 222.362 259.817 222.155 259.859L216.591 260.99C216.557 260.997 216.524 261 216.49 261Z" fill="#2A2B2E"/>
<path fill-rule="evenodd" clip-rule="evenodd" d="M224.95 266.019C225.074 263.626 225.077 259.219 223.645 257.095L219.129 258.731V257.749C219.129 257.433 218.907 257.172 218.624 257.156L216.106 257.009C215.166 256.954 214.229 257.152 213.371 257.581C210.838 258.849 203.135 262.097 202.068 265.75C201.753 266.828 202.58 267.906 203.685 267.938C206.22 268.012 212.315 268.093 223.254 267.712C224.165 267.681 224.901 266.946 224.95 266.019Z" fill="white"/>
<path fill-rule="evenodd" clip-rule="evenodd" d="M216.303 257.01C215.546 257.01 214.787 257.191 214.09 257.539C213.784 257.692 213.404 257.873 212.969 258.08C210.031 259.481 203.917 262.396 203.041 265.391C202.941 265.733 203.005 266.102 203.218 266.4C203.445 266.719 203.811 266.916 204.196 266.927C206.85 267.005 212.917 267.078 223.74 266.702C224.399 266.679 224.922 266.158 224.957 265.489V265.489C225.151 261.756 224.78 258.781 223.935 257.213L219.797 258.71C219.646 258.765 219.476 258.742 219.344 258.647C219.212 258.553 219.133 258.399 219.133 258.234V257.254C219.133 257.196 219.104 257.168 219.096 257.165L216.578 257.018C216.486 257.013 216.395 257.01 216.303 257.01ZM209.237 268C206.915 268 205.256 267.969 204.168 267.937C203.476 267.917 202.82 267.564 202.413 266.993C202.017 266.437 201.899 265.749 202.088 265.103C203.092 261.673 209.243 258.741 212.547 257.166C212.976 256.962 213.351 256.783 213.651 256.633C214.585 256.166 215.618 255.95 216.635 256.01L219.154 256.156C219.7 256.188 220.127 256.67 220.127 257.254V257.518L223.981 256.124C224.193 256.047 224.43 256.124 224.557 256.314C226.07 258.553 226.079 263.057 225.949 265.542C225.888 266.738 224.953 267.671 223.774 267.712C217.355 267.935 212.6 268 209.237 268Z" fill="#2A2B2E"/>
<path fill-rule="evenodd" clip-rule="evenodd" d="M210.084 266C206.665 266 204.508 265.815 204.467 265.811C204.189 265.786 203.98 265.502 204.001 265.177C204.023 264.851 204.267 264.608 204.543 264.632C204.623 264.639 212.685 265.329 222.437 264.004C222.715 263.968 222.964 264.198 222.997 264.523C223.029 264.847 222.83 265.141 222.553 265.178C217.746 265.832 213.342 266 210.084 266Z" fill="#2A2B2E"/>
<path fill-rule="evenodd" clip-rule="evenodd" d="M212.466 262C212.321 262 212.178 261.93 212.087 261.799C211.938 261.583 211.985 261.282 212.194 261.126L216.263 258.091C216.472 257.936 216.762 257.984 216.913 258.2C217.062 258.417 217.015 258.718 216.806 258.874L212.737 261.909C212.654 261.97 212.56 262 212.466 262Z" fill="#2A2B2E"/>
<path fill-rule="evenodd" clip-rule="evenodd" d="M222.448 160.236C222.448 160.236 214.553 214.442 216.235 250.621L218.698 250.868C220.023 251 221.355 251.033 222.684 250.966L225.02 250.849C225.02 250.849 234.436 195.89 239.136 186.763C239.136 186.763 251.921 235.638 252.414 248.878C252.414 248.878 258.097 249.45 260.362 248.634C261.578 235.856 261.929 222.629 261.991 214.325C262.165 190.56 259.895 179.765 258.652 174.643C257.509 169.941 256.283 166.119 255.388 163.535L252.399 155L222.448 160.236Z" fill="#AA4465"/>
<path fill-rule="evenodd" clip-rule="evenodd" d="M216.183 250.695L218.231 250.899C219.527 251.029 220.845 251.062 222.147 250.997L224.097 250.898C225.01 245.6 233.674 195.828 238.204 187.036C238.296 186.857 238.491 186.753 238.688 186.776C238.888 186.798 239.054 186.941 239.104 187.135C239.231 187.62 251.651 235.207 252.387 248.946C253.656 249.051 257.503 249.309 259.422 248.782C260.694 235.263 260.97 221.724 261.02 214.825C261.185 192.305 259.2 181.453 257.692 175.25C256.786 171.518 255.692 167.795 254.44 164.181L251.585 156.034L222.365 161.14C221.699 165.835 214.668 216.474 216.183 250.695ZM220.838 252C219.934 252 219.029 251.955 218.134 251.865L215.669 251.619C215.43 251.595 215.244 251.399 215.233 251.159C213.567 215.336 221.376 161.195 221.455 160.653C221.485 160.445 221.645 160.28 221.851 160.245L251.824 155.007C252.056 154.967 252.286 155.1 252.365 155.325L255.356 163.862C256.619 167.506 257.722 171.259 258.635 175.02C260.155 181.274 262.156 192.205 261.99 214.832C261.939 221.801 261.659 235.532 260.358 249.194C260.34 249.381 260.216 249.541 260.039 249.605C257.697 250.448 252.11 249.899 251.873 249.875C251.632 249.851 251.446 249.653 251.437 249.41C250.997 237.592 240.56 196.651 238.511 188.715C233.741 200.561 225.078 250.918 224.988 251.445C224.949 251.67 224.76 251.837 224.533 251.848L222.196 251.966C221.744 251.989 221.291 252 220.838 252Z" fill="#2A2B2E"/>
<path fill-rule="evenodd" clip-rule="evenodd" d="M240.454 189C240.214 189 239.994 188.851 239.928 188.624L238.449 183.586C238.104 182.41 237.096 181.526 235.82 181.279L234.435 181.011C234.14 180.954 233.95 180.684 234.011 180.408C234.073 180.131 234.362 179.953 234.656 180.011L236.041 180.278C237.721 180.603 239.047 181.767 239.501 183.316L240.98 188.353C241.06 188.626 240.889 188.907 240.598 188.982C240.55 188.994 240.502 189 240.454 189Z" fill="#2A2B2E"/>
<path fill-rule="evenodd" clip-rule="evenodd" d="M257.49 181C257.462 181 257.433 180.998 257.405 180.993C249.621 179.728 248.03 173.677 248.015 173.616C247.948 173.348 248.116 173.079 248.391 173.014C248.664 172.95 248.94 173.113 249.007 173.38C249.065 173.606 250.477 178.857 257.573 180.011C257.851 180.056 258.039 180.313 257.993 180.584C257.951 180.827 257.735 181 257.49 181Z" fill="#2A2B2E"/>
<path fill-rule="evenodd" clip-rule="evenodd" d="M222.492 177C222.302 177 222.121 176.884 222.041 176.69C221.933 176.429 222.047 176.126 222.296 176.013C226.108 174.279 226.018 170.571 226.017 170.534C226.007 170.25 226.218 170.011 226.49 170C226.769 169.994 226.989 170.211 227 170.495C227.001 170.539 227.109 174.946 222.688 176.957C222.624 176.986 222.557 177 222.492 177Z" fill="#2A2B2E"/>
<path fill-rule="evenodd" clip-rule="evenodd" d="M222.656 115.181C227.906 114.589 239.114 113.529 246.822 114.233C249.149 114.446 252.508 115.866 254.278 117.391C259.491 121.886 269.325 131.785 270.968 143.663C271.208 145.397 270.07 147.023 268.36 147.402L259.274 149.414C259.274 149.414 262.897 163.678 262.605 166.142C262.313 168.605 254.807 172.797 245.42 169.358C238.099 166.677 227.739 164.545 221.161 166.858C221.098 166.88 220.469 171.93 220.404 171.94C218.292 172.247 216.164 171.425 216.214 168.459L217.215 153.056L205.174 151.467L204.098 151.109C200.843 150.026 199.162 146.439 200.416 143.249C203.245 136.054 207.513 124.407 215.419 117.974C217.11 116.598 220.489 115.425 222.656 115.181Z" fill="#2A2B2E"/>
<path fill-rule="evenodd" clip-rule="evenodd" d="M229.275 163H211.035C210.243 163 209.553 162.439 209.362 161.641L203.052 135.221C202.782 134.092 203.604 133 204.725 133H222.965C223.756 133 224.447 133.561 224.637 134.359L230.948 160.779C231.218 161.908 230.395 163 229.275 163Z" fill="white"/>
<path fill-rule="evenodd" clip-rule="evenodd" d="M203.277 132.982C202.876 132.982 202.503 133.164 202.256 133.48C202.008 133.798 201.922 134.204 202.019 134.595L208.56 161.031C208.703 161.612 209.221 162.018 209.818 162.018H228.723C229.125 162.018 229.496 161.836 229.744 161.519C229.992 161.202 230.078 160.796 229.982 160.405L223.441 133.969C223.297 133.388 222.779 132.982 222.182 132.982H203.277ZM228.723 163H209.818C208.769 163 207.861 162.287 207.609 161.267L201.068 134.831C200.898 134.145 201.05 133.432 201.485 132.876C201.919 132.319 202.572 132 203.277 132H222.182C223.23 132 224.139 132.712 224.392 133.732L230.932 160.169C231.102 160.855 230.95 161.568 230.516 162.124C230.081 162.681 229.428 163 228.723 163Z" fill="#2A2B2E"/>
<path fill-rule="evenodd" clip-rule="evenodd" d="M204.452 145.826L205.073 148.498L207.309 147.734C208.541 147.313 209.723 146.751 210.833 146.06L212.116 145.262C213.074 144.666 214.317 145.131 214.689 146.216C215.48 148.52 215.324 152.38 207.272 154.804C202.827 156.142 201.554 150.298 202.13 147.051C202.277 146.221 202.674 145.691 203.081 145.355C203.569 144.954 204.297 145.204 204.452 145.826Z" fill="white"/>
<path fill-rule="evenodd" clip-rule="evenodd" d="M203.104 146.146C203.035 146.146 202.951 146.165 202.869 146.233C202.455 146.573 202.192 147.045 202.087 147.635C201.699 149.823 202.192 152.912 203.69 154.293C204.467 155.01 205.458 155.195 206.635 154.841C210.326 153.731 212.668 152.225 213.597 150.365C214.132 149.295 214.185 148.121 213.757 146.874C213.626 146.494 213.339 146.198 212.971 146.062C212.607 145.929 212.209 145.97 211.878 146.176L210.592 146.976C209.449 147.686 208.227 148.266 206.96 148.698L204.718 149.464C204.59 149.507 204.45 149.494 204.333 149.427C204.215 149.36 204.13 149.245 204.099 149.111L203.477 146.439C203.43 146.254 203.287 146.187 203.229 146.167C203.203 146.158 203.158 146.146 203.104 146.146ZM205.533 156C204.592 156 203.748 155.672 203.047 155.026C201.234 153.353 200.712 149.879 201.142 147.459C201.289 146.628 201.668 145.957 202.268 145.464C202.626 145.171 203.099 145.084 203.533 145.233C203.968 145.382 204.295 145.743 204.408 146.198L204.41 146.206L204.912 148.359L206.657 147.763C207.856 147.354 209.012 146.805 210.094 146.133L211.38 145.333C211.959 144.974 212.657 144.901 213.295 145.135C213.937 145.371 214.435 145.885 214.663 146.547C215.175 148.037 215.102 149.513 214.452 150.814C213.398 152.924 210.859 154.597 206.906 155.786C206.43 155.929 205.971 156 205.533 156Z" fill="#2A2B2E"/>
<path fill-rule="evenodd" clip-rule="evenodd" d="M247.566 130.788C248.52 131.732 249.604 132.542 250.79 133.195C254.791 135.398 264.35 140.732 266.728 142.697C269.758 145.2 271.207 146.134 268.772 152.573C264.804 163.069 246.298 136.124 246.298 136.124C246.298 136.124 240.862 137.075 239.641 132.469C239.641 132.469 236.809 132.983 235.628 132.488C234.723 132.109 234.762 130.623 235.97 130.459L243.788 129.05C244.865 128.864 245.968 129.205 246.732 129.962L247.566 130.788Z" fill="white"/>
<path fill-rule="evenodd" clip-rule="evenodd" d="M246.792 136.136C246.956 136.136 247.111 136.215 247.204 136.35C250.9 141.74 261.592 155.598 266.617 155.028C267.599 154.915 268.315 154.228 268.806 152.927C271.05 146.983 269.994 146.112 267.173 143.784L266.904 143.563C264.559 141.622 255.029 136.296 251.041 134.096C249.815 133.42 248.693 132.581 247.708 131.603L246.874 130.776C246.223 130.131 245.287 129.84 244.37 129.999L236.555 131.41C236.116 131.47 236.016 131.746 235.994 131.905C235.962 132.129 236.05 132.421 236.318 132.533C237.172 132.892 239.297 132.619 240.045 132.483C240.299 132.437 240.549 132.59 240.614 132.834C241.708 136.97 246.501 136.18 246.705 136.144C246.734 136.139 246.763 136.136 246.792 136.136ZM266.334 156C259.91 156 248.178 139.464 246.552 137.126C245.335 137.244 241.097 137.362 239.785 133.495C238.892 133.626 236.951 133.842 235.925 133.411C235.292 133.145 234.918 132.473 235.015 131.777C235.113 131.081 235.655 130.567 236.396 130.466L244.193 129.058C245.436 128.843 246.701 129.235 247.58 130.107L248.415 130.935C249.336 131.849 250.384 132.632 251.53 133.264C255.543 135.478 265.136 140.841 267.546 142.835L267.813 143.056C270.943 145.638 272.118 146.938 269.733 153.256C269.111 154.905 268.101 155.821 266.733 155.978C266.603 155.993 266.469 156 266.334 156Z" fill="#2A2B2E"/>
<path fill-rule="evenodd" clip-rule="evenodd" d="M230.449 105.133L229.856 112.734C229.725 113.723 228.95 114.537 227.903 114.788L225 115.484L226.883 116.803C231.058 119.728 236.84 119.733 241.021 116.815L244 114.736L240.395 113.995C239.359 113.782 238.563 113.018 238.374 112.057L236.782 102L230.449 105.133Z" fill="white"/>
<path fill-rule="evenodd" clip-rule="evenodd" d="M225.624 116.011L226.688 116.801C230.669 119.759 236.232 119.764 240.217 116.813L242.336 115.244L239.785 114.688C238.549 114.419 237.605 113.459 237.381 112.243L235.889 102.25L230.43 105.115L229.856 112.909C229.696 114.189 228.785 115.207 227.53 115.526L225.624 116.011ZM233.461 120C230.856 120 228.252 119.193 226.08 117.579L224.198 116.18C224.045 116.067 223.972 115.878 224.01 115.695C224.048 115.511 224.189 115.365 224.375 115.318L227.277 114.58C228.131 114.363 228.752 113.67 228.859 112.815L229.45 104.777C229.462 104.61 229.561 104.461 229.712 104.382L236.044 101.058C236.188 100.983 236.361 100.981 236.507 101.052C236.653 101.124 236.754 101.261 236.777 101.418L238.37 112.086C238.52 112.897 239.162 113.551 240.003 113.734L243.608 114.52C243.798 114.562 243.947 114.707 243.989 114.893C244.03 115.079 243.957 115.271 243.802 115.387L240.822 117.592C238.654 119.197 236.057 120 233.461 120Z" fill="#2A2B2E"/>
<path fill-rule="evenodd" clip-rule="evenodd" d="M221.948 94.2418C223.872 93.2358 222.323 96.3689 228.652 90.9568C231.172 88.8016 231.262 92.8249 231.918 92.2676C234.338 90.2092 234.253 90.2767 235.78 90.0148C236.791 89.8415 238.144 91.2194 238.545 92.524C239.076 94.2459 237.918 95.2762 238.313 99.2426C238.591 102.028 239.478 103.396 238.665 104.187C237.844 104.988 236.507 104.009 235.543 104.816C234.296 105.861 235.72 108.184 234.798 109.83C234.218 110.868 232.31 112.09 228.298 111.995C227.648 111.979 227.097 111.507 226.991 110.87C226.855 110.055 226.689 109.024 226.614 108.026C226.255 103.271 227.291 101.691 226.27 100.878C224.707 99.633 222.051 101.953 220.923 100.859C219.752 99.7232 219.314 95.6193 221.948 94.2418Z" fill="#2A2B2E"/>
<path fill-rule="evenodd" clip-rule="evenodd" d="M230.843 96.5095L230.764 97.8324C230.726 98.4558 230.731 99.0801 230.779 99.7035C230.868 100.872 231.007 102.882 231 104.013C230.99 105.676 225.921 106 225.921 106L225.278 105.275L224.682 105.3C224.567 105.305 224.45 105.286 224.348 105.231C224.092 105.096 223.965 104.818 224.008 104.55C224.248 103.082 224.668 99.8406 224.204 97.3211C224.204 97.3211 227.022 95.0016 230.843 96.5095Z" fill="white"/>
<path fill-rule="evenodd" clip-rule="evenodd" d="M224.768 104.295C224.905 104.295 225.036 104.353 225.128 104.457L225.615 105.005C227.747 104.835 230.027 104.204 230.031 103.517C230.038 102.389 229.896 100.354 229.811 99.2414C229.761 98.5971 229.756 97.944 229.795 97.3001L229.852 96.3397C227.067 95.3966 224.898 96.5869 224.218 97.0374C224.604 99.5278 224.235 102.531 223.97 104.138C223.962 104.19 223.98 104.266 224.058 104.307C224.065 104.31 224.094 104.322 224.15 104.32L224.748 104.295C224.754 104.295 224.761 104.295 224.768 104.295ZM225.414 106C225.277 106 225.146 105.941 225.053 105.838L224.56 105.282L224.19 105.298C223.981 105.306 223.78 105.264 223.61 105.175C223.175 104.945 222.936 104.464 223.015 103.978C223.228 102.681 223.673 99.3954 223.213 96.9073C223.181 96.7308 223.246 96.5504 223.384 96.4375C223.509 96.3354 226.481 93.9534 230.533 95.5483C230.729 95.6256 230.854 95.822 230.841 96.034L230.761 97.3594C230.725 97.9587 230.73 98.5664 230.776 99.166C230.863 100.293 231.007 102.359 231 103.524C230.988 105.492 226.744 105.916 225.444 105.999C225.434 106 225.424 106 225.414 106Z" fill="#2A2B2E"/>
<path fill-rule="evenodd" clip-rule="evenodd" d="M232 99.7826C232 99.7826 232.154 96.6371 233.316 97.0348C234.477 97.4321 234.236 100.889 232 99.7826Z" fill="white"/>
<path fill-rule="evenodd" clip-rule="evenodd" d="M63.7703 266L79.5003 211.946L95.2297 266H99L81.7174 205.006L77.2839 205L60 266H63.7703Z" fill="white"/>
<path fill-rule="evenodd" clip-rule="evenodd" d="M169.77 266L185.5 211.945L201.23 266H205L187.717 205.006L183.284 205L166 266H169.77Z" fill="white"/>
<path fill-rule="evenodd" clip-rule="evenodd" d="M201.981 266.027H204.715L187.832 205.979L184.169 205.974L167.285 266.027H170.019L186 210.681L201.981 266.027ZM206 267H201.248L186 214.191L170.752 267H166L183.431 205L188.571 205.007L206 267Z" fill="#2A2B2E"/>
<mask id="mask0_0:4892" style="mask-type:alpha" maskUnits="userSpaceOnUse" x="0" y="0" width="272" height="269">
<path fill-rule="evenodd" clip-rule="evenodd" d="M0 269H272V0H0V269Z" fill="white"/>
</mask>
<g mask="url(#mask0_0:4892)">
<path fill-rule="evenodd" clip-rule="evenodd" d="M60 205H205V200H60V205Z" fill="white"/>
<path fill-rule="evenodd" clip-rule="evenodd" d="M60.9702 205.006H204.03V199.994H60.9702V205.006ZM60 206H205V199H60V206Z" fill="#2A2B2E"/>
<path fill-rule="evenodd" clip-rule="evenodd" d="M170.5 204C170.224 204 170 203.795 170 203.542V200.458C170 200.205 170.224 200 170.5 200C170.776 200 171 200.205 171 200.458V203.542C171 203.795 170.776 204 170.5 204Z" fill="#AA4465"/>
<path fill-rule="evenodd" clip-rule="evenodd" d="M183.004 199H135.996C134.893 199 134 198.168 134 197.142V196H185V197.142C185 198.168 184.106 199 183.004 199Z" fill="white"/>
<path fill-rule="evenodd" clip-rule="evenodd" d="M133.964 195.921V196.632C133.964 197.43 134.643 198.079 135.479 198.079H182.521C183.357 198.079 184.036 197.43 184.036 196.632V195.921H133.964ZM182.521 199H135.479C134.112 199 133 197.938 133 196.632V195H185V196.632C185 197.938 183.888 199 182.521 199Z" fill="#2A2B2E"/>
<path fill-rule="evenodd" clip-rule="evenodd" d="M184.726 196H151L161.716 164.579C162.357 163.596 163.474 163 164.675 163H193.185C194.479 163 195.311 164.251 194.889 165.354C194.722 165.793 194.54 166.227 194.393 166.673L184.726 196Z" fill="white"/>
<path fill-rule="evenodd" clip-rule="evenodd" d="M152.365 195.022H184.924L194.444 166.012C194.553 165.677 194.681 165.35 194.805 165.033L194.945 164.671C195.089 164.295 195.035 163.884 194.8 163.543C194.553 163.184 194.154 162.978 193.704 162.978H165.304C164.287 162.978 163.355 163.466 162.799 164.287L152.365 195.022ZM185.632 196H151L161.946 163.803C162.679 162.674 163.935 162 165.304 162H193.704C194.48 162 195.173 162.36 195.605 162.987C196.019 163.589 196.114 164.348 195.859 165.019C195.812 165.143 195.764 165.266 195.716 165.389C195.591 165.707 195.474 166.008 195.373 166.317L185.632 196Z" fill="#2A2B2E"/>
<path fill-rule="evenodd" clip-rule="evenodd" d="M171.138 179.612C170.687 181.481 171.378 183.394 172.682 183.885C173.986 184.375 175.41 183.257 175.861 181.388C176.314 179.519 175.623 177.606 174.318 177.115C173.014 176.625 171.591 177.743 171.138 179.612Z" fill="#C9CEBD"/>
</g>
</svg>
