<svg width="57" height="60" viewBox="0 0 57 60" fill="none" xmlns="http://www.w3.org/2000/svg">
<path fill-rule="evenodd" clip-rule="evenodd" d="M49 35C49 47.702 38.702 58 26 58C13.297 58 3 47.702 3 35C3 22.297 13.297 12 26 12C38.702 12 49 22.297 49 35Z" fill="#C9CEBC"/>
<path d="M5 11V17" stroke="#2A2B2E" stroke-width="2" stroke-linecap="round"/>
<path d="M8 14H2" stroke="#2A2B2E" stroke-width="2" stroke-linecap="round"/>
<path d="M16 1V7" stroke="#2A2B2E" stroke-width="2" stroke-linecap="round"/>
<path d="M19 4H13" stroke="#2A2B2E" stroke-width="2" stroke-linecap="round"/>
<path fill-rule="evenodd" clip-rule="evenodd" d="M44.769 34.3219L38.887 37.1119L38.565 37.2339C38.148 36.4909 37.438 35.9999 36.45 35.9999H30.45C29.075 35.9999 26.984 33.9999 25.327 33.9999H19.45C17.033 33.9999 14.873 35.9789 13.656 37.1119C11.776 38.9919 7.99902 42.7879 7.99902 42.7879L17.192 51.9899C18.694 50.4879 20.463 48.9999 21.999 48.9999H33.999C35.872 48.9999 37.736 48.4249 39.06 47.1009L49.011 37.1499L51.839 30.0789C50.116 28.3559 46.183 30.1969 44.769 34.3219Z" fill="white"/>
<path d="M26 42.0001H36.45C38.106 42.0001 39 40.6951 39 39.0381V39.0191C39 37.3621 38.106 36.0001 36.45 36.0001H30.45C29.075 36.0001 26.984 34.0001 25.327 34.0001H19.45C17.033 34.0001 14.873 35.9791 13.656 37.1121C11.776 38.9921 8 42.7881 8 42.7881L17.192 51.9901C18.694 50.4871 20.464 49.0001 22 49.0001H34C35.872 49.0001 37.736 48.4241 39.061 47.1011L49.012 37.1491L51.84 30.0791C50.116 28.3551 46.184 30.1971 44.77 34.3221L38.888 37.1121" stroke="#2A2B2E" stroke-width="2" stroke-linecap="round"/>
<path fill-rule="evenodd" clip-rule="evenodd" d="M7 40L1 46L14 59L19.999 53L7 40Z" fill="#AA4465"/>
<path fill-rule="evenodd" clip-rule="evenodd" d="M7 40L1 46L14 59L19.999 53L7 40Z" stroke="#2A2B2E" stroke-width="2" stroke-linejoin="round"/>
<path d="M8.54688 47.4531L6.54688 45.4531" stroke="#2A2B2E" stroke-width="2" stroke-linecap="round"/>
<path fill-rule="evenodd" clip-rule="evenodd" d="M41.7733 13.3472L33.5193 6.73025C33.2623 6.52425 32.8233 6.42625 32.4453 6.56325C32.4443 6.56325 22.7143 10.3522 22.7143 10.3522C22.2753 10.4392 21.9153 10.7842 21.8463 11.2542L20.3223 21.5302C20.2583 21.9882 20.3363 22.4622 20.6673 22.7262L28.9213 29.3442C29.2393 29.5992 29.4823 29.7592 29.7973 29.6362L39.7833 25.7552C40.3203 25.5462 40.5453 25.3202 40.6203 24.8252L42.1713 14.3592C42.2173 14.0462 42.0643 13.5792 41.7733 13.3472Z" fill="#AA4465"/>
<path fill-rule="evenodd" clip-rule="evenodd" d="M41.7733 13.3472L33.5193 6.73025C33.2623 6.52425 32.8233 6.42625 32.4453 6.56325C32.4443 6.56325 22.7143 10.3522 22.7143 10.3522C22.2753 10.4392 21.9153 10.7842 21.8463 11.2542L20.3223 21.5302C20.2583 21.9882 20.3363 22.4622 20.6673 22.7262L28.9213 29.3442C29.2393 29.5992 29.4823 29.7592 29.7973 29.6362L39.7833 25.7552C40.3203 25.5462 40.5453 25.3202 40.6203 24.8252L42.1713 14.3592C42.2173 14.0462 42.0643 13.5792 41.7733 13.3472Z" stroke="#2A2B2E" stroke-width="2"/>
<path d="M32.241 9.64258L30.859 17.9296L23.752 20.5216" stroke="#2A2B2E" stroke-width="2" stroke-linecap="round"/>
<path d="M30.8594 17.9297L37.6964 23.3447" stroke="#2A2B2E" stroke-width="2" stroke-linecap="round"/>
<path d="M53 19V25" stroke="#2A2B2E" stroke-width="2" stroke-linecap="round"/>
<path d="M56 22H50" stroke="#2A2B2E" stroke-width="2" stroke-linecap="round"/>
</svg>
