<svg width="59" height="57" viewBox="0 0 59 57" fill="none" xmlns="http://www.w3.org/2000/svg">
<path fill-rule="evenodd" clip-rule="evenodd" d="M35.9906 23.8698C41.5246 37.5698 40.1106 50.9718 32.4486 54.5448C24.3176 58.3368 12.2286 49.6228 5.44761 35.0818C-1.33239 20.5408 -0.238389 5.67981 7.89361 1.88781C14.9966 -1.42619 25.1196 4.80481 32.0856 16.1258" fill="#AA4465"/>
<path d="M35.9906 23.8698C41.5246 37.5698 40.1106 50.9718 32.4486 54.5448C24.3176 58.3368 12.2286 49.6228 5.44761 35.0818C-1.33239 20.5408 -0.238389 5.67981 7.89361 1.88781C14.9966 -1.42619 25.1196 4.80481 32.0856 16.1258" stroke="#2A2B2E" stroke-width="2" stroke-linejoin="round"/>
<path fill-rule="evenodd" clip-rule="evenodd" d="M31.296 27.023C34.151 35.24 33.292 42.847 28.948 44.874C24.015 47.173 16.458 41.407 12.068 31.993C7.67804 22.579 8.11804 13.083 13.05 10.782C17.068 8.90804 22.828 12.387 27.199 18.83" fill="white"/>
<path d="M31.296 27.023C34.151 35.24 33.292 42.847 28.948 44.874C24.015 47.173 16.458 41.407 12.068 31.993C7.67804 22.579 8.11804 13.083 13.05 10.782C17.068 8.90804 22.828 12.387 27.199 18.83" stroke="#2A2B2E" stroke-width="2"/>
<path fill-rule="evenodd" clip-rule="evenodd" d="M26.158 29.3826C26.587 31.7496 26.178 33.6826 24.94 34.2596C23.137 35.1006 20.256 32.7406 18.507 28.9896C16.758 25.2386 16.802 21.5166 18.606 20.6746C19.614 20.2046 20.957 20.7336 22.252 21.9456" fill="#AA4465"/>
<path d="M26.158 29.3826C26.587 31.7496 26.178 33.6826 24.94 34.2596C23.137 35.1006 20.256 32.7406 18.507 28.9896C16.758 25.2386 16.802 21.5166 18.606 20.6746C19.614 20.2046 20.957 20.7336 22.252 21.9456" stroke="#2A2B2E" stroke-width="2" stroke-linejoin="round"/>
<path d="M22.4844 27.0154L43.8984 13.4094" stroke="#2A2B2E" stroke-width="2" stroke-linecap="round"/>
<path fill-rule="evenodd" clip-rule="evenodd" d="M57.0464 9.23033L51.8084 8.22433L52.8144 2.98633L44.9044 8.17033L43.8984 13.4093L49.1364 14.4153L57.0464 9.23033Z" fill="#AA4465"/>
<path fill-rule="evenodd" clip-rule="evenodd" d="M57.0464 9.23033L51.8084 8.22433L52.8144 2.98633L44.9044 8.17033L43.8984 13.4093L49.1364 14.4153L57.0464 9.23033Z" stroke="#2A2B2E" stroke-width="2" stroke-linejoin="round"/>
</svg>
