<svg width="406" height="398" viewBox="0 0 406 398" fill="none" xmlns="http://www.w3.org/2000/svg">
<path fill-rule="evenodd" clip-rule="evenodd" d="M91.929 21.6764C65.7287 31.7941 44.7333 53.8845 36.6805 69.5517C4.93935 131.305 12.4492 261.699 68.4447 330.851C81.5487 347.033 148.012 395.178 242.346 378.561C325.738 363.872 374.869 283.366 382.004 214.957C387.914 158.282 367.683 83.7691 317.188 56.6611C285.434 39.6151 295.051 51.5343 222.853 36.7687C160.363 23.9887 123.977 9.30061 91.929 21.6764Z" fill="#C9CEBD"/>
<path fill-rule="evenodd" clip-rule="evenodd" d="M97.9822 353.926C103.117 349.739 108.508 345.836 114.028 342.113C125.232 334.557 137.041 327.802 148.976 321.258C155.254 317.815 161.772 314.7 168.206 311.495C174.679 308.272 181.17 305.078 187.663 301.886C193.596 298.969 199.529 296.052 205.451 293.118C218.912 247.704 233.532 196.217 230.628 196.217L9.91463 190C4.71918 190 1.23351 194.218 2.14479 199.403L28.8913 351.597C29.8024 356.782 34.7706 361 39.9661 361H89.0827C91.9785 358.565 95.0507 356.316 97.9822 353.926Z" fill="#AA4465"/>
<path fill-rule="evenodd" clip-rule="evenodd" d="M231.865 196.715C231.874 196.716 231.884 196.716 231.894 196.716L231.865 196.715ZM11.6186 190.48C9.38563 190.48 7.4155 191.348 6.09287 192.923C4.73257 194.543 4.20766 196.717 4.61444 199.044L31.3054 351.701C32.1559 356.563 36.7869 360.52 41.6288 360.52H90.3736C91.9488 359.197 93.5906 357.913 95.1805 356.67C96.4605 355.669 97.7841 354.634 99.0554 353.592C103.798 349.705 109.054 345.816 115.122 341.702C126.948 333.686 139.417 326.612 150.055 320.749C154.919 318.067 160.001 315.547 164.915 313.11C166.369 312.389 167.823 311.668 169.272 310.943C175.614 307.768 181.819 304.699 188.691 301.303C194.515 298.425 200.339 295.546 206.152 292.653C229.574 213.209 231.845 198.899 231.523 196.706L11.6186 190.48ZM90.9141 362H41.6288C36.1013 362 30.8166 357.494 29.8481 351.956L3.15718 199.299C2.67373 196.534 3.31409 193.931 4.96014 191.971C6.56896 190.055 8.94119 189 11.6395 189L231.915 195.236H231.916C232.202 195.236 232.488 195.383 232.679 195.638C233.39 196.59 235.277 199.115 207.479 293.381L207.388 293.69L207.1 293.834C201.189 296.777 195.268 299.703 189.346 302.629C182.476 306.025 176.273 309.093 169.933 312.267C168.483 312.993 167.028 313.714 165.572 314.436C160.672 316.866 155.605 319.379 150.769 322.045C140.16 327.892 127.728 334.946 115.952 342.928C109.92 347.016 104.701 350.879 99.9931 354.737C98.7084 355.789 97.378 356.83 96.0917 357.836C94.4423 359.126 92.7371 360.459 91.121 361.825L90.9141 362Z" fill="#2A2B2E"/>
<path fill-rule="evenodd" clip-rule="evenodd" d="M238.701 190H16.461C11.5561 190 8.27678 193.95 9.13705 198.822L35.8598 350.177C36.7203 355.05 41.394 359 46.2992 359H268.539C273.444 359 276.723 355.05 275.863 350.177L249.14 198.822C248.28 193.95 243.606 190 238.701 190Z" fill="white"/>
<path fill-rule="evenodd" clip-rule="evenodd" d="M16.219 190.481C14.0945 190.481 12.2401 191.294 10.9978 192.769C9.7205 194.286 9.22817 196.326 9.61162 198.515L36.3859 351.23C37.1872 355.801 41.5516 359.519 46.1145 359.519H268.781C270.905 359.519 272.76 358.706 274.002 357.232C275.28 355.715 275.772 353.674 275.388 351.486L248.614 198.77C247.813 194.199 243.449 190.481 238.886 190.481H16.219ZM268.781 361H46.1145C40.8639 361 35.8437 356.732 34.9243 351.486L8.15005 198.77C7.68946 196.144 8.29739 193.674 9.86159 191.816C11.3909 190 13.6487 189 16.219 189H238.886C244.136 189 249.156 193.268 250.076 198.515L276.85 351.23C277.311 353.857 276.702 356.326 275.138 358.184C273.609 360 271.352 361 268.781 361Z" fill="#2A2B2E"/>
<path fill-rule="evenodd" clip-rule="evenodd" d="M46.9451 354C44.5709 354 42.0245 351.805 41.6023 349.394L15.0589 197.841C14.9064 196.969 15.0521 196.214 15.4699 195.716C15.9662 195.124 16.7431 195 17.3072 195H238.055C240.429 195 242.975 197.196 243.398 199.607L269.941 351.159C270.094 352.031 269.948 352.786 269.531 353.284C269.034 353.876 268.257 354 267.693 354H46.9451Z" fill="#E6E8E6"/>
<path fill-rule="evenodd" clip-rule="evenodd" d="M135.203 361H45.5544C41.9402 361 39 364.14 39 368C39 371.86 41.9402 375 45.5544 375H137.88C141.494 375 135.203 361 135.203 361Z" fill="#99B9FF"/>
<path fill-rule="evenodd" clip-rule="evenodd" d="M46.2551 363.403C43.058 363.403 40.4574 365.914 40.4574 369C40.4574 372.086 43.058 374.597 46.2551 374.597H138.181C138.352 374.597 138.385 374.547 138.417 374.499C139.162 373.359 137.318 368.043 135.054 363.403H46.2551ZM138.181 376H46.2551C42.2546 376 39 372.86 39 369C39 365.14 42.2546 362 46.2551 362H135.974L136.172 362.399C137.029 364.121 141.224 372.84 139.65 375.246C139.332 375.732 138.81 376 138.181 376Z" fill="#2A2B2E"/>
<path fill-rule="evenodd" clip-rule="evenodd" d="M319.379 361H105.621C101.964 361 99 364.134 99 368C99 371.866 101.964 375 105.621 375H319.379C323.036 375 326 371.866 326 368C326 364.134 323.036 361 319.379 361Z" fill="#AA4465"/>
<path fill-rule="evenodd" clip-rule="evenodd" d="M105.377 363.403C102.126 363.403 99.4817 365.914 99.4817 369C99.4817 372.086 102.126 374.597 105.377 374.597H319.623C322.874 374.597 325.518 372.086 325.518 369C325.518 365.914 322.874 363.403 319.623 363.403H105.377ZM319.623 376H105.377C101.309 376 98 372.86 98 369C98 365.14 101.309 362 105.377 362H319.623C323.691 362 327 365.14 327 369C327 372.86 323.691 376 319.623 376Z" fill="#2A2B2E"/>
<path fill-rule="evenodd" clip-rule="evenodd" d="M144.423 72.56C134.449 71.9694 126.846 63.4049 127.441 53.4308C128.036 43.4564 136.603 35.8494 146.577 36.4402C156.551 37.0308 164.154 45.5953 163.559 55.5695C162.964 65.5436 154.397 73.1506 144.423 72.56ZM181.582 60.1567L182 53.1412L174.626 51.0128C174.433 49.3709 174.107 47.7668 173.651 46.215L179.584 41.3566L176.439 35.0736L168.985 36.9176C168.006 35.6111 166.921 34.3883 165.739 33.2614L168.453 26.0784L162.587 22.2105L157.061 27.5266C155.574 26.8898 154.019 26.3769 152.412 25.99L151.172 18.4155L144.157 18L142.025 25.3747C140.384 25.5693 138.779 25.8954 137.227 26.3519L132.372 20.4214L126.087 23.5695L127.928 31.0223C126.621 32.0019 125.397 33.0877 124.27 34.2698L117.089 31.5589L113.219 37.4266L118.532 42.9508C117.894 44.4382 117.381 45.9926 116.993 47.6L109.418 48.8433L109 55.8588L116.374 57.9872C116.567 59.6289 116.893 61.2332 117.349 62.7852L111.416 67.6434L114.561 73.9266L122.015 72.0824C122.994 73.3889 124.079 74.6121 125.261 75.7389L122.547 82.9218L128.413 86.7893L133.939 81.4737C135.426 82.1106 136.981 82.6231 138.587 83.0102L139.828 90.5848L146.843 91L148.975 83.6253C150.616 83.4306 152.221 83.1051 153.773 82.6481L158.629 88.5786L164.913 85.4305L163.072 77.9779C164.379 76.9986 165.602 75.912 166.73 74.7304L173.911 77.4411L177.782 71.5734L172.468 66.0494C173.106 64.5621 173.619 63.0074 174.007 61.4002L181.582 60.1567Z" fill="#2A2B2E"/>
<path fill-rule="evenodd" clip-rule="evenodd" d="M125.621 273.236C119.663 277.073 111.216 274.441 106.796 267.372L52 179.833L73.482 166L128.375 253.695C132.757 260.704 131.527 269.433 125.621 273.236Z" fill="#AA4465"/>
<path fill-rule="evenodd" clip-rule="evenodd" d="M53.741 180.731L108.529 267.285C110.789 270.859 114.255 273.394 118.039 274.239C121.061 274.913 124.055 274.437 126.472 272.898C132.06 269.34 133.203 261.062 129.02 254.447L74.1373 167.743L53.741 180.731ZM120.708 276C119.724 276 118.723 275.89 117.72 275.666C113.558 274.737 109.757 271.967 107.29 268.066L52.1134 180.897C51.8979 180.557 51.9987 180.107 52.3385 179.89L73.9696 166.115C74.1345 166.01 74.3328 165.975 74.5232 166.018C74.7132 166.061 74.8785 166.177 74.9826 166.341L130.258 253.666C134.871 260.96 133.526 270.141 127.259 274.131C125.321 275.365 123.064 276 120.708 276Z" fill="#2A2B2E"/>
<path fill-rule="evenodd" clip-rule="evenodd" d="M132.369 108.279L67.4118 141.296L41.0007 161.547L29.6577 176.042L29.579 176.158C27.4044 178.633 27.4627 185.103 29.8359 192.025C32.183 198.871 36.1236 203.961 39.3499 204.701L39.2436 204.736L56.2203 209.163L89.2655 208.838L161.441 194.623L244.401 221.893L245 222C224.131 214.887 199.544 182.057 184.634 138.566C169.741 95.1252 169.041 54.2873 181.173 36.0111L181.156 36L132.986 107.365L132.369 108.279Z" fill="white"/>
<path fill-rule="evenodd" clip-rule="evenodd" d="M268.198 111.539C286.513 165.941 283.14 216.292 260.663 224.003C238.186 231.714 205.118 193.863 186.802 139.461C168.487 85.0595 171.86 34.7075 194.337 26.997C216.814 19.2865 249.882 57.137 268.198 111.539Z" fill="#AA4465"/>
<path fill-rule="evenodd" clip-rule="evenodd" d="M254.425 224C244.391 224 232.789 217.045 221.042 203.817C206.832 187.815 194.042 164.496 185.028 138.156C171.363 98.2265 169.146 59.0447 179.381 38.3361C182.796 31.425 187.423 26.9436 193.132 25.017C205.274 20.9204 220.997 29.3188 236.272 48.0597C236.53 48.3766 236.482 48.8415 236.164 49.0987C235.847 49.3549 235.38 49.3073 235.122 48.9915C220.26 30.7564 205.129 22.5288 193.607 26.4162C188.284 28.2123 183.945 32.4426 180.709 38.989C170.64 59.3636 172.885 98.1019 186.43 137.679C203.26 186.858 232.429 222.525 254.403 222.526C256.469 222.526 258.47 222.211 260.393 221.562C265.716 219.766 270.055 215.535 273.291 208.989C283.36 188.614 281.114 149.876 267.57 110.299L266.79 108.013C264.53 101.386 263.595 98.6429 260.417 91.8426C260.245 91.4729 260.405 91.0336 260.776 90.8614C261.146 90.6887 261.588 90.8487 261.76 91.2186C264.972 98.0916 265.915 100.857 268.193 107.538L268.972 109.822C282.637 149.751 284.853 188.933 274.62 209.641C271.204 216.553 266.577 221.034 260.868 222.961C258.809 223.656 256.655 224 254.425 224Z" fill="#2A2B2E"/>
<path fill-rule="evenodd" clip-rule="evenodd" d="M252.102 215C243.078 215 232.651 208.841 222.1 197.128C209.351 182.973 197.875 162.347 189.789 139.05C177.529 103.728 175.543 69.0634 184.729 50.7363C187.803 44.6047 191.968 40.6284 197.111 38.9174C206.967 35.6375 219.279 41.2163 231.778 54.6249C232.059 54.9261 232.038 55.3929 231.732 55.6687C231.426 55.9456 230.95 55.9236 230.67 55.6235C218.598 42.6722 206.851 37.2374 197.592 40.317C192.842 41.8973 188.968 45.6229 186.078 51.389C177.059 69.3822 179.074 103.604 191.211 138.573C207.706 186.094 237.407 219.337 257.424 212.677C275.559 206.643 279.86 169.324 267.429 125.868C267.316 125.476 267.549 125.068 267.949 124.957C268.347 124.847 268.763 125.076 268.875 125.468C274.941 146.671 277.244 167.292 275.359 183.534C273.434 200.126 267.236 210.973 257.906 214.077C256.051 214.694 254.11 215 252.102 215Z" fill="#2A2B2E"/>
<path fill-rule="evenodd" clip-rule="evenodd" d="M224.302 124.343C228.489 136.645 227.718 148.031 222.58 149.775C217.443 151.518 209.884 142.959 205.698 130.657C201.511 118.355 202.282 106.969 207.42 105.225C212.557 103.482 220.116 112.041 224.302 124.343Z" fill="white"/>
<path fill-rule="evenodd" clip-rule="evenodd" d="M161.888 194.226C161.967 194.226 162.044 194.239 162.119 194.264L236.154 218.592C216.964 206.357 196.996 176.203 184.334 139.279C171.764 102.627 169.006 66.8897 176.499 45.5429L133.492 109.24C133.423 109.343 133.328 109.427 133.216 109.484L68.4627 142.387L42.238 162.489L30.9267 176.952C30.9101 176.976 30.8919 176.999 30.8721 177.022C28.879 179.29 29.0467 185.644 31.2711 192.131C33.452 198.49 37.221 203.607 40.2329 204.297C40.3412 204.322 40.4397 204.37 40.5231 204.436L56.9915 208.729L89.7967 208.407L161.745 194.24C161.793 194.231 161.84 194.226 161.888 194.226ZM245.264 223C245.221 223 245.177 222.996 245.134 222.989L244.536 222.882C244.502 222.876 244.468 222.867 244.435 222.856L161.841 195.715L90.0153 209.858C89.9707 209.866 89.9252 209.871 89.8797 209.872L56.9074 210.196C56.8492 210.192 56.7769 210.189 56.7134 210.172L39.7744 205.756C39.6697 205.728 39.5747 205.679 39.4946 205.613C36.0138 204.503 32.1958 199.365 29.8773 192.604C27.4275 185.46 27.3714 178.837 29.7324 176.092L29.7874 176.012L41.1334 161.515C41.1715 161.467 41.2157 161.423 41.2649 161.385L67.6177 141.185C67.6537 141.158 67.6921 141.134 67.7322 141.113L132.376 108.265L180.95 36.3241C181.176 35.9892 181.632 35.8991 181.969 36.1232C182.307 36.3471 182.415 36.8109 182.192 37.1478C176.345 45.9527 173.411 60.6239 173.928 78.4588C174.466 96.998 178.546 117.866 185.727 138.806C192.917 159.771 202.525 178.799 213.513 193.832C224.084 208.295 235.445 218.148 245.502 221.574C245.866 221.699 246.073 222.08 245.976 222.451C245.891 222.779 245.594 223 245.264 223Z" fill="#2A2B2E"/>
<path fill-rule="evenodd" clip-rule="evenodd" d="M133.238 108.064L182 36L182.016 36.0111C169.854 54.2873 170.556 95.1254 185.485 138.566C200.432 182.057 225.08 214.887 246 222L245.4 221.893L162.373 194.668L160.448 194.045C150.805 190.831 139.499 176.029 132.784 156.347C125.891 136.143 126.99 117.184 132.626 108.938L133.238 108.064Z" fill="white"/>
<path fill-rule="evenodd" clip-rule="evenodd" d="M177.892 45.5431L134.655 109.024C134.652 109.028 134.65 109.031 134.648 109.034L134.033 109.907C128.81 117.499 127.217 135.961 134.285 156.543C140.697 175.212 151.927 190.487 161.594 193.688L163.521 194.308L238.068 218.592C218.711 206.357 198.568 176.203 185.794 139.279C173.115 102.627 170.333 66.8896 177.892 45.5431ZM247.258 223C247.214 223 247.17 222.996 247.126 222.989L246.524 222.882C246.489 222.876 246.455 222.868 246.422 222.856L163.058 195.7L161.128 195.079C150.883 191.687 139.533 176.39 132.878 157.014C125.318 134.999 127.542 116.733 132.809 109.077L133.424 108.203L182.381 36.3247C182.609 35.9891 183.069 35.899 183.409 36.1234C183.75 36.347 183.859 36.8111 183.634 37.1477C177.736 45.9526 174.776 60.6238 175.298 78.4587C175.841 96.9979 179.956 117.866 187.2 138.806C194.453 159.772 204.145 178.799 215.229 193.832C225.893 208.295 237.353 218.148 247.498 221.574C247.865 221.699 248.074 222.08 247.976 222.451C247.89 222.779 247.59 223 247.258 223Z" fill="#2A2B2E"/>
<path fill-rule="evenodd" clip-rule="evenodd" d="M55.2823 209C55.2221 209 55.1607 208.992 55.0997 208.976L39.4778 204.775C39.3757 204.747 39.2831 204.697 39.205 204.631C35.8121 203.515 32.09 198.348 29.8299 191.549C27.4418 184.364 27.3873 177.703 29.6891 174.944L29.7425 174.863L40.8025 160.284C41.0461 159.962 41.4971 159.906 41.8103 160.156C42.1229 160.406 42.1792 160.869 41.9356 161.19L30.8529 175.807C30.8366 175.832 30.8189 175.856 30.7996 175.878C28.8567 178.16 29.0202 184.55 31.1886 191.073C33.3145 197.469 36.9889 202.614 39.9247 203.308C40.0303 203.333 40.1265 203.381 40.2077 203.447L55.464 207.55C55.8473 207.654 56.0768 208.056 55.9764 208.45C55.8916 208.781 55.6009 209 55.2823 209Z" fill="#2A2B2E"/>
<path fill-rule="evenodd" clip-rule="evenodd" d="M58 208C52.8195 206.852 46.6164 198.398 42.841 187.432C38.841 175.812 39.2023 164.458 43.2403 161L31.6353 175.533L31.5576 175.647C29.4125 178.079 29.47 184.434 31.811 191.234C34.1264 197.959 38.0137 202.96 41.1963 203.687L41.0914 203.721L58 208Z" fill="#AA4465"/>
<path fill-rule="evenodd" clip-rule="evenodd" d="M40.6022 203.329L52.1974 206.245C48.062 202.635 43.97 195.921 41.1211 187.701C38.3658 179.751 37.5737 171.825 38.6902 166.308L30.9462 175.955C30.9295 175.979 30.9111 176.003 30.8913 176.025C28.8848 178.285 29.0537 184.614 31.2929 191.076C33.4884 197.411 37.2829 202.508 40.3147 203.196C40.4217 203.22 40.5191 203.266 40.6022 203.329ZM57.2591 209C57.2055 209 57.151 208.994 57.0967 208.982C56.9636 208.953 56.8302 208.92 56.696 208.882L39.8579 204.649C39.7504 204.622 39.6535 204.573 39.5715 204.507C36.0676 203.4 32.2238 198.282 29.8898 191.547C27.4236 184.431 27.3671 177.833 29.7444 175.099L29.7996 175.019C29.8096 175.005 29.8201 174.991 29.8313 174.977L40.1918 162.088C40.6357 161.323 41.1533 160.68 41.7444 160.178C42.0334 159.931 42.4659 159.942 42.742 160.203C43.0181 160.463 43.0478 160.888 42.8106 161.183L41.3668 162.978C38.7825 167.609 39.1548 177.507 42.5242 187.23C46.203 197.845 52.133 206.067 57.0704 207.47L57.4419 207.563C57.8344 207.662 58.0736 208.052 57.9796 208.44C57.8982 208.774 57.5944 209 57.2591 209Z" fill="#2A2B2E"/>
<path fill-rule="evenodd" clip-rule="evenodd" d="M89.6014 210.702L91 210.631C83.3861 211.078 73.4077 197.745 67.5618 180.044C61.5997 161.992 62.4194 145.014 69.0782 141L68.2006 141.699L43.3149 161.525C39.1808 165.082 38.7893 177.074 42.843 189.347C46.7545 201.191 53.3967 210.208 58.6933 211L89.6014 210.702Z" fill="white"/>
<path fill-rule="evenodd" clip-rule="evenodd" d="M64.6922 145.17L43.5549 161.725C39.5359 165.125 39.4261 176.897 43.3265 188.508C47.1488 199.885 53.5984 208.692 58.6844 209.495L86.0588 209.235C79.2096 205.435 71.7655 194.276 66.888 179.758C62.1948 165.789 61.5423 152.565 64.6922 145.17ZM58.6324 211C58.5971 211 58.5616 210.998 58.5266 210.992C52.8213 210.154 45.9942 201.108 41.9246 188.994C37.771 176.632 38.0737 164.404 42.6285 160.551L67.2043 141.302C67.6809 140.831 68.1948 140.429 68.7469 140.102C69.084 139.903 69.5168 140.003 69.7349 140.332C69.9531 140.661 69.8818 141.106 69.5724 141.348L68.2055 142.418C63.0447 147.636 62.9619 163.412 68.2899 179.272C74.0555 196.434 83.6943 209.14 90.8727 209.14C90.9558 209.14 91.0379 209.138 91.1207 209.134L91.2228 209.129C91.6328 209.109 91.9775 209.427 91.999 209.841C92.0204 210.255 91.7087 210.608 91.3013 210.632C91.2652 210.634 91.2281 210.636 91.1924 210.638L89.8829 210.703C89.8728 210.703 89.863 210.704 89.8534 210.704L58.6398 211H58.6324Z" fill="#2A2B2E"/>
<path fill-rule="evenodd" clip-rule="evenodd" d="M207.348 105C202.036 106.797 201.012 118.611 205.567 131.209C213.206 152.335 221.943 151.281 222.982 151.073C223.001 151.069 223.007 151.095 222.991 151.105L202.682 163C198.488 154.721 194.646 145.636 191.341 135.956C188.172 126.677 185.731 117.532 184 108.768L207.348 105Z" fill="#2A2B2E"/>
<path fill-rule="evenodd" clip-rule="evenodd" d="M184.772 110.048C186.532 118.618 188.953 127.359 191.97 136.041C195.12 145.101 198.818 153.809 202.968 161.94L220.519 151.842C216.895 151.079 210.556 147.337 204.853 131.843C201.51 122.763 200.959 113.617 203.449 108.543C203.749 107.933 204.086 107.394 204.46 106.928L184.772 110.048ZM202.35 164L201.99 163.303C197.663 154.913 193.815 145.9 190.552 136.516C187.425 127.519 184.935 118.459 183.15 109.587L183 108.84L207.227 105L207.587 106.422C206.45 106.8 205.512 107.728 204.799 109.181C202.511 113.844 203.099 122.751 206.262 131.344C213.736 151.649 221.992 150.656 222.909 150.477L223.535 150.354L224 151.542L223.43 151.872L202.35 164Z" fill="#2A2B2E"/>
<path fill-rule="evenodd" clip-rule="evenodd" d="M269.5 37C269.224 37 269 36.6811 269 36.2882V33.7116C269 33.3187 269.224 33 269.5 33C269.776 33 270 33.3187 270 33.7116V36.2882C270 36.6811 269.776 37 269.5 37Z" fill="#2A2B2E"/>
<path fill-rule="evenodd" clip-rule="evenodd" d="M269.5 44C269.224 44 269 43.6814 269 43.2883V40.7115C269 40.3186 269.224 40 269.5 40C269.776 40 270 40.3186 270 40.7115V43.2883C270 43.6814 269.776 44 269.5 44Z" fill="#2A2B2E"/>
<path fill-rule="evenodd" clip-rule="evenodd" d="M266.287 39H263.713C263.319 39 263 38.7761 263 38.5001C263 38.224 263.319 38 263.713 38H266.287C266.681 38 267 38.224 267 38.5001C267 38.7761 266.681 39 266.287 39Z" fill="#2A2B2E"/>
<path fill-rule="evenodd" clip-rule="evenodd" d="M272.287 39H269.713C269.319 39 269 38.7761 269 38.5001C269 38.224 269.319 38 269.713 38H272.287C272.681 38 273 38.224 273 38.5001C273 38.7761 272.681 39 272.287 39Z" fill="#2A2B2E"/>
<path fill-rule="evenodd" clip-rule="evenodd" d="M86.2616 285C86.1844 285 86.1059 284.988 86.0287 284.963C56.427 275.143 41.9536 256.592 35.0245 242.759C27.5133 227.763 27.0044 214.889 27.0004 214.761C26.9866 214.354 27.3061 214.014 27.7135 214C28.1207 213.997 28.4622 214.305 28.476 214.712C28.4804 214.837 28.9884 227.443 36.3755 242.16C43.1835 255.723 57.4048 273.916 86.4946 283.564C86.8815 283.693 87.0908 284.11 86.962 284.496C86.8594 284.805 86.5709 285 86.2616 285Z" fill="white"/>
<path fill-rule="evenodd" clip-rule="evenodd" d="M94.2616 296C94.2347 296 94.2075 295.998 94.1803 295.995C75.8143 293.945 62.6501 286.232 54.8404 280.124C46.3658 273.494 42.2963 267.432 42.1272 267.177C41.8982 266.832 41.9869 266.364 42.3248 266.13C42.6627 265.896 43.1222 265.986 43.3512 266.331C43.5127 266.574 59.8887 290.649 94.3409 294.496C94.747 294.541 95.0399 294.914 94.9956 295.328C94.9541 295.714 94.6336 296 94.2616 296Z" fill="white"/>
<path fill-rule="evenodd" clip-rule="evenodd" d="M216.733 93C216.545 93 216.358 92.9291 216.215 92.7864C215.929 92.5012 215.928 92.0389 216.214 91.7529L260.749 47.2152C261.034 46.9289 261.498 46.9278 261.785 47.2144C262.071 47.4993 262.072 47.9618 261.786 48.2477L217.252 92.7853C217.108 92.9286 216.92 93 216.733 93Z" fill="white"/>
<path fill-rule="evenodd" clip-rule="evenodd" d="M235.757 123C235.634 123 235.509 122.971 235.394 122.909C235.027 122.714 234.892 122.265 235.093 121.907C235.914 120.443 236.905 119.622 238.038 119.468C238.885 119.351 239.463 119.66 239.927 119.908C240.261 120.086 240.525 120.226 240.89 120.231C241.555 120.252 241.975 119.784 242.611 119.039C243.247 118.295 243.967 117.452 245.195 117.264C246.699 117.03 247.694 117.966 248.571 118.792C249.31 119.487 249.943 120.092 250.811 120.053C251.799 120.013 252.47 119.156 253.246 118.163C254.13 117.032 255.132 115.751 256.843 115.702C258.268 115.658 259.269 116.535 260.066 117.239C260.809 117.896 261.293 118.298 261.87 118.22C262.795 118.1 263.738 116.78 264.525 114.503C264.658 114.115 265.088 113.91 265.484 114.038C265.881 114.168 266.094 114.588 265.96 114.974C264.937 117.937 263.664 119.478 262.069 119.684C260.768 119.852 259.855 119.047 259.049 118.335C258.332 117.701 257.706 117.15 256.888 117.178C255.899 117.207 255.227 118.065 254.45 119.059C253.57 120.184 252.573 121.46 250.873 121.529C249.374 121.599 248.341 120.628 247.519 119.855C246.696 119.081 246.156 118.614 245.431 118.723C244.766 118.825 244.307 119.363 243.775 119.985C243.118 120.754 242.303 121.708 240.909 121.708H240.871C240.129 121.699 239.614 121.425 239.201 121.204C238.794 120.987 238.586 120.884 238.247 120.931C237.624 121.016 236.993 121.599 236.422 122.616C236.284 122.862 236.025 123 235.757 123Z" fill="#2A2B2E"/>
<path fill-rule="evenodd" clip-rule="evenodd" d="M228.748 112C228.517 112 228.289 111.896 228.143 111.701C227.9 111.376 227.975 110.923 228.309 110.688L260.244 88.2093C262.104 86.8995 264.377 86.3707 266.644 86.7258C268.914 87.0784 270.906 88.2704 272.253 90.081C273.367 91.5774 275.012 92.5615 276.887 92.8534C278.759 93.1446 280.636 92.7098 282.173 91.6285L292.814 84.1387C293.148 83.9029 293.615 83.975 293.858 84.2995C294.1 84.6237 294.025 85.0769 293.692 85.3122L283.051 92.802C281.19 94.1114 278.917 94.639 276.65 94.2851C274.381 93.9325 272.389 92.7406 271.041 90.9298C269.928 89.4334 268.283 88.4492 266.408 88.1575C264.536 87.8667 262.658 88.3019 261.122 89.3827L229.186 111.862C229.054 111.955 228.9 112 228.748 112Z" fill="#2A2B2E"/>
<path fill-rule="evenodd" clip-rule="evenodd" d="M75.3236 236.127C79.6864 241.841 78.6014 249.996 72.8998 254.344C67.1983 258.692 59.0392 257.586 54.6763 251.873C50.3135 246.159 51.3987 238.004 57.1003 233.656C62.8019 229.308 70.9607 230.414 75.3236 236.127Z" fill="white"/>
<path fill-rule="evenodd" clip-rule="evenodd" d="M66.5596 258C65.9733 258 65.3835 257.96 64.7922 257.881C61.1809 257.395 57.9753 255.472 55.7658 252.469C51.2525 246.333 52.3822 237.54 58.2834 232.868C61.8564 230.039 66.5413 229.246 70.8138 230.744C71.1904 230.876 71.3892 231.289 71.2573 231.668C71.1258 232.046 70.7147 232.246 70.337 232.113C66.5332 230.778 62.3615 231.486 59.1786 234.006C53.8829 238.199 52.8736 246.094 56.9286 251.608C58.9034 254.293 61.7645 256.01 64.9847 256.444C68.148 256.869 71.2867 255.999 73.8216 253.992C79.1172 249.8 80.1265 241.904 76.0717 236.391C75.8348 236.069 75.9032 235.615 76.2243 235.378C76.5452 235.141 76.9971 235.208 77.2344 235.531C81.7473 241.666 80.6178 250.459 74.7169 255.131C72.3449 257.009 69.5004 258 66.5596 258Z" fill="#2A2B2E"/>
<path fill-rule="evenodd" clip-rule="evenodd" d="M70.0708 249.851L69.3355 248.921C69.2096 248.762 68.9739 248.728 68.797 248.836C67.8694 249.407 66.8743 249.804 66.0875 249.963C65.8981 250.002 65.707 249.911 65.6333 249.744L64.9526 248.197C64.86 247.986 64.9894 247.749 65.2268 247.699C66.1225 247.513 67.1575 247.136 68.0718 246.463C69.0145 245.769 69.3813 244.942 68.8751 244.302C68.394 243.693 67.5609 243.699 66.0209 244.2C63.7957 244.927 61.9555 245.016 60.7277 243.464C59.6639 242.119 59.755 240.362 61.0766 238.779C61.1869 238.647 61.1961 238.464 61.0896 238.329L60.2952 237.325C60.1686 237.165 60.201 236.94 60.3684 236.816L61.3699 236.079C61.5442 235.95 61.7979 235.982 61.9299 236.149L62.576 236.966C62.7023 237.126 62.9397 237.159 63.1164 237.049C63.9572 236.526 64.671 236.245 65.28 236.09C65.4717 236.042 65.6713 236.135 65.7469 236.307L66.3967 237.785C66.4872 237.991 66.366 238.222 66.1369 238.28C65.5395 238.431 64.6909 238.697 63.7567 239.385C62.6818 240.177 62.6886 240.881 63.0432 241.329C63.4608 241.857 64.3054 241.767 66.1163 241.244C68.6158 240.467 70.1057 240.762 71.2447 242.202C72.3229 243.565 72.2958 245.441 70.845 247.108C70.73 247.24 70.7187 247.427 70.8271 247.564L71.7057 248.675C71.8323 248.835 71.8 249.06 71.6325 249.184L70.631 249.921C70.4565 250.05 70.203 250.018 70.0708 249.851Z" fill="#AA4465"/>
<path fill-rule="evenodd" clip-rule="evenodd" d="M298.437 161.842C289.965 153.523 289.839 139.91 298.158 131.437C306.477 122.964 320.09 122.84 328.563 131.158C337.036 139.477 337.161 153.09 328.842 161.563C320.523 170.036 306.91 170.161 298.437 161.842Z" fill="#AA4465"/>
<path fill-rule="evenodd" clip-rule="evenodd" d="M327.445 145.039L313.283 159.421C312.533 160.183 311.306 160.194 310.542 159.446L300.58 149.695C299.817 148.947 299.805 147.723 300.555 146.962L314.717 132.579C315.467 131.817 316.694 131.806 317.458 132.554L327.42 142.306C328.184 143.053 328.195 144.277 327.445 145.039Z" fill="white"/>
<path fill-rule="evenodd" clip-rule="evenodd" d="M317.139 131.484H317.127C316.801 131.487 316.495 131.617 316.266 131.85L301.847 146.498C301.371 146.981 301.378 147.762 301.863 148.236L312.005 158.168C312.236 158.394 312.54 158.517 312.861 158.517H312.873C313.199 158.515 313.505 158.385 313.734 158.152L328.153 143.504C328.629 143.02 328.622 142.24 328.137 141.765L317.995 131.833C317.764 131.608 317.461 131.484 317.139 131.484ZM312.861 160C312.143 160 311.466 159.724 310.953 159.222L300.811 149.291C299.744 148.245 299.728 146.528 300.776 145.463L315.195 130.814C315.704 130.297 316.386 130.008 317.114 130.001C317.86 129.979 318.528 130.271 319.047 130.779L329.189 140.711C330.256 141.757 330.272 143.474 329.224 144.539L314.805 159.187C314.296 159.705 313.615 159.993 312.887 160H312.861Z" fill="#2A2B2E"/>
<path fill-rule="evenodd" clip-rule="evenodd" d="M304.838 150C304.453 150 304.106 149.729 304.02 149.331C303.92 148.871 304.207 148.417 304.66 148.316L314.981 146.021C315.432 145.917 315.881 146.21 315.98 146.67C316.08 147.13 315.793 147.584 315.34 147.685L305.019 149.98C304.959 149.994 304.898 150 304.838 150Z" fill="#2A2B2E"/>
<path fill-rule="evenodd" clip-rule="evenodd" d="M313.9 149C313.842 149 313.783 148.995 313.725 148.984C313.238 148.896 312.921 148.458 313.017 148.008L315.22 137.671C315.316 137.221 315.788 136.927 316.275 137.016C316.762 137.105 317.079 137.542 316.983 137.993L314.78 148.329C314.696 148.725 314.32 149 313.9 149Z" fill="#2A2B2E"/>
<path fill-rule="evenodd" clip-rule="evenodd" d="M365.056 228.478C365.316 229.177 365.684 229.826 366.195 230.398C367.502 231.862 369.477 232.488 371.353 233.052C372.901 233.517 374.474 233.987 376.09 234C379.289 234.026 382.274 232.272 385.468 232.117C387.632 232.012 389.753 232.646 391.888 233.011C395.917 233.699 399.143 232.064 402.138 229.411C407.444 224.711 407.164 211.503 402.026 203.131C396.598 194.288 388.148 194.754 386.978 187.165C386.304 182.802 389.163 180.983 387.719 176.331C386.963 173.897 384.779 171.804 380.412 167.616C374.425 161.876 371.919 161.004 371.051 160.73C369.578 160.267 366.596 159.376 363.434 160.68C362.484 161.071 360.149 162.035 359.301 164.379C358.411 166.839 359.711 169.29 360.418 170.622C362 173.605 364.016 174.409 365.15 175.808C370.232 182.082 360.653 190.96 362.931 205.131C363.42 208.171 364.631 210.93 365.415 213.88C366.435 217.715 364.85 218.707 364.594 222.153C364.438 224.261 364.341 226.557 365.056 228.478Z" fill="#2A2B2E"/>
<path fill-rule="evenodd" clip-rule="evenodd" d="M335.494 364.592L338 370.026C337.886 370.489 337.632 370.943 337.13 371.512C334.47 374.526 327.265 372.123 325.544 371.55C319.213 369.438 318.411 366.831 312.713 364.835C308.799 363.463 305.278 363.328 303 363.408C303.269 362.853 303.74 361.984 304.605 361.211C305.835 360.111 307.919 359.01 311.34 359C318.18 358.982 335.494 364.592 335.494 364.592Z" fill="#AA4465"/>
<path fill-rule="evenodd" clip-rule="evenodd" d="M314.995 390.717C314.995 390.717 303.99 395.119 304 387.613C304 387.369 313.044 357 313.044 357L326 364.292L314.995 390.717Z" fill="white"/>
<path fill-rule="evenodd" clip-rule="evenodd" d="M303.419 386.025C303.433 387.332 303.822 388.243 304.608 388.808C306.671 390.29 311.097 389.11 312.965 388.416L323.382 363.26L312.003 356.821C309.487 365.319 303.788 384.605 303.419 386.025ZM307.468 391C306.125 391 304.811 390.75 303.806 390.028C302.605 389.166 301.997 387.79 302 385.938C302 385.789 302.001 385.585 310.904 355.521C310.966 355.31 311.117 355.138 311.313 355.055C311.51 354.971 311.732 354.984 311.919 355.09L324.629 362.282C324.952 362.465 325.087 362.874 324.942 363.226L314.146 389.294C314.07 389.476 313.928 389.619 313.75 389.691C313.562 389.766 310.446 391 307.468 391Z" fill="#2A2B2E"/>
<mask id="mask0_0:2440" style="mask-type:alpha" maskUnits="userSpaceOnUse" x="286" y="384" width="30" height="14">
<path fill-rule="evenodd" clip-rule="evenodd" d="M286 384H316V398H286V384Z" fill="white"/>
</mask>
<g mask="url(#mask0_0:2440)">
<path fill-rule="evenodd" clip-rule="evenodd" d="M315.063 398H287.244C286.493 398 285.913 397.357 286.011 396.633L286.218 395.089C286.741 393.721 287.758 392.585 289.079 391.894L304.168 384C304.168 384 309.036 385.006 308.615 389.981C308.615 389.981 311.892 386.914 314.913 389.062C314.913 389.062 316.091 392.886 315.994 397.116C315.983 397.608 315.568 398 315.063 398Z" fill="#AA4465"/>
</g>
<path fill-rule="evenodd" clip-rule="evenodd" d="M295.788 393C295.407 393 295.071 392.722 295.01 392.332C294.942 391.901 295.236 391.496 295.666 391.428C303.132 390.249 307.638 386.244 307.683 386.203C308.006 385.911 308.505 385.937 308.797 386.262C309.089 386.586 309.063 387.086 308.739 387.379C308.543 387.556 303.836 391.74 295.912 392.99C295.871 392.997 295.829 393 295.788 393Z" fill="#2A2B2E"/>
<path fill-rule="evenodd" clip-rule="evenodd" d="M315.249 397H286.751C286.336 397 286 396.776 286 396.5C286 396.224 286.336 396 286.751 396H315.249C315.664 396 316 396.224 316 396.5C316 396.776 315.664 397 315.249 397Z" fill="#2A2B2E"/>
<path fill-rule="evenodd" clip-rule="evenodd" d="M374.26 373.501C376.811 373.001 381.703 372.041 382.784 369.081C383.604 366.838 381.85 364.504 381.451 363.973C376.518 357.41 360.176 355.554 350.923 361.981C346.042 365.371 342.737 371.343 344.464 373.25C345.512 374.409 347.726 373.3 353.136 372.878C363.234 372.093 365.816 375.157 374.26 373.501Z" fill="#AA4465"/>
<path fill-rule="evenodd" clip-rule="evenodd" d="M372.98 359C373.349 359.26 368.562 391.705 368.562 391.705L359 393L359.421 361.742L372.98 359Z" fill="white"/>
<path fill-rule="evenodd" clip-rule="evenodd" d="M358.76 362.093L358.368 391.383L366.431 390.282C368.038 379.286 370.272 363.494 370.629 359.673L358.76 362.093ZM357.678 393C357.512 393 357.35 392.931 357.225 392.805C357.079 392.659 356.997 392.449 357 392.23L357.411 361.447C357.416 361.085 357.649 360.777 357.968 360.712L371.213 358.013C371.381 357.978 371.555 358.016 371.699 358.118C372.219 358.488 372.299 358.545 369.982 375.076C368.871 383.006 367.7 391.008 367.688 391.088C367.639 391.421 367.4 391.678 367.101 391.719L357.76 392.994C357.733 392.998 357.706 393 357.678 393Z" fill="#2A2B2E"/>
<mask id="mask1_0:2440" style="mask-type:alpha" maskUnits="userSpaceOnUse" x="340" y="385" width="28" height="13">
<path fill-rule="evenodd" clip-rule="evenodd" d="M340 385H368V398H340V385Z" fill="white"/>
</mask>
<g mask="url(#mask1_0:2440)">
<path fill-rule="evenodd" clip-rule="evenodd" d="M340 398H367.679C367.679 398 368.699 390.812 367.104 387.612L366.242 388.625C365.795 389.149 365.027 389.191 364.528 388.722C363.427 387.687 361.495 386 359.826 385.204C356.586 383.658 345.739 391.328 341.585 393.93C340.6 394.547 340 395.657 340 396.857V398Z" fill="#AA4465"/>
</g>
<path fill-rule="evenodd" clip-rule="evenodd" d="M367.277 397H341.723C341.324 397 341 396.776 341 396.5C341 396.224 341.324 396 341.723 396H367.277C367.676 396 368 396.224 368 396.5C368 396.776 367.676 397 367.277 397Z" fill="#2A2B2E"/>
<path fill-rule="evenodd" clip-rule="evenodd" d="M352.852 393C352.541 393 352.242 392.813 352.092 392.49C351.88 392.031 352.047 391.472 352.467 391.24L361.765 386.1C362.184 385.87 362.696 386.051 362.908 386.51C363.12 386.969 362.953 387.528 362.533 387.76L353.235 392.9C353.112 392.968 352.981 393 352.852 393Z" fill="#2A2B2E"/>
<path fill-rule="evenodd" clip-rule="evenodd" d="M304 364.439C309.326 347.442 314.702 330.458 320.13 313.486C327.445 290.611 334.848 267.77 342.341 244.961C353.977 246.334 379.962 237.452 377.249 249.079C375.904 254.844 376.029 256.118 376.173 258.263C377.297 275.026 379.043 287.009 378.987 291.201C378.937 294.918 378.794 306.084 379.043 321.351C379.083 323.844 379.152 326.503 379.265 329.709C379.834 345.841 380.909 349.776 380.994 362.915C381.007 364.762 380.998 366.55 380.976 368.289C375.054 367.123 368.289 366.798 361.116 368.427C355.442 369.716 354.801 371.026 349.694 371.72C348.015 371.948 346.445 372.027 344.953 371.992C349.143 315.845 348.833 302.968 348.833 302.968C347.241 315.439 345.261 328.455 342.813 341.952C341.015 351.864 339.067 361.44 337.014 370.686C330.969 368.89 325.669 365.742 318.452 364.403C314.683 363.703 309.87 363.405 304 364.439Z" fill="#2A2B2E"/>
<path fill-rule="evenodd" clip-rule="evenodd" d="M349.534 301C349.527 301 349.52 301 349.514 301C349.112 300.988 348.796 300.646 348.807 300.234L349.536 272.642L346.314 270.36C345.984 270.126 345.901 269.661 346.129 269.322C346.357 268.984 346.81 268.898 347.14 269.132L350.686 271.644C350.888 271.788 351.007 272.026 351 272.279L350.26 300.274C350.249 300.679 349.926 301 349.534 301Z" fill="#E6E8E6"/>
<path fill-rule="evenodd" clip-rule="evenodd" d="M380.287 219.247C385.016 213.831 389.745 208.416 394.473 203C396.689 210.119 403.13 227.48 400.289 248.113C398.115 263.895 381.351 273.871 376.822 279C375.706 277.725 374.775 276.245 374 274.664C375.322 272.243 377.304 268.616 379.726 264.207C384.363 255.766 385.282 254.157 385.674 253.4C388.357 248.202 389.11 238.601 380.287 219.247Z" fill="#AA4465"/>
<path fill-rule="evenodd" clip-rule="evenodd" d="M378.886 253.057C375.594 255.359 373.195 253.018 359.246 250.621C347.822 248.658 343.014 249.125 339.628 244.844C337.763 242.485 337.189 239.771 337 237.833C338.226 231.942 339.429 225.987 340.607 219.97C342.229 211.692 343.764 203.504 345.217 195.409C353.335 194.694 360.242 195.024 365.474 195.579C372.299 196.303 377.465 197.536 379.578 198.073C384.746 199.386 389.18 200.973 393 202.53C389.121 208.236 385.242 213.941 381.362 219.647C382.592 223.62 384.057 230 383.561 237.836C383.139 244.493 382.769 250.342 378.886 253.057Z" fill="#AA4465"/>
<path fill-rule="evenodd" clip-rule="evenodd" d="M316.547 193.318C317.122 195.371 318.187 198.349 320.255 201.512C322.167 204.439 326.243 210.675 331.182 210.822C336.278 210.973 340.001 200.314 346.483 194.676C347.318 195.431 352.136 202.755 350.752 211.693C349.151 222.033 336.862 228.194 328.384 226.806C317.815 225.076 308.254 210.806 311.725 193L316.547 193.318Z" fill="#AA4465"/>
<path fill-rule="evenodd" clip-rule="evenodd" d="M317.639 187.63L314.978 179.832C314.793 179.291 314.195 178.944 313.557 179.008C312.833 179.08 312.312 179.652 312.388 180.29L312.769 183.488L309.242 185.98C308.156 186.748 307.729 188.03 308.174 189.191L309.348 192.264C309.937 193.802 311.536 194.866 313.378 194.944L314.617 194.995C316.525 195.076 318.282 194.082 318.99 192.52L319.824 190.679C320.348 189.524 319.659 188.221 318.319 187.829L317.639 187.63Z" fill="white"/>
<path fill-rule="evenodd" clip-rule="evenodd" d="M313.22 180.427C313.2 180.427 313.18 180.429 313.16 180.431C312.878 180.461 312.672 180.705 312.701 180.975L313.067 184.288C313.094 184.529 312.99 184.767 312.791 184.919L309.41 187.5C308.618 188.105 308.303 189.127 308.628 190.042L309.754 193.226C310.222 194.55 311.472 195.448 312.94 195.515L314.127 195.569C315.643 195.636 317.025 194.787 317.585 193.453L318.385 191.546C318.55 191.152 318.538 190.724 318.349 190.339C318.161 189.955 317.825 189.669 317.403 189.535L316.751 189.33C316.518 189.257 316.338 189.081 316.268 188.858L313.718 180.78C313.651 180.569 313.447 180.427 313.22 180.427ZM314.298 197C314.217 197 314.137 196.998 314.055 196.994L312.868 196.941C310.778 196.845 308.997 195.566 308.33 193.68L307.204 190.497C306.68 189.017 307.189 187.365 308.469 186.387L311.531 184.05L311.208 181.124C311.092 180.078 311.892 179.131 312.991 179.013C313.963 178.906 314.875 179.479 315.157 180.37L317.595 188.092L317.876 188.181C318.684 188.437 319.353 189.004 319.712 189.737C320.07 190.471 320.096 191.323 319.78 192.075L318.98 193.982C318.213 195.81 316.351 197 314.298 197Z" fill="#2A2B2E"/>
<path fill-rule="evenodd" clip-rule="evenodd" d="M317 187L314.045 187.413C314.045 187.413 313.608 190.05 315.469 189.999L317 187Z" fill="white"/>
<path fill-rule="evenodd" clip-rule="evenodd" d="M315.408 190C314.487 190 313.941 189.653 313.642 189.357C312.764 188.486 313.03 187.095 313.064 186.94C313.129 186.634 313.419 186.4 313.782 186.361L317.056 186.006C317.512 185.957 317.935 186.232 317.993 186.621C318.052 187.011 317.727 187.367 317.269 187.417L314.677 187.698C314.687 187.973 314.748 188.269 314.915 188.433C314.958 188.475 315.066 188.588 315.445 188.577C315.906 188.573 316.292 188.878 316.304 189.27C316.315 189.663 315.95 189.989 315.487 190C315.461 190 315.434 190 315.408 190Z" fill="#2A2B2E"/>
<path fill-rule="evenodd" clip-rule="evenodd" d="M311 183L312 187L311 183Z" fill="white"/>
<path fill-rule="evenodd" clip-rule="evenodd" d="M311.984 189C311.498 189 311.069 188.683 310.984 188.235L310.015 183.074C309.92 182.573 310.292 182.098 310.845 182.013C311.399 181.929 311.922 182.265 312.016 182.765L312.985 187.926C313.08 188.427 312.708 188.902 312.155 188.987C312.098 188.996 312.04 189 311.984 189Z" fill="#2A2B2E"/>
<path fill-rule="evenodd" clip-rule="evenodd" d="M308.95 185L309.05 189L308.95 185Z" fill="white"/>
<path fill-rule="evenodd" clip-rule="evenodd" d="M309.929 188C309.422 188 308.971 187.738 308.878 187.363L308.017 183.911C307.912 183.49 308.298 183.088 308.88 183.011C309.462 182.939 310.017 183.216 310.122 183.636L310.983 187.088C311.088 187.509 310.701 187.912 310.12 187.988C310.056 187.996 309.992 188 309.929 188Z" fill="#2A2B2E"/>
<path fill-rule="evenodd" clip-rule="evenodd" d="M339.775 223C339.718 223 339.661 222.995 339.603 222.983C339.186 222.898 338.925 222.528 339.019 222.154L342.471 208.54C342.565 208.166 342.981 207.932 343.397 208.018C343.814 208.102 344.075 208.473 343.981 208.846L340.529 222.461C340.448 222.782 340.129 223 339.775 223Z" fill="#2A2B2E"/>
<path fill-rule="evenodd" clip-rule="evenodd" d="M380.202 282C380.102 282 380 281.983 379.902 281.946C368.484 277.667 370.037 255.621 370.109 254.685C370.14 254.28 370.515 253.967 370.961 254.003C371.4 254.032 371.731 254.383 371.7 254.788C371.683 255.007 370.152 276.705 380.503 280.583C380.911 280.737 381.107 281.166 380.941 281.542C380.815 281.827 380.517 282 380.202 282Z" fill="#E6E8E6"/>
<path fill-rule="evenodd" clip-rule="evenodd" d="M357.206 195.148C360.22 194.642 362.381 191.892 362.221 188.765L361.974 183.909C359.115 183.68 356.735 182.283 356.742 181.355C356.745 180.904 357.795 176.491 358.451 174.666C357.897 174.204 357.223 172.93 358.417 172.15C359.61 171.371 362.291 166.405 362.291 166.405C365.599 162.463 366.555 168.019 369.026 168.482C370.736 168.803 371.664 169.87 371.018 172.163C370.372 174.456 371.601 173.306 372.86 172.652C374.118 171.998 374.974 172.507 374.283 174.591C373.593 176.676 371.076 177.928 371.076 177.928L369.884 180.329L372.398 192.136C372.873 194.368 374.437 196.191 376.536 196.959L380 198.225L361.793 208L353 195.854L357.206 195.148Z" fill="white"/>
<path fill-rule="evenodd" clip-rule="evenodd" d="M355.043 197.066L362.591 207.312L378.438 198.951L376.614 198.296C374.298 197.463 372.602 195.52 372.077 193.099L369.607 181.699C369.571 181.532 369.593 181.358 369.67 181.206L370.842 178.887C370.914 178.744 371.031 178.628 371.175 178.557C371.196 178.547 373.382 177.453 373.952 175.763C374.196 175.038 374.162 174.714 374.137 174.609C374.053 174.61 373.867 174.642 373.581 174.788C373.37 174.896 373.16 175.019 372.96 175.135C372.219 175.568 371.518 175.976 370.923 175.508C370.364 175.069 370.502 174.26 370.733 173.451C370.974 172.614 370.966 171.98 370.712 171.567C370.488 171.203 370.03 170.955 369.349 170.829C368.222 170.621 367.418 169.682 366.708 168.851C366.105 168.146 365.535 167.479 364.991 167.479H364.991C364.589 167.48 364.064 167.84 363.47 168.523C362.936 169.489 360.687 173.475 359.452 174.268C359.154 174.459 359.145 174.627 359.141 174.691C359.126 174.959 359.343 175.326 359.555 175.5C359.798 175.7 359.888 176.033 359.78 176.329C359.169 177.999 358.229 181.896 358.15 182.517C358.344 182.974 360.16 184.068 362.61 184.261C362.977 184.29 363.267 184.589 363.286 184.959L363.529 189.649C363.705 193.05 361.323 196.03 357.986 196.58H357.986L355.043 197.066ZM362.376 209C362.149 209 361.928 208.894 361.785 208.701L353.145 196.972C352.992 196.765 352.958 196.493 353.054 196.254C353.15 196.015 353.363 195.844 353.616 195.802L357.749 195.121C360.345 194.692 362.199 192.373 362.061 189.726L361.851 185.665C359.277 185.305 356.665 184.022 356.677 182.527C356.682 181.944 357.618 178.169 358.249 176.259C357.902 175.821 357.638 175.223 357.674 174.605C357.7 174.155 357.893 173.514 358.662 173.021C359.363 172.571 361.165 169.661 362.221 167.739C362.246 167.695 362.275 167.653 362.307 167.615C363.234 166.529 364.112 166 364.991 166H364.991C366.209 166 367.066 167.002 367.822 167.886C368.4 168.562 368.997 169.261 369.614 169.374C370.72 169.578 371.509 170.054 371.961 170.788C372.444 171.572 372.505 172.606 372.145 173.862C372.141 173.878 372.136 173.894 372.132 173.909C372.164 173.89 372.195 173.872 372.224 173.855C372.446 173.725 372.681 173.589 372.916 173.469C374.114 172.857 374.803 173.209 375.106 173.475C375.706 173.997 375.785 174.928 375.344 176.239C374.698 178.155 372.724 179.39 372.046 179.767L371.098 181.642L373.513 192.785C373.929 194.703 375.272 196.243 377.109 196.903L380.512 198.125C380.787 198.224 380.978 198.477 380.998 198.771C381.018 199.063 380.865 199.341 380.606 199.477L362.716 208.915C362.608 208.973 362.491 209 362.376 209Z" fill="#2A2B2E"/>
<path fill-rule="evenodd" clip-rule="evenodd" d="M362.067 187C361.628 187 361.162 186.952 360.668 186.843C360.201 186.741 359.913 186.309 360.024 185.879C360.135 185.449 360.603 185.181 361.071 185.286C364.023 185.931 365.292 183.559 365.345 183.457C365.551 183.06 366.067 182.887 366.5 183.077C366.933 183.265 367.121 183.737 366.919 184.136C366.369 185.226 364.722 187 362.067 187Z" fill="#2A2B2E"/>
<path fill-rule="evenodd" clip-rule="evenodd" d="M282.356 215.481C282.346 216.114 282.851 216.636 283.481 216.646C283.778 216.642 284.075 216.537 284.295 216.324C284.515 216.111 284.639 215.825 284.644 215.519C284.654 214.886 284.149 214.364 283.518 214.353C282.888 214.32 282.366 214.849 282.356 215.481ZM283.501 218C283.487 218 283.473 218 283.459 218C282.081 217.977 280.978 216.837 281 215.459C281.023 214.081 282.151 212.988 283.541 213C284.92 213.023 286.022 214.163 286 215.541C285.989 216.208 285.719 216.831 285.239 217.295C284.769 217.751 284.154 218 283.501 218Z" fill="white"/>
<path fill-rule="evenodd" clip-rule="evenodd" d="M22.5001 143C22.2237 143 22 142.681 22 142.289V139.711C22 139.319 22.2237 139 22.5001 139C22.7763 139 23 139.319 23 139.711V142.289C23 142.681 22.7763 143 22.5001 143Z" fill="#2A2B2E"/>
<path fill-rule="evenodd" clip-rule="evenodd" d="M22.5001 149C22.2237 149 22 148.681 22 148.288V145.711C22 145.319 22.2237 145 22.5001 145C22.7763 145 23 145.319 23 145.711V148.288C23 148.681 22.7763 149 22.5001 149Z" fill="#2A2B2E"/>
<path fill-rule="evenodd" clip-rule="evenodd" d="M22.2873 145H19.7129C19.3192 145 19 144.776 19 144.5C19 144.224 19.3192 144 19.7129 144H22.2873C22.681 144 23 144.224 23 144.5C23 144.776 22.681 145 22.2873 145Z" fill="#2A2B2E"/>
<path fill-rule="evenodd" clip-rule="evenodd" d="M27.2873 145H24.7129C24.3192 145 24 144.776 24 144.5C24 144.224 24.3192 144 24.7129 144H27.2873C27.681 144 28 144.224 28 144.5C28 144.776 27.681 145 27.2873 145Z" fill="#2A2B2E"/>
<path fill-rule="evenodd" clip-rule="evenodd" d="M301.9 242C301.676 242 301.452 241.919 301.278 241.757C300.918 241.421 300.906 240.865 301.25 240.515L303.45 238.271C303.793 237.92 304.364 237.908 304.722 238.244C305.081 238.58 305.094 239.135 304.75 239.486L302.55 241.729C302.373 241.909 302.137 242 301.9 242Z" fill="#2A2B2E"/>
<path fill-rule="evenodd" clip-rule="evenodd" d="M294.9 246C294.676 246 294.452 245.92 294.278 245.757C293.919 245.421 293.906 244.865 294.25 244.515L296.45 242.271C296.794 241.921 297.364 241.908 297.722 242.244C298.081 242.579 298.094 243.135 297.75 243.486L295.55 245.729C295.373 245.909 295.137 246 294.9 246Z" fill="#2A2B2E"/>
<path fill-rule="evenodd" clip-rule="evenodd" d="M297.107 242C296.881 242 296.655 241.914 296.481 241.741L294.266 239.541C293.915 239.192 293.911 238.622 294.257 238.268C294.603 237.915 295.168 237.91 295.519 238.259L297.734 240.459C298.085 240.808 298.089 241.378 297.743 241.732C297.569 241.91 297.338 242 297.107 242Z" fill="#2A2B2E"/>
<path fill-rule="evenodd" clip-rule="evenodd" d="M304.108 246C303.881 246 303.655 245.914 303.481 245.741L301.266 243.541C300.915 243.192 300.911 242.622 301.256 242.269C301.603 241.914 302.167 241.91 302.519 242.259L304.734 244.459C305.085 244.808 305.089 245.378 304.743 245.732C304.569 245.911 304.338 246 304.108 246Z" fill="#2A2B2E"/>
<path fill-rule="evenodd" clip-rule="evenodd" d="M90.8999 4C90.6762 4 90.4522 3.91928 90.2775 3.75627C89.9185 3.42096 89.9063 2.86495 90.2499 2.51457L92.4501 0.271467C92.7935 -0.0797124 93.3635 -0.0916212 93.7223 0.244209C94.0814 0.579509 94.0939 1.13552 93.7502 1.48591L91.55 3.72901C91.3735 3.90896 91.1367 4 90.8999 4Z" fill="#2A2B2E"/>
<path fill-rule="evenodd" clip-rule="evenodd" d="M83.9002 11C83.6764 11 83.4524 10.9193 83.2778 10.7566C82.9187 10.421 82.906 9.86534 83.2499 9.51473L85.4495 7.27134C85.7934 6.92046 86.3626 6.90829 86.7222 7.24409C87.0812 7.57935 87.094 8.1353 86.7504 8.48565L84.5502 10.7293C84.3734 10.909 84.1369 11 83.9002 11Z" fill="#2A2B2E"/>
<path fill-rule="evenodd" clip-rule="evenodd" d="M86.1075 4C85.8813 4 85.6551 3.91377 85.4811 3.74103L83.2663 1.54098C82.9151 1.19225 82.9108 0.622235 83.2564 0.268351C83.603 -0.0860757 84.1676 -0.089601 84.5188 0.25886L86.7339 2.45891C87.0849 2.80764 87.0892 3.37765 86.7436 3.73154C86.5688 3.91024 86.338 4 86.1075 4Z" fill="#2A2B2E"/>
<path fill-rule="evenodd" clip-rule="evenodd" d="M93.1077 11C92.8812 11 92.655 10.914 92.4813 10.741L90.2662 8.5409C89.9152 8.19215 89.9107 7.62212 90.2563 7.26823C90.6029 6.9146 91.1675 6.90972 91.519 7.25901L93.7341 9.45886C94.085 9.80787 94.0891 10.3776 93.7435 10.7318C93.5686 10.9102 93.3382 11 93.1077 11Z" fill="#2A2B2E"/>
<path fill-rule="evenodd" clip-rule="evenodd" d="M358.518 16C358.257 16 358.042 15.6868 358.037 15.293L358 12.7383C357.994 12.3395 358.205 12.0093 358.471 12.0003C358.732 11.9881 358.957 12.3084 358.963 12.7074L359 15.2618C359.006 15.6606 358.795 15.9909 358.529 16H358.518Z" fill="#2A2B2E"/>
<path fill-rule="evenodd" clip-rule="evenodd" d="M358.518 24C358.257 24 358.043 23.6869 358.037 23.293L358 20.7381C357.994 20.3393 358.205 20.009 358.471 20C358.737 19.9961 358.957 20.3077 358.963 20.707L359 23.2619C359.006 23.6608 358.795 23.9911 358.529 24H358.518Z" fill="#2A2B2E"/>
<path fill-rule="evenodd" clip-rule="evenodd" d="M352.729 18C352.329 18 352.003 17.7815 352 17.5106C351.997 17.2384 352.321 17.0159 352.724 17.0135L355.265 17H355.271C355.671 17 355.997 17.2183 356 17.4894C356.003 17.7616 355.679 17.9842 355.276 17.9865L352.735 18H352.729Z" fill="#2A2B2E"/>
<path fill-rule="evenodd" clip-rule="evenodd" d="M361.729 18C361.329 18 361.003 17.7817 361 17.5107C360.997 17.2383 361.321 17.0158 361.724 17.0135L364.264 17H364.271C364.671 17 364.997 17.2183 365 17.4893C365.003 17.7617 364.679 17.9844 364.276 17.9865L361.735 18H361.729Z" fill="#2A2B2E"/>
<path fill-rule="evenodd" clip-rule="evenodd" d="M19 27H3.72439C1.40125 27 -0.252192 28.9029 0.0317229 31.2502L9.51564 109.75C9.79933 112.097 11.9123 114 14.2355 114H19V27Z" fill="#AA4465"/>
<path fill-rule="evenodd" clip-rule="evenodd" d="M100.229 114H18.4125C16.0603 114 13.921 112.097 13.634 109.75L4.03207 31.2502C3.74485 28.9029 5.41884 27 7.77084 27H89.5875C91.9393 27 94.0788 28.9029 94.366 31.2502L103.968 109.75C104.255 112.097 102.581 114 100.229 114Z" fill="white"/>
<path fill-rule="evenodd" clip-rule="evenodd" d="M95 41H5.34497L4.03183 30.9488C3.74677 28.7679 5.40817 27 7.7425 27H88.9441C91.2782 27 93.4016 28.7679 93.6866 30.9488L95 41Z" fill="#2A2B2E"/>
<path fill-rule="evenodd" clip-rule="evenodd" d="M7.44884 28.4904C6.54901 28.4904 5.74794 28.8406 5.19386 29.4767C4.62984 30.1235 4.38086 30.9949 4.49287 31.93L13.954 110.89C14.193 112.886 15.9785 114.51 17.9346 114.51H98.551C99.451 114.51 100.252 114.16 100.806 113.524C101.37 112.877 101.619 112.005 101.507 111.071L92.046 32.1106C91.807 30.1143 90.0213 28.4904 88.0654 28.4904H7.44884ZM98.5509 116H17.9346C15.2627 116 12.8242 113.788 12.4983 111.071L3.03741 32.1106C2.87393 30.7455 3.24972 29.4594 4.09609 28.4884C4.93229 27.529 6.12307 27 7.44884 27H88.0654C90.7373 27 93.1758 29.2118 93.5015 31.93L102.963 110.89C103.126 112.255 102.75 113.541 101.904 114.512C101.068 115.471 99.8769 116 98.5509 116Z" fill="#2A2B2E"/>
<path fill-rule="evenodd" clip-rule="evenodd" d="M31.0547 85H21.6409C20.4276 85 19.3238 84.0084 19.1757 82.7857L18.0165 73.2143C17.8685 71.9913 18.7318 71 19.9453 71H29.3591C30.5725 71 31.676 71.9913 31.8242 73.2143L32.9834 82.7857C33.1317 84.0084 32.2682 85 31.0547 85Z" fill="#E6E8E6"/>
<path fill-rule="evenodd" clip-rule="evenodd" d="M50.0547 85H40.6409C39.4276 85 38.3238 84.0084 38.1757 82.7857L37.0165 73.2143C36.8685 71.9913 37.7318 71 38.9453 71H48.3591C49.5725 71 50.676 71.9913 50.8242 73.2143L51.9834 82.7857C52.1317 84.0084 51.2679 85 50.0547 85Z" fill="#E6E8E6"/>
<path fill-rule="evenodd" clip-rule="evenodd" d="M69.0545 85H59.6408C58.4274 85 57.3237 84.0084 57.1757 82.7857L56.0165 73.2143C55.8685 71.9913 56.7318 71 57.9453 71H67.3589C68.5724 71 69.6758 71.9913 69.8241 73.2143L70.9835 82.7857C71.1315 84.0084 70.268 85 69.0545 85Z" fill="#E6E8E6"/>
<path fill-rule="evenodd" clip-rule="evenodd" d="M89.0547 85H79.6409C78.4274 85 77.3238 84.0084 77.1757 82.7857L76.0165 73.2143C75.8685 71.9913 76.7318 71 77.9453 71H87.3591C88.5726 71 89.676 71.9913 89.8243 73.2143L90.9835 82.7857C91.1315 84.0084 90.2682 85 89.0547 85Z" fill="#E6E8E6"/>
<path fill-rule="evenodd" clip-rule="evenodd" d="M34.0547 104H24.6409C23.4274 104 22.3238 103.008 22.1757 101.786L21.0165 92.2143C20.8685 90.9913 21.7316 90 22.9453 90H32.3591C33.5724 90 34.676 90.9913 34.8243 92.2143L35.9835 101.786C36.1315 103.008 35.268 104 34.0547 104Z" fill="#E6E8E6"/>
<path fill-rule="evenodd" clip-rule="evenodd" d="M53.0547 104H43.6411C42.4276 104 41.324 103.008 41.1759 101.786L40.0165 92.2143C39.8685 90.9913 40.7318 90 41.9455 90H51.3592C52.5724 90 53.676 90.9913 53.8243 92.2143L54.9835 101.786C55.1315 103.008 54.268 104 53.0547 104Z" fill="#E6E8E6"/>
<path fill-rule="evenodd" clip-rule="evenodd" d="M71.0547 104H61.6408C60.4276 104 59.324 103.008 59.1759 101.786L58.0165 92.2143C57.8685 90.9913 58.7318 90 59.9455 90H69.3592C70.5724 90 71.676 90.9913 71.8243 92.2143L72.9835 101.786C73.1315 103.008 72.268 104 71.0547 104Z" fill="#E6E8E6"/>
<path fill-rule="evenodd" clip-rule="evenodd" d="M30.0547 65H20.6408C19.4276 65 18.324 64.0086 18.1757 62.7856L17.0165 53.2144C16.8685 51.9914 17.7318 51 18.9453 51H28.3592C29.5724 51 30.676 51.9914 30.8243 53.2144L31.9835 62.7856C32.1315 64.0086 31.268 65 30.0547 65Z" fill="#E6E8E6"/>
<path fill-rule="evenodd" clip-rule="evenodd" d="M48.0547 65H38.6408C37.4276 65 36.324 64.0086 36.1757 62.7856L35.0165 53.2144C34.8685 51.9914 35.7318 51 36.9453 51H46.3592C47.5724 51 48.676 51.9914 48.8243 53.2144L49.9835 62.7856C50.1315 64.0086 49.268 65 48.0547 65Z" fill="#AA4465"/>
<path fill-rule="evenodd" clip-rule="evenodd" d="M67.0547 65H57.6408C56.4276 65 55.3237 64.0086 55.1757 62.7856L54.0165 53.2144C53.8685 51.9914 54.7318 51 55.9453 51H65.3592C66.5724 51 67.6758 51.9914 67.8243 53.2144L68.9835 62.7856C69.1315 64.0086 68.268 65 67.0547 65Z" fill="#E6E8E6"/>
<path fill-rule="evenodd" clip-rule="evenodd" d="M87.0547 65H77.6408C76.4276 65 75.3237 64.0086 75.1757 62.7856L74.0165 53.2144C73.8685 51.9914 74.7318 51 75.9453 51H85.3592C86.5724 51 87.6758 51.9914 87.8243 53.2144L88.9835 62.7856C89.1315 64.0086 88.268 65 87.0547 65Z" fill="#E6E8E6"/>
<path fill-rule="evenodd" clip-rule="evenodd" d="M78.8281 36C78.3719 36 78.0012 35.6988 78 35.3258C77.999 34.9527 78.3684 34.649 78.8261 34.6482C82.9749 34.6392 86.7695 31.8367 87.2851 28.3998C87.5329 26.7459 86.9844 25.2052 85.7405 24.0616C84.5414 22.9588 82.8221 22.3518 80.8982 22.3518C80.7377 22.351 80.5805 22.3559 80.4218 22.3643C79.9673 22.3903 79.5715 22.1054 79.5421 21.7326C79.5129 21.3605 79.8593 21.0387 80.3155 21.0151C80.5084 21.0049 80.7075 21 80.898 21C83.3028 21 85.461 21.7679 86.9794 23.1641C88.5432 24.6023 89.2355 26.5198 88.929 28.5642C88.3158 32.6537 83.7852 35.9894 78.8303 36H78.8281Z" fill="#AA4465"/>
<path fill-rule="evenodd" clip-rule="evenodd" d="M67.8281 36C67.3716 36 67.001 35.6988 67 35.3258C66.9988 34.9527 67.3684 34.649 67.8258 34.6482C71.9744 34.6392 75.7691 31.8366 76.2847 28.4002C76.5328 26.7465 75.9845 25.2059 74.7409 24.0623C73.5417 22.9592 71.8214 22.3522 69.8968 22.3522C69.739 22.3514 69.5796 22.3567 69.4216 22.3646C68.9646 22.386 68.5715 22.1058 68.5416 21.733C68.5126 21.3607 68.8588 21.0391 69.3153 21.0155C69.5082 21.0053 69.7086 20.9988 69.8965 21.0002C72.3021 21.0002 74.4614 21.7687 75.9798 23.1649C77.5433 24.603 78.2356 26.5205 77.9289 28.5648C77.3155 32.6538 72.7853 35.9894 67.8303 36H67.8281Z" fill="#AA4465"/>
<path fill-rule="evenodd" clip-rule="evenodd" d="M56.8281 36C56.3716 36 56.0013 35.6988 56 35.3258C55.9985 34.9527 56.3684 34.649 56.8258 34.6482C60.9745 34.6388 64.7693 31.8363 65.2849 28.3998C65.533 26.7459 64.9847 25.2052 63.7408 24.0616C62.5414 22.9588 60.822 22.3518 58.8978 22.3518C58.7358 22.3529 58.5789 22.3559 58.4216 22.3643C57.9682 22.3863 57.5711 22.105 57.5416 21.7326C57.5124 21.3605 57.8588 21.0387 58.3153 21.0151C58.5097 21.0049 58.7036 21.0031 58.9003 21C61.3025 21 63.4615 21.7679 64.9797 23.1641C66.5435 24.6023 67.2356 26.5202 66.9289 28.5642C66.3157 32.6533 61.7854 35.989 56.8303 36H56.8281Z" fill="#AA4465"/>
<path fill-rule="evenodd" clip-rule="evenodd" d="M45.8281 36C45.3719 36 45.0012 35.6988 45 35.3258C44.999 34.9527 45.3684 34.649 45.8261 34.6482C49.9748 34.6393 53.7692 31.8369 54.285 28.4004C54.5328 26.7468 53.9846 25.2062 52.7412 24.0626C51.5376 22.9554 49.8313 22.3601 47.8777 22.3526C47.7255 22.353 47.5733 22.357 47.4218 22.365C46.9653 22.3882 46.5715 22.1057 46.5421 21.7334C46.5129 21.3613 46.8593 21.0395 47.3155 21.0159C47.5084 21.0057 47.7038 20.9977 47.8967 21.0006C50.3025 21.0006 52.4615 21.769 53.9801 23.1652C55.5433 24.6033 56.2356 26.5207 55.9289 28.5652C55.3157 32.6539 50.7851 35.9894 45.8303 36H45.8281Z" fill="#AA4465"/>
<path fill-rule="evenodd" clip-rule="evenodd" d="M35.8281 36C35.3716 36 35.0013 35.6988 35 35.3258C34.9985 34.9527 35.3684 34.649 35.8258 34.6482C39.9749 34.6388 43.7693 31.8364 44.2849 28.4C44.5327 26.7465 43.9844 25.2055 42.7405 24.0619C41.5411 22.9588 39.8216 22.3518 37.897 22.3518C37.7422 22.354 37.578 22.3563 37.419 22.3642C36.9603 22.387 36.5698 22.1033 36.5418 21.7304C36.5141 21.3581 36.8618 21.0375 37.3182 21.0151C37.5104 21.0053 37.7135 21.0004 37.8967 21C40.302 21 42.4613 21.7683 43.9796 23.1645C45.5432 24.6026 46.2355 26.5205 45.929 28.5646C45.3156 32.6534 40.7852 35.989 35.8303 36H35.8281Z" fill="#AA4465"/>
<path fill-rule="evenodd" clip-rule="evenodd" d="M21.8281 36C21.3716 36 21.001 35.6988 21 35.3258C20.9988 34.9527 21.3684 34.649 21.8258 34.6482C25.9745 34.6394 29.7693 31.8364 30.2849 28.3999C30.533 26.746 29.9847 25.2054 28.7408 24.0618C27.5371 22.955 25.8353 22.3407 23.8774 22.3521C23.7251 22.3525 23.5729 22.3565 23.4211 22.3645C22.9662 22.3891 22.5708 22.1056 22.5416 21.7329C22.5124 21.3608 22.8591 21.0392 23.3156 21.0153C23.509 21.0051 23.7119 20.9986 23.8976 21.0002C26.3025 21.0002 28.4615 21.7681 29.9797 23.1643C31.5435 24.6025 32.2356 26.5204 31.9289 28.5643C31.3157 32.6538 26.7854 35.9894 21.8303 36H21.8281Z" fill="#AA4465"/>
<path fill-rule="evenodd" clip-rule="evenodd" d="M13.35 36C12.9621 36 12.6469 35.6986 12.6458 35.3256C12.645 34.9525 12.9591 34.649 13.3483 34.648C16.8762 34.6392 20.1029 31.8362 20.5414 28.3997C20.7523 26.7458 20.2861 25.2054 19.2283 24.0617C18.2086 22.9588 16.7465 22.3518 15.1102 22.3518H15.0928C12.8661 22.3573 10.6904 23.47 9.27247 25.3284C9.04263 25.629 8.60162 25.695 8.28816 25.474C7.97427 25.2536 7.90636 24.8308 8.1362 24.5294C9.81726 22.326 12.4169 21.0067 15.089 21H15.1105C17.1551 21 18.9908 21.7681 20.2818 23.1643C21.6116 24.6025 22.2004 26.5201 21.9395 28.5643C21.4181 32.6537 17.5655 35.9894 13.3519 36H13.35Z" fill="#AA4465"/>
<path fill-rule="evenodd" clip-rule="evenodd" d="M22.6027 381H98.7768C103.35 381 106.771 376.859 105.849 372.44L94.2928 317.007C93.3208 312.345 89.162 309 84.3386 309H19L22.6027 381Z" fill="white"/>
<path fill-rule="evenodd" clip-rule="evenodd" d="M24.0803 379.549H99.9894C101.952 379.549 103.791 378.699 105.034 377.218C106.282 375.73 106.77 373.797 106.373 371.914L94.7486 316.828C93.8464 312.553 89.9427 309.451 85.4669 309.451H20.5298L24.0803 379.549ZM99.9894 381H23.3702C22.9723 381 22.6445 380.697 22.6249 380.31L19.0009 308.761C18.9908 308.563 19.0648 308.369 19.2057 308.225C19.3467 308.081 19.542 308 19.7461 308H85.4669C90.6477 308 95.166 311.59 96.21 316.536L107.834 371.622C108.322 373.934 107.723 376.307 106.19 378.135C104.663 379.956 102.403 381 99.9894 381Z" fill="#2A2B2E"/>
<path fill-rule="evenodd" clip-rule="evenodd" d="M12.906 381H27.7478C32.3391 381 35.7739 376.859 34.8487 372.44L22.0689 311.385C21.7783 309.997 20.5349 309 19.0927 309H15.276C13.6936 309 12.3762 310.194 12.2474 311.743L7.01996 374.724C6.73925 378.104 9.45507 381 12.906 381Z" fill="#AA4465"/>
<path fill-rule="evenodd" clip-rule="evenodd" d="M15.1769 309.451C13.9709 309.451 12.949 310.355 12.8511 311.51L7.53272 374.097C7.4115 375.52 7.90094 376.882 8.91065 377.93C9.9158 378.974 11.2848 379.549 12.7657 379.549H27.8651C29.8585 379.549 31.7256 378.699 32.9878 377.218C34.2551 375.73 34.7507 373.797 34.3475 371.914L21.3454 311.241C21.1233 310.204 20.162 309.451 19.0601 309.451H15.1769ZM27.8651 381H12.7657C10.8844 381 9.07342 380.239 7.79661 378.913C6.51593 377.583 5.86896 375.784 6.02214 373.979L11.341 311.393C11.5024 309.49 13.1874 308 15.1769 308H19.0601C20.8784 308 22.4636 309.24 22.8295 310.949L35.8316 371.622C36.3268 373.934 35.7181 376.307 34.1619 378.135C32.6109 379.956 30.3155 381 27.8651 381Z" fill="#2A2B2E"/>
<path fill-rule="evenodd" clip-rule="evenodd" d="M93.2489 339H32.8363C30.6873 339 28.8406 337.538 28.3455 335.444L23.0203 312.924C22.9248 312.52 23.175 312.116 23.5788 312.02C23.9809 311.925 24.3872 312.175 24.4828 312.578L29.808 335.099C30.1419 336.512 31.3872 337.499 32.8363 337.499H93.2489C93.6638 337.499 94 337.835 94 338.249C94 338.664 93.6638 339 93.2489 339Z" fill="#2A2B2E"/>
<path fill-rule="evenodd" clip-rule="evenodd" d="M57 339L58.4944 345.984C58.7359 347.165 59.6465 348 60.6943 348H71.2598C72.4102 348 73.2436 346.729 72.9354 345.445L71.388 339H57Z" fill="white"/>
<path fill-rule="evenodd" clip-rule="evenodd" d="M56.6566 338.601L58.072 344.902C58.262 345.786 58.9628 346.399 59.7785 346.399H71.3643C71.7347 346.399 72.0765 346.212 72.3014 345.886C72.528 345.559 72.6004 345.142 72.5004 344.746L70.9513 338.601H56.6566ZM71.3643 348H59.7785C58.2855 348 57.0021 346.881 56.6579 345.278L55.0214 337.993C54.9674 337.754 55.017 337.501 55.1544 337.307C55.2923 337.113 55.5036 337 55.7274 337H71.5044C71.8312 337 72.1179 337.24 72.2054 337.586L73.9022 344.317C74.1247 345.201 73.9636 346.126 73.4596 346.855C72.957 347.583 72.1935 348 71.3643 348Z" fill="#2A2B2E"/>
<path fill-rule="evenodd" clip-rule="evenodd" d="M102.245 377H37.7548C37.3378 377 37 376.776 37 376.5C37 376.224 37.3378 376 37.7548 376H102.245C102.662 376 103 376.224 103 376.5C103 376.776 102.662 377 102.245 377Z" fill="#2A2B2E"/>
<path fill-rule="evenodd" clip-rule="evenodd" d="M68.7201 307H74.2802C75.7822 307 77 308.343 77 310H66C66 308.343 67.2178 307 68.7201 307Z" fill="#AA4465"/>
<path fill-rule="evenodd" clip-rule="evenodd" d="M67.7625 307.482H76.2373C75.9457 306.911 75.336 306.518 74.6331 306.518H69.3664C68.6633 306.518 68.0543 306.911 67.7625 307.482ZM77.2098 309H66.79C66.3537 309 66 308.66 66 308.241C66 306.454 67.5099 305 69.3664 305H74.6331C76.4896 305 78 306.454 78 308.241C78 308.66 77.6463 309 77.2098 309Z" fill="#2A2B2E"/>
<path fill-rule="evenodd" clip-rule="evenodd" d="M29.7201 307H35.2799C36.7822 307 38 308.343 38 310H27C27 308.343 28.2178 307 29.7201 307Z" fill="#AA4465"/>
<path fill-rule="evenodd" clip-rule="evenodd" d="M28.7625 307.482H37.2371C36.9457 306.911 36.336 306.518 35.6331 306.518H30.3664C29.6633 306.518 29.0543 306.911 28.7625 307.482ZM38.2098 309H27.79C27.3534 309 27 308.66 27 308.241C27 306.454 28.5099 305 30.3664 305H35.6331C37.4896 305 39 306.454 39 308.241C39 308.66 38.6463 309 38.2098 309Z" fill="#2A2B2E"/>
<path fill-rule="evenodd" clip-rule="evenodd" d="M30.8896 307L30.0872 301.746C29.5178 298.02 31.7973 295 35.1783 295H65.0449C68.4259 295 71.6282 298.02 72.1972 301.746L73 307H70.714L70.0896 302.911C69.6465 300.011 67.1542 297.66 64.5229 297.66H36.5129C33.8817 297.66 32.1076 300.011 32.5506 302.911L33.1752 307H30.8896Z" fill="white"/>
<path fill-rule="evenodd" clip-rule="evenodd" d="M70.6799 305.435H71.4251L70.7909 301.34C70.2976 298.156 67.5161 295.565 64.5908 295.565H35.7274C34.3813 295.565 33.2052 296.122 32.4157 297.133C31.6041 298.173 31.2857 299.575 31.5191 301.081L32.1934 305.435H32.9383L32.4759 302.45C32.231 300.868 32.5803 299.376 33.4599 298.249C34.3225 297.144 35.5858 296.535 37.0175 296.535H64.0862C66.9614 296.535 69.6944 299.072 70.1775 302.191L70.6799 305.435ZM72.2782 307H70.0692C69.7168 307 69.4158 306.724 69.3573 306.347L68.7537 302.45C68.3824 300.051 66.2882 298.1 64.0862 298.1H37.0175C36.0178 298.1 35.1456 298.512 34.562 299.259C33.9615 300.029 33.7261 301.07 33.8999 302.191L34.5037 306.088C34.5385 306.315 34.4798 306.547 34.3426 306.723C34.2055 306.898 34.0041 307 33.7916 307H31.5828C31.2302 307 30.9292 306.724 30.8709 306.347L30.0951 301.34C29.7905 299.372 30.2232 297.519 31.3138 296.123C32.3822 294.754 33.9495 294 35.7274 294H64.5908C68.1899 294 71.6096 297.177 72.2149 301.081L72.9901 306.088C73.0251 306.315 72.9664 306.547 72.8291 306.723C72.6919 306.898 72.4905 307 72.2782 307Z" fill="#2A2B2E"/>
<path fill-rule="evenodd" clip-rule="evenodd" d="M36.6456 294H63.3072C64.3817 294 65.3993 294.98 65.5803 296.189L65.9723 298.81C66.1532 300.02 65.4288 301 64.3545 301H37.6928C36.6184 301 35.6006 300.02 35.4197 298.81L35.0276 296.189C34.8469 294.98 35.5713 294 36.6456 294Z" fill="#AA4465"/>
<path fill-rule="evenodd" clip-rule="evenodd" d="M37.3659 295.566C37.0839 295.566 36.8426 295.673 36.6862 295.867C36.5225 296.069 36.4604 296.353 36.5104 296.666L36.8964 299.075C37.0143 299.811 37.7011 300.434 38.3964 300.434H64.6345C64.9163 300.434 65.1576 300.327 65.3138 300.134C65.4777 299.931 65.5398 299.647 65.4896 299.334L65.104 296.925C64.9859 296.189 64.2989 295.566 63.6038 295.566H37.3659ZM64.6345 302H38.3964C36.9682 302 35.6624 300.829 35.4227 299.334L35.0367 296.925C34.9147 296.162 35.1002 295.407 35.5456 294.855C35.9906 294.304 36.6371 294 37.3659 294H63.6038C65.0318 294 66.338 295.171 66.5773 296.666L66.9633 299.075C67.0853 299.838 66.9 300.593 66.4546 301.145C66.0096 301.696 65.3631 302 64.6345 302Z" fill="#2A2B2E"/>
<path fill-rule="evenodd" clip-rule="evenodd" d="M27.238 377C27.1103 377 26.9805 376.969 26.8612 376.903L16.3834 371.125C16.1465 370.994 16 370.751 16 370.487V313.735C16 313.329 16.3405 313 16.7609 313C17.1812 313 17.522 313.329 17.522 313.735V370.061L27.6164 375.627C27.9812 375.829 28.108 376.277 27.8998 376.63C27.7592 376.867 27.5024 377 27.238 377Z" fill="#2A2B2E"/>
<path fill-rule="evenodd" clip-rule="evenodd" d="M243 298.5C243 326.39 220.39 349 192.5 349C164.61 349 142 326.39 142 298.5C142 270.61 164.61 248 192.5 248C220.39 248 243 270.61 243 298.5Z" fill="#2A2B2E"/>
<path fill-rule="evenodd" clip-rule="evenodd" d="M192 249.461C164.686 249.461 142.465 271.684 142.465 299C142.465 326.316 164.686 348.539 192 348.539C219.314 348.539 241.535 326.316 241.535 299C241.535 271.684 219.314 249.461 192 249.461ZM192 350C163.879 350 141 327.122 141 299C141 270.878 163.879 248 192 248C220.121 248 243 270.878 243 299C243 327.122 220.121 350 192 350Z" fill="#2A2B2E"/>
<path fill-rule="evenodd" clip-rule="evenodd" d="M244 296.5C244 324.39 221.39 347 193.5 347C165.61 347 143 324.39 143 296.5C143 268.61 165.61 246 193.5 246C221.39 246 244 268.61 244 296.5Z" fill="#AA4465"/>
<path fill-rule="evenodd" clip-rule="evenodd" d="M192 246.461C164.686 246.461 142.465 268.684 142.465 296C142.465 323.316 164.686 345.539 192 345.539C219.314 345.539 241.535 323.316 241.535 296C241.535 268.684 219.314 246.461 192 246.461ZM192 347C163.879 347 141 324.122 141 296C141 267.878 163.879 245 192 245C220.121 245 243 267.878 243 296C243 324.122 220.121 347 192 347Z" fill="#2A2B2E"/>
<path fill-rule="evenodd" clip-rule="evenodd" d="M227 296C227 314.778 211.778 330 193 330C174.222 330 159 314.778 159 296C159 277.222 174.222 262 193 262C211.778 262 227 277.222 227 296Z" fill="white"/>
<path fill-rule="evenodd" clip-rule="evenodd" d="M211 294.5C211 304.165 203.165 312 193.5 312C183.835 312 176 304.165 176 294.5C176 284.835 183.835 277 193.5 277C203.165 277 211 284.835 211 294.5Z" fill="#AA4465"/>
<path fill-rule="evenodd" clip-rule="evenodd" d="M192.053 296.671L201.576 286L203 287.424L192.329 296.947C192.145 297.112 191.888 296.855 192.053 296.671Z" fill="white"/>
<path fill-rule="evenodd" clip-rule="evenodd" d="M201.908 286.888L200.223 288.777L202.111 287.091L201.908 286.888ZM192.959 297C192.716 297 192.473 296.906 192.285 296.718C191.92 296.354 191.904 295.791 192.246 295.407H192.246L201.302 285.258C201.442 285.1 201.642 285.007 201.855 285.001C202.067 284.989 202.271 285.077 202.421 285.226L203.775 286.58C203.924 286.73 204.006 286.934 204 287.145C203.993 287.355 203.901 287.554 203.743 287.695L193.597 296.754C193.412 296.919 193.186 297 192.959 297Z" fill="#2A2B2E"/>
<path fill-rule="evenodd" clip-rule="evenodd" d="M201.596 287.584L201.416 287.403C200.861 286.848 200.861 285.948 201.416 285.393L205.809 281L208 283.191L203.607 287.584C203.052 288.139 202.152 288.139 201.596 287.584Z" fill="white"/>
<path fill-rule="evenodd" clip-rule="evenodd" d="M205.193 282.952L201.761 286.386C201.57 286.576 201.57 286.886 201.762 287.078L201.925 287.242C201.925 287.242 201.925 287.242 201.926 287.242C202.109 287.425 202.428 287.425 202.612 287.242L206.047 283.806L205.193 282.952ZM202.269 289C201.706 289 201.177 288.78 200.779 288.383L200.615 288.219C199.795 287.398 199.795 286.064 200.615 285.244L204.62 281.237C204.772 281.085 204.978 281 205.193 281C205.408 281 205.615 281.085 205.766 281.237L207.764 283.235C208.079 283.551 208.079 284.061 207.764 284.377L203.758 288.383C203.361 288.78 202.832 289 202.269 289Z" fill="#2A2B2E"/>
<path fill-rule="evenodd" clip-rule="evenodd" d="M203.974 284.446L203.554 284.026C202.815 283.287 202.815 282.088 203.554 281.349L245.349 239.554C246.088 238.815 247.287 238.815 248.026 239.554L248.446 239.974C249.185 240.714 249.185 241.912 248.446 242.651L206.651 284.446C205.912 285.185 204.713 285.185 203.974 284.446Z" fill="white"/>
<path fill-rule="evenodd" clip-rule="evenodd" d="M205.202 284.217C205.636 284.651 206.392 284.652 206.826 284.217L248.214 242.827C248.663 242.378 248.663 241.647 248.214 241.199L247.798 240.783C247.364 240.349 246.608 240.349 246.174 240.783L204.786 282.173C204.337 282.622 204.337 283.352 204.786 283.801L205.202 284.217ZM206.014 286C205.319 286 204.666 285.73 204.175 285.239L203.759 284.823C202.747 283.811 202.747 282.163 203.759 281.151L245.147 239.761C245.638 239.27 246.291 239 246.986 239C247.68 239 248.333 239.27 248.825 239.761L249.24 240.177C250.253 241.189 250.253 242.837 249.24 243.849L207.852 285.239C207.361 285.73 206.708 286 206.014 286Z" fill="#2A2B2E"/>
<path fill-rule="evenodd" clip-rule="evenodd" d="M234.559 251L233.166 245.093C232.617 242.766 233.446 240.353 235.371 238.672L243.996 231.143C244.31 230.869 244.847 231.009 244.936 231.389L247 240.14L234.559 251Z" fill="#AA4465"/>
<path fill-rule="evenodd" clip-rule="evenodd" d="M241.813 231.719L234.35 239.523C232.786 241.158 232.119 243.487 232.565 245.753L233.548 250.748L243.509 240.332L241.813 231.719ZM233.115 253C233.047 253 232.978 252.99 232.911 252.969C232.659 252.89 232.469 252.674 232.416 252.405L231.165 246.053C230.623 243.295 231.435 240.461 233.339 238.47L241.083 230.372C241.399 230.042 241.861 229.92 242.29 230.053C242.72 230.187 243.042 230.555 243.133 231.013L244.985 240.425C245.034 240.67 244.961 240.924 244.791 241.101L233.621 252.781C233.485 252.924 233.303 253 233.115 253Z" fill="#2A2B2E"/>
<path fill-rule="evenodd" clip-rule="evenodd" d="M238 255.441L243.907 256.834C246.235 257.383 248.647 256.554 250.328 254.629L257.857 246.004C258.131 245.69 257.99 245.153 257.611 245.064L248.86 243L238 255.441Z" fill="#AA4465"/>
<path fill-rule="evenodd" clip-rule="evenodd" d="M238.253 254.455L243.249 255.439C245.513 255.884 247.84 255.217 249.475 253.653L257.281 246.185L248.669 244.489L238.253 254.455ZM244.64 257C244.077 257 243.511 256.946 242.947 256.835L236.596 255.584C236.327 255.531 236.11 255.342 236.032 255.091C235.953 254.84 236.024 254.568 236.218 254.383L247.896 243.21C248.074 243.04 248.328 242.965 248.576 243.015L257.986 244.868C258.443 244.958 258.811 245.279 258.946 245.707C259.081 246.135 258.959 246.598 258.628 246.914L250.532 254.66C248.948 256.176 246.828 257 244.64 257Z" fill="#2A2B2E"/>
<path fill-rule="evenodd" clip-rule="evenodd" d="M246 246L254 247L246 246Z" fill="white"/>
<path fill-rule="evenodd" clip-rule="evenodd" d="M254.265 248C254.221 248 254.175 247.996 254.129 247.987L246.6 246.517C246.201 246.439 245.938 246.04 246.013 245.624C246.088 245.209 246.47 244.935 246.871 245.013L254.4 246.483C254.799 246.561 255.062 246.96 254.987 247.376C254.921 247.743 254.612 248 254.265 248Z" fill="#2A2B2E"/>
<path fill-rule="evenodd" clip-rule="evenodd" d="M245 249L253 250L245 249Z" fill="white"/>
<path fill-rule="evenodd" clip-rule="evenodd" d="M251.265 252C251.22 252 251.175 251.996 251.129 251.987L243.6 250.517C243.201 250.439 242.938 250.04 243.013 249.624C243.088 249.209 243.472 248.936 243.871 249.013L251.4 250.483C251.799 250.561 252.062 250.961 251.987 251.376C251.921 251.744 251.612 252 251.265 252Z" fill="#2A2B2E"/>
<path fill-rule="evenodd" clip-rule="evenodd" d="M233 254L234 255L233 254Z" fill="white"/>
<path fill-rule="evenodd" clip-rule="evenodd" d="M234.271 257C234.084 257 233.896 256.929 233.754 256.786L232.213 255.243C231.929 254.958 231.929 254.498 232.214 254.213C232.499 253.929 232.961 253.929 233.246 254.214L234.787 255.757C235.071 256.042 235.071 256.503 234.786 256.787C234.643 256.929 234.457 257 234.271 257Z" fill="#2A2B2E"/>
<path fill-rule="evenodd" clip-rule="evenodd" d="M235 253L236 254L235 253Z" fill="white"/>
<path fill-rule="evenodd" clip-rule="evenodd" d="M236.27 254C236.083 254 235.897 253.929 235.754 253.786L234.213 252.243C233.929 251.958 233.929 251.498 234.214 251.213C234.499 250.929 234.961 250.929 235.246 251.214L236.787 252.757C237.071 253.042 237.071 253.503 236.786 253.788C236.643 253.929 236.457 254 236.27 254Z" fill="#2A2B2E"/>
<path fill-rule="evenodd" clip-rule="evenodd" d="M237 252L238 253L237 252Z" fill="white"/>
<path fill-rule="evenodd" clip-rule="evenodd" d="M238.27 253C238.083 253 237.897 252.929 237.754 252.786L236.213 251.243C235.928 250.958 235.929 250.498 236.214 250.213C236.5 249.929 236.961 249.929 237.246 250.214L238.787 251.757C239.071 252.042 239.071 252.503 238.786 252.787C238.643 252.929 238.457 253 238.27 253Z" fill="#2A2B2E"/>
<path fill-rule="evenodd" clip-rule="evenodd" d="M337.069 78.0696C336.9 77.704 337.052 77.2681 337.41 77.0936L376.505 58.0718C376.863 57.898 377.291 58.0505 377.464 58.4135L386.912 87.6937C387.189 88.5521 386.796 89.4866 385.995 89.8765L349.187 107.787C348.028 108.351 346.646 107.75 346.245 106.509L337.069 78.0696Z" fill="white"/>
<path fill-rule="evenodd" clip-rule="evenodd" d="M377.797 59.4207L337.45 78.2749C337.462 78.3009 337.46 78.3635 337.469 78.3911L346.933 106.602C347.066 106.997 347.366 107.317 347.757 107.48C348.148 107.644 348.591 107.635 348.976 107.455L386.937 89.6888C387.437 89.4548 387.683 88.8901 387.511 88.375L377.797 59.4207ZM349.204 108.871C348.547 109.071 347.834 109.039 347.194 108.771C346.423 108.449 345.831 107.818 345.57 107.039L336.118 78.863C335.811 78.1631 336.123 77.3398 336.831 77.0088L377.15 58.1403C377.876 57.7998 378.745 58.101 379.094 58.8064C379.108 58.8346 379.12 58.8635 379.13 58.8933L388.874 87.9374C389.27 89.1203 388.704 90.4175 387.556 90.9549L349.595 108.721C349.468 108.78 349.337 108.83 349.204 108.871Z" fill="#2A2B2E"/>
<path fill-rule="evenodd" clip-rule="evenodd" d="M361.523 87.7677C360.494 88.078 359.363 88.0867 358.276 87.7378L341.504 82.3548C341.118 82.231 340.91 81.8287 341.038 81.4558C341.165 81.0832 341.581 80.8815 341.966 81.0051L358.738 86.3883C360.5 86.9537 362.423 86.2201 363.313 84.6438L373.62 66.3704C373.814 66.0262 374.26 65.8988 374.617 66.0869C374.974 66.275 375.104 66.7071 374.91 67.0518L364.602 85.3249C363.921 86.5326 362.801 87.3826 361.523 87.7677Z" fill="#AA4465"/>
<path fill-rule="evenodd" clip-rule="evenodd" d="M381.464 87.9629C381.297 88.0191 381.11 88.0134 380.936 87.9324L369.459 82.5743C369.073 82.3943 368.896 81.911 369.063 81.4952C369.231 81.0784 369.679 80.8878 370.064 81.0678L381.541 86.4256C381.927 86.6057 382.104 87.089 381.937 87.5053C381.846 87.7333 381.669 87.894 381.464 87.9629Z" fill="#AA4465"/>
<path fill-rule="evenodd" clip-rule="evenodd" d="M350.899 102.967C350.766 103.011 350.619 103.013 350.477 102.963C350.113 102.839 349.916 102.428 350.035 102.046L353.648 90.5006C353.768 90.1189 354.16 89.9113 354.523 90.0364C354.887 90.1616 355.085 90.5726 354.965 90.9541L351.352 102.5C351.279 102.732 351.105 102.9 350.899 102.967Z" fill="#AA4465"/>
<path fill-rule="evenodd" clip-rule="evenodd" d="M296.9 82.9702C296.575 83.0669 296.216 82.9224 296.066 82.6198C295.903 82.2891 296.052 81.8948 296.399 81.7391L338.009 63.064C338.36 62.9064 338.77 63.0505 338.934 63.3809C339.097 63.7116 338.948 64.1059 338.601 64.2615L296.99 82.9367C296.961 82.9498 296.931 82.9611 296.9 82.9702Z" fill="#AA4465"/>
<path fill-rule="evenodd" clip-rule="evenodd" d="M330.929 75.9641C330.589 76.082 330.215 75.9022 330.064 75.5315C329.901 75.1302 330.06 74.6569 330.42 74.4749L350.987 64.0716C351.348 63.8895 351.772 64.0666 351.936 64.4681C352.099 64.8697 351.94 65.3427 351.58 65.525L331.013 75.9283C330.985 75.9423 330.957 75.9541 330.929 75.9641Z" fill="#AA4465"/>
<path fill-rule="evenodd" clip-rule="evenodd" d="M322.929 124.964C322.589 125.082 322.215 124.902 322.064 124.532C321.901 124.13 322.06 123.657 322.42 123.475L342.987 113.071C343.346 112.891 343.772 113.066 343.936 113.468C344.099 113.869 343.94 114.342 343.58 114.525L323.013 124.928C322.986 124.942 322.958 124.954 322.929 124.964Z" fill="#AA4465"/>
<path fill-rule="evenodd" clip-rule="evenodd" d="M257.093 41.9838C256.858 41.4577 257.083 40.8367 257.597 40.5939L313.587 14.0971C314.099 13.855 314.707 14.081 314.946 14.6032L327.884 56.6571C328.263 57.8904 327.688 59.2197 326.54 59.7631L273.824 84.7119C272.165 85.4974 270.208 84.6133 269.659 82.8303L257.093 41.9838Z" fill="white"/>
<path fill-rule="evenodd" clip-rule="evenodd" d="M313.305 16.4322C313.291 16.4367 313.276 16.4418 313.263 16.4483L257.593 42.4161C257.435 42.4899 257.365 42.6799 257.437 42.8398C257.449 42.8663 257.46 42.8935 257.468 42.9212L269.962 82.9524C270.161 83.5904 270.624 84.1116 271.231 84.3823C271.839 84.6523 272.532 84.647 273.135 84.3653L325.549 59.9144C326.366 59.5331 326.779 58.5931 326.509 57.7277L313.664 16.5716C313.589 16.4485 313.441 16.3914 313.305 16.4322ZM273.227 85.8443C272.385 86.0967 271.475 86.0423 270.662 85.6804C269.684 85.2449 268.939 84.4061 268.618 83.3783L256.135 43.383C255.776 42.5251 256.156 41.5218 257.001 41.128L312.67 15.1605C313.528 14.7595 314.553 15.1361 314.955 15.9989C314.969 16.0277 314.98 16.0571 314.99 16.0875L327.853 57.3019C328.335 58.8454 327.599 60.5223 326.141 61.2025L273.728 85.6532C273.564 85.7294 273.396 85.7932 273.227 85.8443Z" fill="#2A2B2E"/>
<path fill-rule="evenodd" clip-rule="evenodd" d="M292.881 54.7129C291.558 55.1132 290.111 55.1065 288.725 54.6196L266.472 46.7967C266.106 46.6679 265.912 46.2625 266.039 45.8904C266.165 45.5183 266.564 45.3215 266.929 45.4498L289.183 53.2727C291.647 54.1389 294.363 53.0903 295.641 50.7787L309.689 25.3632C309.877 25.0207 310.304 24.8987 310.643 25.0914C310.98 25.2842 311.1 25.7185 310.91 26.0615L296.862 51.477C295.97 53.0903 294.522 54.2155 292.881 54.7129Z" fill="#AA4465"/>
<path fill-rule="evenodd" clip-rule="evenodd" d="M319.532 55.9671C319.388 56.019 319.228 56.0113 319.079 55.9308L305.386 48.512C305.057 48.3339 304.91 47.8662 305.057 47.4675C305.204 47.0696 305.591 46.8905 305.921 47.0694L319.614 54.4879C319.943 54.6663 320.09 55.134 319.943 55.5324C319.862 55.7513 319.708 55.9035 319.532 55.9671Z" fill="#AA4465"/>
<path fill-rule="evenodd" clip-rule="evenodd" d="M275.075 73.9722C274.914 74.0105 274.737 74.0105 274.566 73.964C274.129 73.8453 273.896 73.4677 274.045 73.1208L280.372 58.4491C280.522 58.1017 280.998 57.9175 281.435 58.0358C281.871 58.1547 282.104 58.5321 281.955 58.879L275.628 73.5508C275.537 73.7621 275.325 73.9131 275.075 73.9722Z" fill="#AA4465"/>
<path fill-rule="evenodd" clip-rule="evenodd" d="M198.924 49.9713C198.585 50.0685 198.216 49.9125 198.065 49.594C197.9 49.2456 198.059 48.8342 198.421 48.6756L258.982 22.0625C259.342 21.9039 259.77 22.0573 259.935 22.4059C260.1 22.7545 259.94 23.1657 259.579 23.3243L199.018 49.9374C198.987 49.9509 198.955 49.9624 198.924 49.9713Z" fill="#AA4465"/>
<path fill-rule="evenodd" clip-rule="evenodd" d="M246.91 38.9707C246.573 39.0713 246.205 38.9066 246.06 38.5752C245.903 38.2159 246.065 37.7967 246.424 37.6392L275.006 25.0596C275.364 24.9032 275.783 25.0648 275.94 25.4245C276.097 25.7836 275.935 26.2028 275.577 26.3603L246.994 38.9396C246.966 38.9519 246.938 38.9622 246.91 38.9707Z" fill="#AA4465"/>
<path fill-rule="evenodd" clip-rule="evenodd" d="M236.91 106.971C236.573 107.071 236.205 106.907 236.06 106.575C235.903 106.216 236.065 105.797 236.424 105.639L265.006 93.06C265.365 92.9027 265.783 93.0652 265.94 93.4247C266.097 93.7838 265.935 94.2029 265.576 94.3605L236.994 106.94C236.966 106.952 236.938 106.962 236.91 106.971Z" fill="#AA4465"/>
</svg>
