<svg width="361" height="364" viewBox="0 0 361 364" fill="none" xmlns="http://www.w3.org/2000/svg">
<g id="Group 274">
<path id="Fill 1" fill-rule="evenodd" clip-rule="evenodd" d="M98.5128 88.8085C131.568 55.5404 122.104 34.69 144.722 19.2872C179.524 -4.41358 244.477 15.9768 282.797 48.5764C329.731 88.5045 353.946 161.407 326.361 227.36C296.985 297.597 219.691 334.058 150.722 323.07C89.1324 313.258 28.5881 264.717 22.5215 206.499C21.8641 200.189 18.9616 166.078 39.3193 136.669C56.1466 112.361 72.3103 115.18 98.5128 88.8085Z" fill="#C9CEBD"/>
<path id="Fill 3" fill-rule="evenodd" clip-rule="evenodd" d="M186.239 300.067C166.595 305.446 146.311 293.882 140.933 274.239C135.554 254.596 147.118 234.312 166.761 228.933C186.405 223.554 206.689 235.118 212.068 254.761C217.446 274.404 205.883 294.688 186.239 300.067ZM249.867 251.838L246.083 238.021L230.453 238.731C229.005 235.689 227.327 232.805 225.431 230.106L233.706 216.851L223.521 206.778L210.338 215.209C207.592 213.327 204.696 211.675 201.678 210.273L202.217 194.632L188.361 191L181.169 204.873C177.882 204.616 174.545 204.642 171.189 204.945L163.838 191.134L150.021 194.918L150.731 210.547C147.689 211.995 144.804 213.673 142.107 215.57L128.851 207.294L118.777 217.479L127.209 230.663C125.327 233.408 123.675 236.304 122.272 239.322L106.632 238.783L103 252.64L116.874 259.831C116.616 263.119 116.642 266.455 116.945 269.811L103.134 277.162L106.917 290.979L122.547 290.268C123.995 293.311 125.673 296.196 127.569 298.893L119.295 312.149L129.479 322.222L142.663 313.791C145.408 315.674 148.304 317.325 151.322 318.728L150.783 334.368L164.64 338L171.831 324.126C175.119 324.384 178.455 324.358 181.811 324.055L189.163 337.866L202.979 334.082L202.269 318.453C205.311 317.004 208.196 315.327 210.893 313.43L224.149 321.705L234.223 311.521L225.791 298.338C227.674 295.592 229.325 292.696 230.728 289.678L246.368 290.217L250 276.36L236.127 269.169C236.384 265.881 236.358 262.545 236.055 259.189L249.867 251.838Z" fill="#AA4465"/>
<path id="Fill 5" fill-rule="evenodd" clip-rule="evenodd" d="M296.3 59.3565C285.61 62.2838 274.571 55.9902 271.643 45.3C268.716 34.6098 275.01 23.5707 285.7 20.6435C296.39 17.7162 307.429 24.0098 310.357 34.7C313.283 45.3902 306.99 56.4293 296.3 59.3565ZM330.927 33.1089L328.869 25.5901L320.362 25.9764C319.574 24.3205 318.661 22.7508 317.629 21.2823L322.132 14.068L316.59 8.58643L309.415 13.1749C307.921 12.1503 306.345 11.2522 304.702 10.4882L304.995 1.97636L297.455 0L293.541 7.5503C291.752 7.41002 289.936 7.42423 288.11 7.58937L284.109 0.072804L276.59 2.13174L276.976 10.6378C275.32 11.4258 273.751 12.3389 272.283 13.3711L265.069 8.86788L259.586 14.4103L264.175 21.585C263.15 23.0789 262.252 24.6552 261.488 26.2978L252.977 26.0043L251 33.5453L258.55 37.459C258.41 39.2484 258.424 41.0641 258.589 42.8904L251.073 46.8911L253.132 54.4103L261.638 54.0236C262.426 55.6795 263.339 57.2492 264.371 58.7177L259.868 65.9315L265.41 71.4136L272.585 66.8251C274.079 67.8497 275.655 68.7482 277.298 69.5118L277.004 78.0236L284.546 80L288.459 72.4497C290.248 72.5904 292.064 72.5758 293.89 72.4106L297.891 79.9272L305.41 77.8683L305.024 69.3622C306.68 68.5742 308.249 67.6611 309.718 66.6289L316.931 71.1321L322.414 65.5897L317.825 58.415C318.85 56.9211 319.748 55.3448 320.512 53.7022L329.024 53.9957L331 46.4547L323.45 42.541C323.59 40.752 323.576 38.9359 323.411 37.1096L330.927 33.1089Z" fill="#AA4465"/>
<path id="Fill 7" fill-rule="evenodd" clip-rule="evenodd" d="M231.912 145.985L39.4432 120.444C38.607 120.334 38 119.636 38 118.785V13.8614C38 12.7573 39.0021 11.8711 40.0877 12.0154L232.556 37.5552C233.393 37.6664 234 38.3641 234 39.2149V144.139C234 145.242 232.998 146.128 231.912 145.985Z" fill="white"/>
<path id="Fill 9" fill-rule="evenodd" clip-rule="evenodd" d="M159.344 29C159.315 29 159.285 28.9981 159.256 28.9939L112.571 22.3943C112.211 22.343 111.958 21.9911 112.006 21.6079C112.054 21.2248 112.384 20.9564 112.744 21.0059L159.429 27.606C159.789 27.6568 160.042 28.0087 159.994 28.3919C159.95 28.7438 159.668 29 159.344 29Z" fill="#2A2B2E"/>
<path id="Fill 11" fill-rule="evenodd" clip-rule="evenodd" d="M37.6614 87C37.2958 87 37 86.7016 37 86.334V13.5384C37 12.8133 37.317 12.1179 37.8686 11.6313C38.4153 11.1491 39.1309 10.9279 39.8341 11.0207L96.4257 18.586C96.7882 18.6344 97.0426 18.9692 96.9941 19.3337C96.946 19.6983 96.6127 19.9531 96.252 19.9065L39.6595 12.3413C39.3342 12.296 38.9999 12.4048 38.7398 12.6334C38.4748 12.8674 38.3227 13.1969 38.3227 13.5384V86.334C38.3227 86.7016 38.0264 87 37.6614 87Z" fill="#2A2B2E"/>
<path id="Fill 13" fill-rule="evenodd" clip-rule="evenodd" d="M219.527 132.982L209.72 131.697C208.724 131.566 208 130.727 208 129.703V73.235C208 71.9122 209.186 70.849 210.473 71.0176L220.28 72.3041C221.276 72.4345 222 73.2732 222 74.2974V130.765C222 132.088 220.815 133.151 219.527 132.982Z" fill="#E6E8E6"/>
<path id="Fill 15" fill-rule="evenodd" clip-rule="evenodd" d="M200.527 129.982L190.72 128.705C189.724 128.576 189 127.742 189 126.725V86.2198C189 84.906 190.186 83.85 191.473 84.0175L201.28 85.2947C202.276 85.4243 203 86.2577 203 87.2749V127.78C203 129.094 201.815 130.15 200.527 129.982Z" fill="#E6E8E6"/>
<path id="Fill 17" fill-rule="evenodd" clip-rule="evenodd" d="M181.527 127.982L171.72 126.704C170.724 126.574 170 125.739 170 124.721V106.223C170 104.907 171.186 103.85 172.473 104.018L182.28 105.297C183.276 105.427 184 106.261 184 107.279V125.777C184 127.093 182.815 128.15 181.527 127.982Z" fill="#E6E8E6"/>
<path id="Fill 19" fill-rule="evenodd" clip-rule="evenodd" d="M162.527 124.983L152.72 123.73C151.724 123.602 151 122.785 151 121.786V110.179C151 108.889 152.186 107.852 153.473 108.017L163.28 109.271C164.276 109.398 165 110.216 165 111.214V122.821C165 124.111 163.815 125.148 162.527 124.983Z" fill="#E6E8E6"/>
<path id="Fill 21" fill-rule="evenodd" clip-rule="evenodd" d="M142.527 121.982L132.72 120.701C131.724 120.571 131 119.734 131 118.714V94.2277C131 92.9093 132.186 91.8492 133.472 92.0177L143.28 93.2993C144.276 93.4289 145 94.2652 145 95.286V119.772C145 121.091 143.814 122.15 142.527 121.982Z" fill="#E6E8E6"/>
<path id="Fill 23" fill-rule="evenodd" clip-rule="evenodd" d="M123.528 118.982L113.72 117.667C112.724 117.533 112 116.674 112 115.626V109.287C112 107.933 113.186 106.846 114.473 107.018L124.28 108.334C125.276 108.468 126 109.326 126 110.374V116.713C126 118.067 124.815 119.154 123.528 118.982Z" fill="#E6E8E6"/>
<path id="Fill 25" fill-rule="evenodd" clip-rule="evenodd" d="M104.527 115.982L94.7201 114.697C93.724 114.566 93 113.727 93 112.703V106.235C93 104.912 94.1856 103.849 95.4727 104.018L105.28 105.304C106.276 105.434 107 106.273 107 107.297V113.765C107 115.088 105.815 116.151 104.527 115.982Z" fill="#E6E8E6"/>
<path id="Fill 27" fill-rule="evenodd" clip-rule="evenodd" d="M85.5273 113.982L75.7201 112.707C74.724 112.578 74 111.746 74 110.73V102.217C74 100.904 75.1856 99.8503 76.4727 100.017L86.2803 101.292C87.276 101.422 88 102.254 88 103.27V111.783C88 113.096 86.8148 114.15 85.5273 113.982Z" fill="#E6E8E6"/>
<path id="Fill 29" fill-rule="evenodd" clip-rule="evenodd" d="M108.535 47.9544L54.4912 40.8164C51.8896 40.4807 50 38.3356 50 35.7173C50 32.3314 53.1005 29.6114 56.4653 30.0457L110.509 37.1837C113.11 37.5194 115 39.6649 115 42.2827C115 45.6687 111.9 48.3883 108.535 47.9544Z" fill="#E6E8E6"/>
<path id="Fill 31" fill-rule="evenodd" clip-rule="evenodd" d="M52.6639 101C52.4517 101 52.2425 100.898 52.1142 100.709C51.9086 100.405 51.9882 99.9934 52.2916 99.7883L93.3164 72.0436C93.5734 71.8691 93.9161 71.8973 94.1425 72.1095L111.59 88.4975L143.757 66.7201C144.018 66.5443 144.366 66.5747 144.591 66.793L163.55 85.167L216.965 49.1138C217.27 48.9083 217.681 48.9892 217.887 49.2918C218.091 49.5954 218.011 50.0073 217.708 50.2123L163.846 86.5669C163.586 86.7414 163.238 86.7118 163.013 86.4935L144.055 68.12L111.894 89.8926C111.638 90.0667 111.294 90.0397 111.068 89.8267L93.6207 73.4387L53.0354 100.886C52.9213 100.963 52.7917 101 52.6639 101Z" fill="#2A2B2E"/>
<path id="Fill 33" fill-rule="evenodd" clip-rule="evenodd" d="M100 73.21C100 76.2428 97.5377 78.8322 94.5 78.9922C91.4623 79.1527 89 76.8232 89 73.79C89 70.7567 91.4623 68.1683 94.5 68.0078C97.5377 67.8478 100 70.1767 100 73.21Z" fill="#AA4465"/>
<path id="Fill 35" fill-rule="evenodd" clip-rule="evenodd" d="M150 67.2098C150 70.2431 147.538 72.8321 144.5 72.9922C141.463 73.1527 139 70.8236 139 67.7902C139 64.7568 141.463 62.1683 144.5 62.0078C147.538 61.8477 150 64.1764 150 67.2098Z" fill="#AA4465"/>
<path id="Fill 37" fill-rule="evenodd" clip-rule="evenodd" d="M144.287 63.3167C144.204 63.3167 144.119 63.3189 144.035 63.3237C141.434 63.4607 139.319 65.6853 139.319 68.2818C139.319 69.5226 139.801 70.6619 140.675 71.4904C141.551 72.3211 142.72 72.7452 143.965 72.6758C146.566 72.5389 148.681 70.3142 148.681 67.7177C148.681 66.4769 148.2 65.3376 147.325 64.5091C146.508 63.7351 145.438 63.3167 144.287 63.3167ZM143.711 74C142.222 74 140.832 73.4547 139.768 72.4462C138.628 71.3666 138 69.8874 138 68.2819C138 64.996 140.676 62.1817 143.965 62.0083C145.578 61.9249 147.092 62.4719 148.233 63.5538C149.372 64.6329 150 66.1121 150 67.7177C150 71.0035 147.324 73.8178 144.035 73.9912C143.927 73.9969 143.818 74 143.711 74Z" fill="#2A2B2E"/>
<path id="Fill 39" fill-rule="evenodd" clip-rule="evenodd" d="M118 89.21C118 92.2433 115.538 94.8322 112.5 94.9922C109.463 95.1527 107 92.8232 107 89.7904C107 86.7572 109.463 84.1687 112.5 84.0078C115.538 83.8478 118 86.1767 118 89.21Z" fill="#E6E8E6"/>
<path id="Fill 41" fill-rule="evenodd" clip-rule="evenodd" d="M59 100.21C59 103.243 56.5377 105.832 53.5 105.992C50.4623 106.153 48 103.823 48 100.79C48 97.7572 50.4623 95.1683 53.5 95.0078C56.5377 94.8478 59 97.1767 59 100.21Z" fill="#E6E8E6"/>
<path id="Fill 43" fill-rule="evenodd" clip-rule="evenodd" d="M53.2879 96.3164C53.2044 96.3164 53.1196 96.3186 53.0352 96.3234C50.4345 96.4604 48.3188 98.6851 48.3188 101.282C48.3188 102.522 48.8006 103.661 49.6745 104.49C50.551 105.321 51.719 105.746 52.9657 105.676C55.5659 105.539 57.6812 103.314 57.6812 100.718C57.6812 99.4763 57.1994 98.3369 56.3251 97.5084C55.5083 96.7348 54.4375 96.3164 53.2879 96.3164ZM52.7107 107C51.2218 107 49.8319 106.455 48.7672 105.446C47.6273 104.366 47 102.887 47 101.282C47 97.9958 49.6758 95.1814 52.9657 95.008C54.5786 94.9263 56.0908 95.4712 57.2324 96.5526C58.3723 97.6323 59 99.1114 59 100.718C59 104.003 56.3238 106.818 53.0352 106.991C52.9266 106.997 52.8184 107 52.7107 107Z" fill="#2A2B2E"/>
<path id="Fill 45" fill-rule="evenodd" clip-rule="evenodd" d="M169 86.2098C169 89.2431 166.538 91.8321 163.5 91.9922C160.462 92.1527 158 89.8231 158 86.7902C158 83.7568 160.462 81.1683 163.5 81.0078C166.538 80.8477 169 83.1764 169 86.2098Z" fill="#E6E8E6"/>
<path id="Fill 47" fill-rule="evenodd" clip-rule="evenodd" d="M223 50.2098C223 53.2431 220.538 55.8321 217.5 55.9922C214.462 56.1527 212 53.8236 212 50.7902C212 47.7568 214.462 45.1683 217.5 45.0078C220.538 44.8477 223 47.1764 223 50.2098Z" fill="#E6E8E6"/>
<path id="Fill 49" fill-rule="evenodd" clip-rule="evenodd" d="M357.922 162.985L247.445 148.662C246.608 148.554 246 147.857 246 147.006V41.8566C246 40.7576 246.996 39.8743 248.078 40.0147L358.555 54.3373C359.392 54.4456 360 55.1426 360 55.9938V161.143C360 162.242 359.003 163.125 357.922 162.985Z" fill="white"/>
<g id="Group 53">
<mask id="mask0_0:3165" style="mask-type:alpha" maskUnits="userSpaceOnUse" x="336" y="148" width="25" height="16">
<path id="Clip 52" fill-rule="evenodd" clip-rule="evenodd" d="M336 148H361V164H336V148Z" fill="white"/>
</mask>
<g mask="url(#mask0_0:3165)">
<path id="Fill 51" fill-rule="evenodd" clip-rule="evenodd" d="M358.434 164C358.329 164 358.224 163.993 358.119 163.98L336.588 161.313C336.218 161.268 335.958 160.945 336.006 160.592C336.053 160.238 336.391 159.986 336.761 160.036L358.292 162.703C358.621 162.744 358.964 162.64 359.228 162.418C359.497 162.192 359.652 161.874 359.652 161.545V148.644C359.652 148.289 359.953 148 360.326 148C360.698 148 361 148.289 361 148.644V161.545C361 162.244 360.679 162.915 360.118 163.386C359.644 163.784 359.044 164 358.434 164Z" fill="#2A2B2E"/>
</g>
</g>
<g id="Group 56">
<mask id="mask1_0:3165" style="mask-type:alpha" maskUnits="userSpaceOnUse" x="359" y="87" width="1" height="55">
<path id="Clip 55" fill-rule="evenodd" clip-rule="evenodd" d="M359 87H360V142H359V87Z" fill="white"/>
</mask>
<g mask="url(#mask1_0:3165)">
<path id="Fill 54" fill-rule="evenodd" clip-rule="evenodd" d="M359.5 142C359.224 142 359 141.706 359 141.343V87.6571C359 87.2944 359.224 87 359.5 87C359.776 87 360 87.2944 360 87.6571V141.343C360 141.706 359.776 142 359.5 142Z" fill="#2A2B2E"/>
</g>
</g>
<g id="Group 59">
<mask id="mask2_0:3165" style="mask-type:alpha" maskUnits="userSpaceOnUse" x="285" y="44" width="75" height="30">
<path id="Clip 58" fill-rule="evenodd" clip-rule="evenodd" d="M285 44H360V74H285V44Z" fill="white"/>
</mask>
<g mask="url(#mask2_0:3165)">
<path id="Fill 57" fill-rule="evenodd" clip-rule="evenodd" d="M359.341 74C358.977 74 358.682 73.7009 358.682 73.3324V55.8328C358.682 55.3121 358.318 54.8866 357.815 54.8203L285.574 45.3299C285.213 45.2827 284.959 44.948 285.006 44.5818C285.052 44.2159 285.383 43.9573 285.744 44.0058L357.984 53.4967C359.152 53.6493 360 54.632 360 55.8328V73.3324C360 73.7009 359.705 74 359.341 74Z" fill="#2A2B2E"/>
</g>
</g>
<path id="Fill 60" fill-rule="evenodd" clip-rule="evenodd" d="M306.527 82.982L296.72 81.6722C295.724 81.5393 295 80.6846 295 79.6415V70.277C295 68.9287 296.186 67.8462 297.473 68.018L307.28 69.3278C308.276 69.4607 309 70.3154 309 71.3581V80.7235C309 82.0708 307.815 83.1538 306.527 82.982Z" fill="#E6E8E6"/>
<path id="Fill 62" fill-rule="evenodd" clip-rule="evenodd" d="M324.527 85.982L314.72 84.6726C313.724 84.5393 313 83.6846 313 82.6414V73.2766C313 71.9288 314.186 70.8458 315.473 71.0181L325.28 72.3275C326.276 72.4608 327 73.3151 327 74.3578V83.7234C327 85.0708 325.814 86.1538 324.527 85.982Z" fill="#E6E8E6"/>
<path id="Fill 64" fill-rule="evenodd" clip-rule="evenodd" d="M342.527 87.9819L332.72 86.6725C331.724 86.5397 331 85.6849 331 84.6418V75.2766C331 73.9287 332.186 72.8462 333.473 73.018L343.28 74.3274C344.276 74.4607 345 75.3154 345 76.3582V85.7234C345 87.0712 343.815 88.1542 342.527 87.9819Z" fill="#AA4465"/>
<path id="Fill 66" fill-rule="evenodd" clip-rule="evenodd" d="M269.528 95.982L259.72 94.6722C258.724 94.5393 258 93.6846 258 92.6415V83.2765C258 81.9287 259.186 80.8462 260.473 81.018L270.28 82.3278C271.276 82.4607 272 83.3154 272 84.3581V93.7235C272 95.0708 270.815 96.1538 269.528 95.982Z" fill="#AA4465"/>
<path id="Fill 68" fill-rule="evenodd" clip-rule="evenodd" d="M288.527 98.982L278.72 97.6722C277.724 97.5393 277 96.6846 277 95.6414V86.2766C277 84.9284 278.186 83.8459 279.473 84.0181L289.28 85.3275C290.276 85.4604 291 86.3151 291 87.3578V96.7234C291 98.0708 289.815 99.1538 288.527 98.982Z" fill="#E6E8E6"/>
<path id="Fill 70" fill-rule="evenodd" clip-rule="evenodd" d="M306.527 100.982L296.72 99.6725C295.724 99.5392 295 98.6849 295 97.6418V88.2766C295 86.9287 296.186 85.8462 297.473 86.018L307.28 87.3274C308.276 87.4607 309 88.3154 309 89.3577V98.7234C309 100.071 307.815 101.154 306.527 100.982Z" fill="#AA4465"/>
<path id="Fill 72" fill-rule="evenodd" clip-rule="evenodd" d="M296.804 87.3268C296.449 87.3268 296.097 87.4648 295.815 87.7199C295.481 88.0219 295.289 88.4485 295.289 88.8902V98.052C295.289 98.7352 295.761 99.2936 296.411 99.3807L306.017 100.662C306.428 100.715 306.855 100.578 307.183 100.281C307.519 99.978 307.711 99.5514 307.711 99.1097V89.9488C307.711 89.2656 307.238 88.7068 306.588 88.6197L296.983 87.3383C296.923 87.3308 296.864 87.3268 296.804 87.3268ZM306.196 102C306.081 102 305.965 101.992 305.851 101.977L296.246 100.696C294.944 100.523 294 99.4103 294 98.052V88.8902C294 88.0674 294.351 87.2777 294.964 86.7233C295.572 86.1741 296.367 85.9177 297.148 86.0233L306.753 87.3043C308.055 87.4785 309 88.59 309 89.9488V99.1097C309 99.9329 308.648 100.723 308.035 101.278C307.517 101.745 306.861 102 306.196 102Z" fill="#2A2B2E"/>
<path id="Fill 74" fill-rule="evenodd" clip-rule="evenodd" d="M324.527 103.982L314.72 102.672C313.724 102.539 313 101.685 313 100.641V91.2765C313 89.9287 314.186 88.8462 315.473 89.018L325.28 90.3278C326.276 90.4607 327 91.3154 327 92.3581V101.723C327 103.071 325.814 104.154 324.527 103.982Z" fill="#E6E8E6"/>
<path id="Fill 76" fill-rule="evenodd" clip-rule="evenodd" d="M342.527 105.982L332.72 104.672C331.724 104.539 331 103.685 331 102.641V93.2766C331 91.9284 332.186 90.8459 333.473 91.0181L343.28 92.3275C344.276 92.4604 345 93.3151 345 94.3578V103.723C345 105.071 343.815 106.154 342.527 105.982Z" fill="#AA4465"/>
<path id="Fill 78" fill-rule="evenodd" clip-rule="evenodd" d="M269.528 114.982L259.72 113.673C258.724 113.539 258 112.685 258 111.642V102.277C258 100.929 259.186 99.8458 260.473 100.018L270.28 101.327C271.276 101.461 272 102.315 272 103.358V112.723C272 114.071 270.815 115.154 269.528 114.982Z" fill="#E6E8E6"/>
<path id="Fill 80" fill-rule="evenodd" clip-rule="evenodd" d="M288.527 116.982L278.72 115.673C277.724 115.54 277 114.685 277 113.642V104.277C277 102.929 278.186 101.846 279.473 102.018L289.28 103.327C290.276 103.461 291 104.315 291 105.358V114.723C291 116.071 289.815 117.154 288.527 116.982Z" fill="#E6E8E6"/>
<path id="Fill 82" fill-rule="evenodd" clip-rule="evenodd" d="M306.527 118.982L296.72 117.672C295.724 117.539 295 116.685 295 115.641V106.277C295 104.929 296.186 103.846 297.473 104.018L307.28 105.328C308.276 105.461 309 106.315 309 107.358V116.724C309 118.071 307.815 119.154 306.527 118.982Z" fill="#E6E8E6"/>
<path id="Fill 84" fill-rule="evenodd" clip-rule="evenodd" d="M324.527 121.982L314.72 120.673C313.724 120.539 313 119.685 313 118.641V109.277C313 107.929 314.186 106.846 315.473 107.018L325.28 108.327C326.276 108.461 327 109.315 327 110.358V119.723C327 121.071 325.814 122.154 324.527 121.982Z" fill="#E6E8E6"/>
<path id="Fill 86" fill-rule="evenodd" clip-rule="evenodd" d="M342.527 123.982L332.72 122.673C331.724 122.54 331 121.685 331 120.642V111.277C331 109.929 332.186 108.846 333.473 109.018L343.28 110.327C344.276 110.461 345 111.315 345 112.358V121.723C345 123.071 343.815 124.154 342.527 123.982Z" fill="#AA4465"/>
<path id="Fill 88" fill-rule="evenodd" clip-rule="evenodd" d="M269.528 132.982L259.72 131.672C258.724 131.539 258 130.685 258 129.641V120.277C258 118.929 259.186 117.846 260.473 118.018L270.28 119.328C271.276 119.461 272 120.315 272 121.358V130.724C272 132.071 270.815 133.154 269.528 132.982Z" fill="#E6E8E6"/>
<path id="Fill 90" fill-rule="evenodd" clip-rule="evenodd" d="M288.527 134.982L278.72 133.672C277.724 133.539 277 132.685 277 131.641V122.277C277 120.928 278.186 119.846 279.473 120.018L289.28 121.327C290.276 121.46 291 122.315 291 123.358V132.723C291 134.071 289.815 135.154 288.527 134.982Z" fill="#E6E8E6"/>
<path id="Fill 92" fill-rule="evenodd" clip-rule="evenodd" d="M306.527 136.982L296.72 135.673C295.724 135.539 295 134.685 295 133.642V124.277C295 122.929 296.186 121.846 297.473 122.018L307.28 123.327C308.276 123.461 309 124.315 309 125.358V134.723C309 136.071 307.815 137.154 306.527 136.982Z" fill="#AA4465"/>
<path id="Fill 94" fill-rule="evenodd" clip-rule="evenodd" d="M324.527 139.982L314.72 138.672C313.724 138.539 313 137.685 313 136.641V127.277C313 125.929 314.186 124.846 315.473 125.018L325.28 126.328C326.276 126.461 327 127.315 327 128.358V137.723C327 139.071 325.814 140.154 324.527 139.982Z" fill="#E6E8E6"/>
<path id="Fill 96" fill-rule="evenodd" clip-rule="evenodd" d="M356.913 283.983L300.426 276.136C299.596 276.021 298.997 275.324 299 274.478L299.356 170.849C299.359 169.757 300.344 168.881 301.417 169.013L357.548 175.951C358.388 176.055 359 176.753 359 177.607V282.145C359 283.249 357.996 284.134 356.913 283.983Z" fill="white"/>
<path id="Fill 98" fill-rule="evenodd" clip-rule="evenodd" d="M357.315 283.663C357.642 283.709 357.982 283.603 358.245 283.375C358.514 283.142 358.668 282.812 358.668 282.471V177.321C358.668 176.801 358.297 176.377 357.785 176.314L301.028 169.336C300.702 169.297 300.369 169.404 300.109 169.631C299.845 169.863 299.693 170.189 299.691 170.526L299.332 274.761C299.33 275.284 299.686 275.699 300.199 275.77L357.315 283.663ZM357.466 285C357.355 285 357.244 284.993 357.133 284.977L300.016 277.084C298.844 276.923 297.996 275.944 298 274.757L298.359 170.521C298.362 169.805 298.679 169.118 299.228 168.635C299.773 168.157 300.491 167.93 301.191 168.019L357.948 174.998C359.137 175.143 360 176.12 360 177.321V282.471C360 283.196 359.679 283.89 359.12 284.375C358.653 284.781 358.064 285 357.466 285Z" fill="#2A2B2E"/>
<path id="Fill 100" fill-rule="evenodd" clip-rule="evenodd" d="M346.56 251.953L309.474 247.048C306.882 246.705 305 244.514 305 241.84C305 238.382 308.088 235.603 311.44 236.047L348.526 240.952C351.118 241.296 353 243.486 353 246.16C353 249.619 349.912 252.397 346.56 251.953Z" fill="#E6E8E6"/>
<path id="Fill 102" fill-rule="evenodd" clip-rule="evenodd" d="M345.56 269.953L308.474 265.048C305.882 264.705 304 262.513 304 259.84C304 256.381 307.088 253.603 310.44 254.047L347.526 258.952C350.118 259.295 352 261.486 352 264.16C352 267.619 348.912 270.397 345.56 269.953Z" fill="#E6E8E6"/>
<path id="Fill 104" fill-rule="evenodd" clip-rule="evenodd" d="M309 210.581C309 199.275 318.177 189.626 329.5 189.029C340.822 188.432 350 197.114 350 208.419C350 219.725 340.822 229.374 329.5 229.971C318.177 230.567 309 221.887 309 210.581Z" fill="white"/>
<path id="Fill 106" fill-rule="evenodd" clip-rule="evenodd" d="M328.901 230C323.709 230 318.866 228.104 315.159 224.595C311.187 220.837 309 215.679 309 210.072C309 207.601 309.426 205.16 310.267 202.816C310.39 202.473 310.77 202.294 311.115 202.417C311.459 202.54 311.639 202.918 311.515 203.262C310.725 205.463 310.325 207.754 310.325 210.072C310.325 215.312 312.366 220.129 316.071 223.636C319.78 227.146 324.714 228.927 329.965 228.65C340.833 228.077 349.675 218.781 349.675 207.928C349.675 202.688 347.634 197.871 343.929 194.364C340.22 190.854 335.289 189.073 330.035 189.35C324.122 189.663 318.571 192.575 314.808 197.343C314.581 197.63 314.165 197.679 313.876 197.453C313.589 197.227 313.539 196.812 313.766 196.524C317.766 191.458 323.67 188.362 329.965 188.03C335.581 187.735 340.866 189.642 344.841 193.405C348.813 197.164 351 202.322 351 207.928C351 219.473 341.595 229.361 330.035 229.97C329.656 229.99 329.278 230 328.901 230Z" fill="#AA4465"/>
<path id="Fill 108" fill-rule="evenodd" clip-rule="evenodd" d="M316 224.962C319.654 228.34 324.579 230.267 330 229.97C335.422 229.674 340.346 227.207 344 223.429C339.772 222.302 335.023 221.799 330 222.074C324.978 222.349 320.228 223.372 316 224.962Z" fill="#AA4465"/>
<path id="Fill 110" fill-rule="evenodd" clip-rule="evenodd" d="M330 224.995C328.343 225.09 327 223.712 327 221.916V205.343L333 205V221.574C333 223.368 331.657 224.901 330 224.995Z" fill="white"/>
<path id="Fill 112" fill-rule="evenodd" clip-rule="evenodd" d="M342.629 210.672C342.221 205.646 344.49 202.378 339.403 196.939C334.135 191.307 329.615 195.501 329.615 195.501C329.615 195.501 325.848 192.628 320.902 199.299C316.538 205.187 322.128 209.971 320.249 213.594C318.371 217.216 312 219.469 312 219.469C312 219.469 314.042 223.369 316.574 225L343.446 223.609C343.446 223.609 349 217.393 349 215.71C349 215.71 343.038 215.698 342.629 210.672Z" fill="#2A2B2E"/>
<path id="Fill 114" fill-rule="evenodd" clip-rule="evenodd" d="M316 224.962C319.654 228.34 324.579 230.267 330 229.97C335.422 229.674 340.346 227.207 344 223.429C339.772 222.302 335.023 221.799 330 222.074C324.978 222.349 320.228 223.372 316 224.962Z" fill="#AA4465"/>
<path id="Fill 116" fill-rule="evenodd" clip-rule="evenodd" d="M317.551 224.746C321.027 227.513 325.387 228.892 329.955 228.649C334.535 228.404 338.912 226.547 342.404 223.39C338.5 222.497 334.341 222.162 330.023 222.393C325.673 222.626 321.483 223.417 317.551 224.746ZM328.921 230C324.027 230 319.41 228.245 315.816 224.998L315 224.261L316.028 223.883C320.39 222.279 325.076 221.334 329.955 221.072C334.835 220.812 339.524 221.255 343.891 222.392L345 222.682L344.189 223.502C340.342 227.39 335.311 229.687 330.023 229.97C329.655 229.99 329.287 230 328.921 230Z" fill="#AA4465"/>
<path id="Fill 118" fill-rule="evenodd" clip-rule="evenodd" d="M329.718 200.009L329.496 200.021L323 206.951V210.562C323 212.973 324.293 215.007 326.215 216.043V221.947C326.215 223.724 327.644 225.089 329.407 224.995C331.17 224.902 332.599 223.385 332.599 221.607V215.814C334.625 214.596 336 212.358 336 209.87V206.01C336 202.51 333.187 199.824 329.718 200.009Z" fill="white"/>
<path id="Fill 120" fill-rule="evenodd" clip-rule="evenodd" d="M329.82 226C328.825 226 327.897 225.657 327.184 225.024C326.421 224.345 326 223.416 326 222.407V216.875C326 216.521 326.307 216.234 326.685 216.234C327.062 216.234 327.369 216.521 327.369 216.875V222.407C327.369 223.06 327.638 223.658 328.126 224.092C328.615 224.528 329.268 224.751 329.963 224.713C331.434 224.64 332.631 223.459 332.631 222.079V216.642C332.631 216.287 332.937 216 333.315 216C333.693 216 334 216.287 334 216.642V222.079C334 224.13 332.222 225.886 330.036 225.994C329.963 225.998 329.891 226 329.82 226Z" fill="#2A2B2E"/>
<path id="Fill 122" fill-rule="evenodd" clip-rule="evenodd" d="M329.999 218C329.659 218 329.375 217.727 329.356 217.374C329.338 217.01 329.611 216.7 329.966 216.68C333.134 216.509 335.711 213.726 335.711 210.477V206.637C335.711 205.182 335.172 203.832 334.194 202.839C333.218 201.847 331.918 201.324 330.496 201.321L324.289 207.95V211.165C324.289 213.443 325.592 215.454 327.61 216.286C327.94 216.423 328.099 216.807 327.967 217.146C327.834 217.484 327.458 217.648 327.128 217.512C324.62 216.476 323 213.985 323 211.165V207.684C323 207.514 323.064 207.35 323.179 207.226L329.748 200.212C329.861 200.091 330.014 200.019 330.177 200.01C330.278 200.004 330.379 200.001 330.479 200C332.237 199.989 333.877 200.658 335.1 201.9C336.326 203.144 337 204.826 337 206.637V210.477C337 214.417 333.875 217.791 330.034 217.999C330.023 218 330.011 218 329.999 218Z" fill="#2A2B2E"/>
<path id="Fill 124" fill-rule="evenodd" clip-rule="evenodd" d="M146 229.721V149.856C146 148.757 147.004 147.873 148.091 148.015L284.551 165.862C285.391 165.972 286 166.668 286 167.517V272.144C286 273.244 284.997 274.127 283.909 273.985L147.449 256.138C146.61 256.028 146 255.332 146 254.483V229.721Z" fill="white"/>
<path id="Fill 126" fill-rule="evenodd" clip-rule="evenodd" d="M236 228L157 217.612V204L236 214.388V228Z" fill="#AA4465"/>
<path id="Fill 128" fill-rule="evenodd" clip-rule="evenodd" d="M271.472 234C271.365 234 271.258 233.993 271.15 233.978L212.445 225.992C212.082 225.943 211.827 225.604 211.875 225.235C211.924 224.866 212.261 224.604 212.622 224.657L271.327 232.643C271.655 232.688 271.99 232.58 272.251 232.347C272.518 232.111 272.672 231.777 272.672 231.431V221.437C272.672 220.913 272.305 220.484 271.8 220.417L211.577 212.342C211.213 212.294 210.958 211.955 211.006 211.586C211.054 211.217 211.391 210.958 211.751 211.006L271.974 219.08C273.148 219.237 274 220.229 274 221.437V231.431C274 232.165 273.681 232.869 273.126 233.362C272.66 233.775 272.071 234 271.472 234Z" fill="#AA4465"/>
<path id="Fill 130" fill-rule="evenodd" clip-rule="evenodd" d="M202.216 224C202.187 224 202.157 223.998 202.127 223.994L158.04 218.345C156.858 218.194 156 217.241 156 216.079V206.469C156 205.765 156.32 205.089 156.877 204.615C157.43 204.146 158.155 203.93 158.866 204.02L205.418 209.976C205.785 210.023 206.042 210.349 205.994 210.704C205.945 211.058 205.61 211.307 205.243 211.261L158.69 205.305C158.362 205.261 158.023 205.366 157.76 205.589C157.491 205.817 157.338 206.138 157.338 206.469V216.079C157.338 216.591 157.699 216.994 158.216 217.061L202.303 222.71C202.669 222.757 202.927 223.083 202.878 223.437C202.834 223.763 202.546 224 202.216 224Z" fill="#2A2B2E"/>
<path id="Fill 132" fill-rule="evenodd" clip-rule="evenodd" d="M266.534 197.954L212.492 190.816C209.89 190.48 208 188.335 208 185.718C208 182.331 211.101 179.611 214.466 180.046L268.509 187.184C271.11 187.52 273 189.665 273 192.282C273 195.669 269.9 198.388 266.534 197.954Z" fill="#E6E8E6"/>
<path id="Fill 134" fill-rule="evenodd" clip-rule="evenodd" d="M157 192.322V186.514L167.327 175.818C168.306 174.804 169.892 174.722 170.87 175.634L177.946 182.229C178.887 183.105 180.396 183.069 181.387 182.146L182.032 181.546C183.027 180.62 184.542 180.586 185.481 181.469L199.944 195.074L199.998 196.954C200.068 199.351 197.853 201.306 195.461 200.96L160.05 195.827C158.276 195.57 157 194.102 157 192.322Z" fill="#AA4465"/>
<path id="Fill 136" fill-rule="evenodd" clip-rule="evenodd" d="M195.973 200.643C196.876 200.776 197.801 200.497 198.519 199.879C199.249 199.253 199.668 198.359 199.668 197.429V169.675C199.668 168.215 198.621 167.025 197.18 166.845L161.257 162.348C160.372 162.238 159.461 162.522 158.76 163.131C158.048 163.749 157.634 164.626 157.624 165.537L157.333 192.491C157.317 193.937 158.338 195.138 159.759 195.346L195.973 200.643ZM196.415 202C196.203 202 195.991 201.985 195.779 201.954L159.566 196.657C157.477 196.351 155.977 194.593 156.001 192.476L156.292 165.523C156.306 164.234 156.886 162.998 157.884 162.133C158.871 161.276 160.162 160.877 161.424 161.033L197.346 165.53C199.463 165.795 201 167.538 201 169.675V197.429C201 198.745 200.413 200.004 199.389 200.883C198.545 201.608 197.488 202 196.415 202Z" fill="#2A2B2E"/>
<path id="Fill 138" fill-rule="evenodd" clip-rule="evenodd" d="M195 174.789C195 176.995 193.209 178.878 191 178.994C188.791 179.111 187 177.417 187 175.211C187 173.005 188.791 171.122 191 171.006C193.209 170.889 195 172.583 195 174.789Z" fill="#AA4465"/>
<path id="Fill 140" fill-rule="evenodd" clip-rule="evenodd" d="M285.338 265C284.972 265 284.675 264.704 284.675 264.338V167.826C284.675 166.89 284.009 166.123 283.09 166.002L148.694 148.34C148.116 148.264 147.519 148.452 147.06 148.855C146.592 149.264 146.325 149.843 146.325 150.443V229.459C146.325 229.825 146.028 230.121 145.662 230.121C145.296 230.121 145 229.825 145 229.459V150.443C145 149.462 145.432 148.52 146.186 147.86C146.932 147.206 147.908 146.902 148.866 147.028L283.263 164.69C284.849 164.899 286 166.217 286 167.826V264.338C286 264.704 285.704 265 285.338 265Z" fill="#2A2B2E"/>
<path id="Fill 142" fill-rule="evenodd" clip-rule="evenodd" d="M133 255L38 240.908V132L133 146.093V255Z" fill="white"/>
<path id="Fill 144" fill-rule="evenodd" clip-rule="evenodd" d="M133.336 228C132.969 228 132.671 227.703 132.671 227.337V147.883C132.671 147.366 132.319 146.954 131.815 146.88L39.686 133.338C39.3596 133.289 39.019 133.393 38.7546 133.621C38.4836 133.854 38.3286 134.185 38.3286 134.527V146.436C38.3286 146.802 38.031 147.099 37.6643 147.099C37.2972 147.099 37 146.802 37 146.436V134.527C37 133.799 37.3228 133.103 37.8862 132.618C38.4433 132.137 39.1709 131.921 39.88 132.026L132.009 145.568C133.162 145.738 134 146.711 134 147.883V227.337C134 227.703 133.703 228 133.336 228Z" fill="#2A2B2E"/>
<path id="Fill 146" fill-rule="evenodd" clip-rule="evenodd" d="M37.5 231C37.2237 231 37 230.702 37 230.335V198.665C37 198.297 37.2237 198 37.5 198C37.776 198 38 198.297 38 198.665V230.335C38 230.702 37.776 231 37.5 231Z" fill="#2A2B2E"/>
<path id="Fill 148" fill-rule="evenodd" clip-rule="evenodd" d="M122 205.631C122 209.491 118.866 212.786 115 212.99C111.134 213.194 108 210.23 108 206.369C108 202.509 111.134 199.214 115 199.01C118.866 198.806 122 201.77 122 205.631Z" fill="#E6E8E6"/>
<path id="Fill 150" fill-rule="evenodd" clip-rule="evenodd" d="M97.274 327L98 342L91.0648 341.924L89 327.435L97.274 327Z" fill="white"/>
<path id="Fill 152" fill-rule="evenodd" clip-rule="evenodd" d="M91.4966 340.61L97.5797 340.671L96.8765 327.354L89.4889 327.71L91.4966 340.61ZM98.3083 342H98.301L90.8912 341.926C90.5512 341.922 90.2641 341.684 90.2143 341.362L88.0073 327.183C87.9791 326.999 88.0336 326.812 88.1572 326.667C88.2804 326.523 88.4627 326.436 88.6574 326.426L97.4981 326C97.6845 325.995 97.8607 326.052 97.9973 326.17C98.1335 326.288 98.2151 326.452 98.2244 326.627L98.9991 341.306C99.0088 341.488 98.9396 341.666 98.8071 341.797C98.6766 341.927 98.4966 342 98.3083 342Z" fill="#2A2B2E"/>
<path id="Fill 154" fill-rule="evenodd" clip-rule="evenodd" d="M90.8279 360.945C93.7853 361.109 101.912 360.948 104.171 359.843C106.162 358.869 107.742 354.682 106.635 353.201C103.865 349.497 101.779 342.936 99.9997 337.817C99.8986 337.527 99.4978 337.487 99.3381 337.752L97.9124 340.118L96.6492 337.486C96.4516 337.195 96.1244 337.015 95.7692 337L93.2329 337.079C92.6516 337.055 92.055 337.637 91.7355 338.175L90.0255 340.509L88.9171 338.728C88.7312 338.429 88.2641 338.541 88.2397 338.891L87 356.225C87.0803 358.995 89.1085 360.85 90.8279 360.945Z" fill="white"/>
<path id="Fill 156" fill-rule="evenodd" clip-rule="evenodd" d="M90.4676 359.636C93.7691 359.821 101.319 359.567 103.256 358.616C104.166 358.169 105.139 356.668 105.518 355.124C105.743 354.205 105.713 353.405 105.439 353.037C102.931 349.672 101.036 344.141 99.3643 339.261C99.2529 338.936 99.1433 338.614 99.0346 338.298L97.9698 340.07C97.8442 340.279 97.6019 340.399 97.3663 340.391C97.1199 340.38 96.9002 340.235 96.7955 340.015L95.5795 337.472C95.5062 337.382 95.397 337.324 95.2803 337.314L92.8163 337.391C92.8003 337.392 92.7839 337.392 92.7674 337.391C92.7648 337.391 92.7621 337.391 92.7599 337.391C92.5624 337.391 92.1643 337.698 91.898 338.149C91.8869 338.167 91.8754 338.185 91.8634 338.202L90.1809 340.505C90.0513 340.683 89.8427 340.794 89.6159 340.777C89.3931 340.769 89.1894 340.651 89.0727 340.464L88.4815 339.51L87.332 355.645C87.4186 358.107 89.2369 359.568 90.4676 359.636ZM92.7896 361C91.8123 361 90.9766 360.98 90.3921 360.947C88.3426 360.833 86.0884 358.677 86.0001 355.651C85.9997 355.629 85.9997 355.608 86.0015 355.586L87.2206 338.478C87.2521 338.037 87.5659 337.67 88.0004 337.565C88.4349 337.461 88.8849 337.643 89.1193 338.02L89.6865 338.936L90.7649 337.458C91.1586 336.808 91.9042 336.077 92.7608 336.077C92.7719 336.077 92.7839 336.078 92.7954 336.078L95.2683 336.001C95.2848 336 95.3016 336 95.3185 336.001C95.8773 336.025 96.397 336.313 96.7085 336.772C96.7272 336.799 96.7436 336.828 96.7578 336.857L97.4643 338.335L98.2268 337.064C98.4332 336.721 98.8109 336.531 99.2156 336.573C99.6177 336.614 99.9488 336.874 100.08 337.252C100.259 337.768 100.441 338.299 100.626 338.84C102.267 343.63 104.126 349.058 106.512 352.259C107.035 352.961 107.142 354.089 106.812 355.433C106.421 357.023 105.327 359.066 103.849 359.791C101.947 360.725 96.4032 361 92.7896 361Z" fill="#2A2B2E"/>
<path id="Fill 158" fill-rule="evenodd" clip-rule="evenodd" d="M94.8949 358C91.7515 358 89.6353 357.539 89.4893 357.506C89.1341 357.426 88.9263 357.129 89.0242 356.842C89.1226 356.554 89.4897 356.387 89.8449 356.465C89.9018 356.478 95.5878 357.707 102.13 356.026C102.481 355.935 102.857 356.092 102.969 356.376C103.08 356.661 102.885 356.964 102.534 357.055C99.7072 357.781 97.0578 358 94.8949 358Z" fill="#2A2B2E"/>
<path id="Fill 160" fill-rule="evenodd" clip-rule="evenodd" d="M92.6806 350C92.3199 350 92.0191 349.667 92.0009 349.237C91.9814 348.795 92.2713 348.418 92.647 348.395L99.284 348.001C99.6588 347.983 99.98 348.319 99.9991 348.762C100.018 349.205 99.7288 349.582 99.353 349.604L92.7156 349.999C92.7038 349.999 92.6924 350 92.6806 350Z" fill="#2A2B2E"/>
<path id="Fill 162" fill-rule="evenodd" clip-rule="evenodd" d="M45 322L43.7659 339.896L36.9116 340L36 322.441L45 322Z" fill="white"/>
<path id="Fill 164" fill-rule="evenodd" clip-rule="evenodd" d="M36.352 322.706L37.1661 338.684L42.5324 338.601L43.6324 322.342L36.352 322.706ZM36.5389 340C36.1879 340 35.8981 339.728 35.8805 339.38L35.0008 322.119C34.992 321.946 35.0532 321.776 35.1702 321.648C35.288 321.519 35.4517 321.442 35.6267 321.434L44.3071 321C44.4989 320.994 44.6787 321.062 44.8102 321.195C44.9426 321.328 45.0112 321.51 44.9985 321.697L43.8079 339.289C43.7846 339.627 43.5035 339.892 43.16 339.898L36.549 340H36.5389Z" fill="#2A2B2E"/>
<path id="Fill 166" fill-rule="evenodd" clip-rule="evenodd" d="M45.4291 335.059C45.4291 335.059 46.0932 342.882 45.9889 346.053C45.9145 348.322 43.1265 355.302 41.5469 359.088C40.8971 360.646 39.4463 361.896 37.9625 362.31C35.1692 363.089 33.7995 363.122 31.1756 362.833C27.6429 362.443 26.3918 359.33 27.2707 356.245C28.0815 353.399 29.5104 350.242 31.9378 346.325C33.6974 343.485 35.0176 335.271 35.0176 335.271L40.4669 335L42.2369 339.432L45.4291 335.059Z" fill="white"/>
<path id="Fill 168" fill-rule="evenodd" clip-rule="evenodd" d="M36.1037 336.546C35.7811 338.418 34.6121 344.699 33.0748 347.195C30.8205 350.852 29.385 353.918 28.5566 356.843C28.1169 358.394 28.2795 359.894 29.0019 360.959C29.6068 361.851 30.5869 362.395 31.8374 362.534C34.339 362.811 35.6176 362.778 38.2598 362.037C39.5674 361.67 40.8113 360.542 41.3553 359.23C44.0497 352.735 45.6237 348.118 45.6746 346.564C45.7447 344.416 45.4497 340.007 45.2647 337.538L43.1752 340.418C43.035 340.612 42.7974 340.714 42.5603 340.684C42.3222 340.654 42.1184 340.498 42.0303 340.275L40.4629 336.328L36.1037 336.546ZM34.2057 364C33.4426 364 32.6448 363.937 31.691 363.832C30.0456 363.649 28.738 362.908 27.9109 361.688C26.9729 360.305 26.7467 358.41 27.2911 356.49C28.1529 353.446 29.634 350.276 31.9527 346.513C33.5956 343.846 34.8799 335.898 34.8926 335.818C34.9417 335.513 35.199 335.284 35.5089 335.268L40.8683 335C41.1467 334.994 41.4092 335.153 41.5131 335.413L42.8123 338.685L45.2477 335.329C45.409 335.107 45.6917 335.008 45.9569 335.082C46.2216 335.155 46.4136 335.384 46.436 335.656C46.4631 335.974 47.0913 343.468 46.9887 346.606C46.9164 348.823 44.5468 354.965 42.5712 359.727C41.8712 361.416 40.3187 362.816 38.6171 363.293C36.805 363.802 35.5606 364 34.2057 364Z" fill="#2A2B2E"/>
<path id="Fill 170" fill-rule="evenodd" clip-rule="evenodd" d="M32.9278 361C32.1143 361 31.2062 360.919 30.4443 360.66C30.1034 360.545 29.9195 360.172 30.034 359.827C30.1481 359.483 30.5158 359.295 30.8571 359.412C32.0644 359.821 33.9556 359.679 34.6824 359.546C35.94 359.316 37.0801 358.642 37.8933 357.651C38.5828 356.809 39.0776 356.044 39.3638 355.376C39.9479 354.013 40.5382 352.459 40.9688 351.325C41.6639 349.495 41.7342 349.334 41.9129 349.17C42.1796 348.926 42.5911 348.947 42.8318 349.216C43.0443 349.454 43.0534 349.805 42.8708 350.052C42.7728 350.245 42.4731 351.034 42.183 351.798C41.7485 352.943 41.1527 354.511 40.5568 355.9C40.222 356.683 39.6622 357.554 38.8937 358.492C37.8863 359.721 36.4726 360.556 34.9136 360.842C34.548 360.909 33.7908 361 32.9278 361Z" fill="#2A2B2E"/>
<path id="Fill 172" fill-rule="evenodd" clip-rule="evenodd" d="M31.6399 354C31.3012 354 31.0184 353.661 31.0008 353.225C30.9829 352.774 31.2554 352.391 31.6083 352.369L37.3268 352.001C37.6758 351.977 37.9812 352.326 37.9992 352.776C38.0171 353.226 37.745 353.609 37.3913 353.632L31.6732 353.999C31.6621 353.999 31.651 354 31.6399 354Z" fill="#2A2B2E"/>
<path id="Fill 174" fill-rule="evenodd" clip-rule="evenodd" d="M101.386 178.799C101.386 178.799 103.418 233.072 102.922 268.498C102.495 298.96 100.119 323.36 99.4614 329.597C99.3621 330.543 98.6555 331.314 97.7202 331.487C95.8803 331.828 92.6887 332.245 89.5763 331.82C88.7133 331.702 87.9987 331.092 87.7683 330.252C86.1189 324.249 79.3523 299.133 78.8623 289.432C78.3316 278.919 80.0847 276.188 79.8658 267.609C79.7019 261.185 76.4004 238.477 74.7514 227.467C74.5347 226.021 72.503 225.88 72.0918 227.285C69.104 237.492 62.7508 259.55 56.904 282.155C56.6045 283.315 55.3255 293.129 55.0335 294.27C51.417 308.39 47.9152 319.743 46.7545 326.352C46.5671 327.422 45.7448 328.274 44.6824 328.501C42.6333 328.939 39.1772 329.416 36.048 328.599C34.9227 328.306 34.1332 327.294 34.0849 326.132C33.7823 318.937 32.6978 292.193 33.081 287.673C33.9033 277.979 40.944 268.121 41.7787 257.826C42.6134 247.531 42.1008 221.826 45.0435 206.244C47.9861 190.663 54.4102 173 54.4102 173L101.386 178.799Z" fill="#2A2B2E"/>
<path id="Fill 176" fill-rule="evenodd" clip-rule="evenodd" d="M73.1045 76.1673C76.8483 73.7018 83.096 75.03 85.5013 81.2232C87.4652 86.2823 83.0707 90.1877 81.9574 93.919C78.3562 105.988 90.0064 131.748 82.0921 144.9C75.7777 155.394 58.2158 163.133 43.0689 156.589C28.6664 150.367 18.8752 135.392 24.7177 123.132C29.9699 112.112 39.893 117.324 45.9185 106.461C51.8587 95.7511 46.4056 90.7098 50.7508 85.3485C56.6927 78.0167 62.4929 83.1551 73.1045 76.1673Z" fill="#2A2B2E"/>
<path id="Fill 178" fill-rule="evenodd" clip-rule="evenodd" d="M52.6534 202C52.4088 202 52.1733 201.864 52.0623 201.632C51.9087 201.311 52.0488 200.929 52.3753 200.778C61.4183 196.599 63.6898 187.584 63.7116 187.493C63.7952 187.149 64.1469 186.935 64.4977 187.018C64.8489 187.1 65.0657 187.445 64.9821 187.79C64.8868 188.184 62.5373 197.499 52.9311 201.939C52.8414 201.98 52.7465 202 52.6534 202Z" fill="white"/>
<path id="Fill 180" fill-rule="evenodd" clip-rule="evenodd" d="M137.642 65.1833L135.377 72.7258C134.631 75.0633 135.005 77.6314 136.383 79.6338L138.923 83.4218C139.343 84.0493 139.46 84.8081 139.473 85.5731C139.505 87.2853 139.257 89.8968 139.257 89.8968L145.308 90C145.308 90 144.643 86.6841 144.338 85.545C143.947 84.0875 143.936 82.4952 144.547 81.122C146.491 76.754 145.923 72.3688 145.923 72.3688L141.778 73.5185C141.778 73.5185 140.495 71.2508 140.737 67.2907C140.796 66.3219 140.698 65.5838 140.51 65.0217C140.026 63.5739 138.007 63.6981 137.642 65.1833Z" fill="white"/>
<path id="Fill 182" fill-rule="evenodd" clip-rule="evenodd" d="M139.914 89.608L144.761 89.6844C144.532 88.6458 144.134 86.8736 143.917 86.1205C143.423 84.4008 143.514 82.6885 144.176 81.3005C145.636 78.2427 145.698 75.1375 145.635 73.7534L142.024 74.6878C141.733 74.7629 141.425 74.6405 141.272 74.3888C141.212 74.2903 139.811 71.9282 140.078 67.8617C140.13 67.0669 140.062 66.3981 139.874 65.8738C139.675 65.3186 139.155 65.2978 138.994 65.3026C138.654 65.3165 138.246 65.5022 138.119 65.9814C138.116 65.9923 138.113 66.0031 138.11 66.014L135.709 73.4691C134.986 75.5859 135.35 77.9202 136.681 79.724L139.377 83.475C139.981 84.3145 140.068 85.2958 140.081 85.9612C140.104 87.1409 139.99 88.7113 139.914 89.608ZM145.592 91H145.581L139.17 90.8984C138.982 90.8954 138.804 90.8168 138.679 90.6805C138.554 90.5451 138.494 90.365 138.512 90.1836C138.515 90.158 138.77 87.6197 138.739 85.986C138.723 85.1986 138.576 84.6374 138.276 84.2194L135.584 80.4754C134.009 78.3403 133.576 75.5698 134.431 73.0702L136.823 65.6407C137.079 64.7006 137.927 64.0425 138.937 64.0017C139.951 63.9644 140.814 64.5278 141.143 65.4467C141.389 66.1355 141.482 66.9758 141.419 67.9446C141.242 70.6504 141.867 72.4977 142.215 73.2911L146.07 72.2932C146.257 72.2455 146.455 72.2767 146.616 72.3805C146.776 72.4842 146.883 72.6496 146.909 72.8354C146.935 73.0198 147.513 77.4084 145.396 81.8474C144.867 82.955 144.802 84.3483 145.212 85.7707C145.537 86.9044 146.221 90.0811 146.249 90.2161C146.291 90.4097 146.239 90.6111 146.11 90.7639C145.982 90.9132 145.792 91 145.592 91Z" fill="#2A2B2E"/>
<path id="Fill 184" fill-rule="evenodd" clip-rule="evenodd" d="M96 113.193C101.484 113.809 118.014 121.215 127.649 111.185C137.285 101.155 137.761 87.8253 137.761 87.8253L147.188 87C147.188 87 153.676 102.636 146.942 120.859C140.07 139.46 106.96 146 106.96 146L96 113.193Z" fill="#AA4465"/>
<path id="Fill 186" fill-rule="evenodd" clip-rule="evenodd" d="M107.464 118.059C96.1777 111.312 75.9696 111.879 65.9223 116.441C48.1021 124.534 37.8825 188.856 43.5818 202.722C48.7863 215.386 93.0914 218.077 105.389 207.242C110.629 202.626 108.89 175.093 107.966 164.089C107.685 160.744 107.544 157.392 107.536 154.035L107.464 118.059Z" fill="#AA4465"/>
<path id="Fill 188" fill-rule="evenodd" clip-rule="evenodd" d="M68.9657 97.3272C69.3537 97.3436 69.6625 97.0169 69.6205 96.6271C69.4223 94.7779 68.8316 91.3087 70.5974 89.7521C72.861 87.7566 76.6306 84.7218 78.0915 86.5781C79.3719 88.2057 80.6656 91.5082 83.7583 92.7367C84.0547 92.8542 84.0839 93.2834 83.9517 93.5738L83.3039 95.2195C83.1557 95.5454 83.2858 96.3017 83.4247 96.6342C83.8534 97.6606 84.8458 99.8015 84.6534 100.251C84.2782 101.127 80.901 102.691 80.901 102.691L83.1353 113.154C83.2203 113.551 83.4849 114.209 83.8742 114.111L88 114.418C88 114.418 87.7429 120.089 78.9706 121.654C67.507 123.7 66 115.995 66 115.995C66 115.995 77.2075 115.817 72.3269 103.572C72.2194 103.303 71.9756 103.112 71.6916 103.068C70.601 102.902 67.587 102.308 67.0145 100.363C66.4066 98.2986 67.6366 97.27 68.9657 97.3272Z" fill="white"/>
<path id="Fill 190" fill-rule="evenodd" clip-rule="evenodd" d="M68.6064 96.2283L68.5785 96.8871L68.6068 96.2283H68.6064ZM66.5207 115.979C67.206 117.72 69.769 121.888 78.3286 120.352C84.6935 119.21 86.2177 115.851 86.5807 114.432L83.3058 114.187C83.0894 114.212 82.8721 114.16 82.6802 114.038C82.1571 113.71 81.9582 112.94 81.9098 112.712L79.7063 102.341C79.6426 102.04 79.7944 101.734 80.0714 101.605C81.6127 100.888 83.1199 99.9676 83.4131 99.5739C83.3651 99.1076 82.7386 97.6447 82.4638 97.0027C82.377 96.8001 82.2976 96.6142 82.2308 96.4547C82.0838 96.0996 81.8504 95.1205 82.1205 94.525L82.7456 92.9245C82.7526 92.91 82.7574 92.896 82.7618 92.8837C80.3798 91.8628 79.0641 89.7539 78.0023 88.0519C77.6703 87.5202 77.3575 87.0179 77.0622 86.6413C76.909 86.4457 76.7254 86.3486 76.4658 86.3244C75.3569 86.2255 73.3916 87.4169 70.6192 89.8734C69.2874 91.0547 69.618 93.9032 69.8157 95.6056C69.8375 95.7884 69.8575 95.962 69.8746 96.1229C69.9147 96.4973 69.7921 96.8686 69.5382 97.1415C69.2839 97.4149 68.9222 97.5542 68.5497 97.5458C68.072 97.5212 67.6593 97.6948 67.4141 98.0116C67.1148 98.397 67.0695 98.9841 67.2819 99.7101C67.7348 101.256 70.5211 101.797 71.3639 101.926C71.8734 102.004 72.3088 102.352 72.4999 102.832C74.138 106.964 74.1808 110.249 72.6281 112.598C70.9722 115.103 67.9882 115.791 66.5207 115.979ZM74.8836 122C66.3824 122 65.0265 115.591 65.0121 115.518C64.9751 115.326 65.0239 115.128 65.1456 114.976C65.2678 114.824 65.4501 114.735 65.6438 114.731C65.6835 114.731 69.7236 114.622 71.5428 111.861C72.8384 109.895 72.7516 107.022 71.2845 103.322C71.2653 103.274 71.2191 103.237 71.1672 103.23C69.5181 102.977 66.6564 102.233 66.0268 100.083C65.6006 98.6282 65.985 97.7119 66.3824 97.1995C66.8876 96.5491 67.6898 96.1989 68.5811 96.2275C68.5553 96.0965 68.5366 95.9321 68.5165 95.759C68.274 93.6734 67.9071 90.5212 69.755 88.8838C72.937 86.0643 75.0445 84.8663 76.5845 85.0118C77.197 85.068 77.7179 85.3488 78.09 85.8248C78.4285 86.2572 78.7592 86.788 79.1099 87.3501C80.0945 88.9282 81.3195 90.8912 83.4052 91.7244C83.6709 91.8303 83.8794 92.0426 83.9911 92.3207C84.1255 92.6578 84.1102 93.0867 83.9501 93.44L83.3245 95.0405C83.2774 95.1947 83.335 95.6962 83.4384 95.9449C83.5029 96.1013 83.581 96.2828 83.6657 96.4806C84.5905 98.6409 84.878 99.504 84.6477 100.045C84.279 100.912 82.3033 101.986 81.0948 102.576L83.1897 112.437C83.2268 112.611 83.2931 112.774 83.3463 112.868L87.3943 113.171C87.7472 113.197 88.015 113.501 87.9993 113.858C87.988 114.109 87.6185 120.024 78.5581 121.65C77.2057 121.892 75.9838 122 74.8836 122Z" fill="#2A2B2E"/>
<path id="Fill 192" fill-rule="evenodd" clip-rule="evenodd" d="M112.865 182.493C112.865 182.493 119.618 180.065 124.3 181.401C124.3 181.401 125 184.363 127.022 185.682C129.045 187.001 133.992 187.612 134.937 190.459C135.881 193.306 125.983 196.047 122.449 194.601C118.916 193.156 115.726 189.56 112.373 189.731C109.019 189.902 112.865 182.493 112.865 182.493Z" fill="white"/>
<path id="Fill 194" fill-rule="evenodd" clip-rule="evenodd" d="M113.23 188.533C115.4 188.533 117.458 189.889 119.451 191.203C120.671 192.006 121.931 192.836 123.197 193.35C125.676 194.353 132.157 193.021 134.205 191.087C134.594 190.719 134.744 190.395 134.653 190.122C134.124 188.544 131.861 187.722 129.863 186.998C128.812 186.616 127.819 186.255 127.108 185.796C125.354 184.663 124.525 182.491 124.247 181.6C120.385 180.69 115.135 182.277 113.953 182.664C112.994 184.566 111.909 187.536 112.437 188.366C112.475 188.425 112.559 188.558 112.97 188.54C113.057 188.536 113.144 188.533 113.23 188.533ZM125.493 195C124.399 195 123.425 194.867 122.704 194.575C121.316 194.013 120 193.146 118.727 192.307C116.744 191.001 114.866 189.764 113.037 189.86C112.068 189.913 111.572 189.461 111.327 189.077C110.164 187.253 112.439 182.707 112.907 181.815C112.983 181.668 113.113 181.555 113.27 181.5C113.55 181.4 120.187 179.07 124.956 180.419C125.187 180.484 125.363 180.668 125.419 180.901C125.425 180.927 126.078 183.558 127.822 184.685C128.407 185.063 129.332 185.399 130.312 185.754C132.59 186.581 135.171 187.518 135.902 189.701C136.088 190.255 136.101 191.112 135.108 192.049C133.297 193.76 128.835 195 125.493 195Z" fill="#2A2B2E"/>
<path id="Fill 196" fill-rule="evenodd" clip-rule="evenodd" d="M67.7871 146L75.5657 164.084C77.1737 167.823 80.3063 170.681 84.1602 171.926L114 181.564L113.302 192C113.302 192 74.1006 188.296 67.3208 183.263C60.9757 178.553 53 156.816 53 156.816L67.7871 146Z" fill="#AA4465"/>
<path id="Fill 198" fill-rule="evenodd" clip-rule="evenodd" d="M114.333 182C114.266 182 114.197 181.99 114.13 181.968L83.9964 172.302C79.9221 170.995 76.6099 167.994 74.9092 164.067L67.0551 145.931C66.9089 145.593 67.0635 145.202 67.4015 145.055C67.7395 144.909 68.1308 145.064 68.2774 145.402L76.132 163.538C77.6804 167.112 80.6949 169.844 84.4037 171.033L114.537 180.699C114.887 180.812 115.08 181.187 114.968 181.537C114.877 181.82 114.615 182 114.333 182Z" fill="#2A2B2E"/>
<path id="Fill 200" fill-rule="evenodd" clip-rule="evenodd" d="M104.341 191C104.315 191 104.289 190.999 104.263 190.995C89.8525 189.251 71.712 186.443 67.1301 182.975C65.0953 181.434 62.7227 178.077 60.0779 172.997C59.9063 172.667 60.0277 172.256 60.3488 172.08C60.6699 171.904 61.0702 172.028 61.2417 172.358C63.7929 177.26 66.0379 180.465 67.9134 181.884C71.3069 184.453 84.2712 187.211 104.417 189.65C104.779 189.694 105.038 190.031 104.995 190.402C104.956 190.746 104.671 191 104.341 191Z" fill="#2A2B2E"/>
<path id="Fill 202" fill-rule="evenodd" clip-rule="evenodd" d="M189.868 143.135C188.714 138.338 175.121 136.756 173.613 139.009C170.11 144.242 164.1 157.364 160.886 164.585C159.449 167.815 156.983 170.483 153.866 172.185L135.729 182.084C134.763 181.838 125.885 179.589 125 179.774C124.063 179.969 122.956 181.706 120.63 183.009C118.306 184.312 116.552 185.092 117.102 186.103C117.59 187.002 121.951 186.651 125.02 185.311C125.638 185.041 126.367 185.204 126.822 185.7C127.918 186.895 132.731 189.02 137.053 189L166.131 184.264C169.159 183.77 171.825 182.003 173.438 179.412C178.991 170.493 191.413 149.557 189.868 143.135Z" fill="white"/>
<path id="Fill 204" fill-rule="evenodd" clip-rule="evenodd" d="M125.288 184.797C125.903 184.797 126.509 185.057 126.946 185.541C127.81 186.502 132.335 188.667 136.58 188.667H136.587L165.479 183.877C168.308 183.408 170.794 181.729 172.298 179.27C183.518 160.927 189.602 147.377 188.572 143.022C188.132 141.161 185.079 139.461 180.793 138.69C176.78 137.971 173.982 138.45 173.583 139.057C170.132 144.304 164.199 157.48 160.969 164.868C159.489 168.252 156.906 171.098 153.695 172.882L135.641 182.911C135.494 182.992 135.321 183.014 135.159 182.972C130.511 181.768 125.442 180.571 124.755 180.643C124.515 180.695 124.041 181.133 123.54 181.597C122.81 182.272 121.904 183.112 120.619 183.844C120.334 184.007 120.057 184.162 119.792 184.311C118.789 184.871 117.29 185.709 117.351 186.05C117.966 186.463 121.582 186.238 124.398 184.986C124.685 184.859 124.987 184.797 125.288 184.797ZM136.583 190C132.283 190 127.268 187.88 125.97 186.439C125.707 186.147 125.279 186.051 124.93 186.207C122.068 187.478 117.031 188.269 116.201 186.715C115.411 185.236 117.062 184.313 119.153 183.144C119.414 182.997 119.689 182.844 119.971 182.683C121.123 182.026 121.969 181.243 122.649 180.614C123.342 179.973 123.89 179.465 124.508 179.334C125.363 179.151 130.756 180.458 135.234 181.615L153.059 171.714C156.018 170.07 158.398 167.447 159.762 164.329C163.009 156.903 168.979 143.649 172.484 138.319C173.633 136.572 178.393 136.906 181.024 137.378C182.879 137.711 188.997 139.081 189.856 142.712C191.397 149.233 180.22 168.854 173.421 179.97C171.716 182.757 168.898 184.661 165.693 185.193L136.749 189.991C136.695 190 136.64 190 136.583 190Z" fill="#2A2B2E"/>
<path id="Fill 206" fill-rule="evenodd" clip-rule="evenodd" d="M247 328.736L246.376 339.757L238.685 341L238 328L247 328.736Z" fill="white"/>
<path id="Fill 208" fill-rule="evenodd" clip-rule="evenodd" d="M239.328 328.406L239.916 340.541L246.134 339.45L246.676 329.058L239.328 328.406ZM239.308 342C239.162 342 239.019 341.949 238.903 341.852C238.76 341.732 238.672 341.554 238.663 341.362L238.001 327.706C237.992 327.512 238.063 327.324 238.197 327.189C238.331 327.054 238.515 326.984 238.701 327.003L247.409 327.776C247.757 327.806 248.018 328.119 247.999 328.481L247.396 340.059C247.379 340.373 247.156 340.633 246.858 340.685L239.415 341.991C239.379 341.997 239.344 342 239.308 342Z" fill="#2A2B2E"/>
<path id="Fill 210" fill-rule="evenodd" clip-rule="evenodd" d="M238.186 360.803C241.483 361.089 246.872 361.219 253.132 360.068C255.183 359.69 256.451 357.685 255.851 355.75C254.178 350.359 251.248 340.124 246.893 335.526L246.009 338.178L244.474 335.796C244.263 335.47 243.905 335.26 243.509 335.232L240.405 335.003C239.757 334.956 239.179 335.398 239.078 336.019L238.704 338.301L237.474 335.39L235.012 357.144C234.856 359 236.269 360.637 238.186 360.803Z" fill="#AA4465"/>
<path id="Fill 212" fill-rule="evenodd" clip-rule="evenodd" d="M238.479 337.776L236.341 357.447C236.22 358.961 237.35 360.32 238.862 360.456C242.161 360.754 247.358 360.867 253.387 359.712C254.168 359.562 254.851 359.084 255.263 358.402C255.677 357.713 255.779 356.909 255.55 356.138L255.195 354.94C253.649 349.701 251.131 341.165 247.637 336.576L247.137 338.136C247.058 338.385 246.841 338.565 246.584 338.597C246.328 338.631 246.075 338.507 245.937 338.286L244.426 335.844C244.331 335.691 244.169 335.592 243.991 335.579L240.936 335.345C240.647 335.32 240.384 335.532 240.339 335.822L239.971 338.161C239.924 338.459 239.687 338.688 239.39 338.723C239.092 338.758 238.809 338.588 238.695 338.31L238.479 337.776ZM243.395 362C241.602 362 240.032 361.911 238.743 361.795C236.506 361.593 234.832 359.585 235.013 357.319L237.439 334.998C237.473 334.692 237.708 334.448 238.01 334.406C238.312 334.363 238.604 334.532 238.719 334.817L239.028 335.576C239.196 334.619 240.072 333.937 241.037 334.005L244.092 334.238C244.691 334.284 245.238 334.618 245.557 335.132L246.308 336.347L246.738 335.005C246.811 334.777 246.999 334.605 247.23 334.554C247.462 334.505 247.704 334.58 247.864 334.757C251.961 339.263 254.786 348.837 256.473 354.557L256.827 355.751C257.161 356.876 257.007 358.096 256.403 359.099C255.796 360.107 254.788 360.811 253.637 361.032C249.81 361.765 246.309 362 243.395 362Z" fill="#2A2B2E"/>
<path id="Fill 214" fill-rule="evenodd" clip-rule="evenodd" d="M245.23 358C240.95 358 237.722 357.379 237.511 357.338C237.155 357.268 236.935 356.967 237.017 356.666C237.1 356.364 237.454 356.176 237.81 356.246C237.888 356.262 245.806 357.779 253.161 356.021C253.512 355.938 253.877 356.11 253.975 356.409C254.074 356.706 253.87 357.016 253.519 357.1C250.66 357.783 247.761 358 245.23 358Z" fill="#2A2B2E"/>
<path id="Fill 216" fill-rule="evenodd" clip-rule="evenodd" d="M241.698 349C241.319 349 241.008 348.801 241 348.551C240.994 348.299 241.301 348.091 241.687 348.086L249.29 348C249.68 347.999 249.993 348.196 250 348.449C250.007 348.701 249.699 348.909 249.314 348.914L241.71 349H241.698Z" fill="#2A2B2E"/>
<path id="Fill 218" fill-rule="evenodd" clip-rule="evenodd" d="M211 324L210.68 340.537L201.287 341L200 324.542L211 324Z" fill="white"/>
<path id="Fill 220" fill-rule="evenodd" clip-rule="evenodd" d="M201.358 325.793L202.508 340.675L210.392 340.282L210.678 325.328L201.358 325.793ZM201.904 342C201.564 342 201.278 341.741 201.252 341.402L200.002 325.23C199.988 325.056 200.047 324.884 200.163 324.753C200.28 324.622 200.445 324.543 200.621 324.534L211.313 324.001C211.497 323.99 211.671 324.058 211.801 324.183C211.931 324.307 212.004 324.48 212 324.659L211.689 340.91C211.682 341.25 211.411 341.527 211.068 341.544L201.937 341.999C201.926 342 201.915 342 201.904 342Z" fill="#2A2B2E"/>
<path id="Fill 222" fill-rule="evenodd" clip-rule="evenodd" d="M213.993 349.857C214.096 351.402 213.088 352.811 211.568 353.238C206.284 354.721 194.378 358.029 190.969 358.7C186.543 359.57 180.993 358.503 178.506 356.065C176.018 353.627 183.336 347.151 186.844 344.753C192.055 341.19 196.889 334.419 199.042 334.019C201.194 333.619 205.558 339.578 205.558 339.578L212.032 336.53C212.032 336.53 213.47 342.024 213.993 349.857Z" fill="#AA4465"/>
<path id="Fill 224" fill-rule="evenodd" clip-rule="evenodd" d="M198.751 334.334C198.712 334.334 198.673 334.338 198.638 334.345C197.777 334.511 195.892 336.517 194.069 338.457C191.897 340.77 189.434 343.392 186.803 345.254C183.392 347.671 178.548 352.36 178.328 354.879C178.292 355.293 178.387 355.599 178.629 355.843C180.852 358.102 186.126 359.233 190.383 358.366C193.752 357.679 205.747 354.225 210.748 352.771C211.945 352.423 212.755 351.253 212.673 349.989C212.277 343.825 211.333 339.05 210.934 337.23L205.259 339.997C204.968 340.137 204.622 340.048 204.436 339.783C202.54 337.103 199.885 334.334 198.751 334.334ZM187.342 360C183.513 360 179.661 358.789 177.694 356.791C177.178 356.267 176.942 355.565 177.012 354.761C177.307 351.373 183.227 346.153 186.047 344.156C188.569 342.37 190.983 339.8 193.113 337.533C195.435 335.061 197.113 333.274 198.391 333.028C200.566 332.613 203.958 336.888 205.181 338.548L211.103 335.661C211.282 335.574 211.488 335.572 211.668 335.658C211.847 335.742 211.98 335.904 212.029 336.098C212.044 336.155 213.476 341.891 213.992 349.901C214.114 351.79 212.903 353.539 211.112 354.059C206.095 355.517 194.06 358.983 190.643 359.679C189.577 359.897 188.46 360 187.342 360Z" fill="#2A2B2E"/>
<path id="Fill 226" fill-rule="evenodd" clip-rule="evenodd" d="M187.432 357C184.544 357 182.002 356.44 180.243 354.998C179.96 354.766 179.918 354.349 180.149 354.065C180.378 353.782 180.794 353.738 181.075 353.971C188.14 359.762 210.832 349.17 211.061 349.063C211.391 348.907 211.783 349.051 211.938 349.382C212.092 349.713 211.95 350.108 211.62 350.263C210.878 350.613 197.185 357 187.432 357Z" fill="#2A2B2E"/>
<path id="Fill 228" fill-rule="evenodd" clip-rule="evenodd" d="M198.363 346C198.221 346 198.079 345.954 197.961 345.86L193.235 342.104C192.962 341.886 192.921 341.495 193.143 341.229C193.365 340.962 193.766 340.923 194.039 341.14L198.765 344.897C199.038 345.113 199.079 345.505 198.857 345.771C198.731 345.922 198.548 346 198.363 346Z" fill="#2A2B2E"/>
<path id="Fill 230" fill-rule="evenodd" clip-rule="evenodd" d="M244.259 214C244.259 214 249.755 265.829 252.164 283.695C254.573 301.56 251.008 330.653 251.008 330.653L236.654 330.623C236.654 330.623 233.904 295.606 232.349 285.922C232.349 285.922 225.636 273.026 223.249 261.343C220.863 249.66 213.82 231.371 213.82 231.371C213.82 231.371 213.545 324.44 213.435 331.757C213.435 331.757 202.234 332.822 198.082 330.494C198.082 330.494 189.243 297.008 189.338 278.543C189.433 260.077 186 214.383 186 214.383L244.259 214Z" fill="#2A2B2E"/>
<path id="Fill 232" fill-rule="evenodd" clip-rule="evenodd" d="M234.698 287C234.328 287 234.02 286.644 234.001 286.185C233.981 285.712 234.279 285.31 234.664 285.286L239.266 285.001C239.647 284.976 239.98 285.342 239.999 285.815C240.019 286.288 239.721 286.69 239.336 286.714L234.734 286.999C234.723 286.999 234.71 287 234.698 287Z" fill="white"/>
<path id="Fill 234" fill-rule="evenodd" clip-rule="evenodd" d="M205.36 315C205.027 315 204.746 314.734 204.723 314.387C204.175 306.186 194.213 291.182 194.112 291.031C193.913 290.732 193.986 290.321 194.277 290.115C194.568 289.91 194.966 289.985 195.166 290.285C195.585 290.912 205.427 305.74 205.998 314.296C206.023 314.659 205.757 314.973 205.404 314.998C205.389 315 205.375 315 205.36 315Z" fill="white"/>
<path id="Fill 236" fill-rule="evenodd" clip-rule="evenodd" d="M258 154.024C258 154.024 251.676 123.412 234.436 116.672C217.196 109.932 190.279 113.766 184.181 117.875C178.084 121.984 169 141.199 169 141.199L182.223 157.853C182.223 157.853 181.658 212.553 185 226.818C185 226.818 201.208 227.887 207.906 224.845C214.605 221.803 236.886 216.89 247.876 221.291L242.449 152.347L258 154.024Z" fill="#AA4465"/>
<path id="Fill 238" fill-rule="evenodd" clip-rule="evenodd" d="M185.324 226.51C188.095 226.656 201.719 227.217 207.59 224.555C214.166 221.575 235.761 216.717 247.39 220.607L242.004 152.302C241.988 152.105 242.061 151.91 242.203 151.773C242.345 151.634 242.54 151.566 242.738 151.588L257.479 153.176C256.263 148.089 249.538 122.916 234.352 116.991C217.008 110.222 189.97 114.342 184.332 118.133C178.87 121.807 170.75 138.256 169.445 140.951L182.508 157.373C182.603 157.492 182.655 157.641 182.653 157.794C182.647 158.337 182.135 211.686 185.324 226.51ZM191.354 228C187.742 228 185.013 227.827 184.742 227.809C184.45 227.79 184.205 227.582 184.138 227.297C180.868 213.367 181.278 162.461 181.321 158.016L168.144 141.452C167.987 141.254 167.956 140.983 168.064 140.754C168.441 139.958 177.365 121.216 183.589 117.029C189.56 113.014 216.795 108.711 234.835 115.751C252.34 122.583 258.724 152.53 258.986 153.802C259.029 154.01 258.97 154.227 258.827 154.384C258.685 154.542 258.477 154.622 258.264 154.598L243.393 152.996L248.798 221.535C248.816 221.764 248.715 221.986 248.529 222.123C248.344 222.259 248.102 222.29 247.888 222.205C237.344 217.991 215.104 222.61 208.139 225.767C204.058 227.616 196.729 228 191.354 228Z" fill="#2A2B2E"/>
<path id="Fill 240" fill-rule="evenodd" clip-rule="evenodd" d="M232.34 209C232.313 209 232.285 208.998 232.257 208.995C218.429 207.292 209.607 201.674 204.642 197.261C199.24 192.46 197.148 188.106 197.062 187.923C196.908 187.598 197.052 187.212 197.382 187.061C197.713 186.91 198.105 187.05 198.26 187.376C198.341 187.546 206.685 204.535 232.422 207.705C232.784 207.749 233.041 208.074 232.995 208.431C232.953 208.759 232.668 209 232.34 209Z" fill="#2A2B2E"/>
<path id="Fill 242" fill-rule="evenodd" clip-rule="evenodd" d="M184.142 180L217 178.336L204.858 142L172 143.664L184.142 180Z" fill="#2A2B2E"/>
<path id="Fill 244" fill-rule="evenodd" clip-rule="evenodd" d="M254.593 154.662L237.644 148C237.644 148 241.395 176.346 207.206 164.915C207.206 164.915 208.261 161.194 207.873 156.931C207.486 152.667 205.17 156.93 204.99 160.421C204.809 163.911 196.865 162.904 192.067 161.778C187.267 160.651 181.101 161.865 192.347 167.422C203.594 172.981 205.855 170.129 205.855 170.129C205.855 170.129 220.815 189.234 237.991 184.135C259.118 177.863 254.593 154.662 254.593 154.662Z" fill="white"/>
<path id="Fill 246" fill-rule="evenodd" clip-rule="evenodd" d="M205.718 168.941H205.72C205.922 168.942 206.114 169.034 206.239 169.192C206.387 169.377 221.268 187.724 237.972 182.855C246.554 180.352 251.906 174.829 253.879 166.44C255.153 161.023 254.536 156.086 254.327 154.749L238.566 148.665C238.737 151.565 238.621 159.495 232.891 164.229C227.502 168.682 218.748 168.963 206.873 165.063C206.534 164.952 206.344 164.593 206.442 164.252C206.452 164.216 207.467 160.622 207.093 156.577C207.043 156.042 206.966 155.727 206.904 155.55C206.431 156.118 205.614 158.011 205.509 160.012C205.467 160.802 205.099 161.48 204.443 161.972C201.653 164.062 193.944 162.497 191.648 161.968C188.794 161.309 186.5 161.665 186.342 162.108C186.339 162.119 186.227 163.341 192.373 166.324C202.782 171.378 205.18 169.212 205.199 169.189C205.326 169.032 205.517 168.941 205.718 168.941ZM232.214 185C218.858 185 207.816 173.059 205.6 170.495C204.287 171.169 200.666 171.823 191.79 167.515C185.077 164.256 184.75 162.616 185.088 161.666C185.709 159.923 189.531 160.12 191.948 160.678C196.185 161.654 201.79 162.303 203.642 160.913C203.988 160.654 204.158 160.346 204.18 159.943C204.301 157.63 205.478 154.113 206.973 154.084C208.216 154.06 208.363 155.863 208.418 156.456C208.726 159.78 208.168 162.747 207.879 163.996C218.983 167.543 227.108 167.28 232.035 163.215C238.427 157.94 237.163 147.851 237.15 147.75C237.119 147.518 237.214 147.287 237.399 147.142C237.583 146.998 237.831 146.96 238.05 147.045L255.16 153.65C255.372 153.733 255.528 153.917 255.572 154.14C255.62 154.38 256.724 160.106 255.185 166.697C253.755 172.825 249.672 180.824 238.346 184.126C236.265 184.732 234.214 185 232.214 185Z" fill="#2A2B2E"/>
<path id="Fill 248" fill-rule="evenodd" clip-rule="evenodd" d="M207.352 104.037C208.851 105.29 211.733 106.767 213.87 105.539C215.461 104.624 216.266 102.425 216.086 99.9609C216.845 99.9854 217.833 99.8805 218.509 99.2127C219.549 98.1849 219.256 96.4052 219.155 95.2311C218.687 89.8123 221.765 88.82 220.818 85.1749C220.074 82.3101 217.738 80.6999 217.302 80.3985C215.096 78.878 213.684 79.4773 210.066 78.7135C203.979 77.4287 203.657 74.82 199.698 75.0098C199.469 75.0209 194.085 75.3557 192.444 79.2115C191.11 82.3479 193.032 85.9792 194.925 87.8415C197.377 90.2537 198.984 88.9182 201.424 90.9215C205.707 94.438 202.898 100.313 207.352 104.037Z" fill="#2A2B2E"/>
<path id="Fill 250" fill-rule="evenodd" clip-rule="evenodd" d="M195.276 94.9177L195.501 94.698C196.626 93.5944 197.792 92.3202 198.027 90.7397C199.029 84.0215 204.837 81.3001 205.409 87.392C205.554 88.9292 211.024 88.5659 210.454 90.2167C208.967 94.5213 208.875 93.3886 211.341 94.8184C211.612 94.8161 211.884 94.8631 212.143 94.9714C213.398 95.4953 213.916 97.1832 213.3 98.7423C212.926 99.688 212.22 100.363 211.442 100.634L211.769 107.297C211.892 109.794 213.471 111.967 215.767 112.796L218 113.602C218 113.602 208.131 120.977 197.405 113.997L198.756 113.288C201.136 112.04 202.613 109.505 202.563 106.759L202.51 105.456C201.817 105.556 201.14 105.542 200.508 105.388C197.569 104.672 196.438 101.291 196.721 96.9998L195.51 96.4097C194.945 96.1341 194.824 95.3615 195.276 94.9177Z" fill="white"/>
<path id="Fill 252" fill-rule="evenodd" clip-rule="evenodd" d="M198.535 114.426C206.659 118.893 214.03 115.714 216.793 114.161L215.809 113.819C213.179 112.904 211.389 110.533 211.249 107.778L210.913 101.178C210.898 100.881 211.083 100.611 211.367 100.515C212.015 100.297 212.577 99.7373 212.872 99.0193C213.12 98.4157 213.158 97.7757 212.981 97.2172C212.817 96.7045 212.487 96.3251 212.052 96.1505C211.879 96.08 211.688 96.0436 211.486 96.0476C211.377 96.0436 211.251 96.0197 211.149 95.9621C210.719 95.7219 210.366 95.557 210.082 95.4245C208.412 94.6453 208.635 94.0621 209.367 92.1288C209.522 91.7215 209.71 91.2273 209.926 90.6246C209.677 90.3844 208.589 90.1402 207.926 89.9912C206.403 89.65 204.828 89.2963 204.71 88.089C204.542 86.3623 203.89 85.3566 202.922 85.3301C202.909 85.3296 202.896 85.3296 202.883 85.3296C201.444 85.3296 199.063 87.4805 198.45 91.4432C198.172 93.2337 196.859 94.6023 195.65 95.744L195.419 95.9616C195.338 96.0388 195.339 96.1296 195.346 96.1766C195.354 96.224 195.382 96.3105 195.484 96.3579L196.73 96.9429C196.979 97.0599 197.13 97.3161 197.112 97.5887C196.973 99.6083 197.025 104.394 200.492 105.207C201.037 105.335 201.645 105.353 202.303 105.263C202.492 105.237 202.681 105.291 202.826 105.41C202.972 105.531 203.059 105.706 203.067 105.893L203.121 107.184C203.179 110.153 201.498 112.929 198.841 114.272L198.535 114.426ZM207.148 118C203.988 118 200.427 117.225 196.787 114.944C196.583 114.816 196.464 114.59 196.475 114.352C196.486 114.113 196.625 113.899 196.84 113.79L198.23 113.088C200.433 111.975 201.826 109.673 201.779 107.224L201.755 106.644C201.204 106.665 200.675 106.617 200.183 106.501C197.135 105.786 195.531 102.681 195.746 97.9525L194.908 97.5594C194.436 97.3378 194.104 96.8999 194.02 96.3885C193.937 95.8766 194.113 95.3576 194.493 94.9999V94.9995L194.723 94.7818C195.772 93.7913 196.908 92.619 197.122 91.2411C197.819 86.7394 200.637 84 202.884 84C202.909 84 202.934 84.0004 202.96 84.0013C204.655 84.0479 205.809 85.5282 206.047 87.9609C206.191 88.2388 207.564 88.5464 208.224 88.6944C209.555 88.9936 210.706 89.2515 211.13 90.0134C211.305 90.3285 211.329 90.6857 211.2 91.0461C210.977 91.6688 210.783 92.1776 210.625 92.5964C210.4 93.1876 210.187 93.7492 210.158 93.973C210.258 94.0368 210.466 94.1339 210.654 94.2216C210.926 94.3479 211.256 94.5026 211.661 94.722C211.974 94.7388 212.275 94.8049 212.558 94.9183C213.37 95.2454 213.975 95.9195 214.261 96.8175C214.533 97.6702 214.482 98.6297 214.116 99.5197C213.742 100.432 213.086 101.158 212.278 101.572L212.59 107.711C212.703 109.925 214.141 111.83 216.253 112.565L218.551 113.364C218.786 113.445 218.957 113.65 218.993 113.894C219.029 114.139 218.925 114.383 218.724 114.528C218.652 114.58 213.787 118 207.148 118Z" fill="#2A2B2E"/>
<path id="Fill 254" fill-rule="evenodd" clip-rule="evenodd" d="M202.658 106C202.352 106 202.078 105.802 202.014 105.513C201.94 105.183 202.17 104.861 202.526 104.793C206.197 104.095 207.74 101.361 207.755 101.333C207.92 101.033 208.317 100.914 208.64 101.067C208.964 101.219 209.093 101.587 208.928 101.887C208.854 102.021 207.075 105.173 202.791 105.988C202.746 105.996 202.702 106 202.658 106Z" fill="#2A2B2E"/>
<path id="Fill 256" fill-rule="evenodd" clip-rule="evenodd" d="M27.3443 275C27.1352 275 26.9304 274.9 26.8031 274.713C17.4294 260.953 11.1427 246.011 8.11816 230.299C5.6987 217.732 5.35 204.65 7.08212 191.416C10.031 168.887 18.1163 153.501 18.1976 153.349C18.3687 153.026 18.7668 152.906 19.0862 153.079C19.4052 153.252 19.5255 153.654 19.3536 153.976C19.2735 154.127 11.2866 169.338 8.37673 191.641C5.6952 212.196 6.9023 243.164 27.8842 273.962C28.0899 274.263 28.0142 274.676 27.7158 274.883C27.602 274.962 27.4725 275 27.3443 275Z" fill="#2A2B2E"/>
<path id="Fill 258" fill-rule="evenodd" clip-rule="evenodd" d="M19.342 270C19.1423 270 18.9452 269.909 18.8157 269.737C4.65784 250.894 0.844916 230.359 0.139567 216.451C-0.624597 201.385 1.99709 190.608 2.02342 190.5C2.11121 190.147 2.46893 189.933 2.82094 190.019C3.17384 190.107 3.38891 190.465 3.30156 190.818C3.27567 190.924 0.695682 201.548 1.45677 216.43C2.15861 230.141 5.92193 250.382 19.8674 268.943C20.0864 269.235 20.028 269.648 19.7375 269.867C19.6189 269.956 19.4798 270 19.342 270Z" fill="#2A2B2E"/>
<path id="Fill 260" fill-rule="evenodd" clip-rule="evenodd" d="M257.66 335C257.421 335 257.192 334.869 257.074 334.642C256.907 334.317 257.032 333.916 257.356 333.747C302.309 310.245 314.621 283.656 314.741 283.391C314.89 283.057 315.28 282.908 315.612 283.058C315.943 283.209 316.091 283.601 315.942 283.935C315.818 284.213 312.81 290.834 304.134 300.481C296.156 309.354 281.668 322.531 257.962 334.925C257.865 334.976 257.762 335 257.66 335Z" fill="#2A2B2E"/>
<path id="Fill 262" fill-rule="evenodd" clip-rule="evenodd" d="M257.667 327C257.414 327 257.172 326.858 257.06 326.616C256.907 326.287 257.056 325.899 257.39 325.749C287.253 312.387 303.599 285.591 303.76 285.322C303.948 285.011 304.356 284.907 304.673 285.09C304.989 285.275 305.094 285.676 304.907 285.988C304.744 286.26 288.198 313.403 257.942 326.941C257.853 326.981 257.759 327 257.667 327Z" fill="#2A2B2E"/>
<path id="Fill 264" fill-rule="evenodd" clip-rule="evenodd" d="M235.5 22C235.224 22 235 21.6876 235 21.3028V17.6972C235 17.3124 235.224 17 235.5 17C235.776 17 236 17.3124 236 17.6972V21.3028C236 21.6876 235.776 22 235.5 22Z" fill="#2A2B2E"/>
<path id="Fill 266" fill-rule="evenodd" clip-rule="evenodd" d="M235.5 30C235.224 30 235 29.6877 235 29.3028V25.6972C235 25.3123 235.224 25 235.5 25C235.776 25 236 25.3123 236 25.6972V29.3028C236 29.6877 235.776 30 235.5 30Z" fill="#2A2B2E"/>
<path id="Fill 268" fill-rule="evenodd" clip-rule="evenodd" d="M233.303 24H229.697C229.312 24 229 23.776 229 23.5C229 23.224 229.312 23 229.697 23H233.303C233.688 23 234 23.224 234 23.5C234 23.776 233.688 24 233.303 24Z" fill="#2A2B2E"/>
<path id="Fill 270" fill-rule="evenodd" clip-rule="evenodd" d="M241.303 24H237.697C237.312 24 237 23.776 237 23.5C237 23.224 237.312 23 237.697 23H241.303C241.688 23 242 23.224 242 23.5C242 23.776 241.688 24 241.303 24Z" fill="#2A2B2E"/>
<path id="Fill 272" fill-rule="evenodd" clip-rule="evenodd" d="M263.501 314C263.079 314 262.656 313.92 262.25 313.759C261.368 313.41 260.674 312.724 260.294 311.829C259.521 310.003 260.325 307.862 262.086 307.056C262.4 306.911 262.771 307.056 262.913 307.377C263.055 307.698 262.914 308.075 262.598 308.219C261.458 308.741 260.94 310.134 261.443 311.324C261.689 311.903 262.136 312.346 262.704 312.57C263.257 312.789 263.859 312.773 264.401 312.525C265.542 312.004 266.06 310.611 265.556 309.422C265.42 309.098 265.566 308.723 265.883 308.584C266.2 308.443 266.569 308.593 266.706 308.917C267.479 310.742 266.675 312.883 264.914 313.689C264.462 313.896 263.982 314 263.501 314Z" fill="#2A2B2E"/>
</g>
</svg>
