<svg width="273" height="268" viewBox="0 0 273 268" fill="none" xmlns="http://www.w3.org/2000/svg">
<path fill-rule="evenodd" clip-rule="evenodd" d="M181.491 37C181.369 37 181.247 36.9544 181.151 36.8632C180.955 36.6752 180.949 36.3635 181.137 36.1672L203.154 13.1515C203.342 12.9556 203.652 12.9487 203.849 13.1367C204.044 13.325 204.051 13.6364 203.863 13.8329L181.846 36.8484C181.749 36.9491 181.621 37 181.491 37Z" fill="black"/>
<path fill-rule="evenodd" clip-rule="evenodd" d="M187.48 42C187.305 42 187.136 41.9094 187.052 41.7531C186.932 41.5314 187.027 41.2606 187.263 41.1484L204.304 33.0486C204.54 32.9364 204.829 33.0249 204.948 33.2469C205.068 33.4686 204.973 33.7394 204.737 33.8516L187.696 41.9514C187.626 41.9841 187.553 42 187.48 42Z" fill="black"/>
<path fill-rule="evenodd" clip-rule="evenodd" d="M246.505 216C246.403 216 246.3 215.97 246.211 215.908C245.984 215.748 245.932 215.439 246.094 215.216C255.718 202.022 259.484 187.322 260.949 177.315C262.539 166.455 261.838 158.619 261.83 158.541C261.805 158.268 262.009 158.027 262.287 158.002C262.56 157.978 262.81 158.178 262.836 158.45C262.843 158.529 263.555 166.458 261.953 177.426C260.474 187.552 256.665 202.427 246.916 215.793C246.817 215.928 246.662 216 246.505 216Z" fill="black"/>
<mask id="mask0_0:6006" style="mask-type:alpha" maskUnits="userSpaceOnUse" x="252" y="184" width="21" height="37">
<path fill-rule="evenodd" clip-rule="evenodd" d="M252 184H273V221H252V184Z" fill="white"/>
</mask>
<g mask="url(#mask0_0:6006)">
<path fill-rule="evenodd" clip-rule="evenodd" d="M252.505 221C252.349 221 252.195 220.931 252.096 220.8C251.932 220.584 251.983 220.281 252.209 220.125C268.123 209.084 271.959 184.66 271.996 184.415C272.035 184.15 272.294 183.967 272.567 184.005C272.843 184.043 273.035 184.288 272.995 184.552C272.958 184.802 269.064 209.625 252.801 220.908C252.712 220.97 252.608 221 252.505 221Z" fill="black"/>
</g>
<path fill-rule="evenodd" clip-rule="evenodd" d="M65.8206 45.9688L63.1978 54.5792L67.9814 52.2381L65.8206 45.9688ZM62.4465 56C62.3364 56 62.2277 55.9543 62.1432 55.8663C62.0134 55.7309 61.9669 55.5216 62.0241 55.3324L65.3723 44.3397C65.4333 44.1401 65.5986 44.004 65.7858 44H65.7947C65.9784 44 66.1442 44.1273 66.2109 44.3212L68.9694 52.3248C69.0566 52.5771 68.9512 52.8623 68.731 52.9698L62.6242 55.9587C62.5668 55.9866 62.5066 56 62.4465 56Z" fill="black"/>
<path fill-rule="evenodd" clip-rule="evenodd" d="M49.5129 58C49.3497 58 49.1905 57.9193 49.0982 57.7723L27.073 22.7334C26.9316 22.5079 27.0018 22.212 27.2306 22.072C27.4597 21.9324 27.76 22.0019 27.902 22.2277L49.9269 57.2662C50.0686 57.492 49.9981 57.788 49.7693 57.9276C49.6893 57.9766 49.6006 58 49.5129 58Z" fill="black"/>
<path fill-rule="evenodd" clip-rule="evenodd" d="M42.4926 62C42.3949 62 42.2966 61.9727 42.2097 61.9159L16.2238 44.9021C15.9916 44.7499 15.9301 44.4436 16.0866 44.2179C16.2434 43.9914 16.5588 43.9323 16.7903 44.0841L42.7762 61.0982C43.0084 61.2504 43.0699 61.5563 42.9134 61.7824C42.8154 61.9238 42.6552 62 42.4926 62Z" fill="black"/>
<path fill-rule="evenodd" clip-rule="evenodd" d="M35.2055 69C34.9994 69 34.7988 68.9764 34.603 68.9285C33.9043 68.7572 33.5598 68.3536 33.2563 67.9969C33.024 67.7246 32.8234 67.4895 32.4615 67.3428C31.7705 67.0622 31.119 67.3888 30.3645 67.767C29.5849 68.158 28.7026 68.6016 27.6579 68.3646C26.3889 68.0764 25.8967 67.0119 25.4619 66.0732C25.0748 65.2358 24.7087 64.4451 23.8681 64.1541C22.9075 63.8217 21.9366 64.3604 20.9089 64.9307C19.7835 65.5551 18.5071 66.2626 17.12 65.7641C15.9566 65.3466 15.464 64.3662 15.0292 63.5015C14.6586 62.7639 14.3383 62.1264 13.6918 61.964C12.7574 61.7292 11.4271 62.5159 9.84915 64.2425C9.67368 64.4344 9.36821 64.4546 9.16628 64.2876C8.96468 64.1207 8.94339 63.83 9.11887 63.6381C11.0068 61.5723 12.5838 60.7325 13.9386 61.0738C15.0179 61.3452 15.4676 62.2397 15.902 63.1043C16.293 63.8815 16.662 64.6158 17.4613 64.9025C18.4206 65.2463 19.3919 64.7066 20.4215 64.1351C21.5421 63.5135 22.8113 62.8087 24.1987 63.2888C25.428 63.7143 25.9163 64.7702 26.3476 65.7021C26.7411 66.5524 27.0811 67.2869 27.8827 67.4689C28.572 67.6255 29.2233 67.2982 29.9139 66.9523C30.7635 66.5263 31.7273 66.0434 32.8408 66.4956C33.424 66.7319 33.7472 67.1116 34.0075 67.4167C34.2672 67.7212 34.4546 67.941 34.8442 68.0365C35.4894 68.1946 36.2858 67.9137 37.2125 67.2028C37.4206 67.0426 37.7251 67.0742 37.8928 67.2719C38.0605 67.4698 38.0279 67.7596 37.8196 67.9192C36.8832 68.6381 36.0064 69 35.2055 69Z" fill="black"/>
<path fill-rule="evenodd" clip-rule="evenodd" d="M213 24.938C211.312 24.938 209.938 26.3117 209.938 28.0002C209.938 29.6883 211.312 31.062 213 31.062C214.688 31.062 216.062 29.6883 216.062 28.0002C216.062 26.3117 214.688 24.938 213 24.938ZM213 32C210.794 32 209 30.2058 209 28.0002C209 25.7942 210.794 24 213 24C215.206 24 217 25.7942 217 28.0002C217 30.2058 215.206 32 213 32Z" fill="black"/>
<path fill-rule="evenodd" clip-rule="evenodd" d="M181.302 28C181.134 28 180.969 27.9242 180.867 27.7839C179.089 25.3401 178.588 23.5397 179.334 22.2796C179.928 21.2758 181.042 21.0687 182.12 20.8685C183.088 20.6886 184.002 20.5187 184.538 19.7982C185.18 18.9351 184.845 17.8186 184.492 16.636C184.107 15.3496 183.67 13.8913 184.58 12.6372C185.386 11.5253 186.69 11.3229 187.84 11.1446C188.89 10.9814 189.797 10.8408 190.217 10.0897C190.578 9.44498 190.392 8.70553 190.197 7.92286C189.955 6.95932 189.682 5.8671 190.486 4.87729C190.907 4.35961 191.416 4.13884 191.825 3.96163C192.233 3.78508 192.528 3.65707 192.74 3.29399C193.09 2.69353 192.995 1.82241 192.458 0.705262C192.338 0.454235 192.455 0.158988 192.72 0.0449453C192.984 -0.0690973 193.298 0.041288 193.418 0.292315C194.101 1.71203 194.183 2.88404 193.663 3.7761C193.283 4.42711 192.742 4.66184 192.264 4.86865C191.899 5.02691 191.583 5.16323 191.322 5.48507C190.824 6.09884 191.009 6.83763 191.223 7.69311C191.445 8.57752 191.695 9.57997 191.15 10.5558C190.485 11.7448 189.171 11.9489 188.011 12.1288C186.977 12.2891 186.001 12.4407 185.45 13.2011C184.82 14.0702 185.153 15.1843 185.506 16.3647C185.893 17.6564 186.331 19.1206 185.4 20.3721C184.621 21.4201 183.4 21.6472 182.323 21.8474C181.404 22.0183 180.61 22.1655 180.254 22.767C179.739 23.6378 180.251 25.1772 181.736 27.2183C181.901 27.4454 181.84 27.756 181.601 27.9119C181.509 27.9714 181.405 28 181.302 28Z" fill="black"/>
<path fill-rule="evenodd" clip-rule="evenodd" d="M20.5238 197C20.339 197 20.1634 196.888 20.0859 196.702C11.2576 175.467 11.2309 156.102 12.7632 143.596C14.4241 130.038 18.2325 121.372 18.271 121.287C18.3808 121.039 18.6638 120.931 18.9029 121.045C19.1414 121.159 19.2466 121.451 19.1367 121.698C19.0989 121.783 15.3423 130.34 13.7032 143.759C12.1922 156.134 12.2243 175.298 20.9612 196.313C21.065 196.563 20.9535 196.853 20.7115 196.96C20.6502 196.987 20.5864 197 20.5238 197Z" fill="black"/>
<path fill-rule="evenodd" clip-rule="evenodd" d="M2.71048 154C2.4556 154 2.23646 153.812 2.20848 153.557C2.20073 153.489 1.46509 146.587 2.80454 137.11C4.04184 128.361 7.35119 115.548 16.0908 104.197C16.2594 103.978 16.5766 103.935 16.7992 104.1C17.022 104.266 17.0662 104.577 16.8976 104.795C0.426032 126.189 3.18416 153.18 3.21383 153.45C3.24383 153.723 3.04324 153.968 2.76577 153.997C2.74689 153.999 2.72869 154 2.71048 154Z" fill="black"/>
<path fill-rule="evenodd" clip-rule="evenodd" d="M112.825 71.1942C108.2 72.4366 103.45 69.676 102.214 65.0283C100.977 60.3807 103.724 55.6061 108.348 54.3637C112.973 53.1216 117.724 55.8818 118.96 60.5295C120.196 65.1769 117.449 69.9518 112.825 71.1942ZM164.736 73.9463L113.967 38.2699C107.61 33.8026 98.7811 36.1746 95.4896 43.234L69.2034 99.6115C66.8727 104.61 66.3725 110.275 67.7911 115.608L101.16 241.074C104.206 252.526 115.911 259.328 127.305 256.267L192.154 238.844C203.549 235.783 210.316 224.019 207.27 212.567L173.901 87.1007C172.483 81.7677 169.237 77.1092 164.736 73.9463Z" fill="white"/>
<path fill-rule="evenodd" clip-rule="evenodd" d="M112.194 72.2118L112.321 72.6869L112.194 72.2118C114.305 71.6448 116.07 70.2859 117.163 68.3852C118.257 66.4843 118.548 64.2695 117.984 62.1488C116.819 57.7704 112.328 55.1598 107.97 56.3305C105.859 56.8978 104.095 58.2564 103.001 60.157C101.908 62.058 101.616 64.2728 102.181 66.3938C103.345 70.7722 107.838 73.3818 112.194 72.2118ZM110.084 73.4756C106.039 73.4756 102.328 70.7571 101.235 66.6479C100.603 64.2731 100.93 61.7934 102.154 59.6648C103.378 57.5366 105.354 56.015 107.717 55.3802C112.598 54.0698 117.625 56.9922 118.93 61.8944C119.561 64.2692 119.235 66.7492 118.011 68.8775C116.786 71.0057 114.811 72.5272 112.447 73.1621C111.658 73.3743 110.865 73.4756 110.084 73.4756ZM106.309 37.9839C105.27 37.9839 104.226 38.1193 103.2 38.3951C99.7667 39.3172 96.933 41.7006 95.4255 44.9335L69.1345 101.315C66.8562 106.202 66.3651 111.763 67.7516 116.976L101.127 242.451C102.566 247.862 106.017 252.387 110.842 255.191C115.669 257.995 121.293 258.742 126.677 257.296L191.538 239.872C202.656 236.886 209.282 225.368 206.311 214.195L172.936 88.7214C171.549 83.508 168.361 78.9342 163.961 75.8422L113.183 40.1639C111.141 38.7296 108.743 37.9839 106.309 37.9839ZM121.252 259C117.462 259 113.722 258 110.353 256.043C105.3 253.108 101.688 248.37 100.181 242.705L66.8056 117.23C65.3597 111.794 65.8717 105.994 68.2479 100.897L94.5392 44.5164C96.1698 41.0195 99.2342 38.4423 102.947 37.4451C106.658 36.4476 110.595 37.1444 113.744 39.3579L164.522 75.0358C169.111 78.2603 172.435 83.0306 173.881 88.4672L207.257 213.941C210.367 225.637 203.43 237.697 191.792 240.823L126.93 258.246C125.052 258.751 123.146 259 121.252 259Z" fill="black"/>
<path fill-rule="evenodd" clip-rule="evenodd" d="M188 206.8L113.067 227L111 219.201L185.933 199L188 206.8Z" fill="#C9CEBD"/>
<path fill-rule="evenodd" clip-rule="evenodd" d="M183 188.8L108.067 209L106 201.201L180.933 181L183 188.8Z" fill="#C9CEBD"/>
<path fill-rule="evenodd" clip-rule="evenodd" d="M179 170.109L104.407 190L95 154.891L169.593 135L179 170.109Z" fill="#C9CEBD"/>
<path fill-rule="evenodd" clip-rule="evenodd" d="M105.018 70.8291C100.424 69.3076 97.9405 64.3698 99.4699 59.8004C100.999 55.2309 105.962 52.7601 110.555 54.2812C115.148 55.8028 117.632 60.7405 116.103 65.31C114.574 69.8791 109.611 72.3502 105.018 70.8291ZM147.335 101.867L124.211 43.938C121.315 36.684 112.546 33.7795 105.857 37.8588L52.444 70.4368C47.7084 73.3252 44.1497 77.784 42.395 83.0267L1.11184 206.385C-2.65635 217.644 3.46383 229.81 14.7809 233.559L79.1945 254.894C90.512 258.643 102.741 252.554 106.509 241.295L147.792 117.937C149.547 112.694 149.385 107.003 147.335 101.867Z" fill="#C9CEBD"/>
<path fill-rule="evenodd" clip-rule="evenodd" d="M107.573 53.8178C104.132 53.8178 100.917 56.0019 99.7715 59.4476C99.0785 61.5331 99.2375 63.7638 100.22 65.7296C101.202 67.6947 102.89 69.1598 104.972 69.8541C109.271 71.2877 113.931 68.9513 115.363 64.6462C116.056 62.561 115.898 60.33 114.915 58.3649C113.933 56.3991 112.245 54.934 110.163 54.24C109.305 53.9537 108.432 53.8178 107.573 53.8178ZM107.56 71.2611C106.599 71.2611 105.622 71.1088 104.661 70.7884C102.33 70.011 100.44 68.3709 99.3404 66.1701C98.2403 63.9696 98.0623 61.4714 98.8389 59.1367C100.441 54.3165 105.661 51.7007 110.473 53.3054C112.805 54.0831 114.695 55.7232 115.794 57.924C116.894 60.1245 117.072 62.6224 116.296 64.9574C115.014 68.8154 111.414 71.2611 107.56 71.2611ZM112.209 35.9852C110.01 35.9852 107.83 36.5889 105.908 37.7691L52.8452 70.3485C48.2464 73.1721 44.7754 77.5497 43.0711 82.6755L2.05835 206.04C-1.59269 217.024 4.35919 228.935 15.3271 232.592L79.3183 253.929C84.6323 255.701 90.316 255.294 95.3232 252.784C100.331 250.274 104.063 245.962 105.832 240.641L146.845 117.276C148.549 112.151 148.391 106.563 146.399 101.543L123.427 43.6106C122.11 40.2883 119.412 37.7353 116.025 36.606C114.778 36.1904 113.49 35.9852 112.209 35.9852ZM85.9619 256C83.6286 256 81.2861 255.623 79.0076 254.863L15.0166 233.527C3.53411 229.698 -2.69738 217.228 1.12576 205.729L42.1382 82.3643C43.9155 77.0189 47.5354 72.4538 52.3312 69.5091L105.394 36.9297C108.685 34.9088 112.673 34.4505 116.336 35.6717C119.998 36.8929 122.916 39.6538 124.341 43.2472L147.313 101.179C149.39 106.415 149.555 112.243 147.777 117.588L106.765 240.952C104.913 246.522 101.006 251.037 95.7634 253.665C92.668 255.216 89.3251 256 85.9619 256Z" fill="black"/>
<path fill-rule="evenodd" clip-rule="evenodd" d="M118.942 155.632C111.965 176.587 89.3224 187.918 68.3679 180.942C47.4133 173.965 36.0821 151.322 43.0583 130.368C50.0351 109.413 72.6778 98.0822 93.6323 105.058C114.587 112.035 125.918 134.677 118.942 155.632Z" fill="white"/>
<path fill-rule="evenodd" clip-rule="evenodd" d="M79.53 103.99C62.9801 103.99 47.5241 114.474 42.016 131.014C35.135 151.678 46.3513 174.087 67.0201 180.968C77.0332 184.3 87.744 183.535 97.1802 178.813C106.618 174.092 113.65 165.979 116.984 155.969C123.865 135.305 112.648 112.896 91.98 106.016C87.8548 104.643 83.6571 103.99 79.53 103.99ZM79.5386 184C75.2333 184 70.9112 183.305 66.7076 181.906C45.5207 174.854 34.0232 151.884 41.0771 130.702C48.131 109.52 71.1053 98.024 92.2925 105.077C113.479 112.129 124.977 135.099 117.923 156.281L117.453 156.125L117.923 156.281C114.506 166.542 107.297 174.859 97.6234 179.699C91.9123 182.556 85.7441 184 79.5386 184Z" fill="black"/>
<path fill-rule="evenodd" clip-rule="evenodd" d="M67.6342 168.804L69.8354 162.41C65.2418 160.707 61.135 158.04 59 155.708L63.7989 148.506C66.1892 150.995 69.8094 153.73 74.3333 155.186C78.3002 156.464 81.5246 155.857 82.4517 153.165C83.3321 150.608 81.6609 148.275 77.09 144.935C70.4767 140.114 66.5545 135.114 68.8021 128.586C70.8414 122.663 76.7558 119.409 84.6898 120.393L86.8911 114L93.7117 116.196L91.6724 122.118C96.266 123.821 99.0741 125.772 101 127.588L96.3631 134.543C94.8086 133.22 92.1395 130.641 87.1285 129.028C82.6046 127.572 80.494 128.985 79.8453 130.87C79.0805 133.091 81.0298 135.288 86.2045 139.347C93.5138 144.84 95.5797 149.616 93.4942 155.673C91.4316 161.663 85.2861 165.366 76.8187 164.136L74.4551 171L67.6342 168.804Z" fill="#AA4465"/>
<path fill-rule="evenodd" clip-rule="evenodd" d="M95.3812 217L25 193.774L28.6188 183L99 206.226L95.3812 217Z" fill="white"/>
<path fill-rule="evenodd" clip-rule="evenodd" d="M113.264 69H113.261C112.02 68.9911 110.804 68.9431 109.647 68.8574C103.351 68.3906 86.6278 67.1518 80.9266 56.1906C78.4759 51.4786 78.3611 45.3996 80.5943 38.611C84.8308 25.7338 96.989 12.269 110.161 5.86727C118.268 1.92768 128.028 -0.206132 136.966 0.0157293C144.43 0.200449 154.771 2.1525 161.643 10.4024C166.713 16.4877 169.624 26.0796 168.887 34.2704C168.469 38.9117 166.899 42.5871 164.466 44.619C162.005 46.6742 158.701 47.0354 155.507 47.3842C151.507 47.821 147.371 48.2729 144.578 51.9617C143.676 53.1526 143.451 53.9687 143.191 54.9133C142.989 55.645 142.761 56.4746 142.201 57.5714C142.077 57.8139 141.781 57.9096 141.541 57.7853C141.299 57.6611 141.204 57.364 141.328 57.1214C141.842 56.114 142.047 55.3695 142.246 54.65C142.521 53.6505 142.781 52.7065 143.797 51.3649C146.846 47.3388 151.195 46.8635 155.402 46.404C158.592 46.0553 161.605 45.726 163.839 43.8607C166.07 41.9974 167.516 38.56 167.91 34.1816C168.624 26.2348 165.804 16.933 160.891 11.0355C154.254 3.06788 144.204 1.18124 136.942 1.00145C128.279 0.787148 118.441 2.93838 110.588 6.75504C97.6365 13.0496 85.6857 26.2772 81.5257 38.9206C79.3778 45.4502 79.471 51.264 81.7958 55.734C87.2442 66.2088 104.16 67.4621 109.718 67.8739C110.854 67.9581 112.048 68.0054 113.268 68.014C113.539 68.0159 113.757 68.2384 113.755 68.5106C113.753 68.7818 113.533 69 113.264 69Z" fill="black"/>
<path fill-rule="evenodd" clip-rule="evenodd" d="M205 240.075L199.159 256L191 255.605L196.828 238L205 240.075Z" fill="white"/>
<path fill-rule="evenodd" clip-rule="evenodd" d="M190.231 254.712L197.287 255.037L202.791 240.763L195.684 239.047L190.231 254.712ZM197.655 256C197.646 256 197.637 256 197.628 255.999L189.499 255.625C189.337 255.618 189.187 255.543 189.095 255.424C189.001 255.304 188.975 255.152 189.024 255.012L194.83 238.332C194.914 238.09 195.195 237.95 195.469 238.016L203.61 239.982C203.751 240.016 203.87 240.101 203.939 240.217C204.007 240.333 204.019 240.469 203.971 240.593L198.152 255.682C198.078 255.873 197.878 256 197.655 256Z" fill="black"/>
<path fill-rule="evenodd" clip-rule="evenodd" d="M199.836 264.25C199.836 264.25 200.779 256.602 198.138 253.11L192.242 255.015V253.872C192.242 253.504 191.952 253.201 191.583 253.182L188.295 253.01C187.068 252.947 185.845 253.177 184.724 253.677C180.785 255.433 171.719 259.96 172.007 264.301C172.007 264.301 179.144 265.907 199.836 264.25Z" fill="white"/>
<path fill-rule="evenodd" clip-rule="evenodd" d="M172.991 263.274C174.714 263.582 182.408 264.65 199.892 263.167C200.031 261.51 200.383 255.445 198.447 252.268L192.894 254.201C192.745 254.253 192.58 254.226 192.453 254.126C192.325 254.027 192.25 253.868 192.25 253.7V252.468C192.25 252.352 192.166 252.256 192.057 252.25L188.768 252.065C187.624 252.001 186.471 252.234 185.423 252.738C182.526 254.131 173.293 258.906 172.991 263.274ZM183.598 265C175.709 265 172.583 264.275 172.39 264.228C172.178 264.176 172.022 263.981 172.008 263.748C171.711 258.916 180.033 254.173 185.02 251.776C186.211 251.203 187.523 250.94 188.819 251.012L192.108 251.196C192.74 251.232 193.234 251.79 193.234 252.468V252.974L198.489 251.144C198.689 251.075 198.908 251.149 199.034 251.329C201.764 255.22 200.867 263.377 200.828 263.722C200.8 263.971 200.612 264.163 200.379 264.183C193.275 264.797 187.77 265 183.598 265Z" fill="black"/>
<path fill-rule="evenodd" clip-rule="evenodd" d="M189.824 262C181.139 262 174.485 260.897 174.398 260.883C174.134 260.838 173.959 260.606 174.008 260.364C174.057 260.122 174.313 259.963 174.575 260.007C174.688 260.027 186.072 261.91 198.463 260.711C198.731 260.686 198.969 260.863 198.997 261.107C199.026 261.351 198.832 261.571 198.565 261.596C195.544 261.889 192.581 262 189.824 262Z" fill="black"/>
<path fill-rule="evenodd" clip-rule="evenodd" d="M182.517 259C182.349 259 182.184 258.917 182.085 258.764C181.928 258.523 181.995 258.199 182.234 258.041L188.2 254.086C188.438 253.927 188.759 253.995 188.915 254.236C189.072 254.477 189.005 254.801 188.767 254.959L182.8 258.915C182.713 258.972 182.615 259 182.517 259Z" fill="black"/>
<path fill-rule="evenodd" clip-rule="evenodd" d="M236 241L237.827 255H241.78L242 241.231L236 241Z" fill="white"/>
<path fill-rule="evenodd" clip-rule="evenodd" d="M236.732 254.968H239.832L240.038 242.244L235.03 242.053L236.732 254.968ZM240.301 256H236.317C236.08 256 235.879 255.811 235.845 255.557L234.005 241.588C233.985 241.437 234.028 241.284 234.122 241.171C234.217 241.057 234.356 240.995 234.494 241L240.54 241.231C240.8 241.24 241.004 241.474 241 241.755L240.778 255.493C240.773 255.774 240.561 256 240.301 256Z" fill="black"/>
<path fill-rule="evenodd" clip-rule="evenodd" d="M236.785 267.826C238.665 268.036 241.741 268.172 245.327 267.528C246.503 267.318 247.247 266.098 246.924 264.903C246.025 261.572 244.086 255.263 241.647 252.392L241.115 254.013L240.262 252.533C240.146 252.33 239.943 252.197 239.717 252.175L237.947 252.003C237.577 251.968 237.243 252.233 237.179 252.614L236.942 254.013L236.269 252.21L235.01 265.544C234.902 266.683 235.692 267.704 236.785 267.826Z" fill="white"/>
<path fill-rule="evenodd" clip-rule="evenodd" d="M235.495 266.847C237.557 267.06 240.81 267.181 244.596 266.553C245.062 266.476 245.474 266.211 245.726 265.826C245.98 265.438 246.049 264.982 245.92 264.541C244.999 261.384 243.173 255.891 240.883 252.885L240.607 253.664C240.543 253.845 240.376 253.973 240.179 253.993C239.981 254.014 239.79 253.921 239.688 253.758L238.766 252.276C238.723 252.208 238.648 252.162 238.565 252.155L236.65 251.983C236.523 251.97 236.391 252.061 236.368 252.19L236.112 253.591C236.072 253.808 235.887 253.972 235.66 253.994C235.464 254.012 235.285 253.924 235.183 253.772L234.027 265.098C233.938 265.969 234.596 266.754 235.495 266.847ZM238.913 268C237.532 268 236.337 267.921 235.386 267.822C233.934 267.672 232.87 266.407 233.013 265.001L234.376 251.653C234.399 251.427 234.58 251.246 234.813 251.215C235.046 251.184 235.272 251.312 235.357 251.523L235.448 251.75C235.663 251.269 236.183 250.954 236.745 251.005L238.66 251.178C239.064 251.214 239.43 251.436 239.639 251.772L239.998 252.347L240.219 251.724C240.277 251.559 240.423 251.436 240.601 251.401C240.777 251.368 240.961 251.426 241.082 251.558C243.769 254.485 245.881 260.782 246.901 264.275C247.105 264.977 246.991 265.733 246.587 266.35C246.182 266.969 245.519 267.396 244.769 267.52C242.611 267.878 240.621 268 238.913 268Z" fill="black"/>
<path fill-rule="evenodd" clip-rule="evenodd" d="M241.202 266C238.532 266 236.48 265.653 236.352 265.631C236.103 265.588 235.952 265.414 236.014 265.243C236.076 265.071 236.33 264.967 236.577 265.01C236.622 265.018 241.164 265.782 245.417 265.011C245.664 264.965 245.919 265.068 245.985 265.239C246.05 265.41 245.902 265.586 245.653 265.631C244.124 265.907 242.581 266 241.202 266Z" fill="black"/>
<path fill-rule="evenodd" clip-rule="evenodd" d="M203.251 155.188C203.251 155.188 196.882 195.606 196.628 205.258C196.375 214.909 194 239.406 194 239.406C194 239.406 199.52 242.02 203.534 242C203.534 242 222.332 192.971 223.738 177.115C225.143 161.259 220.445 154 220.445 154L203.251 155.188Z" fill="black"/>
<path fill-rule="evenodd" clip-rule="evenodd" d="M210 153.422C210 153.422 231.416 217.479 231.766 243.517C231.766 243.517 236.486 244.603 243.27 243.517C243.27 243.517 247.62 172.028 235.081 152L210 153.422Z" fill="black"/>
<path fill-rule="evenodd" clip-rule="evenodd" d="M242.544 261H238.456C238.205 261 238 260.776 238 260.5C238 260.224 238.205 260 238.456 260H242.544C242.795 260 243 260.224 243 260.5C243 260.776 242.795 261 242.544 261Z" fill="black"/>
<path fill-rule="evenodd" clip-rule="evenodd" d="M207.315 90.0307C205.867 89.2591 203.324 88.9162 200.501 86.3193C199.126 85.0546 197.139 83.2269 197.007 80.4868C196.852 77.2862 199.274 73.8072 202.599 73.1218C205.688 72.4847 208.195 74.5404 208.538 74.8316C210.672 76.6388 209.835 78.0835 211.858 80.1332C214.025 82.3305 215.702 81.395 219.178 83.694C222.285 85.7484 221.635 86.95 223.686 87.9867C228.458 90.3987 232.785 84.2987 237.701 86.0943C241.933 87.6405 240.495 92.8069 245.142 95.5911C250.478 98.7884 254.867 93.4647 261.262 96.113C267.134 98.5446 271.182 106.243 269.688 111.416C268.654 114.999 265.754 114.626 263.216 118.839C259.263 125.404 263.819 130.439 261.232 136.143C257.766 143.787 244.619 145.695 236.344 144.794C234.812 144.627 218.796 142.645 212.207 130.326C204.213 115.381 214.797 94.0159 207.315 90.0307Z" fill="black"/>
<path fill-rule="evenodd" clip-rule="evenodd" d="M201.083 155C201.083 155 200.424 168.652 202.814 171C202.814 171 209.189 161.412 208.996 155H201.083Z" fill="white"/>
<path fill-rule="evenodd" clip-rule="evenodd" d="M200.972 156.007C200.819 159.785 200.816 168.199 202.264 170.686C203.524 168.7 207.981 161.316 208.099 156.007H200.972ZM202.294 172C202.187 172 202.082 171.957 202 171.877C199.489 169.439 200.026 156.898 200.095 155.476C200.108 155.209 200.305 155 200.544 155H208.546C208.789 155 208.987 155.215 208.995 155.486C209.194 161.999 202.92 171.403 202.653 171.8C202.578 171.911 202.465 171.983 202.342 171.998C202.326 171.999 202.31 172 202.294 172Z" fill="black"/>
<path fill-rule="evenodd" clip-rule="evenodd" d="M211 153.197C211 153.197 214.422 163.381 217.554 165.708C220.685 168.036 227.456 155.691 231.817 155.033C236.178 154.375 242 164.396 242 164.396C242 164.396 239.532 151.433 235.659 149L211 153.197Z" fill="white"/>
<path fill-rule="evenodd" clip-rule="evenodd" d="M211.137 154.068C211.886 156.178 214.764 163.916 217.34 165.833C218.68 166.828 221.515 163.705 224.016 160.949C226.503 158.21 229.074 155.377 231.248 155.049C234.522 154.554 238.373 159.332 240.444 162.338C239.525 158.535 237.589 151.8 235.055 149.993L211.137 154.068ZM217.923 167C217.51 167 217.119 166.877 216.754 166.606C213.535 164.212 210.167 154.262 210.025 153.84C209.98 153.707 209.996 153.56 210.069 153.439C210.142 153.318 210.265 153.235 210.406 153.211L235.083 149.007C235.201 148.987 235.325 149.011 235.427 149.076C239.437 151.596 241.889 164.277 241.992 164.816C242.035 165.047 241.904 165.277 241.681 165.359C241.458 165.44 241.207 165.351 241.089 165.146C239.514 162.434 234.709 155.507 231.395 156.005C229.566 156.281 227.003 159.104 224.742 161.596C222.232 164.361 219.837 167 217.923 167Z" fill="black"/>
<path fill-rule="evenodd" clip-rule="evenodd" d="M168.449 96.3954C168.208 95.9396 167.837 95.5008 167.288 95.1107L161.499 90C161.499 90 160.747 92.4624 161.659 93.9145C159.882 93.9706 158.476 94.2581 158.476 94.2581C158.476 94.2581 155.831 92.0459 155.172 91.6637C154.514 91.2825 153.654 90.6779 152.768 90.6891C151.88 90.7002 151 91.3447 151 91.3447L156.085 97.4644L165.333 99.8806L167.253 115L174 109.073L168.449 96.3954Z" fill="white"/>
<path fill-rule="evenodd" clip-rule="evenodd" d="M156.635 96.8254L165.342 99.2957C165.531 99.3494 165.669 99.5151 165.693 99.7157L167.42 114.476L172.943 109.208L167.761 96.3579C167.548 95.9256 167.224 95.54 166.798 95.2118C166.785 95.2012 166.772 95.1896 166.759 95.1777L161.837 90.4596C161.712 91.2686 161.636 92.4972 162.109 93.3145C162.196 93.4656 162.2 93.6533 162.118 93.8074C162.036 93.9619 161.881 94.0604 161.71 94.0664C160.07 94.1227 158.759 94.4098 158.746 94.4128C158.598 94.446 158.441 94.4039 158.326 94.2998C157.63 93.6675 155.717 91.9598 155.229 91.6525C155.139 91.5961 155.045 91.5348 154.947 91.4715C154.401 91.1147 153.782 90.7112 153.2 90.7112C153.194 90.7112 153.188 90.7116 153.183 90.7116C152.831 90.7162 152.464 90.8734 152.193 91.0222L156.635 96.8254ZM167.054 116C166.998 116 166.942 115.99 166.887 115.969C166.718 115.905 166.597 115.747 166.575 115.562L164.774 100.166L156.227 97.7414C156.128 97.7132 156.039 97.6529 155.976 97.5697L151.104 91.2042C151.024 91.0998 150.988 90.9669 151.004 90.8352C151.019 90.7033 151.086 90.5836 151.188 90.5024C151.228 90.4709 152.17 89.7309 153.17 89.717C153.18 89.717 153.19 89.7166 153.2 89.7166C154.062 89.7166 154.838 90.2229 155.463 90.6307C155.556 90.6914 155.645 90.7497 155.731 90.8037C156.301 91.1621 158.164 92.8311 158.785 93.3917C159.169 93.3184 159.975 93.1818 160.978 93.1096C160.493 91.4804 161.05 89.4567 161.078 89.3589C161.124 89.1932 161.251 89.0639 161.412 89.0178C161.573 88.9724 161.747 89.0151 161.869 89.1331L167.398 94.4317C167.939 94.8541 168.354 95.357 168.631 95.9269C168.636 95.9372 168.64 95.9482 168.645 95.9591L173.963 109.147C174.041 109.339 173.994 109.561 173.845 109.703L167.381 115.868C167.291 115.954 167.173 116 167.054 116Z" fill="black"/>
<path fill-rule="evenodd" clip-rule="evenodd" d="M174.744 106L158 121.606L166.855 129L181 115.156L174.744 106Z" fill="white"/>
<path fill-rule="evenodd" clip-rule="evenodd" d="M159.197 122.09L166.94 128.843L179.9 115.592L174.442 107.247L159.197 122.09ZM166.966 130C166.854 130 166.743 129.961 166.652 129.882L158.168 122.481C158.065 122.391 158.004 122.261 158 122.123C157.997 121.986 158.05 121.852 158.148 121.757L174.192 106.136C174.295 106.036 174.435 105.987 174.578 106.003C174.719 106.019 174.847 106.098 174.926 106.218L180.92 115.383C181.046 115.576 181.021 115.834 180.86 115.998L167.307 129.855C167.213 129.951 167.09 130 166.966 130Z" fill="black"/>
<path fill-rule="evenodd" clip-rule="evenodd" d="M161 129.031L179.495 111.741C179.495 111.741 181.992 114.859 185.602 114.88C189.213 114.902 197.124 104 197.124 104L199 126.368C199 126.368 187.484 146.137 161 129.031Z" fill="#AA4465"/>
<path fill-rule="evenodd" clip-rule="evenodd" d="M197.577 104.078C197.577 104.078 202.49 99.5701 225.002 103.833C225.002 103.833 226.24 116.678 230.749 128.045C235.257 139.412 240.733 146.396 239.919 153.99C237.504 152.921 234.831 152.536 232.203 152.877L200.7 156.965C198.597 157.238 196.621 155.892 196.187 153.866C195.579 151.032 195.082 145.96 195.435 136.948C195.641 131.693 193.356 112.876 197.577 104.078Z" fill="#AA4465"/>
<path fill-rule="evenodd" clip-rule="evenodd" d="M236.496 133L231.518 142.586L226.442 139.619L217.73 142.204C217.73 142.204 219.2 144.244 223.411 142.428L217 146.085C217 146.085 218.95 147.419 222.783 144.819L219.108 148C219.108 148 222.075 147.049 223.656 146.867L225.237 146.684C225.237 146.684 226.981 146.758 228.379 147.282C229.776 147.807 231.748 148.136 233.767 147.375L235.786 146.614L242 136.552L236.496 133Z" fill="white"/>
<path fill-rule="evenodd" clip-rule="evenodd" d="M226.065 146.674C226.072 146.674 226.078 146.674 226.085 146.674C226.162 146.677 227.991 146.757 229.498 147.3C230.534 147.674 232.597 148.182 234.775 147.393L236.719 146.689L242.811 137.215L237.963 134.211L233.032 143.329C232.9 143.573 232.6 143.661 232.362 143.528L227.257 140.662L219.392 142.903C220.165 143.235 221.601 143.443 223.979 142.458C224.223 142.357 224.501 142.469 224.612 142.712C224.724 142.956 224.63 143.246 224.398 143.373L218.859 146.407C219.77 146.447 221.232 146.201 223.246 144.889C223.466 144.746 223.759 144.803 223.912 145.021C224.066 145.238 224.026 145.54 223.823 145.709L221.819 147.375C222.694 147.152 223.654 146.938 224.367 146.859L226.012 146.677C226.03 146.675 226.047 146.674 226.065 146.674ZM219.687 149C219.508 149 219.338 148.9 219.251 148.731C219.14 148.518 219.193 148.254 219.375 148.102L220.376 147.271C218.363 147.722 217.291 147.048 217.227 147.006C217.08 146.909 216.994 146.74 217 146.56C217.008 146.381 217.106 146.219 217.261 146.134L220.822 144.184C218.759 144.161 217.912 143.076 217.862 143.01C217.762 142.877 217.733 142.702 217.785 142.542C217.837 142.383 217.963 142.26 218.121 142.215L227.185 139.632C227.309 139.597 227.442 139.613 227.556 139.676L232.405 142.398L237.346 133.261C237.411 133.14 237.522 133.053 237.651 133.017C237.782 132.982 237.92 133.002 238.035 133.073L243.762 136.622C243.877 136.693 243.958 136.809 243.988 136.944C244.017 137.077 243.992 137.218 243.919 137.333L237.453 147.387C237.394 147.479 237.307 147.549 237.206 147.586L235.105 148.346C232.64 149.239 230.328 148.672 229.169 148.254C227.912 147.801 226.332 147.7 226.08 147.686L224.473 147.864C222.893 148.039 219.86 148.969 219.83 148.979C219.783 148.993 219.735 149 219.687 149Z" fill="black"/>
<path fill-rule="evenodd" clip-rule="evenodd" d="M238.563 126L236 132.735L250.78 143C250.78 143 253.841 134.085 254 130.492L238.563 126Z" fill="white"/>
<path fill-rule="evenodd" clip-rule="evenodd" d="M235.134 132.649L249.835 141.782C250.525 139.923 252.652 134.016 252.956 131.079L237.512 127.058L235.134 132.649ZM250.096 143C249.998 143 249.902 142.973 249.818 142.921L234.229 133.238C234.027 133.112 233.946 132.868 234.037 132.655L236.741 126.301C236.837 126.075 237.094 125.952 237.345 126.017L253.627 130.255C253.856 130.315 254.011 130.517 253.999 130.742C253.83 134.165 250.706 142.337 250.573 142.684C250.52 142.822 250.403 142.929 250.256 142.976C250.204 142.992 250.15 143 250.096 143Z" fill="black"/>
<path fill-rule="evenodd" clip-rule="evenodd" d="M223 117.649L232.688 121.763C234.728 122.629 235.786 124.918 235.135 127.057L234.922 127.757L254.193 135C254.193 135 256.873 125.862 252.467 117.649C248.061 109.437 224.753 104 224.753 104L223 117.649Z" fill="#AA4465"/>
<path fill-rule="evenodd" clip-rule="evenodd" d="M205.143 90.8196L207.404 100.477L201 102.664C201 102.664 209.541 107.581 222 103.147L215.448 99.7919L211.08 88L205.143 90.8196Z" fill="white"/>
<path fill-rule="evenodd" clip-rule="evenodd" d="M202.745 102.229C205.146 103.282 211.664 105.423 220.299 102.546L215.034 99.7184C214.926 99.6607 214.844 99.5646 214.803 99.4489L210.823 88.1782L205.999 90.5809L208.072 99.8617C208.126 100.105 207.992 100.35 207.759 100.433L202.745 102.229ZM211.607 105C205.351 105 201.47 102.72 201.237 102.579C201.075 102.481 200.984 102.298 201.002 102.108C201.021 101.919 201.147 101.758 201.325 101.694L207.023 99.6525L204.961 90.4189C204.912 90.1979 205.019 89.971 205.222 89.8707L210.883 87.0512C211.008 86.9886 211.153 86.9833 211.283 87.0358C211.412 87.0886 211.513 87.1945 211.56 87.3273L215.661 98.9403L221.741 102.205C221.911 102.297 222.012 102.48 221.999 102.673C221.986 102.865 221.861 103.033 221.681 103.1C217.899 104.512 214.499 105 211.607 105Z" fill="black"/>
<path fill-rule="evenodd" clip-rule="evenodd" d="M210.532 90.5445C210.532 90.5445 212.589 91.1659 212.95 89.2032C213.311 87.2405 211.609 87.5389 211.609 87.5389C211.609 87.5389 213.075 83.1666 210.206 83.055C207.337 82.9434 205.169 82 205.169 82C205.169 82 203.449 86.2043 203.072 89.6177C202.845 91.676 203.107 93.4468 204.529 93.8335C208.422 94.8936 210.532 90.5445 210.532 90.5445Z" fill="white"/>
<path fill-rule="evenodd" clip-rule="evenodd" d="M206.133 82.1647C205.658 83.3777 204.359 86.8966 204.03 89.8106C203.764 92.1677 204.185 93.5107 205.278 93.8021C209.163 94.8364 211.286 90.6818 211.375 90.5044C211.48 90.2936 211.707 90.1881 211.921 90.2508C211.937 90.2553 212.861 90.5123 213.473 90.1024C213.746 89.9187 213.918 89.6228 213.998 89.1973C214.059 88.8766 214.089 88.4476 213.894 88.2247C213.678 87.9774 213.205 87.9891 213.057 88.0129C212.894 88.0394 212.722 87.9691 212.616 87.8272C212.509 87.6856 212.479 87.494 212.537 87.3228C212.764 86.6582 213.222 84.7255 212.631 83.7733C212.394 83.3915 211.998 83.1952 211.419 83.1731C208.963 83.0797 206.977 82.4675 206.133 82.1647ZM206.488 95C206.034 95 205.555 94.9401 205.05 94.8057C203.923 94.5053 202.666 93.3732 203.081 89.6855C203.501 85.9616 205.357 81.4922 205.436 81.3038C205.541 81.053 205.81 80.9355 206.046 81.0357C206.069 81.0454 208.41 82.0245 211.453 82.1402C212.348 82.1744 213.012 82.5306 213.425 83.1989C214.122 84.3245 213.855 86.0488 213.626 86.9986C213.942 87.053 214.301 87.1909 214.582 87.5078C214.97 87.946 215.089 88.5837 214.935 89.4033C214.801 90.1158 214.476 90.6477 213.971 90.9847C213.303 91.4291 212.49 91.3943 212.031 91.324C211.453 92.2831 209.547 95 206.488 95Z" fill="black"/>
<path fill-rule="evenodd" clip-rule="evenodd" d="M194.654 131C194.468 131 194.314 130.788 194.308 130.52L194 117.514C193.994 117.24 194.143 117.01 194.334 117C194.524 116.989 194.686 117.206 194.692 117.48L195 130.486C195.006 130.76 194.857 130.99 194.666 131C194.661 131 194.658 131 194.654 131Z" fill="black"/>
<path fill-rule="evenodd" clip-rule="evenodd" d="M181 62C181 74.7026 170.702 85 158 85C145.297 85 135 74.7026 135 62C135 49.2974 145.297 39 158 39C170.702 39 181 49.2974 181 62Z" fill="#AA4465"/>
<path fill-rule="evenodd" clip-rule="evenodd" d="M181 61.5C181 73.9265 170.927 84 158.5 84C146.074 84 136 73.9265 136 61.5C136 49.0738 146.074 39 158.5 39C170.927 39 181 49.0738 181 61.5Z" fill="#AA4465"/>
<path fill-rule="evenodd" clip-rule="evenodd" d="M159 38.9935C146.865 38.9935 136.994 48.8658 136.994 61C136.994 73.1345 146.865 83.0065 159 83.0065C171.135 83.0065 181.006 73.1345 181.006 61C181.006 48.8658 171.135 38.9935 159 38.9935ZM159 84C146.318 84 136 73.6823 136 61C136 48.3177 146.318 38 159 38C171.682 38 182 48.3177 182 61C182 73.6823 171.682 84 159 84Z" fill="black"/>
<path fill-rule="evenodd" clip-rule="evenodd" d="M177 62.5C177 72.7175 168.718 81 158.5 81C148.283 81 140 72.7175 140 62.5C140 52.2829 148.283 44 158.5 44C168.718 44 177 52.2829 177 62.5Z" fill="white"/>
<path fill-rule="evenodd" clip-rule="evenodd" d="M175.46 73C175.375 73 175.288 72.974 175.211 72.9189C174.997 72.7673 174.936 72.4535 175.074 72.2188C175.958 70.7115 176.639 69.0779 177.097 67.3639C177.169 67.0951 177.427 66.9417 177.669 67.0208C177.913 67.0995 178.053 67.3811 177.981 67.6493C177.498 69.4572 176.78 71.1789 175.847 72.768C175.76 72.9183 175.611 73 175.46 73Z" fill="black"/>
<path fill-rule="evenodd" clip-rule="evenodd" d="M174.522 54C174.344 54 174.174 53.8938 174.091 53.7115C171.101 47.1195 164.995 43.0242 158.153 43.0242C152.533 43.0242 147.192 45.9247 143.864 50.783C143.708 51.0111 143.408 51.0606 143.196 50.893C142.983 50.726 142.936 50.4058 143.092 50.1774C146.599 45.0572 152.23 42 158.153 42C165.255 42 171.848 46.4214 174.952 53.2643C175.067 53.5186 174.968 53.8249 174.73 53.9488C174.663 53.9836 174.592 54 174.522 54Z" fill="black"/>
<path fill-rule="evenodd" clip-rule="evenodd" d="M159.5 81C148.747 81 140 72.3378 140 61.6906C140 58.3825 140.859 55.1193 142.484 52.2526C142.619 52.0141 142.924 51.9299 143.165 52.0632C143.405 52.1972 143.491 52.4988 143.355 52.7373C141.814 55.4558 141 58.5521 141 61.6906C141 71.792 149.299 80.0101 159.5 80.0101C159.776 80.0101 160 80.2319 160 80.5051C160 80.7783 159.776 81 159.5 81Z" fill="black"/>
<path fill-rule="evenodd" clip-rule="evenodd" d="M156.718 75V71.8567C154.464 71.7575 152.278 71.1619 151 70.4339L152.009 66.5627C153.421 67.3235 155.406 68.0186 157.592 68.0186C159.509 68.0186 160.821 67.2906 160.821 65.9671C160.821 64.7097 159.745 63.9153 157.256 63.0884C153.657 61.8974 151.201 60.2425 151.201 57.0332C151.201 54.1213 153.287 51.8384 156.886 51.1433V48H160.182V50.9119C162.435 51.0112 163.949 51.4746 165.059 52.0037L164.083 55.7425C163.209 55.3787 161.661 54.6179 159.24 54.6179C157.054 54.6179 156.347 55.5444 156.347 56.4705C156.347 57.5627 157.525 58.2575 160.384 59.3164C164.386 60.706 166 62.5261 166 65.5041C166 68.4488 163.882 70.9634 160.013 71.6253V75H156.718Z" fill="#AA4465"/>
</svg>
