<svg width="65" height="59" viewBox="0 0 65 59" fill="none" xmlns="http://www.w3.org/2000/svg">
<g id="Group 37">
<path id="Fill 1" fill-rule="evenodd" clip-rule="evenodd" d="M63.3706 45.4927L52.6616 34.7837L48.7126 38.7127L59.4316 49.4317C60.0636 50.0637 61.2806 49.8697 62.1506 48.9997L62.9386 48.2117C63.8086 47.3417 64.0026 46.1247 63.3706 45.4927Z" fill="#AA4465"/>
<path id="Stroke 3" d="M48.7129 38.7129L59.4319 49.4319C60.0639 50.0639 61.2809 49.8699 62.1509 48.9999L62.9389 48.2119C63.8089 47.3419 64.0029 46.1249 63.3709 45.4929L52.6609 34.7839" stroke="#2A2B2E" stroke-width="2"/>
<path id="Stroke 5" fill-rule="evenodd" clip-rule="evenodd" d="M56 24.5C56 34.165 48.165 42 38.5 42C28.835 42 21 34.165 21 24.5C21 14.835 28.835 7 38.5 7C48.165 7 56 14.835 56 24.5Z" stroke="#2A2B2E" stroke-width="2"/>
<path id="Stroke 7" d="M38.5 1C51.479 1 62 11.521 62 24.5" stroke="#2A2B2E" stroke-width="2"/>
<path id="Fill 9" fill-rule="evenodd" clip-rule="evenodd" d="M51 22L38 13V18H26L25 26H38V31L51 22Z" fill="#AA4465"/>
<path id="Stroke 11" d="M25 26H38V31L51 22L38 13V18H26" stroke="#2A2B2E" stroke-width="2"/>
<path id="Stroke 13" d="M30 35H38" stroke="#2A2B2E" stroke-width="2"/>
<path id="Stroke 15" d="M42 35H44" stroke="#2A2B2E" stroke-width="2"/>
<path id="Stroke 17" d="M18 18H8" stroke="#2A2B2E" stroke-width="2"/>
<path id="Stroke 19" d="M17 26H11" stroke="#2A2B2E" stroke-width="2"/>
<path id="Stroke 21" d="M41 47H43" stroke="#2A2B2E" stroke-width="2"/>
<path id="Stroke 23" d="M47 47H49" stroke="#2A2B2E" stroke-width="2"/>
<path id="Stroke 25" d="M2 18H4" stroke="#2A2B2E" stroke-width="2"/>
<path id="Stroke 27" d="M36 47H16V52L2 42L16 30V35H20" stroke="#2A2B2E" stroke-width="2"/>
<path id="Stroke 29" d="M29 58H45" stroke="#2A2B2E" stroke-width="2"/>
<path id="Stroke 31" d="M49 58H51" stroke="#2A2B2E" stroke-width="2"/>
<path id="Stroke 33" d="M22 5H13" stroke="#2A2B2E" stroke-width="2"/>
<path id="Stroke 35" d="M9 5H7" stroke="#2A2B2E" stroke-width="2"/>
</g>
</svg>
