<svg width="64" height="49" viewBox="0 0 64 49" fill="none" xmlns="http://www.w3.org/2000/svg">
<g id="Group 41">
<path id="Fill 1" fill-rule="evenodd" clip-rule="evenodd" d="M60 1.5H28C26.343 1.5 25 2.843 25 4.5V7.5V15.5V24.5C25 26.157 26.343 27.5 28 27.5H60C61.657 27.5 63 26.157 63 24.5V4.5C63 2.843 61.657 1.5 60 1.5Z" fill="white"/>
<path id="Stroke 3" d="M25 12.5V4.5C25 2.843 26.343 1.5 28 1.5H60C61.657 1.5 63 2.843 63 4.5V24.5C63 26.157 61.657 27.5 60 27.5H28C26.343 27.5 25 26.157 25 24.5V15.5" stroke="#2A2B2E" stroke-width="2"/>
<path id="Stroke 5" d="M60 4.5L47.519 15.198C46.539 16.038 45.291 16.5 44 16.5C42.709 16.5 41.461 16.038 40.481 15.198L28 4.5" stroke="#2A2B2E" stroke-width="2"/>
<path id="Stroke 7" d="M49 13.5L60 24.5" stroke="#2A2B2E" stroke-width="2"/>
<path id="Stroke 9" d="M39 13.5L34 18.5" stroke="#2A2B2E" stroke-width="2"/>
<path id="Fill 11" fill-rule="evenodd" clip-rule="evenodd" d="M36 21.5H4C2.343 21.5 1 22.843 1 24.5V44.5C1 46.157 2.343 47.5 4 47.5H36C37.657 47.5 39 46.157 39 44.5V24.5C39 22.843 37.657 21.5 36 21.5Z" fill="#AA4465"/>
<path id="Stroke 13" d="M39 34.5V24.5C39 22.843 37.657 21.5 36 21.5H4C2.343 21.5 1 22.843 1 24.5V44.5C1 46.157 2.343 47.5 4 47.5H36C37.657 47.5 39 46.157 39 44.5V38.5" stroke="#2A2B2E" stroke-width="2"/>
<path id="Stroke 15" d="M35 24.5L23.519 35.198C22.539 36.038 21.291 36.5 20 36.5C18.709 36.5 17.461 36.038 16.481 35.198L4 24.5" stroke="#2A2B2E" stroke-width="2"/>
<path id="Stroke 17" d="M25 33.5L36 44.5" stroke="#2A2B2E" stroke-width="2"/>
<path id="Stroke 19" d="M14.5 34L4 44.5" stroke="#2A2B2E" stroke-width="2"/>
<path id="Stroke 21" d="M29 12.5H17" stroke="#2A2B2E" stroke-width="2"/>
<path id="Stroke 23" d="M21 1.5H10" stroke="#2A2B2E" stroke-width="2"/>
<path id="Stroke 25" d="M35 35.5H47" stroke="#2A2B2E" stroke-width="2"/>
<path id="Stroke 27" d="M43 47.5H54" stroke="#2A2B2E" stroke-width="2"/>
<path id="Stroke 29" d="M8 1.5H6" stroke="#2A2B2E" stroke-width="2"/>
<path id="Stroke 31" d="M4 1.5H2" stroke="#2A2B2E" stroke-width="2"/>
<path id="Stroke 33" d="M15 12.5H13" stroke="#2A2B2E" stroke-width="2"/>
<path id="Stroke 35" d="M56 47.5H58" stroke="#2A2B2E" stroke-width="2"/>
<path id="Stroke 37" d="M60 47.5H62" stroke="#2A2B2E" stroke-width="2"/>
<path id="Stroke 39" d="M48 35.5H50" stroke="#2A2B2E" stroke-width="2"/>
</g>
</svg>
