<svg width="59" height="64" viewBox="0 0 59 64" fill="none" xmlns="http://www.w3.org/2000/svg">
<g id="Group 24">
<g id="Group 4">
<path id="Fill 1" fill-rule="evenodd" clip-rule="evenodd" d="M36.0002 16.9999V20.9999H15.0002L10.8002 26.5999C10.2242 27.3689 9.00024 26.9609 9.00024 25.9999V20.9999H6.00024V0.999878H36.0002V6.99788" fill="#AA4465"/>
<path id="Stroke 3" d="M36.0002 16.9999V20.9999H15.0002L10.8002 26.5999C10.2242 27.3689 9.00024 26.9609 9.00024 25.9999V20.9999H6.00024V0.999878H36.0002V6.99788" stroke="#2A2B2E" stroke-width="2"/>
</g>
<path id="Stroke 5" d="M5.00024 58.9999H12.0262C14.2762 58.9999 14.8602 61.9999 18.0262 61.9999H26.0002" stroke="#2A2B2E" stroke-width="2"/>
<path id="Stroke 7" fill-rule="evenodd" clip-rule="evenodd" d="M38.0001 46.0004H33.0071C31.9021 46.0004 31.0071 46.8964 31.0071 48.0004V50.0004C31.0071 51.1054 31.9021 52.0004 33.0071 52.0004H38.0001C39.1041 52.0004 40.0001 51.1054 40.0001 50.0004V48.0004C40.0001 46.8964 39.1041 46.0004 38.0001 46.0004Z" stroke="#2A2B2E" stroke-width="2"/>
<path id="Stroke 9" fill-rule="evenodd" clip-rule="evenodd" d="M37.0001 39.9999H32.0071C30.9021 39.9999 30.0071 40.8959 30.0071 41.9999V43.9999C30.0071 45.1049 30.9021 45.9999 32.0071 45.9999H37.0001C38.1041 45.9999 39.0001 45.1049 39.0001 43.9999V41.9999C39.0001 40.8959 38.1041 39.9999 37.0001 39.9999Z" stroke="#2A2B2E" stroke-width="2"/>
<path id="Stroke 11" fill-rule="evenodd" clip-rule="evenodd" d="M36.9935 52.0004H32.0005C30.8955 52.0004 30.0005 52.8964 30.0005 54.0004V56.0004C30.0005 57.1054 30.8955 58.0004 32.0005 58.0004H36.9935C38.0975 58.0004 38.9935 57.1054 38.9935 56.0004V54.0004C38.9935 52.8964 38.0975 52.0004 36.9935 52.0004Z" stroke="#2A2B2E" stroke-width="2"/>
<path id="Stroke 13" fill-rule="evenodd" clip-rule="evenodd" d="M34.9925 58.0004H29.9995C28.8945 58.0004 27.9995 58.8964 27.9995 60.0004V61.0004C27.9995 62.1054 28.8945 63.0004 29.9995 63.0004H34.9925C36.0965 63.0004 36.9925 62.1054 36.9925 61.0004V60.0004C36.9925 58.8964 36.0965 58.0004 34.9925 58.0004Z" stroke="#2A2B2E" stroke-width="2"/>
<mask id="mask0" style="mask-type:alpha" maskUnits="userSpaceOnUse" x="0" y="0" width="59" height="65">
<path id="Clip 16" fill-rule="evenodd" clip-rule="evenodd" d="M0 64.001H59V0H0V64.001Z" fill="white"/>
</mask>
<g mask="url(#mask0)">
<path id="Fill 15" fill-rule="evenodd" clip-rule="evenodd" d="M1 62H11V40H1V62Z" fill="#AA4465"/>
<path id="Stroke 17" fill-rule="evenodd" clip-rule="evenodd" d="M1 62H11V40H1V62Z" stroke="#2A2B2E" stroke-width="2"/>
<path id="Stroke 18" d="M19.2035 53.9999C23.9445 52.2249 26.9035 47.7709 27.0005 42.9999V37.9999C27.0005 37.2729 28.0005 35.6699 28.0005 32.4199C28.0005 29.1279 27.4015 27.9119 26.0005 26.0979C24.5835 24.2639 22.0005 24.7889 22.0005 26.5579V27.9999C22.0005 31.9539 20.5495 34.6319 17.9225 37.5869L14.0005 41.9999H12.0005" stroke="#2A2B2E" stroke-width="2"/>
<path id="Stroke 19" d="M29.0002 30.9999H35.0002L39.2002 36.5999C39.7762 37.3689 41.0002 36.9609 41.0002 35.9999V30.9999H44.0002V13.9999H17.0002V17.9999" stroke="#2A2B2E" stroke-width="2"/>
<path id="Stroke 20" d="M36.0002 9.99988V13.9999" stroke="#2A2B2E" stroke-width="2"/>
<path id="Stroke 21" d="M44.0002 24.998H49.0002L53.2002 30.598C53.7762 31.367 55.0002 30.959 55.0002 29.998V24.998H58.0002V6.99805H26.0002V11" stroke="#2A2B2E" stroke-width="2"/>
<path id="Stroke 22" d="M22.0002 30.9999H17.0002V23.9999" stroke="#2A2B2E" stroke-width="2"/>
<path id="Stroke 23" d="M6.00024 42.9999V46.9999" stroke="#2A2B2E" stroke-width="2"/>
</g>
</g>
</svg>
