<svg width="57" height="56" viewBox="0 0 57 56" fill="none" xmlns="http://www.w3.org/2000/svg">
<g id="Group 47">
<path id="Fill 1" fill-rule="evenodd" clip-rule="evenodd" d="M44 27C44 36.941 35.941 45 26 45C16.059 45 8 36.941 8 27C8 17.059 16.059 9 26 9C35.941 9 44 17.059 44 27Z" fill="#C9CEBD"/>
<path id="Stroke 3" d="M50 14H41.787L37.104 21H28" stroke="#2A2B2E" stroke-width="2"/>
<path id="Stroke 5" d="M52 27H37" stroke="#2A2B2E" stroke-width="2"/>
<path id="Fill 7" fill-rule="evenodd" clip-rule="evenodd" d="M46 14.5C46 16.433 47.567 18 49.5 18C51.433 18 53 16.433 53 14.5C53 12.567 51.433 11 49.5 11C47.567 11 46 12.567 46 14.5Z" fill="#AA4465"/>
<path id="Stroke 9" fill-rule="evenodd" clip-rule="evenodd" d="M46 14.5C46 16.433 47.567 18 49.5 18C51.433 18 53 16.433 53 14.5C53 12.567 51.433 11 49.5 11C47.567 11 46 12.567 46 14.5Z" stroke="#2A2B2E" stroke-width="2"/>
<path id="Stroke 11" d="M50 39H41.787L37.246 33H35" stroke="#2A2B2E" stroke-width="2"/>
<path id="Fill 13" fill-rule="evenodd" clip-rule="evenodd" d="M46 39.5152C46 37.5902 47.567 36.0302 49.5 36.0302C51.433 36.0302 53 37.5902 53 39.5152C53 41.4402 51.433 43.0002 49.5 43.0002C47.567 43.0002 46 41.4402 46 39.5152Z" fill="#AA4465"/>
<path id="Stroke 15" fill-rule="evenodd" clip-rule="evenodd" d="M46 39.5152C46 37.5902 47.567 36.0302 49.5 36.0302C51.433 36.0302 53 37.5902 53 39.5152C53 41.4402 51.433 43.0002 49.5 43.0002C47.567 43.0002 46 41.4402 46 39.5152Z" stroke="#2A2B2E" stroke-width="2"/>
<path id="Fill 17" fill-rule="evenodd" clip-rule="evenodd" d="M49 26.5C49 28.433 50.567 30 52.5 30C54.433 30 56 28.433 56 26.5C56 24.567 54.433 23 52.5 23C50.567 23 49 24.567 49 26.5Z" fill="#AA4465"/>
<path id="Stroke 19" fill-rule="evenodd" clip-rule="evenodd" d="M49 26.5C49 28.433 50.567 30 52.5 30C54.433 30 56 28.433 56 26.5C56 24.567 54.433 23 52.5 23C50.567 23 49 24.567 49 26.5Z" stroke="#2A2B2E" stroke-width="2"/>
<path id="Stroke 21" d="M41.6895 52.4712L33.0005 40.0002H26.0005" stroke="#2A2B2E" stroke-width="2"/>
<path id="Fill 23" fill-rule="evenodd" clip-rule="evenodd" d="M38 51.5C38 49.567 39.567 48 41.5 48C43.433 48 45 49.567 45 51.5C45 53.433 43.433 55 41.5 55C39.567 55 38 53.433 38 51.5Z" fill="#AA4465"/>
<path id="Stroke 25" fill-rule="evenodd" clip-rule="evenodd" d="M38 51.5C38 49.567 39.567 48 41.5 48C43.433 48 45 49.567 45 51.5C45 53.433 43.433 55 41.5 55C39.567 55 38 53.433 38 51.5Z" stroke="#2A2B2E" stroke-width="2"/>
<path id="Stroke 27" d="M42.8955 3.82324L34.9055 13.0002H32.9995" stroke="#2A2B2E" stroke-width="2"/>
<path id="Fill 29" fill-rule="evenodd" clip-rule="evenodd" d="M40 4.5C40 6.433 41.567 8 43.5 8C45.433 8 47 6.433 47 4.5C47 2.567 45.433 1 43.5 1C41.567 1 40 2.567 40 4.5Z" fill="#AA4465"/>
<path id="Stroke 31" fill-rule="evenodd" clip-rule="evenodd" d="M40 4.5C40 6.433 41.567 8 43.5 8C45.433 8 47 6.433 47 4.5C47 2.567 45.433 1 43.5 1C41.567 1 40 2.567 40 4.5Z" stroke="#2A2B2E" stroke-width="2"/>
<path id="Stroke 33" d="M29 46V52H21.014L20.98 46.847C18.817 46.334 16.794 45.483 14.965 44.313L11.425 47.576L5.639 41.657L8.618 37.833C7.476 35.961 6.5 33.215 6 31H1V22H6.102C6.602 20 7.476 18.067 8.618 16.194L5.639 12.821L11.425 6.93L14.965 9.811C16.794 8.641 18.817 7.893 20.98 7.381L21.014 3H29V7" stroke="#2A2B2E" stroke-width="2"/>
<path id="Stroke 35" d="M27.9999 33H25.9329C22.5829 33 19.8669 30.167 19.8669 27C19.8669 23.833 22.5829 21 25.9329 21H27.9999" stroke="#2A2B2E" stroke-width="2"/>
<path id="Stroke 37" d="M26 13C18.524 13 12 19.524 12 27C12 34.476 18.524 40 26 40" stroke="#2A2B2E" stroke-width="2"/>
<path id="Stroke 39" d="M30 27H28" stroke="#2A2B2E" stroke-width="2"/>
<path id="Stroke 41" d="M35 27H33" stroke="#2A2B2E" stroke-width="2"/>
<path id="Stroke 43" d="M28 13H30" stroke="#2A2B2E" stroke-width="2"/>
<path id="Stroke 45" d="M33 33H30" stroke="#2A2B2E" stroke-width="2"/>
</g>
</svg>
