<svg width="49" height="61" viewBox="0 0 49 61" fill="none" xmlns="http://www.w3.org/2000/svg">
<g id="Group 33">
<path id="Fill 1" fill-rule="evenodd" clip-rule="evenodd" d="M45 54H44V46H45C46.104 46 47 45.104 47 44C47 42.896 46.104 42 45 42H42.231C44.481 40.706 46 38.283 46 35.5C46 31.358 42.643 28 38.5 28C34.889 28 31.875 30.553 31.162 33.952L32 35L28 41V44H29C30.657 44 32 45.343 32 47V50H33C34.657 50 36 51.343 36 53V60H48V57C48 55.343 46.657 54 45 54Z" fill="#AA4465"/>
<path id="Fill 3" fill-rule="evenodd" clip-rule="evenodd" d="M29 22L32 25L36 21V18L26.808 8.634L31.001 4.51C28.261 2.313 24.784 1 21 1C12.163 1 5 8.164 5 17V33L9 36V44H8C6.343 44 5 45.343 5 47V50H4C2.343 50 1 51.343 1 53V60H36V53C36 51.343 34.657 50 33 50H32V47C32 45.343 30.657 44 29 44H28V41L32 35L24 25V22H29Z" fill="white"/>
<path id="Stroke 5" d="M5 50V47C5 45.343 6.343 44 8 44H16" stroke="#2A2B2E" stroke-width="2"/>
<path id="Stroke 7" d="M24 44H29C30.657 44 32 45.343 32 47V50" stroke="#2A2B2E" stroke-width="2"/>
<path id="Stroke 9" d="M19 50H4C2.343 50 1 51.343 1 53V60H36V53C36 51.343 34.657 50 33 50H26" stroke="#2A2B2E" stroke-width="2"/>
<path id="Stroke 11" d="M21 50H23" stroke="#2A2B2E" stroke-width="2"/>
<path id="Stroke 13" d="M18 44H20" stroke="#2A2B2E" stroke-width="2"/>
<path id="Stroke 15" d="M24 22V25L32 35L28 41V44" stroke="#2A2B2E" stroke-width="2"/>
<path id="Stroke 17" d="M9 44V36L5 33V17C5 8.164 12.163 1 21 1C24.784 1 28.261 2.313 31.001 4.51L27.255 8.255" stroke="#2A2B2E" stroke-width="2"/>
<path id="Stroke 19" d="M25 7L36 18V21L32 25L29 22H22C19.238 22 17 19.761 17 17" stroke="#2A2B2E" stroke-width="2"/>
<path id="Stroke 21" d="M21 5C14.373 5 9 10.373 9 17V22" stroke="#2A2B2E" stroke-width="2"/>
<path id="Stroke 23" d="M29 60H48V57C48 55.343 46.657 54 45 54H44V46H45C46.104 46 47 45.104 47 44C47 42.896 46.104 42 45 42H42.231C44.481 40.706 46 38.283 46 35.5C46 31.358 42.643 28 38.5 28C36.047 28 33.868 29.178 32.5 31" stroke="#2A2B2E" stroke-width="2"/>
<path id="Stroke 25" d="M42 42H37" stroke="#2A2B2E" stroke-width="2"/>
<path id="Stroke 27" d="M44 46H39" stroke="#2A2B2E" stroke-width="2"/>
<path id="Stroke 29" d="M44 54H39" stroke="#2A2B2E" stroke-width="2"/>
<path id="Stroke 31" d="M35 35C35 33.343 36.343 32 38 32" stroke="#2A2B2E" stroke-width="2"/>
</g>
</svg>
