<svg width="61" height="61" viewBox="0 0 61 61" fill="none" xmlns="http://www.w3.org/2000/svg">
<g id="Group 19">
<path id="Fill 1" fill-rule="evenodd" clip-rule="evenodd" d="M39.5947 44.7061L28.8947 55.4071C28.2077 56.0941 28.2837 57.2841 29.0647 58.0651L29.7717 58.7721C30.5527 59.5531 31.7427 59.6291 32.4297 58.9421L43.0927 48.2801L39.5947 44.7061Z" fill="#AA4465"/>
<path id="Fill 3" fill-rule="evenodd" clip-rule="evenodd" d="M42.9998 25.9999C42.9998 35.3889 35.3878 42.9999 25.9988 42.9999C16.6098 42.9999 8.99976 35.3889 8.99976 25.9999C8.99976 16.6109 16.6118 8.99988 26.0008 8.99988C35.3898 8.99988 42.9998 16.6109 42.9998 25.9999Z" fill="#C9CEBD"/>
<path id="Stroke 5" d="M29.535 50.7519C28.38 50.9149 27.2 50.9999 26 50.9999C12.193 50.9999 1 39.8069 1 25.9999C1 12.1929 12.193 1.00085 26 1.00085C39.305 1.00085 50.181 11.3929 50.956 24.5029" stroke="#2A2B2E" stroke-width="2"/>
<path id="Stroke 7" d="M25.9998 50.999C18.8198 50.999 12.9998 39.806 12.9998 25.999C12.9998 12.193 18.8208 1 25.9998 1C33.1798 1 38.9998 12.193 38.9998 26C38.9998 26.475 38.9928 26.947 38.9788 27.416" stroke="#2A2B2E" stroke-width="2"/>
<path id="Stroke 9" d="M25.9998 1.00037V51.0004" stroke="#2A2B2E" stroke-width="2"/>
<path id="Stroke 11" d="M3.77832 14.8892H48.2223" stroke="#2A2B2E" stroke-width="2"/>
<path id="Stroke 13" d="M3.77832 37.1113L34.0003 37.0003" stroke="#2A2B2E" stroke-width="2"/>
<path id="Stroke 15" d="M43.0921 48.2797L32.4291 58.9427C31.7431 59.6297 30.5521 59.5527 29.7721 58.7717L29.0651 58.0647C28.2831 57.2837 28.2071 56.0937 28.8941 55.4067L39.5941 44.7057" stroke="#2A2B2E" stroke-width="2"/>
<path id="Stroke 17" fill-rule="evenodd" clip-rule="evenodd" d="M59.9998 38.9999C59.9998 45.0749 55.0748 49.9999 48.9998 49.9999C42.9248 49.9999 37.9998 45.0749 37.9998 38.9999C37.9998 32.9249 42.9248 27.9999 48.9998 27.9999C55.0748 27.9999 59.9998 32.9249 59.9998 38.9999Z" stroke="#2A2B2E" stroke-width="2"/>
</g>
</svg>
