<svg width="29" height="29" viewBox="0 0 29 29" fill="none" xmlns="http://www.w3.org/2000/svg">
<path fill-rule="evenodd" clip-rule="evenodd" d="M14.5 0C9.31965 -7.71932e-08 4.53281 2.76368 1.94263 7.25C-0.647544 11.7363 -0.647544 17.2637 1.94263 21.75C4.53281 26.2363 9.31965 29 14.5 29C19.6804 29 24.4672 26.2363 27.0574 21.75C29.6475 17.2637 29.6475 11.7363 27.0574 7.25C24.4672 2.76368 19.6804 -1.09168e-07 14.5 0V0Z" fill="#C9CEBD"/>
<path fill-rule="evenodd" clip-rule="evenodd" d="M8.944 22H7.056C6.473 22 6 21.527 6 20.944V13.556C6 12.973 6.473 12.5 7.056 12.5H8.944C9.527 12.5 10 12.973 10 13.556V20.944C10 21.527 9.527 22 8.944 22V22Z" stroke="#AA4465" stroke-width="1.5" stroke-linecap="round" stroke-linejoin="round"/>
<path d="M10 13.5719L13.649 8.82094C14.328 7.93594 15.654 7.91394 16.363 8.77494V8.77494C16.628 9.09594 16.772 9.49994 16.772 9.91594V13.1869H19.868C20.469 13.1869 21.03 13.4869 21.364 13.9859L21.693 14.4769C21.988 14.9179 22.074 15.4669 21.927 15.9759L20.568 20.6979C20.346 21.4689 19.641 21.9999 18.839 21.9999H12.55C12.05 21.9999 11.572 21.7919 11.232 21.4259L10 20.0999" stroke="#AA4465" stroke-width="1.5" stroke-linecap="round" stroke-linejoin="round"/>
</svg>
