<svg width="21" height="17" viewBox="0 0 21 17" fill="none" xmlns="http://www.w3.org/2000/svg">
<path fill-rule="evenodd" clip-rule="evenodd" d="M3.68 17H1.32C0.59125 17 0 16.4025 0 15.6661V6.33389C0 5.59747 0.59125 5 1.32 5H3.68C4.40875 5 5 5.59747 5 6.33389V15.6661C5 16.4025 4.40875 17 3.68 17Z" fill="#AA4465"/>
<path fill-rule="evenodd" clip-rule="evenodd" d="M6 6.66039L10.5623 0.83178C11.4112 -0.253953 13.0691 -0.280943 13.9555 0.775346C14.2868 1.16915 14.4669 1.66479 14.4669 2.17514V6.18806H18.3377C19.0892 6.18806 19.7906 6.55611 20.2082 7.16829L20.6195 7.77066C20.9883 8.31168 21.0959 8.9852 20.9121 9.60965L19.2129 15.4027C18.9354 16.3486 18.0539 17 17.0512 17H9.18821C8.56307 17 7.96544 16.7448 7.54034 16.2958L6 14.669" fill="#AA4465"/>
</svg>
