<svg width="68" height="56" viewBox="0 0 68 56" fill="none" xmlns="http://www.w3.org/2000/svg">
<path fill-rule="evenodd" clip-rule="evenodd" d="M31.9993 52L41.9993 42.0004L45.9987 45.9997L47 29L29.9996 29.9998L34.0004 34.0005L27 41.0006" fill="#AA4465"/>
<path d="M31.9993 52L41.9993 42.0004L45.9987 45.9997L47 29L29.9996 29.9998L34.0004 34.0005L27 41.0006" stroke="#2A2B2E" stroke-width="2"/>
<path fill-rule="evenodd" clip-rule="evenodd" d="M45 22L54.9995 12.0006L58.9988 15.9998L60 1L45 1.9998L49.0007 6.0004L45 10.001" fill="white"/>
<path d="M45.3838 21.6192L55.1275 11.8011L59.0244 15.7278L60 1L45.3838 1.98167L49.2821 5.90972L45.3838 9.83778" stroke="#2A2B2E" stroke-width="2" stroke-linejoin="round"/>
<path d="M32.7166 44.2L25.897 51.073" stroke="#2A2B2E" stroke-width="2"/>
<path d="M23.9485 53.0366L22 55" stroke="#2A2B2E" stroke-width="2"/>
<path d="M24 19L16 27" stroke="#2A2B2E" stroke-width="2"/>
<path d="M14 29L12 31" stroke="#2A2B2E" stroke-width="2"/>
<path d="M10 33L8 35" stroke="#2A2B2E" stroke-width="2"/>
<path d="M67 16L60 23" stroke="#2A2B2E" stroke-width="2"/>
<path d="M58 24L56 26" stroke="#2A2B2E" stroke-width="2"/>
<path d="M54 28L52 30" stroke="#2A2B2E" stroke-width="2"/>
<path d="M12.7 22.3533L4.8999 30.1166" stroke="#2A2B2E" stroke-width="2"/>
<path d="M2.94968 32.0579L1 34.0001" stroke="#2A2B2E" stroke-width="2"/>
<path d="M23.4251 27.2054L33.1734 17.4999L39.0238 23.3237L40.0001 1H16.5998L23.4251 7.79293L13.6753 17.4999" stroke="#2A2B2E" stroke-width="2"/>
</svg>
