<svg width="61" height="57" viewBox="0 0 61 57" fill="none" xmlns="http://www.w3.org/2000/svg">
<path d="M46 41.9302V56H1V1H46V12.5116" stroke="#2A2B2E" stroke-width="2"/>
<path d="M1 8.67445H46" stroke="#2A2B2E" stroke-width="2"/>
<path d="M4.85693 4.83729H7.42836" stroke="#2A2B2E" stroke-width="2"/>
<path d="M8.71436 4.83729H11.2858" stroke="#2A2B2E" stroke-width="2"/>
<path fill-rule="evenodd" clip-rule="evenodd" d="M15 28H6V15H15" fill="#AA4465"/>
<path d="M15 28H6V15H15" stroke="#2A2B2E" stroke-width="2"/>
<path d="M5 34.5H15" stroke="#2A2B2E" stroke-width="2"/>
<path d="M5 39.5H15" stroke="#2A2B2E" stroke-width="2"/>
<path d="M5 44.5H22" stroke="#2A2B2E" stroke-width="2"/>
<path d="M5 49.5H22" stroke="#2A2B2E" stroke-width="2"/>
<path fill-rule="evenodd" clip-rule="evenodd" d="M57.4375 15H21.5625C20.148 15 19 16.1573 19 17.5833V36.9583C19 38.3843 20.148 39.5417 21.5625 39.5417H26.6875L30.5312 46L34.375 39.5417H57.4375C58.852 39.5417 60 38.3843 60 36.9583V17.5833C60 16.1573 58.852 15 57.4375 15Z" fill="white"/>
<path fill-rule="evenodd" clip-rule="evenodd" d="M57.4375 15H21.5625C20.148 15 19 16.1573 19 17.5833V36.9583C19 38.3843 20.148 39.5417 21.5625 39.5417H26.6875L30.5312 46L34.375 39.5417H57.4375C58.852 39.5417 60 38.3843 60 36.9583V17.5833C60 16.1573 58.852 15 57.4375 15Z" stroke="#2A2B2E" stroke-width="2" stroke-linejoin="round"/>
<path d="M43.3438 22.75L52.3125 31.7917" stroke="#2A2B2E" stroke-width="2"/>
<path d="M52.3125 22.75L43.3438 31.7917" stroke="#2A2B2E" stroke-width="2"/>
<path d="M36.9375 22.75L30.5312 31.7917L26.6875 27.9167" stroke="#2A2B2E" stroke-width="2"/>
</svg>
