<svg width="57" height="55" viewBox="0 0 57 55" fill="none" xmlns="http://www.w3.org/2000/svg">
<path fill-rule="evenodd" clip-rule="evenodd" d="M22 1V15.4718V27.5306V42H56V1H22Z" fill="white"/>
<path d="M22.522 15.4V1H56.0002V41.8H22.522V27.4" stroke="#2A2B2E" stroke-width="2" stroke-linejoin="round"/>
<path fill-rule="evenodd" clip-rule="evenodd" d="M36.8697 27.3999V26.1999C36.8697 25.2975 36.5744 24.6651 35.9742 24.0243C35.0714 23.0619 34.4844 21.8691 34.4844 20.4003C34.4844 17.6391 36.6246 15.3999 39.2634 15.3999C41.9034 15.3999 44.0436 17.6391 44.0436 20.4003C44.0436 21.8691 43.4565 23.0619 42.5526 24.0243C41.9536 24.6651 41.6523 25.2975 41.6523 26.1999V27.3999H36.8697Z" fill="#AA4465"/>
<path fill-rule="evenodd" clip-rule="evenodd" d="M36.8697 27.3999V26.1999C36.8697 25.2975 36.5744 24.6651 35.9742 24.0243C35.0714 23.0619 34.4844 21.8691 34.4844 20.4003C34.4844 17.6391 36.6246 15.3999 39.2634 15.3999C41.9034 15.3999 44.0436 17.6391 44.0436 20.4003C44.0436 21.8691 43.4565 23.0619 42.5526 24.0243C41.9536 24.6651 41.6523 25.2975 41.6523 26.1999V27.3999H36.8697Z" stroke="#2A2B2E" stroke-width="2"/>
<path d="M39.2609 11.8V5.80005" stroke="#2A2B2E" stroke-width="2"/>
<path d="M33.2828 14.2001L29.6958 10.6001" stroke="#2A2B2E" stroke-width="2"/>
<path d="M32.087 26.2L28.5 29.8" stroke="#2A2B2E" stroke-width="2"/>
<path d="M46.4346 26.2L50.0215 29.8" stroke="#2A2B2E" stroke-width="2"/>
<path d="M47.6304 20.2001H52.413" stroke="#2A2B2E" stroke-width="2"/>
<path d="M45.2393 14.2001L48.8262 10.6001" stroke="#2A2B2E" stroke-width="2"/>
<path fill-rule="evenodd" clip-rule="evenodd" d="M11.7606 15.3999C14.4975 15.3999 16.5432 13.0983 16.5432 10.2579V8.5431C16.5432 5.7027 14.4975 3.3999 11.7606 3.3999C9.02259 3.3999 6.97803 5.7027 6.97803 8.5431V10.2579C6.97803 13.0983 9.02259 15.3999 11.7606 15.3999Z" stroke="#2A2B2E" stroke-width="2"/>
<path d="M17.7391 55V23.8H24.913C28.5215 23.8 29.6957 21.664 29.6957 19H6.97826C2.69304 19 1 20.8156 1 26.2V34.6C1 37.1752 2.02109 39.4 4.58696 39.4H5.78261" stroke="#2A2B2E" stroke-width="2"/>
<path d="M11.7609 35.8V55" stroke="#2A2B2E" stroke-width="2"/>
<path d="M5.7824 26.2V55" stroke="#2A2B2E" stroke-width="2"/>
<path d="M36.8696 27.3999V29.7999L38.0653 30.9999H40.4566L41.6522 29.7999V27.3999" stroke="#2A2B2E" stroke-width="2"/>
</svg>
