<svg width="64" height="63" viewBox="0 0 64 63" fill="none" xmlns="http://www.w3.org/2000/svg">
<path fill-rule="evenodd" clip-rule="evenodd" d="M49.1645 40.001L35.2305 26H24.2305L16.2305 18L5.23047 29L10.2305 34C10.6605 35.474 12.0545 37.139 12.8925 37.729L26.4395 51.439L28.1325 53.132C30.7165 55.715 33.1275 53.814 34.3715 51.671C36.7385 52.891 39.3845 51.542 40.3255 49.702C43.3195 51.181 45.9415 48.118 45.7265 46.551C48.9615 46.361 51.3845 42.973 49.1645 40.001Z" fill="white"/>
<path fill-rule="evenodd" clip-rule="evenodd" d="M49.1645 40.001L35.2305 26H24.2305L16.2305 18L5.23047 29L10.2305 34C10.6605 35.474 12.0545 37.139 12.8925 37.729L26.4395 51.439L28.1325 53.132C30.7165 55.715 33.1275 53.814 34.3715 51.671C36.7385 52.891 39.3845 51.542 40.3255 49.702C43.3195 51.181 45.9415 48.118 45.7265 46.551C48.9615 46.361 51.3845 42.973 49.1645 40.001Z" stroke="#2A2B2E" stroke-width="2"/>
<path fill-rule="evenodd" clip-rule="evenodd" d="M47.2306 19C47.2306 19 43.1576 22.856 42.2306 23C41.0216 23.187 35.5996 20.641 34.5046 20.369C33.4106 20.097 22.4846 23.566 21.6736 24.882C20.8626 26.198 24.0886 29.307 27.1966 28.911C30.3026 28.517 34.9176 26.865 36.2616 28.209C38.4416 30.389 44.8016 37.06 47.8076 39.713C50.3276 41.938 54.6226 34.309 55.7096 33.108C55.7096 33.108 57.7096 31.659 59.1176 30.626L47.2306 19Z" fill="#C9CEBD"/>
<path fill-rule="evenodd" clip-rule="evenodd" d="M47.2306 19C47.2306 19 43.1576 22.856 42.2306 23C41.0216 23.187 35.5996 20.641 34.5046 20.369C33.4106 20.097 22.4846 23.566 21.6736 24.882C20.8626 26.198 24.0886 29.307 27.1966 28.911C30.3026 28.517 34.9176 26.865 36.2616 28.209C38.4416 30.389 44.8016 37.06 47.8076 39.713C50.3276 41.938 54.6226 34.309 55.7096 33.108C55.7096 33.108 57.7096 31.659 59.1176 30.626L47.2306 19Z" stroke="#2A2B2E" stroke-width="2"/>
<path d="M34.3716 51.6709L29.7266 47.0249" stroke="#2A2B2E" stroke-width="2"/>
<path d="M40.3261 49.702L33.5391 42.915" stroke="#2A2B2E" stroke-width="2"/>
<path d="M45.7278 46.5508L37.7598 38.5828" stroke="#2A2B2E" stroke-width="2"/>
<path fill-rule="evenodd" clip-rule="evenodd" d="M62.2305 29L57.2305 34L43.2305 20L48.2305 15L62.2305 29Z" fill="#AA4465"/>
<path fill-rule="evenodd" clip-rule="evenodd" d="M62.2305 29L57.2305 34L43.2305 20L48.2305 15L62.2305 29Z" stroke="#2A2B2E" stroke-width="2"/>
<path fill-rule="evenodd" clip-rule="evenodd" d="M48.2305 20L50.2305 22L48.2305 20Z" fill="#AA4465"/>
<path d="M48.2305 20L50.2305 22" stroke="#2A2B2E" stroke-width="2"/>
<path fill-rule="evenodd" clip-rule="evenodd" d="M2.23047 29L7.23047 34L21.2305 20L16.2305 15L2.23047 29Z" fill="#AA4465"/>
<path fill-rule="evenodd" clip-rule="evenodd" d="M2.23047 29L7.23047 34L21.2305 20L16.2305 15L2.23047 29Z" stroke="#2A2B2E" stroke-width="2"/>
<path fill-rule="evenodd" clip-rule="evenodd" d="M16.2305 20L14.2305 22L16.2305 20Z" fill="#AA4465"/>
<path d="M16.2305 20L14.2305 22" stroke="#2A2B2E" stroke-width="2"/>
<path d="M25.152 61.3749V61.3749C13 58.5689 4.226 48.8809 2 37.3789" stroke="#2A2B2E" stroke-width="2"/>
<path d="M38.9082 61.3779C49.9312 58.8239 59.1042 50.2289 61.8222 38.4609" stroke="#2A2B2E" stroke-width="2"/>
<path d="M54.3939 10.7275C50.3799 6.41549 45.0799 3.21449 38.9079 1.78949C27.8809 -0.755506 16.8769 3.01749 9.66992 10.7315" stroke="#2A2B2E" stroke-width="2"/>
<path fill-rule="evenodd" clip-rule="evenodd" d="M20.7608 51.7928C21.5418 52.5728 22.8088 52.5728 23.5898 51.7928L25.7108 49.6708C26.5478 48.8338 26.3338 47.4658 25.3578 46.4888C24.3808 45.5128 23.0118 45.2988 22.1758 46.1358C23.0118 45.2988 22.7978 43.9298 21.8218 42.9538C20.8458 41.9778 19.4768 41.7638 18.6398 42.6008C19.4768 41.7638 19.2628 40.3948 18.2858 39.4178C17.3098 38.4408 15.9418 38.2278 15.1048 39.0638C15.9418 38.2278 15.7268 36.8588 14.7508 35.8828C13.7748 34.9058 12.4058 34.6918 11.5688 35.5288L9.44783 37.6498C8.66583 38.4318 8.66583 39.6968 9.44783 40.4788L20.7608 51.7928Z" fill="#C9CEBD"/>
<path fill-rule="evenodd" clip-rule="evenodd" d="M20.7608 51.7928C21.5418 52.5728 22.8088 52.5728 23.5898 51.7928L25.7108 49.6708C26.5478 48.8338 26.3338 47.4658 25.3578 46.4888C24.3808 45.5128 23.0118 45.2988 22.1758 46.1358C23.0118 45.2988 22.7978 43.9298 21.8218 42.9538C20.8458 41.9778 19.4768 41.7638 18.6398 42.6008C19.4768 41.7638 19.2628 40.3948 18.2858 39.4178C17.3098 38.4408 15.9418 38.2278 15.1048 39.0638C15.9418 38.2278 15.7268 36.8588 14.7508 35.8828C13.7748 34.9058 12.4058 34.6918 11.5688 35.5288L9.44783 37.6498C8.66583 38.4318 8.66583 39.6968 9.44783 40.4788L20.7608 51.7928Z" stroke="#2A2B2E" stroke-width="2"/>
<path d="M26.2305 16L24.2305 14" stroke="#2A2B2E" stroke-width="2"/>
<path d="M30.2305 14L29.2305 11" stroke="#2A2B2E" stroke-width="2"/>
<path d="M34.2305 14L35.2305 11" stroke="#2A2B2E" stroke-width="2"/>
<path d="M38.2305 16L40.2305 14" stroke="#2A2B2E" stroke-width="2"/>
</svg>
