<svg width="377" height="378" viewBox="0 0 377 378" fill="none" xmlns="http://www.w3.org/2000/svg">
<path fill-rule="evenodd" clip-rule="evenodd" d="M149.496 11.1829C141.285 13.7424 104.855 25.6366 68.4782 57.1997C59.6655 64.846 24.0462 95.7518 8.82816 137.303C-17.0754 208.028 13.9208 315.625 103.2 358.865C207.191 409.231 338.551 347.238 368.511 264.275C381.799 227.479 382.397 166.46 348.924 126.224C321.984 93.8418 275.915 78.4557 277.7 47.826C278.559 33.0739 289.691 28.9955 286.603 19.7045C279.279 -2.3314 207.522 -6.90355 149.496 11.1829Z" fill="#C9CEBD"/>
<path fill-rule="evenodd" clip-rule="evenodd" d="M81.3366 55.1625C71.5816 57.8338 61.5084 52.091 58.8375 42.3367C56.1666 32.5815 61.909 22.5083 71.6639 19.8375C81.4188 17.1667 91.4916 22.909 94.163 32.6642C96.8339 42.4185 91.0915 52.4917 81.3366 55.1625ZM112.934 31.2118L111.055 24.351L103.293 24.7035C102.574 23.193 101.741 21.7606 100.799 20.4204L104.909 13.8376L99.8508 8.8353L93.3037 13.0221C91.9403 12.0876 90.5023 11.2676 89.0034 10.5712L89.2712 2.80402L82.3899 1L78.8188 7.8899C77.1863 7.76225 75.5291 7.77451 73.8625 7.92534L70.2123 1.06724L63.3506 2.94576L63.7034 10.7075C62.1926 11.4266 60.7601 12.2594 59.4203 13.2016L52.8378 9.09198L47.8351 14.1497L52.0226 20.6971C51.0875 22.06 50.2673 23.4983 49.5704 24.997L41.804 24.7294L40 31.6102L46.8899 35.1815C46.7617 36.8142 46.7749 38.4711 46.9253 40.1379L40.0668 43.7882L41.9454 50.649L49.7072 50.2965C50.4264 51.8075 51.2593 53.2399 52.2013 54.5796L48.0919 61.1624L53.1496 66.1647L59.6967 61.9779C61.0597 62.9128 62.4982 63.7324 63.9971 64.4293L63.7293 72.196L70.6105 74L74.1816 67.1101C75.8142 67.2382 77.4713 67.2255 79.1375 67.0747L82.7882 73.9332L89.6494 72.0547L89.2966 64.293C90.8078 63.5734 92.2399 62.7406 93.5801 61.7984L100.163 65.908L105.165 60.8508L100.978 54.3034C101.913 52.94 102.733 51.5017 103.43 50.0035L111.196 50.271L113 43.3898L106.111 39.819C106.238 38.1862 106.226 36.5289 106.075 34.8621L112.934 31.2118Z" fill="#2A2B2E"/>
<path fill-rule="evenodd" clip-rule="evenodd" d="M345.337 347.162C335.582 349.834 325.508 344.091 322.837 334.337C320.167 324.582 325.909 314.508 335.664 311.838C345.419 309.167 355.492 314.909 358.163 324.664C360.834 334.418 355.091 344.492 345.337 347.162ZM376.934 323.212L375.055 316.351L367.293 316.704C366.574 315.193 365.741 313.761 364.799 312.42L368.909 305.838L363.851 300.835L357.304 305.022C355.94 304.088 354.502 303.268 353.003 302.571L353.271 294.804L346.39 293L342.819 299.89C341.186 299.762 339.529 299.775 337.862 299.925L334.212 293.067L327.351 294.946L327.703 302.707C326.193 303.427 324.76 304.26 323.42 305.202L316.837 301.092L311.835 306.15L316.022 312.697C315.087 314.06 314.267 315.498 313.57 316.997L305.804 316.729L304 323.61L310.89 327.181C310.762 328.814 310.775 330.471 310.925 332.138L304.067 335.788L305.945 342.649L313.707 342.296C314.426 343.807 315.259 345.24 316.201 346.58L312.092 353.162L317.15 358.165L323.697 353.978C325.06 354.913 326.498 355.732 327.997 356.429L327.729 364.196L334.611 366L338.182 359.11C339.814 359.238 341.471 359.225 343.138 359.075L346.788 365.933L353.649 364.055L353.297 356.293C354.808 355.573 356.24 354.741 357.58 353.798L364.163 357.908L369.165 352.851L364.978 346.303C365.913 344.94 366.733 343.502 367.43 342.003L375.196 342.271L377 335.39L370.111 331.819C370.238 330.186 370.226 328.529 370.075 326.862L376.934 323.212Z" fill="#2A2B2E"/>
<path fill-rule="evenodd" clip-rule="evenodd" d="M363.988 2.32225L363.994 2.17077C364.08 1.01215 363.213 0 362.057 0H361.978H102.33H102.252C101.095 0 100.088 1.01215 100.001 2.17077L74.0059 350.887C73.9196 352.045 74.7871 353 75.9434 353H335.748C336.905 353 337.912 352.082 337.999 350.923L363.157 13.4586L363.988 2.32225Z" fill="#AA4465"/>
<path fill-rule="evenodd" clip-rule="evenodd" d="M329.749 354H69.9438C68.7875 354 67.92 353.061 68.0059 351.902L94.0012 3.09815C94.0875 1.93964 95.0953 1 96.2516 1H356.057C357.213 1 358.081 1.93964 357.994 3.09815L331.999 351.902C331.913 353.061 330.905 354 329.749 354Z" fill="white"/>
<path fill-rule="evenodd" clip-rule="evenodd" d="M331.263 354H70.7072C69.9338 354 69.226 353.696 68.7141 353.144C68.201 352.591 67.9503 351.858 68.0082 351.082L82.6826 154.344C82.7109 153.967 83.0377 153.679 83.4155 153.713C83.7919 153.74 84.074 154.069 84.0462 154.446L69.3718 351.184C69.3426 351.576 69.4648 351.941 69.7164 352.213C69.9666 352.483 70.3184 352.631 70.7072 352.631H331.263C332.115 352.631 332.859 351.937 332.923 351.082L350.634 113.634C350.662 113.257 350.989 112.973 351.367 113.002C351.744 113.03 352.026 113.359 351.998 113.736L334.287 351.184C334.171 352.737 332.814 354 331.263 354Z" fill="#2A2B2E"/>
<mask id="mask0_0:6216" style="mask-type:alpha" maskUnits="userSpaceOnUse" x="88" y="0" width="271" height="86">
<path fill-rule="evenodd" clip-rule="evenodd" d="M88 0H359V86H88V0Z" fill="white"/>
</mask>
<g mask="url(#mask0_0:6216)">
<path fill-rule="evenodd" clip-rule="evenodd" d="M88.6805 86C88.6633 86 88.6465 85.9995 88.6293 85.9982C88.2549 85.9705 87.9738 85.6434 88.0019 85.2682L94.1469 2.80357C94.2621 1.2573 95.6115 -6.10352e-05 97.1546 -6.10352e-05H356.308C357.077 -6.10352e-05 357.781 0.30247 358.29 0.852113C358.8 1.40312 359.049 2.13219 358.992 2.90442L357.171 27.3345C357.144 27.7097 356.817 27.9904 356.443 27.9631C356.069 27.9354 355.787 27.6084 355.816 27.2332L357.636 2.80357C357.665 2.41292 357.543 2.04906 357.293 1.77924C357.044 1.51032 356.695 1.36269 356.308 1.36269H97.1546C96.3074 1.36269 95.5662 2.05451 95.5027 2.90442L89.3582 85.369C89.3315 85.727 89.0332 86 88.6805 86Z" fill="#2A2B2E"/>
</g>
<path fill-rule="evenodd" clip-rule="evenodd" d="M306.901 208H115.227C112.116 208 109.784 205.411 110.016 202.217L110.047 201.783C110.28 198.589 112.989 196 116.099 196H307.773C310.883 196 313.216 198.589 312.984 201.783L312.952 202.217C312.72 205.411 310.011 208 306.901 208Z" fill="#C9CEBD"/>
<path fill-rule="evenodd" clip-rule="evenodd" d="M302.901 233H111.227C108.116 233 105.784 230.411 106.016 227.217L106.048 226.783C106.28 223.589 108.989 221 112.099 221H303.773C306.883 221 309.216 223.589 308.984 226.783L308.953 227.217C308.72 230.411 306.011 233 302.901 233Z" fill="#C9CEBD"/>
<path fill-rule="evenodd" clip-rule="evenodd" d="M246.909 258H109.219C106.114 258 103.784 255.411 104.016 252.217L104.048 251.783C104.279 248.589 106.985 246 110.091 246H247.781C250.886 246 253.216 248.589 252.984 251.783L252.953 252.217C252.721 255.411 250.015 258 246.909 258Z" fill="#C9CEBD"/>
<path fill-rule="evenodd" clip-rule="evenodd" d="M133.085 179H118.069C115.052 179 112.79 176.411 113.015 173.217L113.046 172.783C113.271 169.589 115.899 167 118.915 167H133.931C136.947 167 139.21 169.589 138.985 172.783L138.954 173.217C138.729 176.411 136.101 179 133.085 179Z" fill="#C9CEBD"/>
<path fill-rule="evenodd" clip-rule="evenodd" d="M306.905 179H162.222C159.115 179 156.784 176.411 157.016 173.217L157.047 172.783C157.279 169.589 159.987 167 163.094 167H307.777C310.885 167 313.216 169.589 312.984 172.783L312.952 173.217C312.72 176.411 310.013 179 306.905 179Z" fill="#C9CEBD"/>
<path fill-rule="evenodd" clip-rule="evenodd" d="M272.904 150H119.224C116.115 150 113.784 147.411 114.016 144.217L114.047 143.783C114.279 140.589 116.987 138 120.096 138H273.776C276.884 138 279.216 140.589 278.984 143.783L278.953 144.217C278.72 147.411 276.012 150 272.904 150Z" fill="#C9CEBD"/>
<path fill-rule="evenodd" clip-rule="evenodd" d="M313.901 122H122.227C119.117 122 116.784 119.411 117.016 116.217L117.048 115.783C117.28 112.589 119.989 110 123.099 110H314.773C317.883 110 320.216 112.589 319.984 115.783L319.953 116.217C319.72 119.411 317.011 122 313.901 122Z" fill="#C9CEBD"/>
<path fill-rule="evenodd" clip-rule="evenodd" d="M260.956 87H179.18C176.097 87 173.786 84.4105 174.016 81.2165L174.047 80.783C174.277 77.589 176.962 75 180.044 75H261.82C264.902 75 267.214 77.589 266.984 80.783L266.953 81.2165C266.723 84.4105 264.038 87 260.956 87Z" fill="#C9CEBD"/>
<path fill-rule="evenodd" clip-rule="evenodd" d="M160.535 327H105.683C102.896 327 100.806 324.626 101.014 321.699L101.043 321.301C101.25 318.374 103.678 316 106.465 316H161.317C164.104 316 166.194 318.374 165.986 321.301L165.957 321.699C165.75 324.626 163.322 327 160.535 327Z" fill="#C9CEBD"/>
<path fill-rule="evenodd" clip-rule="evenodd" d="M163.533 303H107.685C104.897 303 102.806 300.627 103.014 297.698L103.043 297.301C103.25 294.373 105.679 292 108.467 292H164.315C167.103 292 169.194 294.373 168.986 297.301L168.957 297.698C168.75 300.627 166.321 303 163.533 303Z" fill="#C9CEBD"/>
<path fill-rule="evenodd" clip-rule="evenodd" d="M273.433 270.357C269.7 270.357 265.904 271.023 262.184 272.361C245.418 278.391 235.753 296.38 240.641 312.461C242.924 319.972 248.063 326.03 255.112 329.519C262.661 333.256 271.434 333.653 279.816 330.639C296.583 324.609 306.247 306.621 301.359 290.54C299.076 283.029 293.937 276.971 286.888 273.482C282.689 271.403 278.111 270.357 273.433 270.357ZM268.565 334C263.676 334 258.89 332.906 254.496 330.731C247.106 327.073 241.718 320.722 239.325 312.85C234.231 296.094 244.275 277.359 261.714 271.087C270.454 267.943 279.613 268.363 287.504 272.269C294.895 275.928 300.283 282.278 302.675 290.15C307.769 306.907 297.725 325.642 280.286 331.913C276.413 333.307 272.456 334 268.565 334Z" fill="#2A2B2E"/>
<path fill-rule="evenodd" clip-rule="evenodd" d="M272.756 278.353C270.082 278.353 267.363 278.837 264.698 279.811C252.681 284.199 245.755 297.285 249.256 308.982C250.89 314.44 254.568 318.841 259.611 321.376C265.016 324.093 271.299 324.382 277.302 322.189C289.318 317.802 296.245 304.715 292.744 293.018C291.11 287.561 287.433 283.159 282.389 280.624C279.383 279.114 276.106 278.353 272.756 278.353ZM269.242 325C265.685 325 262.204 324.192 259.006 322.585C253.627 319.881 249.705 315.188 247.964 309.371C244.26 296.999 251.56 283.169 264.236 278.54C270.592 276.219 277.253 276.53 282.994 279.415C288.373 282.119 292.295 286.812 294.036 292.63C297.74 305.001 290.441 318.831 277.764 323.46C274.949 324.488 272.071 325 269.242 325Z" fill="#2A2B2E"/>
<path fill-rule="evenodd" clip-rule="evenodd" d="M315 297.207L233.353 327L227 305.793L308.647 276L315 297.207Z" fill="white"/>
<path fill-rule="evenodd" clip-rule="evenodd" d="M227.527 306.27L233.531 326.413L314.473 296.729L308.469 276.587L227.527 306.27ZM233.084 328C232.978 328 232.873 327.975 232.777 327.927C232.608 327.841 232.482 327.69 232.428 327.509L226.029 306.043C225.925 305.694 226.109 305.322 226.451 305.198L308.681 275.042C308.859 274.977 309.055 274.988 309.223 275.073C309.392 275.158 309.518 275.309 309.572 275.491L315.971 296.956C316.075 297.306 315.89 297.677 315.55 297.802L233.319 327.958C233.242 327.986 233.163 328 233.084 328Z" fill="#2A2B2E"/>
<path fill-rule="evenodd" clip-rule="evenodd" d="M286.684 311C286.423 311 286.161 310.951 285.91 310.849C285.098 310.521 284.616 309.729 284.683 308.832L285.692 295.234C285.764 294.254 285.035 293.944 284.81 293.872C284.228 293.687 283.436 293.851 282.971 294.635L278.035 302.957C277.518 303.831 276.536 304.242 275.59 303.985C274.713 303.745 274.143 302.991 274.136 302.065C274.133 301.676 273.881 301.534 273.731 301.484C273.493 301.405 273.122 301.439 272.855 301.795L267.668 308.705C267.117 309.44 266.21 309.765 265.357 309.527C264.562 309.308 264.011 308.655 263.919 307.824L262.459 294.634C262.393 294.034 262.004 293.61 261.421 293.5C260.89 293.401 260.118 293.573 259.696 294.389L253.301 306.732C253.126 307.072 252.709 307.204 252.371 307.027C252.033 306.85 251.902 306.43 252.078 306.091L258.472 293.748C259.097 292.541 260.385 291.895 261.674 292.136C262.851 292.357 263.697 293.278 263.83 294.481L265.29 307.671C265.33 308.028 265.578 308.149 265.722 308.188C265.964 308.255 266.313 308.207 266.568 307.868L271.754 300.958C272.336 300.183 273.282 299.872 274.165 300.166C274.98 300.438 275.51 301.179 275.516 302.055C275.519 302.466 275.791 302.601 275.952 302.645C276.215 302.717 276.607 302.656 276.851 302.246L281.786 293.924C282.637 292.488 284.127 292.2 285.226 292.548C286.442 292.935 287.165 294.03 287.068 295.337L286.059 308.935C286.029 309.339 286.275 309.501 286.425 309.562C286.657 309.654 287.03 309.642 287.314 309.295L303.778 289.252C304.021 288.957 304.456 288.914 304.75 289.16C305.043 289.404 305.085 289.841 304.842 290.137L288.378 310.18C287.942 310.71 287.317 311 286.684 311Z" fill="#2A2B2E"/>
<path fill-rule="evenodd" clip-rule="evenodd" d="M45 365L57 362.695C54.6628 359.762 54.0546 356.446 54.609 350.405L47.1399 350L45 365Z" fill="white"/>
<path fill-rule="evenodd" clip-rule="evenodd" d="M48.5251 350.349L46.6053 363.39L56.6224 361.525C54.7966 358.884 54.2484 355.773 54.666 350.672L48.5251 350.349ZM45 365L47.3546 349L56.1375 349.462L56.0751 350.124C55.5287 355.891 56.1167 358.885 58.3221 361.568L59 362.393L45 365Z" fill="#2A2B2E"/>
<path fill-rule="evenodd" clip-rule="evenodd" d="M45.4703 357.773C44.8941 359.661 43.6294 364.997 43.0643 368.217C42.7093 370.236 43.8569 372.213 45.7023 372.826C50.919 374.559 63.5237 375.045 73.9982 375.992C74.7152 376.057 76.0533 375.745 76.7095 373.936C78.9596 367.733 67.7349 365.338 56.9578 358.361C56.9578 358.361 56.2832 358.893 55.2975 359.38C53.6474 360.195 51.0241 359.941 49.4974 358.882L47.0502 357.184C46.4677 356.78 45.6845 357.071 45.4703 357.773Z" fill="#AA4465"/>
<path fill-rule="evenodd" clip-rule="evenodd" d="M45.8489 358.665C45.2553 360.536 43.9709 365.791 43.4195 368.808C43.1232 370.433 44.0774 372.035 45.6395 372.534C49.5149 373.772 57.8129 374.373 65.8382 374.954C68.6574 375.157 71.5726 375.368 74.3102 375.607C74.5501 375.626 75.7676 375.648 76.3754 374.036C77.6666 370.613 73.6878 368.468 66.5444 364.973C63.5814 363.523 60.2378 361.887 56.9197 359.853C56.6005 360.064 56.1029 360.367 55.496 360.656C53.6384 361.538 50.6909 361.296 48.9253 360.119L46.4331 358.456C46.2919 358.361 46.1572 358.388 46.0893 358.412C46.0215 358.437 45.9009 358.501 45.8489 358.665ZM74.4349 377C74.3525 377 74.2724 376.997 74.1936 376.99C71.466 376.753 68.5558 376.542 65.7413 376.339C57.2648 375.725 49.2581 375.146 45.2302 373.858C43.0098 373.149 41.6544 370.869 42.0769 368.555C42.6515 365.408 43.9381 360.165 44.5491 358.238C44.7189 357.703 45.1146 357.289 45.635 357.103C46.1558 356.916 46.7195 356.985 47.1825 357.295L49.6747 358.958C51.0652 359.885 53.4659 360.086 54.9178 359.397C55.8388 358.96 56.483 358.475 56.4899 358.471L56.86 358.191L57.2548 358.435C60.6371 360.542 64.0904 362.231 67.1367 363.722C74.0193 367.089 79.4549 369.748 77.6506 374.533C76.9595 376.366 75.5395 377 74.4349 377Z" fill="#2A2B2E"/>
<path fill-rule="evenodd" clip-rule="evenodd" d="M42.0769 369.609C42.0641 369.664 42.0559 369.703 42.0523 369.721C41.6904 371.735 43.2646 372.597 45.0186 373.537C50.3262 376.38 72.7154 375.981 72.7154 375.981C72.7154 375.981 75.6768 376.203 76.5697 374.408C76.7007 374.144 76.8526 373.975 76.8982 373.642C76.9471 373.283 77 371.987 77 371.987C65.8118 373.216 58.5376 372.654 48.5092 370.201C47.2576 369.895 43.542 368.634 42.4679 368C42.4679 368 42.3411 368.461 42.0769 369.609Z" fill="white"/>
<path fill-rule="evenodd" clip-rule="evenodd" d="M43.5924 369.638C43.5427 369.838 43.4831 370.081 43.4144 370.369C43.4144 370.37 43.4144 370.37 43.414 370.371L43.3968 370.446C43.1534 371.755 43.9966 372.342 45.9789 373.368C51.0214 375.977 72.8507 375.633 73.0702 375.628C73.091 375.629 73.1108 375.628 73.1307 375.63C73.8253 375.677 75.7408 375.566 76.294 374.491C76.336 374.409 76.3798 374.335 76.4223 374.264C76.5076 374.121 76.5379 374.067 76.551 373.974C76.5682 373.852 76.5885 373.558 76.6066 373.24C66.1379 374.293 59.0629 373.821 48.966 371.437C47.901 371.185 45.1496 370.301 43.5924 369.638ZM70.1444 377C63.8811 377 49.5784 376.753 45.3547 374.567C43.6005 373.659 41.6124 372.63 42.0654 370.197C42.069 370.176 42.0798 370.126 42.097 370.055C42.358 368.958 42.4858 368.509 42.4913 368.491C42.5482 368.291 42.6941 368.128 42.8869 368.05C43.0793 367.972 43.2974 367.986 43.479 368.089C44.4672 368.653 48.0794 369.839 49.2781 370.122C59.4577 372.527 66.5169 372.953 77.2506 371.815C77.448 371.793 77.6422 371.859 77.7862 371.994C77.9299 372.128 78.0075 372.319 77.9994 372.515C77.9935 372.645 77.9443 373.796 77.8928 374.162C77.8413 374.528 77.7004 374.764 77.5871 374.955C77.5582 375.004 77.5279 375.053 77.499 375.109C76.4684 377.11 73.4387 377 73.0661 376.98C72.8141 376.984 71.7401 377 70.1444 377Z" fill="#2A2B2E"/>
<path fill-rule="evenodd" clip-rule="evenodd" d="M57.5816 365C57.398 365 57.2176 364.917 57.1045 364.763C56.9209 364.511 56.9856 364.165 57.2489 363.99L60.0866 362.1C60.35 361.924 60.7125 361.987 60.8957 362.237C61.0789 362.489 61.0146 362.835 60.7512 363.01L57.9131 364.9C57.8121 364.968 57.6963 365 57.5816 365Z" fill="#2A2B2E"/>
<path fill-rule="evenodd" clip-rule="evenodd" d="M62.6385 367C62.4353 367 62.2359 366.908 62.1121 366.737C61.9128 366.459 61.9863 366.081 62.2767 365.891L65.0014 364.107C65.2914 363.917 65.6885 363.987 65.8879 364.264C66.0872 364.541 66.0137 364.919 65.7233 365.109L62.999 366.893C62.8885 366.966 62.7626 367 62.6385 367Z" fill="#2A2B2E"/>
<path fill-rule="evenodd" clip-rule="evenodd" d="M88 362.455L96.5426 365L101 360.595C96.1474 358.238 97.6075 353.416 97.7478 350.343L89.1273 350L88 362.455Z" fill="white"/>
<path fill-rule="evenodd" clip-rule="evenodd" d="M88.3788 361.892L95.546 364.379L98.9009 360.518C95.4492 358.035 95.8219 353.865 96.0991 350.769C96.1294 350.432 96.1587 350.105 96.182 349.792L89.344 349.476L88.3788 361.892ZM95.9264 366L87 362.904L88.1586 348L97.5462 348.434L97.5186 349.144C97.497 349.697 97.4443 350.285 97.3886 350.908C97.1006 354.125 96.7745 357.771 100.232 359.727L101 360.162L95.9264 366Z" fill="#2A2B2E"/>
<path fill-rule="evenodd" clip-rule="evenodd" d="M86.0134 359.616C85.6785 361.556 85.1244 365.16 85.0027 368.401C84.9266 370.435 86.464 372.188 88.5474 372.497C94.4374 373.371 107.819 374.493 119.261 373.767C120.044 373.717 121.441 373.2 121.874 371.325C123.36 364.896 111.478 363.131 98.7945 358L96.5089 360.033C95.2936 361.114 93.5261 361.387 92.0228 360.725L87.6283 358.789C86.9389 358.485 86.1382 358.894 86.0134 359.616Z" fill="#AA4465"/>
<path fill-rule="evenodd" clip-rule="evenodd" d="M87.806 360.181C87.7121 360.181 87.6363 360.211 87.5898 360.236C87.514 360.276 87.3813 360.374 87.3484 360.574C87.0289 362.501 86.4756 366.23 86.356 369.561C86.2933 371.309 87.5555 372.83 89.2934 373.099C95.3129 374.031 108.342 375.146 119.562 374.404C119.821 374.387 121.135 374.21 121.534 372.412C122.508 368.015 116.505 365.864 108.197 362.887C105.522 361.929 102.505 360.848 99.4786 359.587L97.5345 361.391C96.1274 362.696 94.0917 363.024 92.3494 362.223L87.9973 360.224C87.9287 360.192 87.8637 360.181 87.806 360.181ZM111.706 376C102.679 376 93.7763 375.163 89.0862 374.437C86.671 374.064 84.9156 371.946 85.0031 369.513C85.1259 366.106 85.6882 362.311 86.0126 360.353C86.1065 359.787 86.4499 359.308 86.9544 359.04C87.4581 358.773 88.0443 358.756 88.5619 358.993L92.9144 360.993C94.1567 361.564 95.6089 361.33 96.6139 360.398L99.1983 358L99.6013 358.17C102.728 359.489 105.876 360.617 108.653 361.612C117.277 364.702 124.088 367.143 122.855 372.704C122.384 374.83 120.835 375.676 119.652 375.755C117.063 375.926 114.379 376 111.706 376Z" fill="#2A2B2E"/>
<path fill-rule="evenodd" clip-rule="evenodd" d="M85.0241 368C85.0241 368 85.0086 368.378 85.0027 368.56C84.9265 370.899 86.4653 372.916 88.5504 373.271C94.4454 374.276 107.839 375.567 119.29 374.732C120.074 374.674 121.471 374.08 121.905 371.924C122.038 371.263 121.992 370.063 121.992 370.063L121.181 370.085C109.621 370.399 98.056 369.773 86.5784 368.212L85.0241 368Z" fill="white"/>
<path fill-rule="evenodd" clip-rule="evenodd" d="M86.3568 369.508C86.4097 371.232 87.6369 372.695 89.2972 372.964C95.3221 373.939 108.362 375.109 119.593 374.329C119.853 374.311 121.168 374.126 121.567 372.244C121.614 372.021 121.634 371.685 121.641 371.374L121.527 371.378C110.083 371.673 98.5209 371.078 87.1576 369.611L86.3568 369.508ZM111.73 376C102.694 376 93.7842 375.125 89.0899 374.364C86.6725 373.973 84.9155 371.757 85.0031 369.21L85.0244 368.677C85.0329 368.479 85.1197 368.295 85.2642 368.168C85.4083 368.04 85.5948 367.981 85.7845 368.006L87.3239 368.205C98.6207 369.663 110.118 370.255 121.494 369.96L122.298 369.94C122.67 369.932 122.976 370.233 122.991 370.619C122.996 370.743 123.036 371.859 122.889 372.551C122.418 374.775 120.868 375.661 119.683 375.744C117.092 375.923 114.405 376 111.73 376Z" fill="#2A2B2E"/>
<path fill-rule="evenodd" clip-rule="evenodd" d="M101.615 366C101.457 366 101.298 365.939 101.178 365.817C100.939 365.573 100.941 365.181 101.182 364.94L104.953 361.179C105.194 360.939 105.583 360.94 105.822 361.184C106.061 361.427 106.059 361.819 105.818 362.06L102.047 365.821C101.928 365.94 101.771 366 101.615 366Z" fill="#2A2B2E"/>
<path fill-rule="evenodd" clip-rule="evenodd" d="M106.669 368C106.515 368 106.36 367.953 106.233 367.856C105.953 367.641 105.921 367.264 106.161 367.014L109.823 363.208C110.064 362.958 110.486 362.929 110.767 363.144C111.047 363.359 111.079 363.736 110.839 363.985L107.177 367.792C107.045 367.929 106.857 368 106.669 368Z" fill="#2A2B2E"/>
<path fill-rule="evenodd" clip-rule="evenodd" d="M74.8387 263.676C76.1307 267.442 81.0542 292.855 82.4357 302.81C83.6916 311.866 86.3286 345.259 86.7006 351.751C86.733 352.311 87.1989 352.746 87.7635 352.746H100.08C100.627 352.746 101.084 352.335 101.139 351.794C101.818 345.063 107.584 307.31 106.952 289.079C106.261 269.169 97.2831 245.482 95.5567 238.959C93.8302 232.437 91.6902 217 91.6902 217L50.2032 223.408C50.2032 223.408 44.9781 256.851 42.7258 277.064C41.7346 285.961 41.6013 314.862 43.3278 330.309C44.4464 340.317 45.4938 346.702 45.9013 350.175C46.0903 351.786 47.4626 353 49.0937 353H58.21C58.7928 353 59.2674 352.536 59.2747 351.956C59.3267 347.789 61.1153 334.591 63.7892 321.004C66.8972 305.213 70.3502 280.497 72.0762 270.541C72.6472 267.25 73.1428 263.47 73.5499 259.885C73.5499 259.885 73.5467 259.91 74.8387 263.676Z" fill="#2A2B2E"/>
<path fill-rule="evenodd" clip-rule="evenodd" d="M72.7256 262C72.6986 262 72.6711 261.999 72.6435 261.995C72.2456 261.953 71.9601 261.616 72.0046 261.242C72.3108 258.7 72.5469 256.396 72.7189 254.673C73.0579 251.278 74.926 248.166 77.8446 246.134C78.1658 245.91 78.6193 245.973 78.8579 246.276C79.0955 246.579 79.0284 247.005 78.7067 247.229C76.1185 249.032 74.4619 251.791 74.1615 254.8C73.9891 256.53 73.7515 258.842 73.4448 261.395C73.4028 261.743 73.0893 262 72.7256 262Z" fill="#C9CEBD"/>
<path fill-rule="evenodd" clip-rule="evenodd" d="M47.6546 243C47.3001 243 47.0085 242.685 47.0002 242.287C46.9915 241.884 47.2778 241.55 47.6397 241.54C52.6281 241.411 54.9584 235.862 55.7289 233.482C55.8515 233.103 56.2256 232.907 56.5675 233.043C56.9075 233.18 57.0839 233.599 56.9608 233.978C56.0986 236.64 53.4676 242.85 47.6699 243H47.6546Z" fill="#C9CEBD"/>
<path fill-rule="evenodd" clip-rule="evenodd" d="M94.2651 242C94.2371 242 94.2091 241.999 94.1812 241.995C86.7876 241.165 86.9981 232.788 87.0011 232.704C87.0158 232.302 87.3475 231.977 87.7626 232.001C88.1689 232.015 88.4869 232.353 88.4721 232.755C88.4628 233.061 88.3195 239.87 94.347 240.547C94.7508 240.592 95.0413 240.953 94.9952 241.353C94.953 241.725 94.634 242 94.2651 242Z" fill="#C9CEBD"/>
<path fill-rule="evenodd" clip-rule="evenodd" d="M67.0068 139.73L67.966 120L82 127.43L81.7097 139.904C81.5758 142.684 79.455 149.54 79.455 149.54C76.5473 151.659 72.2872 145.892 69.3699 143.786L68.6941 143.299C67.5641 142.483 66.9266 141.135 67.0068 139.73Z" fill="white"/>
<path fill-rule="evenodd" clip-rule="evenodd" d="M68.2287 121.787L67.3423 140.196C67.3423 140.198 67.3423 140.2 67.3423 140.202C67.2764 141.361 67.7886 142.454 68.7116 143.126L69.3722 143.608C70.166 144.187 71.0302 145.007 71.9451 145.876C74.1461 147.966 76.6304 150.324 78.2781 149.403C78.642 148.188 80.2688 142.642 80.3806 140.3L80.6541 128.43L68.2287 121.787ZM77.4705 151C75.3733 151 73.0984 148.839 71.0373 146.882C70.1549 146.044 69.3214 145.253 68.598 144.725L67.9374 144.244C66.638 143.296 65.9164 141.757 66.0077 140.126L66.9454 120.652C66.9565 120.418 67.083 120.207 67.2804 120.09C67.4782 119.974 67.7192 119.97 67.9214 120.078L81.6408 127.412C81.8666 127.533 82.006 127.775 81.9998 128.036L81.7156 140.349C81.5815 143.167 79.5672 149.771 79.4817 150.051C79.438 150.193 79.3512 150.316 79.2336 150.403C78.6669 150.82 78.0763 151 77.4705 151Z" fill="#2A2B2E"/>
<path fill-rule="evenodd" clip-rule="evenodd" d="M89.4228 98.8128C85.6742 98.5595 90.3475 102.395 76.5201 98.2717C71.0133 96.6301 73.737 102.981 72.3073 102.558C67.0279 101 67.2094 101.047 64.6164 101.684C62.8995 102.106 61.7503 105.187 62.0465 107.501C62.4372 110.556 64.9966 111.373 67.1985 117.843C68.7447 122.388 68.3219 125.134 70.1653 125.815C72.0296 126.503 73.4393 124.057 75.5332 124.658C78.2428 125.436 77.6539 130.042 80.2786 131.984C81.9329 133.209 85.8085 133.812 92.0635 130.914C93.0771 130.444 93.6079 129.327 93.3216 128.26C92.955 126.892 92.4822 125.167 91.8901 123.556C89.0689 115.877 86.3112 114.117 87.3398 112.148C88.916 109.131 94.754 110.936 95.7522 108.453C96.7884 105.876 94.5553 99.1601 89.4228 98.8128Z" fill="#2A2B2E"/>
<path fill-rule="evenodd" clip-rule="evenodd" d="M76 110.662L77.0102 112.679C77.4859 113.629 77.8979 114.611 78.2441 115.621C78.8933 117.514 80.1289 120.718 80.8034 122.529C82.9721 128.349 89.8832 122.063 89.8832 122.063L90.3763 120.474L91.3006 120.094C91.4789 120.02 91.6451 119.908 91.765 119.751C92.0641 119.359 92.071 118.834 91.8238 118.444C90.4713 116.313 87.6535 111.531 86.6681 107.257C86.6681 107.257 80.8113 105.609 76 110.662Z" fill="white"/>
<path fill-rule="evenodd" clip-rule="evenodd" d="M75 110.383C75.1032 110.207 75.2258 110.022 75.3671 109.848C75.4373 109.762 75.5116 109.678 75.5874 109.599L75.6984 109.488L75.7741 109.42C75.9769 109.24 76.1729 109.051 76.3867 108.883C76.8006 108.53 77.248 108.219 77.7019 107.921C78.6242 107.346 79.6168 106.882 80.6511 106.562C81.6844 106.236 82.7582 106.06 83.8334 106.013C84.3712 105.99 84.9099 105.996 85.4481 106.042C85.9942 106.091 86.5031 106.152 87.0859 106.303C87.3369 106.369 87.5191 106.574 87.5737 106.817C87.8522 108.064 88.2721 109.294 88.7465 110.506C89.221 111.719 89.7639 112.912 90.3577 114.08C90.9492 115.25 91.5948 116.395 92.2877 117.508L92.5474 117.925L92.6787 118.133L92.7466 118.241C92.7769 118.293 92.8076 118.343 92.8324 118.397C93.0439 118.826 93.0526 119.346 92.8732 119.788C92.7902 120.01 92.6621 120.216 92.485 120.401C92.3216 120.571 92.0876 120.717 91.9344 120.795C91.6476 120.957 91.3617 121.122 91.0607 121.246L91.4613 120.811C91.2984 121.36 91.1221 121.904 90.9537 122.451L90.9524 122.456C90.9134 122.582 90.8399 122.69 90.7482 122.77C89.9135 123.49 89.065 124.096 88.1344 124.646C87.207 125.183 86.2136 125.652 85.0953 125.885C84.5368 125.997 83.9407 126.043 83.3309 125.951C82.7233 125.862 82.1066 125.613 81.6028 125.22C81.0943 124.831 80.7061 124.327 80.4216 123.803C80.2771 123.541 80.1605 123.272 80.0536 123.002L79.7751 122.274C79.0317 120.333 78.2704 118.397 77.5573 116.424C77.3788 115.919 77.2223 115.443 77.0383 114.975C76.8566 114.505 76.6598 114.041 76.4482 113.584L75.7168 112.07C75.4561 111.507 75.2189 110.936 75 110.383ZM76.361 110.594C76.6157 110.965 76.8511 111.318 77.0631 111.679C77.1696 111.861 77.2705 112.043 77.3692 112.232C77.4926 112.469 77.6119 112.708 77.728 112.949C77.9598 113.431 78.1759 113.922 78.3764 114.419C78.5797 114.916 78.7568 115.427 78.9321 115.901C79.6415 117.839 80.4014 119.775 81.1499 121.718L81.4302 122.447C81.5151 122.66 81.606 122.868 81.7124 123.06C81.9244 123.445 82.18 123.778 82.4889 124.016C83.0937 124.504 83.9384 124.606 84.8218 124.43C85.7047 124.256 86.5944 123.861 87.4374 123.379C88.2762 122.897 89.1086 122.31 89.8359 121.692L89.6303 122.01C89.8075 121.466 89.9777 120.92 90.1613 120.377L90.1672 120.358C90.2347 120.159 90.3843 120.012 90.5619 119.941C90.8652 119.823 91.1841 119.745 91.5021 119.664C91.7664 119.61 91.8701 119.57 91.9793 119.387C92.0679 119.22 92.0523 119.01 91.9683 118.845C91.9587 118.823 91.9449 118.804 91.9334 118.784L91.8683 118.684L91.7315 118.474L91.4613 118.053C90.7477 116.926 90.0654 115.778 89.406 114.613C88.1115 112.273 86.9294 109.831 86.2429 107.146L86.7307 107.659C86.3214 107.566 85.8143 107.495 85.3444 107.463C84.8649 107.427 84.3817 107.427 83.9004 107.452C82.9372 107.502 81.9846 107.681 81.0659 107.964C80.1458 108.247 79.2666 108.657 78.4452 109.167C78.0378 109.427 77.6339 109.696 77.2581 110.008C77.064 110.154 76.886 110.322 76.7006 110.481L76.6038 110.565C76.5873 110.576 76.5694 110.583 76.5473 110.587C76.5042 110.593 76.4422 110.589 76.361 110.594Z" fill="#2A2B2E"/>
<path fill-rule="evenodd" clip-rule="evenodd" d="M77 116.95C77 116.95 74.5288 112.932 72.6153 114.275C70.7022 115.617 73.5536 119.982 77 116.95Z" fill="white"/>
<path fill-rule="evenodd" clip-rule="evenodd" d="M87.0179 113.476C86.8958 113.476 86.8011 113.512 86.741 113.544C86.6121 113.612 86.5298 113.721 86.508 113.792C85.6732 116.506 86.4333 118.361 86.7263 118.525C86.998 118.554 87.2291 118.473 87.3974 118.264C87.7506 117.826 87.9159 116.771 87.8625 115.294C87.8385 114.623 87.7393 113.782 87.4038 113.589C87.4034 113.589 87.4034 113.589 87.4034 113.588C87.2565 113.504 87.1265 113.476 87.0179 113.476ZM86.833 120C86.7507 120 86.6666 119.995 86.5809 119.983C86.1868 119.932 85.8084 119.554 85.515 118.92C84.9923 117.791 84.7041 115.706 85.462 113.241C85.6048 112.778 85.9159 112.391 86.3164 112.178C86.7977 111.921 87.3452 111.943 87.8576 112.239C88.561 112.645 88.9307 113.621 88.9886 115.225C89.0604 117.219 88.794 118.564 88.1733 119.334C87.8201 119.773 87.3602 120 86.833 120Z" fill="#2A2B2E"/>
<path fill-rule="evenodd" clip-rule="evenodd" d="M74.6742 114C74.3358 114 74.0441 113.812 74.0045 113.555C73.9618 113.28 74.2277 113.031 74.5982 112.999L86.2475 112.004C86.6161 111.971 86.9527 112.169 86.9955 112.445C87.0382 112.72 86.7723 112.969 86.4018 113.001L74.7521 113.997C74.726 113.999 74.6999 114 74.6742 114Z" fill="#2A2B2E"/>
<path fill-rule="evenodd" clip-rule="evenodd" d="M90.7646 119C90.5509 119 90.347 118.843 90.2541 118.576C90.1393 118.249 90.2322 117.869 90.4611 117.68C90.7153 117.275 91.2134 115.213 90.5625 113.747C90.4641 113.524 90.3604 113.47 90.2728 113.448C89.8548 113.343 89.1673 113.848 88.9 114.111C88.6555 114.353 88.3042 114.295 88.116 113.981C87.9277 113.667 87.9735 113.216 88.2181 112.975C88.3434 112.852 89.4697 111.777 90.4935 112.042C90.9368 112.156 91.297 112.5 91.5348 113.037C92.3286 114.826 91.8987 116.896 91.7481 117.487C91.5471 118.277 91.2929 118.764 90.9935 118.937C90.9189 118.98 90.841 119 90.7646 119Z" fill="#2A2B2E"/>
<path fill-rule="evenodd" clip-rule="evenodd" d="M93.489 160C93.489 160 97.4106 175.715 101.145 180.153C104.88 184.59 112.35 189.767 121.127 190.506C121.127 190.506 126.093 190.189 122.968 199.104C122.461 200.548 121.162 201.579 119.625 201.734C112.897 202.415 94.0686 202.898 86.7665 188.287C77.8031 170.354 93.489 160 93.489 160Z" fill="#AA4465"/>
<path fill-rule="evenodd" clip-rule="evenodd" d="M93.6645 161.828C92.4088 162.827 89.8982 165.078 87.9745 168.414C84.4371 174.549 84.4526 181.28 88.0209 188.419C94.9699 202.323 112.638 202.112 119.912 201.377C121.16 201.251 122.235 200.404 122.65 199.221C124.123 195.02 123.683 193.163 123.056 192.346C122.451 191.558 121.522 191.596 121.514 191.595C121.48 191.597 121.446 191.597 121.412 191.594C112.33 190.828 104.814 185.456 101.138 181.089C97.8852 177.224 94.5961 165.37 93.6645 161.828ZM114.564 203C105.755 203 92.6974 200.827 86.797 189.02C77.7491 170.917 93.5338 160.22 93.6941 160.114C93.8794 159.992 94.1121 159.966 94.3201 160.046C94.5273 160.126 94.6826 160.301 94.7358 160.514C94.7746 160.669 98.6279 175.993 102.187 180.222C105.69 184.383 112.844 189.5 121.49 190.242C121.81 190.248 123.195 190.291 124.143 191.526C125.35 193.099 125.282 195.837 123.94 199.665C123.351 201.343 121.825 202.544 120.051 202.724C118.579 202.873 116.695 203 114.564 203Z" fill="#2A2B2E"/>
<path fill-rule="evenodd" clip-rule="evenodd" d="M66.3853 137C66.3853 137 64.1065 138.273 59.988 141.731C55.8685 145.19 49.6064 145.384 45.9643 153.956C39.6234 168.88 41.4761 200.934 47.3831 217.158C48.5711 220.421 47.8971 228 47.8971 228L80.9404 227.735L85.3842 215.163L87.8361 227.483L96.5533 227.37C96.5533 227.37 91.2381 199.946 95.0002 181.403C96.5574 173.728 100.018 161.011 91.2693 149.623C89.2764 147.028 85.3127 142.475 83.5453 139.727L81.4003 141.847C80.9756 141.946 80.5203 145.246 80.0214 145.331C74.7621 146.233 73.2695 143.861 69.6027 140.029L66.3853 137Z" fill="#AA4465"/>
<path fill-rule="evenodd" clip-rule="evenodd" d="M65.8288 139.526C65.0007 140.048 62.992 141.394 60.011 143.906C58.6853 145.023 57.1923 145.79 55.6111 146.601C52.2021 148.351 48.6772 150.161 46.2774 155.829C40.1166 170.379 41.9093 202.337 47.699 218.294C48.7045 221.066 48.4402 226.624 48.3034 228.641L79.8831 228.387L84.1356 216.312C84.237 216.025 84.5158 215.832 84.8278 215.861C85.1347 215.882 85.3894 216.105 85.4485 216.405L87.7729 228.124L95.0524 228.03C94.2283 223.384 90.2946 199.4 93.6562 182.775C93.7585 182.269 93.8691 181.741 93.9841 181.192C95.5835 173.554 98.0016 162.01 90.0785 151.659C89.4137 150.791 88.515 149.687 87.5641 148.518C85.9138 146.491 84.0701 144.226 82.8468 142.457L81.3069 143.984C81.2878 144.003 81.2674 144.022 81.2455 144.038C81.1378 144.265 80.9709 144.885 80.8572 145.307C80.4856 146.69 80.261 147.524 79.5724 147.642C74.5409 148.51 72.6167 146.443 69.7048 143.317C69.3619 142.949 69.0022 142.562 68.6179 142.16L65.8288 139.526ZM47.5671 230C47.377 230 47.1951 229.921 47.0659 229.783C46.9354 229.642 46.8708 229.454 46.8877 229.264C46.894 229.19 47.5298 221.824 46.4151 218.752C40.5081 202.472 38.5685 170.54 45.0195 155.304C47.6112 149.185 51.5281 147.173 54.9844 145.398C56.4942 144.624 57.9204 143.891 59.1273 142.874C63.2189 139.427 65.4896 138.141 65.5842 138.088C65.8452 137.941 66.1731 137.982 66.3905 138.187L69.5843 141.204C69.9973 141.636 70.3606 142.027 70.7072 142.399C73.5395 145.44 74.9856 146.994 79.114 146.346C79.2459 146.049 79.4251 145.381 79.5392 144.959C79.8389 143.844 80.0122 143.2 80.4242 142.946L82.4721 140.914C82.618 140.769 82.8236 140.697 83.0292 140.72C83.2347 140.742 83.4189 140.857 83.5299 141.03C84.6686 142.807 86.771 145.39 88.6256 147.669C89.5833 148.845 90.4878 149.956 91.165 150.841C99.4636 161.681 96.9697 173.589 95.3198 181.468C95.2056 182.013 95.0956 182.538 94.9942 183.041C91.3278 201.171 96.4844 228.297 96.5367 228.569C96.5749 228.766 96.5231 228.969 96.3958 229.124C96.268 229.279 96.0774 229.37 95.876 229.373L87.2221 229.485H87.213C86.8879 229.485 86.6073 229.256 86.5441 228.939L84.5949 219.111L81.0127 229.283C80.9177 229.553 80.6621 229.734 80.3742 229.737L47.5725 230H47.5671Z" fill="#2A2B2E"/>
<path fill-rule="evenodd" clip-rule="evenodd" d="M93.6289 199C93.2818 199 93 198.697 93 198.324C92.9967 192.251 93.4155 186.918 94.2448 182.47C94.3392 181.964 94.441 181.435 94.5471 180.887C94.9664 178.716 95.4414 176.256 95.7467 173.594C95.789 173.223 96.1055 172.959 96.4481 173.005C96.7927 173.051 97.0376 173.389 96.9952 173.76C96.6833 176.476 96.2028 178.966 95.7785 181.162C95.6733 181.708 95.5718 182.233 95.4779 182.737C94.6654 187.096 94.2549 192.34 94.2578 198.323C94.2578 198.696 93.9765 199 93.6293 199H93.6289Z" fill="#C9CEBD"/>
<path fill-rule="evenodd" clip-rule="evenodd" d="M122.63 194.111C121.876 195.227 119.553 198.177 122.321 199.985C123.04 200.454 127.371 201.04 128.512 201.595C130.199 202.414 131.456 204.155 134.064 205.134C138.902 206.95 141.906 205.741 144.464 203.084C147.023 200.428 139.86 191.573 134.743 192.016C129.627 192.458 123.726 192.488 122.63 194.111Z" fill="white"/>
<path fill-rule="evenodd" clip-rule="evenodd" d="M134.592 192.342C134.486 192.342 134.381 192.347 134.276 192.356C133.288 192.44 132.271 192.509 131.264 192.578C127.817 192.812 123.526 193.104 122.842 194.107L122.675 194.348C122.145 195.103 121.161 196.509 121.384 197.643C121.48 198.13 121.795 198.54 122.347 198.897C122.619 199.062 124.062 199.36 125.017 199.557C126.416 199.846 127.737 200.119 128.373 200.425C129.117 200.782 129.758 201.285 130.438 201.816C131.384 202.557 132.363 203.323 133.786 203.852C137.771 205.333 140.619 204.782 143.312 202.016C143.829 201.483 143.749 200.391 143.091 199.017C141.566 195.835 137.602 192.342 134.592 192.342ZM137.704 206C136.356 206 134.905 205.701 133.313 205.11C131.692 204.507 130.581 203.639 129.601 202.871C128.954 202.365 128.395 201.928 127.784 201.633C127.298 201.399 125.94 201.119 124.742 200.872C123.036 200.52 122.049 200.307 121.609 200.022C120.747 199.465 120.225 198.751 120.057 197.9C119.725 196.209 120.922 194.5 121.565 193.581L121.722 193.354C122.725 191.883 125.967 191.592 131.172 191.238C132.17 191.17 133.18 191.102 134.16 191.018C138.088 190.685 142.718 195.114 144.312 198.44C145.239 200.376 145.229 201.977 144.284 202.949C142.291 204.998 140.171 206 137.704 206Z" fill="#2A2B2E"/>
<path fill-rule="evenodd" clip-rule="evenodd" d="M126.183 195.933C125.82 195.257 126.029 194.473 126.525 193.891C127.719 192.49 130.203 189.855 131.957 190.006C134.02 190.185 136.655 192.518 135.852 196.5C135.34 199.044 133.091 197.798 132.789 196.79C132.467 195.714 131.997 194.528 131.455 195.019C130.862 195.557 127.54 198.459 126.183 195.933Z" fill="white"/>
<path fill-rule="evenodd" clip-rule="evenodd" d="M131.749 194.251C131.841 194.251 131.934 194.264 132.028 194.291C132.649 194.469 133.094 195.19 133.565 196.778C133.657 197.091 134.249 197.594 134.73 197.565C135.077 197.548 135.321 197.201 135.454 196.533C135.886 194.367 135.259 192.93 134.658 192.107C133.968 191.163 132.932 190.524 131.954 190.438C130.879 190.352 128.936 191.806 126.787 194.352C126.489 194.706 126.259 195.253 126.511 195.727C126.798 196.268 127.129 196.383 127.352 196.423C128.356 196.6 129.902 195.576 131.015 194.557C131.235 194.355 131.488 194.251 131.749 194.251ZM134.696 199C133.548 199 132.482 198.067 132.224 197.195C132 196.44 131.825 196.043 131.711 195.839C130.614 196.799 128.751 198.126 127.113 197.837C126.336 197.699 125.702 197.206 125.28 196.413C124.784 195.479 124.955 194.33 125.727 193.414C127.506 191.307 130.052 188.829 132.073 189.009C133.458 189.13 134.843 189.967 135.779 191.248C136.553 192.306 137.362 194.133 136.827 196.82C136.449 198.716 135.28 198.975 134.795 198.998C134.762 199 134.728 199 134.696 199Z" fill="#2A2B2E"/>
<path fill-rule="evenodd" clip-rule="evenodd" d="M84.7074 175C79.0764 161.402 73.03 148.673 66 138C71.0925 141.48 75.4237 146.374 81.6564 142.307C83.3347 152.011 85.8631 163.69 84.7074 175Z" fill="white"/>
<path fill-rule="evenodd" clip-rule="evenodd" d="M69.1897 141.349C74.2737 149.633 79.2261 159.646 84.5523 172.399C84.9811 163.55 83.3948 154.596 81.9786 146.605C81.8241 145.733 81.6714 144.873 81.5242 144.027C76.6703 146.663 72.8516 144.094 69.1897 141.349ZM85.0237 176C84.7454 176 84.4899 175.836 84.3849 175.579C77.9897 159.965 72.182 148.35 66.1065 139.025C65.9309 138.756 65.9763 138.403 66.2147 138.183C66.4537 137.963 66.8187 137.939 67.087 138.124C67.8987 138.685 68.6939 139.284 69.4634 139.864C73.4702 142.885 76.9304 145.495 81.6471 142.383C81.8406 142.255 82.0882 142.232 82.3042 142.322C82.5198 142.411 82.6734 142.602 82.7119 142.826C82.91 143.983 83.1201 145.169 83.3342 146.378C84.9182 155.318 86.7141 165.45 85.7089 175.397C85.6777 175.704 85.4346 175.95 85.1205 175.993C85.0879 175.998 85.0558 176 85.0237 176Z" fill="#2A2B2E"/>
<path fill-rule="evenodd" clip-rule="evenodd" d="M66.278 136.16C70.2119 139.006 75.9916 141.491 80 141.944C78.7542 145.504 79.6977 145.913 76.8266 149C69.573 144.884 68.1564 140.929 65.176 137.245C64.6062 136.541 65.5393 135.626 66.278 136.16Z" fill="white"/>
<path fill-rule="evenodd" clip-rule="evenodd" d="M66.4492 136.292C66.4253 136.292 66.3979 136.302 66.3656 136.335C66.3024 136.397 66.3303 136.432 66.3572 136.465C67.0556 137.327 67.6766 138.217 68.2768 139.077C70.1787 141.803 72.1438 144.619 77.1002 147.529C78.5575 145.892 78.7069 145.195 78.9858 143.897C79.0967 143.381 79.2289 142.766 79.4675 141.986C75.567 141.334 70.2711 139.033 66.519 136.321C66.5022 136.308 66.4788 136.292 66.4492 136.292ZM77.2324 149C77.1184 149 77.003 148.972 76.8987 148.912C71.3371 145.758 69.2235 142.73 67.1798 139.801C66.565 138.92 65.9846 138.089 65.3155 137.262C64.8602 136.7 64.9013 135.949 65.4153 135.436C65.9342 134.916 66.7139 134.855 67.3102 135.286C71.1586 138.069 76.6693 140.395 80.4138 140.818C80.6127 140.84 80.7904 140.949 80.8974 141.114C81.0048 141.278 81.0291 141.481 80.9646 141.666C80.5898 142.736 80.4271 143.493 80.2839 144.16C79.9679 145.63 79.7597 146.601 77.7243 148.788C77.5953 148.927 77.4149 149 77.2324 149Z" fill="#2A2B2E"/>
<path fill-rule="evenodd" clip-rule="evenodd" d="M80 143.017C81.7772 140.882 82.2299 138.526 81.6739 136C84.7956 137.928 86.3475 141.106 87 145C84.8474 142.907 82.204 142.897 80 143.017Z" fill="white"/>
<path fill-rule="evenodd" clip-rule="evenodd" d="M81.196 141.729C82.8271 141.733 84.5371 141.934 86.1384 142.754C85.4222 140.319 84.2189 138.453 82.4962 137.109C82.5907 138.77 82.1555 140.316 81.196 141.729ZM87.2658 145C87.0793 145 86.8948 144.936 86.7543 144.814C84.6815 143.007 82.1707 142.97 79.7739 143.086C79.4885 143.099 79.2089 142.958 79.0777 142.723C78.947 142.489 78.9832 142.206 79.1707 142.005C80.8582 140.188 81.3972 138.159 80.8185 135.802C80.7549 135.543 80.8695 135.275 81.1098 135.122C81.3507 134.968 81.6694 134.959 81.9205 135.098C85.1946 136.911 87.1802 139.899 87.9899 144.231C88.0423 144.512 87.888 144.791 87.607 144.924C87.4993 144.975 87.3823 145 87.2658 145Z" fill="#2A2B2E"/>
<path fill-rule="evenodd" clip-rule="evenodd" d="M44.7716 288L4.7611 287.647C2.35878 287.626 0.581503 285.441 1.08606 283.13L7.41479 254.149C7.94743 251.711 10.1473 249.978 12.6805 250L47 250.303L44.7716 288Z" fill="#2A2B2E"/>
<path fill-rule="evenodd" clip-rule="evenodd" d="M12.2186 249.374C10.0512 249.374 8.15429 250.913 7.69895 253.049L1.41814 282.509C1.22441 283.416 1.44106 284.355 2.01282 285.084C2.59627 285.827 3.47054 286.259 4.41223 286.267L43.4784 286.62L45.6112 249.675L12.26 249.374H12.2186ZM44.114 288H44.1081L4.4001 287.641C3.05116 287.629 1.79661 287.009 0.959203 285.941C0.133479 284.888 -0.17982 283.531 0.100216 282.218L6.38148 252.758C6.97436 249.976 9.44569 247.981 12.2721 248L46.3318 248.308C46.5165 248.31 46.6923 248.389 46.8186 248.525C46.9445 248.663 47.0096 248.847 46.9988 249.035L44.7873 287.353C44.7662 287.717 44.4704 288 44.114 288Z" fill="#2A2B2E"/>
<path fill-rule="evenodd" clip-rule="evenodd" d="M50.02 288L42.5961 287.931C40.2996 287.91 38.5998 285.71 39.0823 283.383L45.7474 251.244C45.899 250.513 46.5256 249.993 47.2467 250L49.156 250.018C49.9476 250.025 50.6011 250.66 50.6587 251.479L52.992 284.718C53.1176 286.501 51.7461 288.016 50.02 288Z" fill="#AA4465"/>
<path fill-rule="evenodd" clip-rule="evenodd" d="M50.2097 286.617C50.895 286.614 51.5336 286.348 52.001 285.84C52.4584 285.344 52.6835 284.698 52.6346 284.024L50.1939 250.245C50.1604 249.775 49.765 249.405 49.2944 249.401L47.2975 249.383C46.8695 249.369 46.4891 249.681 46.3994 250.102L39.4287 282.764C39.234 283.677 39.4523 284.622 40.0284 285.356C40.6158 286.104 41.4967 286.538 42.4455 286.547L50.2097 286.617ZM50.231 288H50.198L42.4338 287.93C41.0741 287.917 39.8105 287.294 38.9667 286.219C38.1343 285.159 37.8191 283.792 38.1008 282.47L45.0715 249.809C45.2961 248.757 46.2269 248 47.2894 248H47.3093L49.3062 248.018C50.4783 248.028 51.4638 248.961 51.5494 250.143L53.9902 283.922C54.0658 284.972 53.7021 286.015 52.9924 286.786C52.2804 287.559 51.2759 288 50.231 288Z" fill="#2A2B2E"/>
<path fill-rule="evenodd" clip-rule="evenodd" d="M39.5879 266H39.5629L8.66388 265.73C8.29398 265.726 7.99646 265.427 8.00003 265.062C8.00316 264.699 8.30247 264.406 8.66969 264.406H8.67594L39.575 264.677C40.174 264.68 40.7101 264.284 40.8549 263.71L43.6796 252.502C43.7689 252.148 44.1312 251.931 44.4917 252.02C44.8505 252.108 45.0694 252.467 44.98 252.822L42.1558 264.03C41.8623 265.193 40.8084 266 39.5879 266Z" fill="#2A2B2E"/>
<path fill-rule="evenodd" clip-rule="evenodd" d="M28 265.065L27.0362 268.125C26.8801 268.643 26.3088 269.005 25.6564 269L19.0748 268.952C18.358 268.946 17.8449 268.385 18.0428 267.822L19.0373 265L28 265.065Z" fill="white"/>
<path fill-rule="evenodd" clip-rule="evenodd" d="M18.2092 265.15L17.3999 267.452C17.3602 267.565 17.4156 267.651 17.4526 267.691C17.4909 267.734 17.5787 267.806 17.732 267.807L24.0601 267.854C24.3765 267.844 24.6352 267.688 24.7082 267.445L25.4131 265.203L18.2092 265.15ZM24.0661 269H24.0481L17.72 268.953C17.1704 268.95 16.6678 268.739 16.3408 268.375C16.017 268.015 15.9181 267.562 16.0692 267.132L17.0253 264.413C17.1112 264.168 17.3824 264 17.6905 264H17.6965L26.3133 264.063C26.5267 264.065 26.7272 264.147 26.8574 264.288C26.9868 264.428 27.0316 264.61 26.9775 264.781L26.0514 267.728C25.826 268.477 25.0107 269 24.0661 269Z" fill="#2A2B2E"/>
<path fill-rule="evenodd" clip-rule="evenodd" d="M36.3135 286H36.3071L2.68053 285.643C2.30115 285.639 1.99682 285.268 2.00003 284.814C2.00323 284.363 2.3103 284 2.68648 284H2.69243L36.3195 284.357C36.6984 284.361 37.0032 284.732 37 285.186C36.9963 285.637 36.6897 286 36.3135 286Z" fill="#2A2B2E"/>
<path fill-rule="evenodd" clip-rule="evenodd" d="M20.7745 248.018L18.2475 248C17.5645 247.995 17.0062 248.427 17 248.965L21.9999 249C22.0061 248.463 21.4575 248.023 20.7745 248.018Z" fill="#2A2B2E"/>
<path fill-rule="evenodd" clip-rule="evenodd" d="M41.7745 248.018L39.247 248C38.5645 247.995 38.0057 248.427 38 248.965L43 249C43.0057 248.463 42.4571 248.023 41.7745 248.018Z" fill="#2A2B2E"/>
<path fill-rule="evenodd" clip-rule="evenodd" d="M41.4976 247.872L41.9485 245.801C42.2686 244.332 41.0633 243.13 39.2572 243.117L23.3007 243C21.4946 242.987 19.7706 244.167 19.4509 245.636L19 247.708L20.4609 248L20.7773 246.309C21.0265 245.166 22.1626 244.043 23.5684 244.053L38.5325 244.162C39.9387 244.172 40.8763 245.108 40.6277 246.251L40.2765 247.864L41.4976 247.872Z" fill="#2A2B2E"/>
<path fill-rule="evenodd" clip-rule="evenodd" d="M37.1593 242.103L23.4113 242C22.8571 241.996 22.3282 242.398 22.2294 242.898L22.0158 243.983C21.9175 244.483 22.2869 244.892 22.8406 244.897L36.589 245C37.1432 245.004 37.6721 244.602 37.7705 244.101L37.984 243.017C38.0828 242.516 37.713 242.107 37.1593 242.103Z" fill="#AA4465"/>
<path fill-rule="evenodd" clip-rule="evenodd" d="M42.6789 286C42.4397 286 42.2083 285.874 42.0848 285.649C41.9035 285.321 42.0224 284.908 42.3502 284.727L47.3846 281.946L47.6436 252.673C47.6472 252.3 47.9501 252 48.3218 252H48.3281C48.7025 252.004 49.0036 252.31 49 252.685L48.7373 282.354C48.735 282.599 48.6012 282.824 48.3869 282.942L43.0062 285.915C42.9023 285.973 42.7897 286 42.6789 286Z" fill="#2A2B2E"/>
<path fill-rule="evenodd" clip-rule="evenodd" d="M26.889 229.825C26.889 229.825 26.5667 232.106 25.0052 234.175C23.4432 236.243 21.438 240.75 22.1468 243.923C22.6678 246.255 29.1796 247.373 30.2386 246.889C31.6536 246.242 30.1887 239.929 32.1552 240.373C35.7633 241.188 35.1812 238.198 34.4598 235.742C33.7384 233.286 32.509 229 32.509 229L26.889 229.825Z" fill="white"/>
<path fill-rule="evenodd" clip-rule="evenodd" d="M27.9786 231.166C27.7909 231.984 27.291 233.656 26.1073 235.225C24.6562 237.148 22.8046 241.322 23.4405 244.171C23.5238 244.544 23.9536 244.96 24.6509 245.342C26.7191 246.475 29.9354 246.795 30.4309 246.598C30.684 246.373 30.7313 244.849 30.7568 244.03C30.8072 242.424 30.8502 241.037 31.6058 240.43C31.8194 240.257 32.1838 240.079 32.7052 240.195C33.5679 240.391 34.1849 240.339 34.4419 240.053C35.0251 239.401 34.3919 237.244 34.1836 236.535C33.6367 234.672 32.7912 231.733 32.4404 230.51L27.9786 231.166ZM29.856 248C28.3351 248 25.8661 247.49 24.2018 246.631C23.0305 246.026 22.3428 245.302 22.1586 244.477C21.4188 241.161 23.4155 236.582 25.0697 234.39C26.4704 232.533 26.7726 230.483 26.7757 230.463L26.8463 229.96L33.3793 229L33.5407 229.562C33.5407 229.563 34.7392 233.744 35.4426 236.14C35.9935 238.016 36.3706 239.899 35.4084 240.975C34.805 241.649 33.8003 241.834 32.4241 241.523C32.3934 241.515 32.3781 241.516 32.3785 241.516C32.1448 241.736 32.0974 243.257 32.072 244.074C32.0167 245.848 31.9689 247.38 30.9611 247.841C30.7256 247.949 30.3384 248 29.856 248Z" fill="#2A2B2E"/>
<path fill-rule="evenodd" clip-rule="evenodd" d="M59.7809 148.978C62.0101 150.415 63.6554 152.593 64.3661 155.127C65.594 159.502 65.7236 166.555 58.2846 173.908C46.1064 185.944 37.2924 190.041 36.5109 231.864L24.3639 232C24.3639 232 20.6274 204.642 25.5233 191.071C29.9094 178.916 40.7218 150.886 51.9176 147.143C53.7091 146.544 58.1968 147.957 59.7809 148.978Z" fill="#AA4465"/>
<path fill-rule="evenodd" clip-rule="evenodd" d="M53.4218 147.367C53.0847 147.367 52.7928 147.402 52.5665 147.478C44.9998 150.051 36.105 165.208 26.8422 191.312C22.4955 203.563 25.1526 227.519 25.6517 231.62L36.4142 231.497C37.194 193.646 44.6104 186.471 54.8523 176.561C55.9262 175.522 57.0366 174.448 58.1729 173.305C65.2163 166.226 65.2418 159.473 64.0226 155.055C63.3681 152.683 61.8565 150.623 59.7652 149.252C58.4799 148.409 55.2695 147.367 53.4218 147.367ZM25.0505 233C24.709 233 24.4193 232.746 24.3733 232.406C24.2212 231.273 20.7052 204.522 25.5556 190.851C32.1158 172.362 42.0512 149.603 52.1288 146.177C54.201 145.473 58.8698 147.025 60.5112 148.101C62.8817 149.655 64.596 151.994 65.3393 154.687C66.6555 159.458 66.6482 166.729 59.1389 174.276C57.993 175.428 56.8781 176.507 55.7996 177.551C45.7348 187.289 38.4628 194.326 37.7669 232.189C37.7605 232.56 37.4613 232.859 37.0919 232.864L25.0583 233H25.0505Z" fill="#2A2B2E"/>
<path fill-rule="evenodd" clip-rule="evenodd" d="M55.7146 177C55.5274 177 55.3406 176.931 55.2005 176.794C54.9266 176.527 54.9342 176.1 55.2181 175.842C56.0643 175.071 56.9296 174.279 57.8115 173.448C65.1805 166.503 65.2067 159.879 63.9317 155.545C63.4457 153.895 62.4966 152.376 61.1863 151.152C60.9062 150.89 60.9038 150.464 61.1816 150.2C61.4594 149.936 61.9115 149.933 62.1922 150.195C63.6787 151.583 64.757 153.309 65.3087 155.185C66.6857 159.865 66.6785 166.997 58.8221 174.4C57.8959 175.274 56.9825 176.109 56.2111 176.811C56.0724 176.937 55.8933 177 55.7146 177Z" fill="#C9CEBD"/>
<path fill-rule="evenodd" clip-rule="evenodd" d="M205 210.417C205 218.671 187.246 220 175.669 220C164.092 220 163 216.199 163 207.945C163 199.691 172.385 193 183.961 193C195.538 193 205 202.163 205 210.417Z" fill="#2A2B2E"/>
<path fill-rule="evenodd" clip-rule="evenodd" d="M177.781 345.429L180 362H172.735L168 344L177.781 345.429Z" fill="white"/>
<path fill-rule="evenodd" clip-rule="evenodd" d="M173.759 361.63H179.607L177.615 346.693L169.536 345.507L173.759 361.63ZM180.352 363H173.267C172.975 363 172.72 362.794 172.642 362.498L168.024 344.868C167.965 344.646 168.017 344.407 168.16 344.234C168.304 344.06 168.52 343.975 168.737 344.007L178.277 345.407C178.563 345.449 178.789 345.687 178.829 345.989L180.994 362.219C181.02 362.416 180.964 362.614 180.841 362.764C180.718 362.914 180.54 363 180.352 363Z" fill="#2A2B2E"/>
<path fill-rule="evenodd" clip-rule="evenodd" d="M147.655 376H181.14C182.885 376 184.223 374.174 183.969 372.135C183.393 367.508 182.376 360.002 181.498 356.938C180.187 352.363 175.95 359.652 175.95 359.652L171.274 355C171.274 355 151.401 364.823 146.334 372.866C145.518 374.161 146.289 376 147.655 376Z" fill="white"/>
<path fill-rule="evenodd" clip-rule="evenodd" d="M171.251 355.509C168.332 356.944 151.176 365.585 146.595 372.612C146.313 373.044 146.291 373.62 146.538 374.08C146.627 374.246 146.886 374.63 147.367 374.63H181.411C181.99 374.63 182.539 374.367 182.956 373.89C183.481 373.29 183.72 372.457 183.61 371.606C183.063 367.361 182.012 359.791 181.121 356.785C181.037 356.502 180.805 355.839 180.462 355.795C179.652 355.679 177.877 357.684 176.717 359.61C176.611 359.788 176.429 359.907 176.223 359.934C176.02 359.959 175.813 359.894 175.663 359.75L171.251 355.509ZM181.411 376H147.367C146.524 376 145.766 375.526 145.338 374.732C144.849 373.821 144.893 372.721 145.454 371.861C150.65 363.89 170.255 354.464 171.087 354.066C171.343 353.944 171.647 353.994 171.851 354.19L176.007 358.184C176.935 356.794 178.905 354.216 180.634 354.436C181.471 354.544 182.074 355.202 182.427 356.393C183.3 359.337 184.288 366.195 184.963 371.43C185.123 372.671 184.764 373.898 183.98 374.795C183.3 375.572 182.388 376 181.411 376Z" fill="#2A2B2E"/>
<path fill-rule="evenodd" clip-rule="evenodd" d="M181.322 372H149.678C149.304 372 149 371.776 149 371.5C149 371.224 149.304 371 149.678 371H181.322C181.697 371 182 371.224 182 371.5C182 371.776 181.697 372 181.322 372Z" fill="#2A2B2E"/>
<path fill-rule="evenodd" clip-rule="evenodd" d="M220.006 334C220.738 335.754 229 353.715 229 353.715L222.782 361L218.483 356.304L210 335.754L220.006 334Z" fill="white"/>
<path fill-rule="evenodd" clip-rule="evenodd" d="M219.609 356.959L223.197 361.196L228.504 354.473C227.399 351.877 221.412 337.796 220.066 334.499L211.642 336.096L219.609 356.959ZM223.215 363C223.013 363 222.82 362.911 222.688 362.755L218.477 357.781C218.425 357.721 218.385 357.652 218.356 357.577L210.047 335.813C209.972 335.619 209.987 335.401 210.088 335.219C210.188 335.037 210.364 334.909 210.566 334.871L220.368 333.013C220.696 332.948 221.021 333.133 221.143 333.448C221.847 335.273 229.862 354.115 229.943 354.305C230.045 354.543 230.008 354.818 229.849 355.02L223.758 362.736C223.629 362.899 223.434 362.996 223.227 363H223.215Z" fill="#2A2B2E"/>
<path fill-rule="evenodd" clip-rule="evenodd" d="M232.846 352.659C233.929 353.682 234.286 355.23 233.762 356.61C231.982 361.297 227.169 371.692 218.59 374.748C211.761 377.18 207.087 377.19 204.48 376.828C203.243 376.657 202.605 375.289 203.264 374.253C206.121 369.757 212.855 358.654 213.469 352.93C214.25 345.644 223.132 354.336 223.132 354.336L227.914 348L232.846 352.659Z" fill="white"/>
<mask id="mask1_0:6216" style="mask-type:alpha" maskUnits="userSpaceOnUse" x="203" y="347" width="32" height="31">
<path fill-rule="evenodd" clip-rule="evenodd" d="M203 347H235V378H203V347Z" fill="white"/>
</mask>
<g mask="url(#mask1_0:6216)">
<path fill-rule="evenodd" clip-rule="evenodd" d="M216.384 350.447C216.193 350.447 216.016 350.474 215.856 350.532C215.231 350.754 214.847 351.517 214.714 352.799C214.094 358.784 207.388 370.224 204.533 374.865C204.345 375.172 204.324 375.535 204.475 375.863C204.624 376.183 204.904 376.394 205.247 376.442C207.85 376.817 212.324 376.757 218.853 374.353C227.126 371.307 231.804 360.674 233.432 356.244C233.855 355.093 233.565 353.8 232.693 352.949V352.949L228.388 348.744L224.13 354.574C224.011 354.737 223.827 354.839 223.627 354.855C223.429 354.865 223.23 354.796 223.088 354.653C221.372 352.918 218.224 350.447 216.384 350.447ZM207.762 378C206.71 378 205.809 377.925 205.053 377.817C204.254 377.702 203.572 377.192 203.229 376.451C202.882 375.702 202.932 374.836 203.363 374.134C206.168 369.574 212.754 358.354 213.345 352.655C213.538 350.794 214.229 349.639 215.398 349.223C217.976 348.303 221.957 351.683 223.486 353.114L227.746 347.282C227.864 347.121 228.046 347.018 228.243 347.002C228.442 346.988 228.637 347.055 228.779 347.195L233.651 351.952V351.952C234.914 353.185 235.335 355.059 234.723 356.726C233.028 361.337 228.137 372.413 219.325 375.657C214.389 377.474 210.551 378 207.762 378Z" fill="#2A2B2E"/>
</g>
<path fill-rule="evenodd" clip-rule="evenodd" d="M208.687 375C208.353 375 208.061 374.754 208.008 374.411C207.95 374.032 208.208 373.677 208.583 373.618C226.326 370.858 230.606 355.666 230.647 355.513C230.747 355.143 231.127 354.925 231.491 355.024C231.858 355.124 232.075 355.505 231.976 355.875C231.933 356.037 227.445 372.09 208.793 374.992C208.757 374.997 208.722 375 208.687 375Z" fill="#2A2B2E"/>
<path fill-rule="evenodd" clip-rule="evenodd" d="M218.252 365C218.139 365 218.024 364.978 217.916 364.933L211.41 362.183C211.042 362.028 210.895 361.652 211.08 361.344C211.266 361.035 211.716 360.912 212.084 361.067L218.59 363.817C218.958 363.972 219.105 364.348 218.92 364.656C218.788 364.875 218.525 365 218.252 365Z" fill="#2A2B2E"/>
<path fill-rule="evenodd" clip-rule="evenodd" d="M168.373 366C168.168 366 167.966 365.885 167.846 365.674L164.101 359.099C163.912 358.768 163.996 358.328 164.287 358.114C164.578 357.9 164.966 357.996 165.155 358.326L168.899 364.902C169.088 365.232 169.004 365.673 168.713 365.886C168.608 365.963 168.49 366 168.373 366Z" fill="#2A2B2E"/>
<path fill-rule="evenodd" clip-rule="evenodd" d="M184.733 203C184.733 203 201.086 216.258 204.901 229.94C208.071 241.31 214.014 307.653 214.014 307.653C214.014 307.653 223.525 334.125 224 341.822C224 341.822 216.455 347.206 210.66 346.38L197.442 314.338C197.442 314.338 194.525 310.469 193.103 305.972C191.681 301.475 179.666 259.174 179.666 259.174C179.666 259.174 178.694 321.73 180.593 348.35C180.593 348.35 171.974 349.668 166.828 348.55C166.828 348.55 164.858 326.834 162.516 321.52C160.174 316.206 159.675 307.881 160.424 299.905C161.172 291.929 153.298 246.684 155.339 206.762L184.733 203Z" fill="#2A2B2E"/>
<path fill-rule="evenodd" clip-rule="evenodd" d="M198.319 225H198.315C192.547 224.967 188.294 223.511 185.674 220.674C182.739 217.496 182.998 213.781 183.011 213.624C183.041 213.251 183.365 212.972 183.744 213.002C184.118 213.032 184.398 213.357 184.37 213.73C184.366 213.777 184.162 217.049 186.695 219.776C189.051 222.312 192.963 223.614 198.323 223.645C198.699 223.647 199.002 223.952 199 224.326C198.998 224.699 198.693 225 198.319 225Z" fill="white"/>
<path fill-rule="evenodd" clip-rule="evenodd" d="M210.3 323C210.277 323 210.253 322.999 210.23 322.997C209.978 322.972 203.99 322.329 199.144 316.106C198.909 315.804 198.968 315.372 199.276 315.141C199.584 314.911 200.024 314.968 200.26 315.271C204.717 320.995 210.313 321.621 210.369 321.627C210.754 321.666 211.035 322.003 210.996 322.381C210.96 322.735 210.656 323 210.3 323Z" fill="white"/>
<path fill-rule="evenodd" clip-rule="evenodd" d="M182.325 275C182.025 275 181.752 274.797 181.673 274.491L174.295 245.94L167.363 242.286C167.032 242.112 166.905 241.701 167.076 241.366C167.249 241.032 167.655 240.903 167.986 241.077L175.184 244.87C175.352 244.959 175.476 245.116 175.524 245.302L182.978 274.146C183.072 274.511 182.856 274.883 182.496 274.978C182.439 274.993 182.381 275 182.325 275Z" fill="white"/>
<path fill-rule="evenodd" clip-rule="evenodd" d="M204.145 211.995C204.145 211.995 197.394 200.823 183.348 208.22C170.838 214.808 156.044 210.975 152.958 210.058C152.607 209.953 152.36 209.646 152.339 209.281C152.066 204.682 150.573 174.528 157.099 157.431C158.188 154.58 161.479 151.668 164.453 150.997C170.782 149.569 175.385 147.547 182.351 147.079C187.683 146.721 198.108 147.658 201.367 148.368C204.655 149.083 206.663 150.492 205.799 152.661L200.349 166.02C197.612 172.89 197.916 180.623 201.278 187.209C201.305 187.264 201.334 187.319 201.361 187.373C204.165 192.82 204.632 205.469 204.145 211.995Z" fill="#AA4465"/>
<path fill-rule="evenodd" clip-rule="evenodd" d="M162.979 199.465C161.723 199.169 157.324 198.136 156.554 197.807C155.036 197.159 154.371 196.451 153.866 194.864C152.922 191.894 152.887 190.078 153.121 188.985C153.314 188.081 154.084 187.422 154.997 187.365C159.232 187.097 178.858 186.004 181.174 183.66C183.829 180.973 183.829 176.942 187.414 165.387C191 153.832 196.046 150.607 196.046 150.607C196.046 150.607 206.717 143.596 210.486 158.863C210.486 158.863 213.262 168.313 205.91 183.492C201.043 193.542 187.469 205.247 162.979 199.465Z" fill="#AA4465"/>
<path fill-rule="evenodd" clip-rule="evenodd" d="M172.125 200C166.54 200 160.6 199.198 154.505 197.6C154.146 197.506 153.93 197.13 154.021 196.76C154.112 196.39 154.475 196.166 154.834 196.26C178.546 202.478 194.422 195.294 200.813 187.253C201.047 186.958 201.469 186.914 201.755 187.157C202.041 187.399 202.083 187.835 201.848 188.129C198.013 192.955 191.83 196.651 184.44 198.537C180.613 199.513 176.476 200 172.125 200Z" fill="#2A2B2E"/>
<path fill-rule="evenodd" clip-rule="evenodd" d="M155.675 189C155.324 189 155.027 188.719 155.002 188.35C154.976 187.965 155.256 187.631 155.628 187.604C163.229 187.047 179.31 184.556 180.825 183.523C184.765 180.84 186.003 178.428 189.658 166.317C193.138 154.786 197.991 151.25 198.44 150.943C198.653 150.776 200.207 149.601 202.137 149.028C202.497 148.92 202.87 149.135 202.973 149.507C203.077 149.878 202.869 150.265 202.511 150.371C200.729 150.901 199.255 152.058 199.24 152.07C199.224 152.082 199.208 152.094 199.191 152.105C199.146 152.136 194.355 155.445 190.948 166.734C187.443 178.349 186.064 181.63 181.569 184.691C179.485 186.111 161.85 188.55 155.724 188.998C155.707 189 155.692 189 155.675 189Z" fill="#2A2B2E"/>
<path fill-rule="evenodd" clip-rule="evenodd" d="M144.733 176C144.56 176 144.387 175.937 144.247 175.809C143.944 175.53 143.916 175.05 144.184 174.736L149.718 168.257C149.986 167.942 150.449 167.913 150.753 168.191C151.056 168.47 151.084 168.95 150.816 169.264L145.282 175.744C145.137 175.913 144.936 176 144.733 176Z" fill="#2A2B2E"/>
<path fill-rule="evenodd" clip-rule="evenodd" d="M131.267 176C131.064 176 130.863 175.913 130.718 175.744L125.184 169.264C124.916 168.95 124.944 168.47 125.247 168.191C125.551 167.913 126.014 167.942 126.282 168.257L131.816 174.736C132.084 175.05 132.056 175.53 131.753 175.809C131.613 175.937 131.44 176 131.267 176Z" fill="#2A2B2E"/>
<path fill-rule="evenodd" clip-rule="evenodd" d="M136.5 175C136.224 175 136 174.692 136 174.312V164.688C136 164.308 136.224 164 136.5 164C136.776 164 137 164.308 137 164.688V174.312C137 174.692 136.776 175 136.5 175Z" fill="#2A2B2E"/>
<path fill-rule="evenodd" clip-rule="evenodd" d="M151.862 189.282C151.171 189.227 146.384 188.973 145.691 189.002C138.558 189.297 135.566 192.151 132.909 195.888C130.252 199.624 133.949 203.712 137.184 202.895C140.418 202.077 145.836 200.002 153.693 195.169C154.587 194.618 156.083 194.377 155.996 193.314C155.846 191.47 155.522 189.572 151.862 189.282Z" fill="white"/>
<path fill-rule="evenodd" clip-rule="evenodd" d="M145.894 189.319C145.84 189.319 145.797 189.32 145.765 189.321C139.064 189.585 136.072 191.889 133.168 195.778C131.726 197.709 132.574 199.357 133.005 199.976C133.9 201.26 135.476 201.929 136.839 201.6C139.933 200.855 145.353 198.954 153.599 194.124C153.89 193.954 154.215 193.817 154.528 193.687C155.191 193.409 155.659 193.192 155.636 192.93C155.5 191.344 155.372 189.846 152.018 189.592C151.271 189.536 146.889 189.319 145.894 189.319ZM136.144 203C134.526 203 132.872 202.144 131.876 200.715C130.645 198.947 130.715 196.813 132.064 195.005C135.135 190.893 138.488 188.287 145.709 188.003C146.479 187.971 151.434 188.225 152.124 188.278C156.285 188.592 156.819 190.788 156.993 192.821C157.099 194.048 155.925 194.539 155.068 194.898C154.783 195.017 154.515 195.129 154.303 195.253C145.911 200.168 140.353 202.114 137.168 202.881C136.833 202.961 136.489 203 136.144 203Z" fill="#2A2B2E"/>
<path fill-rule="evenodd" clip-rule="evenodd" d="M145.366 197.008C146.541 197.035 147.34 198.311 146.856 199.436C146.809 199.546 146.755 199.66 146.692 199.779C145.568 201.918 141.776 205.532 139.248 205.975C136.719 206.417 135.202 200.969 136.438 199.336C138.138 197.091 143.219 196.958 145.366 197.008Z" fill="white"/>
<path fill-rule="evenodd" clip-rule="evenodd" d="M144.826 198.325C140.763 198.325 137.755 199.06 136.706 200.326C136.175 200.966 136.314 203.014 137.231 204.493C137.537 204.986 138.172 205.791 139.01 205.658C141.47 205.265 145.281 201.916 146.371 200.022C146.427 199.924 146.477 199.83 146.519 199.74C146.662 199.436 146.636 199.098 146.446 198.812C146.252 198.519 145.923 198.341 145.566 198.334C145.316 198.328 145.069 198.325 144.826 198.325ZM138.824 207C137.766 207 136.767 206.35 136.034 205.168C134.976 203.463 134.556 200.781 135.614 199.504C137.533 197.188 142.696 196.95 145.597 197.007C146.421 197.024 147.179 197.434 147.622 198.103C148.059 198.763 148.121 199.577 147.788 200.283C147.732 200.403 147.666 200.529 147.591 200.66C146.352 202.813 142.208 206.492 139.24 206.967C139.101 206.989 138.962 207 138.824 207Z" fill="#2A2B2E"/>
<path fill-rule="evenodd" clip-rule="evenodd" d="M180.645 138.895C182.2 140.414 184.147 140.711 185.088 140.853C187.054 141.151 195.466 141.615 201.128 135.259C206.673 129.035 207.237 118.904 204.072 116.839C201.8 115.355 198.191 118.411 194.766 116.108C193.25 115.088 193.609 114.253 191.997 113.171C189.282 111.348 185.793 112.054 183.121 112.632C178.245 113.686 178.405 115.037 174.116 116.114C168.007 117.647 164.531 115.698 163.335 117.671C162.382 119.243 163.601 122.111 165.25 123.774C168.66 127.215 172.888 124.307 175.512 127.483C177.142 129.455 176.908 132.158 179.335 137.045C179.529 137.435 179.905 138.172 180.645 138.895Z" fill="#2A2B2E"/>
<path fill-rule="evenodd" clip-rule="evenodd" d="M175.576 143.445C175.754 142.811 175.943 142.108 176.122 141.374C174.774 141.947 173.361 142.04 172.525 141.567C171.495 140.983 171.308 139.831 170.891 138.455C170.717 137.88 170.56 137.208 169.978 136.622C169.669 136.311 169.322 136.106 168.99 135.968C168.581 135.799 168.364 135.336 168.476 134.896L168.583 134.634C169.429 132.575 169.876 130.365 169.9 128.129L169.947 123.713C172.279 122.756 173.13 122.918 173.448 123.301C173.565 123.441 173.738 123.534 173.729 124.214C173.691 127.494 176.545 127.157 178.935 126.553C181.324 125.949 180.485 130.525 180.485 130.525C180.485 130.525 181.968 128.547 183.617 130.265C184.798 131.497 182.499 133.513 181.101 134.557L182.047 144.041C182.296 146.537 184.569 146.513 186.849 147.377L193 148.965C193 148.965 176.913 156.356 167 151.131L172.312 149.254C174.129 148.243 175.102 145.125 175.576 143.445Z" fill="white"/>
<path fill-rule="evenodd" clip-rule="evenodd" d="M168.485 151.536C175.88 154.311 186.038 151.055 190.19 149.468L186.105 148.414C186.083 148.408 186.06 148.401 186.038 148.392C185.563 148.213 185.08 148.071 184.612 147.934C182.887 147.429 181.103 146.908 180.866 144.528L179.931 135.163C179.907 134.921 180.01 134.684 180.201 134.541C182.007 133.193 182.693 132.179 182.733 131.679C182.744 131.542 182.706 131.443 182.604 131.335C182.27 130.987 181.949 130.829 181.623 130.846C181.111 130.875 180.638 131.352 180.499 131.533C180.311 131.779 179.983 131.861 179.707 131.731C179.431 131.601 179.275 131.294 179.331 130.987C179.509 130.007 179.562 128.353 179.111 127.911C179.07 127.871 178.96 127.763 178.605 127.852C176.97 128.265 174.933 128.606 173.685 127.582C172.982 127.005 172.632 126.093 172.647 124.871C172.65 124.601 172.616 124.518 172.616 124.517C172.571 124.472 172.548 124.447 172.527 124.421C172.525 124.419 172.141 124.128 170.226 124.856L170.184 128.753C170.16 131.062 169.705 133.311 168.831 135.436L168.75 135.634C168.74 135.729 168.788 135.82 168.871 135.854C169.329 136.045 169.73 136.31 170.062 136.645C170.706 137.293 170.918 138.012 171.088 138.589L171.134 138.74C171.192 138.935 171.247 139.125 171.299 139.31C171.618 140.426 171.828 141.075 172.434 141.418C173.065 141.775 174.265 141.685 175.419 141.195C175.648 141.096 175.913 141.141 176.102 141.31C176.29 141.479 176.371 141.743 176.31 141.992C176.148 142.654 175.964 143.349 175.764 144.06C175.165 146.186 174.146 149.135 172.219 150.206C172.188 150.224 172.154 150.24 172.12 150.251L168.485 151.536ZM175.231 154C172.13 154 169.041 153.48 166.36 152.068C166.124 151.943 165.983 151.685 166.002 151.412C166.02 151.139 166.195 150.904 166.446 150.816L171.638 148.981C173.273 148.023 174.193 144.758 174.497 143.68C174.576 143.399 174.653 143.12 174.726 142.846C173.595 143.105 172.536 143.03 171.8 142.613C170.687 141.983 170.369 140.872 170.033 139.695C169.982 139.517 169.93 139.334 169.874 139.146L169.826 138.986C169.68 138.492 169.542 138.026 169.141 137.621C168.933 137.411 168.676 137.243 168.379 137.12C167.671 136.826 167.284 136.024 167.479 135.255C167.487 135.224 167.498 135.193 167.51 135.163L167.616 134.904C168.422 132.943 168.842 130.869 168.864 128.738L168.911 124.378C168.914 124.101 169.078 123.854 169.327 123.752C171.587 122.826 172.883 122.758 173.529 123.534C173.807 123.838 173.975 124.17 173.967 124.888C173.957 125.677 174.134 126.21 174.506 126.515C175.315 127.18 177.054 126.84 178.291 126.528C179.162 126.309 179.712 126.621 180.02 126.923C180.664 127.554 180.802 128.698 180.785 129.662C181.012 129.569 181.264 129.503 181.537 129.486C182.032 129.453 182.78 129.584 183.541 130.376C183.916 130.766 184.091 131.256 184.049 131.791C183.966 132.832 183.036 134.049 181.283 135.411L182.179 144.389C182.318 145.786 183.184 146.099 184.972 146.623C185.452 146.764 185.949 146.908 186.459 147.1L192.5 148.66C192.774 148.731 192.973 148.972 192.997 149.262C193.022 149.552 192.865 149.826 192.609 149.944C192.126 150.165 183.646 154 175.231 154Z" fill="#2A2B2E"/>
<path fill-rule="evenodd" clip-rule="evenodd" d="M175.669 142C175.392 142 175.132 141.854 175.037 141.62C174.916 141.325 175.101 141.004 175.451 140.902C177.668 140.255 178.679 137.433 178.688 137.405C178.793 137.106 179.164 136.935 179.519 137.023C179.873 137.111 180.077 137.424 179.973 137.723C179.925 137.862 178.761 141.131 175.888 141.969C175.816 141.99 175.742 142 175.669 142Z" fill="#2A2B2E"/>
<path fill-rule="evenodd" clip-rule="evenodd" d="M51 109.986C51.0081 118.822 43.8508 125.992 35.0141 126C26.1775 126.008 19.0081 118.851 19 110.014C18.9924 101.178 26.1492 94.0081 34.9859 94C43.8225 93.9924 50.9924 101.149 51 109.986Z" fill="white"/>
<path fill-rule="evenodd" clip-rule="evenodd" d="M35.0005 94.3738H34.9863C26.3695 94.3815 19.366 101.397 19.3738 110.014C19.3811 118.625 26.3901 125.626 35.0005 125.626H35.0137C43.63 125.618 50.634 118.602 50.6262 109.986C50.6226 105.812 48.9937 101.89 46.0396 98.941C43.0892 95.9952 39.1689 94.3738 35.0005 94.3738ZM35.0005 127C25.6322 127 18.0078 119.384 18 110.014C17.9913 100.641 25.6112 93.0087 34.9849 93H35.0005C39.5357 93 43.7999 94.7644 47.0104 97.9689C50.2242 101.176 51.9959 105.444 52 109.985C52.0082 119.359 44.3888 126.991 35.0151 127H35.0005Z" fill="#2A2B2E"/>
<path fill-rule="evenodd" clip-rule="evenodd" d="M33.9291 118C33.6743 118 33.4372 117.859 33.3194 117.631L28.0752 107.494C27.903 107.161 28.0364 106.753 28.3735 106.583C28.7092 106.414 29.123 106.544 29.2952 106.878L33.7071 115.407C35.2523 109.608 37.2482 105.293 39.7862 102.247C40.0264 101.958 40.458 101.917 40.7504 102.154C41.0427 102.392 41.0842 102.819 40.8435 103.107C38.2283 106.246 36.1264 111.081 34.5959 117.479C34.5297 117.755 34.2968 117.961 34.0118 117.995C33.9839 117.998 33.9565 118 33.9291 118Z" fill="#2A2B2E"/>
<path fill-rule="evenodd" clip-rule="evenodd" d="M331 107C331 126.33 315.33 142 296 142C276.67 142 261 126.33 261 107C261 87.67 276.67 72 296 72C315.33 72 331 87.67 331 107Z" fill="#2A2B2E"/>
<path fill-rule="evenodd" clip-rule="evenodd" d="M331 105C331 123.777 315.778 139 297 139C278.223 139 263 123.777 263 105C263 86.2225 278.223 71 297 71C315.778 71 331 86.2225 331 105Z" fill="#2A2B2E"/>
<path fill-rule="evenodd" clip-rule="evenodd" d="M297.5 71.3617C279.227 71.3617 264.362 86.2273 264.362 104.5C264.362 122.772 279.227 137.638 297.5 137.638C315.773 137.638 330.638 122.772 330.638 104.5C330.638 86.2273 315.773 71.3617 297.5 71.3617ZM297.5 139C278.477 139 263 123.523 263 104.5C263 85.4765 278.477 70 297.5 70C316.523 70 332 85.4765 332 104.5C332 123.523 316.523 139 297.5 139Z" fill="#2A2B2E"/>
<path fill-rule="evenodd" clip-rule="evenodd" d="M325 105.5C325 121.24 312.24 134 296.5 134C280.76 134 268 121.24 268 105.5C268 89.7601 280.76 77 296.5 77C312.24 77 325 89.7601 325 105.5Z" fill="white"/>
<path fill-rule="evenodd" clip-rule="evenodd" d="M320.575 122C320.468 122 320.36 121.964 320.263 121.887C319.996 121.677 319.92 121.242 320.092 120.915C321.307 118.615 322.243 116.122 322.872 113.505C322.962 113.132 323.283 112.92 323.587 113.028C323.892 113.138 324.066 113.529 323.976 113.901C323.316 116.649 322.334 119.264 321.059 121.678C320.949 121.887 320.764 122 320.575 122Z" fill="#2A2B2E"/>
<path fill-rule="evenodd" clip-rule="evenodd" d="M322.33 94C322.082 94 321.843 93.8537 321.727 93.6024C317.126 83.6157 307.728 77.4116 297.2 77.4116C288.551 77.4116 280.331 81.806 275.21 89.1662C274.992 89.4809 274.572 89.5478 274.274 89.3181C273.975 89.0876 273.911 88.6457 274.13 88.3314C279.502 80.6099 288.126 76 297.2 76C308.245 76 318.106 82.5085 322.933 92.986C323.094 93.3365 322.955 93.7586 322.623 93.9294C322.528 93.9774 322.429 94 322.33 94Z" fill="#2A2B2E"/>
<path fill-rule="evenodd" clip-rule="evenodd" d="M297.313 135C281.15 135 268 121.848 268 105.682C268 100.66 269.291 95.7052 271.734 91.3514C271.919 91.0203 272.338 90.9017 272.668 91.0886C272.999 91.2745 273.117 91.693 272.932 92.0236C270.604 96.1723 269.373 100.895 269.373 105.682C269.373 121.09 281.907 133.626 297.313 133.626C297.693 133.626 298 133.934 298 134.313C298 134.692 297.693 135 297.313 135Z" fill="#2A2B2E"/>
<path fill-rule="evenodd" clip-rule="evenodd" d="M294.386 125V120.227C291.081 120.076 287.875 119.171 286 118.066L287.48 112.187C289.552 113.343 292.462 114.398 295.668 114.398C298.48 114.398 300.404 113.293 300.404 111.283C300.404 109.374 298.825 108.168 295.175 106.912C289.897 105.103 286.296 102.591 286.296 97.7167C286.296 93.2955 289.354 89.8286 294.633 88.7731V84H299.467V88.4216C302.772 88.5725 304.991 89.2756 306.619 90.0798L305.189 95.7571C303.906 95.2045 301.637 94.0492 298.085 94.0492C294.88 94.0492 293.843 95.4557 293.843 96.8627C293.843 98.5209 295.57 99.576 299.762 101.184C305.632 103.294 308 106.057 308 110.579C308 115.051 304.892 118.87 299.22 119.875V125H294.386Z" fill="#AA4465"/>
<path fill-rule="evenodd" clip-rule="evenodd" d="M281 161C281 175.912 268.912 188 254 188C239.088 188 227 175.912 227 161C227 146.088 239.088 134 254 134C268.912 134 281 146.088 281 161Z" fill="#2A2B2E"/>
<path fill-rule="evenodd" clip-rule="evenodd" d="M281 160.5C281 175.135 269.135 187 254.5 187C239.865 187 228 175.135 228 160.5C228 145.864 239.865 134 254.5 134C269.135 134 281 145.864 281 160.5Z" fill="#2A2B2E"/>
<path fill-rule="evenodd" clip-rule="evenodd" d="M255 134.369C240.867 134.369 229.369 145.867 229.369 160C229.369 174.133 240.867 185.631 255 185.631C269.133 185.631 280.631 174.133 280.631 160C280.631 145.867 269.133 134.369 255 134.369ZM255 187C240.112 187 228 174.888 228 160C228 145.112 240.112 133 255 133C269.888 133 282 145.112 282 160C282 174.888 269.888 187 255 187Z" fill="#2A2B2E"/>
<path fill-rule="evenodd" clip-rule="evenodd" d="M277 160C277 172.15 267.15 182 255 182C242.85 182 233 172.15 233 160C233 147.85 242.85 138 255 138C267.15 138 277 147.85 277 160Z" fill="white"/>
<path fill-rule="evenodd" clip-rule="evenodd" d="M273.685 173C273.558 173 273.429 172.965 273.314 172.892C272.996 172.69 272.904 172.271 273.11 171.958C274.223 170.259 275.079 168.418 275.656 166.485C275.763 166.127 276.144 165.924 276.508 166.027C276.871 166.133 277.079 166.509 276.972 166.866C276.358 168.923 275.447 170.883 274.262 172.69C274.131 172.891 273.91 173 273.685 173Z" fill="#2A2B2E"/>
<path fill-rule="evenodd" clip-rule="evenodd" d="M275.335 151C275.088 151 274.851 150.856 274.735 150.609C271.221 143.07 264.042 138.386 256 138.386C249.394 138.386 243.114 141.704 239.202 147.26C238.985 147.57 238.569 147.635 238.272 147.409C237.975 147.183 237.912 146.749 238.129 146.441C242.291 140.529 248.971 137 256 137C264.426 137 272.25 142.104 275.933 150.004C276.093 150.348 275.955 150.763 275.625 150.931C275.531 150.978 275.432 151 275.335 151Z" fill="#2A2B2E"/>
<path fill-rule="evenodd" clip-rule="evenodd" d="M255.329 182C243.016 182 233 171.859 233 159.396C233 155.524 233.984 151.703 235.844 148.347C236.026 148.02 236.435 147.903 236.758 148.088C237.081 148.271 237.196 148.685 237.015 149.013C235.266 152.166 234.342 155.756 234.342 159.396C234.342 171.111 243.757 180.641 255.329 180.641C255.7 180.641 256 180.946 256 181.321C256 181.696 255.7 182 255.329 182Z" fill="#2A2B2E"/>
<path fill-rule="evenodd" clip-rule="evenodd" d="M253.099 176V172.391C250.695 172.277 248.363 171.593 247 170.757L248.076 166.313C249.583 167.186 251.7 167.984 254.032 167.984C256.076 167.984 257.475 167.148 257.475 165.629C257.475 164.185 256.327 163.274 253.673 162.324C249.834 160.956 247.215 159.057 247.215 155.371C247.215 152.028 249.44 149.407 253.278 148.609V145H256.794V148.343C259.197 148.457 260.812 148.988 261.995 149.597L260.955 153.889C260.023 153.472 258.372 152.598 255.789 152.598C253.458 152.598 252.704 153.662 252.704 154.726C252.704 155.979 253.96 156.777 257.009 157.993C261.278 159.588 263 161.678 263 165.097C263 168.478 260.74 171.365 256.614 172.125V176H253.099Z" fill="#AA4465"/>
<path fill-rule="evenodd" clip-rule="evenodd" d="M14.9989 135.449C13.7704 135.449 12.6849 136.341 12.4825 137.592C12.2579 138.981 13.2047 140.293 14.5926 140.518C15.9829 140.742 17.293 139.796 17.5176 138.407C17.7422 137.019 16.7954 135.707 15.407 135.482C15.2699 135.46 15.1331 135.449 14.9989 135.449ZM15.0022 142C14.7906 142 14.5766 141.983 14.3612 141.948C12.1845 141.596 10.6995 139.538 11.0517 137.362C11.4038 135.184 13.4632 133.7 15.6384 134.052C17.8156 134.404 19.3001 136.462 18.9484 138.638C18.6311 140.601 16.9282 142 15.0022 142Z" fill="#2A2B2E"/>
<path fill-rule="evenodd" clip-rule="evenodd" d="M353.994 272.45C353.463 272.45 352.947 272.615 352.508 272.932C351.955 273.331 351.592 273.921 351.483 274.593C351.374 275.266 351.534 275.94 351.932 276.493C352.331 277.045 352.92 277.409 353.593 277.518C354.981 277.742 356.293 276.796 356.517 275.408C356.626 274.735 356.466 274.061 356.068 273.508C355.67 272.956 355.079 272.592 354.407 272.483C354.269 272.461 354.131 272.45 353.994 272.45ZM354.002 279C353.791 279 353.577 278.983 353.361 278.948C352.307 278.778 351.382 278.207 350.757 277.341C350.132 276.474 349.882 275.416 350.052 274.362C350.223 273.307 350.794 272.382 351.66 271.757C352.526 271.132 353.584 270.881 354.638 271.053C355.693 271.223 356.618 271.794 357.243 272.66C357.868 273.526 358.118 274.585 357.948 275.639C357.631 277.601 355.928 279 354.002 279Z" fill="#2A2B2E"/>
<path fill-rule="evenodd" clip-rule="evenodd" d="M362.5 177C362.224 177 362 176.75 362 176.442V173.558C362 173.25 362.224 173 362.5 173C362.776 173 363 173.25 363 173.558V176.442C363 176.75 362.776 177 362.5 177Z" fill="#2A2B2E"/>
<path fill-rule="evenodd" clip-rule="evenodd" d="M362.5 184C362.224 184 362 183.75 362 183.442V180.558C362 180.25 362.224 180 362.5 180C362.776 180 363 180.25 363 180.558V183.442C363 183.75 362.776 184 362.5 184Z" fill="#2A2B2E"/>
<path fill-rule="evenodd" clip-rule="evenodd" d="M359.442 179H356.558C356.25 179 356 178.776 356 178.5C356 178.224 356.25 178 356.558 178H359.442C359.751 178 360 178.224 360 178.5C360 178.776 359.751 179 359.442 179Z" fill="#2A2B2E"/>
<path fill-rule="evenodd" clip-rule="evenodd" d="M367.442 179H364.558C364.25 179 364 178.776 364 178.5C364 178.224 364.25 178 364.558 178H367.442C367.751 178 368 178.224 368 178.5C368 178.776 367.751 179 367.442 179Z" fill="#2A2B2E"/>
<path fill-rule="evenodd" clip-rule="evenodd" d="M32.5 7C32.2237 7 32 6.75014 32 6.44228V3.55772C32 3.24986 32.2237 3 32.5 3C32.7763 3 33 3.24986 33 3.55772V6.44228C33 6.75014 32.7763 7 32.5 7Z" fill="#2A2B2E"/>
<path fill-rule="evenodd" clip-rule="evenodd" d="M32.5 15C32.2237 15 32 14.7501 32 14.4423V11.5577C32 11.2499 32.2237 11 32.5 11C32.7763 11 33 11.2499 33 11.5577V14.4423C33 14.7501 32.7763 15 32.5 15Z" fill="#2A2B2E"/>
<path fill-rule="evenodd" clip-rule="evenodd" d="M30.4422 10H27.5578C27.2495 10 27 9.776 27 9.5C27 9.224 27.2495 9 27.5578 9H30.4422C30.7505 9 31 9.224 31 9.5C31 9.776 30.7505 10 30.4422 10Z" fill="#2A2B2E"/>
<path fill-rule="evenodd" clip-rule="evenodd" d="M37.4423 10H34.5577C34.2499 10 34 9.776 34 9.5C34 9.224 34.2499 9 34.5577 9H37.4423C37.7505 9 38 9.224 38 9.5C38 9.776 37.7505 10 37.4423 10Z" fill="#2A2B2E"/>
</svg>
