<svg width="404" height="405" viewBox="0 0 404 405" fill="none" xmlns="http://www.w3.org/2000/svg">
<path fill-rule="evenodd" clip-rule="evenodd" d="M60.3076 132.506C53.2314 148.334 42.7574 178.638 46.967 216.329C52.3684 264.687 79.1099 302.812 105.122 324.236C191.438 395.326 349.45 349.4 370.374 282.434C374.17 270.285 373.103 258.568 371.789 244.15C367.612 198.293 345.61 184.662 330.813 135.972C317.347 91.6604 330.623 86.6742 318.031 66.9745C290.715 24.2418 211.866 22.0878 157.611 42.5753C136.771 50.4451 86.2019 74.5836 60.3076 132.506Z" fill="#C9CEBD"/>
<mask id="mask0_0:6980" style="mask-type:alpha" maskUnits="userSpaceOnUse" x="1" y="0" width="403" height="345">
<path fill-rule="evenodd" clip-rule="evenodd" d="M1 0H404V345H1V0Z" fill="white"/>
</mask>
<g mask="url(#mask0_0:6980)">
<path fill-rule="evenodd" clip-rule="evenodd" d="M399.308 339.093L395.75 342.116C393.742 343.822 389.874 345.437 387.293 344.893L1.00041 15.8381C0.96046 10.2719 3.87498 5.09906 8.66349 2.23725C12.0656 0.204062 16.1103 -0.47642 19.9927 0.331318L397.476 78.8558C401.276 79.6466 404 82.9868 404 86.8584V328.961C404 332.86 402.285 336.564 399.308 339.093Z" fill="#AA4465"/>
</g>
<path fill-rule="evenodd" clip-rule="evenodd" d="M389.515 346.938L12.0565 268.196C6.19812 266.974 2 261.81 2 255.826V15.9833C2 12.8227 4.90602 10.4613 8.00004 11.1068L386.459 90.058C390.27 90.8529 393 94.2109 393 98.1025V344.105C393 345.941 391.312 347.313 389.515 346.938Z" fill="white"/>
<path fill-rule="evenodd" clip-rule="evenodd" d="M387.402 345C387.155 345 386.907 344.975 386.66 344.923L165.579 298.623C165.186 298.54 164.933 298.153 165.015 297.758C165.098 297.363 165.482 297.108 165.877 297.192L386.958 343.492C387.592 343.625 388.247 343.466 388.751 343.055C389.255 342.643 389.544 342.033 389.544 341.382V95.9193C389.544 92.4012 387.054 89.3264 383.623 88.6073L378.078 87.4463C377.684 87.3639 377.432 86.9766 377.514 86.5815C377.596 86.1868 377.981 85.9325 378.375 86.0158L383.921 87.1768C388.022 88.0358 391 91.7127 391 95.9193V341.382C391 342.475 390.515 343.498 389.67 344.188C389.019 344.719 388.22 345 387.402 345Z" fill="#2A2B2E"/>
<path fill-rule="evenodd" clip-rule="evenodd" d="M2.30311 165C1.90058 165 1.57358 164.676 1.57212 164.275L1 15.6861C1 13.9648 1.76754 12.3576 3.10525 11.2738C4.44393 10.1905 6.17734 9.77005 7.86739 10.1211L337.418 78.6262C337.813 78.7087 338.067 79.0943 337.984 79.4881C337.901 79.8819 337.515 80.1339 337.119 80.0523L7.56866 11.5467C6.31331 11.286 5.02238 11.5987 4.02775 12.4042C3.03263 13.2103 2.46198 14.4052 2.46198 15.6832L3.0341 164.269C3.03556 164.671 2.70954 164.999 2.30603 165H2.30311Z" fill="#2A2B2E"/>
<path fill-rule="evenodd" clip-rule="evenodd" d="M197 277V286.386L288 305V295.611L197 277Z" fill="#AA4465"/>
<path fill-rule="evenodd" clip-rule="evenodd" d="M198.797 278.455C198.491 278.455 198.192 278.559 197.949 278.758C197.635 279.014 197.454 279.394 197.454 279.8V284.878C197.454 285.514 197.906 286.068 198.528 286.196L350.931 317.518C351.329 317.599 351.737 317.499 352.051 317.242C352.366 316.986 352.546 316.606 352.546 316.2V311.119C352.546 310.483 352.094 309.929 351.472 309.801L199.069 278.483C198.979 278.464 198.887 278.455 198.797 278.455ZM351.205 319C351.017 319 350.827 318.981 350.639 318.942L198.236 287.621C196.94 287.354 196 286.201 196 284.878V279.8C196 278.956 196.376 278.164 197.03 277.631C197.685 277.097 198.534 276.888 199.362 277.058L351.764 308.376C353.06 308.642 354 309.796 354 311.119V316.2C354 317.045 353.625 317.836 352.97 318.37C352.465 318.782 351.843 319 351.205 319Z" fill="#AA4465"/>
<path fill-rule="evenodd" clip-rule="evenodd" d="M197 258V267.107L342 296V286.89L197 258Z" fill="#AA4465"/>
<path fill-rule="evenodd" clip-rule="evenodd" d="M198.797 258.455C198.491 258.455 198.192 258.559 197.949 258.758C197.635 259.014 197.454 259.394 197.454 259.801V264.878C197.454 265.514 197.906 266.068 198.528 266.196L350.931 297.518C351.329 297.599 351.737 297.499 352.051 297.242C352.366 296.986 352.546 296.606 352.546 296.2V291.119C352.546 290.483 352.094 289.929 351.472 289.801L199.069 258.483C198.979 258.464 198.887 258.455 198.797 258.455ZM351.205 299C351.017 299 350.827 298.981 350.639 298.942L198.236 267.621C196.94 267.354 196 266.201 196 264.878V259.801C196 258.956 196.376 258.164 197.03 257.631C197.685 257.097 198.534 256.888 199.362 257.058L351.764 288.376C353.06 288.642 354 289.796 354 291.119V296.2C354 297.045 353.625 297.836 352.97 298.37C352.465 298.782 351.843 299 351.205 299Z" fill="#AA4465"/>
<path fill-rule="evenodd" clip-rule="evenodd" d="M196 238V247.629L303 270V260.367L196 238Z" fill="#AA4465"/>
<path fill-rule="evenodd" clip-rule="evenodd" d="M198.797 239.455C198.491 239.455 198.192 239.56 197.949 239.758C197.635 240.014 197.454 240.394 197.454 240.801V245.878C197.454 246.514 197.906 247.068 198.528 247.196L350.931 278.518C351.329 278.599 351.737 278.499 352.051 278.242C352.366 277.986 352.546 277.606 352.546 277.2V272.119C352.546 271.483 352.094 270.929 351.472 270.801L199.069 239.482C198.979 239.464 198.887 239.455 198.797 239.455ZM351.205 280C351.017 280 350.827 279.981 350.639 279.942L198.236 248.621C196.94 248.354 196 247.201 196 245.878V240.801C196 239.956 196.376 239.164 197.03 238.631C197.685 238.097 198.534 237.888 199.362 238.058L351.764 269.376C353.06 269.642 354 270.796 354 272.119V277.2C354 278.045 353.625 278.836 352.97 279.37C352.465 279.782 351.843 280 351.205 280Z" fill="#AA4465"/>
<path fill-rule="evenodd" clip-rule="evenodd" d="M196 219V228.278L270 243V233.719L196 219Z" fill="#AA4465"/>
<path fill-rule="evenodd" clip-rule="evenodd" d="M198.797 220.455C198.491 220.455 198.192 220.559 197.949 220.758C197.635 221.014 197.454 221.394 197.454 221.8V226.878C197.454 227.514 197.906 228.068 198.528 228.196L350.931 259.517C351.329 259.599 351.737 259.499 352.051 259.242C352.366 258.986 352.546 258.606 352.546 258.2V253.119C352.546 252.483 352.094 251.929 351.472 251.801L199.069 220.482C198.979 220.464 198.887 220.455 198.797 220.455ZM351.205 261C351.017 261 350.827 260.981 350.639 260.942L198.236 229.621C196.94 229.354 196 228.201 196 226.878V221.8C196 220.955 196.376 220.164 197.03 219.631C197.685 219.097 198.534 218.888 199.362 219.058L351.764 250.376C353.06 250.642 354 251.796 354 253.119V258.2C354 259.045 353.625 259.836 352.97 260.37C352.465 260.782 351.843 261 351.205 261Z" fill="#AA4465"/>
<path fill-rule="evenodd" clip-rule="evenodd" d="M342 131.643V230.505C342 230.811 342.227 231.074 342.545 231.136L352.185 232.987C352.607 233.068 353.001 232.762 353 232.355L352.711 133.244C352.709 132.933 352.474 132.668 352.152 132.612L342.801 131.01C342.384 130.939 342 131.242 342 131.643Z" fill="#C9CEBD"/>
<path fill-rule="evenodd" clip-rule="evenodd" d="M321 145.632V225.547C321 225.848 321.228 226.107 321.545 226.167L331.185 227.987C331.606 228.067 332.001 227.766 332 227.365L331.711 147.206C331.709 146.9 331.475 146.64 331.152 146.585L321.802 145.01C321.384 144.94 321 145.238 321 145.632Z" fill="#C9CEBD"/>
<path fill-rule="evenodd" clip-rule="evenodd" d="M301 156.639V222.524C301 222.827 301.227 223.089 301.545 223.149L311.185 224.987C311.607 225.068 312.002 224.764 312 224.359L311.712 158.226C311.71 157.919 311.476 157.656 311.153 157.601L301.801 156.01C301.384 155.939 301 156.24 301 156.639Z" fill="#C9CEBD"/>
<path fill-rule="evenodd" clip-rule="evenodd" d="M280 164.653V218.47C280 218.78 280.228 219.047 280.545 219.109L290.185 220.987C290.607 221.069 291.002 220.758 291 220.344L290.714 166.275C290.712 165.96 290.477 165.692 290.154 165.636L280.802 164.011C280.384 163.938 280 164.246 280 164.653Z" fill="#C9CEBD"/>
<path fill-rule="evenodd" clip-rule="evenodd" d="M260 172.636V213.533C260 213.835 260.227 214.096 260.545 214.156L270.185 215.987C270.608 216.067 271.003 215.764 271 215.36L270.716 174.218C270.713 173.912 270.478 173.651 270.156 173.596L260.801 172.01C260.384 171.94 260 172.24 260 172.636Z" fill="#C9CEBD"/>
<path fill-rule="evenodd" clip-rule="evenodd" d="M240 182.641V209.514C240 209.819 240.227 210.082 240.545 210.142L250.184 211.987C250.608 212.068 251.004 211.76 251 211.352L250.719 184.233C250.716 183.926 250.481 183.663 250.16 183.608L240.802 182.01C240.384 181.939 240 182.241 240 182.641Z" fill="#C9CEBD"/>
<path fill-rule="evenodd" clip-rule="evenodd" d="M240.726 174C240.404 174 240.11 173.782 240.024 173.452C239.922 173.06 240.154 172.659 240.543 172.556C291.577 159.043 331.246 127.326 349.708 104.272C349.96 103.958 350.418 103.908 350.73 104.164C351.042 104.418 351.091 104.88 350.838 105.195C346.493 110.622 334.094 124.876 312.877 139.998C290.773 155.753 266.56 167.184 240.911 173.976C240.849 173.992 240.787 174 240.726 174Z" fill="#C9CEBD"/>
<path fill-rule="evenodd" clip-rule="evenodd" d="M350.165 112H350.156C349.741 111.995 349.408 111.635 349.413 111.194L349.487 103.831L342.727 103.594C342.312 103.58 341.986 103.211 342 102.771C342.014 102.331 342.357 101.988 342.777 102L350.273 102.263C350.681 102.277 351.004 102.635 351 103.068L350.917 111.212C350.913 111.649 350.577 112 350.165 112Z" fill="#C9CEBD"/>
<path fill-rule="evenodd" clip-rule="evenodd" d="M275 122.316C268.75 122.316 263.684 117.25 263.684 111C263.684 104.75 268.75 99.6835 275 99.6835C281.25 99.6835 286.316 104.75 286.316 111C286.316 117.25 281.25 122.316 275 122.316ZM275 83C259.536 83 247 95.5359 247 111C247 126.464 259.536 139 275 139C290.464 139 303 126.464 303 111C303 95.5359 290.464 83 275 83Z" fill="#E6E8E6"/>
<path fill-rule="evenodd" clip-rule="evenodd" d="M280.138 84L278 100.35C281.326 101.295 284.009 103.779 285.259 107L300 100.117C296.471 91.8723 289.081 85.7216 280.138 84Z" fill="#C9CEBD"/>
<path fill-rule="evenodd" clip-rule="evenodd" d="M286 107.855C286.49 109.053 286.767 110.352 286.767 111.717C286.767 112.489 286.676 113.24 286.513 113.965L302.779 115C302.919 113.924 303 112.829 303 111.717C303 107.897 302.142 104.272 300.612 101L286 107.855Z" fill="#AA4465"/>
<path fill-rule="evenodd" clip-rule="evenodd" d="M335 83.4031L370.963 91L394 62L335 83.4031Z" fill="white"/>
<path fill-rule="evenodd" clip-rule="evenodd" d="M338.388 83.3346L371.112 90.4269L392.073 63.3543L338.388 83.3346ZM371.41 92C371.359 92 371.306 91.9945 371.254 91.9836L335.585 84.2534C335.263 84.1838 335.025 83.9078 335.002 83.5772C334.978 83.2466 335.175 82.9398 335.484 82.825L394.001 61.0464C394.309 60.931 394.661 61.0359 394.857 61.3049C395.052 61.5739 395.047 61.9408 394.843 62.2038L371.996 91.7126C371.853 91.8961 371.636 92 371.41 92Z" fill="#2A2B2E"/>
<path fill-rule="evenodd" clip-rule="evenodd" d="M352.863 99L347 86.5829L379 71L353.358 87.9346L360.92 89.543L352.863 99Z" fill="#C9CEBD"/>
<path fill-rule="evenodd" clip-rule="evenodd" d="M348.719 87.3955L353.697 97.9241L360.093 90.4267L353.848 89.1001C353.557 89.0383 353.332 88.8116 353.276 88.5235C353.22 88.2359 353.344 87.9429 353.592 87.7804L369.491 77.2946L348.719 87.3955ZM353.516 100C353.484 100 353.451 99.9981 353.419 99.9937C353.168 99.9611 352.951 99.8044 352.845 99.5786L347.07 87.3653C346.899 87.0057 347.052 86.5779 347.413 86.4018L378.931 71.0756C379.28 70.9053 379.705 71.0318 379.901 71.3646C380.096 71.6975 379.995 72.1228 379.671 72.3364L355.868 88.0359L361.608 89.2544C361.861 89.3089 362.068 89.4899 362.152 89.7318C362.237 89.9741 362.186 90.2422 362.019 90.4378L354.083 99.7397C353.941 99.9056 353.733 100 353.516 100Z" fill="#2A2B2E"/>
<path fill-rule="evenodd" clip-rule="evenodd" d="M353.827 95C353.813 95 353.799 95 353.785 94.9994C353.329 94.9778 352.978 94.6155 353.001 94.1895L353.348 87.7333C353.371 87.3078 353.739 86.9804 354.215 87.0009C354.671 87.0225 355.022 87.3849 354.999 87.8109L354.652 94.267C354.63 94.6792 354.264 95 353.827 95Z" fill="#2A2B2E"/>
<path fill-rule="evenodd" clip-rule="evenodd" d="M12.019 28L179 64.689L178.468 271L11 234.842L12.019 28Z" fill="#E6E8E6"/>
<path fill-rule="evenodd" clip-rule="evenodd" d="M40 130C40 133.314 37.3138 136 34.0002 136C30.6862 136 28 133.314 28 130C28 126.686 30.6862 124 34.0002 124C37.3138 124 40 126.686 40 130Z" fill="#C9CEBD"/>
<path fill-rule="evenodd" clip-rule="evenodd" d="M39 153C39 156.314 36.3135 159 33 159C29.6861 159 27 156.314 27 153C27 149.686 29.6861 147 33 147C36.3135 147 39 149.686 39 153Z" fill="#C9CEBD"/>
<path fill-rule="evenodd" clip-rule="evenodd" d="M40 176C40 179.314 37.3135 182 34 182C30.6865 182 28 179.314 28 176C28 172.686 30.6865 170 34 170C37.3135 170 40 172.686 40 176Z" fill="#C9CEBD"/>
<path fill-rule="evenodd" clip-rule="evenodd" d="M40 196C40 199.314 37.3135 202 34 202C30.6865 202 28 199.314 28 196C28 192.686 30.6865 190 34 190C37.3135 190 40 192.686 40 196Z" fill="#C9CEBD"/>
<path fill-rule="evenodd" clip-rule="evenodd" d="M48.4323 171.045L155.575 195.275C156.417 195.466 157.011 196.223 157 197.09L156.898 205.187C156.884 206.354 155.803 207.21 154.67 206.955L47.4262 182.734C46.5756 182.542 45.9788 181.772 46.0006 180.897L46.2045 172.79C46.2341 171.633 47.3085 170.791 48.4323 171.045Z" fill="#C9CEBD"/>
<path fill-rule="evenodd" clip-rule="evenodd" d="M144.872 171.029L47.9904 149.036C47.1008 148.834 46.2511 149.503 46.228 150.421L46.0005 159.489C45.9828 160.185 46.4555 160.796 47.1283 160.949L144.237 182.964C145.141 183.169 146 182.476 146 181.541V172.452C146 171.77 145.531 171.179 144.872 171.029Z" fill="#C9CEBD"/>
<path fill-rule="evenodd" clip-rule="evenodd" d="M144.326 214.982L48.8063 193.054C47.4871 192.751 46.2256 193.754 46.1914 195.133L46.0007 202.814C45.9752 203.858 46.6759 204.775 47.6744 205.004L143.385 226.946C144.726 227.253 146 226.213 146 224.811V217.116C146 216.093 145.305 215.207 144.326 214.982Z" fill="#C9CEBD"/>
<path fill-rule="evenodd" clip-rule="evenodd" d="M151.131 148.833L49.0976 125.061C47.6249 124.718 46.2163 125.854 46.1782 127.417L46.0008 134.676C45.9715 135.859 46.7542 136.898 47.8692 137.158L150.081 160.939C151.577 161.287 153 160.108 153 158.52V151.251C153 150.092 152.224 149.088 151.131 148.833Z" fill="#C9CEBD"/>
<path fill-rule="evenodd" clip-rule="evenodd" d="M104.224 99.1178L153.973 109.844C156.334 110.354 158.014 112.432 158 114.828L157.987 116.959C157.968 120.172 154.976 122.557 151.806 121.886L102.047 111.359C99.6691 110.856 97.9774 108.763 98.0002 106.353L98.0226 104.023C98.0533 100.809 101.055 98.4346 104.224 99.1178Z" fill="#C9CEBD"/>
<path fill-rule="evenodd" clip-rule="evenodd" d="M102 373.077L103.209 383.198L111 384V372L102 373.077Z" fill="white"/>
<path fill-rule="evenodd" clip-rule="evenodd" d="M104.628 382.881L110.436 383.497V373.518L103.639 374.356L104.628 382.881ZM111.218 385C111.188 385 111.157 384.998 111.127 384.995L103.824 384.221C103.461 384.182 103.176 383.921 103.138 383.592L102.004 373.821C101.96 373.441 102.258 373.098 102.677 373.046L111.112 372.006C111.335 371.979 111.562 372.04 111.732 372.175C111.902 372.309 112 372.503 112 372.708V384.293C112 384.494 111.905 384.687 111.738 384.821C111.593 384.936 111.408 385 111.218 385Z" fill="#2A2B2E"/>
<path fill-rule="evenodd" clip-rule="evenodd" d="M111.422 401.568C108.614 401.96 104.011 402.305 98.6063 401.563C96.8349 401.319 95.6609 399.612 96.088 397.888C97.2784 393.082 99.3282 383.969 102.847 379.745L103.722 382.036L104.929 379.879C105.094 379.583 105.392 379.384 105.729 379.342L108.374 379.009C108.926 378.939 109.44 379.302 109.554 379.843L109.975 381.831L110.897 379.222L113.974 398.218C114.189 399.841 113.054 401.339 111.422 401.568Z" fill="#AA4465"/>
<path fill-rule="evenodd" clip-rule="evenodd" d="M103.195 381.014C100.521 385.213 98.7918 392.605 97.7233 397.173L97.4746 398.233C97.3213 398.879 97.4351 399.538 97.7942 400.089C98.1506 400.636 98.7171 401.001 99.3475 401.092C104.502 401.834 108.898 401.504 111.679 401.097C112.882 400.921 113.732 399.753 113.572 398.493L111.009 381.924C110.891 382.205 110.612 382.382 110.317 382.362C110.002 382.34 109.738 382.103 109.673 381.781L109.262 379.748C109.226 379.568 109.06 379.447 108.887 379.469L106.301 379.81C106.195 379.824 106.1 379.891 106.048 379.989L104.867 382.196C104.734 382.445 104.47 382.591 104.2 382.571C103.926 382.55 103.689 382.366 103.592 382.1L103.195 381.014ZM105.552 403C103.614 403 101.457 402.876 99.1538 402.544C98.1285 402.397 97.2075 401.802 96.627 400.912C96.0492 400.026 95.8593 398.922 96.1051 397.882L96.3529 396.827C97.546 391.725 99.5431 383.187 102.853 379.028C103.013 378.828 103.263 378.729 103.512 378.773C103.759 378.815 103.967 378.992 104.056 379.236L104.372 380.104L104.815 379.276C105.085 378.772 105.574 378.428 106.124 378.355L108.709 378.015C109.459 377.914 110.175 378.338 110.499 379.016L110.6 378.718C110.707 378.401 111.015 378.202 111.328 378.23C111.649 378.26 111.91 378.513 111.961 378.844L114.968 398.28C115.232 400.355 113.843 402.262 111.875 402.55C110.249 402.787 108.087 403 105.552 403Z" fill="#2A2B2E"/>
<path fill-rule="evenodd" clip-rule="evenodd" d="M104.22 399C102.428 399 100.487 398.806 98.5537 398.267C98.1706 398.16 97.9307 397.694 98.0179 397.225C98.1052 396.757 98.4869 396.463 98.8695 396.57C105.299 398.362 112.025 396.057 112.093 396.034C112.469 395.901 112.864 396.169 112.972 396.631C113.08 397.093 112.862 397.574 112.484 397.707C112.277 397.779 108.713 399 104.22 399Z" fill="#2A2B2E"/>
<path fill-rule="evenodd" clip-rule="evenodd" d="M102.836 393C102.387 393 102.015 392.628 102 392.155C101.985 391.673 102.347 391.269 102.809 391.253L110.135 391.001C110.62 390.984 110.984 391.363 111 391.845C111.015 392.327 110.653 392.731 110.191 392.747L102.865 392.999C102.855 393 102.846 393 102.836 393Z" fill="#2A2B2E"/>
<path fill-rule="evenodd" clip-rule="evenodd" d="M135 369L136.064 383H144.603L145 369H135Z" fill="white"/>
<path fill-rule="evenodd" clip-rule="evenodd" d="M136.638 382.555H144.023L144.396 369.445H135.64L136.638 382.555ZM144.795 384H135.899C135.483 384 135.138 383.706 135.109 383.328L134.002 368.772C133.987 368.573 134.063 368.376 134.213 368.23C134.362 368.083 134.572 368 134.792 368H145.209C145.422 368 145.627 368.078 145.775 368.218C145.925 368.358 146.006 368.546 146 368.741L145.586 383.297C145.575 383.688 145.224 384 144.795 384Z" fill="#2A2B2E"/>
<path fill-rule="evenodd" clip-rule="evenodd" d="M133 390.921C132.979 392.315 133.963 393.538 135.366 393.855C140.246 394.954 151.239 397.401 154.374 397.853C158.444 398.439 163.445 397.232 165.596 394.929C167.745 392.625 160.78 387.124 157.475 385.123C152.564 382.15 147.847 376.273 145.868 376.009C143.889 375.744 140.197 381.299 140.197 381.299L134.161 378.845C134.161 378.845 133.109 383.851 133 390.921Z" fill="#AA4465"/>
<path fill-rule="evenodd" clip-rule="evenodd" d="M133.489 390.354C133.474 391.379 134.211 392.29 135.244 392.521C139.831 393.55 150.833 395.989 153.911 396.431C157.761 396.983 162.423 395.799 164.305 393.792C164.425 393.664 164.555 393.466 164.497 393.064C164.196 390.979 159.555 387.13 156.462 385.267C153.986 383.775 151.634 381.626 149.559 379.73C147.839 378.159 146.06 376.533 145.32 376.435C144.438 376.317 142.061 378.906 140.461 381.299C140.265 381.591 139.879 381.706 139.547 381.572L134.457 379.513C134.165 381.206 133.568 385.241 133.489 390.354ZM155.885 398C155.143 398 154.407 397.951 153.692 397.849C150.56 397.399 139.512 394.95 134.907 393.918C133.197 393.534 131.975 392.027 132 390.333C132.108 383.415 133.116 378.565 133.159 378.362C133.204 378.152 133.343 377.972 133.541 377.871C133.738 377.771 133.971 377.761 134.177 377.844L139.554 380.019C140.755 378.302 143.503 374.746 145.524 375.014C146.681 375.169 148.127 376.446 150.583 378.69C152.607 380.54 154.902 382.636 157.252 384.052C159.367 385.327 165.511 389.682 165.972 392.865C166.078 393.596 165.883 394.249 165.41 394.753C163.56 396.726 159.659 398 155.885 398Z" fill="#2A2B2E"/>
<path fill-rule="evenodd" clip-rule="evenodd" d="M156.249 397C147.603 397 136.105 391.854 135.455 391.56C135.081 391.391 134.902 390.918 135.055 390.503C135.207 390.09 135.633 389.891 136.008 390.06C136.215 390.154 156.817 399.378 162.779 393.412C163.078 393.113 163.541 393.138 163.812 393.47C164.082 393.803 164.058 394.315 163.759 394.615C162.021 396.353 159.314 397 156.249 397Z" fill="#2A2B2E"/>
<path fill-rule="evenodd" clip-rule="evenodd" d="M147.778 388C147.566 388 147.354 387.907 147.2 387.723C146.913 387.379 146.938 386.848 147.257 386.539L151.701 382.216C152.02 381.906 152.511 381.932 152.8 382.277C153.087 382.621 153.062 383.151 152.743 383.461L148.299 387.784C148.15 387.929 147.963 388 147.778 388Z" fill="#2A2B2E"/>
<path fill-rule="evenodd" clip-rule="evenodd" d="M101.155 270.285C101.155 270.285 98.5919 316.922 97.2506 333.021C95.9097 349.121 100.387 375 100.387 375L113.155 374.325C113.155 374.325 114.03 342.86 114.979 334.122C114.979 334.122 120.372 322.276 121.97 311.712C123.569 301.147 129.014 284.46 129.014 284.46C129.014 284.46 133.435 367.749 133.861 374.292C133.861 374.292 143.873 374.741 147.463 372.47C147.463 372.47 153.823 342.1 152.91 325.577C151.997 309.053 153 268 153 268L101.155 270.285Z" fill="#2A2B2E"/>
<path fill-rule="evenodd" clip-rule="evenodd" d="M111.178 336H106.822C106.368 336 106 335.552 106 335C106 334.447 106.368 334 106.822 334H111.178C111.632 334 112 334.447 112 335C112 335.552 111.632 336 111.178 336Z" fill="white"/>
<path fill-rule="evenodd" clip-rule="evenodd" d="M139.786 360C139.78 360 139.775 360 139.771 360C139.338 359.992 138.992 359.66 139 359.258C139.152 351.589 148.163 337.925 148.546 337.347C148.774 337.004 149.257 336.897 149.627 337.109C149.996 337.319 150.11 337.768 149.883 338.111C149.791 338.249 140.713 352.013 140.57 359.284C140.562 359.682 140.212 360 139.786 360Z" fill="white"/>
<path fill-rule="evenodd" clip-rule="evenodd" d="M157.237 198.926C158.147 198.855 162.611 208.078 176.584 207.691C190.556 207.305 201.766 191.534 201.766 191.534C201.766 191.534 206.592 183.326 210.253 180.359C213.915 177.392 214.49 177 214.49 177C214.49 177 215.638 178.543 214.49 180.359C213.342 182.175 210.172 185.572 210.172 185.572C210.172 185.572 213.664 187.506 212.089 191.534C210.278 196.167 205.173 195.794 205.173 195.794C205.173 195.794 194.813 242.059 152 220.074L157.237 198.926Z" fill="white"/>
<path fill-rule="evenodd" clip-rule="evenodd" d="M152.573 219.882C165.039 226.175 175.899 227.214 184.855 222.963C199.975 215.789 204.604 195.771 204.649 195.57C204.729 195.215 205.048 194.972 205.41 194.999C205.597 195.011 210.053 195.266 211.657 191.156C212.995 187.725 210.17 186.11 210.05 186.043C209.852 185.934 209.717 185.738 209.682 185.513C209.647 185.289 209.716 185.061 209.87 184.895C209.902 184.862 213.034 181.491 214.142 179.735C214.603 179.004 214.59 178.338 214.473 177.868C213.882 178.329 212.816 179.176 210.937 180.703C207.387 183.585 202.594 191.718 202.546 191.8C202.535 191.818 202.524 191.836 202.511 191.853C202.041 192.516 190.831 208.095 176.542 208.491C165.028 208.807 159.596 202.686 157.551 200.38C157.509 200.334 157.468 200.287 157.426 200.24L152.573 219.882ZM173.141 227C166.529 227 159.259 224.974 151.397 220.928C151.095 220.773 150.94 220.428 151.022 220.096L156.304 198.72C156.379 198.413 156.64 198.19 156.952 198.165C157.496 198.122 157.854 198.522 158.633 199.399C160.736 201.771 165.644 207.326 176.502 207.023C189.83 206.653 200.812 191.714 201.313 191.021C201.687 190.387 206.348 182.544 210.027 179.557C213.701 176.573 214.323 176.143 214.347 176.126C214.668 175.907 215.103 175.98 215.336 176.294C215.396 176.374 216.779 178.286 215.367 180.525C214.478 181.935 212.486 184.19 211.5 185.278C212.816 186.385 214.213 188.608 213.009 191.694C211.407 195.802 207.463 196.392 205.929 196.462C205.05 199.916 199.953 217.422 185.473 224.293C181.669 226.098 177.551 227 173.141 227Z" fill="#2A2B2E"/>
<path fill-rule="evenodd" clip-rule="evenodd" d="M85 218.578C85 218.578 89.2814 190.894 104.409 184.083C119.537 177.271 140.003 178.218 145.647 181.62C151.29 185.022 166 200.4 166 200.4L153.002 218.578C153.002 218.578 155.972 267.509 153.623 280.427C153.623 280.427 139.164 282.116 133.031 279.696C126.898 277.277 106.733 273.887 97.0928 278.323L98.8448 216.373L85 218.578Z" fill="#AA4465"/>
<path fill-rule="evenodd" clip-rule="evenodd" d="M110.092 275.718C119.355 275.718 129.343 277.719 133.35 279.282C138.615 281.336 150.474 280.292 153.168 280.021C155.316 266.622 152.468 219.661 152.438 219.182C152.428 219.014 152.476 218.847 152.575 218.71L165.298 201.117C162.835 198.594 150.39 185.963 145.394 182.984C140.104 179.831 119.712 178.737 104.578 185.476C91.5152 191.292 86.6056 213.284 85.6519 218.251L98.5577 216.219C98.7744 216.185 98.9965 216.248 99.1624 216.392C99.3277 216.536 99.42 216.746 99.4136 216.964L97.6835 277.485C101.099 276.209 105.506 275.718 110.092 275.718ZM143.551 282C139.643 282 135.497 281.696 132.808 280.647C126.455 278.168 106.423 275.076 97.22 279.264C96.988 279.37 96.7155 279.349 96.5027 279.209C96.289 279.07 96.1636 278.831 96.171 278.577L97.9081 217.806L84.8567 219.862C84.6232 219.899 84.3858 219.822 84.218 219.657C84.0501 219.491 83.9726 219.257 84.0087 219.025C84.1869 217.884 88.5564 191.001 103.971 184.138C119.07 177.415 139.973 178.041 146.157 181.727C151.856 185.124 166.187 199.912 166.794 200.54C167.041 200.795 167.069 201.187 166.862 201.474L153.932 219.353C154.19 223.609 156.821 268.374 154.532 280.823C154.474 281.139 154.213 281.382 153.89 281.42C153.546 281.459 148.76 282 143.551 282Z" fill="#2A2B2E"/>
<path fill-rule="evenodd" clip-rule="evenodd" d="M110.746 267C110.391 267 110.076 266.747 110.011 266.388C109.94 265.985 110.211 265.601 110.617 265.529C133.784 261.468 140.496 245.623 140.561 245.463C140.715 245.084 141.148 244.9 141.533 245.055C141.916 245.208 142.1 245.64 141.945 246.019C141.877 246.186 134.849 262.785 110.877 266.989C110.833 266.996 110.789 267 110.746 267Z" fill="#2A2B2E"/>
<path fill-rule="evenodd" clip-rule="evenodd" d="M151.936 238H123L132.064 205H161L151.936 238Z" fill="#2A2B2E"/>
<path fill-rule="evenodd" clip-rule="evenodd" d="M89.1701 219.762L103.822 213C103.822 213 101.759 238.633 131.403 226.796C131.403 226.796 130.309 223.502 130.464 219.654C130.618 215.807 132.848 219.53 133.16 222.657C133.472 225.784 140.432 224.515 144.614 223.282C148.797 222.05 154.287 222.857 144.614 228.366C134.942 233.874 132.822 231.417 132.822 231.417C132.822 231.417 120.471 249.263 105.102 245.471C86.1982 240.808 89.1701 219.762 89.1701 219.762Z" fill="white"/>
<path fill-rule="evenodd" clip-rule="evenodd" d="M89.5365 220.134C89.4095 221.473 89.1341 225.932 90.4442 230.723C92.5103 238.281 97.3595 243.071 104.857 244.96C106.252 245.312 107.623 245.471 108.962 245.471C121.667 245.472 131.526 231.16 131.634 230.999C131.761 230.812 131.962 230.696 132.181 230.684C132.395 230.671 132.611 230.765 132.756 230.936C132.762 230.936 134.917 232.722 143.582 227.681C148.521 224.808 148.559 223.698 148.559 223.688C148.327 223.399 146.451 223.217 144.127 223.917C142.143 224.514 135.473 226.321 132.911 224.491C132.285 224.044 131.915 223.401 131.839 222.631C131.69 221.11 131.084 219.593 130.647 218.918C130.625 219.072 130.605 219.275 130.595 219.539C130.449 223.244 131.478 226.476 131.488 226.508C131.613 226.892 131.427 227.313 131.068 227.459C120.891 231.61 113.241 231.75 108.329 227.874C103.245 223.861 102.675 216.807 102.667 213.943L89.5365 220.134ZM109.054 247C107.581 247 106.07 246.825 104.523 246.435C85.3345 241.599 88.1281 219.729 88.1583 219.509C88.1938 219.251 88.3514 219.032 88.576 218.926L103.127 212.066C103.358 211.956 103.628 211.985 103.835 212.139C104.042 212.294 104.157 212.553 104.136 212.82C104.129 212.913 103.484 222.165 109.197 226.666C113.589 230.126 120.563 230.001 129.928 226.296C129.61 225.084 129.042 222.452 129.159 219.477C129.182 218.895 129.251 217.126 130.444 217.088C131.956 217.029 133.082 220.57 133.269 222.476C133.3 222.804 133.438 223.038 133.717 223.236C135.239 224.323 139.844 223.629 143.732 222.46C145.556 221.91 149.193 221.345 149.894 223.138C150.467 224.604 148.734 226.415 144.276 229.008C136.931 233.282 133.703 233.027 132.401 232.449C130.362 235.249 121.083 247 109.054 247Z" fill="#2A2B2E"/>
<path fill-rule="evenodd" clip-rule="evenodd" d="M128.133 173.045C126.834 174.222 124.296 175.66 122.308 174.669C120.829 173.931 120.003 172.02 120.054 169.831C119.369 169.886 118.47 169.838 117.83 169.277C116.843 168.414 117.028 166.826 117.067 165.781C117.245 160.963 114.418 160.224 115.109 156.953C115.653 154.383 117.691 152.852 118.073 152.566C119.997 151.12 121.301 151.586 124.537 150.747C129.982 149.335 130.156 147.011 133.744 147C133.951 147 138.833 147.053 140.491 150.393C141.838 153.109 140.264 156.411 138.637 158.145C136.529 160.392 135.016 159.282 132.901 161.165C129.187 164.472 131.991 169.547 128.133 173.045Z" fill="#2A2B2E"/>
<path fill-rule="evenodd" clip-rule="evenodd" d="M138.719 163.495L138.507 163.307C137.441 162.363 136.329 161.269 136.047 159.853C134.843 153.837 129.47 151.653 129.222 157.177C129.16 158.572 124.197 158.499 124.786 159.963C126.321 163.777 126.356 162.751 124.189 164.157C123.943 164.167 123.7 164.222 123.469 164.333C122.358 164.864 121.965 166.411 122.591 167.789C122.971 168.625 123.64 169.201 124.355 169.41V175.437C124.355 177.696 123.023 179.731 120.984 180.586L119 181.418C119 181.418 128.251 187.612 137.641 180.812L136.387 180.235C134.181 179.22 132.732 177.002 132.656 174.522L132.645 173.343C133.277 173.401 133.889 173.357 134.453 173.189C137.08 172.405 137.952 169.3 137.505 165.441L138.574 164.852C139.074 164.577 139.149 163.874 138.719 163.495Z" fill="white"/>
<path fill-rule="evenodd" clip-rule="evenodd" d="M120.391 180.835C122.968 182.106 129.056 184.242 135.458 180.263L135.432 180.251C133.039 179.143 131.44 176.678 131.357 173.971L131.346 172.794C131.345 172.585 131.428 172.384 131.578 172.242C131.727 172.1 131.923 172.029 132.129 172.048C132.681 172.099 133.186 172.056 133.633 171.922C136.475 171.069 136.308 166.863 136.105 165.094C136.07 164.791 136.218 164.497 136.478 164.353L137.524 163.773C137.533 163.768 137.557 163.754 137.561 163.716C137.566 163.678 137.545 163.659 137.537 163.653L137.33 163.467C136.222 162.482 135.014 161.294 134.688 159.654C133.997 156.177 131.913 154.393 130.723 154.488C129.654 154.574 129.467 156.207 129.436 156.904C129.383 158.097 127.994 158.499 126.651 158.888C126.161 159.03 125.377 159.257 125.092 159.452C125.287 159.936 125.455 160.337 125.596 160.672C126.312 162.373 126.579 163.009 125.063 163.846C124.827 163.976 124.533 164.138 124.178 164.37C124.072 164.439 123.95 164.479 123.824 164.484C123.668 164.491 123.524 164.526 123.396 164.588C122.668 164.937 122.439 166.021 122.883 167.005C123.151 167.598 123.626 168.045 124.154 168.201C124.463 168.291 124.675 168.583 124.675 168.914V174.849C124.675 177.386 123.206 179.646 120.931 180.607L120.391 180.835ZM127.673 184C122.338 184 118.387 181.401 118.325 181.36C118.102 181.209 117.978 180.943 118.003 180.668C118.028 180.393 118.199 180.156 118.447 180.051L120.387 179.232C122.119 178.501 123.237 176.78 123.237 174.849V169.421C122.53 169.064 121.942 168.434 121.579 167.632C120.801 165.907 121.342 163.937 122.787 163.242C123.028 163.125 123.289 163.05 123.561 163.017C123.894 162.807 124.174 162.653 124.385 162.536C124.498 162.474 124.621 162.406 124.707 162.353C124.641 162.13 124.463 161.706 124.277 161.263C124.122 160.894 123.934 160.446 123.714 159.896C123.571 159.539 123.577 159.176 123.733 158.847C124.092 158.087 125.097 157.796 126.263 157.458C126.802 157.302 127.789 157.017 128.002 156.78C128.17 153.463 130.039 153.054 130.61 153.008C132.624 152.845 135.276 155.227 136.097 159.356C136.332 160.538 137.341 161.517 138.269 162.343L138.476 162.528C138.853 162.864 139.045 163.368 138.991 163.878C138.936 164.389 138.643 164.838 138.205 165.081L137.584 165.425C137.956 169.68 136.675 172.554 134.035 173.348C133.644 173.465 133.228 173.533 132.792 173.549L132.795 173.941C132.86 176.067 134.126 178.019 136.02 178.896L137.246 179.464C137.482 179.573 137.643 179.804 137.668 180.069C137.693 180.335 137.577 180.594 137.367 180.748C133.995 183.206 130.623 184 127.673 184Z" fill="#2A2B2E"/>
<path fill-rule="evenodd" clip-rule="evenodd" d="M133.239 175C133.2 175 133.162 174.997 133.123 174.991C129.027 174.37 127.178 171.262 127.101 171.13C126.892 170.769 127.017 170.308 127.382 170.1C127.746 169.893 128.211 170.017 128.422 170.377C128.493 170.496 130.012 172.993 133.354 173.5C133.769 173.564 134.055 173.948 133.991 174.36C133.934 174.733 133.609 175 133.239 175Z" fill="#2A2B2E"/>
<path fill-rule="evenodd" clip-rule="evenodd" d="M9.54262 243C8.5847 246.027 7.08281 250.214 8.74601 252.224C11.7677 255.877 14.2746 255.291 18.005 254.034C25.4649 251.522 37.3698 247.553 40.8456 249.759L41 243H9.54262Z" fill="#C9CEBD"/>
<path fill-rule="evenodd" clip-rule="evenodd" d="M16 372L13.2599 388H7.33038L7 372.264L16 372Z" fill="white"/>
<path fill-rule="evenodd" clip-rule="evenodd" d="M8.86397 387.559H12.9686L15.3072 372.471L8.58165 372.689L8.86397 387.559ZM13.6488 389H8.09334C7.66567 389 7.31695 388.685 7.3091 388.292L7.00012 372.006C6.9928 371.614 7.32897 371.288 7.75664 371.274L16.1882 371.001C16.4151 370.991 16.6436 371.08 16.7988 371.239C16.9541 371.398 17.0247 371.611 16.9923 371.823L14.4257 388.381C14.3703 388.736 14.0394 389 13.6488 389Z" fill="#2A2B2E"/>
<path fill-rule="evenodd" clip-rule="evenodd" d="M13.7686 403.783C11.4187 404.045 7.57345 404.214 3.09081 403.412C1.62187 403.148 0.690953 401.627 1.09447 400.135C2.15527 396.215 3.87382 388.508 6.62358 384.639C6.84822 384.322 7.31922 384.373 7.48747 384.726L8.35645 386.546L9.31556 384.446C9.46162 384.193 9.71446 384.028 9.99688 384L12.3158 384.038C12.7781 383.994 13.1964 384.325 13.2768 384.801L13.5722 386.546L14.6464 385.129C14.9417 384.74 15.544 384.947 15.5574 385.443L15.9877 400.935C16.1223 402.356 15.1345 403.63 13.7686 403.783Z" fill="white"/>
<mask id="mask1_0:6980" style="mask-type:alpha" maskUnits="userSpaceOnUse" x="0" y="383" width="17" height="22">
<path fill-rule="evenodd" clip-rule="evenodd" d="M0 383H17V405H0V383Z" fill="white"/>
</mask>
<g mask="url(#mask1_0:6980)">
<path fill-rule="evenodd" clip-rule="evenodd" d="M6.94446 385.103C4.66453 388.478 3.06944 394.564 2.00429 398.627C1.82541 399.31 1.66043 399.939 1.50888 400.495C1.36261 401.028 1.44078 401.58 1.72853 402.048C2.0182 402.52 2.47332 402.832 3.00949 402.927C7.53578 403.729 11.4252 403.573 13.8888 403.302C14.9074 403.189 15.6532 402.241 15.552 401.187C15.5505 401.17 15.5496 401.153 15.5491 401.136L15.1184 385.779L14.3276 386.81C14.1521 387.039 13.861 387.14 13.5871 387.069C13.3119 386.998 13.1032 386.767 13.0538 386.48L12.7474 384.69C12.7287 384.582 12.6294 384.504 12.5263 384.516C12.4999 384.518 12.4736 384.519 12.4481 384.518L10.0944 384.48C10.0474 384.491 10.0047 384.519 9.97493 384.558L8.99994 386.669C8.88197 386.925 8.63211 387.089 8.35635 387.091C8.05709 387.096 7.82881 386.934 7.70603 386.681L6.94446 385.103ZM9.80324 405C7.75064 405 5.35848 404.844 2.76491 404.385C1.83596 404.22 1.01443 403.657 0.511832 402.838C0.0111485 402.023 -0.130328 401.023 0.123371 400.094C0.274439 399.543 0.437976 398.919 0.615421 398.243C1.73764 393.961 3.43296 387.492 5.97474 383.955C6.23228 383.596 6.64568 383.405 7.0797 383.445C7.519 383.485 7.89787 383.75 8.09354 384.156L8.3362 384.659L8.69589 383.88C8.70596 383.859 8.71651 383.838 8.72898 383.817C8.99659 383.357 9.46706 383.053 9.98644 383.003C10.0119 383.001 10.0392 382.999 10.0641 383L12.4371 383.039C13.2572 382.984 14.0192 383.587 14.1646 384.432L14.1924 384.597L14.3123 384.441C14.6417 384.012 15.1813 383.844 15.6848 384.016C16.1894 384.188 16.526 384.652 16.5414 385.198L16.9864 401.069C17.149 402.917 15.8335 404.575 14.0427 404.772C12.8999 404.898 11.4626 405 9.80324 405Z" fill="#2A2B2E"/>
</g>
<path fill-rule="evenodd" clip-rule="evenodd" d="M8.24103 402C6.46927 402 4.48702 401.833 2.5225 401.334C2.14817 401.238 1.92507 400.868 2.02308 400.506C2.12156 400.144 2.50569 399.927 2.87815 400.023C8.30217 401.403 14.0725 400.034 14.1295 400.02C14.5061 399.93 14.8846 400.151 14.9789 400.513C15.0727 400.877 14.8445 401.244 14.4697 401.335C14.3049 401.376 11.6697 402 8.24103 402Z" fill="#2A2B2E"/>
<path fill-rule="evenodd" clip-rule="evenodd" d="M13.1664 395H6.83362C6.37346 395 6 394.552 6 394C6 393.447 6.37346 393 6.83362 393H13.1664C13.6265 393 14 393.447 14 394C14 394.552 13.6265 395 13.1664 395Z" fill="#2A2B2E"/>
<path fill-rule="evenodd" clip-rule="evenodd" d="M60 371.657L62.2809 391.272L71 393L70.4695 370L60 371.657Z" fill="white"/>
<path fill-rule="evenodd" clip-rule="evenodd" d="M63.5987 390.99L70.499 392.392L70.0307 371.564L61.5526 372.941L63.5987 390.99ZM71.2596 394C71.2092 394 71.1584 393.995 71.108 393.985L62.7696 392.289C62.4568 392.226 62.2209 391.974 62.1858 391.665L60.0045 372.423C59.9616 372.044 60.231 371.698 60.6184 371.635L70.6303 370.01C70.842 369.975 71.0587 370.032 71.2245 370.165C71.3898 370.298 71.4876 370.494 71.4925 370.703L71.9998 393.265C72.0048 393.485 71.9065 393.694 71.7323 393.834C71.5986 393.942 71.4308 394 71.2596 394Z" fill="#2A2B2E"/>
<path fill-rule="evenodd" clip-rule="evenodd" d="M58.0446 400.268C57.9233 397.809 57.9555 393.428 59.3873 390.409C59.7406 389.664 60.6611 389.296 61.495 389.569L66.9505 391.351V390.017C66.9505 389.588 67.2846 389.234 67.7109 389.212L71.5046 389.012C72.9203 388.938 74.331 389.206 75.6244 389.789C79.5308 391.551 87.8091 395.702 89.8448 400.049C90.3481 401.124 89.5725 402.337 88.3073 402.488C84.7804 402.907 76.2409 403.484 60.1578 402.278C59.0023 402.191 58.0969 401.331 58.0446 400.268Z" fill="white"/>
<path fill-rule="evenodd" clip-rule="evenodd" d="M60.6317 389.938C60.2768 389.938 59.9398 390.14 59.7911 390.472C58.4301 393.503 58.4162 397.997 58.5292 400.406C58.5634 401.147 59.1651 401.75 59.9279 401.811C75.5736 403.05 83.9143 402.482 87.4932 402.032C87.8609 401.986 88.1771 401.781 88.361 401.469C88.5394 401.167 88.5608 400.811 88.42 400.494C86.4881 396.138 78.2316 391.835 74.7707 390.187C73.6144 389.636 72.3411 389.382 71.0843 389.451L67.3483 389.659C67.3389 389.664 67.3007 389.704 67.3007 389.778V391.164C67.3007 391.398 67.1832 391.618 66.9855 391.752C66.7882 391.887 66.5345 391.921 66.308 391.842L60.935 389.989C60.8349 389.955 60.7323 389.938 60.6317 389.938ZM76.8765 404C72.5151 404 66.9017 403.808 59.8069 403.246C58.2998 403.127 57.1118 401.933 57.0444 400.471C56.9249 397.937 56.9467 393.194 58.4271 389.898C58.9282 388.78 60.2505 388.225 61.4336 388.633L65.8138 390.143V389.778C65.8138 388.95 66.4502 388.266 67.263 388.221L70.999 388.013C72.5072 387.93 74.0401 388.234 75.4274 388.895C79.9092 391.029 87.7351 395.301 89.7859 399.926C90.112 400.662 90.064 401.484 89.6526 402.182C89.2363 402.89 88.5186 403.356 87.684 403.46C85.6822 403.711 82.2183 404 76.8765 404Z" fill="#2A2B2E"/>
<path fill-rule="evenodd" clip-rule="evenodd" d="M73.6696 401C69.9403 401 65.5053 400.832 60.6438 400.319C60.2446 400.277 59.9584 399.949 60.005 399.585C60.0515 399.223 60.4105 398.963 60.8117 399.004C74.7203 400.471 85.0612 399.086 85.1635 399.072C85.5608 399.017 85.9314 399.266 85.9916 399.627C86.0522 399.988 85.7791 400.325 85.3823 400.38C85.3134 400.39 80.7687 401 73.6696 401Z" fill="#2A2B2E"/>
<path fill-rule="evenodd" clip-rule="evenodd" d="M78.25 397C78.0982 397 77.9458 396.948 77.8129 396.84L71.3117 391.539C70.9755 391.265 70.8995 390.734 71.1414 390.354C71.3832 389.972 71.8508 389.886 72.187 390.16L78.6882 395.461C79.0244 395.735 79.1003 396.266 78.859 396.647C78.7127 396.878 78.4828 397 78.25 397Z" fill="#2A2B2E"/>
<path fill-rule="evenodd" clip-rule="evenodd" d="M63.3581 245.816C63.3581 245.816 74.8712 321.724 72.7359 375.63C72.6894 376.801 71.7325 377.732 70.5556 377.763L61.3847 377.999C60.2792 378.027 59.3189 377.252 59.1227 376.168C56.937 364.114 44.7205 297.793 38.3127 285.417C38.3127 285.417 20.176 351.949 18.4091 373.99C18.319 375.113 17.4165 375.997 16.2879 376.068C14.1277 376.205 10.6613 376.328 8.13757 375.958C7.10196 375.806 6.30801 374.959 6.21262 373.921C4.51513 355.478 4.10324 338.606 4.0142 326.563C3.75298 291.085 7.15822 274.969 9.02545 267.324C10.7396 260.304 12.5789 254.6 13.9222 250.74L18.4086 238L63.3581 245.816Z" fill="#2A2B2E"/>
<path fill-rule="evenodd" clip-rule="evenodd" d="M37.7576 289C37.692 289 37.6249 288.992 37.5587 288.975C37.1555 288.872 36.9168 288.482 37.0268 288.102L39.309 280.197C39.9545 277.756 41.5604 276.104 43.8275 275.558L46.0547 275.022C46.46 274.925 46.8723 275.155 46.9763 275.535C47.0797 275.916 46.8354 276.304 46.4307 276.401L44.203 276.937C42.0212 277.461 41.134 279.195 40.7746 280.555L38.4874 288.475C38.3965 288.792 38.0907 289 37.7576 289Z" fill="#E6E8E6"/>
<path fill-rule="evenodd" clip-rule="evenodd" d="M53.1298 175C59.201 174.972 64.7479 178.436 67.4042 183.909C70.4811 190.25 74.8244 206.844 74.9941 214.092C75.2898 226.76 64.2951 227.473 63.9688 227.492C63.9644 227.492 63.9615 227.495 63.962 227.5C63.9965 227.866 65.2809 241.63 65.3825 244.074C65.5683 248.542 57.3554 255.516 47.9227 252.08C38.5373 248.663 12.8966 241.853 10.2924 247.651C10.2885 247.66 10.2773 247.656 10.2798 247.646L21.0362 207.373C21.0376 207.367 21.0337 207.363 21.0284 207.364L12.1993 207.794C12.1978 207.794 12.1964 207.793 12.1949 207.793L5.0037 203.596C5.00079 203.594 4.99933 203.591 5.0003 203.587L6.82108 195.448C10.2807 181.539 19.5354 175.158 31.4794 175.102L53.1298 175Z" fill="#AA4465"/>
<path fill-rule="evenodd" clip-rule="evenodd" d="M24.9132 205.924C23.2381 205.582 23.6962 203.439 17.8117 203.052C0.83043 201.934 9.05972 192.416 18.7884 194.229C22.0122 194.83 23.2801 197.133 24.4932 197.717C34.6715 202.62 28.2525 206.605 24.9132 205.924Z" fill="white"/>
<path fill-rule="evenodd" clip-rule="evenodd" d="M16.8922 195.445C13.6511 195.445 10.8558 196.574 9.82716 197.902C9.26017 198.634 9.47768 199.107 9.54971 199.263C9.79188 199.789 11.1444 201.539 18.3776 201.967C22.4906 202.21 23.6691 203.226 24.529 203.968C24.9089 204.296 25.0907 204.443 25.4218 204.504C26.8709 204.77 29.1534 204.019 29.5029 202.888C29.863 201.722 28.0262 200.138 24.5894 198.651C24.1114 198.445 23.6826 198.089 23.1867 197.677C22.2649 196.912 21.1173 195.96 19.1703 195.634C18.3984 195.505 17.6337 195.445 16.8922 195.445ZM26.1043 206C25.7785 206 25.4609 205.973 25.1588 205.918C24.4236 205.783 23.9934 205.412 23.5772 205.053C22.8744 204.446 21.9115 203.616 18.292 203.402C12.622 203.067 9.14271 201.842 8.2301 199.859C7.81004 198.947 7.96859 197.941 8.67722 197.026C10.2085 195.049 14.4917 193.392 19.412 194.217C21.7467 194.607 23.1171 195.745 24.1176 196.575C24.528 196.915 24.8819 197.21 25.169 197.334C30.6852 199.72 31.3243 201.9 30.8892 203.309C30.3715 204.986 28.1006 206 26.1043 206Z" fill="#2A2B2E"/>
<path fill-rule="evenodd" clip-rule="evenodd" d="M45.7105 175.014C46.2668 174.553 45.9724 173.67 45.2434 173.585L44.1123 173.453C42.8963 173.311 41.8821 172.527 41.4868 171.443L39.6228 158.1L35.7997 159.425L30.7412 157L31.1933 171.259C31.1569 172.502 30.3207 173.6 29.0838 174.029L27.6054 174.541C26.8274 174.811 26.7906 175.833 27.5453 176.152C30.5554 177.424 42.793 177.433 45.7105 175.014Z" fill="white"/>
<path fill-rule="evenodd" clip-rule="evenodd" d="M31.116 157.911L31.5219 171.364C31.4773 172.995 30.4829 174.372 28.9886 174.918L27.5427 175.444C27.4658 175.472 27.4255 175.524 27.4227 175.597C27.4189 175.705 27.5014 175.741 27.5284 175.754C30.4848 177.067 42.0124 176.904 44.5419 174.697C44.5419 174.697 44.5424 174.697 44.5424 174.697C44.559 174.682 44.5898 174.655 44.5704 174.591C44.5542 174.537 44.5182 174.505 44.4632 174.499L43.3568 174.363C41.8948 174.183 40.6869 173.208 40.2046 171.818C40.1885 171.771 40.1766 171.723 40.1705 171.673L38.4651 158.84L35.5543 159.901C35.3736 159.967 35.173 159.955 34.9995 159.868L31.116 157.911ZM34.4508 178C31.2175 178 28.2445 177.653 26.9594 177.082C26.3552 176.814 25.9786 176.211 26.0009 175.548C26.0232 174.883 26.4405 174.306 27.0637 174.078L28.5091 173.552C29.4476 173.209 30.0722 172.351 30.1002 171.366L29.6577 156.747C29.6497 156.493 29.7739 156.253 29.984 156.115C30.1936 155.977 30.4606 155.962 30.684 156.075L35.3599 158.432L38.8127 157.173C39.0152 157.1 39.2391 157.123 39.4221 157.237C39.6052 157.35 39.7285 157.542 39.7574 157.759L41.5694 171.4C41.8853 172.232 42.6289 172.813 43.5271 172.923L44.633 173.059C45.2442 173.134 45.754 173.57 45.9324 174.171C46.1102 174.77 45.9314 175.394 45.4667 175.799C43.6693 177.367 38.8217 178 34.4508 178Z" fill="#2A2B2E"/>
<path fill-rule="evenodd" clip-rule="evenodd" d="M41.2689 148.04C47.7611 150.434 46.6446 154.64 46.6446 154.64C46.5634 155.797 46.517 157.915 46.7325 158.683C46.9099 159.317 47.9472 160.509 47.997 160.861C48.0467 161.214 47.4851 161.936 46.3609 162.192C46.3609 162.192 45.9341 167.813 44.4623 168.734C42.991 169.655 37.3234 167.888 37.3234 167.888L36.3693 167.505C33.2991 166.272 31.4218 163.708 30.5276 160.535C30.5276 160.535 26.3936 142.557 41.2689 148.04Z" fill="white"/>
<path fill-rule="evenodd" clip-rule="evenodd" d="M38.101 167.422C40.6103 168.238 43.7474 168.827 44.4622 168.359C45.1401 167.914 45.7973 164.834 45.9847 162.236C46.0083 161.911 46.2312 161.64 46.5338 161.568C47.0984 161.433 47.4213 161.151 47.5427 160.987C47.4553 160.835 47.3047 160.604 47.1957 160.437C46.8525 159.912 46.497 159.368 46.3728 158.901C46.0532 157.706 46.26 154.542 46.2623 154.51C46.2656 154.463 46.2732 154.416 46.2845 154.371C46.3176 154.227 47.08 150.67 41.4733 148.504C37.8229 147.093 35.1404 147.147 33.5008 148.661C30.0818 151.819 31.8971 160.343 31.916 160.429C32.7842 163.656 34.6131 165.955 37.196 167.041L38.101 167.422ZM43.4476 170C41.4275 170 38.6638 169.163 37.653 168.832C37.6351 168.826 37.6176 168.82 37.5996 168.813L36.6686 168.421C33.6632 167.156 31.5449 164.52 30.5445 160.797C30.4515 160.378 28.513 151.291 32.5632 147.548C34.6235 145.643 37.7866 145.496 41.9628 147.109C48.3023 149.558 47.7971 153.958 47.672 154.658C47.5804 156.066 47.5842 157.931 47.7362 158.5C47.7976 158.73 48.1385 159.252 48.3637 159.597C48.7461 160.182 48.9472 160.502 48.9906 160.826C49.0832 161.512 48.4874 162.412 47.3562 162.858C47.1919 164.682 46.6707 168.663 45.2124 169.62C44.7945 169.893 44.1685 170 43.4476 170Z" fill="#2A2B2E"/>
<path fill-rule="evenodd" clip-rule="evenodd" d="M39.4966 144.195C41.2441 144.606 42.9531 145.657 43.8565 145.751C45.3135 145.901 46.3645 144.099 48.2051 144.753C49.8225 145.328 50.7314 146.655 50.9621 148.15C51.0007 148.399 51.0116 148.663 50.9864 148.945C50.6448 152.726 48.1893 153.529 47.1918 153.7C47.1918 153.7 41.4184 153.186 40.2921 153.449C39.2386 153.695 37.6104 155.274 37.1203 157.52C37.0569 157.809 36.7945 158.021 36.4866 158.043C36.1252 158.069 35.799 157.83 35.7376 157.488C35.545 156.41 35.0173 154.255 33.8816 154.192C32.5563 154.118 30.8692 156.641 32.6014 158.222C33.1345 158.709 32.9573 159.596 32.2746 159.861C31.7078 160.081 30.9969 160.095 30.2281 159.494C30.2281 159.494 26.8102 153.721 28.4409 148.848C30.0711 143.974 37.1708 143.648 39.4966 144.195Z" fill="#2A2B2E"/>
<path fill-rule="evenodd" clip-rule="evenodd" d="M48.4068 161C48.2074 161 48.0079 160.914 47.861 160.747C47.5817 160.426 47.599 159.925 47.9002 159.627C48.1582 159.373 48.4574 158.65 48.5051 157.663C48.5636 156.465 48.2267 155.739 48.053 155.596C47.929 155.684 47.6263 156.094 47.4755 156.937C47.3986 157.367 47.0056 157.647 46.6052 157.567C46.2013 157.485 45.9364 157.07 46.0133 156.641C46.3095 154.984 47.1351 153.951 48.1295 154.002C48.5036 154.022 49.1992 154.226 49.6522 155.366C49.9137 156.024 50.0343 156.869 49.9916 157.745C49.9281 159.047 49.5252 160.185 48.9134 160.789C48.7695 160.93 48.5879 161 48.4068 161Z" fill="#2A2B2E"/>
<path fill-rule="evenodd" clip-rule="evenodd" d="M42.51 157.45C42.4789 158.043 42.5933 158.62 42.8251 159.032C42.9911 159.328 43.2038 159.511 43.3934 159.52C43.8173 159.536 44.4252 158.783 44.4899 157.549C44.5215 156.957 44.4067 156.381 44.1749 155.968C44.0089 155.672 43.7967 155.489 43.6071 155.48C43.6021 155.479 43.5966 155.479 43.591 155.479C43.1872 155.479 42.5742 156.233 42.51 157.45ZM43.412 161C43.3804 161 43.3488 160.999 43.3161 160.998C42.5923 160.961 41.9327 160.505 41.5068 159.746C41.1386 159.089 40.961 158.247 41.0072 157.374C41.1105 155.413 42.2678 153.936 43.6843 154.002C44.4082 154.039 45.0678 154.495 45.4932 155.253C45.8619 155.911 46.039 156.753 45.9928 157.626C45.8925 159.542 44.7678 161 43.412 161Z" fill="#2A2B2E"/>
<path fill-rule="evenodd" clip-rule="evenodd" d="M41.2422 156C41.2195 156 41.1967 155.999 41.1735 155.997L34.6915 155.444C34.2742 155.408 33.9656 155.057 34.0031 154.659C34.041 154.261 34.4032 153.968 34.8265 154.003L41.309 154.556C41.7263 154.592 42.0343 154.944 41.9969 155.341C41.9615 155.717 41.6307 156 41.2422 156Z" fill="#2A2B2E"/>
<path fill-rule="evenodd" clip-rule="evenodd" d="M33 183.761C33 183.761 35.26 187.597 37.2953 186.92C38.3655 186.564 39.409 182.78 39.8361 182.646C41.2002 182.216 43.7989 181.514 45.3949 178.429C46.8854 175.548 46.5603 174.009 46.1766 173.302C45.9991 172.976 46.0018 172.572 46.1984 172.259C46.4833 171.803 46.7595 171.115 46.4719 170.406C46.3709 170.157 46.3805 169.871 46.4796 169.622C46.8583 168.668 47.5594 166.472 46.1961 166.039C45.827 165.923 45.4276 166.072 45.2025 166.407C44.7699 167.054 43.8669 168.271 42.7496 169.039C41.1708 170.126 40.2242 170.87 39.4312 171.359C38.7509 171.779 38.3931 168.108 36.7595 166.729C35.3102 165.505 34.8161 166.124 34.6712 166.699C34.5263 167.274 35.4239 167.503 35.9352 170.239C36.5349 173.441 35.9085 176.135 35.7269 177.576C35.5136 179.267 33 183.761 33 183.761Z" fill="white"/>
<path fill-rule="evenodd" clip-rule="evenodd" d="M33.5475 184.081C34.2685 185.093 35.8256 186.872 36.9755 186.513C37.3723 186.358 38.1032 184.759 38.4155 184.076C38.9199 182.972 39.1506 182.468 39.6319 182.325L39.8122 182.272C41.2107 181.862 43.5506 181.177 45.0043 178.537C46.4609 175.89 46.0636 174.645 45.8253 174.233C45.5021 173.675 45.5205 172.972 45.872 172.443C46.157 172.016 46.232 171.639 46.0952 171.322C45.9154 170.905 45.9173 170.416 46.1009 169.981C46.5326 168.959 46.6945 168.045 46.5128 167.652C46.4774 167.576 46.4222 167.498 46.2571 167.449C46.1589 167.42 46.0532 167.458 45.9947 167.541C45.5078 168.223 44.5046 169.488 43.2458 170.302C42.5333 170.764 41.9454 171.161 41.44 171.502C40.7728 171.953 40.2458 172.31 39.7588 172.592C39.5196 172.73 39.2469 172.757 38.9945 172.666C38.441 172.467 38.1937 171.825 37.8191 170.854C37.4539 169.906 36.9533 168.607 36.1894 168.001C35.4717 167.431 35.1905 167.46 35.174 167.462C35.174 167.462 35.174 167.474 35.1617 167.505C35.1924 167.557 35.2386 167.628 35.2782 167.689C35.5897 168.169 36.1101 168.97 36.4602 170.727C37.0094 173.485 36.623 175.838 36.3672 177.394C36.3215 177.676 36.28 177.929 36.2498 178.151C36.0483 179.655 34.2322 182.899 33.5475 184.081ZM36.6607 188C34.3808 188 32.3556 184.886 32.1112 184.495C31.9664 184.264 31.9626 183.97 32.1023 183.735C32.8096 182.546 34.6818 179.191 34.8474 177.956C34.8786 177.722 34.9225 177.455 34.9711 177.158C35.2098 175.705 35.5698 173.51 35.073 171.012C34.7776 169.53 34.3681 168.9 34.0972 168.482C33.8745 168.14 33.6225 167.752 33.7665 167.215C33.9174 166.652 34.2595 166.255 34.729 166.096C35.3707 165.879 36.1332 166.131 37.0604 166.866C38.13 167.714 38.7123 169.225 39.1374 170.329C39.2327 170.575 39.3493 170.879 39.4498 171.103C39.8004 170.882 40.1934 170.616 40.6568 170.303C41.1682 169.958 41.7642 169.555 42.4861 169.088C43.5468 168.402 44.4216 167.295 44.8486 166.696C45.2582 166.12 45.9867 165.868 46.6553 166.068C47.1781 166.224 47.5716 166.56 47.7934 167.039C48.2652 168.058 47.8406 169.511 47.4013 170.55C47.3725 170.619 47.3687 170.691 47.3914 170.743C47.7268 171.521 47.6037 172.411 47.0436 173.25C46.9964 173.322 46.9969 173.419 47.0455 173.503C47.5952 174.454 47.9014 176.22 46.2391 179.24C44.5018 182.396 41.7061 183.215 40.2043 183.655L40.1977 183.657C40.0736 183.864 39.8608 184.329 39.6994 184.683C38.9232 186.38 38.3037 187.604 37.3911 187.889C37.1467 187.965 36.9023 188 36.6607 188Z" fill="#2A2B2E"/>
<path fill-rule="evenodd" clip-rule="evenodd" d="M40 184.726L32.7187 180C32.7187 180 22.875 196.21 15.4202 201.712C11.7911 204.39 4.75067 201.241 4.75067 201.241C4.75067 201.241 -2.00933 227.698 11.038 231.48C32.7717 237.781 40 184.726 40 184.726Z" fill="#AA4465"/>
<path fill-rule="evenodd" clip-rule="evenodd" d="M61.7015 226C53.081 226 41.0472 220.054 32.3032 214.217C31.9696 213.994 31.9007 213.571 32.1494 213.272C32.3986 212.972 32.8699 212.911 33.204 213.134C41.8666 218.917 54.9133 225.385 63.165 224.581C63.578 224.54 63.9513 224.809 63.9955 225.18C64.0407 225.55 63.7418 225.884 63.3278 225.924C62.8012 225.975 62.2581 226 61.7015 226Z" fill="#E6E8E6"/>
<path fill-rule="evenodd" clip-rule="evenodd" d="M50.8654 207C46.2121 207 37.804 202.958 37.4122 202.768C37.0534 202.594 36.8996 202.155 37.0687 201.786C37.2383 201.417 37.6661 201.26 38.0249 201.433C40.8497 202.8 48.8405 206.182 51.8551 205.423C57.8268 203.921 56.4352 196.207 56.3729 195.879C56.2972 195.479 56.5516 195.092 56.941 195.014C57.3262 194.936 57.7075 195.197 57.7837 195.597C58.4007 198.85 58.0275 205.39 52.1967 206.856C51.8043 206.955 51.355 207 50.8654 207Z" fill="#E6E8E6"/>
<path fill-rule="evenodd" clip-rule="evenodd" d="M14.716 203C14.4979 203 14.2827 202.898 14.1425 202.706C13.9058 202.381 13.9707 201.921 14.287 201.679C21.9875 195.78 31.5754 179.519 31.6713 179.355C31.875 179.008 32.3159 178.897 32.6532 179.105C32.9919 179.314 33.1012 179.764 32.8975 180.111C32.5 180.789 23.0701 196.782 15.1439 202.854C15.0156 202.953 14.8648 203 14.716 203Z" fill="#E6E8E6"/>
<path fill-rule="evenodd" clip-rule="evenodd" d="M13.5973 233C13.2941 233 12.9894 232.987 12.6813 232.961C12.2712 232.926 11.9675 232.57 12.0028 232.165C12.0376 231.761 12.4014 231.461 12.8095 231.496C29.2517 232.897 38.3985 190.208 39.4249 185.142L36.5788 183.356C36.2313 183.137 36.1294 182.683 36.3501 182.34C36.5718 181.997 37.0326 181.897 37.38 182.115L40.6552 184.171C40.9116 184.332 41.0434 184.631 40.9872 184.926C40.6109 186.919 31.6937 233 13.5973 233Z" fill="#E6E8E6"/>
<path fill-rule="evenodd" clip-rule="evenodd" d="M211.036 152C210.514 152 210.085 151.687 210.073 151.294L210 148.737C209.989 148.339 210.411 148.008 210.942 148H210.964C211.486 148 211.915 148.313 211.927 148.706L212 151.263C212.011 151.661 211.589 151.991 211.057 152H211.036Z" fill="#2A2B2E"/>
<path fill-rule="evenodd" clip-rule="evenodd" d="M211.036 160C210.514 160 210.085 159.687 210.073 159.294L210 156.737C209.989 156.339 210.411 156.009 210.942 156H210.964C211.486 156 211.915 156.313 211.927 156.705L212 159.263C212.011 159.661 211.589 159.991 211.057 160C211.05 160 211.044 160 211.036 160Z" fill="#2A2B2E"/>
<path fill-rule="evenodd" clip-rule="evenodd" d="M204.728 156C204.329 156 204.003 155.563 204 155.022C203.997 154.477 204.32 154.032 204.722 154.028L207.266 154H207.272C207.671 154 207.997 154.437 208 154.978C208.003 155.523 207.68 155.968 207.278 155.972L204.734 156H204.728Z" fill="#2A2B2E"/>
<path fill-rule="evenodd" clip-rule="evenodd" d="M214.728 156C214.329 156 214.003 155.563 214 155.022C213.997 154.477 214.32 154.032 214.722 154.027L217.266 154C217.661 153.986 217.997 154.434 218 154.979C218.003 155.523 217.68 155.969 217.278 155.973L214.734 156H214.728Z" fill="#2A2B2E"/>
<path fill-rule="evenodd" clip-rule="evenodd" d="M361.036 30C360.514 30 360.085 29.6869 360.073 29.2941L360 26.7367C359.989 26.3385 360.411 26.0087 360.942 26H360.964C361.486 26 361.915 26.3131 361.927 26.7055L362 29.2633C362.011 29.6615 361.589 29.9913 361.057 30C361.05 30 361.044 30 361.036 30Z" fill="#2A2B2E"/>
<path fill-rule="evenodd" clip-rule="evenodd" d="M362.036 38C361.514 38 361.085 37.6874 361.073 37.2941L361 34.7367C360.989 34.3385 361.411 34.0087 361.942 34.0005C361.949 34 361.956 34 361.964 34C362.486 34 362.915 34.3131 362.927 34.7059L363 37.2633C363.011 37.6615 362.589 37.9913 362.057 38H362.036Z" fill="#2A2B2E"/>
<path fill-rule="evenodd" clip-rule="evenodd" d="M355.728 34C355.329 34 355.003 33.5635 355 33.0218C354.997 32.4775 355.32 32.0324 355.722 32.0278L358.266 32.0002C358.687 31.9884 358.997 32.4348 359 32.9791C359.003 33.5234 358.68 33.9684 358.278 33.9724L355.734 34H355.728Z" fill="#2A2B2E"/>
<path fill-rule="evenodd" clip-rule="evenodd" d="M364.728 34C364.329 34 364.003 33.5634 364 33.0217C363.997 32.4767 364.32 32.0316 364.722 32.0276L367.266 32H367.272C367.671 32 367.997 32.4366 368 32.979C368.003 33.5233 367.68 33.9684 367.278 33.9724L364.734 34H364.728Z" fill="#2A2B2E"/>
<path fill-rule="evenodd" clip-rule="evenodd" d="M230.33 381C220.322 381 210.356 380.045 200.595 378.146C200.198 378.069 199.937 377.679 200.013 377.275C200.089 376.871 200.477 376.607 200.869 376.684C213.368 379.115 226.207 379.984 239.035 379.268C269.844 377.547 299.167 366.786 323.832 348.147C324.156 347.902 324.616 347.971 324.856 348.301C325.097 348.631 325.029 349.097 324.704 349.342C299.808 368.156 270.212 379.018 239.115 380.755C236.187 380.918 233.256 381 230.33 381Z" fill="#2A2B2E"/>
<path fill-rule="evenodd" clip-rule="evenodd" d="M324.751 349C324.522 349 324.295 348.9 324.148 348.709C323.901 348.39 323.97 347.939 324.303 347.702C325.471 346.872 326.642 346.015 327.786 345.154C328.111 344.908 328.583 344.963 328.84 345.275C329.096 345.587 329.039 346.039 328.713 346.285C327.559 347.154 326.377 348.02 325.199 348.858C325.064 348.954 324.907 349 324.751 349Z" fill="#2A2B2E"/>
<path fill-rule="evenodd" clip-rule="evenodd" d="M232.73 392C232.33 392 232.003 391.677 232 391.278C231.997 390.876 232.322 390.548 232.725 390.545C273.302 390.252 312.752 376.266 343.81 351.162C344.123 350.91 344.583 350.957 344.837 351.269C345.091 351.581 345.043 352.04 344.73 352.293C329.344 364.729 312.056 374.464 293.348 381.227C273.988 388.225 253.595 391.85 232.735 392H232.73Z" fill="#2A2B2E"/>
<path fill-rule="evenodd" clip-rule="evenodd" d="M219.243 393.228L224.071 395.764L223.001 390.221L219.243 393.228ZM225.184 398C225.047 398 224.911 397.968 224.786 397.902L217.419 394.033C217.186 393.91 217.031 393.687 217.004 393.435C216.978 393.183 217.084 392.936 217.288 392.772L223.023 388.183C223.246 388.005 223.551 387.952 223.826 388.045C224.1 388.138 224.302 388.361 224.354 388.633L225.987 397.091C226.043 397.384 225.916 397.682 225.659 397.856C225.517 397.951 225.351 398 225.184 398Z" fill="#2A2B2E"/>
<path fill-rule="evenodd" clip-rule="evenodd" d="M284.266 24C284.158 24 284.048 23.9768 283.944 23.9272C283.644 23.7844 253.407 9.72799 211.817 14.3492C211.423 14.3936 211.051 14.1152 211.005 13.7257C210.958 13.3366 211.247 12.985 211.65 12.9405C253.686 8.26922 284.286 22.51 284.59 22.6542C284.953 22.8267 285.103 23.2517 284.925 23.6029C284.798 23.8539 284.537 24 284.266 24Z" fill="#2A2B2E"/>
<path fill-rule="evenodd" clip-rule="evenodd" d="M302.266 26C302.113 26 301.959 25.953 301.827 25.8566C270.068 2.57889 230.216 6.72244 229.817 6.76704C229.42 6.8126 229.051 6.52821 229.005 6.134C228.959 5.73883 229.248 5.3825 229.65 5.33742C229.752 5.32639 239.947 4.22624 253.962 6.05918C266.902 7.75113 285.863 12.3599 302.706 24.7042C303.03 24.9421 303.097 25.3929 302.854 25.7113C302.71 25.9002 302.49 26 302.266 26Z" fill="#2A2B2E"/>
<path fill-rule="evenodd" clip-rule="evenodd" d="M201.073 16.0359L205.964 17.8749L204.085 12.3689L201.073 16.0359ZM207.231 20C207.144 20 207.056 19.9846 206.971 19.9526L199.507 17.1458C199.27 17.0569 199.09 16.8523 199.026 16.5988C198.961 16.3453 199.02 16.0753 199.184 15.8756L203.781 10.2801C203.959 10.0633 204.234 9.96158 204.505 10.0132C204.775 10.0654 204.997 10.263 205.089 10.532L207.956 18.9337C208.055 19.2251 207.984 19.55 207.773 19.7678C207.627 19.919 207.431 20 207.231 20Z" fill="#2A2B2E"/>
<path fill-rule="evenodd" clip-rule="evenodd" d="M309.999 29.3368C309.365 29.3368 308.732 29.4687 308.136 29.7319C305.788 30.7668 304.72 33.5261 305.755 35.8824C306.261 37.0323 307.183 37.9114 308.352 38.3576C309.496 38.794 310.744 38.7624 311.864 38.2681C314.212 37.2331 315.28 34.4743 314.245 32.118C313.739 30.9681 312.817 30.089 311.648 29.6428C311.112 29.4388 310.555 29.3368 309.999 29.3368ZM310.002 40C309.279 40 308.554 39.8677 307.859 39.6028C306.347 39.026 305.157 37.8927 304.506 36.4115C303.177 33.389 304.556 29.8459 307.578 28.513C309.033 27.8712 310.654 27.8303 312.141 28.3976C313.653 28.9743 314.843 30.1077 315.494 31.5889C316.823 34.6114 315.444 38.1545 312.422 39.487C311.647 39.829 310.825 40 310.002 40Z" fill="#2A2B2E"/>
<path fill-rule="evenodd" clip-rule="evenodd" d="M81.9801 77.538C81.3816 94.9254 67.4736 108.556 50.9166 107.983C34.3586 107.41 21.4215 92.8494 22.02 75.4625C22.6184 58.0751 36.5259 44.4444 53.0834 45.0174C69.641 45.5904 82.5781 60.1506 81.9801 77.538Z" fill="#C9CEBD"/>
<path fill-rule="evenodd" clip-rule="evenodd" d="M73 78.4995C73.0005 90.3736 63.8224 100 52.5005 100C41.1786 100 32 90.3746 32 78.5C31.9995 66.6259 41.1776 57 52.4995 57C63.8214 56.9995 73 66.6254 73 78.4995Z" fill="#AA4465"/>
<path fill-rule="evenodd" clip-rule="evenodd" d="M48.0003 78.9521L49.1108 126.896C49.1262 127.578 49.8568 128.011 50.4749 127.706L60.3385 122.824C60.7962 122.597 61.3534 122.772 61.5932 123.219L80.024 157.506C80.2771 157.977 80.8784 158.141 81.3415 157.867L107.543 142.345C108.039 142.051 108.152 141.389 107.78 140.951L83.0202 111.794C82.6512 111.359 82.7597 110.702 83.2491 110.405L90.841 105.801C91.4339 105.442 91.4409 104.595 90.8549 104.226L49.4491 78.1477C48.8136 77.7475 47.9829 78.2088 48.0003 78.9521Z" fill="#2A2B2E"/>
<path fill-rule="evenodd" clip-rule="evenodd" d="M51.0003 78.9521L52.1108 126.896C52.1266 127.578 52.8572 128.011 53.4754 127.706L63.3389 122.824C63.7966 122.597 64.3538 122.772 64.5931 123.219L83.0238 157.506C83.2769 157.977 83.8782 158.141 84.3414 157.867L110.543 142.345C111.039 142.051 111.152 141.389 110.78 140.951L86.0205 111.794C85.651 111.359 85.7595 110.702 86.2494 110.405L93.8413 105.801C94.4337 105.442 94.4407 104.595 93.8552 104.226L52.4491 78.1477C51.8141 77.7475 50.9834 78.2088 51.0003 78.9521Z" fill="white"/>
<path fill-rule="evenodd" clip-rule="evenodd" d="M64.0821 122.196C64.6204 122.196 65.1442 122.49 65.4105 123.001L83.4902 157.648C83.5519 157.767 83.653 157.81 83.7079 157.826C83.7619 157.841 83.8707 157.857 83.9834 157.788L109.686 142.103C109.807 142.029 109.842 141.916 109.852 141.855C109.863 141.794 109.866 141.675 109.775 141.565L85.4873 112.102C85.2079 111.762 85.0874 111.318 85.1573 110.881C85.2273 110.445 85.4795 110.062 85.8502 109.831L93.2976 105.178C93.4482 105.084 93.4652 104.935 93.4662 104.876C93.4662 104.816 93.4511 104.667 93.3029 104.57L52.6854 78.2177C52.5245 78.1131 52.3783 78.1758 52.3229 78.2074C52.2675 78.2395 52.1387 78.3343 52.1431 78.5284L53.2325 126.976C53.2364 127.154 53.353 127.244 53.403 127.275C53.4536 127.306 53.5862 127.368 53.7437 127.288L63.4188 122.355C63.6307 122.247 63.8581 122.196 64.0821 122.196ZM83.8002 159C83.6666 159 83.532 158.982 83.4018 158.945C83.0082 158.834 82.6725 158.56 82.481 158.193L64.4013 123.545C64.3124 123.375 64.102 123.306 63.931 123.393L54.2558 128.326C53.7947 128.561 53.2563 128.54 52.8151 128.27C52.3725 128 52.1023 127.526 52.0901 127.002L51.0008 78.5545C50.9881 77.9926 51.2797 77.4716 51.7622 77.1955C52.2447 76.92 52.8345 76.9368 53.3005 77.239L93.9176 103.592C94.3544 103.875 94.6124 104.358 94.608 104.885C94.6037 105.412 94.3379 105.891 93.8957 106.167L86.4484 110.82C86.3288 110.895 86.2948 111.007 86.2851 111.068C86.2754 111.128 86.273 111.246 86.3629 111.356L110.651 140.819C110.932 141.16 111.052 141.608 110.979 142.047C110.906 142.486 110.65 142.869 110.274 143.098L84.5718 158.783C84.3381 158.926 84.0699 159 83.8002 159Z" fill="#2A2B2E"/>
</svg>
