<svg width="50" height="47" viewBox="0 0 50 47" fill="none" xmlns="http://www.w3.org/2000/svg">
<path fill-rule="evenodd" clip-rule="evenodd" d="M18.0406 44.5502C16.5406 45.9835 14.6906 46.7002 12.4906 46.7002C10.2906 46.7002 8.30729 45.9169 6.54063 44.3502C4.77396 42.7835 3.39062 40.7335 2.39062 38.2002C1.39062 35.6669 0.890625 32.9669 0.890625 30.1002C0.890625 25.4335 1.72396 21.0502 3.39062 16.9502C5.05729 12.8502 7.12396 9.35019 9.59062 6.4502C12.0573 3.5502 14.424 1.46686 16.6906 0.200195H16.7906L20.6906 3.7002V5.3002C19.024 6.83353 17.474 9.03353 16.0406 11.9002C14.6073 14.7669 13.8906 18.3002 13.8906 22.5002C13.8906 24.5669 14.1906 26.2669 14.7906 27.6002C15.3906 28.9335 16.2573 30.3335 17.3906 31.8002C18.3906 33.1335 19.124 34.3169 19.5906 35.3502C20.0573 36.3835 20.2906 37.6669 20.2906 39.2002C20.2906 41.3335 19.5406 43.1169 18.0406 44.5502ZM46.7906 44.5502C45.324 45.9835 43.4906 46.7002 41.2906 46.7002C39.0906 46.7002 37.1073 45.9169 35.3406 44.3502C33.574 42.7835 32.1906 40.7335 31.1906 38.2002C30.1906 35.6669 29.6906 32.9669 29.6906 30.1002C29.6906 25.4335 30.524 21.0502 32.1906 16.9502C33.8573 12.8502 35.924 9.35019 38.3906 6.4502C40.8573 3.5502 43.224 1.46686 45.4906 0.200195H45.5906L49.4906 3.7002V5.3002C47.824 6.83353 46.2573 9.0502 44.7906 11.9502C43.324 14.8502 42.5906 18.3669 42.5906 22.5002C42.5906 24.5669 42.8906 26.2669 43.4906 27.6002C44.0906 28.9335 44.9573 30.3335 46.0906 31.8002C47.0906 33.1335 47.824 34.3169 48.2906 35.3502C48.7573 36.3835 48.9906 37.6669 48.9906 39.2002C48.9906 41.3335 48.2573 43.1169 46.7906 44.5502Z" fill="#AA4465"/>
</svg>
