<svg width="370" height="371" viewBox="0 0 370 371" fill="none" xmlns="http://www.w3.org/2000/svg">
<path fill-rule="evenodd" clip-rule="evenodd" d="M18.3029 70.7375C46.8361 22.2106 101.145 10.3468 121.627 5.87295C191.335 -9.35472 294.48 8.94222 344.247 91.6502C387.925 164.24 363.604 241.771 360.08 252.401C354.17 270.228 339.37 312.984 297.411 341.946C232.092 387.033 132.53 376.92 98.458 330.377C82.4555 308.517 95.4043 298.435 76.7675 259.786C51.8071 208.022 20.8286 209.264 6.39451 167.82C-9.90015 121.034 15.6651 75.2233 18.3029 70.7375Z" fill="#C9CEBD"/>
<path fill-rule="evenodd" clip-rule="evenodd" d="M14.5049 86.304C14.4133 86.304 14.3212 86.3097 14.2287 86.321C13.6459 86.3935 13.127 86.6883 12.7666 87.1511C12.4061 87.6144 12.2476 88.1901 12.3201 88.7723C12.47 89.9737 13.5673 90.8295 14.7719 90.6805C15.974 90.5303 16.8299 89.4305 16.6805 88.2292C16.6075 87.6469 16.3127 87.1277 15.8498 86.7673C15.4602 86.4642 14.9908 86.304 14.5049 86.304ZM14.4979 92C12.7592 92 11.248 90.7018 11.0274 88.9334C10.9118 88.0056 11.1646 87.089 11.7387 86.3509C12.3128 85.6137 13.14 85.1439 14.0676 85.0284C14.9947 84.9099 15.9123 85.1652 16.6497 85.7392C17.3875 86.3131 17.8573 87.1407 17.9728 88.0677C18.2117 89.9828 16.8481 91.7343 14.9331 91.9731H14.9326C14.7867 91.9913 14.6417 92 14.4979 92Z" fill="#2A2B2E"/>
<path fill-rule="evenodd" clip-rule="evenodd" d="M10.0061 101.182C9.8884 101.182 9.7703 101.19 9.65181 101.204C8.90466 101.297 8.23821 101.675 7.77606 102.27C7.31352 102.863 7.11 103.602 7.2029 104.349C7.2962 105.096 7.67489 105.762 8.26891 106.224C8.86293 106.687 9.60064 106.889 10.3486 106.797H10.349C11.0957 106.704 11.7618 106.326 12.2243 105.732C12.6869 105.138 12.89 104.399 12.7971 103.652C12.7038 102.905 12.3255 102.239 11.7315 101.777C11.2315 101.387 10.6293 101.182 10.0061 101.182ZM9.99193 108C9.107 108 8.25277 107.708 7.54341 107.156C6.7006 106.5 6.16326 105.555 6.03139 104.495C5.89912 103.435 6.18767 102.387 6.84389 101.544C7.50011 100.701 8.44566 100.164 9.50577 100.032C10.5639 99.8973 11.6138 100.189 12.457 100.845C13.2998 101.501 13.8367 102.446 13.9686 103.506C14.1009 104.566 13.8123 105.614 13.1561 106.457C12.4999 107.3 11.5547 107.837 10.4946 107.969C10.3265 107.99 10.1584 108 9.99193 108Z" fill="#2A2B2E"/>
<path fill-rule="evenodd" clip-rule="evenodd" d="M261.323 329C261.228 329 261.132 328.985 261.041 328.952L258.394 328.004C258.055 327.883 257.906 327.571 258.062 327.306C258.218 327.043 258.621 326.926 258.959 327.049L261.606 327.996C261.945 328.117 262.094 328.43 261.938 328.694C261.824 328.887 261.579 329 261.323 329Z" fill="#2A2B2E"/>
<path fill-rule="evenodd" clip-rule="evenodd" d="M270.323 332C270.229 332 270.132 331.985 270.041 331.952L267.394 331.005C267.055 330.883 266.906 330.571 267.062 330.307C267.218 330.042 267.619 329.927 267.959 330.048L270.606 330.996C270.945 331.117 271.094 331.429 270.938 331.694C270.824 331.887 270.579 332 270.323 332Z" fill="#2A2B2E"/>
<path fill-rule="evenodd" clip-rule="evenodd" d="M261.529 336C261.456 336 261.382 335.981 261.311 335.94C261.045 335.786 260.927 335.386 261.047 335.046L261.988 332.397C262.109 332.057 262.423 331.907 262.689 332.06C262.955 332.214 263.073 332.614 262.953 332.954L262.012 335.603C261.923 335.853 261.731 336 261.529 336Z" fill="#2A2B2E"/>
<path fill-rule="evenodd" clip-rule="evenodd" d="M265.529 327C265.456 327 265.382 326.981 265.311 326.94C265.045 326.786 264.927 326.386 265.047 326.046L265.988 323.397C266.109 323.057 266.422 322.906 266.689 323.061C266.955 323.215 267.073 323.614 266.953 323.954L266.012 326.603C265.923 326.853 265.731 327 265.529 327Z" fill="#2A2B2E"/>
<path fill-rule="evenodd" clip-rule="evenodd" d="M2.78185 138C2.61288 138 2.44339 137.954 2.29997 137.858C1.95993 137.63 1.89996 137.209 2.16646 136.918L4.60145 134.257C4.86794 133.965 5.35974 133.915 5.69977 134.142C6.04033 134.37 6.09978 134.791 5.8338 135.082L3.39829 137.743C3.24392 137.912 3.01393 138 2.78185 138Z" fill="#2A2B2E"/>
<path fill-rule="evenodd" clip-rule="evenodd" d="M9.78185 129C9.61288 129 9.44339 128.954 9.29997 128.858C8.95993 128.63 8.89996 128.209 9.16646 127.918L11.6014 125.257C11.8679 124.965 12.3597 124.915 12.6998 125.142C13.0403 125.37 13.0998 125.791 12.8338 126.082L10.3983 128.743C10.2439 128.912 10.0139 129 9.78185 129Z" fill="#2A2B2E"/>
<path fill-rule="evenodd" clip-rule="evenodd" d="M13.3322 137C13.1894 137 13.0457 136.946 12.9242 136.836L10.2591 134.407C9.96764 134.141 9.9138 133.648 10.1398 133.304C10.3654 132.961 10.785 132.9 11.076 133.164L13.7411 135.592C14.0325 135.858 14.0859 136.352 13.8604 136.695C13.7291 136.895 13.5316 137 13.3322 137Z" fill="#2A2B2E"/>
<path fill-rule="evenodd" clip-rule="evenodd" d="M4.33223 130C4.1894 130 4.04569 129.946 3.92422 129.836L1.25907 127.407C0.967639 127.141 0.913802 126.648 1.13983 126.304C1.36541 125.961 1.78498 125.9 2.07597 126.164L4.74112 128.592C5.03255 128.858 5.08594 129.352 4.86036 129.695C4.72911 129.895 4.53156 130 4.33223 130Z" fill="#2A2B2E"/>
<path fill-rule="evenodd" clip-rule="evenodd" d="M350.5 52C350.224 52 350 51.6862 350 51.2997V47.7003C350 47.3138 350.224 47 350.5 47C350.776 47 351 47.3138 351 47.7003V51.2997C351 51.6862 350.776 52 350.5 52Z" fill="#2A2B2E"/>
<path fill-rule="evenodd" clip-rule="evenodd" d="M350.5 60C350.224 60 350 59.6862 350 59.2997V55.7003C350 55.3138 350.224 55 350.5 55C350.776 55 351 55.3138 351 55.7003V59.2997C351 59.6862 350.776 60 350.5 60Z" fill="#2A2B2E"/>
<path fill-rule="evenodd" clip-rule="evenodd" d="M349.3 54H345.7C345.313 54 345 53.776 345 53.5C345 53.224 345.313 53 345.7 53H349.3C349.687 53 350 53.224 350 53.5C350 53.776 349.687 54 349.3 54Z" fill="#2A2B2E"/>
<path fill-rule="evenodd" clip-rule="evenodd" d="M357.3 54H353.7C353.313 54 353 53.776 353 53.5C353 53.224 353.313 53 353.7 53H357.3C357.687 53 358 53.224 358 53.5C358 53.776 357.687 54 357.3 54Z" fill="#2A2B2E"/>
<path fill-rule="evenodd" clip-rule="evenodd" d="M204.947 349C202.477 349 200.032 348.902 197.613 348.705C197.245 348.675 196.972 348.359 197.002 347.999C197.033 347.64 197.352 347.379 197.725 347.403C214.699 348.788 233.138 345.211 251.048 337.062C251.383 336.908 251.781 337.05 251.937 337.378C252.093 337.705 251.948 338.094 251.613 338.246C236.04 345.332 220.055 349 204.947 349Z" fill="#2A2B2E"/>
<path fill-rule="evenodd" clip-rule="evenodd" d="M201.34 357C192.056 357 182.289 355.484 172.433 351.641C172.089 351.507 171.914 351.106 172.042 350.745C172.17 350.384 172.553 350.201 172.895 350.334C199.658 360.768 225.832 353.767 243.076 346.056C243.413 345.905 243.803 346.071 243.947 346.424C244.09 346.779 243.934 347.188 243.596 347.338C232.466 352.316 217.652 357 201.34 357Z" fill="#2A2B2E"/>
<path fill-rule="evenodd" clip-rule="evenodd" d="M188.559 342.254C187.669 342.254 186.811 342.788 186.438 343.666C186.199 344.228 186.193 344.843 186.42 345.399C186.643 345.94 187.063 346.36 187.605 346.582C188.745 347.048 190.071 346.489 190.562 345.334C190.801 344.772 190.808 344.157 190.579 343.602C190.357 343.061 189.937 342.64 189.395 342.419C189.123 342.307 188.839 342.254 188.559 342.254ZM188.436 348C188 348 187.557 347.918 187.131 347.744C186.276 347.394 185.613 346.731 185.261 345.876C184.905 345.008 184.913 344.048 185.285 343.174C186.043 341.393 188.098 340.533 189.869 341.256C190.724 341.606 191.388 342.27 191.739 343.124C192.095 343.992 192.087 344.952 191.715 345.826C191.14 347.179 189.815 348 188.436 348Z" fill="#2A2B2E"/>
<path fill-rule="evenodd" clip-rule="evenodd" d="M236.226 226.03L162.805 215C162.329 215 162.173 215.444 162.173 215.871V278.681C162.173 284.694 120.457 300.318 120.051 299.524L120 306.171C119.997 307.409 121.023 308.247 122.459 308.507L184.953 320C187.81 320 190.631 319.357 193.218 318.269L227.064 303.938C233.157 301.359 237 295.819 237 289.775V226.902C237 226.475 236.702 226.03 236.226 226.03Z" fill="#AA4465"/>
<path fill-rule="evenodd" clip-rule="evenodd" d="M155.249 211.467V274.451C155.249 280.66 151.251 286.317 144.969 288.997L121.94 298.821C120.436 299.462 120.792 301.196 122.616 301.477L185.89 313C188.735 313 191.545 312.439 194.118 311.356L219.634 300.618C225.963 297.956 230 292.276 230 286.036V222.99C230 222.732 229.766 222.523 229.476 222.523L155.772 211C155.483 211 155.249 211.209 155.249 211.467Z" fill="white"/>
<path fill-rule="evenodd" clip-rule="evenodd" d="M181.325 314C181.284 314 181.243 313.996 181.202 313.989L121.182 303.219C119.995 303.04 119.137 302.304 119.015 301.348C118.905 300.49 119.419 299.711 120.358 299.317L143.533 289.575C149.568 287.038 153.467 281.618 153.467 275.764V262.666C153.467 262.298 153.77 262 154.143 262C154.517 262 154.82 262.298 154.82 262.666V275.764C154.82 282.152 150.598 288.054 144.064 290.801L120.888 300.542C120.524 300.695 120.325 300.935 120.357 301.181C120.393 301.468 120.732 301.803 121.406 301.906L181.445 312.679C181.812 312.745 182.056 313.092 181.989 313.453C181.929 313.775 181.645 314 181.325 314Z" fill="#2A2B2E"/>
<path fill-rule="evenodd" clip-rule="evenodd" d="M351.124 277.308L342.924 285L46.0036 233.374C41.9041 232.661 38.9323 229.054 39.0012 224.875L42.1389 34.3811L51.9776 29.0756C53.7837 28.1075 55.8614 27.7801 57.8755 28.1455L346.457 80.4565C350.788 81.2424 353.938 85.0298 353.938 89.4516L354 270.639C354 273.166 352.959 275.58 351.124 277.308Z" fill="#AA4465"/>
<path fill-rule="evenodd" clip-rule="evenodd" d="M336.027 284.877L44.2652 232.27C40.6383 231.616 38 228.463 38 224.783V41.61C38 36.8674 42.2987 33.2803 46.9726 34.1233L338.735 86.73C342.362 87.3843 345 90.5365 345 94.2171V277.39C345 282.133 340.701 285.72 336.027 284.877Z" fill="white"/>
<path fill-rule="evenodd" clip-rule="evenodd" d="M111.325 246C111.285 246 111.244 245.996 111.203 245.989L54.5562 235.389C54.1889 235.321 53.9446 234.956 54.0108 234.575C54.0771 234.195 54.4295 233.946 54.7964 234.01L111.444 244.61C111.811 244.679 112.056 245.043 111.989 245.424C111.93 245.762 111.645 246 111.325 246Z" fill="#2A2B2E"/>
<path fill-rule="evenodd" clip-rule="evenodd" d="M311.315 281C311.274 281 311.233 280.996 311.191 280.989L258.565 271.376C258.192 271.308 257.944 270.947 258.011 270.57C258.079 270.193 258.437 269.947 258.808 270.01L311.436 279.622C311.809 279.691 312.057 280.052 311.989 280.429C311.929 280.764 311.64 281 311.315 281Z" fill="#2A2B2E"/>
<path fill-rule="evenodd" clip-rule="evenodd" d="M36.6744 132C36.3017 132 36 131.698 36 131.325L36.0013 42.3643C36.0013 39.8793 37.0943 37.5401 39.0004 35.9463C40.9057 34.3525 43.4009 33.6935 45.8452 34.1334L48.4455 34.6031C48.8119 34.6697 49.0556 35.0205 48.9891 35.3872C48.923 35.7538 48.5714 35.9945 48.2054 35.9315L45.6056 35.4618C43.5551 35.0898 41.4637 35.6458 39.865 36.9819C38.2667 38.3184 37.3501 40.2797 37.3501 42.3643L37.3487 131.325C37.3487 131.698 37.0471 132 36.6744 132Z" fill="#2A2B2E"/>
<path fill-rule="evenodd" clip-rule="evenodd" d="M184.218 198.917L58.7826 177.635C55.5891 177.093 53 174.059 53 170.858V5.89805C53 2.69739 55.5891 0.541318 58.7826 1.08346L184.218 22.3651C187.411 22.9067 190 25.9411 190 29.1422V194.102C190 197.303 187.411 199.458 184.218 198.917Z" fill="white"/>
<path fill-rule="evenodd" clip-rule="evenodd" d="M160.915 84.9522L88.0848 71.6867C86.3812 71.3762 85 69.6383 85 67.8051C85 65.9723 86.3812 64.7376 88.0848 65.0477L160.915 78.3132C162.619 78.6237 164 80.3615 164 82.1948C164 84.0276 162.619 85.2627 160.915 84.9522Z" fill="#C9CEBD"/>
<path fill-rule="evenodd" clip-rule="evenodd" d="M173.891 123.953L86.109 108.509C84.3918 108.207 83 106.515 83 104.731C83 102.947 84.3918 101.744 86.109 102.047L173.891 117.491C175.608 117.793 177 119.485 177 121.269C177 123.053 175.608 124.256 173.891 123.953Z" fill="#C9CEBD"/>
<path fill-rule="evenodd" clip-rule="evenodd" d="M75 102.084C75 103.99 73.4328 105.273 71.5 104.95C69.5667 104.628 68 102.822 68 100.916C68 99.0106 69.5667 97.7273 71.5 98.0495C73.4328 98.3726 75 100.179 75 102.084Z" fill="#C9CEBD"/>
<path fill-rule="evenodd" clip-rule="evenodd" d="M173.891 109.954L86.1086 94.5085C84.3918 94.2067 83 92.5151 83 90.7306C83 88.9461 84.3918 87.7443 86.1086 88.0465L173.891 103.491C175.608 103.793 177 105.485 177 107.27C177 109.054 175.608 110.255 173.891 109.954Z" fill="#C9CEBD"/>
<path fill-rule="evenodd" clip-rule="evenodd" d="M75 89.0839C75 90.9894 73.4333 92.2727 71.5 91.9505C69.5672 91.6274 68 89.8214 68 87.9158C68 86.0103 69.5672 84.727 71.5 85.0497C73.4333 85.3723 75 87.1783 75 89.0839Z" fill="#C9CEBD"/>
<path fill-rule="evenodd" clip-rule="evenodd" d="M173.891 137.953L86.1086 122.509C84.3918 122.207 83 120.515 83 118.73C83 116.946 84.3918 115.745 86.1086 116.046L173.891 131.491C175.608 131.793 177 133.485 177 135.269C177 137.054 175.608 138.256 173.891 137.953Z" fill="#C9CEBD"/>
<path fill-rule="evenodd" clip-rule="evenodd" d="M74 116.084C74 117.989 72.4333 119.273 70.5 118.95C68.5672 118.627 67 116.821 67 114.916C67 113.01 68.5672 111.727 70.5 112.05C72.4333 112.372 74 114.178 74 116.084Z" fill="#C9CEBD"/>
<path fill-rule="evenodd" clip-rule="evenodd" d="M173.891 152.953L86.1086 137.509C84.3918 137.207 83 135.515 83 133.73C83 131.946 84.3918 130.745 86.1086 131.046L173.891 146.491C175.608 146.793 177 148.485 177 150.269C177 152.053 175.608 153.256 173.891 152.953Z" fill="#C9CEBD"/>
<path fill-rule="evenodd" clip-rule="evenodd" d="M74 131.084C74 132.99 72.4333 134.273 70.5 133.95C68.5672 133.628 67 131.822 67 129.916C67 128.01 68.5672 126.727 70.5 127.05C72.4333 127.372 74 129.178 74 131.084Z" fill="#C9CEBD"/>
<path fill-rule="evenodd" clip-rule="evenodd" d="M172.891 166.953L85.1086 151.509C83.3918 151.207 82 149.515 82 147.73C82 145.946 83.3918 144.745 85.1086 145.046L172.891 160.491C174.608 160.793 176 162.485 176 164.269C176 166.054 174.608 167.256 172.891 166.953Z" fill="#C9CEBD"/>
<path fill-rule="evenodd" clip-rule="evenodd" d="M74 145.084C74 146.99 72.4328 148.273 70.5 147.95C68.5667 147.628 67 145.822 67 143.916C67 142.01 68.5667 140.727 70.5 141.05C72.4328 141.372 74 143.178 74 145.084Z" fill="#C9CEBD"/>
<path fill-rule="evenodd" clip-rule="evenodd" d="M172.891 181.953L85.1086 166.509C83.3918 166.207 82 164.515 82 162.731C82 160.946 83.3918 159.745 85.1086 160.046L172.891 175.491C174.608 175.793 176 177.485 176 179.269C176 181.054 174.608 182.256 172.891 181.953Z" fill="#C9CEBD"/>
<path fill-rule="evenodd" clip-rule="evenodd" d="M74 160.084C74 161.989 72.4333 163.273 70.5 162.95C68.5672 162.627 67 160.821 67 158.916C67 157.01 68.5672 155.727 70.5 156.05C72.4333 156.372 74 158.178 74 160.084Z" fill="#C9CEBD"/>
<path fill-rule="evenodd" clip-rule="evenodd" d="M103 38.4986C103 27.065 112.178 19.3636 123.5 21.2973C134.822 23.2311 144 34.0678 144 45.5014C144 56.9354 134.822 64.6364 123.5 62.7027C112.178 60.7689 103 49.9327 103 38.4986Z" fill="white"/>
<path fill-rule="evenodd" clip-rule="evenodd" d="M109 55.3616C112.655 59.1368 117.579 61.8761 123 62.728C128.421 63.5799 133.345 62.3873 137 59.7606C132.772 57.881 128.022 56.4509 123 55.6619C117.977 54.8732 113.228 54.8104 109 55.3616Z" fill="#AA4465"/>
<path fill-rule="evenodd" clip-rule="evenodd" d="M128.015 34.0752C127.952 34.0976 127.888 34.1258 127.823 34.1589C127.396 34.3784 127.055 34.7335 126.686 35.0443C125.526 36.0227 124.089 36.5597 122.588 36.84C121.682 37.0093 118.926 36.5834 118.326 37.1387C117.734 37.6859 118.129 40.1449 118.13 41.1283C118.133 43.3495 119.088 45.5013 120.573 47.0552V52.9799C120.573 55.3224 122.318 57.5423 124.47 57.939C126.623 58.3353 128.368 56.7581 128.368 54.416V48.6436C129.961 47.6629 131 45.8063 131 43.4892V39.3653C131 37.8261 129.984 33.3694 128.015 34.0752Z" fill="white"/>
<path fill-rule="evenodd" clip-rule="evenodd" d="M127.425 64C120.906 64 113.982 60.8229 109.014 54.8826C104.683 49.7047 102.524 43.2177 103.088 37.0857C103.542 32.1655 105.746 27.8403 109.296 24.908C117.171 18.4041 129.772 20.1915 137.985 28.9799C138.235 29.2478 138.221 29.6679 137.954 29.9185C137.686 30.1696 137.267 30.1563 137.016 29.8871C129.281 21.6105 117.475 19.8745 110.14 25.933C106.865 28.6381 104.83 32.6423 104.409 37.2074C103.877 42.9896 105.926 49.1216 110.031 54.0299C117.673 63.1676 130.157 65.4256 137.86 59.0625C141.879 55.7424 143.985 50.5211 143.636 44.738C143.614 44.3719 143.892 44.0571 144.258 44.035C144.622 44.0141 144.938 44.2913 144.96 44.6574C145.335 50.8696 143.055 56.4933 138.705 60.087C135.504 62.7302 131.545 63.9996 127.425 64Z" fill="#2A2B2E"/>
<path fill-rule="evenodd" clip-rule="evenodd" d="M124.159 60C123.909 60 123.654 59.9768 123.395 59.9305C120.972 59.4927 119 57.0306 119 54.4417V48.656C119 48.2934 119.277 48 119.62 48C119.963 48 120.241 48.2934 120.241 48.656V54.4417C120.241 56.4201 121.75 58.3023 123.604 58.6373C124.462 58.7939 125.259 58.587 125.85 58.0596C126.436 57.5362 126.759 56.7494 126.759 55.8437V50.3519C126.759 49.9894 127.037 49.6959 127.38 49.6959C127.722 49.6959 128 49.9894 128 50.3519V55.8437C128 57.1426 127.52 58.2857 126.65 59.062C125.96 59.6781 125.094 60 124.159 60Z" fill="#2A2B2E"/>
<path fill-rule="evenodd" clip-rule="evenodd" d="M131.983 36.3004C131.833 34.9322 131.645 33.4709 130.744 32.291C130.414 31.8586 130.011 31.4982 129.563 31.2047C128.524 30.5235 127.244 30.2001 126.067 30.1621C125.494 30.144 124.921 30.1793 124.342 30.0545C123.844 29.9464 123.362 29.7231 122.874 29.5404C117.972 27.7054 111.367 30.6814 113.367 36.3768L115.412 42.2067C115.996 54.8257 129.607 54.9033 129.78 44.4335C130.146 43.3066 130.511 42.1802 130.877 41.0537C131.118 40.3138 131.337 39.5726 131.519 38.8207C131.699 38.0786 132.085 37.2252 131.983 36.3004Z" fill="#2A2B2E"/>
<path fill-rule="evenodd" clip-rule="evenodd" d="M124.5 47.916C127.537 48.4066 130 46.6973 130 44.0979V41.3257C130 38.8135 127.62 36.3919 124.684 35.918L119 35V42.321C119 44.2259 120.322 46.0801 122.224 47.1277L124.5 47.916Z" fill="white"/>
<path fill-rule="evenodd" clip-rule="evenodd" d="M124.164 47.6196C125.483 47.837 126.726 47.5369 127.585 46.7964C128.314 46.1679 128.716 45.2589 128.716 44.2367V41.3175C128.716 38.981 126.632 36.7166 124.071 36.2695L119.284 35.4341V42.3656C119.284 44.0592 120.371 45.8061 122.058 46.8314L124.164 47.6196ZM124.991 49C124.63 49 124.263 48.9685 123.891 48.9038C123.853 48.8968 123.816 48.8863 123.779 48.8727L121.561 48.043C121.526 48.0294 121.491 48.0132 121.459 47.9935C119.357 46.7422 118 44.5329 118 42.3656V34.656C118 34.4627 118.083 34.2794 118.228 34.1547C118.373 34.0296 118.563 33.9767 118.75 34.0095L124.287 34.9762C127.437 35.5264 130 38.3704 130 41.3175V44.2367C130 45.6522 129.436 46.9176 128.413 47.7993C127.504 48.5832 126.295 49 124.991 49Z" fill="#2A2B2E"/>
<mask id="mask0_0:5145" style="mask-type:alpha" maskUnits="userSpaceOnUse" x="52" y="0" width="138" height="184">
<path fill-rule="evenodd" clip-rule="evenodd" d="M52 0H190V184H52V0Z" fill="white"/>
</mask>
<g mask="url(#mask0_0:5145)">
<path fill-rule="evenodd" clip-rule="evenodd" d="M99.1223 184C99.0847 184 99.0466 183.997 99.0085 183.991L58.327 177.105C54.8383 176.514 52 173.194 52 169.704V5.53975C52 3.80493 52.6813 2.28087 53.9184 1.24708C55.1626 0.20752 56.8087 -0.201116 58.5532 0.0926047L183.673 21.2716C187.162 21.8617 190 25.1818 190 28.6718V77.1007C190 77.4685 189.699 77.7662 189.328 77.7662C188.957 77.7662 188.656 77.4685 188.656 77.1007V28.6718C188.656 25.8007 186.32 23.0698 183.447 22.5835L58.327 1.40459C56.9789 1.17609 55.7216 1.48223 54.7846 2.26445C53.8557 3.04046 53.3437 4.20425 53.3437 5.53975V169.704C53.3437 172.575 55.6808 175.306 58.5532 175.793L99.2343 182.678C99.6002 182.74 99.8461 183.084 99.7838 183.447C99.7279 183.771 99.4434 184 99.1223 184Z" fill="#2A2B2E"/>
</g>
<path fill-rule="evenodd" clip-rule="evenodd" d="M330.217 224.917L204.783 203.635C201.589 203.093 199 200.059 199 196.858V31.8981C199 28.697 201.589 26.5413 204.783 27.0835L330.217 48.3651C333.411 48.9068 336 51.9411 336 55.1418V220.102C336 223.303 333.411 225.458 330.217 224.917Z" fill="white"/>
<path fill-rule="evenodd" clip-rule="evenodd" d="M306.915 109.952L234.084 96.6867C232.381 96.3767 231 94.6388 231 92.8055C231 90.9723 232.381 89.7376 234.084 90.0477L306.915 103.314C308.619 103.624 310 105.362 310 107.195C310 109.028 308.619 110.263 306.915 109.952Z" fill="#C9CEBD"/>
<path fill-rule="evenodd" clip-rule="evenodd" d="M320.891 148.953L233.109 133.509C231.392 133.207 230 131.515 230 129.731C230 127.947 231.392 126.744 233.109 127.047L320.891 142.491C322.608 142.793 324 144.485 324 146.269C324 148.053 322.608 149.256 320.891 148.953Z" fill="#C9CEBD"/>
<path fill-rule="evenodd" clip-rule="evenodd" d="M219 129.084C219 130.989 217.433 132.273 215.5 131.95C213.567 131.628 212 129.821 212 127.916C212 126.01 213.567 124.727 215.5 125.05C217.433 125.372 219 127.178 219 129.084Z" fill="#C9CEBD"/>
<path fill-rule="evenodd" clip-rule="evenodd" d="M320.891 134.953L233.109 119.509C231.392 119.207 230 117.515 230 115.73C230 113.946 231.392 112.745 233.109 113.046L320.891 128.491C322.608 128.793 324 130.485 324 132.269C324 134.054 322.608 135.256 320.891 134.953Z" fill="#C9CEBD"/>
<path fill-rule="evenodd" clip-rule="evenodd" d="M221 115.084C221 116.99 219.433 118.273 217.5 117.95C215.567 117.628 214 115.822 214 113.916C214 112.01 215.567 110.727 217.5 111.05C219.433 111.372 221 113.178 221 115.084Z" fill="#C9CEBD"/>
<path fill-rule="evenodd" clip-rule="evenodd" d="M319.891 162.953L232.109 147.509C230.392 147.207 229 145.515 229 143.73C229 141.946 230.392 140.745 232.109 141.046L319.891 156.491C321.608 156.793 323 158.485 323 160.269C323 162.053 321.608 163.256 319.891 162.953Z" fill="#C9CEBD"/>
<path fill-rule="evenodd" clip-rule="evenodd" d="M219 143.084C219 144.99 217.433 146.273 215.5 145.95C213.567 145.628 212 143.822 212 141.916C212 140.011 213.567 138.727 215.5 139.05C217.433 139.373 219 141.179 219 143.084Z" fill="#C9CEBD"/>
<path fill-rule="evenodd" clip-rule="evenodd" d="M319.891 176.953L232.109 161.509C230.392 161.207 229 159.515 229 157.731C229 155.947 230.392 154.744 232.109 155.047L319.891 170.491C321.608 170.793 323 172.485 323 174.269C323 176.053 321.608 177.256 319.891 176.953Z" fill="#C9CEBD"/>
<path fill-rule="evenodd" clip-rule="evenodd" d="M219 157.084C219 158.99 217.433 160.273 215.5 159.95C213.567 159.628 212 157.822 212 155.916C212 154.011 213.567 152.727 215.5 153.05C217.433 153.373 219 155.179 219 157.084Z" fill="#C9CEBD"/>
<path fill-rule="evenodd" clip-rule="evenodd" d="M319.891 191.953L232.109 176.509C230.392 176.207 229 174.515 229 172.731C229 170.947 230.392 169.744 232.109 170.047L319.891 185.491C321.608 185.793 323 187.485 323 189.269C323 191.053 321.608 192.256 319.891 191.953Z" fill="#C9CEBD"/>
<path fill-rule="evenodd" clip-rule="evenodd" d="M219 172.084C219 173.99 217.433 175.273 215.5 174.95C213.567 174.628 212 172.822 212 170.916C212 169.01 213.567 167.727 215.5 168.05C217.433 168.372 219 170.178 219 172.084Z" fill="#C9CEBD"/>
<path fill-rule="evenodd" clip-rule="evenodd" d="M319.891 205.953L232.109 190.509C230.392 190.207 229 188.515 229 186.73C229 184.946 230.392 183.745 232.109 184.046L319.891 199.491C321.608 199.793 323 201.485 323 203.269C323 205.054 321.608 206.256 319.891 205.953Z" fill="#C9CEBD"/>
<path fill-rule="evenodd" clip-rule="evenodd" d="M218 187.084C218 188.989 216.433 190.273 214.5 189.95C212.567 189.627 211 187.821 211 185.916C211 184.01 212.567 182.727 214.5 183.05C216.433 183.372 218 185.178 218 187.084Z" fill="#C9CEBD"/>
<path fill-rule="evenodd" clip-rule="evenodd" d="M246 64.4986C246 53.0649 255.178 45.3633 266.5 47.2974C277.822 49.2312 287 60.0677 287 71.5014C287 82.9356 277.822 90.6367 266.5 88.7025C255.178 86.7688 246 75.9328 246 64.4986Z" fill="white"/>
<path fill-rule="evenodd" clip-rule="evenodd" d="M270.439 89C269.277 89 268.09 88.9007 266.887 88.7005C255.37 86.7786 246 75.97 246 64.6063C246 62.1598 246.428 59.8348 247.273 57.6949C247.406 57.3583 247.792 57.1894 248.138 57.32C248.482 57.4497 248.654 57.8277 248.521 58.1642C247.736 60.154 247.338 62.3218 247.338 64.6063C247.338 75.3626 256.209 85.5935 267.113 87.4126C272.362 88.2868 277.285 87.0969 280.975 84.057C284.642 81.0358 286.662 76.5378 286.662 71.3914C286.662 60.6351 277.791 50.4042 266.888 48.5847C261.008 47.602 255.502 49.2465 251.778 53.0915C251.524 53.3536 251.101 53.3653 250.832 53.1172C250.564 52.8694 250.552 52.4558 250.806 52.1937C254.843 48.027 260.787 46.2414 267.113 47.2973C278.63 49.2187 288 60.0273 288 71.3914C288 76.9292 285.811 81.7821 281.837 85.0553C278.692 87.6468 274.734 89 270.439 89Z" fill="#2A2B2E"/>
<path fill-rule="evenodd" clip-rule="evenodd" d="M253 79.3624C256.654 83.1378 261.578 85.8772 267 86.7285C272.422 87.5794 277.346 86.3868 281 83.7588C276.772 81.8793 272.022 80.4498 267 79.6614C261.978 78.8726 257.227 78.8105 253 79.3624Z" fill="#99B9FF"/>
<path fill-rule="evenodd" clip-rule="evenodd" d="M268 83.952C266.343 83.6399 265 81.8903 265 80.0442V63L271 64.1308V81.1746C271 83.0207 269.657 84.2641 268 83.952Z" fill="white"/>
<path fill-rule="evenodd" clip-rule="evenodd" d="M279.802 71.6077C279.404 66.3844 281.613 63.5519 276.663 56.8661C271.537 49.9435 267.139 53.2213 267.139 53.2213C267.139 53.2213 263.473 49.4494 258.662 55.1632C254.416 60.2061 259.854 66.3347 258.026 69.6161C256.198 72.898 250 73.7819 250 73.7819C250 73.7819 251.987 78.2188 254.45 80.4476L280.597 85C280.597 85 286 79.8868 286 78.1687C286 78.1687 280.199 76.831 279.802 71.6077Z" fill="#2A2B2E"/>
<path fill-rule="evenodd" clip-rule="evenodd" d="M253 79.3624C256.654 83.1378 261.578 85.8772 267 86.7285C272.422 87.5794 277.346 86.3868 281 83.7588C276.772 81.8793 272.022 80.4498 267 79.6614C261.978 78.8726 257.227 78.8105 253 79.3624Z" fill="#C9CEBD"/>
<path fill-rule="evenodd" clip-rule="evenodd" d="M267.718 58.0391L267.495 58L261 63.6954V67.4506C261 69.9575 262.293 72.3736 264.215 73.8991V80.0387C264.215 81.8873 265.644 83.6393 267.407 83.9518C269.17 84.2648 270.598 83.0197 270.598 81.1711V75.1466C272.624 74.3516 274 72.3442 274 69.7563V65.7415C274 62.1032 271.187 58.6546 267.718 58.0391Z" fill="white"/>
<path fill-rule="evenodd" clip-rule="evenodd" d="M267.992 84C267.798 84 267.599 83.9812 267.398 83.9431C265.525 83.5863 264 81.5794 264 79.4694V73.6724C264 73.3012 264.27 73 264.604 73C264.937 73 265.207 73.3012 265.207 73.6724V79.4694C265.207 80.9536 266.282 82.3656 267.602 82.6175C268.2 82.7319 268.754 82.5826 269.163 82.1975C269.569 81.816 269.793 81.2387 269.793 80.5721V74.8746C269.793 74.503 270.063 74.2022 270.396 74.2022C270.73 74.2022 271 74.503 271 74.8746V80.5721C271 81.6412 270.624 82.5839 269.942 83.2249C269.4 83.7342 268.723 84 267.992 84Z" fill="#2A2B2E"/>
<path fill-rule="evenodd" clip-rule="evenodd" d="M268.077 76C267.688 76 267.292 75.9638 266.89 75.8906C266.537 75.8256 266.299 75.4663 266.36 75.0874C266.42 74.709 266.755 74.4521 267.11 74.5193C268.618 74.7952 270.028 74.4243 271.08 73.475C272.125 72.5318 272.7 71.1202 272.7 69.4995V65.4554C272.7 62.2223 270.371 59.151 267.39 58.4415L261.3 63.837V67.1767C261.3 69.6289 262.642 72.1196 264.719 73.5219C265.022 73.7273 265.113 74.1562 264.921 74.4818C264.73 74.8064 264.329 74.9047 264.025 74.6983C261.58 73.0475 260 70.0949 260 67.1767V63.51C260 63.3028 260.087 63.1066 260.236 62.9744L266.798 57.1598C266.945 57.0304 267.136 56.9757 267.323 57.01C267.423 57.0286 267.522 57.049 267.622 57.0722C271.198 57.8948 274 61.5768 274 65.4554V69.4995C274 71.5371 273.261 73.3262 271.919 74.5383C270.855 75.4983 269.521 76 268.077 76Z" fill="#2A2B2E"/>
<path fill-rule="evenodd" clip-rule="evenodd" d="M330.539 225C330.181 225 329.816 224.969 329.447 224.906L261.686 213.4C261.32 213.338 261.075 212.993 261.137 212.63C261.199 212.267 261.546 212.021 261.912 212.084L329.673 223.59C331.02 223.818 332.279 223.512 333.216 222.727C334.145 221.949 334.656 220.782 334.656 219.442V54.7621C334.656 51.882 332.32 49.1425 329.447 48.6543L204.327 27.4092C202.979 27.1787 201.721 27.4862 200.785 28.2714C199.855 29.0502 199.344 30.2172 199.344 31.5574V83.8223C199.344 84.1908 199.043 84.4899 198.672 84.4899C198.301 84.4899 198 84.1908 198 83.8223V31.5574C198 29.8171 198.681 28.2878 199.918 27.2508C201.163 26.208 202.809 25.7985 204.553 26.0931L329.673 47.3382C333.162 47.9306 336 51.2611 336 54.7621V219.442C336 221.182 335.319 222.711 334.082 223.748C333.101 224.57 331.871 225 330.539 225Z" fill="#2A2B2E"/>
<path fill-rule="evenodd" clip-rule="evenodd" d="M249.217 273.917L123.783 252.635C120.589 252.093 118 249.059 118 245.858V80.8984C118 77.6973 120.589 75.5417 123.783 76.0833L249.217 97.3654C252.411 97.907 255 100.941 255 104.142V269.102C255 272.303 252.411 274.458 249.217 273.917Z" fill="white"/>
<path fill-rule="evenodd" clip-rule="evenodd" d="M226.915 160.952L154.084 147.687C152.381 147.376 151 145.639 151 143.805C151 141.972 152.381 140.738 154.084 141.048L226.915 154.313C228.619 154.624 230 156.362 230 158.195C230 160.028 228.619 161.263 226.915 160.952Z" fill="#C9CEBD"/>
<path fill-rule="evenodd" clip-rule="evenodd" d="M237.891 198.953L150.109 183.509C148.392 183.207 147 181.515 147 179.73C147 177.946 148.392 176.745 150.109 177.046L237.891 192.491C239.608 192.793 241 194.485 241 196.269C241 198.054 239.608 199.256 237.891 198.953Z" fill="#C9CEBD"/>
<path fill-rule="evenodd" clip-rule="evenodd" d="M139 178.084C139 179.99 137.433 181.273 135.5 180.95C133.567 180.628 132 178.822 132 176.916C132 175.01 133.567 173.727 135.5 174.05C137.433 174.372 139 176.178 139 178.084Z" fill="#C9CEBD"/>
<path fill-rule="evenodd" clip-rule="evenodd" d="M238.891 186.953L151.109 171.509C149.392 171.207 148 169.515 148 167.731C148 165.947 149.392 164.744 151.109 165.047L238.891 180.491C240.608 180.793 242 182.485 242 184.269C242 186.053 240.608 187.256 238.891 186.953Z" fill="#C9CEBD"/>
<path fill-rule="evenodd" clip-rule="evenodd" d="M139 165.084C139 166.989 137.433 168.273 135.5 167.95C133.567 167.628 132 165.821 132 163.916C132 162.01 133.567 160.727 135.5 161.05C137.433 161.372 139 163.178 139 165.084Z" fill="#C9CEBD"/>
<path fill-rule="evenodd" clip-rule="evenodd" d="M237.891 214.954L150.109 199.509C148.392 199.207 147 197.515 147 195.731C147 193.946 148.392 192.744 150.109 193.047L237.891 208.491C239.608 208.793 241 210.485 241 212.27C241 214.054 239.608 215.255 237.891 214.954Z" fill="#C9CEBD"/>
<path fill-rule="evenodd" clip-rule="evenodd" d="M139 193.084C139 194.989 137.433 196.273 135.5 195.95C133.567 195.627 132 193.821 132 191.916C132 190.01 133.567 188.727 135.5 189.05C137.433 189.372 139 191.178 139 193.084Z" fill="#C9CEBD"/>
<path fill-rule="evenodd" clip-rule="evenodd" d="M237.891 228.953L150.109 213.509C148.392 213.207 147 211.515 147 209.73C147 207.946 148.392 206.745 150.109 207.046L237.891 222.491C239.608 222.793 241 224.485 241 226.269C241 228.054 239.608 229.256 237.891 228.953Z" fill="#C9CEBD"/>
<path fill-rule="evenodd" clip-rule="evenodd" d="M139 207.084C139 208.99 137.433 210.273 135.5 209.95C133.567 209.628 132 207.822 132 205.916C132 204.01 133.567 202.727 135.5 203.05C137.433 203.372 139 205.178 139 207.084Z" fill="#C9CEBD"/>
<path fill-rule="evenodd" clip-rule="evenodd" d="M237.891 242.953L150.109 227.509C148.391 227.207 147 225.515 147 223.73C147 221.946 148.391 220.745 150.109 221.046L237.891 236.491C239.608 236.793 241 238.485 241 240.269C241 242.054 239.608 243.256 237.891 242.953Z" fill="#C9CEBD"/>
<path fill-rule="evenodd" clip-rule="evenodd" d="M138 222.084C138 223.989 136.433 225.273 134.5 224.95C132.567 224.627 131 222.821 131 220.916C131 219.01 132.567 217.727 134.5 218.05C136.433 218.372 138 220.178 138 222.084Z" fill="#C9CEBD"/>
<path fill-rule="evenodd" clip-rule="evenodd" d="M237.891 257.953L150.109 242.509C148.392 242.207 147 240.515 147 238.731C147 236.946 148.392 235.745 150.109 236.046L237.891 251.491C239.608 251.793 241 253.485 241 255.269C241 257.054 239.608 258.256 237.891 257.953Z" fill="#C9CEBD"/>
<path fill-rule="evenodd" clip-rule="evenodd" d="M138 236.084C138 237.99 136.433 239.273 134.5 238.95C132.567 238.628 131 236.822 131 234.916C131 233.011 132.567 231.727 134.5 232.05C136.433 232.373 138 234.179 138 236.084Z" fill="#C9CEBD"/>
<path fill-rule="evenodd" clip-rule="evenodd" d="M167 114.082C167 102.92 175.954 95.4025 187 97.2903C198.046 99.178 207 109.757 207 120.918C207 132.08 198.046 139.597 187 137.71C175.954 135.822 167 125.244 167 114.082Z" fill="white"/>
<path fill-rule="evenodd" clip-rule="evenodd" d="M173 130.361C176.655 134.137 181.578 136.876 187 137.728C192.422 138.58 197.345 137.387 201 134.76C196.772 132.881 192.022 131.451 187 130.662C181.978 129.873 177.227 129.81 173 130.361Z" fill="#C9CEBD"/>
<path fill-rule="evenodd" clip-rule="evenodd" d="M193.27 106.514C192.31 105.79 191.191 105.311 190.048 105.132L183.32 104.078C181.818 103.843 180.372 104.142 179.271 104.916L178.902 105.174C177.153 106.403 176.544 108.63 177.353 110.834L179.565 116.861L193.749 119L195.751 113.106C196.508 110.876 195.497 108.189 193.27 106.514Z" fill="#2A2B2E"/>
<path fill-rule="evenodd" clip-rule="evenodd" d="M190.404 109.008C190.4 109.005 190.392 109 190.392 109L181 113.507V117.061C181 119.162 181.966 121.197 183.467 122.666V128.26C183.467 130.472 185.23 132.568 187.404 132.942C189.579 133.317 191.342 131.828 191.342 129.616V124.173C192.953 123.248 194 121.488 194 119.299V115.405C194 112.854 192.53 110.398 190.404 109.008Z" fill="white"/>
<path fill-rule="evenodd" clip-rule="evenodd" d="M188.157 134C187.906 134 187.651 133.977 187.393 133.932C184.971 133.502 183 131.085 183 128.545V123H184.264V128.545C184.264 130.475 185.764 132.311 187.606 132.638C188.456 132.789 189.247 132.588 189.834 132.075C190.415 131.566 190.736 130.8 190.736 129.917V124.546H192V129.917C192 131.193 191.52 132.315 190.65 133.078C189.958 133.683 189.092 134 188.157 134Z" fill="#2A2B2E"/>
<path fill-rule="evenodd" clip-rule="evenodd" d="M189.08 126C188.692 126 188.295 125.962 187.894 125.886C187.551 125.82 187.32 125.458 187.379 125.076C187.437 124.694 187.763 124.437 188.106 124.503C189.627 124.793 191.049 124.403 192.109 123.409C193.16 122.422 193.739 120.945 193.739 119.251V115.038C193.739 111.552 191.212 108.236 188.107 107.645L182.261 106.534V116.83C182.261 119.392 183.611 121.995 185.7 123.46C185.995 123.667 186.083 124.1 185.897 124.428C185.711 124.755 185.322 124.855 185.027 124.647C182.581 122.931 181 119.863 181 116.83V105.702C181 105.495 181.082 105.299 181.224 105.166C181.366 105.032 181.554 104.975 181.737 105.011L188.319 106.262C192.003 106.962 195 110.9 195 115.038V119.251C195 121.366 194.262 123.223 192.922 124.481C191.859 125.479 190.525 126 189.08 126Z" fill="#2A2B2E"/>
<path fill-rule="evenodd" clip-rule="evenodd" d="M190.836 139C184.368 139 177.501 135.785 172.648 129.815C165.217 120.672 165.105 108.169 172.393 101.35C172.66 101.099 173.079 101.114 173.328 101.383C173.577 101.652 173.562 102.073 173.295 102.323C166.515 108.666 166.682 120.372 173.674 128.974C181.015 138.007 193.188 140.397 200.809 134.302C204.048 131.711 206.094 127.834 206.568 123.385C207.17 117.751 205.253 111.738 201.311 106.888C197.449 102.137 192.041 99.0158 186.472 98.3249C186.11 98.2797 185.852 97.9482 185.897 97.5839C185.942 97.2196 186.272 96.9581 186.635 97.0056C192.538 97.7386 198.261 101.034 202.335 106.047C206.5 111.171 208.523 117.542 207.884 123.527C207.372 128.332 205.151 132.528 201.633 135.342C198.542 137.815 194.762 139 190.836 139Z" fill="#2A2B2E"/>
<path fill-rule="evenodd" clip-rule="evenodd" d="M250.539 275C250.181 275 249.816 274.969 249.447 274.906L124.327 253.661C120.838 253.068 118 249.738 118 246.237V198.66C118 198.292 118.301 197.992 118.672 197.992C119.043 197.992 119.344 198.292 119.344 198.66V246.237C119.344 249.117 121.68 251.856 124.553 252.345L249.673 273.59C251.022 273.82 252.279 273.513 253.216 272.727C254.145 271.949 254.656 270.781 254.656 269.441V104.762C254.656 101.882 252.32 99.1426 249.447 98.6548L124.327 77.4094C122.979 77.1793 121.721 77.4864 120.784 78.272C119.855 79.0504 119.344 80.2174 119.344 81.5575V164.391C119.344 164.76 119.043 165.058 118.672 165.058C118.301 165.058 118 164.76 118 164.391V81.5575C118 79.8173 118.681 78.288 119.918 77.251C121.163 76.2081 122.809 75.7982 124.553 76.0933L249.673 97.3387C253.162 97.9307 256 101.261 256 104.762V269.441C256 271.181 255.319 272.711 254.083 273.748C253.101 274.57 251.87 275 250.539 275Z" fill="#2A2B2E"/>
<path fill-rule="evenodd" clip-rule="evenodd" d="M352 337L354.175 352.978L359.738 353L360 337.285L352 337Z" fill="white"/>
<path fill-rule="evenodd" clip-rule="evenodd" d="M355.255 353.536L359.534 353.554L359.768 337.733L353.318 337.473L355.255 353.536ZM360.135 355H360.132L354.723 354.976C354.42 354.975 354.163 354.71 354.121 354.357L352.006 336.824C351.981 336.613 352.036 336.399 352.156 336.241C352.277 336.082 352.452 335.986 352.632 336.002L360.41 336.315C360.743 336.328 361.006 336.655 361 337.049L360.745 354.291C360.739 354.685 360.468 355 360.135 355Z" fill="#2A2B2E"/>
<path fill-rule="evenodd" clip-rule="evenodd" d="M354.709 368.78C356.905 369.033 360.177 369.133 364.55 368.72C366.114 368.572 367.216 367.014 366.964 365.348C366.285 360.862 364.39 352.952 361.404 349.322L359.929 351.583L359.053 349.246C358.912 348.994 355.201 348.827 355.123 349.301L354.898 351.583L352.791 349.044L352.907 357.382C352.92 358.302 352.839 359.222 352.665 360.123L352.112 363.006C351.779 364.741 352.191 366.578 353.318 367.87C353.759 368.375 354.248 368.727 354.709 368.78Z" fill="white"/>
<path fill-rule="evenodd" clip-rule="evenodd" d="M353.048 351.484L353.137 357.891C353.15 358.844 353.066 359.8 352.887 360.734L352.342 363.57C352.045 365.114 352.431 366.681 353.373 367.762C353.727 368.168 354.084 368.419 354.353 368.45C356.186 368.661 359.333 368.822 363.914 368.389C364.475 368.336 364.976 368.043 365.324 367.562C365.674 367.078 365.822 366.453 365.73 365.846C365.149 362.009 363.508 354.842 360.909 351.083L359.932 352.581C359.801 352.782 359.578 352.891 359.351 352.862C359.125 352.834 358.931 352.675 358.845 352.447L358.09 350.433C357.476 350.321 355.908 350.283 355.278 350.388L355.092 352.268C355.066 352.531 354.898 352.753 354.664 352.834C354.43 352.916 354.173 352.84 354.009 352.643L353.048 351.484ZM358.47 370C356.651 370 355.24 369.897 354.221 369.78C353.644 369.713 353.037 369.332 352.465 368.677C351.247 367.28 350.745 365.269 351.124 363.299L351.668 360.464C351.829 359.625 351.905 358.766 351.893 357.912L351.779 349.71C351.775 349.431 351.933 349.178 352.175 349.077C352.417 348.975 352.692 349.046 352.865 349.254L354.003 350.626L354.076 349.882C354.078 349.867 354.08 349.852 354.083 349.837C354.179 349.25 354.787 349.129 354.987 349.089C355.021 349.082 358.621 348.705 359.094 349.555C359.111 349.585 359.126 349.617 359.138 349.649L359.571 350.805L360.365 349.589C360.474 349.421 360.649 349.317 360.839 349.305C361.028 349.296 361.214 349.376 361.34 349.53C365.128 354.135 366.782 364.468 366.957 365.631C367.105 366.604 366.867 367.607 366.306 368.383C365.744 369.161 364.933 369.636 364.023 369.722C361.869 369.925 360.021 370 358.47 370Z" fill="#2A2B2E"/>
<path fill-rule="evenodd" clip-rule="evenodd" d="M358.694 367C356.178 367 354.622 366.659 354.519 366.635C354.168 366.556 353.942 366.176 354.013 365.787C354.084 365.397 354.424 365.146 354.776 365.223C354.816 365.232 358.747 366.087 364.24 365.011C364.592 364.943 364.928 365.204 364.99 365.596C365.052 365.988 364.817 366.361 364.464 366.43C362.242 366.865 360.278 367 358.694 367Z" fill="#2A2B2E"/>
<path fill-rule="evenodd" clip-rule="evenodd" d="M362.302 362H356.698C356.312 362 356 361.776 356 361.5C356 361.224 356.312 361 356.698 361H362.302C362.688 361 363 361.224 363 361.5C363 361.776 362.688 362 362.302 362Z" fill="#2A2B2E"/>
<path fill-rule="evenodd" clip-rule="evenodd" d="M309 338.657L307.134 358.272L300 360L300.434 337L309 338.657Z" fill="white"/>
<path fill-rule="evenodd" clip-rule="evenodd" d="M300.902 338.422L300.428 358.539L307.455 357.175L309.522 339.759L300.902 338.422ZM299.704 360C299.542 360 299.382 359.948 299.254 359.849C299.089 359.722 298.995 359.531 299 359.332L299.511 337.639C299.515 337.45 299.609 337.271 299.766 337.15C299.924 337.029 300.129 336.977 300.332 337.009L310.411 338.573C310.78 338.63 311.037 338.944 310.996 339.288L308.8 357.789C308.766 358.069 308.542 358.298 308.244 358.356L299.849 359.986C299.801 359.995 299.753 360 299.704 360Z" fill="#2A2B2E"/>
<path fill-rule="evenodd" clip-rule="evenodd" d="M310.928 367.299C311.106 364.036 311.11 358.026 309.055 355.129L302.576 357.36V356.022C302.576 355.591 302.258 355.235 301.852 355.213L298.238 355.012C296.89 354.937 295.546 355.207 294.314 355.793C290.682 357.52 279.629 361.951 278.097 366.932C277.645 368.402 278.833 369.871 280.417 369.915C284.055 370.016 292.8 370.126 308.494 369.608C309.801 369.565 310.859 368.562 310.928 367.299Z" fill="white"/>
<path fill-rule="evenodd" clip-rule="evenodd" d="M298.269 355.289C297.189 355.289 296.106 355.533 295.114 356.001C294.679 356.205 294.14 356.448 293.522 356.726C289.348 358.602 280.662 362.507 279.413 366.53C279.268 366.998 279.361 367.501 279.669 367.908C279.998 368.343 280.526 368.612 281.084 368.627C284.848 368.73 293.456 368.829 308.826 368.326C309.778 368.294 310.534 367.583 310.585 366.672C310.861 361.651 310.328 357.653 309.117 355.554L303.217 357.567C303.011 357.637 302.782 357.607 302.604 357.486C302.425 357.366 302.319 357.169 302.319 356.959V355.647C302.319 355.551 302.261 355.498 302.237 355.497L298.661 355.3C298.53 355.293 298.399 355.289 298.269 355.289ZM288.245 370C284.946 370 282.59 369.958 281.045 369.916C280.073 369.889 279.151 369.421 278.58 368.665C278.024 367.93 277.858 367.018 278.124 366.162C279.544 361.586 288.266 357.665 292.951 355.558C293.56 355.285 294.092 355.045 294.52 354.844C295.841 354.221 297.3 353.933 298.738 354.013L302.314 354.21C303.071 354.251 303.664 354.882 303.664 355.647V356.046L309.178 354.164C309.466 354.067 309.786 354.165 309.958 354.407C312.098 357.396 312.111 363.417 311.928 366.74C311.841 368.325 310.527 369.56 308.872 369.614C299.763 369.913 293.018 370 288.245 370Z" fill="#2A2B2E"/>
<path fill-rule="evenodd" clip-rule="evenodd" d="M289.634 367C284.765 367 281.693 366.81 281.634 366.806C281.256 366.782 280.973 366.504 281.002 366.184C281.03 365.865 281.357 365.621 281.737 365.65C281.852 365.658 293.339 366.368 307.235 365.004C307.61 364.965 307.952 365.195 307.995 365.513C308.039 365.831 307.77 366.119 307.394 366.156C300.545 366.827 294.274 367 289.634 367Z" fill="#2A2B2E"/>
<path fill-rule="evenodd" clip-rule="evenodd" d="M292.627 362C292.432 362 292.24 361.899 292.118 361.71C291.916 361.397 291.98 360.961 292.261 360.736L298.008 356.132C298.289 355.906 298.68 355.978 298.882 356.291C299.084 356.603 299.02 357.04 298.74 357.264L292.992 361.869C292.881 361.957 292.754 362 292.627 362Z" fill="#2A2B2E"/>
<path fill-rule="evenodd" clip-rule="evenodd" d="M307.251 205.557C307.251 205.557 295.924 293.231 298.337 345.453L301.872 345.809C303.772 346 305.684 346.048 307.591 345.951L310.942 345.781C310.942 345.781 324.451 257.021 331.196 243.847C331.196 243.847 349.54 323.826 350.246 342.938C350.246 342.938 358.4 343.762 361.65 342.585C363.395 324.141 363.899 295.616 363.986 283.631C364.236 249.327 360.981 233.745 359.196 226.354C357.557 219.566 355.798 214.05 354.514 210.319L350.225 198L307.251 205.557Z" fill="#2A2B2E"/>
<path fill-rule="evenodd" clip-rule="evenodd" d="M330.337 246C330.023 246 329.745 245.779 329.687 245.464L328.644 239.733C328.194 238.161 326.91 236.981 325.286 236.65L323.528 236.292C323.17 236.219 322.94 235.874 323.014 235.521C323.088 235.168 323.437 234.939 323.796 235.014L325.554 235.373C327.677 235.806 329.352 237.354 329.927 239.416C329.932 239.434 329.937 239.453 329.94 239.472L330.99 245.232C331.054 245.587 330.815 245.926 330.455 245.99C330.415 245.997 330.376 246 330.337 246Z" fill="#C9CEBD"/>
<path fill-rule="evenodd" clip-rule="evenodd" d="M354.364 236C354.33 236 354.294 235.997 354.259 235.991C344.111 234.245 342.038 225.896 342.018 225.812C341.935 225.459 342.145 225.104 342.486 225.019C342.827 224.933 343.171 225.15 343.255 225.501C343.329 225.812 345.177 233.096 354.468 234.695C354.815 234.754 355.049 235.093 354.991 235.451C354.939 235.772 354.67 236 354.364 236Z" fill="#C9CEBD"/>
<path fill-rule="evenodd" clip-rule="evenodd" d="M306.663 230C306.407 230 306.164 229.857 306.055 229.618C305.909 229.296 306.063 228.922 306.398 228.782C311.805 226.529 311.678 221.708 311.676 221.66C311.662 221.309 311.947 221.014 312.312 221C312.681 220.988 312.986 221.261 312.999 221.611C313.002 221.668 313.153 227.352 306.926 229.947C306.84 229.983 306.751 230 306.663 230Z" fill="#C9CEBD"/>
<path fill-rule="evenodd" clip-rule="evenodd" d="M361.317 215C362.362 218.531 364 223.416 362.186 225.761C358.889 230.024 356.155 229.339 352.086 227.874C343.947 224.942 330.96 220.312 327.168 222.886L327 215H361.317Z" fill="#2A2B2E"/>
<path fill-rule="evenodd" clip-rule="evenodd" d="M314.057 138C307.379 137.969 301.278 141.788 298.356 147.823C294.971 154.814 290.193 173.111 290.006 181.101C289.681 195.068 301.775 195.855 302.134 195.875C302.139 195.876 302.142 195.879 302.141 195.884C302.104 196.288 300.691 211.464 300.579 214.158C300.374 219.085 309.409 226.774 319.785 222.986C330.109 219.217 358.314 211.709 361.178 218.102C361.183 218.111 361.195 218.107 361.193 218.097L349.36 173.693C349.359 173.687 349.363 173.682 349.368 173.682L359.081 174.157C359.082 174.157 359.084 174.157 359.086 174.156L366.996 169.528C366.999 169.526 367.001 169.523 367 169.519L364.997 160.544C361.192 145.21 351.011 138.174 337.873 138.112L314.057 138Z" fill="#AA4465"/>
<path fill-rule="evenodd" clip-rule="evenodd" d="M345.549 171.924C347.376 171.582 346.877 169.439 353.296 169.052C371.822 167.934 362.844 158.416 352.231 160.229C348.714 160.83 347.331 163.133 346.007 163.717C334.904 168.62 341.906 172.605 345.549 171.924Z" fill="white"/>
<path fill-rule="evenodd" clip-rule="evenodd" d="M354.971 161.327C354.119 161.327 353.24 161.393 352.353 161.537C350.091 161.904 348.763 162.971 347.696 163.828C347.138 164.277 346.656 164.664 346.127 164.885C342.127 166.56 339.999 168.374 340.433 169.738C340.859 171.073 343.514 171.929 345.258 171.619C345.691 171.542 345.938 171.336 346.346 170.996C347.314 170.187 348.639 169.08 353.291 168.815C361.637 168.337 363.216 166.343 363.501 165.743C363.744 165.232 363.632 164.679 363.168 164.098C361.97 162.602 358.725 161.327 354.971 161.327ZM344.491 173C342.277 173 339.687 171.899 339.12 170.123C338.64 168.618 339.371 166.277 345.579 163.677C345.926 163.532 346.338 163.201 346.815 162.818C347.946 161.908 349.495 160.664 352.125 160.237C357.692 159.336 362.531 161.139 364.256 163.295C365.032 164.265 365.208 165.328 364.751 166.29C363.731 168.435 359.796 169.763 353.373 170.13C349.188 170.369 348.066 171.306 347.247 171.989C346.786 172.374 346.309 172.773 345.508 172.915C345.185 172.972 344.842 173 344.491 173Z" fill="#2A2B2E"/>
<path fill-rule="evenodd" clip-rule="evenodd" d="M321.335 139.716C320.691 139.185 321.032 138.171 321.876 138.073L323.186 137.921C324.594 137.758 325.768 136.856 326.226 135.61L328.384 120.265L332.811 121.789L338.668 119L338.144 135.397C338.187 136.826 339.155 138.09 340.587 138.583L342.299 139.172C343.2 139.482 343.243 140.658 342.369 141.025C338.883 142.487 324.713 142.498 321.335 139.716Z" fill="white"/>
<path fill-rule="evenodd" clip-rule="evenodd" d="M321.463 138.59C324.434 141.046 337.955 141.235 341.419 139.776C341.607 139.697 341.63 139.553 341.627 139.474C341.625 139.409 341.598 139.252 341.393 139.181L339.711 138.599C338.025 138.018 336.905 136.547 336.854 134.853L337.334 119.746L332.602 122.007C332.435 122.086 332.242 122.097 332.066 122.036L328.512 120.809L326.504 135.132C326.497 135.177 326.486 135.222 326.471 135.264C325.928 136.748 324.567 137.789 322.918 137.981L321.63 138.131C321.459 138.151 321.403 138.276 321.386 138.329C321.363 138.4 321.358 138.504 321.463 138.59ZM333.276 142C328.229 142 322.643 141.309 320.571 139.597C320.073 139.186 319.882 138.553 320.072 137.945C320.266 137.325 320.801 136.892 321.466 136.815L322.754 136.665C323.841 136.539 324.776 135.842 325.154 134.883L327.266 119.821C327.294 119.622 327.412 119.447 327.589 119.343C327.766 119.239 327.983 119.218 328.177 119.285L332.254 120.693L337.751 118.068C337.967 117.966 338.224 117.979 338.426 118.105C338.629 118.23 338.749 118.45 338.741 118.682L338.226 134.854C338.26 135.959 339.024 136.955 340.173 137.352L341.855 137.933C342.527 138.165 342.975 138.752 342.999 139.429C343.022 140.104 342.618 140.717 341.968 140.991C340.477 141.618 337.025 142 333.276 142Z" fill="#2A2B2E"/>
<path fill-rule="evenodd" clip-rule="evenodd" d="M326.853 109.135C319.279 111.746 320.581 116.334 320.581 116.334C320.676 117.597 320.73 119.908 320.479 120.745C320.272 121.437 319.061 122.737 319.004 123.121C318.946 123.506 319.601 124.293 320.913 124.573C320.913 124.573 321.41 130.705 323.127 131.71C324.845 132.715 331.456 130.787 331.456 130.787L332.569 130.369C336.152 129.024 338.342 126.227 339.384 122.765C339.384 122.765 344.208 103.153 326.853 109.135Z" fill="white"/>
<path fill-rule="evenodd" clip-rule="evenodd" d="M320.399 123.279C320.509 123.467 320.921 123.868 321.718 124.045C322.012 124.111 322.228 124.357 322.251 124.651C322.444 127.127 323.146 130.878 324.104 131.464C325.078 132.062 329.115 131.233 331.687 130.451L332.754 130.032C335.825 128.826 337.999 126.277 339.039 122.662C339.053 122.599 341.202 113.184 337.128 109.671C335.163 107.975 331.969 107.907 327.635 109.471C320.928 111.891 321.864 115.899 321.907 116.068C321.916 116.106 321.924 116.15 321.926 116.189C321.996 117.152 322.108 119.885 321.802 120.951C321.663 121.439 321.253 122.025 320.857 122.591C320.706 122.806 320.492 123.114 320.399 123.279ZM325.347 133C324.537 133 323.836 132.89 323.375 132.608C321.681 131.57 321.086 126.953 320.92 125.221C319.605 124.77 318.907 123.828 319.01 123.116C319.056 122.792 319.286 122.452 319.722 121.829C320.008 121.421 320.399 120.861 320.477 120.587C320.666 119.929 320.665 117.874 320.557 116.326C320.421 115.637 319.776 110.87 327.16 108.206C332.005 106.458 335.666 106.611 338.039 108.66C342.725 112.705 340.47 122.578 340.372 122.996C339.203 127.061 336.749 129.916 333.266 131.284L332.174 131.714C332.157 131.72 332.139 131.726 332.122 131.732C331.269 131.992 327.804 133 325.347 133Z" fill="#2A2B2E"/>
<path fill-rule="evenodd" clip-rule="evenodd" d="M329.004 105.232C327.028 105.721 325.096 106.968 324.075 107.079C322.428 107.258 321.24 105.118 319.16 105.895C317.331 106.577 316.304 108.153 316.043 109.928C315.999 110.224 315.987 110.538 316.016 110.872C316.402 115.362 319.178 116.316 320.305 116.519C320.305 116.519 326.831 115.908 328.105 116.221C329.295 116.513 331.136 118.388 331.69 121.055C331.762 121.398 332.058 121.65 332.406 121.676C332.815 121.707 333.184 121.423 333.253 121.017C333.471 119.737 334.067 117.178 335.351 117.102C336.848 117.015 338.756 120.011 336.798 121.889C336.195 122.468 336.395 123.52 337.167 123.835C337.809 124.096 338.612 124.112 339.481 123.399C339.481 123.399 343.345 116.543 341.502 110.756C339.658 104.97 331.633 104.582 329.004 105.232Z" fill="#2A2B2E"/>
<path fill-rule="evenodd" clip-rule="evenodd" d="M318.565 124C318.405 124 318.245 123.94 318.118 123.818C317.489 123.214 317.075 122.067 317.009 120.748C316.964 119.858 317.09 119.001 317.361 118.336C317.816 117.222 318.501 117.022 318.869 117.003C319.848 116.939 320.684 117.982 320.988 119.633C321.056 120.004 320.822 120.361 320.464 120.432C320.106 120.501 319.762 120.259 319.694 119.889C319.498 118.825 319.073 118.366 318.939 118.366H318.936C318.893 118.368 318.728 118.492 318.574 118.868C318.382 119.339 318.29 119.999 318.324 120.677C318.378 121.75 318.709 122.525 319.013 122.817C319.28 123.073 319.296 123.505 319.049 123.782C318.919 123.927 318.742 124 318.565 124Z" fill="#2A2B2E"/>
<path fill-rule="evenodd" clip-rule="evenodd" d="M324.405 118.272C324.396 118.272 324.389 118.272 324.38 118.273C324.129 118.285 323.87 118.494 323.669 118.847C323.413 119.296 323.286 119.92 323.32 120.558C323.389 121.833 324.068 122.743 324.619 122.728C324.871 122.715 325.13 122.505 325.331 122.152C325.587 121.704 325.714 121.08 325.68 120.442C325.612 119.185 324.957 118.272 324.405 118.272ZM324.593 124C323.237 124 322.11 122.54 322.007 120.623C321.96 119.743 322.141 118.894 322.517 118.233C322.943 117.486 323.598 117.038 324.313 117.003C325.725 116.929 326.888 118.416 326.993 120.376C327.04 121.258 326.859 122.107 326.482 122.767C326.057 123.513 325.403 123.962 324.687 123.997C324.656 123.999 324.624 124 324.593 124Z" fill="#2A2B2E"/>
<path fill-rule="evenodd" clip-rule="evenodd" d="M326.649 120C326.316 120 326.033 119.732 326.003 119.377C325.971 119.001 326.234 118.668 326.592 118.635L333.292 118.003C333.646 117.968 333.965 118.247 333.997 118.623C334.029 119 333.766 119.332 333.408 119.366L326.708 119.997C326.688 119.999 326.668 120 326.649 120Z" fill="#2A2B2E"/>
<path fill-rule="evenodd" clip-rule="evenodd" d="M337 149.453C337 149.453 334.417 153.654 332.091 152.912C330.868 152.523 329.675 148.379 329.188 148.231C327.628 147.76 324.658 146.992 322.834 143.613C321.131 140.457 321.503 138.772 321.942 137.997C322.144 137.64 322.141 137.198 321.917 136.855C321.59 136.356 321.275 135.602 321.604 134.825C321.719 134.553 321.708 134.24 321.595 133.967C321.162 132.922 320.361 130.517 321.919 130.043C322.34 129.915 322.797 130.079 323.054 130.446C323.549 131.154 324.581 132.487 325.857 133.329C327.662 134.519 328.744 135.334 329.65 135.869C330.427 136.329 330.836 132.309 332.703 130.798C334.36 129.458 334.924 130.136 335.09 130.766C335.255 131.396 334.23 131.646 333.645 134.642C332.96 138.149 333.676 141.1 333.884 142.679C334.127 144.53 337 149.453 337 149.453Z" fill="white"/>
<path fill-rule="evenodd" clip-rule="evenodd" d="M320.037 130.316C319.996 130.316 319.955 130.322 319.915 130.332C319.712 130.388 319.593 130.476 319.515 130.629C319.275 131.103 319.465 132.131 320.01 133.311C320.215 133.756 320.218 134.255 320.017 134.681C319.831 135.077 319.925 135.537 320.299 136.049C320.698 136.597 320.717 137.298 320.351 137.878C319.978 138.469 319.61 139.888 321.339 142.762C323.121 145.724 325.979 146.49 327.687 146.947L327.903 147.005C328.42 147.146 328.689 147.684 329.278 148.863C329.669 149.645 330.583 151.475 331.104 151.625C332.599 152.054 334.591 149.947 335.455 148.819C334.674 147.59 332.412 143.92 332.167 142.251C332.131 142.005 332.081 141.725 332.025 141.412C331.719 139.705 331.255 137.124 331.912 134.106C332.328 132.195 332.947 131.324 333.316 130.803C333.381 130.711 333.46 130.601 333.495 130.537C333.458 130.435 333.408 130.362 333.364 130.348C333.35 130.343 332.995 130.246 332.005 130.964C331.053 131.656 330.44 133.109 329.994 134.17C329.557 135.206 329.268 135.891 328.665 136.09C328.4 136.176 328.115 136.152 327.864 136.018C327.281 135.709 326.648 135.317 325.846 134.822C325.237 134.445 324.527 134.006 323.666 133.496C322.168 132.61 320.971 131.229 320.392 130.485C320.308 130.378 320.174 130.316 320.037 130.316ZM331.53 153C331.252 153 330.971 152.963 330.689 152.882C329.649 152.585 328.885 151.199 327.996 149.418C327.786 148.999 327.508 148.442 327.356 148.228L327.295 148.212C325.505 147.732 322.172 146.838 320.106 143.404C318.135 140.13 318.488 138.229 319.132 137.212C319.219 137.073 319.218 136.91 319.128 136.787C318.483 135.902 318.339 134.966 318.723 134.152C318.766 134.06 318.761 133.94 318.711 133.83C318.193 132.71 317.69 131.147 318.236 130.069C318.485 129.576 318.928 129.23 319.517 129.07C320.266 128.864 321.078 129.124 321.537 129.712C322.057 130.381 323.125 131.617 324.425 132.386C325.295 132.901 326.013 133.345 326.629 133.726C327.25 134.11 327.767 134.43 328.226 134.689C328.364 134.431 328.539 134.017 328.677 133.69C329.184 132.487 329.877 130.84 331.135 129.927C332.211 129.146 333.086 128.874 333.811 129.1C334.329 129.26 334.708 129.666 334.875 130.241C335.032 130.774 334.759 131.158 334.496 131.529C334.163 131.998 333.66 132.706 333.298 134.367C332.693 137.147 333.13 139.584 333.42 141.196C333.478 141.522 333.531 141.816 333.569 142.073C333.772 143.46 336.041 147.183 336.898 148.501C337.037 148.715 337.034 148.984 336.889 149.195C336.599 149.619 334.198 153 331.53 153Z" fill="#2A2B2E"/>
<mask id="mask1_0:5145" style="mask-type:alpha" maskUnits="userSpaceOnUse" x="328" y="145" width="41" height="57">
<path fill-rule="evenodd" clip-rule="evenodd" d="M328 145H369V202H328V145Z" fill="white"/>
</mask>
<g mask="url(#mask1_0:5145)">
<path fill-rule="evenodd" clip-rule="evenodd" d="M328 150.18L336.069 145C336.069 145 346.976 162.768 355.237 168.799C359.259 171.735 367.061 168.284 367.061 168.284C367.061 168.284 374.551 197.284 360.093 201.43C336.009 208.336 328 150.18 328 150.18Z" fill="#AA4465"/>
</g>
<path fill-rule="evenodd" clip-rule="evenodd" d="M303.328 196C302.734 196 302.158 195.971 301.597 195.911C301.229 195.872 300.964 195.547 301.004 195.187C301.044 194.825 301.373 194.565 301.741 194.604C310.623 195.553 324.633 187.938 333.932 181.13C334.228 180.913 334.647 180.974 334.868 181.264C335.088 181.556 335.027 181.967 334.731 182.185C325.385 189.027 312.526 196 303.328 196Z" fill="#C9CEBD"/>
<path fill-rule="evenodd" clip-rule="evenodd" d="M315.753 174C315.218 174 314.728 173.955 314.298 173.856C306.334 172.012 308.179 162.6 308.198 162.505C308.268 162.166 308.615 161.947 308.972 162.011C309.33 162.077 309.565 162.404 309.496 162.743C309.426 163.083 307.874 171.083 314.613 172.642C318.002 173.426 326.91 169.959 330.057 168.558C330.387 168.41 330.781 168.544 330.937 168.856C331.093 169.169 330.951 169.541 330.621 169.688C330.187 169.881 320.876 174 315.753 174Z" fill="#C9CEBD"/>
<path fill-rule="evenodd" clip-rule="evenodd" d="M356.304 172C356.159 172 356.013 171.955 355.888 171.862C346.613 164.976 335.565 146.816 335.1 146.047C334.902 145.72 335.008 145.296 335.337 145.099C335.667 144.902 336.094 145.008 336.292 145.335C336.404 145.522 347.665 164.032 356.721 170.756C357.028 170.984 357.091 171.417 356.862 171.723C356.725 171.904 356.516 172 356.304 172Z" fill="#C9CEBD"/>
<path fill-rule="evenodd" clip-rule="evenodd" d="M357.413 203C338.009 203 328.416 152.26 328.011 150.064C327.961 149.795 328.079 149.521 328.309 149.374L331.84 147.105C332.15 146.906 332.562 146.998 332.76 147.311C332.958 147.625 332.866 148.04 332.556 148.239L329.407 150.262C330.422 155.413 340.334 203.169 358.276 201.618C358.642 201.579 358.966 201.86 358.998 202.23C359.029 202.599 358.758 202.925 358.391 202.957C358.063 202.986 357.736 203 357.413 203Z" fill="#C9CEBD"/>
<path fill-rule="evenodd" clip-rule="evenodd" d="M63.4604 124.534C68.8499 120.413 74.0536 116.062 81.3606 116.604C84.9627 116.871 85.63 117.74 89.2593 116.289C90.747 115.695 92.7948 113.393 94.5456 114.152C96.9208 115.181 97.606 120.58 96.4528 124.945C95.3072 129.281 91.4317 132.001 89.1512 135.652C85.5933 141.347 82.1292 146.053 77.4967 151.001C72.8209 155.994 68.28 161.872 68.0156 168.739C67.7762 174.964 71.1126 180.742 72.0451 186.9C74.3002 201.792 62.9579 211.719 49.8483 215.083C44.7013 216.403 39.0974 216.426 34.2197 214.305C25.9481 210.709 26.3496 204.268 22.9802 197.247C21.5979 194.366 18.9641 192.349 16.818 189.992C10.353 182.894 4.75398 162.678 18.4348 159.794C21.8489 159.075 25.6524 160.175 28.7346 158.526C32.9509 156.269 32.5056 151.601 33.9567 147.742C35.4145 143.866 38.2662 140.489 41.39 137.883C48.0341 132.341 56.5979 129.781 63.4604 124.534Z" fill="#2A2B2E"/>
<path fill-rule="evenodd" clip-rule="evenodd" d="M28 340.857C26.5163 343.82 23.3837 350.41 21.7507 357.093C21.0914 359.792 21.8017 361.317 22.4267 363.504C23.3253 366.648 24.3384 368.12 23.8984 369.013C22.9752 370.886 12.3837 370.423 8.86907 364.727C7.74607 362.907 7.5147 360.239 9.36659 350.734C11.2667 340.983 10.5601 339.46 12.022 338.274C16.6235 334.54 26.7198 340.131 28 340.857Z" fill="white"/>
<path fill-rule="evenodd" clip-rule="evenodd" d="M16.6445 337.341C15.2521 337.341 13.9835 337.651 13.0199 338.446C12.4081 338.952 12.318 339.508 11.9923 342.051C11.7698 343.788 11.4333 346.413 10.6738 350.383C8.92497 359.525 9.12454 362.135 10.1043 363.753C12.4054 367.552 18.1356 368.759 21.2034 368.635C22.7518 368.571 23.4432 368.206 23.5207 368.05C23.6626 367.756 23.3613 366.935 23.0117 365.982C22.7315 365.218 22.3824 364.267 22.049 363.078C21.9634 362.773 21.876 362.482 21.7913 362.199C21.2557 360.407 20.793 358.86 21.3854 356.391C22.7716 350.612 25.2704 344.798 27.2255 340.759C25.4831 339.809 20.575 337.341 16.6445 337.341ZM20.7318 370C17.1378 370 11.4486 368.583 8.94885 364.456C7.74245 362.464 7.49423 359.811 9.34663 350.128C10.098 346.199 10.4314 343.599 10.6517 341.878C10.9887 339.249 11.1148 338.265 12.1604 337.401C16.8472 333.528 26.5534 338.797 28.4509 339.893L29 340.21L28.7198 340.78C26.7597 344.767 24.1239 350.768 22.6995 356.707C22.1922 358.821 22.5869 360.14 23.086 361.809C23.173 362.1 23.2622 362.399 23.3495 362.711C23.6694 363.849 24.0082 364.773 24.2803 365.514C24.7916 366.908 25.1294 367.829 24.7366 368.641C24.2523 369.643 22.6148 369.925 21.326 369.986C21.1354 369.995 20.9367 370 20.7318 370Z" fill="#2A2B2E"/>
<path fill-rule="evenodd" clip-rule="evenodd" d="M21.3015 369C21.2814 369 21.2609 368.999 21.2404 368.997C16.8019 368.593 13.6205 366.887 11.7832 363.927C8.39718 358.472 10.8539 350.817 10.9606 350.494C11.086 350.112 11.4845 349.908 11.8485 350.041C12.2134 350.171 12.4078 350.588 12.2824 350.97C12.2591 351.042 9.94269 358.284 12.9587 363.135C14.5499 365.695 17.3771 367.176 21.3611 367.539C21.7461 367.574 22.0309 367.929 21.9973 368.332C21.9656 368.713 21.6603 369 21.3015 369Z" fill="#AA4465"/>
<path fill-rule="evenodd" clip-rule="evenodd" d="M74.212 351.801C74.212 351.801 74.7335 356.131 73.0277 366.089C72.7831 367.518 74.201 368.694 75.5538 368.822C81.0786 369.345 94.0456 370.285 104.87 369.917C105.871 369.883 106.602 369.065 106.826 368.367C108.83 362.119 92.8842 360.123 92.2368 355.891C91.079 348.314 74.212 351.801 74.212 351.801Z" fill="white"/>
<path fill-rule="evenodd" clip-rule="evenodd" d="M74.6277 353.053C74.7102 354.598 74.7376 358.89 73.3636 366.601C73.3066 366.92 73.3914 367.235 73.6151 367.538C73.9811 368.032 74.6721 368.404 75.3349 368.465C77.0268 368.618 92.2358 369.956 105.126 369.535C105.884 369.51 106.374 368.878 106.505 368.484C107.475 365.576 103.021 363.614 98.7129 361.716C95.0851 360.117 91.9519 358.738 91.6116 356.598C91.4488 355.572 90.9273 354.757 90.0174 354.104C86.1587 351.336 77.038 352.646 74.6277 353.053ZM99.8228 371C88.3152 371 76.6865 369.977 75.2165 369.843C74.1681 369.748 73.1443 369.185 72.5447 368.376C72.0882 367.76 71.9138 367.06 72.0398 366.351C73.7398 356.814 73.2465 352.609 73.2412 352.568L73.1609 351.924L73.7806 351.8C74.2725 351.702 85.877 349.449 90.786 352.969C91.9932 353.834 92.7174 354.98 92.9394 356.374C93.1605 357.765 96.3919 359.189 99.243 360.444C103.888 362.491 109.153 364.81 107.778 368.933C107.46 369.887 106.461 370.876 105.169 370.917C103.416 370.975 101.621 371 99.8228 371Z" fill="#2A2B2E"/>
<path fill-rule="evenodd" clip-rule="evenodd" d="M97.4194 369C87.379 369 76.8742 367.401 75.3047 366.315C74.9968 366.102 74.907 365.659 75.1057 365.328C75.3034 364.996 75.7143 364.901 76.0222 365.113C77.3701 366.046 91.6536 368.262 103.289 367.36C103.657 367.337 103.972 367.628 103.998 368.022C104.025 368.415 103.75 368.757 103.384 368.786C101.467 368.934 99.4525 369 97.4194 369Z" fill="#AA4465"/>
<path fill-rule="evenodd" clip-rule="evenodd" d="M100.638 206.522C100.638 206.522 99.2505 305.348 103.933 349.898C104.697 357.158 98.7977 363.383 91.5369 362.982C89.2657 362.856 86.6301 362.355 83.5786 361.324C76.7386 359.009 71.3595 358.587 67.5358 358.808C63.7872 359.026 60.646 355.989 60.6558 352.219C60.706 333.043 61.1863 284.633 64.6527 264.306C64.6527 264.306 49.9566 307.085 37.9107 344.862C36.4827 349.341 32.2272 352.266 27.5496 352.026C22.2633 351.755 14.8999 350.36 6.84518 345.797C1.37228 342.697 -1.21444 336.181 0.548994 330.126C7.07533 307.712 27.0293 249.664 69.995 201L100.638 206.522Z" fill="#2A2B2E"/>
<path fill-rule="evenodd" clip-rule="evenodd" d="M62.6688 274C62.6055 274 62.5409 273.991 62.4772 273.972C62.1239 273.864 61.9225 273.485 62.0281 273.125C63.7835 267.137 68.3002 255.057 71.9416 245.748C74.052 240.355 78.6267 236.344 84.1794 235.018C84.5367 234.932 84.8985 235.159 84.9822 235.525C85.0664 235.891 84.8437 236.257 84.4841 236.343C79.357 237.568 75.132 241.272 73.1837 246.252C69.5526 255.533 65.0519 267.569 63.309 273.514C63.2226 273.809 62.9566 274 62.6688 274Z" fill="#C9CEBD"/>
<path fill-rule="evenodd" clip-rule="evenodd" d="M167.743 142.242C168.226 141.548 168.011 140.564 167.241 140.154C166.697 139.864 166.025 139.998 165.584 140.431L158.583 147.309L157.837 147.163C156.369 146.879 154.968 147.906 154.774 149.41C154.774 149.41 154.865 153.807 153.559 155.527C146.826 164.395 131.417 179.942 129.039 179.942C126.486 179.942 122.231 177.525 122.231 177.525L103 181.324C103 181.324 112.871 197.212 129.72 193.413C143.911 190.213 156.774 166.676 160.478 159.331C160.921 158.452 161.638 157.755 162.505 157.304C162.867 157.115 163.209 156.878 163.521 156.591L166.41 153.933C167.502 152.929 167.861 151.339 167.308 149.952L166.615 148.216C165.928 146.491 166.151 144.53 167.208 143.011L167.743 142.242Z" fill="white"/>
<path fill-rule="evenodd" clip-rule="evenodd" d="M102.836 181.966C105.196 185.154 114.594 196.255 128.927 193.068C143.203 189.89 156.324 166.139 160.004 158.934C160.516 157.933 161.336 157.122 162.377 156.587C162.701 156.421 163.002 156.212 163.273 155.967L166.235 153.278C167.14 152.457 167.44 151.143 166.982 150.009L166.272 148.251C165.476 146.283 165.732 144.072 166.954 142.337L167.503 141.559C167.629 141.38 167.672 141.154 167.621 140.941C167.569 140.724 167.429 140.546 167.228 140.441C166.945 140.293 166.57 140.361 166.316 140.607L159.138 147.567C158.979 147.721 158.756 147.786 158.538 147.746L157.774 147.599C157.231 147.496 156.686 147.617 156.239 147.94C155.804 148.255 155.522 148.718 155.44 149.247C155.451 149.935 155.451 153.992 154.052 155.809C147.541 164.276 131.353 180.781 128.376 180.781C125.931 180.781 122.233 178.878 121.286 178.369L102.836 181.966ZM123.837 195C109.558 195 101.197 182.009 101.105 181.862C100.985 181.672 100.967 181.435 101.056 181.23C101.145 181.023 101.329 180.875 101.549 180.832L121.266 176.986C121.424 176.957 121.588 176.982 121.728 177.061C121.77 177.084 125.967 179.421 128.376 179.421C130.42 179.291 145.718 164.416 152.977 154.98C153.954 153.71 154.105 150.39 154.081 149.218C154.081 149.184 154.083 149.15 154.087 149.116C154.208 148.193 154.69 147.383 155.444 146.838C156.197 146.293 157.116 146.091 158.029 146.263L158.447 146.344L165.371 139.63C166.051 138.97 167.051 138.811 167.858 139.237C168.403 139.523 168.798 140.028 168.941 140.622C169.084 141.216 168.964 141.844 168.613 142.343L168.064 143.121C167.109 144.476 166.91 146.204 167.531 147.741L168.241 149.499C168.911 151.159 168.472 153.083 167.147 154.285L164.184 156.975C163.826 157.3 163.427 157.577 162.997 157.798C162.211 158.201 161.594 158.809 161.213 159.554C157.464 166.892 144.076 191.09 129.221 194.396C127.345 194.814 125.547 195 123.837 195Z" fill="#2A2B2E"/>
<path fill-rule="evenodd" clip-rule="evenodd" d="M110.015 160.198C106.67 155.585 101.252 152.906 95.5311 153.003L62.7375 153.462C59.8367 153.503 57.497 155.834 57.4637 158.717L57.2397 178.116L54 208.661C68.8098 197.698 84.2462 207.076 92.8818 209.944C101.518 212.813 104.166 208.925 104.166 208.925L103.398 185.868C103.376 185.219 104.227 184.948 104.584 185.493C106.104 187.818 109.085 191.555 114.037 194.649C115.047 195.281 116.397 194.875 116.889 193.794C119.213 188.679 123.67 185.204 123.995 177.78C124.067 176.143 123.338 174.579 122.063 173.54C117.418 169.758 113.12 164.48 110.015 160.198Z" fill="#AA4465"/>
<path fill-rule="evenodd" clip-rule="evenodd" d="M89.5283 220.774L41.1792 247.402C38.8636 248.678 35.9468 247.845 34.6638 245.542L18.6011 216.705C17.3186 214.402 18.1557 211.501 20.4718 210.225L68.8204 183.598C71.136 182.322 74.0533 183.155 75.3358 185.458L91.399 214.296C92.6815 216.598 91.8439 219.499 89.5283 220.774Z" fill="#C9CEBD"/>
<path fill-rule="evenodd" clip-rule="evenodd" d="M89.548 225.045L45.9943 249.398C43.6972 250.683 40.8032 249.844 39.5309 247.525L23.5965 218.48C22.3238 216.161 23.1547 213.24 25.4518 211.955L69.0055 187.602C71.3027 186.317 74.1967 187.156 75.4689 189.475L91.4038 218.52C92.6761 220.839 91.8452 223.76 89.548 225.045Z" fill="white"/>
<path fill-rule="evenodd" clip-rule="evenodd" d="M93.5636 226.688L43.8469 254.404C41.5646 255.676 38.6891 254.845 37.425 252.548L21.5923 223.776C20.3282 221.479 21.1539 218.585 23.4362 217.312L73.1529 189.596C75.4357 188.324 78.3107 189.155 79.5748 191.452L95.4075 220.224C96.672 222.521 95.8459 225.415 93.5636 226.688Z" fill="#AA4465"/>
<path fill-rule="evenodd" clip-rule="evenodd" d="M65.8959 229.89L58.2848 225.689C58.2848 225.689 65.3144 226.696 64.5259 224.218C64.1203 222.944 63.5136 223.009 61.9175 222.984C60.7509 222.964 58.7582 222.851 56.9622 222.734C54.1508 222.552 51.5487 221.117 49.8613 218.784C44.9601 212.005 42.5906 202.561 43.5515 198.638C44.2509 195.784 46.9675 191.887 48.9332 188.758C43.8454 184.592 41.4564 184.67 36.3119 181C31.2551 189.72 30.674 198.372 31.1226 201.29C33.0209 213.638 45.1454 224.046 48.9004 227.006C49.6224 227.575 50.3129 228.186 50.9645 228.84C53.5622 231.446 58.5335 235.788 62.0438 234.876C66.996 233.591 65.8959 229.89 65.8959 229.89Z" fill="white"/>
<path fill-rule="evenodd" clip-rule="evenodd" d="M36.1409 182.627C31.2745 191.239 31.1015 199.196 31.4378 201.351C33.2813 213.153 45.1932 223.201 48.8003 225.999C49.5468 226.578 50.2547 227.198 50.9046 227.839C55.1813 232.063 58.9579 234.145 61.2625 233.557C62.7832 233.168 63.8125 232.512 64.3228 231.606C64.7329 230.878 64.7097 230.158 64.6578 229.79L57.3884 225.84C57.1069 225.687 56.9734 225.351 57.0723 225.041C57.1706 224.732 57.4705 224.54 57.7889 224.583C60.0404 224.901 62.7726 224.846 63.2517 224.261C63.275 224.232 63.3101 224.189 63.2566 224.024C63.0326 223.331 62.9685 223.304 61.5422 223.285L61.2879 223.281C60.3008 223.265 58.6382 223.183 56.3472 223.037C53.3502 222.846 50.6086 221.344 48.8253 218.917C43.9549 212.287 41.4492 202.778 42.4632 198.705C43.0718 196.259 45.1045 193.14 46.8984 190.389C47.1197 190.049 47.3384 189.714 47.5501 189.386C45.0782 187.458 43.2641 186.551 41.3504 185.593C39.7932 184.815 38.1878 184.011 36.1409 182.627ZM60.4163 235C57.0222 235 52.9492 231.727 49.9877 228.803C49.3751 228.198 48.7068 227.614 48.0019 227.067C44.2965 224.192 32.057 213.857 30.1367 201.561C29.5943 198.088 30.5337 189.524 35.3641 181.326C35.4577 181.167 35.6114 181.055 35.7892 181.015C35.9671 180.976 36.1528 181.014 36.3026 181.119C38.5553 182.7 40.2714 183.558 41.9309 184.389C44.03 185.438 46.0131 186.431 48.842 188.71C49.109 188.925 49.1709 189.311 48.9856 189.602C48.6712 190.094 48.3374 190.607 47.9958 191.131C46.2603 193.793 44.2935 196.811 43.7402 199.035C42.7995 202.815 45.2253 211.777 49.8801 218.113C51.4316 220.225 53.8187 221.531 56.4294 221.697C58.6685 221.84 60.3557 221.924 61.3086 221.939L61.5593 221.943C62.965 221.962 63.9807 221.975 64.5081 223.604C64.6899 224.167 64.603 224.706 64.2635 225.12C63.6377 225.884 62.1587 226.111 60.7193 226.128L65.5497 228.753C65.703 228.837 65.818 228.978 65.869 229.147C65.8883 229.211 66.3279 230.716 65.4803 232.247C64.7896 233.496 63.4783 234.374 61.583 234.859C61.2058 234.955 60.8154 235 60.4163 235Z" fill="#2A2B2E"/>
<path fill-rule="evenodd" clip-rule="evenodd" d="M62.3473 154.027C57.1705 154.114 52.3009 156.431 49.0121 160.357C44.926 165.234 39.2221 172.459 34.4271 180.087C33.9139 180.903 33.8492 181.93 34.3092 182.776C37.6311 188.889 43.7584 188.071 48.4636 190.782C49.1765 191.193 50.0859 191.01 50.5612 190.345C54.6638 184.607 59.4543 180.794 59.4543 180.794L64 154L62.3473 154.027Z" fill="#AA4465"/>
<path fill-rule="evenodd" clip-rule="evenodd" d="M85.0815 124C86.0199 124.756 86.5642 124.97 87.3262 125.688C88.8769 127.15 90.2287 131.467 92.8368 132.358C93.1151 133.769 91.9585 133.931 91.519 134.718C91.8437 135.412 92.3788 138.643 92.9456 140.619C93.1445 141.311 92.783 142.046 92.0991 142.316C90.9476 142.77 89.6509 143.067 88.198 143.17C88.198 143.17 80.7628 151.422 88.3303 157.095C88.3303 157.095 81.2359 162.787 73.2004 154.493C71.7893 153.037 78.2921 140.217 78.2921 140.217C78.0698 140.138 75.1673 139.054 74.86 136.714C74.747 135.855 74.9404 134.487 75.735 134.196C76.5103 133.911 77.8089 134.67 78.6288 136.289C78.8093 135.903 78.9659 135.41 79.1262 134.841C79.3467 134.06 79.5098 133.167 79.281 132.717C86.5233 130.805 80.0127 123.948 85.0815 124Z" fill="white"/>
<path fill-rule="evenodd" clip-rule="evenodd" d="M76.7159 135.374C76.6726 135.374 76.6342 135.381 76.6022 135.392C76.3247 135.495 76.0684 136.358 76.1754 137.181C76.4285 139.125 78.9998 140.074 79.109 140.114C79.2894 140.178 79.4329 140.316 79.5042 140.491C79.575 140.667 79.5674 140.864 79.4821 141.033C76.6365 146.693 73.8806 153.437 74.3905 154.462C80.4066 160.722 85.754 158.518 87.6161 157.415C85.9201 155.912 84.9604 154.133 84.7601 152.115C84.3053 147.53 87.9418 143.399 88.0971 143.226C88.2139 143.095 88.379 143.014 88.5564 143.001C89.8662 142.907 91.0866 142.638 92.1835 142.201C92.5349 142.061 92.7213 141.681 92.6175 141.316C92.3472 140.366 92.0855 139.135 91.8545 138.049C91.6362 137.022 91.3885 135.858 91.2522 135.564C91.1638 135.374 91.1719 135.154 91.2734 134.97C91.4751 134.606 91.7593 134.361 92.0102 134.145C92.3242 133.875 92.5074 133.717 92.5264 133.407C90.8935 132.626 89.7976 130.752 88.8217 129.084C88.2789 128.156 87.7659 127.28 87.2791 126.816C86.8951 126.451 86.5684 126.228 86.1903 125.969C85.9323 125.792 85.6453 125.596 85.3087 125.334C84.8526 125.354 84.5372 125.45 84.3703 125.622C84.0418 125.961 84.091 126.799 84.1433 127.686C84.2561 129.613 84.4244 132.478 80.6295 133.764C80.6507 134.238 80.5573 134.836 80.3475 135.586C80.2072 136.086 80.0353 136.661 79.8218 137.121C79.7131 137.354 79.4776 137.506 79.2164 137.51C78.9511 137.508 78.7146 137.369 78.5991 137.139C77.9756 135.897 77.1192 135.374 76.7159 135.374ZM82.8786 160C80.1769 160 76.8467 158.952 73.3816 155.343C72.7752 154.712 72.5794 153.266 75.2306 147.015C76.2751 144.552 77.4238 142.163 77.9607 141.067C76.9239 140.554 75.0966 139.376 74.8331 137.35C74.6968 136.305 74.9292 134.59 76.1253 134.147C77.0173 133.815 78.1285 134.311 79.0124 135.339C79.0228 135.303 79.0327 135.268 79.0422 135.233C79.4022 133.945 79.2421 133.604 79.2403 133.6C79.1505 133.422 79.1464 133.214 79.2294 133.032C79.3125 132.85 79.474 132.715 79.6693 132.663C83.0271 131.768 82.9129 129.822 82.792 127.763C82.7225 126.579 82.6567 125.461 83.3907 124.704C83.8604 124.221 84.567 124.004 85.5515 124C85.7067 124.002 85.856 124.055 85.9756 124.153C86.355 124.461 86.6641 124.672 86.9632 124.877C87.372 125.157 87.7578 125.421 88.2202 125.86C88.8442 126.454 89.4032 127.409 89.9947 128.421C90.9332 130.024 91.9967 131.842 93.3863 132.321C93.6137 132.399 93.7816 132.591 93.8271 132.823C94.0825 134.13 93.3719 134.742 92.9017 135.146C92.7993 135.235 92.7041 135.316 92.6252 135.398C92.7736 135.882 92.9396 136.651 93.1792 137.776C93.4062 138.842 93.6633 140.05 93.921 140.957C94.2106 141.975 93.6823 143.04 92.6919 143.434C91.5459 143.89 90.2876 144.183 88.9462 144.305C88.264 145.147 85.759 148.508 86.1078 151.992C86.2982 153.892 87.3215 155.556 89.1483 156.938C89.3117 157.062 89.4091 157.252 89.4127 157.455C89.4159 157.657 89.3252 157.85 89.1659 157.979C89.1231 158.014 86.596 160 82.8786 160Z" fill="#2A2B2E"/>
<path fill-rule="evenodd" clip-rule="evenodd" d="M83 142C83 142 85.593 143.45 89 142.858L83 142Z" fill="white"/>
<path fill-rule="evenodd" clip-rule="evenodd" d="M87.7595 143C85.2032 143 83.411 142.093 83.321 142.047C83.0027 141.882 82.9046 141.533 83.1017 141.268C83.2989 141.003 83.7158 140.921 84.0342 141.084C84.0695 141.102 86.3134 142.217 89.1931 141.755C89.5612 141.696 89.9166 141.897 89.9876 142.203C90.0586 142.51 89.8176 142.807 89.4499 142.866C88.8593 142.961 88.2922 143 87.7595 143Z" fill="#2A2B2E"/>
<path fill-rule="evenodd" clip-rule="evenodd" d="M177.184 167.703C177.006 167.703 176.827 167.631 176.696 167.488C176.445 167.215 176.46 166.788 176.729 166.533C177.52 165.785 178.333 165.224 179.145 164.866C180.034 164.475 180.919 164.189 181.776 164.013C182.135 163.94 182.488 164.177 182.561 164.543C182.634 164.909 182.4 165.265 182.039 165.339C181.274 165.496 180.479 165.754 179.677 166.107C179.013 166.399 178.309 166.888 177.639 167.522C177.51 167.643 177.347 167.703 177.184 167.703ZM191.109 169.346C190.895 169.346 190.685 169.242 190.556 169.049C189.558 167.555 188.28 166.43 186.861 165.796C186.523 165.645 186.371 165.246 186.519 164.904C186.668 164.563 187.062 164.408 187.399 164.558C189.047 165.295 190.521 166.586 191.66 168.291C191.867 168.6 191.787 169.02 191.482 169.23C191.368 169.308 191.237 169.346 191.109 169.346ZM285.184 174.814C285.086 174.814 284.986 174.792 284.892 174.745C284.561 174.582 284.423 174.177 284.585 173.841C285.371 172.208 286.087 170.559 286.712 168.94C286.846 168.593 287.232 168.421 287.576 168.557C287.919 168.693 288.088 169.085 287.954 169.433C287.316 171.085 286.586 172.768 285.784 174.435C285.668 174.674 285.431 174.814 285.184 174.814ZM172.668 177.277C172.639 177.277 172.611 177.276 172.583 177.272C172.218 177.225 171.959 176.886 172.005 176.516C172.243 174.623 172.754 172.814 173.522 171.137C173.678 170.798 174.074 170.651 174.408 170.809C174.742 170.966 174.887 171.368 174.732 171.706C174.021 173.257 173.549 174.933 173.329 176.687C173.285 177.028 172.998 177.277 172.668 177.277ZM193.377 179.688C193.348 179.688 193.318 179.686 193.288 179.682C192.923 179.633 192.667 179.293 192.715 178.923C192.797 178.3 192.839 177.655 192.839 177.008C192.839 175.925 192.724 174.838 192.497 173.777C192.42 173.411 192.648 173.051 193.009 172.972C193.368 172.894 193.723 173.126 193.801 173.49C194.048 174.646 194.172 175.829 194.172 177.008C194.172 177.715 194.127 178.419 194.037 179.101C193.992 179.441 193.706 179.688 193.377 179.688ZM279.84 184.173C279.712 184.173 279.583 184.136 279.469 184.058C279.163 183.849 279.082 183.43 279.287 183.12C280.281 181.62 281.225 180.089 282.094 178.57C282.278 178.247 282.686 178.137 283.005 178.324C283.324 178.512 283.432 178.926 283.248 179.249C282.364 180.793 281.404 182.349 280.394 183.873C280.265 184.068 280.054 184.173 279.84 184.173ZM173.793 187.975C173.488 187.975 173.213 187.761 173.143 187.448C172.776 185.797 172.466 184.148 172.205 182.732C172.165 182.518 172.129 182.306 172.097 182.095C172.04 181.726 172.289 181.38 172.653 181.323C173.016 181.271 173.358 181.517 173.414 181.886C173.445 182.084 173.479 182.283 173.516 182.482C173.775 183.887 174.083 185.522 174.444 187.151C174.525 187.514 174.3 187.876 173.94 187.958C173.891 187.97 173.842 187.975 173.793 187.975ZM187.696 188.304C187.447 188.304 187.209 188.162 187.094 187.92C186.935 187.583 187.075 187.179 187.406 187.018C188.911 186.286 190.14 185.173 191.06 183.711C191.257 183.396 191.67 183.304 191.98 183.504C192.291 183.705 192.382 184.123 192.184 184.438C191.129 186.116 189.716 187.394 187.984 188.237C187.891 188.282 187.792 188.304 187.696 188.304ZM273.364 192.768C273.21 192.768 273.054 192.713 272.929 192.603C272.649 192.36 272.619 191.933 272.859 191.65C274.01 190.297 275.134 188.895 276.2 187.482C276.424 187.186 276.842 187.129 277.134 187.356C277.427 187.582 277.483 188.007 277.259 188.304C276.178 189.737 275.037 191.16 273.869 192.533C273.737 192.688 273.551 192.768 273.364 192.768ZM177.183 198.205C176.936 198.205 176.699 198.066 176.583 197.827C175.814 196.237 175.151 194.569 174.556 192.728C174.442 192.374 174.633 191.992 174.982 191.876C175.332 191.759 175.709 191.953 175.824 192.308C176.399 194.088 177.039 195.698 177.781 197.232C177.943 197.566 177.806 197.971 177.476 198.136C177.381 198.183 177.281 198.205 177.183 198.205ZM265.938 200.538C265.758 200.538 265.578 200.465 265.447 200.319C265.198 200.045 265.216 199.617 265.487 199.364C266.778 198.161 268.055 196.9 269.283 195.616C269.539 195.348 269.962 195.342 270.226 195.601C270.49 195.861 270.497 196.289 270.241 196.557C268.995 197.86 267.699 199.139 266.389 200.36C266.261 200.479 266.099 200.538 265.938 200.538ZM183.399 206.914C183.232 206.914 183.065 206.851 182.935 206.724C181.629 205.442 180.431 204.039 179.374 202.556C179.159 202.254 179.226 201.831 179.525 201.613C179.824 201.394 180.241 201.462 180.456 201.765C181.466 203.184 182.612 204.525 183.863 205.752C184.128 206.012 184.134 206.44 183.878 206.708C183.747 206.846 183.574 206.914 183.399 206.914ZM257.666 207.364C257.458 207.364 257.253 207.266 257.123 207.081C256.908 206.778 256.977 206.356 257.277 206.138C258.693 205.11 260.108 204.014 261.482 202.879C261.767 202.642 262.187 202.686 262.42 202.976C262.653 203.265 262.609 203.691 262.324 203.927C260.928 205.08 259.492 206.193 258.053 207.238C257.935 207.323 257.8 207.364 257.666 207.364ZM248.6 213.055C248.36 213.055 248.129 212.924 248.01 212.694C247.838 212.363 247.963 211.955 248.289 211.781C249.82 210.964 251.364 210.068 252.878 209.116C253.19 208.918 253.602 209.017 253.796 209.334C253.99 209.651 253.894 210.068 253.581 210.265C252.04 211.234 250.469 212.147 248.91 212.977C248.811 213.03 248.705 213.055 248.6 213.055ZM192.092 213.087C191.99 213.087 191.887 213.064 191.791 213.014C190.134 212.162 188.568 211.218 187.136 210.211C186.833 209.998 186.758 209.576 186.968 209.27C187.178 208.963 187.593 208.887 187.896 209.1C189.278 210.073 190.792 210.984 192.394 211.808C192.723 211.978 192.854 212.385 192.687 212.717C192.57 212.952 192.335 213.087 192.092 213.087ZM202.041 216.911C201.982 216.911 201.922 216.903 201.863 216.886C200.077 216.386 198.353 215.821 196.738 215.207C196.393 215.077 196.218 214.686 196.347 214.337C196.477 213.987 196.862 213.81 197.206 213.941C198.784 214.541 200.471 215.093 202.218 215.584C202.573 215.683 202.781 216.055 202.683 216.415C202.601 216.715 202.333 216.911 202.041 216.911ZM238.801 217.309C238.522 217.309 238.261 217.129 238.168 216.845C238.053 216.491 238.242 216.108 238.592 215.991C240.226 215.443 241.885 214.803 243.523 214.089C243.861 213.942 244.254 214.1 244.399 214.443C244.545 214.786 244.388 215.184 244.05 215.331C242.377 216.06 240.682 216.714 239.011 217.274C238.941 217.298 238.871 217.309 238.801 217.309ZM212.477 219.066C212.446 219.066 212.415 219.064 212.383 219.059C210.56 218.797 208.779 218.491 207.092 218.146C206.731 218.072 206.497 217.715 206.57 217.349C206.643 216.983 206.993 216.748 207.356 216.82C209.018 217.16 210.772 217.462 212.57 217.721C212.935 217.773 213.189 218.115 213.137 218.485C213.09 218.822 212.804 219.066 212.477 219.066ZM228.412 219.683C228.078 219.683 227.79 219.43 227.751 219.086C227.708 218.715 227.969 218.379 228.335 218.335C230.041 218.133 231.785 217.827 233.518 217.428C233.876 217.346 234.234 217.574 234.316 217.937C234.398 218.302 234.173 218.664 233.814 218.747C232.034 219.157 230.244 219.47 228.491 219.679C228.464 219.682 228.438 219.683 228.412 219.683ZM223.094 220H223.093C222.015 219.999 220.931 219.957 219.873 219.875C219.14 219.819 218.418 219.757 217.708 219.689C217.341 219.655 217.072 219.325 217.106 218.953C217.14 218.582 217.465 218.301 217.832 218.344C218.534 218.41 219.248 218.471 219.974 218.527C221 218.606 222.05 218.646 223.095 218.648C223.463 218.648 223.761 218.952 223.761 219.325C223.761 219.698 223.462 220 223.094 220Z" fill="#AA4465"/>
</svg>
