<svg width="247" height="248" viewBox="0 0 247 248" fill="none" xmlns="http://www.w3.org/2000/svg">
<path fill-rule="evenodd" clip-rule="evenodd" d="M47.5347 227C44.0047 227 38.3995 226.353 31.7229 223.273C25.2432 220.285 19.316 215.723 14.1055 209.717C13.9447 209.531 13.9707 209.256 14.1633 209.101C14.3566 208.947 14.6428 208.972 14.8034 209.157C28.4576 224.899 43.2993 226.126 47.5372 226.126C47.5402 226.126 47.5469 226.127 47.5456 226.126C47.7965 226.126 48 226.322 48 226.563C48 226.804 47.7968 227 47.5459 227H47.5347Z" fill="#2A2B2E"/>
<path fill-rule="evenodd" clip-rule="evenodd" d="M48.2356 233C46.8487 233 41.4096 232.798 34.1736 229.931C26.5868 226.924 15.5532 220.28 6.07354 205.699C5.93838 205.491 5.99469 205.211 6.2001 205.074C6.40461 204.937 6.68085 204.995 6.81571 205.202C16.1673 219.586 27.0305 226.132 34.497 229.091C42.5661 232.289 48.4813 232.096 48.5382 232.094C48.7975 232.082 48.9902 232.279 48.9997 232.527C49.0091 232.776 48.818 232.985 48.5729 232.995C48.5423 232.996 48.4279 233 48.2356 233Z" fill="#2A2B2E"/>
<path fill-rule="evenodd" clip-rule="evenodd" d="M234.539 121C234.486 121 234.433 120.994 234.381 120.981C234.097 120.911 233.937 120.667 234.024 120.437C236.431 114.052 237.347 107.671 236.745 101.47C236.721 101.23 236.942 101.02 237.239 101.001C237.52 100.983 237.793 101.161 237.817 101.401C238.43 107.711 237.5 114.202 235.053 120.692C234.982 120.879 234.769 121 234.539 121Z" fill="#2A2B2E"/>
<path fill-rule="evenodd" clip-rule="evenodd" d="M239.453 128C239.4 128 239.347 127.991 239.295 127.971C239.06 127.883 238.941 127.619 239.029 127.383C243.515 115.265 244.292 103.217 241.337 91.5707C241.275 91.326 241.422 91.0771 241.664 91.0147C241.907 90.9513 242.153 91.0994 242.215 91.344C245.216 103.174 244.43 115.407 239.878 127.703C239.81 127.887 239.637 128 239.453 128Z" fill="#2A2B2E"/>
<path fill-rule="evenodd" clip-rule="evenodd" d="M5.52699 199.049C6.65731 199.311 7.78853 198.603 8.04894 197.473C8.17526 196.925 8.08089 196.361 7.78316 195.885C7.48542 195.408 7.01985 195.076 6.47246 194.95C5.34243 194.687 4.21061 195.396 3.95021 196.526C3.6895 197.657 4.39666 198.789 5.52699 199.049ZM6.00002 200C5.77724 200 5.55147 199.975 5.32541 199.923C3.71429 199.551 2.7055 197.937 3.077 196.325C3.4488 194.713 5.06411 193.707 6.67374 194.076C7.45436 194.257 8.11822 194.73 8.54288 195.409C8.96754 196.089 9.10222 196.893 8.92214 197.674C8.60261 199.06 7.36477 200 6.00002 200Z" fill="#2A2B2E"/>
<path fill-rule="evenodd" clip-rule="evenodd" d="M43.3387 88C43.3132 88 43.2873 87.9957 43.2613 87.9872C43.0795 87.9247 42.9665 87.6596 43.0089 87.3942L43.3319 85.3806C43.3744 85.1152 43.5557 84.9521 43.7384 85.0126C43.9205 85.0748 44.0335 85.3402 43.9911 85.6056L43.6681 87.6191C43.6315 87.8464 43.4926 88 43.3387 88Z" fill="#2A2B2E"/>
<path fill-rule="evenodd" clip-rule="evenodd" d="M45.3388 82C45.3135 82 45.2873 81.9957 45.2616 81.9872C45.0795 81.925 44.9665 81.6599 45.0089 81.3945L45.3318 79.3808C45.3744 79.1154 45.5558 78.9523 45.7384 79.0125C45.9205 79.0743 46.0335 79.3397 45.9911 79.6051L45.6682 81.6188C45.6317 81.8464 45.4927 82 45.3388 82Z" fill="#2A2B2E"/>
<path fill-rule="evenodd" clip-rule="evenodd" d="M48.5074 85C48.4716 85 48.4345 84.9973 48.3977 84.9916L46.3834 84.674C46.1184 84.6322 45.9522 84.4493 46.0123 84.2655C46.0727 84.0823 46.3342 83.9666 46.6022 84.0086L48.6165 84.326C48.8818 84.3681 49.048 84.5507 48.9876 84.7345C48.9357 84.8926 48.7324 85 48.5074 85Z" fill="#2A2B2E"/>
<path fill-rule="evenodd" clip-rule="evenodd" d="M41.5074 84C41.4712 84 41.4344 83.9973 41.3977 83.9916L39.3835 83.6739C39.1184 83.632 38.9522 83.4492 39.0123 83.2656C39.0731 83.0819 39.3365 82.9666 39.6022 83.0087L41.6164 83.3261C41.8818 83.3682 42.048 83.5508 41.9876 83.7346C41.9354 83.8927 41.7324 84 41.5074 84Z" fill="#2A2B2E"/>
<path fill-rule="evenodd" clip-rule="evenodd" d="M0.295213 44.7427C-0.418046 38.2661 -0.206621 28.9999 5.18141 21.1032C20.0812 -0.733883 65.6361 0.992625 75.019 18.1495C79.7811 26.857 75.3322 39.734 68.3092 46.9637C57.9245 57.6539 39.8518 58.1146 28.6259 52.2277C17.9375 46.6225 14.328 35.7202 7.69239 36.95C4.00356 37.6339 1.65896 41.6448 0.295213 44.7427Z" fill="#AA4465"/>
<path fill-rule="evenodd" clip-rule="evenodd" d="M21.4481 27C21.2068 27 21.0077 26.8163 21.0002 26.5836C20.9925 26.3462 21.1868 26.1476 21.4343 26.1404L59.5375 25.0003C59.7782 24.9914 59.9923 25.1791 59.9998 25.4168C60.0078 25.6541 59.8132 25.8524 59.5656 25.8596L21.4625 26.9997C21.4577 27 21.4529 27 21.4481 27Z" fill="white"/>
<path fill-rule="evenodd" clip-rule="evenodd" d="M30.4466 33C30.2061 33 30.0077 32.7438 30.0002 32.4193C29.9925 32.0884 30.1862 31.8114 30.4329 31.8014L49.5391 31.0012C49.7805 30.9793 49.9923 31.2506 49.9998 31.5816C50.0075 31.9125 49.8138 32.1895 49.5671 32.1995L30.4609 32.9996C30.4561 33 30.4514 33 30.4466 33Z" fill="white"/>
<path fill-rule="evenodd" clip-rule="evenodd" d="M101.417 84C102.345 82.5887 112.776 66.1188 105.345 47.9462C100.129 35.1879 87.5493 25.1147 73.3013 25.002C70.8977 24.983 55.7381 24.863 47.9902 37.3656C42.7724 45.7858 42.5292 57.3272 48.1063 65.542C54.7344 75.3045 66.85 76.3429 68.6468 76.4689C81.2254 77.3498 87.8849 68.9877 94.844 72.7033C99.1024 74.9767 100.713 80.2993 101.417 84Z" fill="#C9CEBD"/>
<path fill-rule="evenodd" clip-rule="evenodd" d="M58 49L94 48L58 49Z" fill="white"/>
<path fill-rule="evenodd" clip-rule="evenodd" d="M58.4515 49C58.2084 49 58.0078 48.8099 58.0002 48.569C57.9924 48.3234 58.1882 48.1178 58.4377 48.1104L94.534 47.001C94.785 46.9838 94.9916 47.1861 94.9998 47.4317C95.0076 47.6773 94.8118 47.8826 94.562 47.8903L58.466 48.9997C58.4612 49 58.4564 49 58.4515 49Z" fill="#2A2B2E"/>
<path fill-rule="evenodd" clip-rule="evenodd" d="M69 52.05L82 51.95L69 52.05Z" fill="white"/>
<path fill-rule="evenodd" clip-rule="evenodd" d="M69.4575 53C69.2112 53 69.0079 52.8523 69.0002 52.6651C68.9923 52.4743 69.1907 52.3146 69.4434 52.3089L82.5279 52.0005C82.7733 51.9899 82.9921 52.1443 82.9998 52.3351C83.008 52.526 82.8093 52.6857 82.5565 52.6914L69.4721 52.9998C69.4672 53 69.4624 53 69.4575 53Z" fill="#2A2B2E"/>
<path fill-rule="evenodd" clip-rule="evenodd" d="M40 110.308C38.5299 106.489 36.3968 98.2667 34.8186 95.6963C33.2401 93.126 31.3387 90.862 28.2255 88.6186C26.6276 87.4671 23.3561 85.2455 20.7939 84.3807C18.2316 83.5161 19.0485 88.6195 21.3281 89.6709C23.6075 90.7222 25.3017 92.4852 24.633 92.8866C24.1687 93.1654 22.844 94.4234 20.494 93.6978C17.8615 92.8848 16.2527 90.2548 16.4959 87.5116C16.538 87.0376 16.6168 86.5569 16.7482 86.094C17.5493 83.2661 16.3917 80.1984 13.7701 78.8671C12.5302 78.2377 11.0141 77.8642 9.19629 78.0461C6.31454 78.3343 4.59094 94.5079 15.1221 100.43C17.3021 101.656 26.4411 104.155 28.1786 106.905C29.9158 109.654 31.6712 115 31.6712 115L40 110.308Z" fill="white"/>
<path fill-rule="evenodd" clip-rule="evenodd" d="M9.55628 78.9054C9.27298 78.9054 8.98634 78.9199 8.69608 78.9489C8.2687 78.9914 7.63005 79.8882 7.23779 81.7558C6.19023 86.7443 7.31618 96.2214 14.7959 100.417C15.4324 100.774 16.7515 101.267 18.2788 101.838C22.0392 103.244 26.7192 104.994 28.0053 107.024C29.4496 109.303 30.8758 113.251 31.3665 114.672L38.8731 110.454C38.3556 109.059 37.7705 107.205 37.1539 105.25C36.0658 101.802 34.8327 97.8925 33.8702 96.3294C32.1083 93.4673 30.1739 91.3964 27.4026 89.4046C25.7382 88.2081 22.5759 86.0765 20.0961 85.2416C19.5077 85.0442 19.3239 85.2763 19.2228 85.5307C18.8185 86.543 19.5416 89.0204 20.9653 89.6752C22.7081 90.4773 24.6232 91.9682 24.678 92.9791C24.6943 93.2754 24.5605 93.531 24.3114 93.6798C24.2621 93.7096 24.2012 93.7525 24.1289 93.8032C23.5157 94.2311 22.0798 95.2335 19.8073 94.5325C17.0414 93.6807 15.2275 90.8886 15.4939 87.8937C15.5417 87.3563 15.6316 86.8526 15.7611 86.3973C16.5221 83.7193 15.3674 80.9112 13.0162 79.7201C11.9462 79.1782 10.7858 78.9054 9.55628 78.9054ZM30.8528 116L30.6806 115.476C30.6631 115.423 28.9233 110.168 27.2374 107.507C26.1145 105.734 21.4015 103.972 17.9601 102.686C16.3977 102.102 15.0483 101.597 14.3507 101.206C6.44811 96.7733 5.24891 86.8095 6.34883 81.5702C6.80496 79.3988 7.60675 78.1477 8.60558 78.0481C10.3326 77.8758 11.9544 78.1664 13.4275 78.9133C16.1646 80.2995 17.5136 83.5509 16.635 86.6441C16.5208 87.0455 16.4412 87.4924 16.3983 87.9739C16.1697 90.5461 17.7161 92.9411 20.0755 93.6677C21.9239 94.2377 23.0193 93.4725 23.6077 93.0615C23.6622 93.0238 23.7118 92.9894 23.756 92.9598C23.6141 92.5572 22.496 91.3765 20.5849 90.4975C18.7731 89.6638 17.7742 86.7102 18.379 85.196C18.7068 84.3744 19.458 84.0714 20.3863 84.384C22.979 85.2567 26.2277 87.4441 27.9335 88.6701C30.7702 90.7087 32.8399 92.9251 34.6442 95.856C35.6654 97.5144 36.8625 101.309 38.0202 104.979C38.6879 107.096 39.3187 109.095 39.8593 110.495L40 110.86L30.8528 116Z" fill="#2A2B2E"/>
<path fill-rule="evenodd" clip-rule="evenodd" d="M26 116.93L43.0917 106C43.0917 106 72.703 146.402 82.4229 149.263C92.1431 152.124 108.598 153.381 108.598 153.381C108.598 153.381 118.917 179.276 96.7792 190.635C61.4936 208.742 26 116.93 26 116.93Z" fill="#AA4465"/>
<path fill-rule="evenodd" clip-rule="evenodd" d="M109.954 206.068L199.317 218C195.278 205.108 194.049 185.086 197.431 171.998C205.651 140.191 208.637 112.357 191.435 105.674C187.027 103.961 182.059 102.384 176.486 100.893C158.703 96.1342 125.622 96.3684 107.676 108.323C79.1813 127.306 72 168.494 72 168.494L108.823 174.919L109.954 206.068Z" fill="#AA4465"/>
<path fill-rule="evenodd" clip-rule="evenodd" d="M47 209L47.2495 213.179C47.2833 213.741 47.6728 214.221 48.22 214.373L168.525 247.842C169.853 248.211 171.279 247.925 172.358 247.074L198 225.767L189.023 216.236L47 209Z" fill="white"/>
<path fill-rule="evenodd" clip-rule="evenodd" d="M47.9334 208.922L48.1529 212.613C48.1755 212.985 48.4334 213.303 48.7954 213.404L169.177 246.962C170.362 247.293 171.644 247.035 172.607 246.273L197.892 225.221L189.359 216.143L47.9334 208.922ZM170.208 248C169.781 248 169.352 247.943 168.932 247.826L48.5511 214.268C47.8183 214.063 47.296 213.419 47.2511 212.666L47.0014 208.475C46.9939 208.348 47.0412 208.223 47.1318 208.132C47.2222 208.042 47.3436 207.994 47.4755 208.001L189.588 215.257C189.705 215.262 189.815 215.313 189.895 215.398L198.878 224.955C198.962 225.045 199.006 225.166 198.998 225.288C198.991 225.411 198.933 225.526 198.838 225.605L173.179 246.968C172.324 247.644 171.273 248 170.208 248Z" fill="#C9CEBD"/>
<path fill-rule="evenodd" clip-rule="evenodd" d="M47 208.044L168.414 240.869C169.604 241.19 170.877 240.913 171.825 240.127L199 217.589L84.2828 188L47 208.044Z" fill="#C9CEBD"/>
<path fill-rule="evenodd" clip-rule="evenodd" d="M211.716 191L200.58 211.531C199.564 213.405 197.259 214.084 195.427 213.05L188.415 209.304C187.621 208.856 186.563 208.476 185.469 208.249C183.621 207.867 181.703 208.366 180.239 209.583L169.406 218.586C163.963 224.543 175.908 225.837 178.3 225.576L182.408 225.128C182.408 225.128 186.938 225.32 190.566 226.636C194.193 227.952 199.316 228.784 204.564 226.891L204.974 226.743C208.113 225.611 210.804 223.459 212.638 220.615L226 199.896L211.716 191Z" fill="white"/>
<path fill-rule="evenodd" clip-rule="evenodd" d="M182.886 225.214C182.892 225.214 182.898 225.214 182.904 225.214C183.092 225.222 187.552 225.424 191.209 226.752C193.895 227.727 199.249 229.057 204.927 227.008L205.339 226.859C208.37 225.765 211.017 223.647 212.789 220.897L225.918 200.519L212.409 192.099L201.483 212.261C200.93 213.28 200.023 214.017 198.929 214.337C197.841 214.654 196.697 214.522 195.707 213.963L188.693 210.213C187.928 209.781 186.899 209.413 185.862 209.199C184.147 208.844 182.375 209.296 180.999 210.441L170.172 219.447C169.014 220.723 168.649 221.82 169.086 222.706C170.279 225.12 176.852 225.871 178.722 225.665L182.838 225.216C182.854 225.214 182.87 225.214 182.886 225.214ZM198.645 229C195.39 229 192.624 228.238 190.905 227.614C187.539 226.392 183.312 226.151 182.899 226.13L178.818 226.576C177.397 226.728 169.853 226.3 168.281 223.116C167.655 221.848 168.076 220.397 169.532 218.801C169.546 218.786 169.561 218.772 169.577 218.759L180.428 209.733C182.015 208.413 184.059 207.891 186.042 208.302C187.182 208.537 188.276 208.93 189.121 209.408L196.135 213.158C196.924 213.603 197.824 213.708 198.68 213.457C199.543 213.205 200.258 212.623 200.694 211.819L211.848 191.237C211.907 191.127 212.008 191.047 212.127 191.015C212.247 190.983 212.373 191.002 212.478 191.068L226.785 199.986C226.889 200.05 226.962 200.155 226.989 200.276C227.016 200.396 226.993 200.523 226.926 200.627L213.543 221.398C211.663 224.315 208.856 226.561 205.64 227.722L205.228 227.87C202.934 228.698 200.693 229 198.645 229Z" fill="#2A2B2E"/>
<mask id="mask0_0:5626" style="mask-type:alpha" maskUnits="userSpaceOnUse" x="183" y="102" width="64" height="114">
<path fill-rule="evenodd" clip-rule="evenodd" d="M183 102H247V216H183V102Z" fill="white"/>
</mask>
<g mask="url(#mask0_0:5626)">
<path fill-rule="evenodd" clip-rule="evenodd" d="M189.594 155.804C208.738 158.817 205.493 176.559 205.493 176.559L201.49 203.401L220.702 216C220.702 216 259.198 174.261 243.038 140.724C229.655 112.948 183 102 183 102L189.594 155.804Z" fill="#AA4465"/>
</g>
<path fill-rule="evenodd" clip-rule="evenodd" d="M131.591 71.2115C129.442 70.2312 128.329 71.8635 125.126 71.4213C121.724 70.9513 117.98 68.4182 116.575 64.7148C114.879 60.2423 117.324 55.9792 118.865 53.2908C120.399 50.6172 122.35 47.6396 125.735 46.3542C130.149 44.6777 131.994 47.2517 137.047 45.6718C141.156 44.3876 140.855 42.3974 144.513 41.3525C147.562 40.4816 156.347 40.9788 158.314 45.6718C159.561 48.65 156.871 50.4628 158.212 54.8755C159.017 57.5242 160.284 57.8493 161.207 59.8948C163.498 64.9699 160.626 73.8838 155.159 76.8699C147.739 80.9223 135.299 72.9023 131.591 71.2115Z" fill="#2A2B2E"/>
<path fill-rule="evenodd" clip-rule="evenodd" d="M138.336 79.7573L136.626 94.2675C136.301 97.0308 134.375 99.3078 131.769 100.01L126.844 101.635C125.884 101.952 125.691 103.288 126.534 103.859C138.98 112.288 156.151 112.14 168.065 102.795L169.459 101.701C170.385 100.975 170.066 99.461 168.931 99.1991L162.837 97.7915C160.261 97.1968 158.28 95.0626 157.812 92.3764L154.085 71L138.336 79.7573Z" fill="white"/>
<path fill-rule="evenodd" clip-rule="evenodd" d="M139.23 80.2809L137.544 94.2234C137.193 97.1225 135.152 99.4717 132.345 100.209L127.431 101.789C127.142 101.882 126.945 102.121 126.903 102.427C126.861 102.727 126.984 103.002 127.23 103.165C139.796 111.458 156.701 111.037 168.34 102.144L169.738 101.076C170.034 100.849 170.162 100.495 170.082 100.128C170.002 99.7662 169.741 99.5015 169.383 99.4209L163.274 98.0463C160.509 97.4247 158.397 95.2084 157.895 92.4012L154.268 72.1334L139.23 80.2809ZM147.22 110C140.091 110 132.904 107.979 126.736 103.909C126.204 103.558 125.928 102.944 126.016 102.306C126.105 101.661 126.542 101.138 127.156 100.94L132.094 99.3531C134.567 98.7027 136.349 96.6499 136.655 94.1166L138.369 79.9454C138.386 79.8021 138.472 79.676 138.6 79.6067L154.386 71.0544C154.512 70.986 154.664 70.9815 154.794 71.0443C154.923 71.1064 155.015 71.2269 155.04 71.3679L158.776 92.2444C159.215 94.6975 161.058 96.6333 163.471 97.1764L169.579 98.551C170.274 98.7071 170.802 99.2383 170.956 99.9372C171.111 100.64 170.853 101.348 170.282 101.784L168.884 102.852C162.664 107.605 154.977 110 147.22 110Z" fill="#2A2B2E"/>
<path fill-rule="evenodd" clip-rule="evenodd" d="M152.079 74.9297C152.079 74.9297 157.5 72.2 155.594 66.9926C153.852 62.2317 150.117 66.9667 150.117 66.9667C150.117 66.9667 147.043 55.5481 140.582 60.0516C134.121 64.5558 128 66.1919 128 66.1919C128 66.1919 130.276 77.6842 134.362 85.3308C136.827 89.9426 139.95 93.1557 143.631 91.6058C153.707 87.3635 152.079 74.9297 152.079 74.9297Z" fill="white"/>
<path fill-rule="evenodd" clip-rule="evenodd" d="M128.952 65.978C129.4 68.0838 131.617 77.923 135.213 84.6399C138.047 89.9351 140.994 91.9868 143.971 90.7334C153.668 86.6581 152.206 74.6059 152.19 74.4842C152.165 74.2937 152.262 74.1076 152.43 74.0221C152.638 73.9171 157.493 71.3953 155.744 66.6225C155.341 65.5222 154.809 64.9096 154.164 64.8026C152.963 64.6061 151.469 66.1197 150.994 66.7209C150.891 66.8519 150.724 66.9117 150.564 66.8782C150.404 66.8438 150.275 66.7203 150.231 66.5582C150.214 66.4966 148.523 60.3683 145.197 59.1176C143.996 58.6669 142.693 58.9214 141.321 59.8752C135.79 63.7256 130.436 65.5245 128.952 65.978ZM142.245 92C139.527 92 136.911 89.68 134.445 85.0711C130.355 77.4314 128.032 65.8673 128.009 65.7512C127.962 65.518 128.103 65.288 128.327 65.2279C128.388 65.2114 134.483 63.55 140.829 59.1331C142.448 58.0068 144.02 57.7185 145.5 58.2757C148.527 59.4155 150.254 63.7845 150.845 65.5655C151.574 64.8274 152.944 63.6915 154.304 63.917C155.282 64.0791 156.042 64.8833 156.564 66.3072C158.335 71.1389 154.21 74.0018 153.089 74.6738C153.254 76.6564 153.716 87.6071 144.304 91.5636C143.612 91.8546 142.925 92 142.245 92Z" fill="#2A2B2E"/>
<path fill-rule="evenodd" clip-rule="evenodd" d="M142.338 85L142 84.196L151.283 80.8371C155.434 79.3355 157.785 75.309 156.874 71.2638L155.953 67.1763L156.865 67L157.785 71.0875C158.789 75.5472 156.197 79.9854 151.621 81.6412L142.338 85Z" fill="#2A2B2E"/>
<path fill-rule="evenodd" clip-rule="evenodd" d="M155.55 62C155.356 62 155.176 61.8786 155.119 61.6913C155.085 61.5843 151.732 50.9331 144.272 47.1728C141.301 45.6757 138.043 45.4605 134.589 46.5353C134.352 46.6084 134.099 46.4845 134.022 46.259C133.945 46.0329 134.075 45.7902 134.311 45.7164C138.006 44.567 141.499 44.8017 144.694 46.4128C152.491 50.3452 155.843 60.9967 155.982 61.448C156.052 61.6761 155.916 61.9154 155.677 61.9822C155.635 61.9943 155.592 62 155.55 62Z" fill="#AA4465"/>
<path fill-rule="evenodd" clip-rule="evenodd" d="M139.849 87.1291C138.694 85.9621 138.721 84.0624 139.909 82.8865C141.097 81.7107 142.996 81.7036 144.151 82.8706C145.306 84.038 145.279 85.9373 144.091 87.1135C142.903 88.2893 141.004 88.2964 139.849 87.1291Z" fill="#AA4465"/>
<path fill-rule="evenodd" clip-rule="evenodd" d="M150.607 70.2607C149.047 66.4607 150.598 62.2167 154.071 60.7812C154.451 60.6238 155.903 60.1889 156.294 60.11C159.472 59.471 161.796 61.6796 163.185 65.0628C164.683 68.7116 164.203 72.6328 161.017 74.2207C160.884 74.2866 159.909 74.6378 159.765 74.6776C155.826 75.7634 152.167 74.0607 150.607 70.2607Z" fill="#C9CEBD"/>
<path fill-rule="evenodd" clip-rule="evenodd" d="M151.518 70.3523C150.116 66.7122 151.657 62.7083 154.961 61.409C158.264 60.1101 162.079 62.0076 163.482 65.6477C164.884 69.2878 163.343 73.2917 160.039 74.591C156.736 75.8899 152.921 73.9924 151.518 70.3523Z" fill="#AA4465"/>
<path fill-rule="evenodd" clip-rule="evenodd" d="M132.83 224.882L38.4722 197.44C37.0074 197.014 36 195.672 36 194.145V129.434C36 127.147 38.1919 125.501 40.386 126.138L134.744 153.58C136.209 154.006 137 155.37 137 156.896L136.856 221.179C136.856 223.466 135.024 225.52 132.83 224.882Z" fill="white"/>
<path fill-rule="evenodd" clip-rule="evenodd" d="M135.05 153.257L134 153V225C136.147 224.962 138 223.51 138 221.577V156.568C138 155.034 136.798 153.685 135.05 153.257Z" fill="#2A2B2E"/>
<path fill-rule="evenodd" clip-rule="evenodd" d="M91.5592 228.549V176.865C91.5592 174.286 89.8821 172.013 87.4349 171.275L73.7837 167.159C71.3982 166.44 69 168.244 69 170.758V234.893C69 236.384 69.9688 237.697 71.3825 238.123L90.4087 243.859C91.1525 244.083 91.9503 244.039 92.6651 243.733L109.186 236.669C110.328 236.18 110.25 234.521 109.068 234.144L91.5592 228.549Z" fill="#C9CEBD"/>
<path fill-rule="evenodd" clip-rule="evenodd" d="M96.3414 153.979L71.5665 146.673C71.2303 146.574 71 146.27 71 145.924V143.796C71 143.263 71.5219 142.881 72.0408 143.034L96.1189 150.134C96.6418 150.288 97 150.761 97 151.299V153.496C97 153.833 96.6696 154.075 96.3414 153.979Z" fill="#2A2B2E"/>
<path fill-rule="evenodd" clip-rule="evenodd" d="M92.5 242C92.224 242 92 241.799 92 241.551V227.449C92 227.201 92.224 227 92.5 227C92.776 227 93 227.201 93 227.449V241.551C93 241.799 92.776 242 92.5 242Z" fill="#CADDFF"/>
<path fill-rule="evenodd" clip-rule="evenodd" d="M92.3176 244C91.9434 244 91.5729 243.946 91.2132 243.84L71.7598 238.084C70.135 237.603 69 236.094 69 234.413V208.449C69 208.201 69.203 208 69.453 208C69.7031 208 69.906 208.201 69.906 208.449V234.413C69.906 235.7 70.7749 236.855 72.0186 237.223L91.4723 242.979C91.8115 243.08 92.1621 243.119 92.5167 243.096C92.7607 243.081 92.9821 243.266 92.999 243.514C93.0156 243.761 92.8265 243.975 92.5768 243.992C92.4904 243.997 92.404 244 92.3176 244Z" fill="#2A2B2E"/>
<path fill-rule="evenodd" clip-rule="evenodd" d="M69.4535 209C69.2032 209 69 208.799 69 208.552V170.215C69 168.871 69.625 167.64 70.7153 166.838C71.8054 166.035 73.1778 165.795 74.4801 166.179L88.4542 170.303C91.1308 171.093 93 173.573 93 176.334L92.6762 196.919C92.6722 197.167 92.4811 197.366 92.2154 197.361C91.965 197.357 91.7651 197.153 91.7691 196.905L92.0929 176.327C92.0929 173.966 90.4898 171.84 88.1948 171.162L74.221 167.039C73.195 166.736 72.1156 166.925 71.2572 167.557C70.3993 168.188 69.9071 169.157 69.9071 170.215V208.552C69.9071 208.799 69.7039 209 69.4535 209Z" fill="#2A2B2E"/>
<path fill-rule="evenodd" clip-rule="evenodd" d="M92.4985 233C92.223 233 92 232.803 92 232.56L92.003 215.44C92.003 215.197 92.2263 215 92.5015 215C92.777 215 93 215.197 93 215.44L92.997 232.56C92.997 232.803 92.7737 233 92.4985 233Z" fill="#2A2B2E"/>
<path fill-rule="evenodd" clip-rule="evenodd" d="M134.184 225C133.876 225 133.564 224.955 133.252 224.865L98.289 214.696C98.0513 214.627 97.9143 214.378 97.9834 214.14C98.0528 213.902 98.3007 213.765 98.5396 213.834L133.503 224.002C134.445 224.276 135.17 223.94 135.611 223.609C136.442 222.984 136.958 221.88 136.958 220.727L137.103 156.377C137.103 154.943 136.361 153.837 135.168 153.489L40.7131 126.019C39.8034 125.754 38.8467 125.929 38.0895 126.499C37.3317 127.068 36.8972 127.938 36.8972 128.887V193.665C36.8972 194.985 37.7818 196.164 39.0483 196.533L66.3128 204.462C66.5506 204.531 66.6876 204.78 66.6182 205.018C66.5491 205.257 66.3012 205.393 66.0622 205.324L38.7977 197.395C37.1505 196.916 36 195.382 36 193.665V128.887C36 127.653 36.5649 126.521 37.5506 125.781C38.536 125.04 39.7795 124.813 40.9637 125.157L135.419 152.627C136.987 153.083 138 154.555 138 156.378L137.856 220.728C137.856 222.156 137.202 223.536 136.149 224.327C135.557 224.771 134.881 225 134.184 225Z" fill="#2A2B2E"/>
<path fill-rule="evenodd" clip-rule="evenodd" d="M176.519 24.7414C181.356 17.0199 191.537 14.682 199.259 19.519C206.98 24.3564 209.318 34.537 204.481 42.2586C199.644 49.9801 189.463 52.318 181.741 47.481C174.02 42.6436 171.682 32.463 176.519 24.7414Z" fill="white"/>
<path fill-rule="evenodd" clip-rule="evenodd" d="M191.026 17.9118C189.817 17.9118 188.601 18.0485 187.394 18.3258C183.205 19.2877 179.643 21.8229 177.361 25.4642C172.652 32.9817 174.936 42.929 182.454 47.6385C189.971 52.3489 199.919 50.0637 204.628 42.5462C206.909 38.9046 207.636 34.5924 206.674 30.4043C205.712 26.2161 203.177 22.6532 199.536 20.3719C196.943 18.7478 194.011 17.9118 191.026 17.9118ZM190.967 51C187.885 51.0003 184.769 50.1646 181.97 48.411C174.027 43.4345 171.613 32.9237 176.589 24.9806C178.999 21.1326 182.764 18.4537 187.189 17.4372C191.616 16.4213 196.172 17.1893 200.019 19.5994C203.867 22.01 206.546 25.7747 207.563 30.2001C208.579 34.6256 207.811 39.1819 205.4 43.0298C202.177 48.1744 196.632 50.9997 190.967 51Z" fill="#2A2B2E"/>
<path fill-rule="evenodd" clip-rule="evenodd" d="M193.965 43.765L180.704 35.2409C180.002 34.7896 179.789 33.8396 180.229 33.1189L185.966 23.7224C186.406 23.002 187.332 22.7837 188.034 23.2349L201.296 31.7591C201.998 32.2103 202.211 33.1603 201.771 33.881L196.033 43.2775C195.594 43.9982 194.668 44.2162 193.965 43.765Z" fill="#C9CEBD"/>
<path fill-rule="evenodd" clip-rule="evenodd" d="M186.722 23.9166C186.642 23.9166 186.563 23.9258 186.483 23.9444C186.207 24.0095 185.971 24.1807 185.821 24.4271L180.056 33.8606C179.905 34.1069 179.858 34.3985 179.921 34.6815C179.984 34.9645 180.152 35.2057 180.392 35.3595L193.717 43.9175C193.957 44.0719 194.242 44.1208 194.518 44.0558C194.794 43.9907 195.03 43.8192 195.18 43.5731L200.945 34.1396C201.256 33.631 201.105 32.9585 200.609 32.6404L187.284 24.083C187.113 23.9731 186.919 23.9166 186.722 23.9166ZM194.277 45C193.914 45 193.558 44.8959 193.243 44.6938L179.917 36.1358C179.475 35.8519 179.167 35.4081 179.05 34.8866C178.934 34.3652 179.022 33.8279 179.299 33.3743L185.064 23.9411C185.341 23.4874 185.774 23.1718 186.283 23.0518C186.791 22.9315 187.315 23.0225 187.758 23.3067L201.084 31.864C201.997 32.4505 202.274 33.6893 201.702 34.6256L195.937 44.0591C195.66 44.5131 195.227 44.8284 194.718 44.9484C194.572 44.9829 194.424 45 194.277 45Z" fill="#2A2B2E"/>
<path fill-rule="evenodd" clip-rule="evenodd" d="M190.542 35C190.368 35 190.202 34.9091 190.125 34.7551L187.042 28.5966C186.936 28.3854 187.037 28.1355 187.267 28.0384C187.497 27.9417 187.769 28.0339 187.875 28.2449L190.958 34.4034C191.064 34.6146 190.963 34.8645 190.733 34.9616C190.671 34.9877 190.606 35 190.542 35Z" fill="#2A2B2E"/>
<path fill-rule="evenodd" clip-rule="evenodd" d="M190.442 35C190.202 35 190.005 34.814 190 34.5803C189.995 34.3437 190.189 34.148 190.433 34.1429L197.549 34C197.782 34.0046 197.995 34.1831 198 34.4197C198.005 34.6563 197.811 34.852 197.567 34.8571L190.451 35H190.442Z" fill="#2A2B2E"/>
<path fill-rule="evenodd" clip-rule="evenodd" d="M129.073 18.041C128.222 8.96878 134.887 0.924009 143.959 0.0732361C153.031 -0.77784 161.076 5.88685 161.927 14.959C162.778 24.0312 156.113 32.076 147.041 32.9268C137.969 33.7778 129.924 27.1131 129.073 18.041Z" fill="white"/>
<path fill-rule="evenodd" clip-rule="evenodd" d="M146.029 0.911127C145.521 0.911127 145.01 0.934823 144.498 0.982821C135.666 1.81155 129.155 9.67054 129.983 18.5023C130.764 26.8251 137.79 33.0871 145.988 33.0877C146.49 33.0877 146.994 33.0646 147.503 33.0169C151.781 32.6153 155.647 30.5721 158.388 27.2629C161.129 23.954 162.418 19.7757 162.017 15.4975C161.616 11.219 159.572 7.35295 156.263 4.61187C153.351 2.19858 149.764 0.911127 146.029 0.911127ZM145.97 34C142.023 34 138.234 32.6396 135.156 30.0896C131.659 27.193 129.5 23.1077 129.076 18.5873C128.652 14.0667 130.014 9.65141 132.91 6.15511C135.807 2.65882 139.892 0.499798 144.413 0.0757107C148.933 -0.347466 153.349 1.0132 156.845 3.90982C160.341 6.80643 162.5 10.8918 162.924 15.4121C163.348 19.9328 161.986 24.3477 159.09 27.8443C156.193 31.3409 152.108 33.5 147.588 33.9241C147.047 33.9748 146.507 34 145.97 34Z" fill="#2A2B2E"/>
<path fill-rule="evenodd" clip-rule="evenodd" d="M152.864 23.5689L150.642 20.9711C150.457 20.7555 150.066 20.583 149.771 20.5865L149.398 20.5934C149.06 20.5993 148.732 20.678 148.42 20.7988C147.543 21.1384 146.127 21.15 144.276 18.1246C142.435 15.1177 143.135 13.963 143.881 13.4134C144.205 13.174 144.468 12.8693 144.68 12.5364L144.764 12.4062C144.915 12.1677 144.952 11.7616 144.847 11.5025L143.573 8.38845C143.467 8.12933 143.144 7.95852 142.854 8.00877L142.033 8.15111C141.342 8.2708 140.703 8.59615 140.247 9.09928C138.304 11.2376 138.63 15.5244 141.236 19.7804C143.848 24.0474 147.632 26.4588 150.569 25.9272C151.246 25.8046 151.853 25.4542 152.3 24.959L152.854 24.3446C153.045 24.1337 153.049 23.7839 152.864 23.5689Z" fill="#AA4465"/>
<path fill-rule="evenodd" clip-rule="evenodd" d="M236 69C236 77.2842 229.284 84 221 84C212.716 84 206 77.2842 206 69C206 60.7158 212.716 54 221 54C229.284 54 236 60.7158 236 69Z" fill="white"/>
<path fill-rule="evenodd" clip-rule="evenodd" d="M221.5 53.8897C213.444 53.8897 206.89 60.444 206.89 68.5003C206.89 76.5563 213.444 83.1103 221.5 83.1103C229.556 83.1103 236.11 76.5563 236.11 68.5003C236.11 60.444 229.556 53.8897 221.5 53.8897ZM221.5 84C212.953 84 206 77.0469 206 68.5003C206 59.9531 212.953 53 221.5 53C230.047 53 237 59.9531 237 68.5003C237 77.0469 230.047 84 221.5 84Z" fill="#2A2B2E"/>
<path fill-rule="evenodd" clip-rule="evenodd" d="M210 73V72.5436C210 70.6216 210.765 70.2613 212.916 68.928C213.884 68.3273 214.243 68.027 214.243 67.4745C214.243 66.8259 213.765 66.5014 212.57 66.5014C211.924 66.5014 211.147 66.6216 210.37 66.8018L210.084 65.4085C210.968 65.1322 212.032 65 212.773 65C214.865 65 215.964 65.9489 215.964 67.4025C215.964 68.5195 215.283 69.1681 214.016 69.9971C213.024 70.6457 212.128 71.1262 212.02 71.4986H216V73H210Z" fill="#AA4465"/>
<path fill-rule="evenodd" clip-rule="evenodd" d="M220.139 66.9024L217.682 69.8293H220.139V66.9024ZM221.833 71.2683V73H220.139V71.2683H216V69.7317L219.93 65H221.833V69.8293H223V71.2683H221.833Z" fill="#AA4465"/>
<path fill-rule="evenodd" clip-rule="evenodd" d="M224.621 74H223L226.372 65H228L224.621 74Z" fill="#AA4465"/>
<path fill-rule="evenodd" clip-rule="evenodd" d="M233 65.9889L229.888 73H227.852L230.97 66.4285H227V65H233V65.9889Z" fill="#AA4465"/>
</svg>
