<svg width="57" height="58" viewBox="0 0 57 58" fill="none" xmlns="http://www.w3.org/2000/svg">
<path fill-rule="evenodd" clip-rule="evenodd" d="M56 29.1543C56 44.6183 43.464 57.1543 28 57.1543C12.536 57.1543 0 44.6183 0 29.1543C0 13.6893 12.536 1.1543 28 1.1543C43.464 1.1543 56 13.6893 56 29.1543Z" fill="#C9CEBC"/>
<path fill-rule="evenodd" clip-rule="evenodd" d="M37 57H50V19H37V57Z" fill="#AA4465"/>
<path fill-rule="evenodd" clip-rule="evenodd" d="M50.1304 39.6661C52.9962 39.6661 55.4355 36.9267 55.4355 34.3332V25C55.4355 20.5965 48.1062 18.3333 43.5 18.3333" fill="#AA4465"/>
<path d="M50.1304 39.6661C52.9962 39.6661 55.4355 36.9267 55.4355 34.3332V25C55.4355 20.5965 48.1062 18.3333 43.5 18.3333" stroke="#2A2B2E" stroke-width="2" stroke-linejoin="round"/>
<path fill-rule="evenodd" clip-rule="evenodd" d="M36.8696 39.6661C34.0038 39.6661 31.5645 36.9267 31.5645 34.3332V25C31.5645 20.5965 38.8926 18.3333 43.5 18.3333" fill="#AA4465"/>
<path d="M36.8696 39.6661C34.0038 39.6661 31.5645 36.9267 31.5645 34.3332V25C31.5645 20.5965 38.8926 18.3333 43.5 18.3333" stroke="#2A2B2E" stroke-width="2" stroke-linejoin="round"/>
<path d="M50.1307 57V26.334" stroke="#2A2B2E" stroke-width="2" stroke-linejoin="round"/>
<path d="M36.869 26.3337V56.9998" stroke="#2A2B2E" stroke-width="2" stroke-linejoin="round"/>
<path d="M43.4998 38.3335V56.9999" stroke="#2A2B2E" stroke-width="2" stroke-linejoin="round"/>
<path fill-rule="evenodd" clip-rule="evenodd" d="M43.4992 14.3335C46.5903 14.3335 48.8043 12.1561 48.8043 8.99934V6.33289C48.8043 3.17873 46.5903 1 43.4992 1C40.4093 1 38.1953 3.17873 38.1953 6.33289V8.99934C38.1953 12.1561 40.4093 14.3335 43.4992 14.3335Z" fill="#AA4465"/>
<path fill-rule="evenodd" clip-rule="evenodd" d="M43.4992 14.3335C46.5903 14.3335 48.8043 12.1561 48.8043 8.99934V6.33289C48.8043 3.17873 46.5903 1 43.4992 1C40.4093 1 38.1953 3.17873 38.1953 6.33289V8.99934C38.1953 12.1561 40.4093 14.3335 43.4992 14.3335Z" stroke="#2A2B2E" stroke-width="2" stroke-linejoin="round"/>
<path fill-rule="evenodd" clip-rule="evenodd" d="M7 57H20V19H7V57Z" fill="#AA4465"/>
<path fill-rule="evenodd" clip-rule="evenodd" d="M20.1304 39.6661C22.9962 39.6661 25.4355 36.9267 25.4355 34.3332V25C25.4355 20.5965 18.1062 18.3333 13.5 18.3333" fill="#AA4465"/>
<path d="M20.1304 39.6661C22.9962 39.6661 25.4355 36.9267 25.4355 34.3332V25C25.4355 20.5965 18.1062 18.3333 13.5 18.3333" stroke="#2A2B2E" stroke-width="2" stroke-linejoin="round"/>
<path fill-rule="evenodd" clip-rule="evenodd" d="M6.86957 39.6661C4.00376 39.6661 1.56445 36.9267 1.56445 34.3332V25C1.56445 20.5965 8.89256 18.3333 13.5 18.3333" fill="#AA4465"/>
<path d="M6.86957 39.6661C4.00376 39.6661 1.56445 36.9267 1.56445 34.3332V25C1.56445 20.5965 8.89256 18.3333 13.5 18.3333" stroke="#2A2B2E" stroke-width="2" stroke-linejoin="round"/>
<path d="M20.1307 57V26.334" stroke="#2A2B2E" stroke-width="2" stroke-linejoin="round"/>
<path d="M6.86898 26.3337V56.9998" stroke="#2A2B2E" stroke-width="2" stroke-linejoin="round"/>
<path d="M13.4998 38.3335V56.9999" stroke="#2A2B2E" stroke-width="2" stroke-linejoin="round"/>
<path fill-rule="evenodd" clip-rule="evenodd" d="M13.4992 14.3335C16.5903 14.3335 18.8043 12.1561 18.8043 8.99934V6.33289C18.8043 3.17873 16.5903 1 13.4992 1C10.4093 1 8.19531 3.17873 8.19531 6.33289V8.99934C8.19531 12.1561 10.4093 14.3335 13.4992 14.3335Z" fill="#AA4465"/>
<path fill-rule="evenodd" clip-rule="evenodd" d="M13.4992 14.3335C16.5903 14.3335 18.8043 12.1561 18.8043 8.99934V6.33289C18.8043 3.17873 16.5903 1 13.4992 1C10.4093 1 8.19531 3.17873 8.19531 6.33289V8.99934C8.19531 12.1561 10.4093 14.3335 13.4992 14.3335Z" stroke="#2A2B2E" stroke-width="2" stroke-linejoin="round"/>
<path fill-rule="evenodd" clip-rule="evenodd" d="M22 57H35V19H22V57Z" fill="#AA4465"/>
<path fill-rule="evenodd" clip-rule="evenodd" d="M34.6662 39C37.5475 39 40 36.3033 40 33.7503V24.5627C40 20.2279 32.631 18 28 18" fill="#AA4465"/>
<path d="M34.6662 39C37.5475 39 40 36.3033 40 33.7503V24.5627C40 20.2279 32.631 18 28 18" stroke="#2A2B2E" stroke-width="2" stroke-linejoin="round"/>
<path fill-rule="evenodd" clip-rule="evenodd" d="M22.3338 39C19.4525 39 17 36.3033 17 33.7503V24.5627C17 20.2279 24.3677 18 29 18" fill="#AA4465"/>
<path d="M22.3338 39C19.4525 39 17 36.3033 17 33.7503V24.5627C17 20.2279 24.3677 18 29 18" stroke="#2A2B2E" stroke-width="2" stroke-linejoin="round"/>
<path d="M35.5 57V26" stroke="#2A2B2E" stroke-width="2" stroke-linejoin="round"/>
<path d="M21.5 26V57" stroke="#2A2B2E" stroke-width="2" stroke-linejoin="round"/>
<path d="M28.5 38V57" stroke="#2A2B2E" stroke-width="2" stroke-linejoin="round"/>
<path fill-rule="evenodd" clip-rule="evenodd" d="M28.4993 14C31.7044 14 34 11.877 34 8.79925V6.1995C34 3.12423 31.7044 1 28.4993 1C25.2956 1 23 3.12423 23 6.1995V8.79925C23 11.877 25.2956 14 28.4993 14Z" fill="#AA4465"/>
<path fill-rule="evenodd" clip-rule="evenodd" d="M28.4993 14C31.7044 14 34 11.877 34 8.79925V6.1995C34 3.12423 31.7044 1 28.4993 1C25.2956 1 23 3.12423 23 6.1995V8.79925C23 11.877 25.2956 14 28.4993 14Z" stroke="#2A2B2E" stroke-width="2" stroke-linejoin="round"/>
</svg>
