<svg width="56" height="58" viewBox="0 0 56 58" fill="none" xmlns="http://www.w3.org/2000/svg">
<path fill-rule="evenodd" clip-rule="evenodd" d="M56 29.1543C56 44.6183 43.464 57.1543 28 57.1543C12.536 57.1543 0 44.6183 0 29.1543C0 13.6893 12.536 1.1543 28 1.1543C43.464 1.1543 56 13.6893 56 29.1543Z" fill="#C9CEBC"/>
<path fill-rule="evenodd" clip-rule="evenodd" d="M32 57H45V19H32V57Z" fill="#AA4465"/>
<path fill-rule="evenodd" clip-rule="evenodd" d="M45.1304 39.6661C47.9962 39.6661 50.4355 36.9267 50.4355 34.3332V25C50.4355 20.5965 43.1062 18.3333 38.5 18.3333" fill="#AA4465"/>
<path d="M45.1304 39.6661C47.9962 39.6661 50.4355 36.9267 50.4355 34.3332V25C50.4355 20.5965 43.1062 18.3333 38.5 18.3333" stroke="#2A2B2E" stroke-width="2" stroke-linejoin="round"/>
<path fill-rule="evenodd" clip-rule="evenodd" d="M31.8696 39.6661C29.0038 39.6661 26.5645 36.9267 26.5645 34.3332V25C26.5645 20.5965 33.8926 18.3333 38.5 18.3333" fill="#AA4465"/>
<path d="M31.8696 39.6661C29.0038 39.6661 26.5645 36.9267 26.5645 34.3332V25C26.5645 20.5965 33.8926 18.3333 38.5 18.3333" stroke="#2A2B2E" stroke-width="2" stroke-linejoin="round"/>
<path d="M45.1307 57V26.334" stroke="#2A2B2E" stroke-width="2" stroke-linejoin="round"/>
<path d="M31.869 26.3337V56.9998" stroke="#2A2B2E" stroke-width="2" stroke-linejoin="round"/>
<path d="M38.4998 38.3335V56.9999" stroke="#2A2B2E" stroke-width="2" stroke-linejoin="round"/>
<path fill-rule="evenodd" clip-rule="evenodd" d="M38.4992 14.3335C41.5903 14.3335 43.8043 12.1561 43.8043 8.99934V6.33289C43.8043 3.17873 41.5903 1 38.4992 1C35.4093 1 33.1953 3.17873 33.1953 6.33289V8.99934C33.1953 12.1561 35.4093 14.3335 38.4992 14.3335Z" fill="#AA4465"/>
<path fill-rule="evenodd" clip-rule="evenodd" d="M38.4992 14.3335C41.5903 14.3335 43.8043 12.1561 43.8043 8.99934V6.33289C43.8043 3.17873 41.5903 1 38.4992 1C35.4093 1 33.1953 3.17873 33.1953 6.33289V8.99934C33.1953 12.1561 35.4093 14.3335 38.4992 14.3335Z" stroke="#2A2B2E" stroke-width="2" stroke-linejoin="round"/>
<path fill-rule="evenodd" clip-rule="evenodd" d="M12 57H25V19H12V57Z" fill="#AA4465"/>
<path fill-rule="evenodd" clip-rule="evenodd" d="M25.1304 39.6661C27.9962 39.6661 30.4355 36.9267 30.4355 34.3332V25C30.4355 20.5965 23.1062 18.3333 18.5 18.3333" fill="#AA4465"/>
<path d="M25.1304 39.6661C27.9962 39.6661 30.4355 36.9267 30.4355 34.3332V25C30.4355 20.5965 23.1062 18.3333 18.5 18.3333" stroke="#2A2B2E" stroke-width="2" stroke-linejoin="round"/>
<path fill-rule="evenodd" clip-rule="evenodd" d="M11.8696 39.6661C9.00376 39.6661 6.56445 36.9267 6.56445 34.3332V25C6.56445 20.5965 13.8926 18.3333 18.5 18.3333" fill="#AA4465"/>
<path d="M11.8696 39.6661C9.00376 39.6661 6.56445 36.9267 6.56445 34.3332V25C6.56445 20.5965 13.8926 18.3333 18.5 18.3333" stroke="#2A2B2E" stroke-width="2" stroke-linejoin="round"/>
<path d="M25.1307 57V26.334" stroke="#2A2B2E" stroke-width="2" stroke-linejoin="round"/>
<path d="M11.869 26.3337V56.9998" stroke="#2A2B2E" stroke-width="2" stroke-linejoin="round"/>
<path d="M18.4998 38.3335V56.9999" stroke="#2A2B2E" stroke-width="2" stroke-linejoin="round"/>
<path fill-rule="evenodd" clip-rule="evenodd" d="M18.4992 14.3335C21.5903 14.3335 23.8043 12.1561 23.8043 8.99934V6.33289C23.8043 3.17873 21.5903 1 18.4992 1C15.4093 1 13.1953 3.17873 13.1953 6.33289V8.99934C13.1953 12.1561 15.4093 14.3335 18.4992 14.3335Z" fill="#AA4465"/>
<path fill-rule="evenodd" clip-rule="evenodd" d="M18.4992 14.3335C21.5903 14.3335 23.8043 12.1561 23.8043 8.99934V6.33289C23.8043 3.17873 21.5903 1 18.4992 1C15.4093 1 13.1953 3.17873 13.1953 6.33289V8.99934C13.1953 12.1561 15.4093 14.3335 18.4992 14.3335Z" stroke="#2A2B2E" stroke-width="2" stroke-linejoin="round"/>
</svg>
