<svg width="67" height="63" viewBox="0 0 67 63" fill="none" xmlns="http://www.w3.org/2000/svg">
<path fill-rule="evenodd" clip-rule="evenodd" d="M24.4996 28H29V40H8V28H12.5004" fill="#AA4465"/>
<path d="M24.4996 28H29V40H8V28H12.5004" stroke="#2A2B2E" stroke-width="2"/>
<path d="M14 24L23 33" stroke="#2A2B2E" stroke-width="2" stroke-linecap="round" stroke-linejoin="round"/>
<path d="M23 24L14 33" stroke="#2A2B2E" stroke-width="2" stroke-linecap="round" stroke-linejoin="round"/>
<path fill-rule="evenodd" clip-rule="evenodd" d="M54.4996 6H59V18H38V6H42.5004" fill="#AA4465"/>
<path d="M54.4996 6H59V18H38V6H42.5004" stroke="#2A2B2E" stroke-width="2"/>
<path fill-rule="evenodd" clip-rule="evenodd" d="M8 62H29V50H8V62Z" fill="white"/>
<path fill-rule="evenodd" clip-rule="evenodd" d="M8 62.0001H28.9999V50.0977H8V62.0001Z" stroke="#2A2B2E" stroke-width="2"/>
<path d="M44.002 1L53.0006 9.92681" stroke="#2A2B2E" stroke-width="2" stroke-linecap="round" stroke-linejoin="round"/>
<path d="M53.0006 1L44.002 9.92681" stroke="#2A2B2E" stroke-width="2" stroke-linecap="round" stroke-linejoin="round"/>
<path fill-rule="evenodd" clip-rule="evenodd" d="M38 40H59V28H38V40Z" fill="white"/>
<path fill-rule="evenodd" clip-rule="evenodd" d="M38 40H59V28H38V40Z" stroke="#2A2B2E" stroke-width="2"/>
<path fill-rule="evenodd" clip-rule="evenodd" d="M8 18H29V6H8V18Z" fill="white"/>
<path fill-rule="evenodd" clip-rule="evenodd" d="M8 18H29V6H8V18Z" stroke="#2A2B2E" stroke-width="2"/>
<path d="M29 11.5H38" stroke="#2A2B2E" stroke-width="2" stroke-linecap="round" stroke-linejoin="round"/>
<path d="M29 34.5H38" stroke="#2A2B2E" stroke-width="2" stroke-linecap="round" stroke-linejoin="round"/>
<path d="M58.6133 12H65.9991V34.5003H58.6133" stroke="#2A2B2E" stroke-width="2" stroke-linecap="round" stroke-linejoin="round"/>
<path d="M8.38578 34.4998H1V57.0001H8.38578" stroke="#2A2B2E" stroke-width="2" stroke-linecap="round" stroke-linejoin="round"/>
</svg>
