<svg width="399" height="398" viewBox="0 0 399 398" fill="none" xmlns="http://www.w3.org/2000/svg">
<mask id="mask0_0:5717" style="mask-type:alpha" maskUnits="userSpaceOnUse" x="0" y="0" width="399" height="397">
<path fill-rule="evenodd" clip-rule="evenodd" d="M0 0H399V397H0V0Z" fill="white"/>
</mask>
<g mask="url(#mask0_0:5717)">
<path fill-rule="evenodd" clip-rule="evenodd" d="M17.4583 123.317C8.82407 142.359 -3.95691 178.816 1.18009 224.159C7.7708 282.336 40.4004 328.201 72.1396 353.974C177.461 439.499 370.264 384.248 395.796 303.686C400.428 289.07 399.126 274.974 397.523 257.628C392.427 202.461 365.58 186.064 347.524 127.487C331.093 74.1792 347.293 68.1805 331.928 44.4816C298.598 -6.92751 202.387 -9.51859 136.186 15.1286C110.758 24.596 49.0543 53.6357 17.4583 123.317Z" fill="#C9CEBD"/>
</g>
<path fill-rule="evenodd" clip-rule="evenodd" d="M398 39.8997C398 26.6512 387.341 16.0789 374.192 16.0789L104.961 16C91.8122 16 81.1457 26.6637 81.1457 39.8151L81.1573 345.981L21 345.945C21 359.359 29.8827 370.816 42.1162 374.641C44.9398 375.524 47.9412 376 51.0536 376L320.416 375.994C337.014 375.994 350.466 362.537 350.466 345.935L350.366 39.8925L398 39.8997Z" fill="white"/>
<path fill-rule="evenodd" clip-rule="evenodd" d="M51.7097 376C51.3175 376 51 375.682 51 375.29C51 374.899 51.3175 374.581 51.7097 374.581C67.6293 374.581 80.5807 361.629 80.5807 345.71C80.5807 345.317 80.8981 345 81.2903 345C81.6825 345 82 345.317 82 345.71C82 362.412 68.4118 376 51.7097 376Z" fill="#2A2B2E"/>
<path fill-rule="evenodd" clip-rule="evenodd" d="M350.714 41C350.32 41 350 40.6802 350 40.2861C350 26.8944 360.895 16 374.286 16C374.681 16 375 16.3198 375 16.7139C375 17.108 374.681 17.4278 374.286 17.4278C361.682 17.4278 351.428 27.6821 351.428 40.2861C351.428 40.6802 351.108 41 350.714 41Z" fill="#2A2B2E"/>
<path fill-rule="evenodd" clip-rule="evenodd" d="M350.72 129C350.322 129 349.999 128.679 349.999 128.282L349.97 40.5203C349.97 40.3296 350.046 40.1467 350.181 40.0121C350.316 39.8775 350.499 39.8018 350.69 39.8018L397.548 39.8085C397.167 27.4502 386.971 17.5155 374.494 17.5155L105.514 17.4369C92.7913 17.4369 82.4407 27.7572 82.4407 40.4427L82.4422 67.3089C82.4422 67.7055 82.1194 68.0274 81.7218 68.0274C81.3237 68.0274 81.0014 67.7055 81.0014 67.3089L81 40.4427C81 26.965 91.997 16 105.514 16L374.494 16.0786C388.007 16.0786 399 27.0464 399 40.527C399 40.7176 398.924 40.9001 398.789 41.0352C398.654 41.1698 398.471 41.2454 398.28 41.2454L351.41 41.2387L351.44 128.281C351.44 128.678 351.118 129 350.72 129Z" fill="#2A2B2E"/>
<path fill-rule="evenodd" clip-rule="evenodd" d="M96.2863 376H96.2858L51.1853 375.964C48.5951 375.964 46.0207 375.693 43.5338 375.159C43.1527 375.077 42.9238 374.756 43.0232 374.441C43.1227 374.127 43.5109 373.937 43.8935 374.019C46.2629 374.528 48.7165 374.786 51.1858 374.786L96.2868 374.822C96.6812 374.823 97.0005 375.086 97 375.412C96.9995 375.737 96.6803 376 96.2863 376Z" fill="#2A2B2E"/>
<path fill-rule="evenodd" clip-rule="evenodd" d="M122.719 376C122.322 376 122 375.777 122 375.501C122 375.226 122.322 375.003 122.719 375.003L288.281 375C288.678 375 289 375.223 289 375.499C289 375.774 288.678 375.997 288.281 375.997L122.719 376Z" fill="#2A2B2E"/>
<path fill-rule="evenodd" clip-rule="evenodd" d="M320.749 376H317.712C317.319 376 317 375.682 317 375.29C317 374.899 317.319 374.581 317.712 374.581H320.749C336.645 374.581 349.577 361.629 349.577 345.71C349.577 345.318 349.896 345 350.288 345C350.682 345 351 345.318 351 345.71C351 362.412 337.43 376 320.749 376Z" fill="#2A2B2E"/>
<path fill-rule="evenodd" clip-rule="evenodd" d="M120 110.5C120 112.985 122.058 115 124.597 115H312.403C314.942 115 317 112.985 317 110.5C317 108.015 314.942 106 312.403 106H124.597C122.058 106 120 108.015 120 110.5Z" fill="#C9CEBD"/>
<path fill-rule="evenodd" clip-rule="evenodd" d="M120 191.5C120 193.985 122.062 196 124.606 196H292.394C294.938 196 297 193.985 297 191.5C297 189.015 294.938 187 292.394 187H124.606C122.062 187 120 189.015 120 191.5Z" fill="#C9CEBD"/>
<path fill-rule="evenodd" clip-rule="evenodd" d="M154 327.5C154 329.985 156.074 332 158.633 332H192.367C194.926 332 197 329.985 197 327.5C197 325.015 194.926 323 192.367 323H158.633C156.074 323 154 325.015 154 327.5Z" fill="#C9CEBD"/>
<path fill-rule="evenodd" clip-rule="evenodd" d="M124.586 228C121.952 228 119.837 230.18 120.01 232.801C120.168 235.192 122.301 237 124.744 237H231.413C233.946 237 236 234.985 236 232.5C236 230.015 233.946 228 231.413 228H124.586Z" fill="#C9CEBD"/>
<path fill-rule="evenodd" clip-rule="evenodd" d="M312.251 228H266.591C264.056 228 262 230.015 262 232.5C262 234.985 264.056 237 266.591 237H312.409C315.046 237 317.164 234.821 316.99 232.2C316.832 229.808 314.696 228 312.251 228Z" fill="#C9CEBD"/>
<path fill-rule="evenodd" clip-rule="evenodd" d="M312.227 208H208.615C206.066 208 204 210.015 204 212.5C204 214.985 206.066 217 208.615 217H312.385C315.036 217 317.164 214.821 316.99 212.2C316.831 209.808 314.685 208 312.227 208Z" fill="#C9CEBD"/>
<path fill-rule="evenodd" clip-rule="evenodd" d="M319.217 248H243.624C241.071 248 239 250.015 239 252.5C239 254.985 241.071 257 243.624 257H319.377C322.032 257 324.165 254.821 323.99 252.2C323.831 249.808 321.68 248 319.217 248Z" fill="#C9CEBD"/>
<path fill-rule="evenodd" clip-rule="evenodd" d="M124.567 208C121.944 208 119.838 210.18 120.01 212.801C120.168 215.192 122.292 217 124.725 217H177.432C179.955 217 182 214.985 182 212.5C182 210.015 179.955 208 177.432 208H124.567Z" fill="#C9CEBD"/>
<path fill-rule="evenodd" clip-rule="evenodd" d="M123.616 167C120.965 167 118.836 169.18 119.01 171.801C119.169 174.192 121.317 176 123.775 176H240.383C242.933 176 245 173.985 245 171.5C245 169.015 242.933 167 240.383 167H123.616Z" fill="#C9CEBD"/>
<path fill-rule="evenodd" clip-rule="evenodd" d="M312.271 167H285.572C283.047 167 281 169.015 281 171.5C281 173.985 283.047 176 285.572 176H312.428C315.054 176 317.163 173.821 316.99 171.2C316.833 168.808 314.706 167 312.271 167Z" fill="#C9CEBD"/>
<path fill-rule="evenodd" clip-rule="evenodd" d="M123.642 126C120.976 126 118.835 128.18 119.01 130.801C119.17 133.192 121.329 135 123.801 135H163.358C165.922 135 168 132.985 168 130.5C168 128.015 165.922 126 163.358 126H123.642Z" fill="#C9CEBD"/>
<path fill-rule="evenodd" clip-rule="evenodd" d="M312.235 126H195.607C193.063 126 191 128.015 191 130.5C191 132.985 193.063 135 195.607 135H312.393C315.039 135 317.164 132.821 316.99 130.2C316.831 127.808 314.688 126 312.235 126Z" fill="#C9CEBD"/>
<path fill-rule="evenodd" clip-rule="evenodd" d="M124.581 147C121.95 147 119.837 149.18 120.01 151.801C120.168 154.192 122.299 156 124.738 156H173.419C175.949 156 178 153.985 178 151.5C178 149.015 175.949 147 173.419 147H124.581Z" fill="#C9CEBD"/>
<path fill-rule="evenodd" clip-rule="evenodd" d="M312.233 147H210.609C208.063 147 206 149.015 206 151.5C206 153.985 208.063 156 210.609 156H312.391C315.038 156 317.164 153.821 316.99 151.2C316.831 148.808 314.688 147 312.233 147Z" fill="#C9CEBD"/>
<path fill-rule="evenodd" clip-rule="evenodd" d="M144.721 313C144.6 313 144.477 312.97 144.364 312.906C144.018 312.709 143.897 312.271 144.095 311.928L153.572 295.462C154.163 294.435 155.226 293.802 156.417 293.768C157.595 293.745 158.706 294.306 159.355 295.297L162.306 299.805C162.672 300.364 163.266 300.684 163.937 300.684C164.608 300.684 165.202 300.364 165.567 299.805L168.503 295.32C169.155 294.325 170.251 293.762 171.451 293.791C172.646 293.828 173.709 294.467 174.296 295.5L182.525 309.984C182.882 310.612 183.535 310.956 184.253 310.966C184.978 310.954 185.611 310.565 185.945 309.925L196.985 288.814C197.576 287.685 198.756 286.984 200.019 287C201.299 287.01 202.451 287.723 203.024 288.86L205.924 294.619C206.102 294.973 205.958 295.403 205.601 295.581C205.244 295.757 204.811 295.614 204.632 295.26L201.732 289.501C201.399 288.838 200.754 288.439 200.008 288.434H199.992C199.252 288.434 198.608 288.822 198.267 289.475L187.226 310.586C186.644 311.7 185.542 312.377 184.278 312.399C183 312.431 181.888 311.782 181.268 310.689L173.039 296.205C172.702 295.612 172.092 295.245 171.406 295.224C170.728 295.19 170.088 295.53 169.714 296.101L166.778 300.587C166.15 301.545 165.088 302.117 163.937 302.117C162.785 302.117 161.723 301.545 161.096 300.587L158.145 296.078C157.772 295.51 157.14 295.188 156.458 295.201C155.775 295.22 155.164 295.583 154.825 296.173L145.349 312.639C145.216 312.871 144.972 313 144.721 313Z" fill="#AA4465"/>
<path fill-rule="evenodd" clip-rule="evenodd" d="M226.23 219.925C227.36 218.795 228 217.509 228 216.143C228 211.646 221.06 208 212.5 208C203.939 208 197 211.646 197 216.143C197 217.509 197.64 218.795 198.77 219.925C197.64 221.055 197 222.342 197 223.707C197 225.84 198.562 227.783 201.118 229.234C201.062 229.476 201.029 229.723 201.029 229.973C201.029 233.302 206.165 236 212.5 236C218.835 236 223.97 233.302 223.97 229.973C223.97 229.723 223.938 229.476 223.882 229.234C226.438 227.783 228 225.84 228 223.707C228 222.342 227.36 221.055 226.23 219.925Z" fill="#2A2B2E"/>
<path fill-rule="evenodd" clip-rule="evenodd" d="M254 154.278C254 131.481 235.644 113 213 113C190.399 113 172.152 131.244 172.001 153.997C171.924 165.584 176.59 176.073 184.159 183.615C189.619 189.055 193.599 195.817 195.532 203.302L195.625 203.664C197.501 210.929 204.016 216 211.472 216H214.528C221.984 216 228.499 210.929 230.375 203.664L230.431 203.445C232.35 196.012 236.17 189.186 241.63 183.823C249.261 176.327 254 165.861 254 154.278Z" fill="#C9CEBD"/>
<path fill-rule="evenodd" clip-rule="evenodd" d="M213 114.438C190.785 114.438 172.592 132.431 172.445 154.547C172.371 165.516 176.642 175.806 184.471 183.523C190.14 189.11 194.166 196.003 196.112 203.456L196.206 203.817C198.012 210.732 204.285 215.562 211.461 215.562H214.539C221.715 215.562 227.988 210.732 229.794 203.817L229.851 203.599C231.849 195.946 235.815 189.075 241.32 183.727C249.211 176.061 253.556 165.796 253.556 154.822C253.556 132.554 235.363 114.438 213 114.438ZM214.539 217H211.461C203.627 217 196.78 211.727 194.809 204.178L194.714 203.818C192.834 196.614 188.94 189.95 183.455 184.545C175.348 176.554 170.924 165.897 171.001 154.538C171.075 143.389 175.47 132.943 183.376 125.124C191.282 117.306 201.803 113 213 113C236.159 113 255 131.761 255 154.822C255 166.187 250.5 176.817 242.328 184.756C237.012 189.921 233.18 196.562 231.248 203.96L231.192 204.178C229.22 211.727 222.373 217 214.539 217Z" fill="#2A2B2E"/>
<path fill-rule="evenodd" clip-rule="evenodd" d="M215.937 210C215.586 210 215.286 209.717 215.254 209.341C213.271 186.699 223.551 150.874 223.655 150.514C223.767 150.131 224.151 149.914 224.514 150.032C224.877 150.151 225.081 150.556 224.97 150.939C224.866 151.296 214.665 186.852 216.622 209.207C216.657 209.606 216.379 209.96 216.002 209.997C215.98 209.999 215.958 210 215.937 210Z" fill="#2A2B2E"/>
<path fill-rule="evenodd" clip-rule="evenodd" d="M210.269 209C209.873 209 209.548 208.686 209.54 208.292C208.747 165.352 200.225 153.26 200.139 153.144C199.902 152.821 199.975 152.37 200.301 152.136C200.628 151.904 201.084 151.975 201.321 152.297C201.683 152.791 210.198 164.876 211 208.266C211.007 208.664 210.686 208.992 210.283 209H210.269Z" fill="#2A2B2E"/>
<path fill-rule="evenodd" clip-rule="evenodd" d="M215.972 147.562C215.555 148.085 214.9 149.7 214.977 151.427C215.02 152.388 215.292 153.436 215.7 154.32C216.096 153.422 216.375 152.44 216.48 151.512C216.677 149.764 216.278 148.129 215.972 147.562ZM209.518 148.765C209.15 149.092 208.626 150.814 208.824 152.552C208.932 153.502 209.259 154.509 209.724 155.369C210.46 154.3 210.881 152.83 210.776 151.591C210.657 150.2 209.877 148.967 209.518 148.765ZM212.4 159C212.351 159 212.302 158.999 212.253 158.996C211.184 158.947 210.271 158.393 209.534 157.589C208.839 158.075 208.064 158.336 207.248 158.352C207.221 158.353 207.193 158.353 207.165 158.353C204.965 158.353 202.864 156.605 202.036 154.072C201.913 153.697 202.118 153.295 202.495 153.172C202.872 153.048 203.276 153.255 203.399 153.63C204.034 155.569 205.647 156.957 207.219 156.924C207.74 156.913 208.23 156.751 208.684 156.439C207.968 155.249 207.528 153.848 207.399 152.713C207.195 150.919 207.606 148.863 208.355 147.929C208.716 147.48 209.1 147.351 209.358 147.323C209.625 147.295 210.039 147.34 210.503 147.72C211.35 148.414 212.082 150.027 212.204 151.47C212.353 153.211 211.708 155.236 210.586 156.604C211.109 157.172 211.705 157.541 212.32 157.569C213.23 157.601 214.139 156.885 214.88 155.808C214.074 154.526 213.605 152.852 213.545 151.49C213.45 149.367 214.269 147.209 215.082 146.428C215.482 146.042 215.859 145.981 216.104 146.004C216.329 146.022 216.663 146.123 216.974 146.5C217.709 147.389 218.126 149.709 217.904 151.672C217.762 152.937 217.305 154.42 216.603 155.721C216.991 156.133 217.421 156.388 217.854 156.374C218.836 156.36 219.969 155.129 220.609 153.382C220.745 153.011 221.159 152.821 221.528 152.955C221.9 153.091 222.092 153.501 221.956 153.871C221.09 156.236 219.489 157.779 217.875 157.803H217.835C217.071 157.804 216.394 157.478 215.816 156.952C214.902 158.156 213.736 159 212.4 159Z" fill="#2A2B2E"/>
<path fill-rule="evenodd" clip-rule="evenodd" d="M225.247 131.556C226.519 132.835 227.956 133.93 229.177 135.265C230.489 136.703 231.619 138.392 232.667 140.044C233.682 141.643 234.637 143.338 235.332 145.115C235.654 145.936 235.83 146.816 236.063 147.667C236.416 148.961 236.999 151.888 238.691 151.997C239.629 152.058 240.305 151.068 240.737 150.345C241.503 149.063 241.848 147.553 241.959 146.063C242.192 142.931 241.408 139.791 240.219 136.936C238.986 133.976 237.248 131.214 235.076 128.9C234.179 127.945 233.172 127.021 232.073 126.247C232.04 126.221 232.008 126.194 231.975 126.169C230.705 125.178 229.31 124.151 227.679 124.017C226.442 123.915 225.108 124.277 224.144 125.103C221.787 127.122 223.534 129.834 225.247 131.556Z" fill="#C9CEBD"/>
<path fill-rule="evenodd" clip-rule="evenodd" d="M221.683 124.634C222.243 123.543 222.056 121.665 221.164 120.612C221.158 120.579 221.146 120.545 221.124 120.511C219.563 118.094 215.614 118.685 215.045 121.51C214.449 124.47 219.965 127.989 221.683 124.634Z" fill="#C9CEBD"/>
<path fill-rule="evenodd" clip-rule="evenodd" d="M224.716 184C224.439 184 224.176 183.838 224.059 183.568C223.902 183.205 224.069 182.783 224.431 182.626C232.353 179.187 238.615 172.569 241.614 164.467C241.751 164.096 242.164 163.908 242.533 164.045C242.904 164.182 243.093 164.595 242.955 164.966C239.822 173.432 233.277 180.348 225 183.941C224.907 183.981 224.811 184 224.716 184Z" fill="#2A2B2E"/>
<path fill-rule="evenodd" clip-rule="evenodd" d="M187.384 177C187.188 177 186.993 176.922 186.849 176.767C181.143 170.585 178 162.559 178 154.166C178 141.254 185.264 129.724 196.957 124.074C197.317 123.898 197.751 124.048 197.927 124.407C198.102 124.764 197.952 125.195 197.592 125.369C186.402 130.776 179.451 141.811 179.451 154.166C179.451 162.197 182.458 169.878 187.919 175.792C188.189 176.086 188.169 176.541 187.875 176.81C187.735 176.937 187.559 177 187.384 177Z" fill="#2A2B2E"/>
<path fill-rule="evenodd" clip-rule="evenodd" d="M194.279 177C194.136 177 193.991 176.957 193.865 176.869C188.129 172.838 184.147 166.851 182.654 160.013C180.357 149.492 184.207 138.818 192.702 132.154C193.014 131.908 193.467 131.963 193.713 132.274C193.959 132.585 193.905 133.036 193.593 133.281C185.534 139.602 181.882 149.729 184.061 159.707C185.477 166.195 189.254 171.873 194.695 175.697C195.02 175.925 195.098 176.373 194.868 176.696C194.728 176.894 194.505 177 194.279 177Z" fill="white"/>
<path fill-rule="evenodd" clip-rule="evenodd" d="M207.332 223C203.492 223 200.847 222.599 200.604 222.561C200.213 222.499 199.946 222.138 200.009 221.755C200.072 221.372 200.438 221.111 200.831 221.171C200.963 221.192 214.144 223.18 224.971 218.069C225.326 217.902 225.757 218.048 225.929 218.398C226.101 218.748 225.951 219.169 225.593 219.337C219.256 222.329 212.295 223 207.332 223Z" fill="white"/>
<path fill-rule="evenodd" clip-rule="evenodd" d="M208.438 230C205.674 230 203.769 229.709 203.595 229.681C203.209 229.619 202.947 229.26 203.009 228.878C203.07 228.497 203.431 228.237 203.818 228.298C203.912 228.313 213.293 229.741 220.987 226.069C221.337 225.903 221.76 226.047 221.93 226.396C222.099 226.744 221.952 227.163 221.6 227.331C217.03 229.512 212.014 230 208.438 230Z" fill="white"/>
<path fill-rule="evenodd" clip-rule="evenodd" d="M71.5778 208.667C76.9264 205.145 85.8519 207.043 89.2873 215.891C92.0935 223.118 85.8154 228.697 84.225 234.027C79.0812 251.269 95.7236 288.068 84.4174 306.858C75.3964 321.849 50.3082 332.904 28.6697 323.556C8.09504 314.667 -5.89272 293.274 2.45389 275.76C9.95687 260.017 24.1326 267.462 32.7406 251.943C41.2273 236.645 33.4365 229.443 39.6441 221.784C48.1327 211.309 56.4184 218.65 71.5778 208.667Z" fill="#2A2B2E"/>
<path fill-rule="evenodd" clip-rule="evenodd" d="M165.083 192.73L161.582 203.753C160.43 207.169 161.008 210.922 163.139 213.85L167.063 219.385C167.713 220.303 167.892 221.412 167.914 222.53C167.962 225.032 167.579 228.849 167.579 228.849L176.93 229C176.93 229 175.904 224.153 175.431 222.489C174.827 220.358 174.811 218.031 175.755 216.024C178.759 209.64 177.88 203.231 177.88 203.231L171.474 204.912C171.474 204.912 169.492 201.598 169.867 195.81C169.958 194.394 169.807 193.315 169.516 192.494C168.768 190.377 165.648 190.559 165.083 192.73Z" fill="white"/>
<path fill-rule="evenodd" clip-rule="evenodd" d="M167.913 228.426L175.342 228.547C175.031 227.089 174.409 224.217 174.079 223.038C173.391 220.577 173.517 218.132 174.434 216.153C176.637 211.403 176.625 206.599 176.514 204.724L171.105 206.165C170.791 206.247 170.462 206.113 170.298 205.835C170.215 205.693 168.259 202.301 168.634 196.427C168.71 195.235 168.608 194.226 168.331 193.431C168.064 192.666 167.396 192.418 166.851 192.44C166.31 192.462 165.603 192.781 165.392 193.607C165.389 193.619 165.385 193.631 165.382 193.643L161.972 204.539C160.922 207.7 161.452 211.19 163.386 213.887L167.214 219.367C168.035 220.542 168.153 221.931 168.171 222.872C168.206 224.701 168.02 227.181 167.913 228.426ZM176.233 230H176.221L167.113 229.851C166.912 229.848 166.721 229.76 166.587 229.61C166.453 229.461 166.388 229.261 166.408 229.062C166.412 229.024 166.777 225.301 166.73 222.899C166.707 221.701 166.485 220.839 166.031 220.189L162.209 214.716C160.013 211.654 159.41 207.682 160.6 204.099L164 193.231C164.342 191.934 165.435 191.06 166.79 191.003C168.12 190.946 169.259 191.716 169.692 192.959C170.033 193.936 170.16 195.133 170.072 196.518C169.805 200.708 170.825 203.546 171.305 204.624L176.972 203.115C177.172 203.062 177.386 203.097 177.558 203.211C177.73 203.326 177.844 203.508 177.872 203.713C177.908 203.98 178.722 210.33 175.742 216.757C174.968 218.425 174.871 220.519 175.467 222.652C175.928 224.301 176.898 228.938 176.938 229.134C176.983 229.348 176.928 229.571 176.788 229.739C176.651 229.904 176.447 230 176.233 230Z" fill="#2A2B2E"/>
<path fill-rule="evenodd" clip-rule="evenodd" d="M105 262.292C112.922 263.169 136.798 273.713 150.716 259.433C164.634 245.153 165.321 226.175 165.321 226.175L178.938 225C178.938 225 188.309 247.261 178.583 273.206C168.656 299.688 120.831 309 120.831 309L105 262.292Z" fill="#AA4465"/>
<path fill-rule="evenodd" clip-rule="evenodd" d="M121.091 267.766C104.952 258.665 75.9999 259.519 61.5878 265.749C36.0242 276.8 21.1079 364.071 29.2129 382.852C36.6143 400.002 100.072 403.464 117.736 388.718C125.262 382.436 122.888 345.104 121.612 330.186C121.225 325.651 121.036 321.106 121.041 316.554L121.091 267.766Z" fill="#AA4465"/>
<path fill-rule="evenodd" clip-rule="evenodd" d="M65.3137 238.361C65.8786 238.385 66.3273 237.913 66.2666 237.35C65.9778 234.679 65.1187 229.668 67.6876 227.42C70.9799 224.538 76.4628 220.154 78.5878 222.835C80.4503 225.185 82.3322 229.956 86.8306 231.731C87.2619 231.901 87.3046 232.521 87.1121 232.94L86.1699 235.317C85.9546 235.788 86.1437 236.88 86.3454 237.36C86.9697 238.843 88.4126 241.936 88.1331 242.584C87.5876 243.85 82.6745 246.109 82.6745 246.109L85.9249 261.221C86.0479 261.795 86.433 262.746 86.9993 262.604L93 263.048C93 263.048 92.6266 271.24 79.8674 273.501C63.1916 276.456 61 265.326 61 265.326C61 265.326 77.3019 265.069 70.2025 247.382C70.0465 246.993 69.692 246.716 69.2788 246.654C67.693 246.414 63.3083 245.556 62.4755 242.747C61.5912 239.765 63.3802 238.279 65.3137 238.361Z" fill="white"/>
<path fill-rule="evenodd" clip-rule="evenodd" d="M62.6566 266.337C63.5044 268.719 67.0915 275.415 80.2016 273.081C89.9355 271.346 92.0146 266.001 92.4495 264.084L87.3994 263.709C87.128 263.743 86.8604 263.683 86.6149 263.531C85.9321 263.105 85.6645 262.069 85.5993 261.763L82.3934 246.776C82.3229 246.447 82.4898 246.114 82.7947 245.973C84.9621 244.97 87.443 243.516 87.7974 242.891C87.8036 242.294 86.8168 240.005 86.3905 239.016C86.2649 238.725 86.1498 238.457 86.0539 238.228C85.8285 237.689 85.549 236.373 85.8904 235.626L86.8043 233.303C86.8585 233.183 86.8666 233.07 86.8585 233.008C83.3615 231.589 81.4339 228.52 79.8832 226.051C79.397 225.277 78.9381 224.546 78.5008 223.992C78.2394 223.66 77.9124 223.487 77.4713 223.447C75.7949 223.292 72.8733 225.039 68.7899 228.633C66.7597 230.42 67.2315 234.45 67.5432 237.118C67.5744 237.382 67.6036 237.631 67.6285 237.864C67.6794 238.337 67.5235 238.806 67.2008 239.151C66.8772 239.497 66.4231 239.686 65.9426 239.663C65.1783 239.627 64.5003 239.907 64.0961 240.424C63.6127 241.043 63.5326 241.964 63.864 243.088C64.543 245.39 68.3756 246.21 69.992 246.455C70.6523 246.556 71.2162 247.002 71.4636 247.622C73.8165 253.516 73.8865 258.191 71.6727 261.517C69.1951 265.24 64.6206 266.127 62.6566 266.337ZM75.151 275C62.9697 275 61.0335 265.926 61.0133 265.821C60.9726 265.613 61.0263 265.396 61.1601 265.231C61.2938 265.065 61.4943 264.968 61.7072 264.964C61.7671 264.963 67.7614 264.807 70.4801 260.712C72.4111 257.804 72.2927 253.579 70.1277 248.156C70.0687 248.009 69.9345 247.902 69.7762 247.878C67.4305 247.522 63.3643 246.479 62.4844 243.496C61.8923 241.488 62.4178 240.235 62.963 239.538C63.6564 238.65 64.7597 238.176 66.0045 238.224C66.0759 238.235 66.1248 238.195 66.1512 238.167C66.1771 238.139 66.2059 238.091 66.1982 238.018C66.1737 237.79 66.145 237.544 66.1148 237.285C65.7676 234.319 65.243 229.837 67.84 227.552C70.6811 225.052 74.7808 221.764 77.6017 222.013C78.4394 222.09 79.1217 222.456 79.6305 223.101C80.1153 223.716 80.5938 224.478 81.1011 225.286C82.5511 227.594 84.356 230.468 87.4608 231.699C87.7887 231.829 88.0457 232.089 88.1838 232.432C88.3569 232.862 88.3354 233.411 88.1277 233.866L87.2133 236.188C87.1174 236.427 87.2004 237.241 87.3812 237.673C87.4751 237.898 87.5883 238.16 87.7115 238.446C88.9702 241.366 89.4468 242.701 89.1409 243.415C88.6111 244.651 85.4689 246.287 83.9191 247.033L87.0057 261.462C87.0834 261.824 87.233 262.139 87.3342 262.265C87.3605 262.264 87.3883 262.264 87.4162 262.267L93.3342 262.707C93.7221 262.735 94.017 263.068 93.9992 263.457C93.9834 263.812 93.4555 272.181 80.4538 274.498C78.4998 274.846 76.7386 275 75.151 275Z" fill="#2A2B2E"/>
<path fill-rule="evenodd" clip-rule="evenodd" d="M130.642 361.133C130.642 361.133 140.209 357.665 146.842 359.573C146.842 359.573 147.833 363.804 150.698 365.688C153.563 367.573 160.573 368.446 161.91 372.513C163.249 376.581 149.226 380.495 144.22 378.431C139.213 376.366 134.694 371.229 129.945 371.474C125.194 371.718 130.642 361.133 130.642 361.133Z" fill="white"/>
<path fill-rule="evenodd" clip-rule="evenodd" d="M130.025 371.207C133.121 371.207 136.092 373.126 138.97 374.985C140.758 376.14 142.606 377.334 144.475 378.077C148.146 379.534 157.747 377.603 160.779 374.795C161.419 374.202 161.66 373.657 161.495 373.173C160.688 370.811 157.329 369.615 154.366 368.56C152.845 368.019 151.409 367.508 150.394 366.865C147.808 365.227 146.632 362.018 146.28 360.864C140.475 359.462 132.47 361.886 130.914 362.39C129.441 365.224 127.833 369.57 128.672 370.86C128.742 370.967 128.928 371.254 129.659 371.216C129.781 371.209 129.903 371.207 130.025 371.207ZM147.94 380C146.368 380 144.969 379.813 143.931 379.401C141.929 378.605 140.019 377.372 138.172 376.178C135.248 374.29 132.483 372.509 129.732 372.642C128.433 372.706 127.772 372.127 127.449 371.629C125.822 369.127 129.09 362.73 129.762 361.474C129.847 361.315 129.989 361.193 130.162 361.133C130.567 360.991 140.179 357.682 147.066 359.592C147.318 359.661 147.513 359.861 147.575 360.112C147.584 360.15 148.555 364.002 151.181 365.665C152.057 366.22 153.419 366.705 154.86 367.218C158.132 368.382 161.841 369.702 162.871 372.718C163.119 373.446 163.131 374.578 161.775 375.835C159.167 378.25 152.747 380 147.94 380Z" fill="#2A2B2E"/>
<path fill-rule="evenodd" clip-rule="evenodd" d="M64.3324 308L75.5534 333.947C77.8734 339.311 82.393 343.412 87.9527 345.199L131 359.027L129.992 374C129.992 374 73.4401 368.685 63.6599 361.464C54.5062 354.706 43 323.518 43 323.518L64.3324 308Z" fill="#AA4465"/>
<path fill-rule="evenodd" clip-rule="evenodd" d="M131.282 360C131.209 360 131.135 359.99 131.063 359.966L88.0821 346.26C82.3339 344.427 77.6615 340.218 75.2628 334.712L64.0593 308.997C63.9018 308.636 64.0688 308.216 64.4326 308.059C64.7968 307.902 65.2189 308.068 65.3768 308.43L76.5804 334.145C78.8144 339.274 83.1666 343.194 88.5205 344.901L131.501 358.607C131.879 358.728 132.087 359.129 131.965 359.504C131.868 359.807 131.586 360 131.282 360Z" fill="#2A2B2E"/>
<path fill-rule="evenodd" clip-rule="evenodd" d="M117.276 374C117.247 374 117.219 373.999 117.19 373.995C96.2523 371.569 69.9037 367.669 63.2779 362.868C60.345 360.743 56.9162 356.093 53.0856 349.049C52.897 348.702 53.0305 348.27 53.3834 348.084C53.7363 347.899 54.1757 348.03 54.3647 348.377C58.0923 355.233 61.381 359.723 64.1389 361.721C70.8444 366.58 100.362 370.61 117.36 372.58C117.758 372.626 118.042 372.98 117.995 373.371C117.951 373.733 117.638 374 117.276 374Z" fill="#2A2B2E"/>
<path fill-rule="evenodd" clip-rule="evenodd" d="M239.81 304.45C238.15 297.49 218.599 295.195 216.429 298.465C211.392 306.058 202.746 325.097 198.124 335.575C196.057 340.261 192.509 344.132 188.026 346.601L161.939 360.965C160.55 360.608 147.781 357.345 146.507 357.613C145.159 357.896 143.567 360.416 140.222 362.307C136.878 364.198 134.356 365.329 135.146 366.797C135.848 368.101 142.122 367.592 146.536 365.647C147.425 365.256 148.473 365.492 149.127 366.211C150.704 367.946 157.627 371.029 163.844 371L205.667 364.128C210.023 363.412 213.857 360.847 216.178 357.088C224.164 344.146 242.033 313.769 239.81 304.45Z" fill="white"/>
<path fill-rule="evenodd" clip-rule="evenodd" d="M148.119 364.056C148.942 364.056 149.751 364.4 150.333 365.04C151.788 366.638 158.538 369.566 164.372 369.566H164.397L205.986 362.743C210.122 362.065 213.756 359.634 215.956 356.075C223.723 343.509 241.556 313.308 239.401 304.288C238.746 301.548 234.28 299.059 228.024 297.947C222.57 296.977 218.135 297.485 217.414 298.568C212.442 306.051 203.897 324.828 199.246 335.355C197.138 340.126 193.457 344.139 188.881 346.655L162.905 360.935C162.745 361.022 162.559 361.046 162.382 361.001C154.464 358.972 148.124 357.562 147.329 357.678C146.897 357.769 146.226 358.384 145.448 359.096C144.408 360.05 143.112 361.235 141.288 362.265C140.877 362.497 140.479 362.718 140.097 362.929C138.072 364.05 136.159 365.109 136.513 365.764C137.122 366.458 142.572 366.224 146.934 364.305C147.316 364.138 147.719 364.056 148.119 364.056ZM164.371 371C158.244 371 151.112 368.027 149.273 366.005C148.821 365.508 148.113 365.355 147.511 365.618C143.456 367.403 136.349 368.482 135.25 366.445C134.223 364.542 136.509 363.276 139.403 361.675C139.781 361.465 140.176 361.246 140.583 361.017C142.265 360.067 143.493 358.943 144.479 358.039C145.451 357.149 146.219 356.446 147.046 356.273C148.292 356.006 157.114 358.174 162.462 359.541L188.189 345.399C192.492 343.034 195.953 339.261 197.934 334.775C202.603 324.207 211.188 305.347 216.22 297.775C217.602 295.696 223.437 295.674 228.275 296.535C230.908 297.003 239.593 298.922 240.796 303.955C242.994 313.155 226.941 341.031 217.177 356.829C214.758 360.741 210.764 363.412 206.218 364.159L164.572 370.991C164.507 371.002 164.439 371 164.371 371Z" fill="#2A2B2E"/>
<mask id="mask1_0:5717" style="mask-type:alpha" maskUnits="userSpaceOnUse" x="210" y="262" width="128" height="136">
<path fill-rule="evenodd" clip-rule="evenodd" d="M210 262H338V398H210V262Z" fill="white"/>
</mask>
<g mask="url(#mask1_0:5717)">
<path fill-rule="evenodd" clip-rule="evenodd" d="M338 321.394C338 321.394 329.269 277.995 304.357 267.677C279.445 257.359 240.606 263.081 231.82 269.305C223.034 275.528 210 304.711 210 304.711L229.154 330.089C229.154 330.089 227.006 366.269 229.868 389.672C230.461 394.522 234.442 398.126 239.07 397.997C245.296 397.823 253.962 397.492 260.069 396.895C271.52 395.776 295.534 396.33 314.491 396.609C318.763 396.672 321.955 393.048 321.582 388.554L316.066 321.959L338 321.394Z" fill="#AA4465"/>
</g>
<path fill-rule="evenodd" clip-rule="evenodd" d="M229.676 390C229.316 390 229.005 389.732 228.96 389.369C226.239 367.245 228.036 333.331 228.223 329.985L209.146 304.845C208.987 304.636 208.955 304.357 209.063 304.118C209.601 302.921 222.337 274.714 231.22 268.455C239.769 262.433 278.834 256.069 304.765 266.752C317.912 272.168 326.521 286.639 331.428 297.824C336.717 309.881 338.964 320.825 338.986 320.934C339.028 321.143 338.975 321.358 338.842 321.525C338.709 321.69 338.509 321.79 338.296 321.795L317.032 322.34L322.102 383.218C322.135 383.615 321.839 383.962 321.441 383.995C321.048 384.02 320.694 383.733 320.661 383.337L315.528 321.7C315.511 321.503 315.577 321.307 315.71 321.16C315.843 321.013 316.031 320.927 316.229 320.922L337.383 320.379C335.997 314.32 326.681 277.337 304.212 268.081C289.458 262.003 271.457 262.135 262.037 262.751C248.909 263.612 236.581 266.441 232.055 269.63C224.036 275.28 212.142 300.857 210.558 304.319L229.537 329.329C229.64 329.465 229.691 329.634 229.681 329.805C229.66 330.166 227.561 366.15 230.395 389.193C230.444 389.588 230.162 389.947 229.766 389.995C229.735 389.998 229.706 390 229.676 390Z" fill="#2A2B2E"/>
<path fill-rule="evenodd" clip-rule="evenodd" d="M231.539 358L279 355.592L261.461 303L214 305.408L231.539 358Z" fill="#2A2B2E"/>
<path fill-rule="evenodd" clip-rule="evenodd" d="M334.41 321.544L309.847 312C309.847 312 315.283 352.605 265.734 336.231C265.734 336.231 267.262 330.9 266.701 324.793C266.139 318.685 262.783 324.792 262.521 329.792C262.26 334.792 250.747 333.35 243.792 331.735C236.836 330.122 227.9 331.86 244.199 339.822C260.498 347.783 263.775 343.699 263.775 343.699C263.775 343.699 285.456 371.065 310.349 363.761C340.968 354.778 334.41 321.544 334.41 321.544Z" fill="white"/>
<path fill-rule="evenodd" clip-rule="evenodd" d="M263.383 342.441H263.386C263.604 342.441 263.802 342.55 263.938 342.721C264.151 342.988 285.513 369.407 309.534 362.383C321.908 358.765 329.615 350.771 332.442 338.624C334.299 330.644 333.328 323.422 333.05 321.708L310.062 312.806C310.331 316.583 310.421 328.356 302.059 335.285C294.423 341.614 281.989 342 265.1 336.438C264.734 336.317 264.529 335.93 264.635 335.56C264.649 335.508 266.111 330.32 265.572 324.475C265.459 323.247 265.246 322.783 265.146 322.627C264.492 323.054 263.02 326.061 262.844 329.407C262.788 330.484 262.306 331.371 261.413 332.043C257.507 334.979 246.578 332.749 243.321 331.996C239.179 331.039 235.754 331.539 235.467 332.346C235.442 332.418 234.945 334.168 244.203 338.675C259.421 346.085 262.8 342.733 262.832 342.698C262.968 342.53 263.166 342.441 263.383 342.441ZM301.217 365C293.335 365 285.057 362.107 276.854 356.426C269.758 351.511 264.746 345.9 263.266 344.157C261.631 345.119 256.665 346.338 243.574 339.965C234.147 335.375 233.66 333.145 234.114 331.867C234.944 329.529 240.401 329.848 243.645 330.599C249.747 332.011 257.837 332.936 260.549 330.897C261.095 330.487 261.376 329.975 261.41 329.332C261.581 326.065 263.236 321.192 265.173 321.154C265.183 321.153 265.192 321.153 265.202 321.153C266.708 321.153 266.929 323.552 267.003 324.343C267.458 329.276 266.58 333.652 266.188 335.284C282.244 340.463 293.999 340.095 301.135 334.187C310.37 326.541 308.544 311.958 308.525 311.812C308.491 311.561 308.593 311.311 308.792 311.154C308.993 310.997 309.26 310.957 309.496 311.049L333.947 320.518C334.177 320.606 334.344 320.806 334.392 321.047C334.46 321.39 336.029 329.549 333.841 338.948C331.811 347.672 326.016 359.058 309.938 363.759C307.104 364.588 304.189 365 301.217 365Z" fill="#2A2B2E"/>
<path fill-rule="evenodd" clip-rule="evenodd" d="M266.234 248.213C268.406 249.992 272.579 252.089 275.674 250.346C277.978 249.048 279.143 245.926 278.883 242.428C279.982 242.463 281.413 242.314 282.391 241.367C283.898 239.907 283.474 237.381 283.327 235.715C282.65 228.024 287.108 226.616 285.736 221.442C284.658 217.376 281.276 215.09 280.644 214.662C277.45 212.505 275.404 213.355 270.165 212.271C261.348 210.447 260.882 206.745 255.148 207.014C254.817 207.03 247.019 207.505 244.643 212.978C242.71 217.43 245.495 222.583 248.237 225.227C251.788 228.65 254.115 226.755 257.649 229.598C263.851 234.59 259.784 242.929 266.234 248.213Z" fill="#2A2B2E"/>
<path fill-rule="evenodd" clip-rule="evenodd" d="M248.408 235.549L248.74 235.237C250.403 233.665 252.127 231.85 252.475 229.6C253.956 220.031 262.541 216.155 263.388 224.831C263.602 227.02 271.688 226.503 270.845 228.855C268.647 234.985 268.51 233.372 272.156 235.408C272.557 235.405 272.959 235.472 273.342 235.627C275.197 236.372 275.962 238.776 275.052 240.996C274.499 242.343 273.455 243.304 272.306 243.692L272.789 253.18C272.97 256.737 275.305 259.832 278.698 261.012L282 262.16C282 262.16 267.411 272.664 251.556 262.723L253.553 261.713C257.07 259.935 259.254 256.325 259.18 252.415L259.102 250.559C258.077 250.701 257.077 250.681 256.142 250.462C251.797 249.442 250.125 244.626 250.545 238.515L248.754 237.675C247.918 237.282 247.74 236.181 248.408 235.549Z" fill="white"/>
<path fill-rule="evenodd" clip-rule="evenodd" d="M252.709 263.127C264.792 270.019 276.007 264.795 279.636 262.7L277.783 262.053C274.142 260.782 271.664 257.483 271.469 253.649L270.992 244.241C270.976 243.922 271.175 243.63 271.479 243.528C272.461 243.195 273.312 242.348 273.755 241.264C274.127 240.353 274.184 239.385 273.915 238.538C273.663 237.739 273.147 237.148 272.464 236.872C272.189 236.761 271.891 236.716 271.569 236.709H271.563C271.44 236.709 271.318 236.677 271.209 236.616C270.592 236.27 270.087 236.033 269.68 235.842C267.507 234.823 267.752 234.173 268.786 231.436C269.009 230.846 269.279 230.131 269.592 229.254C269.62 229.174 269.609 229.153 269.603 229.142C269.365 228.711 267.686 228.332 266.575 228.082C264.399 227.591 262.343 227.128 262.192 225.575C261.941 222.984 260.934 221.474 259.43 221.432C256.908 221.367 253.682 224.926 252.848 230.342C252.466 232.822 250.634 234.739 248.946 236.34L248.619 236.65C248.479 236.784 248.416 236.97 248.447 237.161C248.478 237.352 248.596 237.509 248.772 237.592L250.54 238.426C250.806 238.552 250.969 238.827 250.949 239.121C250.525 245.331 252.338 249.377 255.922 250.222C256.724 250.411 257.619 250.438 258.578 250.305C258.779 250.276 258.983 250.335 259.139 250.464C259.295 250.593 259.389 250.782 259.397 250.984L259.474 252.824C259.553 256.962 257.218 260.836 253.528 262.711L252.709 263.127ZM265.425 268C260.978 268 255.967 266.905 250.844 263.679C250.625 263.542 250.498 263.298 250.51 263.041C250.522 262.784 250.672 262.554 250.902 262.437L252.874 261.436C256.077 259.809 258.103 256.446 258.036 252.867L257.991 251.802C257.143 251.853 256.339 251.791 255.591 251.615C251.354 250.616 249.142 246.217 249.484 239.513L248.156 238.886C247.554 238.602 247.132 238.042 247.026 237.389C246.92 236.735 247.144 236.072 247.625 235.615H247.626L247.953 235.304C249.468 233.866 251.112 232.16 251.426 230.125C252.406 223.761 256.346 219.926 259.471 220.001C260.564 220.031 263.157 220.622 263.625 225.436C263.676 225.961 265.769 226.432 266.893 226.686C268.728 227.099 270.313 227.457 270.864 228.451C271.079 228.84 271.108 229.284 270.948 229.734C270.631 230.62 270.358 231.343 270.133 231.939C269.739 232.983 269.399 233.885 269.453 234.102C269.517 234.183 269.93 234.376 270.293 234.547C270.686 234.731 271.167 234.956 271.756 235.28C272.195 235.298 272.614 235.387 273.006 235.546C274.092 235.985 274.904 236.894 275.288 238.107C275.657 239.272 275.586 240.584 275.088 241.802C274.558 243.101 273.615 244.124 272.456 244.675L272.907 253.577C273.072 256.827 275.173 259.624 278.26 260.703L281.519 261.841C281.771 261.929 281.954 262.149 281.992 262.412C282.031 262.676 281.92 262.939 281.703 263.095C281.603 263.168 274.763 268 265.425 268Z" fill="#2A2B2E"/>
<path fill-rule="evenodd" clip-rule="evenodd" d="M258.744 251C258.398 251 258.088 250.777 258.015 250.452C257.933 250.081 258.192 249.718 258.595 249.642C264.176 248.587 266.57 244.414 266.593 244.372C266.781 244.036 267.229 243.903 267.595 244.075C267.96 244.248 268.105 244.66 267.919 244.997C267.811 245.192 265.198 249.794 258.895 250.986C258.844 250.995 258.794 251 258.744 251Z" fill="#2A2B2E"/>
<path fill-rule="evenodd" clip-rule="evenodd" d="M326 188.5C326 198.717 317.717 207 307.5 207C297.283 207 289 198.717 289 188.5C289 178.283 297.283 170 307.5 170C317.717 170 326 178.283 326 188.5Z" fill="#2A2B2E"/>
<path fill-rule="evenodd" clip-rule="evenodd" d="M326 188C326 197.941 317.941 206 308 206C298.059 206 290 197.941 290 188C290 178.058 298.059 170 308 170C317.941 170 326 178.058 326 188Z" fill="#2A2B2E"/>
<path fill-rule="evenodd" clip-rule="evenodd" d="M308.5 171.425C299.085 171.425 291.425 179.085 291.425 188.5C291.425 197.915 299.085 205.575 308.5 205.575C317.915 205.575 325.575 197.915 325.575 188.5C325.575 179.085 317.915 171.425 308.5 171.425ZM308.5 207C298.299 207 290 198.701 290 188.5C290 178.299 298.299 170 308.5 170C318.701 170 327 178.299 327 188.5C327 198.701 318.701 207 308.5 207Z" fill="#2A2B2E"/>
<path fill-rule="evenodd" clip-rule="evenodd" d="M323 188C323 196.285 316.284 203 308 203C299.716 203 293 196.285 293 188C293 179.715 299.716 173 308 173C316.284 173 323 179.715 323 188Z" fill="white"/>
<path fill-rule="evenodd" clip-rule="evenodd" d="M306.574 199V196.555C304.771 196.478 303.022 196.014 302 195.448L302.807 192.438C303.937 193.029 305.524 193.569 307.274 193.569C308.807 193.569 309.857 193.004 309.857 191.974C309.857 190.996 308.996 190.378 307.004 189.735C304.125 188.809 302.161 187.522 302.161 185.026C302.161 182.761 303.829 180.985 306.708 180.445V178H309.345V180.265C311.148 180.342 312.359 180.702 313.247 181.114L312.466 184.022C311.767 183.739 310.529 183.147 308.592 183.147C306.843 183.147 306.278 183.868 306.278 184.588C306.278 185.437 307.22 185.978 309.507 186.802C312.708 187.883 314 189.298 314 191.614C314 193.904 312.305 195.86 309.211 196.375V199H306.574Z" fill="#AA4465"/>
<path fill-rule="evenodd" clip-rule="evenodd" d="M351 231.5C351 243.927 340.927 254 328.5 254C316.073 254 306 243.927 306 231.5C306 219.073 316.073 209 328.5 209C340.927 209 351 219.073 351 231.5Z" fill="#2A2B2E"/>
<path fill-rule="evenodd" clip-rule="evenodd" d="M351 230.5C351 242.374 341.374 252 329.5 252C317.626 252 308 242.374 308 230.5C308 218.626 317.626 209 329.5 209C341.374 209 351 218.626 351 230.5Z" fill="#2A2B2E"/>
<path fill-rule="evenodd" clip-rule="evenodd" d="M329.5 209.447C317.891 209.447 308.447 218.891 308.447 230.5C308.447 242.109 317.891 251.553 329.5 251.553C341.109 251.553 350.553 242.109 350.553 230.5C350.553 218.891 341.109 209.447 329.5 209.447ZM329.5 253C317.093 253 307 242.907 307 230.5C307 218.094 317.093 208 329.5 208C341.907 208 352 218.094 352 230.5C352 242.907 341.907 253 329.5 253Z" fill="#2A2B2E"/>
<path fill-rule="evenodd" clip-rule="evenodd" d="M347 231C347 240.941 338.941 249 329 249C319.059 249 311 240.941 311 231C311 221.059 319.059 213 329 213C338.941 213 347 221.059 347 231Z" fill="white"/>
<path fill-rule="evenodd" clip-rule="evenodd" d="M327.336 244V240.973C325.233 240.877 323.193 240.304 322 239.603L322.942 235.875C324.26 236.607 326.112 237.277 328.152 237.277C329.942 237.277 331.166 236.576 331.166 235.301C331.166 234.09 330.162 233.326 327.838 232.53C324.48 231.382 322.188 229.789 322.188 226.699C322.188 223.895 324.135 221.696 327.493 221.027V218H330.569V220.804C332.672 220.899 334.086 221.345 335.121 221.856L334.211 225.456C333.395 225.105 331.951 224.372 329.691 224.372C327.65 224.372 326.991 225.264 326.991 226.156C326.991 227.208 328.09 227.877 330.758 228.897C334.493 230.235 336 231.987 336 234.855C336 237.691 334.022 240.113 330.412 240.75V244H327.336Z" fill="#AA4465"/>
<path fill-rule="evenodd" clip-rule="evenodd" d="M375 184.5C375 196.927 364.927 207 352.5 207C340.074 207 330 196.927 330 184.5C330 172.074 340.074 162 352.5 162C364.927 162 375 172.074 375 184.5Z" fill="#2A2B2E"/>
<path fill-rule="evenodd" clip-rule="evenodd" d="M375 183.5C375 195.374 365.374 205 353.5 205C341.626 205 332 195.374 332 183.5C332 171.626 341.626 162 353.5 162C365.374 162 375 171.626 375 183.5Z" fill="#2A2B2E"/>
<path fill-rule="evenodd" clip-rule="evenodd" d="M353.5 162.447C341.891 162.447 332.447 171.891 332.447 183.5C332.447 195.109 341.891 204.553 353.5 204.553C365.109 204.553 374.553 195.109 374.553 183.5C374.553 171.891 365.109 162.447 353.5 162.447ZM353.5 206C341.093 206 331 195.906 331 183.5C331 171.094 341.093 161 353.5 161C365.907 161 376 171.094 376 183.5C376 195.906 365.907 206 353.5 206Z" fill="#2A2B2E"/>
<path fill-rule="evenodd" clip-rule="evenodd" d="M372 184C372 193.941 363.941 202 354 202C344.059 202 336 193.941 336 184C336 174.059 344.059 166 354 166C363.941 166 372 174.059 372 184Z" fill="white"/>
<path fill-rule="evenodd" clip-rule="evenodd" d="M352.336 197V193.973C350.233 193.878 348.193 193.304 347 192.603L347.942 188.875C349.26 189.608 351.112 190.277 353.152 190.277C354.941 190.277 356.166 189.576 356.166 188.302C356.166 187.09 355.162 186.326 352.838 185.53C349.48 184.382 347.188 182.79 347.188 179.699C347.188 176.895 349.135 174.696 352.493 174.027V171H355.569V173.804C357.672 173.9 359.086 174.346 360.121 174.856L359.211 178.456C358.395 178.105 356.951 177.373 354.691 177.373C352.65 177.373 351.991 178.265 351.991 179.157C351.991 180.208 353.09 180.878 355.758 181.897C359.493 183.236 361 184.988 361 187.856C361 190.691 359.022 193.113 355.412 193.75V197H352.336Z" fill="#AA4465"/>
<path fill-rule="evenodd" clip-rule="evenodd" d="M6.84001 206C6.45428 206 6.13405 205.696 6.11864 205.31C5.21668 182.361 9.46114 159.513 18.7345 137.401C27.8288 115.715 41.2965 95.8017 58.7636 78.2131C59.0444 77.931 59.5014 77.9291 59.785 78.2069C60.0691 78.4862 60.072 78.9408 59.7913 79.2235C24.834 114.423 5.79744 160.36 7.56235 205.253C7.57776 205.65 7.26716 205.984 6.86891 206C6.85928 206 6.84964 206 6.84001 206Z" fill="#2A2B2E"/>
<path fill-rule="evenodd" clip-rule="evenodd" d="M20.241 235C19.9183 235 19.6241 234.786 19.5395 234.462C13.6686 211.924 13.4913 188.798 19.0134 165.727C24.3471 143.443 34.673 122.432 49.7031 103.277C49.9485 102.965 50.4041 102.907 50.72 103.151C51.036 103.395 51.093 103.846 50.8476 104.159C20.428 142.925 9.52868 190.288 20.9435 234.103C21.0435 234.487 20.8102 234.878 20.4227 234.977C20.3618 234.992 20.3009 235 20.241 235Z" fill="#2A2B2E"/>
<path fill-rule="evenodd" clip-rule="evenodd" d="M56.6323 94.7041L57.648 98.7209L60.1015 95.6067C59.2606 95.3668 57.9932 95.0209 56.6323 94.7041ZM57.3309 101C57.2818 101 57.2319 100.995 57.1824 100.982C56.9362 100.923 56.7404 100.721 56.6736 100.457L55.0242 93.9346C54.9619 93.6882 55.0219 93.4246 55.1818 93.2369C55.3417 93.0497 55.5784 92.9645 55.8109 93.0137C58.6601 93.6118 61.4774 94.4799 61.5056 94.4888C61.7286 94.5573 61.904 94.745 61.9708 94.9854C62.038 95.2268 61.9876 95.488 61.8368 95.6791L57.8492 100.741C57.7179 100.907 57.5276 101 57.3309 101Z" fill="#2A2B2E"/>
<path fill-rule="evenodd" clip-rule="evenodd" d="M372.5 224C372.224 224 372 223.688 372 223.303V219.697C372 219.312 372.224 219 372.5 219C372.776 219 373 219.312 373 219.697V223.303C373 223.688 372.776 224 372.5 224Z" fill="#2A2B2E"/>
<path fill-rule="evenodd" clip-rule="evenodd" d="M372.5 233C372.224 233 372 232.688 372 232.303V228.697C372 228.312 372.224 228 372.5 228C372.776 228 373 228.312 373 228.697V232.303C373 232.688 372.776 233 372.5 233Z" fill="#2A2B2E"/>
<path fill-rule="evenodd" clip-rule="evenodd" d="M369.303 226H365.697C365.312 226 365 225.776 365 225.5C365 225.224 365.312 225 365.697 225H369.303C369.688 225 370 225.224 370 225.5C370 225.776 369.688 226 369.303 226Z" fill="#2A2B2E"/>
<path fill-rule="evenodd" clip-rule="evenodd" d="M378.303 226H374.697C374.312 226 374 225.776 374 225.5C374 225.224 374.312 225 374.697 225H378.303C378.688 225 379 225.224 379 225.5C379 225.776 378.688 226 378.303 226Z" fill="#2A2B2E"/>
<path fill-rule="evenodd" clip-rule="evenodd" d="M363.716 341C363.526 341 363.336 340.924 363.195 340.774C362.924 340.485 362.937 340.03 363.225 339.757C381.044 322.863 390.917 303.654 392.572 282.663C392.603 282.266 392.952 281.97 393.341 282.002C393.735 282.034 394.029 282.38 393.998 282.776C392.315 304.135 382.291 323.658 364.206 340.804C364.068 340.935 363.892 341 363.716 341Z" fill="#2A2B2E"/>
<path fill-rule="evenodd" clip-rule="evenodd" d="M358.718 336C358.535 336 358.353 335.931 358.213 335.792C357.931 335.514 357.929 335.059 358.207 334.776C375.46 317.256 384.664 297.713 385.565 276.688C385.582 276.291 385.904 275.988 386.313 276C386.709 276.018 387.016 276.353 386.999 276.75C386.082 298.141 376.739 318.004 359.228 335.786C359.088 335.929 358.903 336 358.718 336Z" fill="#2A2B2E"/>
<path fill-rule="evenodd" clip-rule="evenodd" d="M112.076 178H61.9239C59.7569 178 58 176.242 58 174.074V125.926C58 123.758 59.7569 122 61.9239 122H112.076C114.243 122 116 123.758 116 125.926V174.074C116 176.242 114.243 178 112.076 178Z" fill="white"/>
<path fill-rule="evenodd" clip-rule="evenodd" d="M116 132H58V126.048C58 123.812 59.7569 122 61.9244 122H112.076C114.243 122 116 123.812 116 126.048V132Z" fill="#2A2B2E"/>
<path fill-rule="evenodd" clip-rule="evenodd" d="M61.611 123.432C59.8581 123.432 58.4317 124.858 58.4317 126.612V174.388C58.4317 176.142 59.8581 177.568 61.611 177.568H111.389C113.142 177.568 114.568 176.142 114.568 174.388V126.612C114.568 124.858 113.142 123.432 111.389 123.432H61.611ZM111.389 179H61.611C59.0683 179 57 176.931 57 174.388V126.612C57 124.069 59.0683 122 61.611 122H111.389C113.932 122 116 124.069 116 126.612V174.388C116 176.931 113.932 179 111.389 179Z" fill="#2A2B2E"/>
<path fill-rule="evenodd" clip-rule="evenodd" d="M70.9449 159H66.0555C64.9204 159 64 158.085 64 156.957V152.043C64 150.915 64.9204 150 66.0555 150H70.9449C72.08 150 73 150.915 73 152.043V156.957C73 158.085 72.08 159 70.9449 159Z" fill="#C9CEBD"/>
<path fill-rule="evenodd" clip-rule="evenodd" d="M82.9449 159H78.0551C76.9204 159 76 158.085 76 156.957V152.043C76 150.915 76.9204 150 78.0551 150H82.9449C84.08 150 85 150.915 85 152.043V156.957C85 158.085 84.08 159 82.9449 159Z" fill="#C9CEBD"/>
<path fill-rule="evenodd" clip-rule="evenodd" d="M94.9449 159H90.0551C88.9204 159 88 158.085 88 156.957V152.043C88 150.915 88.9204 150 90.0551 150H94.9449C96.08 150 97 150.915 97 152.043V156.957C97 158.085 96.08 159 94.9449 159Z" fill="#AA4465"/>
<path fill-rule="evenodd" clip-rule="evenodd" d="M107.945 159H103.055C101.92 159 101 158.085 101 156.957V152.043C101 150.915 101.92 150 103.055 150H107.945C109.08 150 110 150.915 110 152.043V156.957C110 158.085 109.08 159 107.945 159Z" fill="#C9CEBD"/>
<path fill-rule="evenodd" clip-rule="evenodd" d="M70.9449 172H66.0555C64.9204 172 64 171.085 64 169.957V165.043C64 163.915 64.9204 163 66.0555 163H70.9449C72.08 163 73 163.915 73 165.043V169.957C73 171.085 72.08 172 70.9449 172Z" fill="#C9CEBD"/>
<path fill-rule="evenodd" clip-rule="evenodd" d="M82.9449 172H78.0551C76.9204 172 76 171.085 76 169.957V165.043C76 163.915 76.9204 163 78.0551 163H82.9449C84.08 163 85 163.915 85 165.043V169.957C85 171.085 84.08 172 82.9449 172Z" fill="#C9CEBD"/>
<path fill-rule="evenodd" clip-rule="evenodd" d="M94.9449 172H90.0551C88.9204 172 88 171.085 88 169.957V165.043C88 163.915 88.9204 163 90.0551 163H94.9449C96.08 163 97 163.915 97 165.043V169.957C97 171.085 96.08 172 94.9449 172Z" fill="#C9CEBD"/>
<path fill-rule="evenodd" clip-rule="evenodd" d="M70.9449 147H66.0555C64.9204 147 64 146.085 64 144.957V140.043C64 138.915 64.9204 138 66.0555 138H70.9449C72.08 138 73 138.915 73 140.043V144.957C73 146.085 72.08 147 70.9449 147Z" fill="#C9CEBD"/>
<path fill-rule="evenodd" clip-rule="evenodd" d="M82.9449 147H78.0551C76.9204 147 76 146.085 76 144.957V140.043C76 138.915 76.9204 138 78.0551 138H82.9449C84.08 138 85 138.915 85 140.043V144.957C85 146.085 84.08 147 82.9449 147Z" fill="#C9CEBD"/>
<path fill-rule="evenodd" clip-rule="evenodd" d="M94.9449 147H90.0551C88.9204 147 88 146.085 88 144.957V140.043C88 138.915 88.9204 138 90.0551 138H94.9449C96.08 138 97 138.915 97 140.043V144.957C97 146.085 96.08 147 94.9449 147Z" fill="#C9CEBD"/>
<path fill-rule="evenodd" clip-rule="evenodd" d="M107.945 147H103.055C101.92 147 101 146.085 101 144.957V140.043C101 138.915 101.92 138 103.055 138H107.945C109.08 138 110 138.915 110 140.043V144.957C110 146.085 109.08 147 107.945 147Z" fill="#C9CEBD"/>
<path fill-rule="evenodd" clip-rule="evenodd" d="M66.0698 128H66.068C63.2751 127.992 61.0018 125.52 61 122.489C60.9991 121.01 61.5316 119.624 62.4991 118.585C63.4507 117.563 64.7124 117.001 66.052 117.001C66.1582 116.997 66.268 117.005 66.3751 117.012C66.7431 117.038 67.0218 117.378 66.9987 117.773C66.9755 118.169 66.6635 118.471 66.2911 118.443C66.2129 118.438 66.1369 118.44 66.0538 118.435C65.068 118.435 64.1409 118.849 63.4409 119.6C62.7262 120.367 62.3329 121.393 62.3333 122.488C62.3347 124.73 64.0116 126.56 66.0716 126.566C66.44 126.567 66.7373 126.889 66.7364 127.285C66.7355 127.68 66.4373 128 66.0698 128Z" fill="#2A2B2E"/>
<path fill-rule="evenodd" clip-rule="evenodd" d="M73.0698 128H73.068C70.2751 127.992 68.0018 125.519 68 122.488C67.9991 121.009 68.5316 119.623 69.4991 118.584C70.4507 117.563 71.712 117.001 73.052 117.001C73.1591 116.998 73.268 117.004 73.3751 117.012C73.7431 117.037 74.0218 117.377 73.9987 117.772C73.9755 118.168 73.6609 118.463 73.2911 118.443C73.2129 118.437 73.1364 118.436 73.0538 118.434C72.068 118.434 71.1409 118.848 70.4409 119.599C69.7262 120.366 69.3329 121.392 69.3333 122.487C69.3347 124.73 71.0116 126.56 73.0716 126.566C73.44 126.567 73.7373 126.889 73.7364 127.285C73.7355 127.68 73.4373 128 73.0698 128Z" fill="#2A2B2E"/>
<path fill-rule="evenodd" clip-rule="evenodd" d="M80.0698 128H80.068C77.2756 127.992 75.0018 125.52 75 122.488C74.9991 121.009 75.5316 119.622 76.4991 118.584C77.4507 117.562 78.7124 117 80.052 117C80.1631 117 80.2689 117.004 80.3751 117.011C80.7431 117.036 81.0218 117.377 80.9987 117.772C80.9755 118.168 80.6631 118.468 80.2911 118.443C80.2116 118.437 80.1316 118.43 80.0507 118.434C79.068 118.434 78.1413 118.847 77.4409 119.599C76.7262 120.366 76.3324 121.392 76.3333 122.487C76.3347 124.73 78.0116 126.56 80.0716 126.566C80.44 126.567 80.7373 126.889 80.7364 127.285C80.7355 127.68 80.4373 128 80.0698 128Z" fill="#2A2B2E"/>
<path fill-rule="evenodd" clip-rule="evenodd" d="M87.0698 128H87.068C84.2756 127.992 82.0018 125.519 82 122.488C81.9991 121.008 82.5316 119.622 83.4991 118.584C84.4507 117.562 85.712 117 87.052 117C87.1587 117.001 87.268 117.003 87.3751 117.011C87.7427 117.036 88.0218 117.376 87.9987 117.772C87.9756 118.167 87.6604 118.472 87.2911 118.442C87.2124 118.436 87.1324 118.432 87.0538 118.434C86.068 118.434 85.1409 118.847 84.4409 119.599C83.7262 120.366 83.3324 121.392 83.3333 122.487C83.3347 124.73 85.0116 126.56 87.0716 126.566C87.44 126.567 87.7373 126.889 87.7364 127.285C87.7356 127.68 87.4373 128 87.0698 128Z" fill="#2A2B2E"/>
<path fill-rule="evenodd" clip-rule="evenodd" d="M94.0698 128H94.068C91.2751 127.992 89.0018 125.52 89 122.488C88.9991 121.009 89.5316 119.622 90.4991 118.584C91.4507 117.562 92.7124 117 94.052 117C94.1644 117.002 94.2689 117.004 94.3751 117.011C94.7427 117.036 95.0218 117.377 94.9987 117.772C94.9756 118.168 94.6627 118.466 94.2911 118.443C94.2116 118.437 94.1302 118.438 94.0507 118.434C93.068 118.434 92.1413 118.847 91.4409 119.599C90.7262 120.366 90.3324 121.392 90.3333 122.487C90.3347 124.731 92.0116 126.56 94.0716 126.566C94.4396 126.567 94.7373 126.889 94.7364 127.285C94.7356 127.68 94.4373 128 94.0698 128Z" fill="#2A2B2E"/>
<path fill-rule="evenodd" clip-rule="evenodd" d="M102.07 128H102.068C99.2751 127.992 97.0018 125.52 97 122.488C96.9991 121.009 97.532 119.622 98.4996 118.584C99.4511 117.562 100.712 117 102.052 117C102.158 116.999 102.268 117.004 102.375 117.011C102.743 117.037 103.022 117.377 102.999 117.772C102.976 118.167 102.66 118.471 102.291 118.442C102.212 118.437 102.138 118.435 102.054 118.434C101.068 118.434 100.141 118.848 99.4413 119.599C98.7262 120.366 98.3329 121.392 98.3333 122.487C98.3347 124.73 100.012 126.56 102.072 126.566C102.44 126.567 102.737 126.889 102.736 127.285C102.736 127.68 102.437 128 102.07 128Z" fill="#2A2B2E"/>
<path fill-rule="evenodd" clip-rule="evenodd" d="M108.35 128H108.348C105.401 127.992 103.002 125.52 103 122.488C102.999 121.009 103.561 119.622 104.582 118.584C105.586 117.562 106.918 117 108.331 117H108.346C110.212 117.005 111.913 117.986 112.896 119.623C113.099 119.961 112.995 120.402 112.664 120.609C112.332 120.816 111.899 120.709 111.697 120.372C110.97 119.162 109.716 118.438 108.342 118.434H108.331C107.293 118.434 106.315 118.847 105.576 119.599C104.822 120.366 104.406 121.392 104.407 122.487C104.408 124.731 106.178 126.56 108.352 126.566C108.74 126.567 109.054 126.889 109.053 127.285C109.052 127.68 108.738 128 108.35 128Z" fill="#2A2B2E"/>
</svg>
