<svg width="51" height="52" viewBox="0 0 51 52" fill="none" xmlns="http://www.w3.org/2000/svg">
<path d="M15 17H47.6889C49.2112 17 50.4044 17.7381 49.8705 19.1333L45.091 30.9232C44.6127 32.1723 43.3933 33 42.0301 33H17.1794" stroke="#2A2B2E" stroke-width="2"/>
<path d="M43 41H22.1697C20.826 41 20.0068 40.2903 19.3339 38.8375C18.5932 37.2394 12.928 19.7512 11.2295 14.4894C10.9435 13.6009 10.1168 13 9.1848 13H0" stroke="#2A2B2E" stroke-width="2"/>
<path fill-rule="evenodd" clip-rule="evenodd" d="M24 47.4994C24 49.4324 22.4324 51 20.4994 51C18.5664 51 17 49.4324 17 47.4994C17 45.5676 18.5664 44 20.4994 44C22.4324 44 24 45.5676 24 47.4994Z" fill="#AA4465"/>
<path fill-rule="evenodd" clip-rule="evenodd" d="M24 47.4994C24 49.4324 22.4324 51 20.4994 51C18.5664 51 17 49.4324 17 47.4994C17 45.5676 18.5664 44 20.4994 44C22.4324 44 24 45.5676 24 47.4994Z" stroke="#2A2B2E" stroke-width="2"/>
<path fill-rule="evenodd" clip-rule="evenodd" d="M44 47.4994C44 49.4324 42.4324 51 40.4994 51C38.5664 51 37 49.4324 37 47.4994C37 45.5676 38.5664 44 40.4994 44C42.4324 44 44 45.5676 44 47.4994Z" fill="#AA4465"/>
<path fill-rule="evenodd" clip-rule="evenodd" d="M44 47.4994C44 49.4324 42.4324 51 40.4994 51C38.5664 51 37 49.4324 37 47.4994C37 45.5676 38.5664 44 40.4994 44C42.4324 44 44 45.5676 44 47.4994Z" stroke="#2A2B2E" stroke-width="2"/>
<path fill-rule="evenodd" clip-rule="evenodd" d="M41 10.4444V1H24V11" fill="#AA4465"/>
<path d="M41 10.4444V1H24V11" stroke="#2A2B2E" stroke-width="2"/>
<path fill-rule="evenodd" clip-rule="evenodd" d="M37 15V11H20V15" fill="#AA4465"/>
<path d="M37 15V11H20V15" stroke="#2A2B2E" stroke-width="2"/>
<path fill-rule="evenodd" clip-rule="evenodd" d="M46 15V5H31V15" fill="#C9CEBD"/>
<path d="M46 15V5H31V15" stroke="#2A2B2E" stroke-width="2"/>
</svg>
